<?xml version="1.0" encoding="utf-8" standalone="no"?>
<!DOCTYPE svg PUBLIC "-//W3C//DTD SVG 1.1//EN"
  "http://www.w3.org/Graphics/SVG/1.1/DTD/svg11.dtd">
<svg xmlns:xlink="http://www.w3.org/1999/xlink" width="1130.4pt" height="752.688712pt" viewBox="0 0 1130.4 752.688712" xmlns="http://www.w3.org/2000/svg" version="1.1">
 <metadata>
  <rdf:RDF xmlns:dc="http://purl.org/dc/elements/1.1/" xmlns:cc="http://creativecommons.org/ns#" xmlns:rdf="http://www.w3.org/1999/02/22-rdf-syntax-ns#">
   <cc:Work>
    <dc:type rdf:resource="http://purl.org/dc/dcmitype/StillImage"/>
    <dc:date>2026-05-09T21:19:06.202329</dc:date>
    <dc:format>image/svg+xml</dc:format>
    <dc:creator>
     <cc:Agent>
      <dc:title>Matplotlib v3.10.9, https://matplotlib.org/</dc:title>
     </cc:Agent>
    </dc:creator>
   </cc:Work>
  </rdf:RDF>
 </metadata>
 <defs>
  <style type="text/css">*{stroke-linejoin: round; stroke-linecap: butt}</style>
 </defs>
 <g id="figure_1">
  <g id="patch_1">
   <path d="M 0 752.688712 
L 1130.4 752.688712 
L 1130.4 -0 
L 0 -0 
z
" style="fill: #0f172a"/>
  </g>
  <g id="axes_1">
   <g id="patch_2">
    <path d="M 286.2 339.546025 
C 339.473999 339.546025 390.573204 326.928367 428.24361 304.471945 
C 465.914016 282.015522 487.08 251.553802 487.08 219.795625 
C 487.08 188.037448 465.914016 157.575728 428.24361 135.119305 
C 390.573204 112.662883 339.473999 100.045225 286.2 100.045225 
C 232.926001 100.045225 181.826796 112.662883 144.15639 135.119305 
C 106.485984 157.575728 85.32 188.037448 85.32 219.795625 
C 85.32 251.553802 106.485984 282.015522 144.15639 304.471945 
C 181.826796 326.928367 232.926001 339.546025 286.2 339.546025 
z
" clip-path="url(#pb8c72d546b)" style="fill: #1e293b; stroke: #f8fafc; stroke-width: 3; stroke-linejoin: miter"/>
   </g>
   <g id="patch_3">
    <path d="M 487.08 219.795625 
C 487.08 206.440776 483.332411 193.179522 475.992639 180.56178 
C 468.652866 167.944038 457.823788 156.146666 443.954465 145.658877 
C 430.085142 135.171088 413.369974 126.139885 394.502106 118.939774 
C 375.634239 111.739664 354.878133 106.471566 333.094505 103.353938 
C 311.310877 100.236311 288.805056 99.312852 266.510317 100.621856 
C 244.215578 101.93086 222.444413 105.453979 202.099632 111.045117 
C 181.754851 116.636254 163.121615 124.217042 146.972611 133.473118 
C 130.823606 142.729195 117.385183 153.530824 107.214609 165.430081 
C 97.044036 177.329338 90.283865 190.159439 87.214431 203.388342 
C 84.144996 216.617246 84.80932 230.05953 89.179853 243.157769 
C 93.550386 256.256008 101.56587 268.826611 112.893917 280.348298 
C 124.221963 291.869985 138.703795 302.181263 155.738876 310.854544 
C 172.773957 319.527824 192.123517 326.441538 212.985166 331.308986 
C 233.846815 336.176434 255.928146 338.929393 278.313488 339.453702 
C 300.698831 339.978011 323.074421 338.266321 344.512386 334.389613 
C 365.950351 330.512905 386.150206 324.525517 404.274301 316.675734 
L 286.2 219.795625 
z
" clip-path="url(#pb8c72d546b)" style="fill: #00e676; stroke: #f8fafc; stroke-width: 3; stroke-linejoin: miter"/>
   </g>
   <g id="patch_4">
    <path d="M 844.2 339.546025 
C 897.473999 339.546025 948.573204 326.928367 986.24361 304.471945 
C 1023.914016 282.015522 1045.08 251.553802 1045.08 219.795625 
C 1045.08 188.037448 1023.914016 157.575728 986.24361 135.119305 
C 948.573204 112.662883 897.473999 100.045225 844.2 100.045225 
C 790.926001 100.045225 739.826796 112.662883 702.15639 135.119305 
C 664.485984 157.575728 643.32 188.037448 643.32 219.795625 
C 643.32 251.553802 664.485984 282.015522 702.15639 304.471945 
C 739.826796 326.928367 790.926001 339.546025 844.2 339.546025 
z
" clip-path="url(#pb8c72d546b)" style="fill: #1e293b; stroke: #f8fafc; stroke-width: 3; stroke-linejoin: miter"/>
   </g>
   <g id="patch_5">
    <path d="M 1045.08 219.795625 
C 1045.08 206.440776 1041.332411 193.179522 1033.992639 180.56178 
C 1026.652866 167.944038 1015.823788 156.146666 1001.954465 145.658877 
C 988.085142 135.171088 971.369974 126.139885 952.502106 118.939774 
C 933.634239 111.739664 912.878133 106.471566 891.094505 103.353938 
C 869.310877 100.236311 846.805056 99.312852 824.510317 100.621856 
C 802.215578 101.93086 780.444413 105.453979 760.099632 111.045117 
C 739.754851 116.636254 721.121615 124.217042 704.972611 133.473118 
C 688.823606 142.729195 675.385183 153.530824 665.214609 165.430081 
C 655.044036 177.329338 648.283865 190.159439 645.214431 203.388342 
C 642.144996 216.617246 642.80932 230.05953 647.179853 243.157769 
C 651.550386 256.256008 659.56587 268.826611 670.893917 280.348298 
C 682.221963 291.869985 696.703795 302.181263 713.738876 310.854544 
C 730.773957 319.527824 750.123517 326.441538 770.985166 331.308986 
C 791.846815 336.176434 813.928146 338.929393 836.313488 339.453702 
C 858.698831 339.978011 881.074421 338.266321 902.512386 334.389613 
C 923.950351 330.512905 944.150206 324.525517 962.274301 316.675734 
L 844.2 219.795625 
z
" clip-path="url(#pb8c72d546b)" style="fill: #00e676; stroke: #f8fafc; stroke-width: 3; stroke-linejoin: miter"/>
   </g>
   <g id="patch_6">
    <path d="M 286.2 672.186025 
C 339.473999 672.186025 390.573204 659.568367 428.24361 637.111945 
C 465.914016 614.655522 487.08 584.193802 487.08 552.435625 
C 487.08 520.677448 465.914016 490.215728 428.24361 467.759305 
C 390.573204 445.302883 339.473999 432.685225 286.2 432.685225 
C 232.926001 432.685225 181.826796 445.302883 144.15639 467.759305 
C 106.485984 490.215728 85.32 520.677448 85.32 552.435625 
C 85.32 584.193802 106.485984 614.655522 144.15639 637.111945 
C 181.826796 659.568367 232.926001 672.186025 286.2 672.186025 
z
" clip-path="url(#pb8c72d546b)" style="fill: #1e293b; stroke: #f8fafc; stroke-width: 3; stroke-linejoin: miter"/>
   </g>
   <g id="patch_7">
    <path d="M 487.08 552.435625 
C 487.08 539.080776 483.332411 525.819522 475.992639 513.20178 
C 468.652866 500.584038 457.823788 488.786666 443.954465 478.298877 
C 430.085142 467.811088 413.369974 458.779885 394.502106 451.579774 
C 375.634239 444.379664 354.878133 439.111566 333.094505 435.993938 
C 311.310877 432.876311 288.805056 431.952852 266.510317 433.261856 
C 244.215578 434.57086 222.444413 438.093979 202.099632 443.685117 
C 181.754851 449.276254 163.121615 456.857042 146.972611 466.113118 
C 130.823606 475.369195 117.385183 486.170824 107.214609 498.070081 
C 97.044036 509.969338 90.283865 522.799439 87.214431 536.028342 
C 84.144996 549.257246 84.80932 562.69953 89.179853 575.797769 
C 93.550386 588.896008 101.56587 601.466611 112.893917 612.988298 
C 124.221963 624.509985 138.703795 634.821263 155.738876 643.494544 
C 172.773957 652.167824 192.123517 659.081538 212.985166 663.948986 
C 233.846815 668.816434 255.928146 671.569393 278.313488 672.093702 
C 300.698831 672.618011 323.074421 670.906321 344.512386 667.029613 
C 365.950351 663.152905 386.150206 657.165517 404.274301 649.315734 
L 286.2 552.435625 
z
" clip-path="url(#pb8c72d546b)" style="fill: #00e676; stroke: #f8fafc; stroke-width: 3; stroke-linejoin: miter"/>
   </g>
   <g id="patch_8">
    <path d="M 844.2 672.186025 
C 897.473999 672.186025 948.573204 659.568367 986.24361 637.111945 
C 1023.914016 614.655522 1045.08 584.193802 1045.08 552.435625 
C 1045.08 520.677448 1023.914016 490.215728 986.24361 467.759305 
C 948.573204 445.302883 897.473999 432.685225 844.2 432.685225 
C 790.926001 432.685225 739.826796 445.302883 702.15639 467.759305 
C 664.485984 490.215728 643.32 520.677448 643.32 552.435625 
C 643.32 584.193802 664.485984 614.655522 702.15639 637.111945 
C 739.826796 659.568367 790.926001 672.186025 844.2 672.186025 
z
" clip-path="url(#pb8c72d546b)" style="fill: #1e293b; stroke: #f8fafc; stroke-width: 3; stroke-linejoin: miter"/>
   </g>
   <g id="patch_9">
    <path d="M 1045.08 552.435625 
C 1045.08 539.080776 1041.332411 525.819522 1033.992639 513.20178 
C 1026.652866 500.584038 1015.823788 488.786666 1001.954465 478.298877 
C 988.085142 467.811088 971.369974 458.779885 952.502106 451.579774 
C 933.634239 444.379664 912.878133 439.111566 891.094505 435.993938 
C 869.310877 432.876311 846.805056 431.952852 824.510317 433.261856 
C 802.215578 434.57086 780.444413 438.093979 760.099632 443.685117 
C 739.754851 449.276254 721.121615 456.857042 704.972611 466.113118 
C 688.823606 475.369195 675.385183 486.170824 665.214609 498.070081 
C 655.044036 509.969338 648.283865 522.799439 645.214431 536.028342 
C 642.144996 549.257246 642.80932 562.69953 647.179853 575.797769 
C 651.550386 588.896008 659.56587 601.466611 670.893917 612.988298 
C 682.221963 624.509985 696.703795 634.821263 713.738876 643.494544 
C 730.773957 652.167824 750.123517 659.081538 770.985166 663.948986 
C 791.846815 668.816434 813.928146 671.569393 836.313488 672.093702 
C 858.698831 672.618011 881.074421 670.906321 902.512386 667.029613 
C 923.950351 663.152905 944.150206 657.165517 962.274301 649.315734 
L 844.2 552.435625 
z
" clip-path="url(#pb8c72d546b)" style="fill: #00e676; stroke: #f8fafc; stroke-width: 3; stroke-linejoin: miter"/>
   </g>
   <g id="text_1">
    <!-- Response Time -->
    <g style="fill: #f8fafc" transform="translate(209.475 38.4841) scale(0.18 -0.18)">
     <defs>
      <path id="DejaVuSans-Bold-52" d="M 2297 2597 
Q 2675 2597 2839 2737 
Q 3003 2878 3003 3200 
Q 3003 3519 2839 3656 
Q 2675 3794 2297 3794 
L 1791 3794 
L 1791 2597 
L 2297 2597 
z
M 1791 1766 
L 1791 0 
L 588 0 
L 588 4666 
L 2425 4666 
Q 3347 4666 3776 4356 
Q 4206 4047 4206 3378 
Q 4206 2916 3982 2619 
Q 3759 2322 3309 2181 
Q 3556 2125 3751 1926 
Q 3947 1728 4147 1325 
L 4800 0 
L 3519 0 
L 2950 1159 
Q 2778 1509 2601 1637 
Q 2425 1766 2131 1766 
L 1791 1766 
z
" transform="scale(0.015625)"/>
      <path id="DejaVuSans-Bold-65" d="M 4031 1759 
L 4031 1441 
L 1416 1441 
Q 1456 1047 1700 850 
Q 1944 653 2381 653 
Q 2734 653 3104 758 
Q 3475 863 3866 1075 
L 3866 213 
Q 3469 63 3072 -14 
Q 2675 -91 2278 -91 
Q 1328 -91 801 392 
Q 275 875 275 1747 
Q 275 2603 792 3093 
Q 1309 3584 2216 3584 
Q 3041 3584 3536 3087 
Q 4031 2591 4031 1759 
z
M 2881 2131 
Q 2881 2450 2695 2645 
Q 2509 2841 2209 2841 
Q 1884 2841 1681 2658 
Q 1478 2475 1428 2131 
L 2881 2131 
z
" transform="scale(0.015625)"/>
      <path id="DejaVuSans-Bold-73" d="M 3272 3391 
L 3272 2541 
Q 2913 2691 2578 2766 
Q 2244 2841 1947 2841 
Q 1628 2841 1473 2761 
Q 1319 2681 1319 2516 
Q 1319 2381 1436 2309 
Q 1553 2238 1856 2203 
L 2053 2175 
Q 2913 2066 3209 1816 
Q 3506 1566 3506 1031 
Q 3506 472 3093 190 
Q 2681 -91 1863 -91 
Q 1516 -91 1145 -36 
Q 775 19 384 128 
L 384 978 
Q 719 816 1070 734 
Q 1422 653 1784 653 
Q 2113 653 2278 743 
Q 2444 834 2444 1013 
Q 2444 1163 2330 1236 
Q 2216 1309 1875 1350 
L 1678 1375 
Q 931 1469 631 1722 
Q 331 1975 331 2491 
Q 331 3047 712 3315 
Q 1094 3584 1881 3584 
Q 2191 3584 2531 3537 
Q 2872 3491 3272 3391 
z
" transform="scale(0.015625)"/>
      <path id="DejaVuSans-Bold-70" d="M 1656 506 
L 1656 -1331 
L 538 -1331 
L 538 3500 
L 1656 3500 
L 1656 2988 
Q 1888 3294 2169 3439 
Q 2450 3584 2816 3584 
Q 3463 3584 3878 3070 
Q 4294 2556 4294 1747 
Q 4294 938 3878 423 
Q 3463 -91 2816 -91 
Q 2450 -91 2169 54 
Q 1888 200 1656 506 
z
M 2400 2772 
Q 2041 2772 1848 2508 
Q 1656 2244 1656 1747 
Q 1656 1250 1848 986 
Q 2041 722 2400 722 
Q 2759 722 2948 984 
Q 3138 1247 3138 1747 
Q 3138 2247 2948 2509 
Q 2759 2772 2400 2772 
z
" transform="scale(0.015625)"/>
      <path id="DejaVuSans-Bold-6f" d="M 2203 2784 
Q 1831 2784 1636 2517 
Q 1441 2250 1441 1747 
Q 1441 1244 1636 976 
Q 1831 709 2203 709 
Q 2569 709 2762 976 
Q 2956 1244 2956 1747 
Q 2956 2250 2762 2517 
Q 2569 2784 2203 2784 
z
M 2203 3584 
Q 3106 3584 3614 3096 
Q 4122 2609 4122 1747 
Q 4122 884 3614 396 
Q 3106 -91 2203 -91 
Q 1297 -91 786 396 
Q 275 884 275 1747 
Q 275 2609 786 3096 
Q 1297 3584 2203 3584 
z
" transform="scale(0.015625)"/>
      <path id="DejaVuSans-Bold-6e" d="M 4056 2131 
L 4056 0 
L 2931 0 
L 2931 347 
L 2931 1631 
Q 2931 2084 2911 2256 
Q 2891 2428 2841 2509 
Q 2775 2619 2662 2680 
Q 2550 2741 2406 2741 
Q 2056 2741 1856 2470 
Q 1656 2200 1656 1722 
L 1656 0 
L 538 0 
L 538 3500 
L 1656 3500 
L 1656 2988 
Q 1909 3294 2193 3439 
Q 2478 3584 2822 3584 
Q 3428 3584 3742 3212 
Q 4056 2841 4056 2131 
z
" transform="scale(0.015625)"/>
      <path id="DejaVuSans-Bold-20" transform="scale(0.015625)"/>
      <path id="DejaVuSans-Bold-54" d="M 31 4666 
L 4331 4666 
L 4331 3756 
L 2784 3756 
L 2784 0 
L 1581 0 
L 1581 3756 
L 31 3756 
L 31 4666 
z
" transform="scale(0.015625)"/>
      <path id="DejaVuSans-Bold-69" d="M 538 3500 
L 1656 3500 
L 1656 0 
L 538 0 
L 538 3500 
z
M 538 4863 
L 1656 4863 
L 1656 3950 
L 538 3950 
L 538 4863 
z
" transform="scale(0.015625)"/>
      <path id="DejaVuSans-Bold-6d" d="M 3781 2919 
Q 3994 3244 4286 3414 
Q 4578 3584 4928 3584 
Q 5531 3584 5847 3212 
Q 6163 2841 6163 2131 
L 6163 0 
L 5038 0 
L 5038 1825 
Q 5041 1866 5042 1909 
Q 5044 1953 5044 2034 
Q 5044 2406 4934 2573 
Q 4825 2741 4581 2741 
Q 4263 2741 4089 2478 
Q 3916 2216 3909 1719 
L 3909 0 
L 2784 0 
L 2784 1825 
Q 2784 2406 2684 2573 
Q 2584 2741 2328 2741 
Q 2006 2741 1831 2477 
Q 1656 2213 1656 1722 
L 1656 0 
L 531 0 
L 531 3500 
L 1656 3500 
L 1656 2988 
Q 1863 3284 2130 3434 
Q 2397 3584 2719 3584 
Q 3081 3584 3359 3409 
Q 3638 3234 3781 2919 
z
" transform="scale(0.015625)"/>
     </defs>
     <use xlink:href="#DejaVuSans-Bold-52"/>
     <use xlink:href="#DejaVuSans-Bold-65" transform="translate(77.001953 0)"/>
     <use xlink:href="#DejaVuSans-Bold-73" transform="translate(144.824219 0)"/>
     <use xlink:href="#DejaVuSans-Bold-70" transform="translate(204.345703 0)"/>
     <use xlink:href="#DejaVuSans-Bold-6f" transform="translate(275.927734 0)"/>
     <use xlink:href="#DejaVuSans-Bold-6e" transform="translate(344.628906 0)"/>
     <use xlink:href="#DejaVuSans-Bold-73" transform="translate(415.820312 0)"/>
     <use xlink:href="#DejaVuSans-Bold-65" transform="translate(475.341797 0)"/>
     <use xlink:href="#DejaVuSans-Bold-20" transform="translate(543.164062 0)"/>
     <use xlink:href="#DejaVuSans-Bold-54" transform="translate(577.978516 0)"/>
     <use xlink:href="#DejaVuSans-Bold-69" transform="translate(646.191406 0)"/>
     <use xlink:href="#DejaVuSans-Bold-6d" transform="translate(680.46875 0)"/>
     <use xlink:href="#DejaVuSans-Bold-65" transform="translate(784.667969 0)"/>
    </g>
   </g>
   <g id="text_2">
    <!-- 300 -->
    <g style="fill: #1e293b" transform="translate(265.326563 214.116562) scale(0.2 -0.2)">
     <defs>
      <path id="DejaVuSans-Bold-33" d="M 2981 2516 
Q 3453 2394 3698 2092 
Q 3944 1791 3944 1325 
Q 3944 631 3412 270 
Q 2881 -91 1863 -91 
Q 1503 -91 1142 -33 
Q 781 25 428 141 
L 428 1069 
Q 766 900 1098 814 
Q 1431 728 1753 728 
Q 2231 728 2486 893 
Q 2741 1059 2741 1369 
Q 2741 1688 2480 1852 
Q 2219 2016 1709 2016 
L 1228 2016 
L 1228 2791 
L 1734 2791 
Q 2188 2791 2409 2933 
Q 2631 3075 2631 3366 
Q 2631 3634 2415 3781 
Q 2200 3928 1806 3928 
Q 1516 3928 1219 3862 
Q 922 3797 628 3669 
L 628 4550 
Q 984 4650 1334 4700 
Q 1684 4750 2022 4750 
Q 2931 4750 3382 4451 
Q 3834 4153 3834 3553 
Q 3834 3144 3618 2883 
Q 3403 2622 2981 2516 
z
" transform="scale(0.015625)"/>
      <path id="DejaVuSans-Bold-30" d="M 2944 2338 
Q 2944 3213 2780 3570 
Q 2616 3928 2228 3928 
Q 1841 3928 1675 3570 
Q 1509 3213 1509 2338 
Q 1509 1453 1675 1090 
Q 1841 728 2228 728 
Q 2613 728 2778 1090 
Q 2944 1453 2944 2338 
z
M 4147 2328 
Q 4147 1169 3647 539 
Q 3147 -91 2228 -91 
Q 1306 -91 806 539 
Q 306 1169 306 2328 
Q 306 3491 806 4120 
Q 1306 4750 2228 4750 
Q 3147 4750 3647 4120 
Q 4147 3491 4147 2328 
z
" transform="scale(0.015625)"/>
     </defs>
     <use xlink:href="#DejaVuSans-Bold-33"/>
     <use xlink:href="#DejaVuSans-Bold-30" transform="translate(69.580078 0)"/>
     <use xlink:href="#DejaVuSans-Bold-30" transform="translate(139.160156 0)"/>
    </g>
    <!-- ms -->
    <g style="fill: #1e293b" transform="translate(269.828125 236.512187) scale(0.2 -0.2)">
     <use xlink:href="#DejaVuSans-Bold-6d"/>
     <use xlink:href="#DejaVuSans-Bold-73" transform="translate(104.199219 0)"/>
    </g>
   </g>
   <g id="text_3">
    <!-- Target: &lt;300ms -->
    <g style="fill: #7a828e" transform="translate(230.264531 409.93715) scale(0.14 -0.14)">
     <defs>
      <path id="DejaVuSans-54" d="M -19 4666 
L 3928 4666 
L 3928 4134 
L 2272 4134 
L 2272 0 
L 1638 0 
L 1638 4134 
L -19 4134 
L -19 4666 
z
" transform="scale(0.015625)"/>
      <path id="DejaVuSans-61" d="M 2194 1759 
Q 1497 1759 1228 1600 
Q 959 1441 959 1056 
Q 959 750 1161 570 
Q 1363 391 1709 391 
Q 2188 391 2477 730 
Q 2766 1069 2766 1631 
L 2766 1759 
L 2194 1759 
z
M 3341 1997 
L 3341 0 
L 2766 0 
L 2766 531 
Q 2569 213 2275 61 
Q 1981 -91 1556 -91 
Q 1019 -91 701 211 
Q 384 513 384 1019 
Q 384 1609 779 1909 
Q 1175 2209 1959 2209 
L 2766 2209 
L 2766 2266 
Q 2766 2663 2505 2880 
Q 2244 3097 1772 3097 
Q 1472 3097 1187 3025 
Q 903 2953 641 2809 
L 641 3341 
Q 956 3463 1253 3523 
Q 1550 3584 1831 3584 
Q 2591 3584 2966 3190 
Q 3341 2797 3341 1997 
z
" transform="scale(0.015625)"/>
      <path id="DejaVuSans-72" d="M 2631 2963 
Q 2534 3019 2420 3045 
Q 2306 3072 2169 3072 
Q 1681 3072 1420 2755 
Q 1159 2438 1159 1844 
L 1159 0 
L 581 0 
L 581 3500 
L 1159 3500 
L 1159 2956 
Q 1341 3275 1631 3429 
Q 1922 3584 2338 3584 
Q 2397 3584 2469 3576 
Q 2541 3569 2628 3553 
L 2631 2963 
z
" transform="scale(0.015625)"/>
      <path id="DejaVuSans-67" d="M 2906 1791 
Q 2906 2416 2648 2759 
Q 2391 3103 1925 3103 
Q 1463 3103 1205 2759 
Q 947 2416 947 1791 
Q 947 1169 1205 825 
Q 1463 481 1925 481 
Q 2391 481 2648 825 
Q 2906 1169 2906 1791 
z
M 3481 434 
Q 3481 -459 3084 -895 
Q 2688 -1331 1869 -1331 
Q 1566 -1331 1297 -1286 
Q 1028 -1241 775 -1147 
L 775 -588 
Q 1028 -725 1275 -790 
Q 1522 -856 1778 -856 
Q 2344 -856 2625 -561 
Q 2906 -266 2906 331 
L 2906 616 
Q 2728 306 2450 153 
Q 2172 0 1784 0 
Q 1141 0 747 490 
Q 353 981 353 1791 
Q 353 2603 747 3093 
Q 1141 3584 1784 3584 
Q 2172 3584 2450 3431 
Q 2728 3278 2906 2969 
L 2906 3500 
L 3481 3500 
L 3481 434 
z
" transform="scale(0.015625)"/>
      <path id="DejaVuSans-65" d="M 3597 1894 
L 3597 1613 
L 953 1613 
Q 991 1019 1311 708 
Q 1631 397 2203 397 
Q 2534 397 2845 478 
Q 3156 559 3463 722 
L 3463 178 
Q 3153 47 2828 -22 
Q 2503 -91 2169 -91 
Q 1331 -91 842 396 
Q 353 884 353 1716 
Q 353 2575 817 3079 
Q 1281 3584 2069 3584 
Q 2775 3584 3186 3129 
Q 3597 2675 3597 1894 
z
M 3022 2063 
Q 3016 2534 2758 2815 
Q 2500 3097 2075 3097 
Q 1594 3097 1305 2825 
Q 1016 2553 972 2059 
L 3022 2063 
z
" transform="scale(0.015625)"/>
      <path id="DejaVuSans-74" d="M 1172 4494 
L 1172 3500 
L 2356 3500 
L 2356 3053 
L 1172 3053 
L 1172 1153 
Q 1172 725 1289 603 
Q 1406 481 1766 481 
L 2356 481 
L 2356 0 
L 1766 0 
Q 1100 0 847 248 
Q 594 497 594 1153 
L 594 3053 
L 172 3053 
L 172 3500 
L 594 3500 
L 594 4494 
L 1172 4494 
z
" transform="scale(0.015625)"/>
      <path id="DejaVuSans-3a" d="M 750 794 
L 1409 794 
L 1409 0 
L 750 0 
L 750 794 
z
M 750 3309 
L 1409 3309 
L 1409 2516 
L 750 2516 
L 750 3309 
z
" transform="scale(0.015625)"/>
      <path id="DejaVuSans-20" transform="scale(0.015625)"/>
      <path id="DejaVuSans-3c" d="M 4684 3150 
L 1459 2003 
L 4684 863 
L 4684 294 
L 678 1747 
L 678 2266 
L 4684 3719 
L 4684 3150 
z
" transform="scale(0.015625)"/>
      <path id="DejaVuSans-33" d="M 2597 2516 
Q 3050 2419 3304 2112 
Q 3559 1806 3559 1356 
Q 3559 666 3084 287 
Q 2609 -91 1734 -91 
Q 1441 -91 1130 -33 
Q 819 25 488 141 
L 488 750 
Q 750 597 1062 519 
Q 1375 441 1716 441 
Q 2309 441 2620 675 
Q 2931 909 2931 1356 
Q 2931 1769 2642 2001 
Q 2353 2234 1838 2234 
L 1294 2234 
L 1294 2753 
L 1863 2753 
Q 2328 2753 2575 2939 
Q 2822 3125 2822 3475 
Q 2822 3834 2567 4026 
Q 2313 4219 1838 4219 
Q 1578 4219 1281 4162 
Q 984 4106 628 3988 
L 628 4550 
Q 988 4650 1302 4700 
Q 1616 4750 1894 4750 
Q 2613 4750 3031 4423 
Q 3450 4097 3450 3541 
Q 3450 3153 3228 2886 
Q 3006 2619 2597 2516 
z
" transform="scale(0.015625)"/>
      <path id="DejaVuSans-30" d="M 2034 4250 
Q 1547 4250 1301 3770 
Q 1056 3291 1056 2328 
Q 1056 1369 1301 889 
Q 1547 409 2034 409 
Q 2525 409 2770 889 
Q 3016 1369 3016 2328 
Q 3016 3291 2770 3770 
Q 2525 4250 2034 4250 
z
M 2034 4750 
Q 2819 4750 3233 4129 
Q 3647 3509 3647 2328 
Q 3647 1150 3233 529 
Q 2819 -91 2034 -91 
Q 1250 -91 836 529 
Q 422 1150 422 2328 
Q 422 3509 836 4129 
Q 1250 4750 2034 4750 
z
" transform="scale(0.015625)"/>
      <path id="DejaVuSans-6d" d="M 3328 2828 
Q 3544 3216 3844 3400 
Q 4144 3584 4550 3584 
Q 5097 3584 5394 3201 
Q 5691 2819 5691 2113 
L 5691 0 
L 5113 0 
L 5113 2094 
Q 5113 2597 4934 2840 
Q 4756 3084 4391 3084 
Q 3944 3084 3684 2787 
Q 3425 2491 3425 1978 
L 3425 0 
L 2847 0 
L 2847 2094 
Q 2847 2600 2669 2842 
Q 2491 3084 2119 3084 
Q 1678 3084 1418 2786 
Q 1159 2488 1159 1978 
L 1159 0 
L 581 0 
L 581 3500 
L 1159 3500 
L 1159 2956 
Q 1356 3278 1631 3431 
Q 1906 3584 2284 3584 
Q 2666 3584 2933 3390 
Q 3200 3197 3328 2828 
z
" transform="scale(0.015625)"/>
      <path id="DejaVuSans-73" d="M 2834 3397 
L 2834 2853 
Q 2591 2978 2328 3040 
Q 2066 3103 1784 3103 
Q 1356 3103 1142 2972 
Q 928 2841 928 2578 
Q 928 2378 1081 2264 
Q 1234 2150 1697 2047 
L 1894 2003 
Q 2506 1872 2764 1633 
Q 3022 1394 3022 966 
Q 3022 478 2636 193 
Q 2250 -91 1575 -91 
Q 1294 -91 989 -36 
Q 684 19 347 128 
L 347 722 
Q 666 556 975 473 
Q 1284 391 1588 391 
Q 1994 391 2212 530 
Q 2431 669 2431 922 
Q 2431 1156 2273 1281 
Q 2116 1406 1581 1522 
L 1381 1569 
Q 847 1681 609 1914 
Q 372 2147 372 2553 
Q 372 3047 722 3315 
Q 1072 3584 1716 3584 
Q 2034 3584 2315 3537 
Q 2597 3491 2834 3397 
z
" transform="scale(0.015625)"/>
     </defs>
     <use xlink:href="#DejaVuSans-54"/>
     <use xlink:href="#DejaVuSans-61" transform="translate(44.583984 0)"/>
     <use xlink:href="#DejaVuSans-72" transform="translate(105.863281 0)"/>
     <use xlink:href="#DejaVuSans-67" transform="translate(145.226562 0)"/>
     <use xlink:href="#DejaVuSans-65" transform="translate(208.703125 0)"/>
     <use xlink:href="#DejaVuSans-74" transform="translate(270.226562 0)"/>
     <use xlink:href="#DejaVuSans-3a" transform="translate(309.435547 0)"/>
     <use xlink:href="#DejaVuSans-20" transform="translate(343.126953 0)"/>
     <use xlink:href="#DejaVuSans-3c" transform="translate(374.914062 0)"/>
     <use xlink:href="#DejaVuSans-33" transform="translate(458.703125 0)"/>
     <use xlink:href="#DejaVuSans-30" transform="translate(522.326172 0)"/>
     <use xlink:href="#DejaVuSans-30" transform="translate(585.949219 0)"/>
     <use xlink:href="#DejaVuSans-6d" transform="translate(649.572266 0)"/>
     <use xlink:href="#DejaVuSans-73" transform="translate(746.984375 0)"/>
    </g>
   </g>
   <g id="text_4">
    <!-- Memory -->
    <g style="fill: #f8fafc" transform="translate(803.2725 38.343475) scale(0.18 -0.18)">
     <defs>
      <path id="DejaVuSans-Bold-4d" d="M 588 4666 
L 2119 4666 
L 3181 2169 
L 4250 4666 
L 5778 4666 
L 5778 0 
L 4641 0 
L 4641 3413 
L 3566 897 
L 2803 897 
L 1728 3413 
L 1728 0 
L 588 0 
L 588 4666 
z
" transform="scale(0.015625)"/>
      <path id="DejaVuSans-Bold-72" d="M 3138 2547 
Q 2991 2616 2845 2648 
Q 2700 2681 2553 2681 
Q 2122 2681 1889 2404 
Q 1656 2128 1656 1613 
L 1656 0 
L 538 0 
L 538 3500 
L 1656 3500 
L 1656 2925 
Q 1872 3269 2151 3426 
Q 2431 3584 2822 3584 
Q 2878 3584 2943 3579 
Q 3009 3575 3134 3559 
L 3138 2547 
z
" transform="scale(0.015625)"/>
      <path id="DejaVuSans-Bold-79" d="M 78 3500 
L 1197 3500 
L 2138 1125 
L 2938 3500 
L 4056 3500 
L 2584 -331 
Q 2363 -916 2067 -1148 
Q 1772 -1381 1288 -1381 
L 641 -1381 
L 641 -647 
L 991 -647 
Q 1275 -647 1404 -556 
Q 1534 -466 1606 -231 
L 1638 -134 
L 78 3500 
z
" transform="scale(0.015625)"/>
     </defs>
     <use xlink:href="#DejaVuSans-Bold-4d"/>
     <use xlink:href="#DejaVuSans-Bold-65" transform="translate(99.511719 0)"/>
     <use xlink:href="#DejaVuSans-Bold-6d" transform="translate(167.333984 0)"/>
     <use xlink:href="#DejaVuSans-Bold-6f" transform="translate(271.533203 0)"/>
     <use xlink:href="#DejaVuSans-Bold-72" transform="translate(340.234375 0)"/>
     <use xlink:href="#DejaVuSans-Bold-79" transform="translate(389.550781 0)"/>
    </g>
   </g>
   <g id="text_5">
    <!-- 500 -->
    <g style="fill: #1e293b" transform="translate(823.326563 214.116562) scale(0.2 -0.2)">
     <defs>
      <path id="DejaVuSans-Bold-35" d="M 678 4666 
L 3669 4666 
L 3669 3781 
L 1638 3781 
L 1638 3059 
Q 1775 3097 1914 3117 
Q 2053 3138 2203 3138 
Q 3056 3138 3531 2711 
Q 4006 2284 4006 1522 
Q 4006 766 3489 337 
Q 2972 -91 2053 -91 
Q 1656 -91 1267 -14 
Q 878 63 494 219 
L 494 1166 
Q 875 947 1217 837 
Q 1559 728 1863 728 
Q 2300 728 2551 942 
Q 2803 1156 2803 1522 
Q 2803 1891 2551 2103 
Q 2300 2316 1863 2316 
Q 1603 2316 1309 2248 
Q 1016 2181 678 2041 
L 678 4666 
z
" transform="scale(0.015625)"/>
     </defs>
     <use xlink:href="#DejaVuSans-Bold-35"/>
     <use xlink:href="#DejaVuSans-Bold-30" transform="translate(69.580078 0)"/>
     <use xlink:href="#DejaVuSans-Bold-30" transform="translate(139.160156 0)"/>
    </g>
    <!-- MB -->
    <g style="fill: #1e293b" transform="translate(826.626563 236.512187) scale(0.2 -0.2)">
     <defs>
      <path id="DejaVuSans-Bold-42" d="M 2456 2859 
Q 2741 2859 2887 2984 
Q 3034 3109 3034 3353 
Q 3034 3594 2887 3720 
Q 2741 3847 2456 3847 
L 1791 3847 
L 1791 2859 
L 2456 2859 
z
M 2497 819 
Q 2859 819 3042 972 
Q 3225 1125 3225 1434 
Q 3225 1738 3044 1889 
Q 2863 2041 2497 2041 
L 1791 2041 
L 1791 819 
L 2497 819 
z
M 3616 2497 
Q 4003 2384 4215 2081 
Q 4428 1778 4428 1338 
Q 4428 663 3972 331 
Q 3516 0 2584 0 
L 588 0 
L 588 4666 
L 2394 4666 
Q 3366 4666 3802 4372 
Q 4238 4078 4238 3431 
Q 4238 3091 4078 2852 
Q 3919 2613 3616 2497 
z
" transform="scale(0.015625)"/>
     </defs>
     <use xlink:href="#DejaVuSans-Bold-4d"/>
     <use xlink:href="#DejaVuSans-Bold-42" transform="translate(99.511719 0)"/>
    </g>
   </g>
   <g id="text_6">
    <!-- Target: &lt;500MB -->
    <g style="fill: #7a828e" transform="translate(787.887187 409.93715) scale(0.14 -0.14)">
     <defs>
      <path id="DejaVuSans-35" d="M 691 4666 
L 3169 4666 
L 3169 4134 
L 1269 4134 
L 1269 2991 
Q 1406 3038 1543 3061 
Q 1681 3084 1819 3084 
Q 2600 3084 3056 2656 
Q 3513 2228 3513 1497 
Q 3513 744 3044 326 
Q 2575 -91 1722 -91 
Q 1428 -91 1123 -41 
Q 819 9 494 109 
L 494 744 
Q 775 591 1075 516 
Q 1375 441 1709 441 
Q 2250 441 2565 725 
Q 2881 1009 2881 1497 
Q 2881 1984 2565 2268 
Q 2250 2553 1709 2553 
Q 1456 2553 1204 2497 
Q 953 2441 691 2322 
L 691 4666 
z
" transform="scale(0.015625)"/>
      <path id="DejaVuSans-4d" d="M 628 4666 
L 1569 4666 
L 2759 1491 
L 3956 4666 
L 4897 4666 
L 4897 0 
L 4281 0 
L 4281 4097 
L 3078 897 
L 2444 897 
L 1241 4097 
L 1241 0 
L 628 0 
L 628 4666 
z
" transform="scale(0.015625)"/>
      <path id="DejaVuSans-42" d="M 1259 2228 
L 1259 519 
L 2272 519 
Q 2781 519 3026 730 
Q 3272 941 3272 1375 
Q 3272 1813 3026 2020 
Q 2781 2228 2272 2228 
L 1259 2228 
z
M 1259 4147 
L 1259 2741 
L 2194 2741 
Q 2656 2741 2882 2914 
Q 3109 3088 3109 3444 
Q 3109 3797 2882 3972 
Q 2656 4147 2194 4147 
L 1259 4147 
z
M 628 4666 
L 2241 4666 
Q 2963 4666 3353 4366 
Q 3744 4066 3744 3513 
Q 3744 3084 3544 2831 
Q 3344 2578 2956 2516 
Q 3422 2416 3680 2098 
Q 3938 1781 3938 1306 
Q 3938 681 3513 340 
Q 3088 0 2303 0 
L 628 0 
L 628 4666 
z
" transform="scale(0.015625)"/>
     </defs>
     <use xlink:href="#DejaVuSans-54"/>
     <use xlink:href="#DejaVuSans-61" transform="translate(44.583984 0)"/>
     <use xlink:href="#DejaVuSans-72" transform="translate(105.863281 0)"/>
     <use xlink:href="#DejaVuSans-67" transform="translate(145.226562 0)"/>
     <use xlink:href="#DejaVuSans-65" transform="translate(208.703125 0)"/>
     <use xlink:href="#DejaVuSans-74" transform="translate(270.226562 0)"/>
     <use xlink:href="#DejaVuSans-3a" transform="translate(309.435547 0)"/>
     <use xlink:href="#DejaVuSans-20" transform="translate(343.126953 0)"/>
     <use xlink:href="#DejaVuSans-3c" transform="translate(374.914062 0)"/>
     <use xlink:href="#DejaVuSans-35" transform="translate(458.703125 0)"/>
     <use xlink:href="#DejaVuSans-30" transform="translate(522.326172 0)"/>
     <use xlink:href="#DejaVuSans-30" transform="translate(585.949219 0)"/>
     <use xlink:href="#DejaVuSans-4d" transform="translate(649.572266 0)"/>
     <use xlink:href="#DejaVuSans-42" transform="translate(735.851562 0)"/>
    </g>
   </g>
   <g id="text_7">
    <!-- Model Size -->
    <g style="fill: #f8fafc" transform="translate(231.385781 371.1241) scale(0.18 -0.18)">
     <defs>
      <path id="DejaVuSans-Bold-64" d="M 2919 2988 
L 2919 4863 
L 4044 4863 
L 4044 0 
L 2919 0 
L 2919 506 
Q 2688 197 2409 53 
Q 2131 -91 1766 -91 
Q 1119 -91 703 423 
Q 288 938 288 1747 
Q 288 2556 703 3070 
Q 1119 3584 1766 3584 
Q 2128 3584 2408 3439 
Q 2688 3294 2919 2988 
z
M 2181 722 
Q 2541 722 2730 984 
Q 2919 1247 2919 1747 
Q 2919 2247 2730 2509 
Q 2541 2772 2181 2772 
Q 1825 2772 1636 2509 
Q 1447 2247 1447 1747 
Q 1447 1247 1636 984 
Q 1825 722 2181 722 
z
" transform="scale(0.015625)"/>
      <path id="DejaVuSans-Bold-6c" d="M 538 4863 
L 1656 4863 
L 1656 0 
L 538 0 
L 538 4863 
z
" transform="scale(0.015625)"/>
      <path id="DejaVuSans-Bold-53" d="M 3834 4519 
L 3834 3531 
Q 3450 3703 3084 3790 
Q 2719 3878 2394 3878 
Q 1963 3878 1756 3759 
Q 1550 3641 1550 3391 
Q 1550 3203 1689 3098 
Q 1828 2994 2194 2919 
L 2706 2816 
Q 3484 2659 3812 2340 
Q 4141 2022 4141 1434 
Q 4141 663 3683 286 
Q 3225 -91 2284 -91 
Q 1841 -91 1394 -6 
Q 947 78 500 244 
L 500 1259 
Q 947 1022 1364 901 
Q 1781 781 2169 781 
Q 2563 781 2772 912 
Q 2981 1044 2981 1288 
Q 2981 1506 2839 1625 
Q 2697 1744 2272 1838 
L 1806 1941 
Q 1106 2091 782 2419 
Q 459 2747 459 3303 
Q 459 4000 909 4375 
Q 1359 4750 2203 4750 
Q 2588 4750 2994 4692 
Q 3400 4634 3834 4519 
z
" transform="scale(0.015625)"/>
      <path id="DejaVuSans-Bold-7a" d="M 366 3500 
L 3419 3500 
L 3419 2719 
L 1575 800 
L 3419 800 
L 3419 0 
L 288 0 
L 288 781 
L 2131 2700 
L 366 2700 
L 366 3500 
z
" transform="scale(0.015625)"/>
     </defs>
     <use xlink:href="#DejaVuSans-Bold-4d"/>
     <use xlink:href="#DejaVuSans-Bold-6f" transform="translate(99.511719 0)"/>
     <use xlink:href="#DejaVuSans-Bold-64" transform="translate(168.212891 0)"/>
     <use xlink:href="#DejaVuSans-Bold-65" transform="translate(239.794922 0)"/>
     <use xlink:href="#DejaVuSans-Bold-6c" transform="translate(307.617188 0)"/>
     <use xlink:href="#DejaVuSans-Bold-20" transform="translate(341.894531 0)"/>
     <use xlink:href="#DejaVuSans-Bold-53" transform="translate(376.708984 0)"/>
     <use xlink:href="#DejaVuSans-Bold-69" transform="translate(448.730469 0)"/>
     <use xlink:href="#DejaVuSans-Bold-7a" transform="translate(483.007812 0)"/>
     <use xlink:href="#DejaVuSans-Bold-65" transform="translate(541.210938 0)"/>
    </g>
   </g>
   <g id="text_8">
    <!-- 5 -->
    <g style="fill: #1e293b" transform="translate(279.242188 546.756562) scale(0.2 -0.2)">
     <use xlink:href="#DejaVuSans-Bold-35"/>
    </g>
    <!-- KB -->
    <g style="fill: #1e293b" transform="translate(270.829688 569.152187) scale(0.2 -0.2)">
     <defs>
      <path id="DejaVuSans-Bold-4b" d="M 588 4666 
L 1791 4666 
L 1791 2963 
L 3525 4666 
L 4922 4666 
L 2675 2456 
L 5153 0 
L 3647 0 
L 1791 1838 
L 1791 0 
L 588 0 
L 588 4666 
z
" transform="scale(0.015625)"/>
     </defs>
     <use xlink:href="#DejaVuSans-Bold-4b"/>
     <use xlink:href="#DejaVuSans-Bold-42" transform="translate(77.490234 0)"/>
    </g>
   </g>
   <g id="text_9">
    <!-- Target: 5KB -->
    <g style="fill: #7a828e" transform="translate(246.109688 742.57715) scale(0.14 -0.14)">
     <defs>
      <path id="DejaVuSans-4b" d="M 628 4666 
L 1259 4666 
L 1259 2694 
L 3353 4666 
L 4166 4666 
L 1850 2491 
L 4331 0 
L 3500 0 
L 1259 2247 
L 1259 0 
L 628 0 
L 628 4666 
z
" transform="scale(0.015625)"/>
     </defs>
     <use xlink:href="#DejaVuSans-54"/>
     <use xlink:href="#DejaVuSans-61" transform="translate(44.583984 0)"/>
     <use xlink:href="#DejaVuSans-72" transform="translate(105.863281 0)"/>
     <use xlink:href="#DejaVuSans-67" transform="translate(145.226562 0)"/>
     <use xlink:href="#DejaVuSans-65" transform="translate(208.703125 0)"/>
     <use xlink:href="#DejaVuSans-74" transform="translate(270.226562 0)"/>
     <use xlink:href="#DejaVuSans-3a" transform="translate(309.435547 0)"/>
     <use xlink:href="#DejaVuSans-20" transform="translate(343.126953 0)"/>
     <use xlink:href="#DejaVuSans-35" transform="translate(374.914062 0)"/>
     <use xlink:href="#DejaVuSans-4b" transform="translate(438.537109 0)"/>
     <use xlink:href="#DejaVuSans-42" transform="translate(504.113281 0)"/>
    </g>
   </g>
   <g id="text_10">
    <!-- Throughput -->
    <g style="fill: #f8fafc" transform="translate(784.625625 371.053787) scale(0.18 -0.18)">
     <defs>
      <path id="DejaVuSans-Bold-68" d="M 4056 2131 
L 4056 0 
L 2931 0 
L 2931 347 
L 2931 1625 
Q 2931 2084 2911 2256 
Q 2891 2428 2841 2509 
Q 2775 2619 2662 2680 
Q 2550 2741 2406 2741 
Q 2056 2741 1856 2470 
Q 1656 2200 1656 1722 
L 1656 0 
L 538 0 
L 538 4863 
L 1656 4863 
L 1656 2988 
Q 1909 3294 2193 3439 
Q 2478 3584 2822 3584 
Q 3428 3584 3742 3212 
Q 4056 2841 4056 2131 
z
" transform="scale(0.015625)"/>
      <path id="DejaVuSans-Bold-75" d="M 500 1363 
L 500 3500 
L 1625 3500 
L 1625 3150 
Q 1625 2866 1622 2436 
Q 1619 2006 1619 1863 
Q 1619 1441 1641 1255 
Q 1663 1069 1716 984 
Q 1784 875 1895 815 
Q 2006 756 2150 756 
Q 2500 756 2700 1025 
Q 2900 1294 2900 1772 
L 2900 3500 
L 4019 3500 
L 4019 0 
L 2900 0 
L 2900 506 
Q 2647 200 2364 54 
Q 2081 -91 1741 -91 
Q 1134 -91 817 281 
Q 500 653 500 1363 
z
" transform="scale(0.015625)"/>
      <path id="DejaVuSans-Bold-67" d="M 2919 594 
Q 2688 288 2409 144 
Q 2131 0 1766 0 
Q 1125 0 706 504 
Q 288 1009 288 1791 
Q 288 2575 706 3076 
Q 1125 3578 1766 3578 
Q 2131 3578 2409 3434 
Q 2688 3291 2919 2981 
L 2919 3500 
L 4044 3500 
L 4044 353 
Q 4044 -491 3511 -936 
Q 2978 -1381 1966 -1381 
Q 1638 -1381 1331 -1331 
Q 1025 -1281 716 -1178 
L 716 -306 
Q 1009 -475 1290 -558 
Q 1572 -641 1856 -641 
Q 2406 -641 2662 -400 
Q 2919 -159 2919 353 
L 2919 594 
z
M 2181 2772 
Q 1834 2772 1640 2515 
Q 1447 2259 1447 1791 
Q 1447 1309 1634 1061 
Q 1822 813 2181 813 
Q 2531 813 2725 1069 
Q 2919 1325 2919 1791 
Q 2919 2259 2725 2515 
Q 2531 2772 2181 2772 
z
" transform="scale(0.015625)"/>
      <path id="DejaVuSans-Bold-74" d="M 1759 4494 
L 1759 3500 
L 2913 3500 
L 2913 2700 
L 1759 2700 
L 1759 1216 
Q 1759 972 1856 886 
Q 1953 800 2241 800 
L 2816 800 
L 2816 0 
L 1856 0 
Q 1194 0 917 276 
Q 641 553 641 1216 
L 641 2700 
L 84 2700 
L 84 3500 
L 641 3500 
L 641 4494 
L 1759 4494 
z
" transform="scale(0.015625)"/>
     </defs>
     <use xlink:href="#DejaVuSans-Bold-54"/>
     <use xlink:href="#DejaVuSans-Bold-68" transform="translate(68.212891 0)"/>
     <use xlink:href="#DejaVuSans-Bold-72" transform="translate(139.404297 0)"/>
     <use xlink:href="#DejaVuSans-Bold-6f" transform="translate(188.720703 0)"/>
     <use xlink:href="#DejaVuSans-Bold-75" transform="translate(257.421875 0)"/>
     <use xlink:href="#DejaVuSans-Bold-67" transform="translate(328.613281 0)"/>
     <use xlink:href="#DejaVuSans-Bold-68" transform="translate(400.195312 0)"/>
     <use xlink:href="#DejaVuSans-Bold-70" transform="translate(471.386719 0)"/>
     <use xlink:href="#DejaVuSans-Bold-75" transform="translate(542.96875 0)"/>
     <use xlink:href="#DejaVuSans-Bold-74" transform="translate(614.160156 0)"/>
    </g>
   </g>
   <g id="text_11">
    <!-- 4300 -->
    <g style="fill: #1e293b" transform="translate(816.36875 546.756562) scale(0.2 -0.2)">
     <defs>
      <path id="DejaVuSans-Bold-34" d="M 2356 3675 
L 1038 1722 
L 2356 1722 
L 2356 3675 
z
M 2156 4666 
L 3494 4666 
L 3494 1722 
L 4159 1722 
L 4159 850 
L 3494 850 
L 3494 0 
L 2356 0 
L 2356 850 
L 288 850 
L 288 1881 
L 2156 4666 
z
" transform="scale(0.015625)"/>
     </defs>
     <use xlink:href="#DejaVuSans-Bold-34"/>
     <use xlink:href="#DejaVuSans-Bold-33" transform="translate(69.580078 0)"/>
     <use xlink:href="#DejaVuSans-Bold-30" transform="translate(139.160156 0)"/>
     <use xlink:href="#DejaVuSans-Bold-30" transform="translate(208.740234 0)"/>
    </g>
    <!-- ops/sec -->
    <g style="fill: #1e293b" transform="translate(801.904688 569.152187) scale(0.2 -0.2)">
     <defs>
      <path id="DejaVuSans-Bold-2f" d="M 1644 4666 
L 2338 4666 
L 691 -594 
L 0 -594 
L 1644 4666 
z
" transform="scale(0.015625)"/>
      <path id="DejaVuSans-Bold-63" d="M 3366 3391 
L 3366 2478 
Q 3138 2634 2908 2709 
Q 2678 2784 2431 2784 
Q 1963 2784 1702 2511 
Q 1441 2238 1441 1747 
Q 1441 1256 1702 982 
Q 1963 709 2431 709 
Q 2694 709 2930 787 
Q 3166 866 3366 1019 
L 3366 103 
Q 3103 6 2833 -42 
Q 2563 -91 2291 -91 
Q 1344 -91 809 395 
Q 275 881 275 1747 
Q 275 2613 809 3098 
Q 1344 3584 2291 3584 
Q 2566 3584 2833 3536 
Q 3100 3488 3366 3391 
z
" transform="scale(0.015625)"/>
     </defs>
     <use xlink:href="#DejaVuSans-Bold-6f"/>
     <use xlink:href="#DejaVuSans-Bold-70" transform="translate(68.701172 0)"/>
     <use xlink:href="#DejaVuSans-Bold-73" transform="translate(140.283203 0)"/>
     <use xlink:href="#DejaVuSans-Bold-2f" transform="translate(199.804688 0)"/>
     <use xlink:href="#DejaVuSans-Bold-73" transform="translate(236.328125 0)"/>
     <use xlink:href="#DejaVuSans-Bold-65" transform="translate(295.849609 0)"/>
     <use xlink:href="#DejaVuSans-Bold-63" transform="translate(363.671875 0)"/>
    </g>
   </g>
   <g id="text_12">
    <!-- Target: 4,300+ -->
    <g style="fill: #7a828e" transform="translate(792.051094 742.57715) scale(0.14 -0.14)">
     <defs>
      <path id="DejaVuSans-34" d="M 2419 4116 
L 825 1625 
L 2419 1625 
L 2419 4116 
z
M 2253 4666 
L 3047 4666 
L 3047 1625 
L 3713 1625 
L 3713 1100 
L 3047 1100 
L 3047 0 
L 2419 0 
L 2419 1100 
L 313 1100 
L 313 1709 
L 2253 4666 
z
" transform="scale(0.015625)"/>
      <path id="DejaVuSans-2c" d="M 750 794 
L 1409 794 
L 1409 256 
L 897 -744 
L 494 -744 
L 750 256 
L 750 794 
z
" transform="scale(0.015625)"/>
      <path id="DejaVuSans-2b" d="M 2944 4013 
L 2944 2272 
L 4684 2272 
L 4684 1741 
L 2944 1741 
L 2944 0 
L 2419 0 
L 2419 1741 
L 678 1741 
L 678 2272 
L 2419 2272 
L 2419 4013 
L 2944 4013 
z
" transform="scale(0.015625)"/>
     </defs>
     <use xlink:href="#DejaVuSans-54"/>
     <use xlink:href="#DejaVuSans-61" transform="translate(44.583984 0)"/>
     <use xlink:href="#DejaVuSans-72" transform="translate(105.863281 0)"/>
     <use xlink:href="#DejaVuSans-67" transform="translate(145.226562 0)"/>
     <use xlink:href="#DejaVuSans-65" transform="translate(208.703125 0)"/>
     <use xlink:href="#DejaVuSans-74" transform="translate(270.226562 0)"/>
     <use xlink:href="#DejaVuSans-3a" transform="translate(309.435547 0)"/>
     <use xlink:href="#DejaVuSans-20" transform="translate(343.126953 0)"/>
     <use xlink:href="#DejaVuSans-34" transform="translate(374.914062 0)"/>
     <use xlink:href="#DejaVuSans-2c" transform="translate(438.537109 0)"/>
     <use xlink:href="#DejaVuSans-33" transform="translate(470.324219 0)"/>
     <use xlink:href="#DejaVuSans-30" transform="translate(533.947266 0)"/>
     <use xlink:href="#DejaVuSans-30" transform="translate(597.570312 0)"/>
     <use xlink:href="#DejaVuSans-2b" transform="translate(661.193359 0)"/>
    </g>
   </g>
   <g id="text_13">
    <g id="patch_10">
     <path d="M 422.499375 409.823125 
L 707.900625 409.823125 
Q 719.900625 409.823125 719.900625 397.823125 
L 719.900625 374.408125 
Q 719.900625 362.408125 707.900625 362.408125 
L 422.499375 362.408125 
Q 410.499375 362.408125 410.499375 374.408125 
L 410.499375 397.823125 
Q 410.499375 409.823125 422.499375 409.823125 
z
" style="fill: #1e293b; opacity: 0.9; stroke: #00e676; stroke-width: 3; stroke-linejoin: miter"/>
    </g>
    <!-- ✓ All Metrics Healthy -->
    <g style="fill: #00e676" transform="translate(422.499375 392.644375) scale(0.24 -0.24)">
     <defs>
      <path id="DejaVuSans-Bold-2713" d="M 1416 2044 
Q 1538 2044 1600 1844 
Q 1725 1469 1778 1469 
Q 1819 1469 1863 1531 
Q 2741 2938 3488 3806 
Q 3681 4031 4103 4031 
Q 4203 4031 4237 4012 
Q 4272 3994 4272 3966 
Q 4272 3922 4169 3794 
Q 2963 2344 1931 731 
Q 1859 619 1638 619 
Q 1413 619 1372 638 
Q 1266 684 1122 1116 
Q 959 1594 959 1716 
Q 959 1847 1178 1969 
Q 1313 2044 1416 2044 
z
" transform="scale(0.015625)"/>
      <path id="DejaVuSans-Bold-41" d="M 3419 850 
L 1538 850 
L 1241 0 
L 31 0 
L 1759 4666 
L 3194 4666 
L 4922 0 
L 3713 0 
L 3419 850 
z
M 1838 1716 
L 3116 1716 
L 2478 3572 
L 1838 1716 
z
" transform="scale(0.015625)"/>
      <path id="DejaVuSans-Bold-48" d="M 588 4666 
L 1791 4666 
L 1791 2888 
L 3566 2888 
L 3566 4666 
L 4769 4666 
L 4769 0 
L 3566 0 
L 3566 1978 
L 1791 1978 
L 1791 0 
L 588 0 
L 588 4666 
z
" transform="scale(0.015625)"/>
      <path id="DejaVuSans-Bold-61" d="M 2106 1575 
Q 1756 1575 1579 1456 
Q 1403 1338 1403 1106 
Q 1403 894 1545 773 
Q 1688 653 1941 653 
Q 2256 653 2472 879 
Q 2688 1106 2688 1447 
L 2688 1575 
L 2106 1575 
z
M 3816 1997 
L 3816 0 
L 2688 0 
L 2688 519 
Q 2463 200 2181 54 
Q 1900 -91 1497 -91 
Q 953 -91 614 226 
Q 275 544 275 1050 
Q 275 1666 698 1953 
Q 1122 2241 2028 2241 
L 2688 2241 
L 2688 2328 
Q 2688 2594 2478 2717 
Q 2269 2841 1825 2841 
Q 1466 2841 1156 2769 
Q 847 2697 581 2553 
L 581 3406 
Q 941 3494 1303 3539 
Q 1666 3584 2028 3584 
Q 2975 3584 3395 3211 
Q 3816 2838 3816 1997 
z
" transform="scale(0.015625)"/>
     </defs>
     <use xlink:href="#DejaVuSans-Bold-2713"/>
     <use xlink:href="#DejaVuSans-Bold-20" transform="translate(83.789062 0)"/>
     <use xlink:href="#DejaVuSans-Bold-41" transform="translate(118.603516 0)"/>
     <use xlink:href="#DejaVuSans-Bold-6c" transform="translate(195.996094 0)"/>
     <use xlink:href="#DejaVuSans-Bold-6c" transform="translate(230.273438 0)"/>
     <use xlink:href="#DejaVuSans-Bold-20" transform="translate(264.550781 0)"/>
     <use xlink:href="#DejaVuSans-Bold-4d" transform="translate(299.365234 0)"/>
     <use xlink:href="#DejaVuSans-Bold-65" transform="translate(398.876953 0)"/>
     <use xlink:href="#DejaVuSans-Bold-74" transform="translate(466.699219 0)"/>
     <use xlink:href="#DejaVuSans-Bold-72" transform="translate(514.501953 0)"/>
     <use xlink:href="#DejaVuSans-Bold-69" transform="translate(563.818359 0)"/>
     <use xlink:href="#DejaVuSans-Bold-63" transform="translate(598.095703 0)"/>
     <use xlink:href="#DejaVuSans-Bold-73" transform="translate(657.373047 0)"/>
     <use xlink:href="#DejaVuSans-Bold-20" transform="translate(716.894531 0)"/>
     <use xlink:href="#DejaVuSans-Bold-48" transform="translate(751.708984 0)"/>
     <use xlink:href="#DejaVuSans-Bold-65" transform="translate(835.400391 0)"/>
     <use xlink:href="#DejaVuSans-Bold-61" transform="translate(903.222656 0)"/>
     <use xlink:href="#DejaVuSans-Bold-6c" transform="translate(970.703125 0)"/>
     <use xlink:href="#DejaVuSans-Bold-74" transform="translate(1004.980469 0)"/>
     <use xlink:href="#DejaVuSans-Bold-68" transform="translate(1052.783203 0)"/>
     <use xlink:href="#DejaVuSans-Bold-79" transform="translate(1123.974609 0)"/>
    </g>
   </g>
   <g id="text_14">
    <!-- VNX Edge Performance: Browser-Based Inference -->
    <g style="fill: #f8fafc" transform="translate(173.031563 28.475625) scale(0.28 -0.28)">
     <defs>
      <path id="DejaVuSans-Bold-56" d="M 31 4666 
L 1241 4666 
L 2478 1222 
L 3713 4666 
L 4922 4666 
L 3194 0 
L 1759 0 
L 31 4666 
z
" transform="scale(0.015625)"/>
      <path id="DejaVuSans-Bold-4e" d="M 588 4666 
L 1931 4666 
L 3628 1466 
L 3628 4666 
L 4769 4666 
L 4769 0 
L 3425 0 
L 1728 3200 
L 1728 0 
L 588 0 
L 588 4666 
z
" transform="scale(0.015625)"/>
      <path id="DejaVuSans-Bold-58" d="M 3188 2381 
L 4806 0 
L 3553 0 
L 2463 1594 
L 1381 0 
L 122 0 
L 1741 2381 
L 184 4666 
L 1441 4666 
L 2463 3163 
L 3481 4666 
L 4744 4666 
L 3188 2381 
z
" transform="scale(0.015625)"/>
      <path id="DejaVuSans-Bold-45" d="M 588 4666 
L 3834 4666 
L 3834 3756 
L 1791 3756 
L 1791 2888 
L 3713 2888 
L 3713 1978 
L 1791 1978 
L 1791 909 
L 3903 909 
L 3903 0 
L 588 0 
L 588 4666 
z
" transform="scale(0.015625)"/>
      <path id="DejaVuSans-Bold-50" d="M 588 4666 
L 2584 4666 
Q 3475 4666 3951 4270 
Q 4428 3875 4428 3144 
Q 4428 2409 3951 2014 
Q 3475 1619 2584 1619 
L 1791 1619 
L 1791 0 
L 588 0 
L 588 4666 
z
M 1791 3794 
L 1791 2491 
L 2456 2491 
Q 2806 2491 2997 2661 
Q 3188 2831 3188 3144 
Q 3188 3456 2997 3625 
Q 2806 3794 2456 3794 
L 1791 3794 
z
" transform="scale(0.015625)"/>
      <path id="DejaVuSans-Bold-66" d="M 2841 4863 
L 2841 4128 
L 2222 4128 
Q 1984 4128 1890 4042 
Q 1797 3956 1797 3744 
L 1797 3500 
L 2753 3500 
L 2753 2700 
L 1797 2700 
L 1797 0 
L 678 0 
L 678 2700 
L 122 2700 
L 122 3500 
L 678 3500 
L 678 3744 
Q 678 4316 997 4589 
Q 1316 4863 1984 4863 
L 2841 4863 
z
" transform="scale(0.015625)"/>
      <path id="DejaVuSans-Bold-3a" d="M 716 3500 
L 1844 3500 
L 1844 2291 
L 716 2291 
L 716 3500 
z
M 716 1209 
L 1844 1209 
L 1844 0 
L 716 0 
L 716 1209 
z
" transform="scale(0.015625)"/>
      <path id="DejaVuSans-Bold-77" d="M 225 3500 
L 1313 3500 
L 1900 1088 
L 2491 3500 
L 3425 3500 
L 4013 1113 
L 4603 3500 
L 5691 3500 
L 4769 0 
L 3547 0 
L 2956 2406 
L 2369 0 
L 1147 0 
L 225 3500 
z
" transform="scale(0.015625)"/>
      <path id="DejaVuSans-Bold-2d" d="M 347 2297 
L 2309 2297 
L 2309 1388 
L 347 1388 
L 347 2297 
z
" transform="scale(0.015625)"/>
      <path id="DejaVuSans-Bold-49" d="M 588 4666 
L 1791 4666 
L 1791 0 
L 588 0 
L 588 4666 
z
" transform="scale(0.015625)"/>
     </defs>
     <use xlink:href="#DejaVuSans-Bold-56"/>
     <use xlink:href="#DejaVuSans-Bold-4e" transform="translate(77.392578 0)"/>
     <use xlink:href="#DejaVuSans-Bold-58" transform="translate(161.083984 0)"/>
     <use xlink:href="#DejaVuSans-Bold-20" transform="translate(238.183594 0)"/>
     <use xlink:href="#DejaVuSans-Bold-45" transform="translate(272.998047 0)"/>
     <use xlink:href="#DejaVuSans-Bold-64" transform="translate(341.308594 0)"/>
     <use xlink:href="#DejaVuSans-Bold-67" transform="translate(412.890625 0)"/>
     <use xlink:href="#DejaVuSans-Bold-65" transform="translate(484.472656 0)"/>
     <use xlink:href="#DejaVuSans-Bold-20" transform="translate(552.294922 0)"/>
     <use xlink:href="#DejaVuSans-Bold-50" transform="translate(587.109375 0)"/>
     <use xlink:href="#DejaVuSans-Bold-65" transform="translate(660.400391 0)"/>
     <use xlink:href="#DejaVuSans-Bold-72" transform="translate(728.222656 0)"/>
     <use xlink:href="#DejaVuSans-Bold-66" transform="translate(777.539062 0)"/>
     <use xlink:href="#DejaVuSans-Bold-6f" transform="translate(821.044922 0)"/>
     <use xlink:href="#DejaVuSans-Bold-72" transform="translate(889.746094 0)"/>
     <use xlink:href="#DejaVuSans-Bold-6d" transform="translate(939.0625 0)"/>
     <use xlink:href="#DejaVuSans-Bold-61" transform="translate(1043.261719 0)"/>
     <use xlink:href="#DejaVuSans-Bold-6e" transform="translate(1110.742188 0)"/>
     <use xlink:href="#DejaVuSans-Bold-63" transform="translate(1181.933594 0)"/>
     <use xlink:href="#DejaVuSans-Bold-65" transform="translate(1241.210938 0)"/>
     <use xlink:href="#DejaVuSans-Bold-3a" transform="translate(1309.033203 0)"/>
     <use xlink:href="#DejaVuSans-Bold-20" transform="translate(1349.023438 0)"/>
     <use xlink:href="#DejaVuSans-Bold-42" transform="translate(1383.837891 0)"/>
     <use xlink:href="#DejaVuSans-Bold-72" transform="translate(1460.058594 0)"/>
     <use xlink:href="#DejaVuSans-Bold-6f" transform="translate(1509.375 0)"/>
     <use xlink:href="#DejaVuSans-Bold-77" transform="translate(1578.076172 0)"/>
     <use xlink:href="#DejaVuSans-Bold-73" transform="translate(1670.458984 0)"/>
     <use xlink:href="#DejaVuSans-Bold-65" transform="translate(1729.980469 0)"/>
     <use xlink:href="#DejaVuSans-Bold-72" transform="translate(1797.802734 0)"/>
     <use xlink:href="#DejaVuSans-Bold-2d" transform="translate(1847.119141 0)"/>
     <use xlink:href="#DejaVuSans-Bold-42" transform="translate(1888.623047 0)"/>
     <use xlink:href="#DejaVuSans-Bold-61" transform="translate(1964.84375 0)"/>
     <use xlink:href="#DejaVuSans-Bold-73" transform="translate(2032.324219 0)"/>
     <use xlink:href="#DejaVuSans-Bold-65" transform="translate(2091.845703 0)"/>
     <use xlink:href="#DejaVuSans-Bold-64" transform="translate(2159.667969 0)"/>
     <use xlink:href="#DejaVuSans-Bold-20" transform="translate(2231.25 0)"/>
     <use xlink:href="#DejaVuSans-Bold-49" transform="translate(2266.064453 0)"/>
     <use xlink:href="#DejaVuSans-Bold-6e" transform="translate(2303.271484 0)"/>
     <use xlink:href="#DejaVuSans-Bold-66" transform="translate(2374.462891 0)"/>
     <use xlink:href="#DejaVuSans-Bold-65" transform="translate(2417.96875 0)"/>
     <use xlink:href="#DejaVuSans-Bold-72" transform="translate(2485.791016 0)"/>
     <use xlink:href="#DejaVuSans-Bold-65" transform="translate(2535.107422 0)"/>
     <use xlink:href="#DejaVuSans-Bold-6e" transform="translate(2602.929688 0)"/>
     <use xlink:href="#DejaVuSans-Bold-63" transform="translate(2674.121094 0)"/>
     <use xlink:href="#DejaVuSans-Bold-65" transform="translate(2733.398438 0)"/>
    </g>
   </g>
  </g>
 </g>
 <defs>
  <clipPath id="pb8c72d546b">
   <rect x="7.2" y="53.475625" width="1116" height="665.28"/>
  </clipPath>
 </defs>
</svg>
