<?xml version="1.0" encoding="utf-8" standalone="no"?>
<!DOCTYPE svg PUBLIC "-//W3C//DTD SVG 1.1//EN"
  "http://www.w3.org/Graphics/SVG/1.1/DTD/svg11.dtd">
<svg xmlns:xlink="http://www.w3.org/1999/xlink" width="681.28pt" height="712.875pt" viewBox="0 0 681.28 712.875" xmlns="http://www.w3.org/2000/svg" version="1.1">
 <metadata>
  <rdf:RDF xmlns:dc="http://purl.org/dc/elements/1.1/" xmlns:cc="http://creativecommons.org/ns#" xmlns:rdf="http://www.w3.org/1999/02/22-rdf-syntax-ns#">
   <cc:Work>
    <dc:type rdf:resource="http://purl.org/dc/dcmitype/StillImage"/>
    <dc:date>2026-05-10T12:40:44.779547</dc:date>
    <dc:format>image/svg+xml</dc:format>
    <dc:creator>
     <cc:Agent>
      <dc:title>Matplotlib v3.10.9, https://matplotlib.org/</dc:title>
     </cc:Agent>
    </dc:creator>
   </cc:Work>
  </rdf:RDF>
 </metadata>
 <defs>
  <style type="text/css">*{stroke-linejoin: round; stroke-linecap: butt}</style>
 </defs>
 <g id="figure_1">
  <g id="patch_1">
   <path d="M 0 712.875 
L 681.28 712.875 
L 681.28 0 
L 0 0 
z
" style="fill: #ffffff"/>
  </g>
  <g id="axes_1">
   <g id="patch_2">
    <path d="M 340.64 125.4894 
C 354.788691 125.4894 368.359794 119.868065 378.36443 109.86343 
C 388.369065 99.858794 393.9904 86.287691 393.9904 72.139 
C 393.9904 57.990309 388.369065 44.419206 378.36443 34.41457 
C 368.359794 24.409935 354.788691 18.7886 340.64 18.7886 
C 326.491309 18.7886 312.920206 24.409935 302.91557 34.41457 
C 292.910935 44.419206 287.2896 57.990309 287.2896 72.139 
C 287.2896 86.287691 292.910935 99.858794 302.91557 109.86343 
C 312.920206 119.868065 326.491309 125.4894 340.64 125.4894 
z
" clip-path="url(#p83f9751d93)" style="fill: #add8e6; opacity: 0.5; stroke: #add8e6; stroke-width: 2; stroke-linejoin: miter"/>
   </g>
   <g id="patch_3">
    <path d="M 340.64 212.1838 
C 354.788691 212.1838 368.359794 206.562465 378.36443 196.55783 
C 388.369065 186.553194 393.9904 172.982091 393.9904 158.8334 
C 393.9904 144.684709 388.369065 131.113606 378.36443 121.10897 
C 368.359794 111.104335 354.788691 105.483 340.64 105.483 
C 326.491309 105.483 312.920206 111.104335 302.91557 121.10897 
C 292.910935 131.113606 287.2896 144.684709 287.2896 158.8334 
C 287.2896 172.982091 292.910935 186.553194 302.91557 196.55783 
C 312.920206 206.562465 326.491309 212.1838 340.64 212.1838 
z
" clip-path="url(#p83f9751d93)" style="fill: #add8e6; opacity: 0.5; stroke: #add8e6; stroke-width: 2; stroke-linejoin: miter"/>
   </g>
   <g id="patch_4">
    <path d="M 340.64 305.547 
C 354.788691 305.547 368.359794 299.925665 378.36443 289.92103 
C 388.369065 279.916394 393.9904 266.345291 393.9904 252.1966 
C 393.9904 238.047909 388.369065 224.476806 378.36443 214.47217 
C 368.359794 204.467535 354.788691 198.8462 340.64 198.8462 
C 326.491309 198.8462 312.920206 204.467535 302.91557 214.47217 
C 292.910935 224.476806 287.2896 238.047909 287.2896 252.1966 
C 287.2896 266.345291 292.910935 279.916394 302.91557 289.92103 
C 312.920206 299.925665 326.491309 305.547 340.64 305.547 
z
" clip-path="url(#p83f9751d93)" style="fill: #add8e6; opacity: 0.5; stroke: #add8e6; stroke-width: 2; stroke-linejoin: miter"/>
   </g>
   <g id="patch_5">
    <path d="M 207.264 398.9102 
C 221.412691 398.9102 234.983794 393.288865 244.98843 383.28423 
C 254.993065 373.279594 260.6144 359.708491 260.6144 345.5598 
C 260.6144 331.411109 254.993065 317.840006 244.98843 307.83537 
C 234.983794 297.830735 221.412691 292.2094 207.264 292.2094 
C 193.115309 292.2094 179.544206 297.830735 169.53957 307.83537 
C 159.534935 317.840006 153.9136 331.411109 153.9136 345.5598 
C 153.9136 359.708491 159.534935 373.279594 169.53957 383.28423 
C 179.544206 393.288865 193.115309 398.9102 207.264 398.9102 
z
" clip-path="url(#p83f9751d93)" style="fill: #ff0000; opacity: 0.5; stroke: #ff0000; stroke-width: 2; stroke-linejoin: miter"/>
   </g>
   <g id="patch_6">
    <path d="M 474.016 398.9102 
C 488.164691 398.9102 501.735794 393.288865 511.74043 383.28423 
C 521.745065 373.279594 527.3664 359.708491 527.3664 345.5598 
C 527.3664 331.411109 521.745065 317.840006 511.74043 307.83537 
C 501.735794 297.830735 488.164691 292.2094 474.016 292.2094 
C 459.867309 292.2094 446.296206 297.830735 436.29157 307.83537 
C 426.286935 317.840006 420.6656 331.411109 420.6656 345.5598 
C 420.6656 359.708491 426.286935 373.279594 436.29157 383.28423 
C 446.296206 393.288865 459.867309 398.9102 474.016 398.9102 
z
" clip-path="url(#p83f9751d93)" style="fill: #008000; opacity: 0.5; stroke: #008000; stroke-width: 2; stroke-linejoin: miter"/>
   </g>
   <g id="patch_7">
    <path d="M 207.264 492.2734 
C 221.412691 492.2734 234.983794 486.652065 244.98843 476.64743 
C 254.993065 466.642794 260.6144 453.071691 260.6144 438.923 
C 260.6144 424.774309 254.993065 411.203206 244.98843 401.19857 
C 234.983794 391.193935 221.412691 385.5726 207.264 385.5726 
C 193.115309 385.5726 179.544206 391.193935 169.53957 401.19857 
C 159.534935 411.203206 153.9136 424.774309 153.9136 438.923 
C 153.9136 453.071691 159.534935 466.642794 169.53957 476.64743 
C 179.544206 486.652065 193.115309 492.2734 207.264 492.2734 
z
" clip-path="url(#p83f9751d93)" style="fill: #add8e6; opacity: 0.5; stroke: #add8e6; stroke-width: 2; stroke-linejoin: miter"/>
   </g>
   <g id="patch_8">
    <path d="M 474.016 492.2734 
C 488.164691 492.2734 501.735794 486.652065 511.74043 476.64743 
C 521.745065 466.642794 527.3664 453.071691 527.3664 438.923 
C 527.3664 424.774309 521.745065 411.203206 511.74043 401.19857 
C 501.735794 391.193935 488.164691 385.5726 474.016 385.5726 
C 459.867309 385.5726 446.296206 391.193935 436.29157 401.19857 
C 426.286935 411.203206 420.6656 424.774309 420.6656 438.923 
C 420.6656 453.071691 426.286935 466.642794 436.29157 476.64743 
C 446.296206 486.652065 459.867309 492.2734 474.016 492.2734 
z
" clip-path="url(#p83f9751d93)" style="fill: #add8e6; opacity: 0.5; stroke: #add8e6; stroke-width: 2; stroke-linejoin: miter"/>
   </g>
   <g id="patch_9">
    <path d="M 207.264 585.6366 
C 221.412691 585.6366 234.983794 580.015265 244.98843 570.01063 
C 254.993065 560.005994 260.6144 546.434891 260.6144 532.2862 
C 260.6144 518.137509 254.993065 504.566406 244.98843 494.56177 
C 234.983794 484.557135 221.412691 478.9358 207.264 478.9358 
C 193.115309 478.9358 179.544206 484.557135 169.53957 494.56177 
C 159.534935 504.566406 153.9136 518.137509 153.9136 532.2862 
C 153.9136 546.434891 159.534935 560.005994 169.53957 570.01063 
C 179.544206 580.015265 193.115309 585.6366 207.264 585.6366 
z
" clip-path="url(#p83f9751d93)" style="fill: #add8e6; opacity: 0.5; stroke: #add8e6; stroke-width: 2; stroke-linejoin: miter"/>
   </g>
   <g id="patch_10">
    <path d="M 474.016 585.6366 
C 488.164691 585.6366 501.735794 580.015265 511.74043 570.01063 
C 521.745065 560.005994 527.3664 546.434891 527.3664 532.2862 
C 527.3664 518.137509 521.745065 504.566406 511.74043 494.56177 
C 501.735794 484.557135 488.164691 478.9358 474.016 478.9358 
C 459.867309 478.9358 446.296206 484.557135 436.29157 494.56177 
C 426.286935 504.566406 420.6656 518.137509 420.6656 532.2862 
C 420.6656 546.434891 426.286935 560.005994 436.29157 570.01063 
C 446.296206 580.015265 459.867309 585.6366 474.016 585.6366 
z
" clip-path="url(#p83f9751d93)" style="fill: #add8e6; opacity: 0.5; stroke: #add8e6; stroke-width: 2; stroke-linejoin: miter"/>
   </g>
   <g id="patch_11">
    <path d="M 207.264 678.9998 
C 221.412691 678.9998 234.983794 673.378465 244.98843 663.37383 
C 254.993065 653.369194 260.6144 639.798091 260.6144 625.6494 
C 260.6144 611.500709 254.993065 597.929606 244.98843 587.92497 
C 234.983794 577.920335 221.412691 572.299 207.264 572.299 
C 193.115309 572.299 179.544206 577.920335 169.53957 587.92497 
C 159.534935 597.929606 153.9136 611.500709 153.9136 625.6494 
C 153.9136 639.798091 159.534935 653.369194 169.53957 663.37383 
C 179.544206 673.378465 193.115309 678.9998 207.264 678.9998 
z
" clip-path="url(#p83f9751d93)" style="fill: #ff0000; opacity: 0.5; stroke: #ff0000; stroke-width: 2; stroke-linejoin: miter"/>
   </g>
   <g id="patch_12">
    <path d="M 474.016 678.9998 
C 488.164691 678.9998 501.735794 673.378465 511.74043 663.37383 
C 521.745065 653.369194 527.3664 639.798091 527.3664 625.6494 
C 527.3664 611.500709 521.745065 597.929606 511.74043 587.92497 
C 501.735794 577.920335 488.164691 572.299 474.016 572.299 
C 459.867309 572.299 446.296206 577.920335 436.29157 587.92497 
C 426.286935 597.929606 420.6656 611.500709 420.6656 625.6494 
C 420.6656 639.798091 426.286935 653.369194 436.29157 663.37383 
C 446.296206 673.378465 459.867309 678.9998 474.016 678.9998 
z
" clip-path="url(#p83f9751d93)" style="fill: #008000; opacity: 0.5; stroke: #008000; stroke-width: 2; stroke-linejoin: miter"/>
   </g>
   <g id="patch_13">
    <path d="M 340.64 74.136506 
Q 340.64 115.485949 340.64 154.599325 
" style="fill: none; stroke: #000000; stroke-width: 2; stroke-linecap: round"/>
    <path d="M 342.64 150.599325 
L 340.64 154.599325 
L 338.64 150.599325 
" style="fill: none; stroke: #000000; stroke-width: 2; stroke-linecap: round"/>
   </g>
   <g id="patch_14">
    <path d="M 340.64 160.830702 
Q 340.64 205.514058 340.64 247.961345 
" style="fill: none; stroke: #000000; stroke-width: 2; stroke-linecap: round"/>
    <path d="M 342.64 243.961345 
L 340.64 247.961345 
L 338.64 243.961345 
" style="fill: none; stroke: #000000; stroke-width: 2; stroke-linecap: round"/>
   </g>
   <g id="patch_15">
    <path d="M 338.999664 253.344835 
Q 273.949954 298.879632 210.732101 343.132129 
" style="fill: none; stroke: #000000; stroke-width: 2; stroke-linecap: round"/>
    <path d="M 215.155954 342.476743 
L 210.732101 343.132129 
L 212.862104 339.199816 
" style="fill: none; stroke: #000000; stroke-width: 2; stroke-linecap: round"/>
   </g>
   <g id="patch_16">
    <path d="M 342.280336 253.344835 
Q 407.330046 298.879632 470.547899 343.132129 
" style="fill: none; stroke: #000000; stroke-width: 2; stroke-linecap: round"/>
    <path d="M 468.417896 339.199816 
L 470.547899 343.132129 
L 466.124046 342.476743 
" style="fill: none; stroke: #000000; stroke-width: 2; stroke-linecap: round"/>
   </g>
   <g id="patch_17">
    <path d="M 207.264 347.557102 
Q 207.264 392.240458 207.264 434.687745 
" style="fill: none; stroke: #000000; stroke-width: 2; stroke-linecap: round"/>
    <path d="M 209.264 430.687745 
L 207.264 434.687745 
L 205.264 430.687745 
" style="fill: none; stroke: #000000; stroke-width: 2; stroke-linecap: round"/>
   </g>
   <g id="patch_18">
    <path d="M 474.016 347.557102 
Q 474.016 392.240458 474.016 434.687745 
" style="fill: none; stroke: #000000; stroke-width: 2; stroke-linecap: round"/>
    <path d="M 476.016 430.687745 
L 474.016 434.687745 
L 472.016 430.687745 
" style="fill: none; stroke: #000000; stroke-width: 2; stroke-linecap: round"/>
   </g>
   <g id="patch_19">
    <path d="M 207.264 440.920302 
Q 207.264 485.603658 207.264 528.050945 
" style="fill: none; stroke: #000000; stroke-width: 2; stroke-linecap: round"/>
    <path d="M 209.264 524.050945 
L 207.264 528.050945 
L 205.264 524.050945 
" style="fill: none; stroke: #000000; stroke-width: 2; stroke-linecap: round"/>
   </g>
   <g id="patch_20">
    <path d="M 474.016 440.920302 
Q 474.016 485.603658 474.016 528.050945 
" style="fill: none; stroke: #000000; stroke-width: 2; stroke-linecap: round"/>
    <path d="M 476.016 524.050945 
L 474.016 528.050945 
L 472.016 524.050945 
" style="fill: none; stroke: #000000; stroke-width: 2; stroke-linecap: round"/>
   </g>
   <g id="patch_21">
    <path d="M 207.264 534.283502 
Q 207.264 578.966858 207.264 621.414145 
" style="fill: none; stroke: #000000; stroke-width: 2; stroke-linecap: round"/>
    <path d="M 209.264 617.414145 
L 207.264 621.414145 
L 205.264 617.414145 
" style="fill: none; stroke: #000000; stroke-width: 2; stroke-linecap: round"/>
   </g>
   <g id="patch_22">
    <path d="M 474.016 534.283502 
Q 474.016 578.966858 474.016 621.414145 
" style="fill: none; stroke: #000000; stroke-width: 2; stroke-linecap: round"/>
    <path d="M 476.016 617.414145 
L 474.016 621.414145 
L 472.016 617.414145 
" style="fill: none; stroke: #000000; stroke-width: 2; stroke-linecap: round"/>
   </g>
   <g id="text_1">
    <!-- Start -->
    <g style="fill: #262626" transform="translate(330.387734 74.466344) scale(0.09 -0.09)">
     <defs>
      <path id="LiberationSans-Bold-53" d="M 4019 1269 
Q 4019 622 3539 279 
Q 3059 -63 2131 -63 
Q 1284 -63 803 237 
Q 322 538 184 1147 
L 1075 1294 
Q 1166 944 1428 786 
Q 1691 628 2156 628 
Q 3122 628 3122 1216 
Q 3122 1403 3011 1525 
Q 2900 1647 2698 1728 
Q 2497 1809 1925 1925 
Q 1431 2041 1237 2111 
Q 1044 2181 887 2276 
Q 731 2372 622 2506 
Q 513 2641 452 2822 
Q 391 3003 391 3238 
Q 391 3834 839 4151 
Q 1288 4469 2144 4469 
Q 2963 4469 3373 4212 
Q 3784 3956 3903 3366 
L 3009 3244 
Q 2941 3528 2730 3672 
Q 2519 3816 2125 3816 
Q 1288 3816 1288 3291 
Q 1288 3119 1377 3009 
Q 1466 2900 1641 2823 
Q 1816 2747 2350 2631 
Q 2984 2497 3257 2383 
Q 3531 2269 3690 2117 
Q 3850 1966 3934 1755 
Q 4019 1544 4019 1269 
z
" transform="scale(0.015625)"/>
      <path id="LiberationSans-Bold-74" d="M 1313 -56 
Q 925 -56 715 155 
Q 506 366 506 794 
L 506 2788 
L 78 2788 
L 78 3381 
L 550 3381 
L 825 4175 
L 1375 4175 
L 1375 3381 
L 2016 3381 
L 2016 2788 
L 1375 2788 
L 1375 1031 
Q 1375 784 1469 667 
Q 1563 550 1759 550 
Q 1863 550 2053 594 
L 2053 50 
Q 1728 -56 1313 -56 
z
" transform="scale(0.015625)"/>
      <path id="LiberationSans-Bold-61" d="M 1228 -63 
Q 738 -63 463 204 
Q 188 472 188 956 
Q 188 1481 530 1756 
Q 872 2031 1522 2038 
L 2250 2050 
L 2250 2222 
Q 2250 2553 2134 2714 
Q 2019 2875 1756 2875 
Q 1513 2875 1398 2764 
Q 1284 2653 1256 2397 
L 341 2441 
Q 425 2934 792 3189 
Q 1159 3444 1794 3444 
Q 2434 3444 2781 3128 
Q 3128 2813 3128 2231 
L 3128 1000 
Q 3128 716 3192 608 
Q 3256 500 3406 500 
Q 3506 500 3600 519 
L 3600 44 
Q 3522 25 3459 9 
Q 3397 -6 3334 -15 
Q 3272 -25 3201 -31 
Q 3131 -38 3038 -38 
Q 2706 -38 2548 125 
Q 2391 288 2359 603 
L 2341 603 
Q 1972 -63 1228 -63 
z
M 2250 1566 
L 1800 1559 
Q 1494 1547 1366 1492 
Q 1238 1438 1170 1325 
Q 1103 1213 1103 1025 
Q 1103 784 1214 667 
Q 1325 550 1509 550 
Q 1716 550 1886 662 
Q 2056 775 2153 973 
Q 2250 1172 2250 1394 
L 2250 1566 
z
" transform="scale(0.015625)"/>
      <path id="LiberationSans-Bold-72" d="M 447 0 
L 447 2588 
Q 447 2866 439 3052 
Q 431 3238 422 3381 
L 1259 3381 
Q 1269 3325 1284 3039 
Q 1300 2753 1300 2659 
L 1313 2659 
Q 1441 3016 1541 3161 
Q 1641 3306 1778 3376 
Q 1916 3447 2122 3447 
Q 2291 3447 2394 3400 
L 2394 2666 
Q 2181 2713 2019 2713 
Q 1691 2713 1508 2447 
Q 1325 2181 1325 1659 
L 1325 0 
L 447 0 
z
" transform="scale(0.015625)"/>
     </defs>
     <use xlink:href="#LiberationSans-Bold-53"/>
     <use xlink:href="#LiberationSans-Bold-74" transform="translate(66.699219 0)"/>
     <use xlink:href="#LiberationSans-Bold-61" transform="translate(100 0)"/>
     <use xlink:href="#LiberationSans-Bold-72" transform="translate(155.615234 0)"/>
     <use xlink:href="#LiberationSans-Bold-74" transform="translate(194.53125 0)"/>
    </g>
   </g>
   <g id="text_2">
    <!-- BitLattice + TernaryAdam -->
    <g style="fill: #262626" transform="translate(286.332734 161.160744) scale(0.09 -0.09)">
     <defs>
      <path id="LiberationSans-Bold-42" d="M 4331 1256 
Q 4331 656 3881 328 
Q 3431 0 2631 0 
L 428 0 
L 428 4403 
L 2444 4403 
Q 3250 4403 3664 4123 
Q 4078 3844 4078 3297 
Q 4078 2922 3870 2664 
Q 3663 2406 3238 2316 
Q 3772 2253 4051 1979 
Q 4331 1706 4331 1256 
z
M 3150 3172 
Q 3150 3469 2961 3594 
Q 2772 3719 2400 3719 
L 1350 3719 
L 1350 2628 
L 2406 2628 
Q 2797 2628 2973 2764 
Q 3150 2900 3150 3172 
z
M 3406 1328 
Q 3406 1947 2519 1947 
L 1350 1947 
L 1350 684 
L 2553 684 
Q 2997 684 3201 845 
Q 3406 1006 3406 1328 
z
" transform="scale(0.015625)"/>
      <path id="LiberationSans-Bold-69" d="M 447 3991 
L 447 4638 
L 1325 4638 
L 1325 3991 
L 447 3991 
z
M 447 0 
L 447 3381 
L 1325 3381 
L 1325 0 
L 447 0 
z
" transform="scale(0.015625)"/>
      <path id="LiberationSans-Bold-4c" d="M 428 0 
L 428 4403 
L 1350 4403 
L 1350 713 
L 3713 713 
L 3713 0 
L 428 0 
z
" transform="scale(0.015625)"/>
      <path id="LiberationSans-Bold-63" d="M 1856 -63 
Q 1088 -63 669 395 
Q 250 853 250 1672 
Q 250 2509 672 2976 
Q 1094 3444 1869 3444 
Q 2466 3444 2856 3144 
Q 3247 2844 3347 2316 
L 2463 2272 
Q 2425 2531 2275 2686 
Q 2125 2841 1850 2841 
Q 1172 2841 1172 1706 
Q 1172 538 1863 538 
Q 2113 538 2281 695 
Q 2450 853 2491 1166 
L 3372 1125 
Q 3325 778 3123 506 
Q 2922 234 2594 85 
Q 2266 -63 1856 -63 
z
" transform="scale(0.015625)"/>
      <path id="LiberationSans-Bold-65" d="M 1831 -63 
Q 1069 -63 659 389 
Q 250 841 250 1706 
Q 250 2544 665 2994 
Q 1081 3444 1844 3444 
Q 2572 3444 2956 2961 
Q 3341 2478 3341 1547 
L 3341 1522 
L 1172 1522 
Q 1172 1028 1355 776 
Q 1538 525 1875 525 
Q 2341 525 2463 928 
L 3291 856 
Q 2931 -63 1831 -63 
z
M 1831 2891 
Q 1522 2891 1355 2675 
Q 1188 2459 1178 2072 
L 2491 2072 
Q 2466 2481 2294 2686 
Q 2122 2891 1831 2891 
z
" transform="scale(0.015625)"/>
      <path id="LiberationSans-Bold-20" transform="scale(0.015625)"/>
      <path id="LiberationSans-Bold-2b" d="M 2222 1778 
L 2222 503 
L 1516 503 
L 1516 1778 
L 269 1778 
L 269 2478 
L 1516 2478 
L 1516 3753 
L 2222 3753 
L 2222 2478 
L 3478 2478 
L 3478 1778 
L 2222 1778 
z
" transform="scale(0.015625)"/>
      <path id="LiberationSans-Bold-54" d="M 2416 3691 
L 2416 0 
L 1494 0 
L 1494 3691 
L 72 3691 
L 72 4403 
L 3841 4403 
L 3841 3691 
L 2416 3691 
z
" transform="scale(0.015625)"/>
      <path id="LiberationSans-Bold-6e" d="M 2638 0 
L 2638 1897 
Q 2638 2788 2034 2788 
Q 1716 2788 1520 2514 
Q 1325 2241 1325 1813 
L 1325 0 
L 447 0 
L 447 2625 
Q 447 2897 439 3070 
Q 431 3244 422 3381 
L 1259 3381 
Q 1269 3322 1284 3064 
Q 1300 2806 1300 2709 
L 1313 2709 
Q 1491 3097 1759 3272 
Q 2028 3447 2400 3447 
Q 2938 3447 3225 3115 
Q 3513 2784 3513 2147 
L 3513 0 
L 2638 0 
z
" transform="scale(0.015625)"/>
      <path id="LiberationSans-Bold-79" d="M 884 -1328 
Q 569 -1328 331 -1288 
L 331 -663 
Q 497 -688 634 -688 
Q 822 -688 945 -628 
Q 1069 -569 1167 -431 
Q 1266 -294 1388 34 
L 50 3381 
L 978 3381 
L 1509 1797 
Q 1634 1456 1825 753 
L 1903 1050 
L 2106 1784 
L 2606 3381 
L 3525 3381 
L 2188 -178 
Q 1919 -828 1630 -1078 
Q 1341 -1328 884 -1328 
z
" transform="scale(0.015625)"/>
      <path id="LiberationSans-Bold-41" d="M 3541 0 
L 3150 1125 
L 1472 1125 
L 1081 0 
L 159 0 
L 1766 4403 
L 2853 4403 
L 4453 0 
L 3541 0 
z
M 2309 3725 
L 2291 3656 
Q 2259 3544 2215 3400 
Q 2172 3256 1678 1819 
L 2944 1819 
L 2509 3084 
L 2375 3509 
L 2309 3725 
z
" transform="scale(0.015625)"/>
      <path id="LiberationSans-Bold-64" d="M 2638 0 
Q 2625 47 2608 236 
Q 2591 425 2591 550 
L 2578 550 
Q 2294 -63 1497 -63 
Q 906 -63 584 398 
Q 263 859 263 1688 
Q 263 2528 602 2986 
Q 941 3444 1563 3444 
Q 1922 3444 2183 3294 
Q 2444 3144 2584 2847 
L 2591 2847 
L 2584 3403 
L 2584 4638 
L 3463 4638 
L 3463 738 
Q 3463 425 3488 0 
L 2638 0 
z
M 2597 1709 
Q 2597 2256 2414 2551 
Q 2231 2847 1875 2847 
Q 1522 2847 1350 2561 
Q 1178 2275 1178 1688 
Q 1178 538 1869 538 
Q 2216 538 2406 842 
Q 2597 1147 2597 1709 
z
" transform="scale(0.015625)"/>
      <path id="LiberationSans-Bold-6d" d="M 2438 0 
L 2438 1897 
Q 2438 2788 1925 2788 
Q 1659 2788 1492 2516 
Q 1325 2244 1325 1813 
L 1325 0 
L 447 0 
L 447 2625 
Q 447 2897 439 3070 
Q 431 3244 422 3381 
L 1259 3381 
Q 1269 3322 1284 3064 
Q 1300 2806 1300 2709 
L 1313 2709 
Q 1475 3097 1717 3272 
Q 1959 3447 2297 3447 
Q 3072 3447 3238 2709 
L 3256 2709 
Q 3428 3103 3668 3275 
Q 3909 3447 4281 3447 
Q 4775 3447 5034 3111 
Q 5294 2775 5294 2147 
L 5294 0 
L 4422 0 
L 4422 1897 
Q 4422 2788 3909 2788 
Q 3653 2788 3489 2539 
Q 3325 2291 3309 1853 
L 3309 0 
L 2438 0 
z
" transform="scale(0.015625)"/>
     </defs>
     <use xlink:href="#LiberationSans-Bold-42"/>
     <use xlink:href="#LiberationSans-Bold-69" transform="translate(72.216797 0)"/>
     <use xlink:href="#LiberationSans-Bold-74" transform="translate(100 0)"/>
     <use xlink:href="#LiberationSans-Bold-4c" transform="translate(133.300781 0)"/>
     <use xlink:href="#LiberationSans-Bold-61" transform="translate(194.384766 0)"/>
     <use xlink:href="#LiberationSans-Bold-74" transform="translate(250 0)"/>
     <use xlink:href="#LiberationSans-Bold-74" transform="translate(283.300781 0)"/>
     <use xlink:href="#LiberationSans-Bold-69" transform="translate(316.601562 0)"/>
     <use xlink:href="#LiberationSans-Bold-63" transform="translate(344.384766 0)"/>
     <use xlink:href="#LiberationSans-Bold-65" transform="translate(400 0)"/>
     <use xlink:href="#LiberationSans-Bold-20" transform="translate(455.615234 0)"/>
     <use xlink:href="#LiberationSans-Bold-2b" transform="translate(483.398438 0)"/>
     <use xlink:href="#LiberationSans-Bold-20" transform="translate(541.796875 0)"/>
     <use xlink:href="#LiberationSans-Bold-54" transform="translate(569.580078 0)"/>
     <use xlink:href="#LiberationSans-Bold-65" transform="translate(623.289062 0)"/>
     <use xlink:href="#LiberationSans-Bold-72" transform="translate(678.904297 0)"/>
     <use xlink:href="#LiberationSans-Bold-6e" transform="translate(717.820312 0)"/>
     <use xlink:href="#LiberationSans-Bold-61" transform="translate(778.904297 0)"/>
     <use xlink:href="#LiberationSans-Bold-72" transform="translate(834.519531 0)"/>
     <use xlink:href="#LiberationSans-Bold-79" transform="translate(873.435547 0)"/>
     <use xlink:href="#LiberationSans-Bold-41" transform="translate(929.050781 0)"/>
     <use xlink:href="#LiberationSans-Bold-64" transform="translate(1001.267578 0)"/>
     <use xlink:href="#LiberationSans-Bold-61" transform="translate(1062.351562 0)"/>
     <use xlink:href="#LiberationSans-Bold-6d" transform="translate(1117.966797 0)"/>
    </g>
   </g>
   <g id="text_3">
    <!-- Learning? -->
    <g style="fill: #262626" transform="translate(318.890938 254.504256) scale(0.09 -0.09)">
     <defs>
      <path id="LiberationSans-Bold-67" d="M 1863 -1356 
Q 1244 -1356 867 -1120 
Q 491 -884 403 -447 
L 1281 -344 
Q 1328 -547 1483 -662 
Q 1638 -778 1888 -778 
Q 2253 -778 2422 -553 
Q 2591 -328 2591 116 
L 2591 294 
L 2597 628 
L 2591 628 
Q 2300 6 1503 6 
Q 913 6 588 450 
Q 263 894 263 1719 
Q 263 2547 597 2997 
Q 931 3447 1569 3447 
Q 2306 3447 2591 2838 
L 2606 2838 
Q 2606 2947 2620 3134 
Q 2634 3322 2650 3381 
L 3481 3381 
Q 3463 3044 3463 2600 
L 3463 103 
Q 3463 -619 3053 -987 
Q 2644 -1356 1863 -1356 
z
M 2597 1738 
Q 2597 2259 2411 2551 
Q 2225 2844 1881 2844 
Q 1178 2844 1178 1719 
Q 1178 616 1875 616 
Q 2225 616 2411 908 
Q 2597 1200 2597 1738 
z
" transform="scale(0.015625)"/>
      <path id="LiberationSans-Bold-3f" d="M 3541 3206 
Q 3541 2903 3405 2662 
Q 3269 2422 2897 2156 
L 2659 1984 
Q 2447 1831 2342 1675 
Q 2238 1519 2228 1331 
L 1394 1331 
Q 1413 1650 1573 1900 
Q 1734 2150 2047 2369 
Q 2381 2600 2518 2776 
Q 2656 2953 2656 3169 
Q 2656 3444 2476 3603 
Q 2297 3763 1966 3763 
Q 1650 3763 1436 3578 
Q 1222 3394 1184 3091 
L 294 3128 
Q 378 3763 815 4116 
Q 1253 4469 1953 4469 
Q 2694 4469 3117 4133 
Q 3541 3797 3541 3206 
z
M 1369 0 
L 1369 844 
L 2272 844 
L 2272 0 
L 1369 0 
z
" transform="scale(0.015625)"/>
     </defs>
     <use xlink:href="#LiberationSans-Bold-4c"/>
     <use xlink:href="#LiberationSans-Bold-65" transform="translate(61.083984 0)"/>
     <use xlink:href="#LiberationSans-Bold-61" transform="translate(116.699219 0)"/>
     <use xlink:href="#LiberationSans-Bold-72" transform="translate(172.314453 0)"/>
     <use xlink:href="#LiberationSans-Bold-6e" transform="translate(211.230469 0)"/>
     <use xlink:href="#LiberationSans-Bold-69" transform="translate(272.314453 0)"/>
     <use xlink:href="#LiberationSans-Bold-6e" transform="translate(300.097656 0)"/>
     <use xlink:href="#LiberationSans-Bold-67" transform="translate(361.181641 0)"/>
     <use xlink:href="#LiberationSans-Bold-3f" transform="translate(422.265625 0)"/>
    </g>
   </g>
   <g id="text_4">
    <!-- No -->
    <g style="fill: #262626" transform="translate(201.265641 347.887144) scale(0.09 -0.09)">
     <defs>
      <path id="LiberationSans-Bold-4e" d="M 3109 0 
L 1191 3391 
Q 1247 2897 1247 2597 
L 1247 0 
L 428 0 
L 428 4403 
L 1481 4403 
L 3428 984 
Q 3372 1456 3372 1844 
L 3372 4403 
L 4191 4403 
L 4191 0 
L 3109 0 
z
" transform="scale(0.015625)"/>
      <path id="LiberationSans-Bold-6f" d="M 3659 1694 
Q 3659 872 3203 404 
Q 2747 -63 1941 -63 
Q 1150 -63 700 406 
Q 250 875 250 1694 
Q 250 2509 700 2976 
Q 1150 3444 1959 3444 
Q 2788 3444 3223 2992 
Q 3659 2541 3659 1694 
z
M 2741 1694 
Q 2741 2297 2544 2569 
Q 2347 2841 1972 2841 
Q 1172 2841 1172 1694 
Q 1172 1128 1367 833 
Q 1563 538 1931 538 
Q 2741 538 2741 1694 
z
" transform="scale(0.015625)"/>
     </defs>
     <use xlink:href="#LiberationSans-Bold-4e"/>
     <use xlink:href="#LiberationSans-Bold-6f" transform="translate(72.216797 0)"/>
    </g>
   </g>
   <g id="text_5">
    <!-- Yes -->
    <g style="fill: #262626" transform="translate(466.257016 347.887144) scale(0.09 -0.09)">
     <defs>
      <path id="LiberationSans-Bold-59" d="M 2597 1806 
L 2597 0 
L 1678 0 
L 1678 1806 
L 109 4403 
L 1075 4403 
L 2131 2541 
L 3200 4403 
L 4166 4403 
L 2597 1806 
z
" transform="scale(0.015625)"/>
      <path id="LiberationSans-Bold-73" d="M 3297 988 
Q 3297 497 2895 217 
Q 2494 -63 1784 -63 
Q 1088 -63 717 157 
Q 347 378 225 844 
L 997 959 
Q 1063 719 1223 619 
Q 1384 519 1784 519 
Q 2153 519 2322 612 
Q 2491 706 2491 906 
Q 2491 1069 2355 1164 
Q 2219 1259 1894 1325 
Q 1150 1472 890 1598 
Q 631 1725 495 1926 
Q 359 2128 359 2422 
Q 359 2906 732 3176 
Q 1106 3447 1791 3447 
Q 2394 3447 2761 3212 
Q 3128 2978 3219 2534 
L 2441 2453 
Q 2403 2659 2256 2761 
Q 2109 2863 1791 2863 
Q 1478 2863 1322 2783 
Q 1166 2703 1166 2516 
Q 1166 2369 1286 2283 
Q 1406 2197 1691 2141 
Q 2088 2059 2395 1973 
Q 2703 1888 2889 1769 
Q 3075 1650 3186 1464 
Q 3297 1278 3297 988 
z
" transform="scale(0.015625)"/>
     </defs>
     <use xlink:href="#LiberationSans-Bold-59"/>
     <use xlink:href="#LiberationSans-Bold-65" transform="translate(61.199219 0)"/>
     <use xlink:href="#LiberationSans-Bold-73" transform="translate(116.814453 0)"/>
    </g>
   </g>
   <g id="text_6">
    <!-- Disable Quantization -->
    <g style="fill: #262626" transform="translate(162.761813 441.250344) scale(0.09 -0.09)">
     <defs>
      <path id="LiberationSans-Bold-44" d="M 4353 2234 
Q 4353 1553 4086 1045 
Q 3819 538 3330 269 
Q 2841 0 2209 0 
L 428 0 
L 428 4403 
L 2022 4403 
Q 3134 4403 3743 3842 
Q 4353 3281 4353 2234 
z
M 3425 2234 
Q 3425 2944 3056 3317 
Q 2688 3691 2003 3691 
L 1350 3691 
L 1350 713 
L 2131 713 
Q 2725 713 3075 1122 
Q 3425 1531 3425 2234 
z
" transform="scale(0.015625)"/>
      <path id="LiberationSans-Bold-62" d="M 3647 1703 
Q 3647 866 3311 401 
Q 2975 -63 2350 -63 
Q 1991 -63 1728 93 
Q 1466 250 1325 544 
L 1319 544 
Q 1319 434 1305 243 
Q 1291 53 1275 0 
L 422 0 
Q 447 291 447 772 
L 447 4638 
L 1325 4638 
L 1325 3344 
L 1313 2794 
L 1325 2794 
Q 1622 3444 2406 3444 
Q 3006 3444 3326 2989 
Q 3647 2534 3647 1703 
z
M 2731 1703 
Q 2731 2278 2562 2556 
Q 2394 2834 2041 2834 
Q 1684 2834 1498 2536 
Q 1313 2238 1313 1675 
Q 1313 1138 1495 838 
Q 1678 538 2034 538 
Q 2731 538 2731 1703 
z
" transform="scale(0.015625)"/>
      <path id="LiberationSans-Bold-6c" d="M 447 0 
L 447 4638 
L 1325 4638 
L 1325 0 
L 447 0 
z
" transform="scale(0.015625)"/>
      <path id="LiberationSans-Bold-51" d="M 4709 2222 
Q 4709 1341 4276 755 
Q 3844 169 3072 13 
Q 3178 -297 3370 -434 
Q 3563 -572 3909 -572 
Q 4094 -572 4281 -541 
L 4275 -1172 
Q 3881 -1259 3519 -1259 
Q 3009 -1259 2675 -975 
Q 2341 -691 2138 -31 
Q 1247 53 755 648 
Q 263 1244 263 2222 
Q 263 3281 850 3875 
Q 1438 4469 2484 4469 
Q 3531 4469 4120 3869 
Q 4709 3269 4709 2222 
z
M 3769 2222 
Q 3769 2934 3431 3339 
Q 3094 3744 2484 3744 
Q 1866 3744 1528 3342 
Q 1191 2941 1191 2222 
Q 1191 1497 1534 1078 
Q 1878 659 2478 659 
Q 3097 659 3433 1065 
Q 3769 1472 3769 2222 
z
" transform="scale(0.015625)"/>
      <path id="LiberationSans-Bold-75" d="M 1275 3381 
L 1275 1484 
Q 1275 594 1875 594 
Q 2194 594 2389 867 
Q 2584 1141 2584 1569 
L 2584 3381 
L 3463 3381 
L 3463 756 
Q 3463 325 3488 0 
L 2650 0 
Q 2613 450 2613 672 
L 2597 672 
Q 2422 288 2151 112 
Q 1881 -63 1509 -63 
Q 972 -63 684 267 
Q 397 597 397 1234 
L 397 3381 
L 1275 3381 
z
" transform="scale(0.015625)"/>
      <path id="LiberationSans-Bold-7a" d="M 256 0 
L 256 622 
L 1847 2747 
L 384 2747 
L 384 3381 
L 2816 3381 
L 2816 2753 
L 1234 641 
L 2969 641 
L 2969 0 
L 256 0 
z
" transform="scale(0.015625)"/>
     </defs>
     <use xlink:href="#LiberationSans-Bold-44"/>
     <use xlink:href="#LiberationSans-Bold-69" transform="translate(72.216797 0)"/>
     <use xlink:href="#LiberationSans-Bold-73" transform="translate(100 0)"/>
     <use xlink:href="#LiberationSans-Bold-61" transform="translate(155.615234 0)"/>
     <use xlink:href="#LiberationSans-Bold-62" transform="translate(211.230469 0)"/>
     <use xlink:href="#LiberationSans-Bold-6c" transform="translate(272.314453 0)"/>
     <use xlink:href="#LiberationSans-Bold-65" transform="translate(300.097656 0)"/>
     <use xlink:href="#LiberationSans-Bold-20" transform="translate(355.712891 0)"/>
     <use xlink:href="#LiberationSans-Bold-51" transform="translate(383.496094 0)"/>
     <use xlink:href="#LiberationSans-Bold-75" transform="translate(461.279297 0)"/>
     <use xlink:href="#LiberationSans-Bold-61" transform="translate(522.363281 0)"/>
     <use xlink:href="#LiberationSans-Bold-6e" transform="translate(577.978516 0)"/>
     <use xlink:href="#LiberationSans-Bold-74" transform="translate(639.0625 0)"/>
     <use xlink:href="#LiberationSans-Bold-69" transform="translate(672.363281 0)"/>
     <use xlink:href="#LiberationSans-Bold-7a" transform="translate(700.146484 0)"/>
     <use xlink:href="#LiberationSans-Bold-61" transform="translate(750.146484 0)"/>
     <use xlink:href="#LiberationSans-Bold-74" transform="translate(805.761719 0)"/>
     <use xlink:href="#LiberationSans-Bold-69" transform="translate(839.0625 0)"/>
     <use xlink:href="#LiberationSans-Bold-6f" transform="translate(866.845703 0)"/>
     <use xlink:href="#LiberationSans-Bold-6e" transform="translate(927.929688 0)"/>
    </g>
   </g>
   <g id="text_7">
    <!-- Keep Architecture -->
    <g style="fill: #262626" transform="translate(435.424984 441.250344) scale(0.09 -0.09)">
     <defs>
      <path id="LiberationSans-Bold-4b" d="M 3475 0 
L 1894 2022 
L 1350 1606 
L 1350 0 
L 428 0 
L 428 4403 
L 1350 4403 
L 1350 2406 
L 3334 4403 
L 4409 4403 
L 2528 2541 
L 4563 0 
L 3475 0 
z
" transform="scale(0.015625)"/>
      <path id="LiberationSans-Bold-70" d="M 3647 1706 
Q 3647 859 3308 398 
Q 2969 -63 2350 -63 
Q 1994 -63 1730 92 
Q 1466 247 1325 538 
L 1306 538 
Q 1325 444 1325 -31 
L 1325 -1328 
L 447 -1328 
L 447 2603 
Q 447 3081 422 3381 
L 1275 3381 
Q 1291 3325 1302 3159 
Q 1313 2994 1313 2831 
L 1325 2831 
Q 1622 3453 2406 3453 
Q 2997 3453 3322 2998 
Q 3647 2544 3647 1706 
z
M 2731 1706 
Q 2731 2844 2034 2844 
Q 1684 2844 1498 2537 
Q 1313 2231 1313 1681 
Q 1313 1134 1498 836 
Q 1684 538 2028 538 
Q 2731 538 2731 1706 
z
" transform="scale(0.015625)"/>
      <path id="LiberationSans-Bold-68" d="M 1313 2706 
Q 1491 3094 1759 3269 
Q 2028 3444 2400 3444 
Q 2938 3444 3225 3112 
Q 3513 2781 3513 2144 
L 3513 0 
L 2638 0 
L 2638 1894 
Q 2638 2784 2034 2784 
Q 1716 2784 1520 2511 
Q 1325 2238 1325 1809 
L 1325 0 
L 447 0 
L 447 4638 
L 1325 4638 
L 1325 3372 
Q 1325 3031 1300 2706 
L 1313 2706 
z
" transform="scale(0.015625)"/>
     </defs>
     <use xlink:href="#LiberationSans-Bold-4b"/>
     <use xlink:href="#LiberationSans-Bold-65" transform="translate(72.216797 0)"/>
     <use xlink:href="#LiberationSans-Bold-65" transform="translate(127.832031 0)"/>
     <use xlink:href="#LiberationSans-Bold-70" transform="translate(183.447266 0)"/>
     <use xlink:href="#LiberationSans-Bold-20" transform="translate(244.53125 0)"/>
     <use xlink:href="#LiberationSans-Bold-41" transform="translate(268.564453 0)"/>
     <use xlink:href="#LiberationSans-Bold-72" transform="translate(340.78125 0)"/>
     <use xlink:href="#LiberationSans-Bold-63" transform="translate(379.697266 0)"/>
     <use xlink:href="#LiberationSans-Bold-68" transform="translate(435.3125 0)"/>
     <use xlink:href="#LiberationSans-Bold-69" transform="translate(496.396484 0)"/>
     <use xlink:href="#LiberationSans-Bold-74" transform="translate(524.179688 0)"/>
     <use xlink:href="#LiberationSans-Bold-65" transform="translate(557.480469 0)"/>
     <use xlink:href="#LiberationSans-Bold-63" transform="translate(613.095703 0)"/>
     <use xlink:href="#LiberationSans-Bold-74" transform="translate(668.710938 0)"/>
     <use xlink:href="#LiberationSans-Bold-75" transform="translate(702.011719 0)"/>
     <use xlink:href="#LiberationSans-Bold-72" transform="translate(763.095703 0)"/>
     <use xlink:href="#LiberationSans-Bold-65" transform="translate(802.011719 0)"/>
    </g>
   </g>
   <g id="text_8">
    <!-- Standard Adam -->
    <g style="fill: #262626" transform="translate(174.178453 534.613544) scale(0.09 -0.09)">
     <use xlink:href="#LiberationSans-Bold-53"/>
     <use xlink:href="#LiberationSans-Bold-74" transform="translate(66.699219 0)"/>
     <use xlink:href="#LiberationSans-Bold-61" transform="translate(100 0)"/>
     <use xlink:href="#LiberationSans-Bold-6e" transform="translate(155.615234 0)"/>
     <use xlink:href="#LiberationSans-Bold-64" transform="translate(216.699219 0)"/>
     <use xlink:href="#LiberationSans-Bold-61" transform="translate(277.783203 0)"/>
     <use xlink:href="#LiberationSans-Bold-72" transform="translate(333.398438 0)"/>
     <use xlink:href="#LiberationSans-Bold-64" transform="translate(372.314453 0)"/>
     <use xlink:href="#LiberationSans-Bold-20" transform="translate(433.398438 0)"/>
     <use xlink:href="#LiberationSans-Bold-41" transform="translate(457.431641 0)"/>
     <use xlink:href="#LiberationSans-Bold-64" transform="translate(529.648438 0)"/>
     <use xlink:href="#LiberationSans-Bold-61" transform="translate(590.732422 0)"/>
     <use xlink:href="#LiberationSans-Bold-6d" transform="translate(646.347656 0)"/>
    </g>
   </g>
   <g id="text_9">
    <!-- Add Real Data -->
    <g style="fill: #262626" transform="translate(443.510922 534.613544) scale(0.09 -0.09)">
     <defs>
      <path id="LiberationSans-Bold-52" d="M 3453 0 
L 2431 1672 
L 1350 1672 
L 1350 0 
L 428 0 
L 428 4403 
L 2628 4403 
Q 3416 4403 3844 4064 
Q 4272 3725 4272 3091 
Q 4272 2628 4009 2292 
Q 3747 1956 3300 1850 
L 4491 0 
L 3453 0 
z
M 3344 3053 
Q 3344 3688 2531 3688 
L 1350 3688 
L 1350 2388 
L 2556 2388 
Q 2944 2388 3144 2563 
Q 3344 2738 3344 3053 
z
" transform="scale(0.015625)"/>
     </defs>
     <use xlink:href="#LiberationSans-Bold-41"/>
     <use xlink:href="#LiberationSans-Bold-64" transform="translate(72.216797 0)"/>
     <use xlink:href="#LiberationSans-Bold-64" transform="translate(133.300781 0)"/>
     <use xlink:href="#LiberationSans-Bold-20" transform="translate(194.384766 0)"/>
     <use xlink:href="#LiberationSans-Bold-52" transform="translate(222.167969 0)"/>
     <use xlink:href="#LiberationSans-Bold-65" transform="translate(294.384766 0)"/>
     <use xlink:href="#LiberationSans-Bold-61" transform="translate(350 0)"/>
     <use xlink:href="#LiberationSans-Bold-6c" transform="translate(405.615234 0)"/>
     <use xlink:href="#LiberationSans-Bold-20" transform="translate(433.398438 0)"/>
     <use xlink:href="#LiberationSans-Bold-44" transform="translate(461.181641 0)"/>
     <use xlink:href="#LiberationSans-Bold-61" transform="translate(533.398438 0)"/>
     <use xlink:href="#LiberationSans-Bold-74" transform="translate(589.013672 0)"/>
     <use xlink:href="#LiberationSans-Bold-61" transform="translate(622.314453 0)"/>
    </g>
   </g>
   <g id="text_10">
    <!-- Result: 34% Acc -->
    <g style="fill: #262626" transform="translate(172.421344 627.976744) scale(0.09 -0.09)">
     <defs>
      <path id="LiberationSans-Bold-3a" d="M 616 2350 
L 616 3231 
L 1516 3231 
L 1516 2350 
L 616 2350 
z
M 616 0 
L 616 878 
L 1516 878 
L 1516 0 
L 616 0 
z
" transform="scale(0.015625)"/>
      <path id="LiberationSans-Bold-33" d="M 3328 1222 
Q 3328 603 2922 265 
Q 2516 -72 1766 -72 
Q 1056 -72 637 254 
Q 219 581 147 1197 
L 1041 1275 
Q 1125 641 1763 641 
Q 2078 641 2253 797 
Q 2428 953 2428 1275 
Q 2428 1569 2215 1725 
Q 2003 1881 1584 1881 
L 1278 1881 
L 1278 2591 
L 1566 2591 
Q 1944 2591 2134 2745 
Q 2325 2900 2325 3188 
Q 2325 3459 2173 3614 
Q 2022 3769 1731 3769 
Q 1459 3769 1292 3619 
Q 1125 3469 1100 3194 
L 222 3256 
Q 291 3825 694 4147 
Q 1097 4469 1747 4469 
Q 2438 4469 2827 4158 
Q 3216 3847 3216 3297 
Q 3216 2884 2973 2618 
Q 2731 2353 2275 2266 
L 2275 2253 
Q 2781 2194 3054 1920 
Q 3328 1647 3328 1222 
z
" transform="scale(0.015625)"/>
      <path id="LiberationSans-Bold-34" d="M 2938 897 
L 2938 0 
L 2100 0 
L 2100 897 
L 97 897 
L 97 1556 
L 1956 4403 
L 2938 4403 
L 2938 1550 
L 3525 1550 
L 3525 897 
L 2938 897 
z
M 2100 2991 
Q 2100 3159 2111 3356 
Q 2122 3553 2128 3609 
Q 2047 3434 1834 3103 
L 813 1550 
L 2100 1550 
L 2100 2991 
z
" transform="scale(0.015625)"/>
      <path id="LiberationSans-Bold-25" d="M 5522 1350 
Q 5522 669 5240 309 
Q 4959 -50 4416 -50 
Q 3866 -50 3587 306 
Q 3309 663 3309 1350 
Q 3309 2050 3578 2401 
Q 3847 2753 4428 2753 
Q 4991 2753 5256 2398 
Q 5522 2044 5522 1350 
z
M 1725 0 
L 1081 0 
L 3956 4403 
L 4609 4403 
L 1725 0 
z
M 1275 4453 
Q 1834 4453 2104 4100 
Q 2375 3747 2375 3053 
Q 2375 2372 2092 2011 
Q 1809 1650 1259 1650 
Q 716 1650 437 2008 
Q 159 2366 159 3053 
Q 159 3763 428 4108 
Q 697 4453 1275 4453 
z
M 4850 1350 
Q 4850 1847 4754 2059 
Q 4659 2272 4428 2272 
Q 4178 2272 4083 2056 
Q 3988 1841 3988 1350 
Q 3988 850 4088 645 
Q 4188 441 4422 441 
Q 4650 441 4750 653 
Q 4850 866 4850 1350 
z
M 1697 3053 
Q 1697 3544 1601 3756 
Q 1506 3969 1275 3969 
Q 1025 3969 928 3758 
Q 831 3547 831 3053 
Q 831 2559 932 2348 
Q 1034 2138 1269 2138 
Q 1500 2138 1598 2350 
Q 1697 2563 1697 3053 
z
" transform="scale(0.015625)"/>
     </defs>
     <use xlink:href="#LiberationSans-Bold-52"/>
     <use xlink:href="#LiberationSans-Bold-65" transform="translate(72.216797 0)"/>
     <use xlink:href="#LiberationSans-Bold-73" transform="translate(127.832031 0)"/>
     <use xlink:href="#LiberationSans-Bold-75" transform="translate(183.447266 0)"/>
     <use xlink:href="#LiberationSans-Bold-6c" transform="translate(244.53125 0)"/>
     <use xlink:href="#LiberationSans-Bold-74" transform="translate(272.314453 0)"/>
     <use xlink:href="#LiberationSans-Bold-3a" transform="translate(305.615234 0)"/>
     <use xlink:href="#LiberationSans-Bold-20" transform="translate(338.916016 0)"/>
     <use xlink:href="#LiberationSans-Bold-33" transform="translate(366.699219 0)"/>
     <use xlink:href="#LiberationSans-Bold-34" transform="translate(422.314453 0)"/>
     <use xlink:href="#LiberationSans-Bold-25" transform="translate(477.929688 0)"/>
     <use xlink:href="#LiberationSans-Bold-20" transform="translate(566.845703 0)"/>
     <use xlink:href="#LiberationSans-Bold-41" transform="translate(590.878906 0)"/>
     <use xlink:href="#LiberationSans-Bold-63" transform="translate(663.095703 0)"/>
     <use xlink:href="#LiberationSans-Bold-63" transform="translate(718.710938 0)"/>
    </g>
   </g>
   <g id="text_11">
    <!-- Result: 45% Acc -->
    <g style="fill: #262626" transform="translate(439.173344 627.976744) scale(0.09 -0.09)">
     <defs>
      <path id="LiberationSans-Bold-35" d="M 3381 1466 
Q 3381 766 2945 351 
Q 2509 -63 1750 -63 
Q 1088 -63 689 235 
Q 291 534 197 1100 
L 1075 1172 
Q 1144 891 1319 762 
Q 1494 634 1759 634 
Q 2088 634 2283 843 
Q 2478 1053 2478 1447 
Q 2478 1794 2293 2001 
Q 2109 2209 1778 2209 
Q 1413 2209 1181 1925 
L 325 1925 
L 478 4403 
L 3125 4403 
L 3125 3750 
L 1275 3750 
L 1203 2638 
Q 1522 2919 2000 2919 
Q 2628 2919 3004 2528 
Q 3381 2138 3381 1466 
z
" transform="scale(0.015625)"/>
     </defs>
     <use xlink:href="#LiberationSans-Bold-52"/>
     <use xlink:href="#LiberationSans-Bold-65" transform="translate(72.216797 0)"/>
     <use xlink:href="#LiberationSans-Bold-73" transform="translate(127.832031 0)"/>
     <use xlink:href="#LiberationSans-Bold-75" transform="translate(183.447266 0)"/>
     <use xlink:href="#LiberationSans-Bold-6c" transform="translate(244.53125 0)"/>
     <use xlink:href="#LiberationSans-Bold-74" transform="translate(272.314453 0)"/>
     <use xlink:href="#LiberationSans-Bold-3a" transform="translate(305.615234 0)"/>
     <use xlink:href="#LiberationSans-Bold-20" transform="translate(338.916016 0)"/>
     <use xlink:href="#LiberationSans-Bold-34" transform="translate(366.699219 0)"/>
     <use xlink:href="#LiberationSans-Bold-35" transform="translate(422.314453 0)"/>
     <use xlink:href="#LiberationSans-Bold-25" transform="translate(477.929688 0)"/>
     <use xlink:href="#LiberationSans-Bold-20" transform="translate(566.845703 0)"/>
     <use xlink:href="#LiberationSans-Bold-41" transform="translate(590.878906 0)"/>
     <use xlink:href="#LiberationSans-Bold-63" transform="translate(663.095703 0)"/>
     <use xlink:href="#LiberationSans-Bold-63" transform="translate(718.710938 0)"/>
    </g>
   </g>
   <g id="text_12">
    <!-- Architecture Decision Flow -->
    <g style="fill: #262626" transform="translate(237.51375 18.795) scale(0.16 -0.16)">
     <defs>
      <path id="LiberationSans-Bold-46" d="M 1350 3691 
L 1350 2328 
L 3603 2328 
L 3603 1616 
L 1350 1616 
L 1350 0 
L 428 0 
L 428 4403 
L 3675 4403 
L 3675 3691 
L 1350 3691 
z
" transform="scale(0.015625)"/>
      <path id="LiberationSans-Bold-77" d="M 4103 0 
L 3175 0 
L 2638 2063 
Q 2600 2203 2491 2756 
L 2328 2056 
L 1784 0 
L 856 0 
L -19 3381 
L 806 3381 
L 1363 797 
L 1406 1028 
L 1484 1394 
L 2016 3381 
L 2956 3381 
L 3475 1394 
Q 3519 1231 3603 797 
L 3691 1209 
L 4178 3381 
L 4991 3381 
L 4103 0 
z
" transform="scale(0.015625)"/>
     </defs>
     <use xlink:href="#LiberationSans-Bold-41"/>
     <use xlink:href="#LiberationSans-Bold-72" transform="translate(72.216797 0)"/>
     <use xlink:href="#LiberationSans-Bold-63" transform="translate(111.132812 0)"/>
     <use xlink:href="#LiberationSans-Bold-68" transform="translate(166.748047 0)"/>
     <use xlink:href="#LiberationSans-Bold-69" transform="translate(227.832031 0)"/>
     <use xlink:href="#LiberationSans-Bold-74" transform="translate(255.615234 0)"/>
     <use xlink:href="#LiberationSans-Bold-65" transform="translate(288.916016 0)"/>
     <use xlink:href="#LiberationSans-Bold-63" transform="translate(344.53125 0)"/>
     <use xlink:href="#LiberationSans-Bold-74" transform="translate(400.146484 0)"/>
     <use xlink:href="#LiberationSans-Bold-75" transform="translate(433.447266 0)"/>
     <use xlink:href="#LiberationSans-Bold-72" transform="translate(494.53125 0)"/>
     <use xlink:href="#LiberationSans-Bold-65" transform="translate(533.447266 0)"/>
     <use xlink:href="#LiberationSans-Bold-20" transform="translate(589.0625 0)"/>
     <use xlink:href="#LiberationSans-Bold-44" transform="translate(616.845703 0)"/>
     <use xlink:href="#LiberationSans-Bold-65" transform="translate(689.0625 0)"/>
     <use xlink:href="#LiberationSans-Bold-63" transform="translate(744.677734 0)"/>
     <use xlink:href="#LiberationSans-Bold-69" transform="translate(800.292969 0)"/>
     <use xlink:href="#LiberationSans-Bold-73" transform="translate(828.076172 0)"/>
     <use xlink:href="#LiberationSans-Bold-69" transform="translate(883.691406 0)"/>
     <use xlink:href="#LiberationSans-Bold-6f" transform="translate(911.474609 0)"/>
     <use xlink:href="#LiberationSans-Bold-6e" transform="translate(972.558594 0)"/>
     <use xlink:href="#LiberationSans-Bold-20" transform="translate(1033.642578 0)"/>
     <use xlink:href="#LiberationSans-Bold-46" transform="translate(1061.425781 0)"/>
     <use xlink:href="#LiberationSans-Bold-6c" transform="translate(1122.509766 0)"/>
     <use xlink:href="#LiberationSans-Bold-6f" transform="translate(1150.292969 0)"/>
     <use xlink:href="#LiberationSans-Bold-77" transform="translate(1211.376953 0)"/>
    </g>
   </g>
  </g>
 </g>
 <defs>
  <clipPath id="p83f9751d93">
   <rect x="7.2" y="38.795" width="666.88" height="666.88"/>
  </clipPath>
 </defs>
</svg>
