<?xml version="1.0" encoding="utf-8" standalone="no"?>
<!DOCTYPE svg PUBLIC "-//W3C//DTD SVG 1.1//EN"
  "http://www.w3.org/Graphics/SVG/1.1/DTD/svg11.dtd">
<svg xmlns:xlink="http://www.w3.org/1999/xlink" width="1000.8pt" height="712.875pt" viewBox="0 0 1000.8 712.875" xmlns="http://www.w3.org/2000/svg" version="1.1">
 <metadata>
  <rdf:RDF xmlns:dc="http://purl.org/dc/elements/1.1/" xmlns:cc="http://creativecommons.org/ns#" xmlns:rdf="http://www.w3.org/1999/02/22-rdf-syntax-ns#">
   <cc:Work>
    <dc:type rdf:resource="http://purl.org/dc/dcmitype/StillImage"/>
    <dc:date>2026-05-10T12:40:43.796468</dc:date>
    <dc:format>image/svg+xml</dc:format>
    <dc:creator>
     <cc:Agent>
      <dc:title>Matplotlib v3.10.9, https://matplotlib.org/</dc:title>
     </cc:Agent>
    </dc:creator>
   </cc:Work>
  </rdf:RDF>
 </metadata>
 <defs>
  <style type="text/css">*{stroke-linejoin: round; stroke-linecap: butt}</style>
 </defs>
 <g id="figure_1">
  <g id="patch_1">
   <path d="M 0 712.875 
L 1000.8 712.875 
L 1000.8 0 
L 0 0 
z
" style="fill: #ffffff"/>
  </g>
  <g id="axes_1">
   <g id="patch_2">
    <path d="M 7.2 705.675 
L 993.6 705.675 
L 993.6 38.795 
L 7.2 38.795 
z
" style="fill: #eaeaf2"/>
   </g>
   <g id="matplotlib.axis_1"/>
   <g id="matplotlib.axis_2"/>
   <g id="patch_3">
    <path d="M 7.2 218.8526 
L 336 218.8526 
L 336 125.4894 
L 7.2 125.4894 
z
" clip-path="url(#pd13aedab57)" style="fill: #ff0000; opacity: 0.3; stroke: #ff0000; stroke-width: 2; stroke-linejoin: miter"/>
   </g>
   <g id="patch_4">
    <path d="M 7.2 245.5278 
L 336 245.5278 
L 336 205.515 
L 7.2 205.515 
z
" clip-path="url(#pd13aedab57)" style="fill: #008000; opacity: 0.3; stroke: #008000; stroke-width: 2; stroke-linejoin: miter"/>
   </g>
   <g id="patch_5">
    <path d="M 7.2 352.2286 
L 336 352.2286 
L 336 258.8654 
L 7.2 258.8654 
z
" clip-path="url(#pd13aedab57)" style="fill: #ffa500; opacity: 0.3; stroke: #ffa500; stroke-width: 2; stroke-linejoin: miter"/>
   </g>
   <g id="patch_6">
    <path d="M 7.2 378.9038 
L 336 378.9038 
L 336 338.891 
L 7.2 338.891 
z
" clip-path="url(#pd13aedab57)" style="fill: #ffa500; opacity: 0.3; stroke: #ffa500; stroke-width: 2; stroke-linejoin: miter"/>
   </g>
   <g id="patch_7">
    <path d="M 7.2 485.6046 
L 336 485.6046 
L 336 392.2414 
L 7.2 392.2414 
z
" clip-path="url(#pd13aedab57)" style="fill: #ffff00; opacity: 0.3; stroke: #ffff00; stroke-width: 2; stroke-linejoin: miter"/>
   </g>
   <g id="patch_8">
    <path d="M 7.2 512.2798 
L 336 512.2798 
L 336 472.267 
L 7.2 472.267 
z
" clip-path="url(#pd13aedab57)" style="fill: #808080; opacity: 0.3; stroke: #808080; stroke-width: 2; stroke-linejoin: miter"/>
   </g>
   <g id="patch_9">
    <path d="M 7.2 618.9806 
L 336 618.9806 
L 336 525.6174 
L 7.2 525.6174 
z
" clip-path="url(#pd13aedab57)" style="fill: #ffa500; opacity: 0.3; stroke: #ffa500; stroke-width: 2; stroke-linejoin: miter"/>
   </g>
   <g id="patch_10">
    <path d="M 7.2 645.6558 
L 336 645.6558 
L 336 605.643 
L 7.2 605.643 
z
" clip-path="url(#pd13aedab57)" style="fill: #ffa500; opacity: 0.3; stroke: #ffa500; stroke-width: 2; stroke-linejoin: miter"/>
   </g>
   <g id="text_1">
    <!-- Quantization Blocks Learning -->
    <g style="fill: #262626" transform="translate(93.985547 174.991469) scale(0.11 -0.11)">
     <defs>
      <path id="LiberationSans-Bold-51" d="M 4709 2222 
Q 4709 1341 4276 755 
Q 3844 169 3072 13 
Q 3178 -297 3370 -434 
Q 3563 -572 3909 -572 
Q 4094 -572 4281 -541 
L 4275 -1172 
Q 3881 -1259 3519 -1259 
Q 3009 -1259 2675 -975 
Q 2341 -691 2138 -31 
Q 1247 53 755 648 
Q 263 1244 263 2222 
Q 263 3281 850 3875 
Q 1438 4469 2484 4469 
Q 3531 4469 4120 3869 
Q 4709 3269 4709 2222 
z
M 3769 2222 
Q 3769 2934 3431 3339 
Q 3094 3744 2484 3744 
Q 1866 3744 1528 3342 
Q 1191 2941 1191 2222 
Q 1191 1497 1534 1078 
Q 1878 659 2478 659 
Q 3097 659 3433 1065 
Q 3769 1472 3769 2222 
z
" transform="scale(0.015625)"/>
      <path id="LiberationSans-Bold-75" d="M 1275 3381 
L 1275 1484 
Q 1275 594 1875 594 
Q 2194 594 2389 867 
Q 2584 1141 2584 1569 
L 2584 3381 
L 3463 3381 
L 3463 756 
Q 3463 325 3488 0 
L 2650 0 
Q 2613 450 2613 672 
L 2597 672 
Q 2422 288 2151 112 
Q 1881 -63 1509 -63 
Q 972 -63 684 267 
Q 397 597 397 1234 
L 397 3381 
L 1275 3381 
z
" transform="scale(0.015625)"/>
      <path id="LiberationSans-Bold-61" d="M 1228 -63 
Q 738 -63 463 204 
Q 188 472 188 956 
Q 188 1481 530 1756 
Q 872 2031 1522 2038 
L 2250 2050 
L 2250 2222 
Q 2250 2553 2134 2714 
Q 2019 2875 1756 2875 
Q 1513 2875 1398 2764 
Q 1284 2653 1256 2397 
L 341 2441 
Q 425 2934 792 3189 
Q 1159 3444 1794 3444 
Q 2434 3444 2781 3128 
Q 3128 2813 3128 2231 
L 3128 1000 
Q 3128 716 3192 608 
Q 3256 500 3406 500 
Q 3506 500 3600 519 
L 3600 44 
Q 3522 25 3459 9 
Q 3397 -6 3334 -15 
Q 3272 -25 3201 -31 
Q 3131 -38 3038 -38 
Q 2706 -38 2548 125 
Q 2391 288 2359 603 
L 2341 603 
Q 1972 -63 1228 -63 
z
M 2250 1566 
L 1800 1559 
Q 1494 1547 1366 1492 
Q 1238 1438 1170 1325 
Q 1103 1213 1103 1025 
Q 1103 784 1214 667 
Q 1325 550 1509 550 
Q 1716 550 1886 662 
Q 2056 775 2153 973 
Q 2250 1172 2250 1394 
L 2250 1566 
z
" transform="scale(0.015625)"/>
      <path id="LiberationSans-Bold-6e" d="M 2638 0 
L 2638 1897 
Q 2638 2788 2034 2788 
Q 1716 2788 1520 2514 
Q 1325 2241 1325 1813 
L 1325 0 
L 447 0 
L 447 2625 
Q 447 2897 439 3070 
Q 431 3244 422 3381 
L 1259 3381 
Q 1269 3322 1284 3064 
Q 1300 2806 1300 2709 
L 1313 2709 
Q 1491 3097 1759 3272 
Q 2028 3447 2400 3447 
Q 2938 3447 3225 3115 
Q 3513 2784 3513 2147 
L 3513 0 
L 2638 0 
z
" transform="scale(0.015625)"/>
      <path id="LiberationSans-Bold-74" d="M 1313 -56 
Q 925 -56 715 155 
Q 506 366 506 794 
L 506 2788 
L 78 2788 
L 78 3381 
L 550 3381 
L 825 4175 
L 1375 4175 
L 1375 3381 
L 2016 3381 
L 2016 2788 
L 1375 2788 
L 1375 1031 
Q 1375 784 1469 667 
Q 1563 550 1759 550 
Q 1863 550 2053 594 
L 2053 50 
Q 1728 -56 1313 -56 
z
" transform="scale(0.015625)"/>
      <path id="LiberationSans-Bold-69" d="M 447 3991 
L 447 4638 
L 1325 4638 
L 1325 3991 
L 447 3991 
z
M 447 0 
L 447 3381 
L 1325 3381 
L 1325 0 
L 447 0 
z
" transform="scale(0.015625)"/>
      <path id="LiberationSans-Bold-7a" d="M 256 0 
L 256 622 
L 1847 2747 
L 384 2747 
L 384 3381 
L 2816 3381 
L 2816 2753 
L 1234 641 
L 2969 641 
L 2969 0 
L 256 0 
z
" transform="scale(0.015625)"/>
      <path id="LiberationSans-Bold-6f" d="M 3659 1694 
Q 3659 872 3203 404 
Q 2747 -63 1941 -63 
Q 1150 -63 700 406 
Q 250 875 250 1694 
Q 250 2509 700 2976 
Q 1150 3444 1959 3444 
Q 2788 3444 3223 2992 
Q 3659 2541 3659 1694 
z
M 2741 1694 
Q 2741 2297 2544 2569 
Q 2347 2841 1972 2841 
Q 1172 2841 1172 1694 
Q 1172 1128 1367 833 
Q 1563 538 1931 538 
Q 2741 538 2741 1694 
z
" transform="scale(0.015625)"/>
      <path id="LiberationSans-Bold-20" transform="scale(0.015625)"/>
      <path id="LiberationSans-Bold-42" d="M 4331 1256 
Q 4331 656 3881 328 
Q 3431 0 2631 0 
L 428 0 
L 428 4403 
L 2444 4403 
Q 3250 4403 3664 4123 
Q 4078 3844 4078 3297 
Q 4078 2922 3870 2664 
Q 3663 2406 3238 2316 
Q 3772 2253 4051 1979 
Q 4331 1706 4331 1256 
z
M 3150 3172 
Q 3150 3469 2961 3594 
Q 2772 3719 2400 3719 
L 1350 3719 
L 1350 2628 
L 2406 2628 
Q 2797 2628 2973 2764 
Q 3150 2900 3150 3172 
z
M 3406 1328 
Q 3406 1947 2519 1947 
L 1350 1947 
L 1350 684 
L 2553 684 
Q 2997 684 3201 845 
Q 3406 1006 3406 1328 
z
" transform="scale(0.015625)"/>
      <path id="LiberationSans-Bold-6c" d="M 447 0 
L 447 4638 
L 1325 4638 
L 1325 0 
L 447 0 
z
" transform="scale(0.015625)"/>
      <path id="LiberationSans-Bold-63" d="M 1856 -63 
Q 1088 -63 669 395 
Q 250 853 250 1672 
Q 250 2509 672 2976 
Q 1094 3444 1869 3444 
Q 2466 3444 2856 3144 
Q 3247 2844 3347 2316 
L 2463 2272 
Q 2425 2531 2275 2686 
Q 2125 2841 1850 2841 
Q 1172 2841 1172 1706 
Q 1172 538 1863 538 
Q 2113 538 2281 695 
Q 2450 853 2491 1166 
L 3372 1125 
Q 3325 778 3123 506 
Q 2922 234 2594 85 
Q 2266 -63 1856 -63 
z
" transform="scale(0.015625)"/>
      <path id="LiberationSans-Bold-6b" d="M 2606 0 
L 1703 1531 
L 1325 1269 
L 1325 0 
L 447 0 
L 447 4638 
L 1325 4638 
L 1325 1981 
L 2531 3381 
L 3475 3381 
L 2288 2063 
L 3566 0 
L 2606 0 
z
" transform="scale(0.015625)"/>
      <path id="LiberationSans-Bold-73" d="M 3297 988 
Q 3297 497 2895 217 
Q 2494 -63 1784 -63 
Q 1088 -63 717 157 
Q 347 378 225 844 
L 997 959 
Q 1063 719 1223 619 
Q 1384 519 1784 519 
Q 2153 519 2322 612 
Q 2491 706 2491 906 
Q 2491 1069 2355 1164 
Q 2219 1259 1894 1325 
Q 1150 1472 890 1598 
Q 631 1725 495 1926 
Q 359 2128 359 2422 
Q 359 2906 732 3176 
Q 1106 3447 1791 3447 
Q 2394 3447 2761 3212 
Q 3128 2978 3219 2534 
L 2441 2453 
Q 2403 2659 2256 2761 
Q 2109 2863 1791 2863 
Q 1478 2863 1322 2783 
Q 1166 2703 1166 2516 
Q 1166 2369 1286 2283 
Q 1406 2197 1691 2141 
Q 2088 2059 2395 1973 
Q 2703 1888 2889 1769 
Q 3075 1650 3186 1464 
Q 3297 1278 3297 988 
z
" transform="scale(0.015625)"/>
      <path id="LiberationSans-Bold-4c" d="M 428 0 
L 428 4403 
L 1350 4403 
L 1350 713 
L 3713 713 
L 3713 0 
L 428 0 
z
" transform="scale(0.015625)"/>
      <path id="LiberationSans-Bold-65" d="M 1831 -63 
Q 1069 -63 659 389 
Q 250 841 250 1706 
Q 250 2544 665 2994 
Q 1081 3444 1844 3444 
Q 2572 3444 2956 2961 
Q 3341 2478 3341 1547 
L 3341 1522 
L 1172 1522 
Q 1172 1028 1355 776 
Q 1538 525 1875 525 
Q 2341 525 2463 928 
L 3291 856 
Q 2931 -63 1831 -63 
z
M 1831 2891 
Q 1522 2891 1355 2675 
Q 1188 2459 1178 2072 
L 2491 2072 
Q 2466 2481 2294 2686 
Q 2122 2891 1831 2891 
z
" transform="scale(0.015625)"/>
      <path id="LiberationSans-Bold-72" d="M 447 0 
L 447 2588 
Q 447 2866 439 3052 
Q 431 3238 422 3381 
L 1259 3381 
Q 1269 3325 1284 3039 
Q 1300 2753 1300 2659 
L 1313 2659 
Q 1441 3016 1541 3161 
Q 1641 3306 1778 3376 
Q 1916 3447 2122 3447 
Q 2291 3447 2394 3400 
L 2394 2666 
Q 2181 2713 2019 2713 
Q 1691 2713 1508 2447 
Q 1325 2181 1325 1659 
L 1325 0 
L 447 0 
z
" transform="scale(0.015625)"/>
      <path id="LiberationSans-Bold-67" d="M 1863 -1356 
Q 1244 -1356 867 -1120 
Q 491 -884 403 -447 
L 1281 -344 
Q 1328 -547 1483 -662 
Q 1638 -778 1888 -778 
Q 2253 -778 2422 -553 
Q 2591 -328 2591 116 
L 2591 294 
L 2597 628 
L 2591 628 
Q 2300 6 1503 6 
Q 913 6 588 450 
Q 263 894 263 1719 
Q 263 2547 597 2997 
Q 931 3447 1569 3447 
Q 2306 3447 2591 2838 
L 2606 2838 
Q 2606 2947 2620 3134 
Q 2634 3322 2650 3381 
L 3481 3381 
Q 3463 3044 3463 2600 
L 3463 103 
Q 3463 -619 3053 -987 
Q 2644 -1356 1863 -1356 
z
M 2597 1738 
Q 2597 2259 2411 2551 
Q 2225 2844 1881 2844 
Q 1178 2844 1178 1719 
Q 1178 616 1875 616 
Q 2225 616 2411 908 
Q 2597 1200 2597 1738 
z
" transform="scale(0.015625)"/>
     </defs>
     <use xlink:href="#LiberationSans-Bold-51"/>
     <use xlink:href="#LiberationSans-Bold-75" transform="translate(77.783203 0)"/>
     <use xlink:href="#LiberationSans-Bold-61" transform="translate(138.867188 0)"/>
     <use xlink:href="#LiberationSans-Bold-6e" transform="translate(194.482422 0)"/>
     <use xlink:href="#LiberationSans-Bold-74" transform="translate(255.566406 0)"/>
     <use xlink:href="#LiberationSans-Bold-69" transform="translate(288.867188 0)"/>
     <use xlink:href="#LiberationSans-Bold-7a" transform="translate(316.650391 0)"/>
     <use xlink:href="#LiberationSans-Bold-61" transform="translate(366.650391 0)"/>
     <use xlink:href="#LiberationSans-Bold-74" transform="translate(422.265625 0)"/>
     <use xlink:href="#LiberationSans-Bold-69" transform="translate(455.566406 0)"/>
     <use xlink:href="#LiberationSans-Bold-6f" transform="translate(483.349609 0)"/>
     <use xlink:href="#LiberationSans-Bold-6e" transform="translate(544.433594 0)"/>
     <use xlink:href="#LiberationSans-Bold-20" transform="translate(605.517578 0)"/>
     <use xlink:href="#LiberationSans-Bold-42" transform="translate(633.300781 0)"/>
     <use xlink:href="#LiberationSans-Bold-6c" transform="translate(705.517578 0)"/>
     <use xlink:href="#LiberationSans-Bold-6f" transform="translate(733.300781 0)"/>
     <use xlink:href="#LiberationSans-Bold-63" transform="translate(794.384766 0)"/>
     <use xlink:href="#LiberationSans-Bold-6b" transform="translate(850 0)"/>
     <use xlink:href="#LiberationSans-Bold-73" transform="translate(905.615234 0)"/>
     <use xlink:href="#LiberationSans-Bold-20" transform="translate(961.230469 0)"/>
     <use xlink:href="#LiberationSans-Bold-4c" transform="translate(989.013672 0)"/>
     <use xlink:href="#LiberationSans-Bold-65" transform="translate(1050.097656 0)"/>
     <use xlink:href="#LiberationSans-Bold-61" transform="translate(1105.712891 0)"/>
     <use xlink:href="#LiberationSans-Bold-72" transform="translate(1161.328125 0)"/>
     <use xlink:href="#LiberationSans-Bold-6e" transform="translate(1200.244141 0)"/>
     <use xlink:href="#LiberationSans-Bold-69" transform="translate(1261.328125 0)"/>
     <use xlink:href="#LiberationSans-Bold-6e" transform="translate(1289.111328 0)"/>
     <use xlink:href="#LiberationSans-Bold-67" transform="translate(1350.195312 0)"/>
    </g>
   </g>
   <g id="text_2">
    <!-- TernaryAdam + ternary quantization -->
    <g style="fill: #262626" transform="translate(368.88 169.651281) scale(0.09 -0.09)">
     <defs>
      <path id="LiberationSans-54" d="M 2250 3916 
L 2250 0 
L 1656 0 
L 1656 3916 
L 144 3916 
L 144 4403 
L 3763 4403 
L 3763 3916 
L 2250 3916 
z
" transform="scale(0.015625)"/>
      <path id="LiberationSans-65" d="M 863 1572 
Q 863 991 1103 675 
Q 1344 359 1806 359 
Q 2172 359 2392 506 
Q 2613 653 2691 878 
L 3184 738 
Q 2881 -63 1806 -63 
Q 1056 -63 664 384 
Q 272 831 272 1713 
Q 272 2550 664 2997 
Q 1056 3444 1784 3444 
Q 3275 3444 3275 1647 
L 3275 1572 
L 863 1572 
z
M 2694 2003 
Q 2647 2538 2422 2783 
Q 2197 3028 1775 3028 
Q 1366 3028 1127 2754 
Q 888 2481 869 2003 
L 2694 2003 
z
" transform="scale(0.015625)"/>
      <path id="LiberationSans-72" d="M 444 0 
L 444 2594 
Q 444 2950 425 3381 
L 956 3381 
Q 981 2806 981 2691 
L 994 2691 
Q 1128 3125 1303 3284 
Q 1478 3444 1797 3444 
Q 1909 3444 2025 3413 
L 2025 2897 
Q 1913 2928 1725 2928 
Q 1375 2928 1190 2626 
Q 1006 2325 1006 1763 
L 1006 0 
L 444 0 
z
" transform="scale(0.015625)"/>
      <path id="LiberationSans-6e" d="M 2578 0 
L 2578 2144 
Q 2578 2478 2512 2662 
Q 2447 2847 2303 2928 
Q 2159 3009 1881 3009 
Q 1475 3009 1240 2731 
Q 1006 2453 1006 1959 
L 1006 0 
L 444 0 
L 444 2659 
Q 444 3250 425 3381 
L 956 3381 
Q 959 3366 962 3297 
Q 966 3228 970 3139 
Q 975 3050 981 2803 
L 991 2803 
Q 1184 3153 1439 3298 
Q 1694 3444 2072 3444 
Q 2628 3444 2886 3167 
Q 3144 2891 3144 2253 
L 3144 0 
L 2578 0 
z
" transform="scale(0.015625)"/>
      <path id="LiberationSans-61" d="M 1294 -63 
Q 784 -63 528 206 
Q 272 475 272 944 
Q 272 1469 617 1750 
Q 963 2031 1731 2050 
L 2491 2063 
L 2491 2247 
Q 2491 2659 2316 2837 
Q 2141 3016 1766 3016 
Q 1388 3016 1216 2887 
Q 1044 2759 1009 2478 
L 422 2531 
Q 566 3444 1778 3444 
Q 2416 3444 2737 3151 
Q 3059 2859 3059 2306 
L 3059 850 
Q 3059 600 3125 473 
Q 3191 347 3375 347 
Q 3456 347 3559 369 
L 3559 19 
Q 3347 -31 3125 -31 
Q 2813 -31 2670 133 
Q 2528 297 2509 647 
L 2491 647 
Q 2275 259 1989 98 
Q 1703 -63 1294 -63 
z
M 1422 359 
Q 1731 359 1972 500 
Q 2213 641 2352 886 
Q 2491 1131 2491 1391 
L 2491 1669 
L 1875 1656 
Q 1478 1650 1273 1575 
Q 1069 1500 959 1344 
Q 850 1188 850 934 
Q 850 659 998 509 
Q 1147 359 1422 359 
z
" transform="scale(0.015625)"/>
      <path id="LiberationSans-79" d="M 597 -1328 
Q 366 -1328 209 -1294 
L 209 -872 
Q 328 -891 472 -891 
Q 997 -891 1303 -119 
L 1356 16 
L 16 3381 
L 616 3381 
L 1328 1513 
Q 1344 1469 1366 1408 
Q 1388 1347 1506 1000 
Q 1625 653 1634 613 
L 1853 1228 
L 2594 3381 
L 3188 3381 
L 1888 0 
Q 1678 -541 1497 -805 
Q 1316 -1069 1095 -1198 
Q 875 -1328 597 -1328 
z
" transform="scale(0.015625)"/>
      <path id="LiberationSans-41" d="M 3647 0 
L 3144 1288 
L 1138 1288 
L 631 0 
L 13 0 
L 1809 4403 
L 2488 4403 
L 4256 0 
L 3647 0 
z
M 2141 3953 
L 2113 3866 
Q 2034 3606 1881 3200 
L 1319 1753 
L 2966 1753 
L 2400 3206 
Q 2313 3422 2225 3694 
L 2141 3953 
z
" transform="scale(0.015625)"/>
      <path id="LiberationSans-64" d="M 2566 544 
Q 2409 219 2151 78 
Q 1894 -63 1513 -63 
Q 872 -63 570 368 
Q 269 800 269 1675 
Q 269 3444 1513 3444 
Q 1897 3444 2153 3303 
Q 2409 3163 2566 2856 
L 2572 2856 
L 2566 3234 
L 2566 4638 
L 3128 4638 
L 3128 697 
Q 3128 169 3147 0 
L 2609 0 
Q 2600 50 2589 231 
Q 2578 413 2578 544 
L 2566 544 
z
M 859 1694 
Q 859 984 1046 678 
Q 1234 372 1656 372 
Q 2134 372 2350 703 
Q 2566 1034 2566 1731 
Q 2566 2403 2350 2715 
Q 2134 3028 1663 3028 
Q 1238 3028 1048 2714 
Q 859 2400 859 1694 
z
" transform="scale(0.015625)"/>
      <path id="LiberationSans-6d" d="M 2400 0 
L 2400 2144 
Q 2400 2634 2265 2821 
Q 2131 3009 1781 3009 
Q 1422 3009 1212 2734 
Q 1003 2459 1003 1959 
L 1003 0 
L 444 0 
L 444 2659 
Q 444 3250 425 3381 
L 956 3381 
Q 959 3366 962 3297 
Q 966 3228 970 3139 
Q 975 3050 981 2803 
L 991 2803 
Q 1172 3163 1406 3303 
Q 1641 3444 1978 3444 
Q 2363 3444 2586 3291 
Q 2809 3138 2897 2803 
L 2906 2803 
Q 3081 3144 3329 3294 
Q 3578 3444 3931 3444 
Q 4444 3444 4676 3166 
Q 4909 2888 4909 2253 
L 4909 0 
L 4353 0 
L 4353 2144 
Q 4353 2634 4218 2821 
Q 4084 3009 3734 3009 
Q 3366 3009 3161 2736 
Q 2956 2463 2956 1959 
L 2956 0 
L 2400 0 
z
" transform="scale(0.015625)"/>
      <path id="LiberationSans-20" transform="scale(0.015625)"/>
      <path id="LiberationSans-2b" d="M 2097 1900 
L 2097 563 
L 1638 563 
L 1638 1900 
L 313 1900 
L 313 2356 
L 1638 2356 
L 1638 3694 
L 2097 3694 
L 2097 2356 
L 3422 2356 
L 3422 1900 
L 2097 1900 
z
" transform="scale(0.015625)"/>
      <path id="LiberationSans-74" d="M 1731 25 
Q 1453 -50 1163 -50 
Q 488 -50 488 716 
L 488 2972 
L 97 2972 
L 97 3381 
L 509 3381 
L 675 4138 
L 1050 4138 
L 1050 3381 
L 1675 3381 
L 1675 2972 
L 1050 2972 
L 1050 838 
Q 1050 594 1129 495 
Q 1209 397 1406 397 
Q 1519 397 1731 441 
L 1731 25 
z
" transform="scale(0.015625)"/>
      <path id="LiberationSans-71" d="M 1513 -63 
Q 869 -63 569 371 
Q 269 806 269 1675 
Q 269 3444 1513 3444 
Q 1897 3444 2147 3308 
Q 2397 3172 2566 2856 
L 2572 2856 
Q 2572 2950 2584 3179 
Q 2597 3409 2609 3425 
L 3150 3425 
Q 3128 3241 3128 2503 
L 3128 -1328 
L 2566 -1328 
L 2566 44 
L 2578 556 
L 2572 556 
Q 2403 222 2156 79 
Q 1909 -63 1513 -63 
z
M 2566 1731 
Q 2566 2391 2350 2709 
Q 2134 3028 1663 3028 
Q 1234 3028 1046 2709 
Q 859 2391 859 1694 
Q 859 984 1048 678 
Q 1238 372 1656 372 
Q 2134 372 2350 712 
Q 2566 1053 2566 1731 
z
" transform="scale(0.015625)"/>
      <path id="LiberationSans-75" d="M 981 3381 
L 981 1238 
Q 981 903 1047 718 
Q 1113 534 1256 453 
Q 1400 372 1678 372 
Q 2084 372 2318 650 
Q 2553 928 2553 1422 
L 2553 3381 
L 3116 3381 
L 3116 722 
Q 3116 131 3134 0 
L 2603 0 
Q 2600 16 2597 84 
Q 2594 153 2589 242 
Q 2584 331 2578 578 
L 2569 578 
Q 2375 228 2120 82 
Q 1866 -63 1488 -63 
Q 931 -63 673 214 
Q 416 491 416 1128 
L 416 3381 
L 981 3381 
z
" transform="scale(0.015625)"/>
      <path id="LiberationSans-69" d="M 428 4100 
L 428 4638 
L 991 4638 
L 991 4100 
L 428 4100 
z
M 428 0 
L 428 3381 
L 991 3381 
L 991 0 
L 428 0 
z
" transform="scale(0.015625)"/>
      <path id="LiberationSans-7a" d="M 259 0 
L 259 428 
L 2150 2947 
L 366 2947 
L 366 3381 
L 2816 3381 
L 2816 2953 
L 922 434 
L 2881 434 
L 2881 0 
L 259 0 
z
" transform="scale(0.015625)"/>
      <path id="LiberationSans-6f" d="M 3291 1694 
Q 3291 806 2900 371 
Q 2509 -63 1766 -63 
Q 1025 -63 647 389 
Q 269 841 269 1694 
Q 269 3444 1784 3444 
Q 2559 3444 2925 3017 
Q 3291 2591 3291 1694 
z
M 2700 1694 
Q 2700 2394 2492 2711 
Q 2284 3028 1794 3028 
Q 1300 3028 1079 2704 
Q 859 2381 859 1694 
Q 859 1025 1076 689 
Q 1294 353 1759 353 
Q 2266 353 2483 678 
Q 2700 1003 2700 1694 
z
" transform="scale(0.015625)"/>
     </defs>
     <use xlink:href="#LiberationSans-54"/>
     <use xlink:href="#LiberationSans-65" transform="translate(49.958984 0)"/>
     <use xlink:href="#LiberationSans-72" transform="translate(105.574219 0)"/>
     <use xlink:href="#LiberationSans-6e" transform="translate(138.875 0)"/>
     <use xlink:href="#LiberationSans-61" transform="translate(194.490234 0)"/>
     <use xlink:href="#LiberationSans-72" transform="translate(250.105469 0)"/>
     <use xlink:href="#LiberationSans-79" transform="translate(283.40625 0)"/>
     <use xlink:href="#LiberationSans-41" transform="translate(333.40625 0)"/>
     <use xlink:href="#LiberationSans-64" transform="translate(400.105469 0)"/>
     <use xlink:href="#LiberationSans-61" transform="translate(455.720703 0)"/>
     <use xlink:href="#LiberationSans-6d" transform="translate(511.335938 0)"/>
     <use xlink:href="#LiberationSans-20" transform="translate(594.636719 0)"/>
     <use xlink:href="#LiberationSans-2b" transform="translate(622.419922 0)"/>
     <use xlink:href="#LiberationSans-20" transform="translate(680.818359 0)"/>
     <use xlink:href="#LiberationSans-74" transform="translate(708.601562 0)"/>
     <use xlink:href="#LiberationSans-65" transform="translate(736.384766 0)"/>
     <use xlink:href="#LiberationSans-72" transform="translate(792 0)"/>
     <use xlink:href="#LiberationSans-6e" transform="translate(825.300781 0)"/>
     <use xlink:href="#LiberationSans-61" transform="translate(880.916016 0)"/>
     <use xlink:href="#LiberationSans-72" transform="translate(936.53125 0)"/>
     <use xlink:href="#LiberationSans-79" transform="translate(969.832031 0)"/>
     <use xlink:href="#LiberationSans-20" transform="translate(1019.832031 0)"/>
     <use xlink:href="#LiberationSans-71" transform="translate(1047.615234 0)"/>
     <use xlink:href="#LiberationSans-75" transform="translate(1103.230469 0)"/>
     <use xlink:href="#LiberationSans-61" transform="translate(1158.845703 0)"/>
     <use xlink:href="#LiberationSans-6e" transform="translate(1214.460938 0)"/>
     <use xlink:href="#LiberationSans-74" transform="translate(1270.076172 0)"/>
     <use xlink:href="#LiberationSans-69" transform="translate(1297.859375 0)"/>
     <use xlink:href="#LiberationSans-7a" transform="translate(1320.076172 0)"/>
     <use xlink:href="#LiberationSans-61" transform="translate(1370.076172 0)"/>
     <use xlink:href="#LiberationSans-74" transform="translate(1425.691406 0)"/>
     <use xlink:href="#LiberationSans-69" transform="translate(1453.474609 0)"/>
     <use xlink:href="#LiberationSans-6f" transform="translate(1475.691406 0)"/>
     <use xlink:href="#LiberationSans-6e" transform="translate(1531.306641 0)"/>
    </g>
    <!-- prevented gradient flow -->
    <g style="fill: #262626" transform="translate(368.88 179.345406) scale(0.09 -0.09)">
     <defs>
      <path id="LiberationSans-70" d="M 3291 1706 
Q 3291 -63 2047 -63 
Q 1266 -63 997 525 
L 981 525 
Q 994 500 994 -6 
L 994 -1328 
L 431 -1328 
L 431 2691 
Q 431 3213 413 3381 
L 956 3381 
Q 959 3369 965 3292 
Q 972 3216 980 3056 
Q 988 2897 988 2838 
L 1000 2838 
Q 1150 3150 1397 3295 
Q 1644 3441 2047 3441 
Q 2672 3441 2981 3022 
Q 3291 2603 3291 1706 
z
M 2700 1694 
Q 2700 2400 2509 2703 
Q 2319 3006 1903 3006 
Q 1569 3006 1380 2865 
Q 1191 2725 1092 2426 
Q 994 2128 994 1650 
Q 994 984 1206 668 
Q 1419 353 1897 353 
Q 2316 353 2508 661 
Q 2700 969 2700 1694 
z
" transform="scale(0.015625)"/>
      <path id="LiberationSans-76" d="M 1916 0 
L 1250 0 
L 22 3381 
L 622 3381 
L 1366 1181 
Q 1406 1056 1581 441 
L 1691 806 
L 1813 1175 
L 2581 3381 
L 3178 3381 
L 1916 0 
z
" transform="scale(0.015625)"/>
      <path id="LiberationSans-67" d="M 1713 -1328 
Q 1159 -1328 831 -1111 
Q 503 -894 409 -494 
L 975 -413 
Q 1031 -647 1223 -773 
Q 1416 -900 1728 -900 
Q 2569 -900 2569 84 
L 2569 628 
L 2563 628 
Q 2403 303 2125 139 
Q 1847 -25 1475 -25 
Q 853 -25 561 387 
Q 269 800 269 1684 
Q 269 2581 583 3007 
Q 897 3434 1538 3434 
Q 1897 3434 2161 3270 
Q 2425 3106 2569 2803 
L 2575 2803 
Q 2575 2897 2587 3128 
Q 2600 3359 2613 3381 
L 3147 3381 
Q 3128 3213 3128 2681 
L 3128 97 
Q 3128 -1328 1713 -1328 
z
M 2569 1691 
Q 2569 2103 2456 2401 
Q 2344 2700 2139 2858 
Q 1934 3016 1675 3016 
Q 1244 3016 1047 2703 
Q 850 2391 850 1691 
Q 850 997 1034 694 
Q 1219 391 1666 391 
Q 1931 391 2137 547 
Q 2344 703 2456 995 
Q 2569 1288 2569 1691 
z
" transform="scale(0.015625)"/>
      <path id="LiberationSans-66" d="M 1128 2972 
L 1128 0 
L 566 0 
L 566 2972 
L 91 2972 
L 91 3381 
L 566 3381 
L 566 3763 
Q 566 4225 769 4428 
Q 972 4631 1391 4631 
Q 1625 4631 1788 4594 
L 1788 4166 
Q 1647 4191 1538 4191 
Q 1322 4191 1225 4081 
Q 1128 3972 1128 3684 
L 1128 3381 
L 1788 3381 
L 1788 2972 
L 1128 2972 
z
" transform="scale(0.015625)"/>
      <path id="LiberationSans-6c" d="M 431 0 
L 431 4638 
L 994 4638 
L 994 0 
L 431 0 
z
" transform="scale(0.015625)"/>
      <path id="LiberationSans-77" d="M 3669 0 
L 3016 0 
L 2425 2391 
L 2313 2919 
Q 2284 2778 2225 2514 
Q 2166 2250 1588 0 
L 938 0 
L -9 3381 
L 547 3381 
L 1119 1084 
Q 1141 1009 1253 466 
L 1306 697 
L 2013 3381 
L 2616 3381 
L 3206 1059 
L 3350 466 
L 3447 900 
L 4088 3381 
L 4638 3381 
L 3669 0 
z
" transform="scale(0.015625)"/>
     </defs>
     <use xlink:href="#LiberationSans-70"/>
     <use xlink:href="#LiberationSans-72" transform="translate(55.615234 0)"/>
     <use xlink:href="#LiberationSans-65" transform="translate(88.916016 0)"/>
     <use xlink:href="#LiberationSans-76" transform="translate(144.53125 0)"/>
     <use xlink:href="#LiberationSans-65" transform="translate(194.53125 0)"/>
     <use xlink:href="#LiberationSans-6e" transform="translate(250.146484 0)"/>
     <use xlink:href="#LiberationSans-74" transform="translate(305.761719 0)"/>
     <use xlink:href="#LiberationSans-65" transform="translate(333.544922 0)"/>
     <use xlink:href="#LiberationSans-64" transform="translate(389.160156 0)"/>
     <use xlink:href="#LiberationSans-20" transform="translate(444.775391 0)"/>
     <use xlink:href="#LiberationSans-67" transform="translate(472.558594 0)"/>
     <use xlink:href="#LiberationSans-72" transform="translate(528.173828 0)"/>
     <use xlink:href="#LiberationSans-61" transform="translate(561.474609 0)"/>
     <use xlink:href="#LiberationSans-64" transform="translate(617.089844 0)"/>
     <use xlink:href="#LiberationSans-69" transform="translate(672.705078 0)"/>
     <use xlink:href="#LiberationSans-65" transform="translate(694.921875 0)"/>
     <use xlink:href="#LiberationSans-6e" transform="translate(750.537109 0)"/>
     <use xlink:href="#LiberationSans-74" transform="translate(806.152344 0)"/>
     <use xlink:href="#LiberationSans-20" transform="translate(833.935547 0)"/>
     <use xlink:href="#LiberationSans-66" transform="translate(861.71875 0)"/>
     <use xlink:href="#LiberationSans-6c" transform="translate(889.501953 0)"/>
     <use xlink:href="#LiberationSans-6f" transform="translate(911.71875 0)"/>
     <use xlink:href="#LiberationSans-77" transform="translate(967.333984 0)"/>
    </g>
   </g>
   <g id="text_3">
    <!-- Use Standard Adam -->
    <g style="fill: #262626" transform="translate(131.327812 223.001681) scale(0.09 -0.09)">
     <defs>
      <path id="LiberationSans-55" d="M 2284 -63 
Q 1744 -63 1341 134 
Q 938 331 716 706 
Q 494 1081 494 1600 
L 494 4403 
L 1091 4403 
L 1091 1650 
Q 1091 1047 1397 734 
Q 1703 422 2281 422 
Q 2875 422 3204 745 
Q 3534 1069 3534 1691 
L 3534 4403 
L 4128 4403 
L 4128 1656 
Q 4128 1122 3901 734 
Q 3675 347 3261 142 
Q 2847 -63 2284 -63 
z
" transform="scale(0.015625)"/>
      <path id="LiberationSans-73" d="M 2969 934 
Q 2969 456 2608 196 
Q 2247 -63 1597 -63 
Q 966 -63 623 145 
Q 281 353 178 794 
L 675 891 
Q 747 619 972 492 
Q 1197 366 1597 366 
Q 2025 366 2223 497 
Q 2422 628 2422 891 
Q 2422 1091 2284 1216 
Q 2147 1341 1841 1422 
L 1438 1528 
Q 953 1653 748 1773 
Q 544 1894 428 2066 
Q 313 2238 313 2488 
Q 313 2950 642 3192 
Q 972 3434 1603 3434 
Q 2163 3434 2492 3237 
Q 2822 3041 2909 2606 
L 2403 2544 
Q 2356 2769 2151 2889 
Q 1947 3009 1603 3009 
Q 1222 3009 1040 2893 
Q 859 2778 859 2544 
Q 859 2400 934 2306 
Q 1009 2213 1156 2147 
Q 1303 2081 1775 1966 
Q 2222 1853 2419 1758 
Q 2616 1663 2730 1547 
Q 2844 1431 2906 1279 
Q 2969 1128 2969 934 
z
" transform="scale(0.015625)"/>
      <path id="LiberationSans-53" d="M 3975 1216 
Q 3975 606 3498 271 
Q 3022 -63 2156 -63 
Q 547 -63 291 1056 
L 869 1172 
Q 969 775 1294 589 
Q 1619 403 2178 403 
Q 2756 403 3070 601 
Q 3384 800 3384 1184 
Q 3384 1400 3286 1534 
Q 3188 1669 3009 1756 
Q 2831 1844 2584 1903 
Q 2338 1963 2038 2031 
Q 1516 2147 1245 2262 
Q 975 2378 819 2520 
Q 663 2663 580 2853 
Q 497 3044 497 3291 
Q 497 3856 930 4162 
Q 1363 4469 2169 4469 
Q 2919 4469 3316 4239 
Q 3713 4009 3872 3456 
L 3284 3353 
Q 3188 3703 2916 3861 
Q 2644 4019 2163 4019 
Q 1634 4019 1356 3844 
Q 1078 3669 1078 3322 
Q 1078 3119 1186 2986 
Q 1294 2853 1497 2761 
Q 1700 2669 2306 2534 
Q 2509 2488 2711 2439 
Q 2913 2391 3097 2323 
Q 3281 2256 3442 2165 
Q 3603 2075 3722 1944 
Q 3841 1813 3908 1634 
Q 3975 1456 3975 1216 
z
" transform="scale(0.015625)"/>
     </defs>
     <use xlink:href="#LiberationSans-55"/>
     <use xlink:href="#LiberationSans-73" transform="translate(72.216797 0)"/>
     <use xlink:href="#LiberationSans-65" transform="translate(122.216797 0)"/>
     <use xlink:href="#LiberationSans-20" transform="translate(177.832031 0)"/>
     <use xlink:href="#LiberationSans-53" transform="translate(205.615234 0)"/>
     <use xlink:href="#LiberationSans-74" transform="translate(272.314453 0)"/>
     <use xlink:href="#LiberationSans-61" transform="translate(300.097656 0)"/>
     <use xlink:href="#LiberationSans-6e" transform="translate(355.712891 0)"/>
     <use xlink:href="#LiberationSans-64" transform="translate(411.328125 0)"/>
     <use xlink:href="#LiberationSans-61" transform="translate(466.943359 0)"/>
     <use xlink:href="#LiberationSans-72" transform="translate(522.558594 0)"/>
     <use xlink:href="#LiberationSans-64" transform="translate(555.859375 0)"/>
     <use xlink:href="#LiberationSans-20" transform="translate(611.474609 0)"/>
     <use xlink:href="#LiberationSans-41" transform="translate(633.757812 0)"/>
     <use xlink:href="#LiberationSans-64" transform="translate(700.457031 0)"/>
     <use xlink:href="#LiberationSans-61" transform="translate(756.072266 0)"/>
     <use xlink:href="#LiberationSans-6d" transform="translate(811.6875 0)"/>
    </g>
    <!-- Disable quantization during training -->
    <g style="fill: #262626" transform="translate(101.31 232.695806) scale(0.09 -0.09)">
     <defs>
      <path id="LiberationSans-44" d="M 4316 2247 
Q 4316 1566 4050 1055 
Q 3784 544 3296 272 
Q 2809 0 2172 0 
L 525 0 
L 525 4403 
L 1981 4403 
Q 3100 4403 3708 3842 
Q 4316 3281 4316 2247 
z
M 3716 2247 
Q 3716 3066 3267 3495 
Q 2819 3925 1969 3925 
L 1122 3925 
L 1122 478 
L 2103 478 
Q 2588 478 2955 690 
Q 3322 903 3519 1303 
Q 3716 1703 3716 2247 
z
" transform="scale(0.015625)"/>
      <path id="LiberationSans-62" d="M 3291 1706 
Q 3291 -63 2047 -63 
Q 1663 -63 1408 76 
Q 1153 216 994 525 
L 988 525 
Q 988 428 975 229 
Q 963 31 956 0 
L 413 0 
Q 431 169 431 697 
L 431 4638 
L 994 4638 
L 994 3316 
Q 994 3113 981 2838 
L 994 2838 
Q 1150 3163 1408 3303 
Q 1666 3444 2047 3444 
Q 2688 3444 2989 3012 
Q 3291 2581 3291 1706 
z
M 2700 1688 
Q 2700 2397 2512 2703 
Q 2325 3009 1903 3009 
Q 1428 3009 1211 2684 
Q 994 2359 994 1653 
Q 994 988 1206 670 
Q 1419 353 1897 353 
Q 2322 353 2511 667 
Q 2700 981 2700 1688 
z
" transform="scale(0.015625)"/>
     </defs>
     <use xlink:href="#LiberationSans-44"/>
     <use xlink:href="#LiberationSans-69" transform="translate(72.216797 0)"/>
     <use xlink:href="#LiberationSans-73" transform="translate(94.433594 0)"/>
     <use xlink:href="#LiberationSans-61" transform="translate(144.433594 0)"/>
     <use xlink:href="#LiberationSans-62" transform="translate(200.048828 0)"/>
     <use xlink:href="#LiberationSans-6c" transform="translate(255.664062 0)"/>
     <use xlink:href="#LiberationSans-65" transform="translate(277.880859 0)"/>
     <use xlink:href="#LiberationSans-20" transform="translate(333.496094 0)"/>
     <use xlink:href="#LiberationSans-71" transform="translate(361.279297 0)"/>
     <use xlink:href="#LiberationSans-75" transform="translate(416.894531 0)"/>
     <use xlink:href="#LiberationSans-61" transform="translate(472.509766 0)"/>
     <use xlink:href="#LiberationSans-6e" transform="translate(528.125 0)"/>
     <use xlink:href="#LiberationSans-74" transform="translate(583.740234 0)"/>
     <use xlink:href="#LiberationSans-69" transform="translate(611.523438 0)"/>
     <use xlink:href="#LiberationSans-7a" transform="translate(633.740234 0)"/>
     <use xlink:href="#LiberationSans-61" transform="translate(683.740234 0)"/>
     <use xlink:href="#LiberationSans-74" transform="translate(739.355469 0)"/>
     <use xlink:href="#LiberationSans-69" transform="translate(767.138672 0)"/>
     <use xlink:href="#LiberationSans-6f" transform="translate(789.355469 0)"/>
     <use xlink:href="#LiberationSans-6e" transform="translate(844.970703 0)"/>
     <use xlink:href="#LiberationSans-20" transform="translate(900.585938 0)"/>
     <use xlink:href="#LiberationSans-64" transform="translate(928.369141 0)"/>
     <use xlink:href="#LiberationSans-75" transform="translate(983.984375 0)"/>
     <use xlink:href="#LiberationSans-72" transform="translate(1039.599609 0)"/>
     <use xlink:href="#LiberationSans-69" transform="translate(1072.900391 0)"/>
     <use xlink:href="#LiberationSans-6e" transform="translate(1095.117188 0)"/>
     <use xlink:href="#LiberationSans-67" transform="translate(1150.732422 0)"/>
     <use xlink:href="#LiberationSans-20" transform="translate(1206.347656 0)"/>
     <use xlink:href="#LiberationSans-74" transform="translate(1234.130859 0)"/>
     <use xlink:href="#LiberationSans-72" transform="translate(1261.914062 0)"/>
     <use xlink:href="#LiberationSans-61" transform="translate(1295.214844 0)"/>
     <use xlink:href="#LiberationSans-69" transform="translate(1350.830078 0)"/>
     <use xlink:href="#LiberationSans-6e" transform="translate(1373.046875 0)"/>
     <use xlink:href="#LiberationSans-69" transform="translate(1428.662109 0)"/>
     <use xlink:href="#LiberationSans-6e" transform="translate(1450.878906 0)"/>
     <use xlink:href="#LiberationSans-67" transform="translate(1506.494141 0)"/>
    </g>
   </g>
   <g id="text_4">
    <!-- API Pagination Limited -->
    <g style="fill: #262626" transform="translate(111.710156 308.367469) scale(0.11 -0.11)">
     <defs>
      <path id="LiberationSans-Bold-41" d="M 3541 0 
L 3150 1125 
L 1472 1125 
L 1081 0 
L 159 0 
L 1766 4403 
L 2853 4403 
L 4453 0 
L 3541 0 
z
M 2309 3725 
L 2291 3656 
Q 2259 3544 2215 3400 
Q 2172 3256 1678 1819 
L 2944 1819 
L 2509 3084 
L 2375 3509 
L 2309 3725 
z
" transform="scale(0.015625)"/>
      <path id="LiberationSans-Bold-50" d="M 4050 3009 
Q 4050 2584 3856 2250 
Q 3663 1916 3302 1733 
Q 2941 1550 2444 1550 
L 1350 1550 
L 1350 0 
L 428 0 
L 428 4403 
L 2406 4403 
Q 3197 4403 3623 4039 
Q 4050 3675 4050 3009 
z
M 3122 2994 
Q 3122 3688 2303 3688 
L 1350 3688 
L 1350 2259 
L 2328 2259 
Q 2709 2259 2915 2448 
Q 3122 2638 3122 2994 
z
" transform="scale(0.015625)"/>
      <path id="LiberationSans-Bold-49" d="M 428 0 
L 428 4403 
L 1350 4403 
L 1350 0 
L 428 0 
z
" transform="scale(0.015625)"/>
      <path id="LiberationSans-Bold-6d" d="M 2438 0 
L 2438 1897 
Q 2438 2788 1925 2788 
Q 1659 2788 1492 2516 
Q 1325 2244 1325 1813 
L 1325 0 
L 447 0 
L 447 2625 
Q 447 2897 439 3070 
Q 431 3244 422 3381 
L 1259 3381 
Q 1269 3322 1284 3064 
Q 1300 2806 1300 2709 
L 1313 2709 
Q 1475 3097 1717 3272 
Q 1959 3447 2297 3447 
Q 3072 3447 3238 2709 
L 3256 2709 
Q 3428 3103 3668 3275 
Q 3909 3447 4281 3447 
Q 4775 3447 5034 3111 
Q 5294 2775 5294 2147 
L 5294 0 
L 4422 0 
L 4422 1897 
Q 4422 2788 3909 2788 
Q 3653 2788 3489 2539 
Q 3325 2291 3309 1853 
L 3309 0 
L 2438 0 
z
" transform="scale(0.015625)"/>
      <path id="LiberationSans-Bold-64" d="M 2638 0 
Q 2625 47 2608 236 
Q 2591 425 2591 550 
L 2578 550 
Q 2294 -63 1497 -63 
Q 906 -63 584 398 
Q 263 859 263 1688 
Q 263 2528 602 2986 
Q 941 3444 1563 3444 
Q 1922 3444 2183 3294 
Q 2444 3144 2584 2847 
L 2591 2847 
L 2584 3403 
L 2584 4638 
L 3463 4638 
L 3463 738 
Q 3463 425 3488 0 
L 2638 0 
z
M 2597 1709 
Q 2597 2256 2414 2551 
Q 2231 2847 1875 2847 
Q 1522 2847 1350 2561 
Q 1178 2275 1178 1688 
Q 1178 538 1869 538 
Q 2216 538 2406 842 
Q 2597 1147 2597 1709 
z
" transform="scale(0.015625)"/>
     </defs>
     <use xlink:href="#LiberationSans-Bold-41"/>
     <use xlink:href="#LiberationSans-Bold-50" transform="translate(72.216797 0)"/>
     <use xlink:href="#LiberationSans-Bold-49" transform="translate(138.916016 0)"/>
     <use xlink:href="#LiberationSans-Bold-20" transform="translate(166.699219 0)"/>
     <use xlink:href="#LiberationSans-Bold-50" transform="translate(194.482422 0)"/>
     <use xlink:href="#LiberationSans-Bold-61" transform="translate(261.181641 0)"/>
     <use xlink:href="#LiberationSans-Bold-67" transform="translate(316.796875 0)"/>
     <use xlink:href="#LiberationSans-Bold-69" transform="translate(377.880859 0)"/>
     <use xlink:href="#LiberationSans-Bold-6e" transform="translate(405.664062 0)"/>
     <use xlink:href="#LiberationSans-Bold-61" transform="translate(466.748047 0)"/>
     <use xlink:href="#LiberationSans-Bold-74" transform="translate(522.363281 0)"/>
     <use xlink:href="#LiberationSans-Bold-69" transform="translate(555.664062 0)"/>
     <use xlink:href="#LiberationSans-Bold-6f" transform="translate(583.447266 0)"/>
     <use xlink:href="#LiberationSans-Bold-6e" transform="translate(644.53125 0)"/>
     <use xlink:href="#LiberationSans-Bold-20" transform="translate(705.615234 0)"/>
     <use xlink:href="#LiberationSans-Bold-4c" transform="translate(733.398438 0)"/>
     <use xlink:href="#LiberationSans-Bold-69" transform="translate(794.482422 0)"/>
     <use xlink:href="#LiberationSans-Bold-6d" transform="translate(822.265625 0)"/>
     <use xlink:href="#LiberationSans-Bold-69" transform="translate(911.181641 0)"/>
     <use xlink:href="#LiberationSans-Bold-74" transform="translate(938.964844 0)"/>
     <use xlink:href="#LiberationSans-Bold-65" transform="translate(972.265625 0)"/>
     <use xlink:href="#LiberationSans-Bold-64" transform="translate(1027.880859 0)"/>
    </g>
   </g>
   <g id="text_5">
    <!-- Hedera mirror node limited to -->
    <g style="fill: #262626" transform="translate(368.88 303.027281) scale(0.09 -0.09)">
     <defs>
      <path id="LiberationSans-48" d="M 3503 0 
L 3503 2041 
L 1122 2041 
L 1122 0 
L 525 0 
L 525 4403 
L 1122 4403 
L 1122 2541 
L 3503 2541 
L 3503 4403 
L 4100 4403 
L 4100 0 
L 3503 0 
z
" transform="scale(0.015625)"/>
     </defs>
     <use xlink:href="#LiberationSans-48"/>
     <use xlink:href="#LiberationSans-65" transform="translate(72.216797 0)"/>
     <use xlink:href="#LiberationSans-64" transform="translate(127.832031 0)"/>
     <use xlink:href="#LiberationSans-65" transform="translate(183.447266 0)"/>
     <use xlink:href="#LiberationSans-72" transform="translate(239.0625 0)"/>
     <use xlink:href="#LiberationSans-61" transform="translate(272.363281 0)"/>
     <use xlink:href="#LiberationSans-20" transform="translate(327.978516 0)"/>
     <use xlink:href="#LiberationSans-6d" transform="translate(355.761719 0)"/>
     <use xlink:href="#LiberationSans-69" transform="translate(439.0625 0)"/>
     <use xlink:href="#LiberationSans-72" transform="translate(461.279297 0)"/>
     <use xlink:href="#LiberationSans-72" transform="translate(494.580078 0)"/>
     <use xlink:href="#LiberationSans-6f" transform="translate(527.880859 0)"/>
     <use xlink:href="#LiberationSans-72" transform="translate(583.496094 0)"/>
     <use xlink:href="#LiberationSans-20" transform="translate(616.796875 0)"/>
     <use xlink:href="#LiberationSans-6e" transform="translate(644.580078 0)"/>
     <use xlink:href="#LiberationSans-6f" transform="translate(700.195312 0)"/>
     <use xlink:href="#LiberationSans-64" transform="translate(755.810547 0)"/>
     <use xlink:href="#LiberationSans-65" transform="translate(811.425781 0)"/>
     <use xlink:href="#LiberationSans-20" transform="translate(867.041016 0)"/>
     <use xlink:href="#LiberationSans-6c" transform="translate(894.824219 0)"/>
     <use xlink:href="#LiberationSans-69" transform="translate(917.041016 0)"/>
     <use xlink:href="#LiberationSans-6d" transform="translate(939.257812 0)"/>
     <use xlink:href="#LiberationSans-69" transform="translate(1022.558594 0)"/>
     <use xlink:href="#LiberationSans-74" transform="translate(1044.775391 0)"/>
     <use xlink:href="#LiberationSans-65" transform="translate(1072.558594 0)"/>
     <use xlink:href="#LiberationSans-64" transform="translate(1128.173828 0)"/>
     <use xlink:href="#LiberationSans-20" transform="translate(1183.789062 0)"/>
     <use xlink:href="#LiberationSans-74" transform="translate(1211.572266 0)"/>
     <use xlink:href="#LiberationSans-6f" transform="translate(1239.355469 0)"/>
    </g>
    <!-- 100 transactions per request -->
    <g style="fill: #262626" transform="translate(368.88 312.721406) scale(0.09 -0.09)">
     <defs>
      <path id="LiberationSans-31" d="M 488 0 
L 488 478 
L 1609 478 
L 1609 3866 
L 616 3156 
L 616 3688 
L 1656 4403 
L 2175 4403 
L 2175 478 
L 3247 478 
L 3247 0 
L 488 0 
z
" transform="scale(0.015625)"/>
      <path id="LiberationSans-30" d="M 3309 2203 
Q 3309 1100 2920 518 
Q 2531 -63 1772 -63 
Q 1013 -63 631 515 
Q 250 1094 250 2203 
Q 250 3338 620 3903 
Q 991 4469 1791 4469 
Q 2569 4469 2939 3897 
Q 3309 3325 3309 2203 
z
M 2738 2203 
Q 2738 3156 2517 3584 
Q 2297 4013 1791 4013 
Q 1272 4013 1045 3591 
Q 819 3169 819 2203 
Q 819 1266 1048 831 
Q 1278 397 1778 397 
Q 2275 397 2506 840 
Q 2738 1284 2738 2203 
z
" transform="scale(0.015625)"/>
      <path id="LiberationSans-63" d="M 859 1706 
Q 859 1031 1071 706 
Q 1284 381 1713 381 
Q 2013 381 2214 543 
Q 2416 706 2463 1044 
L 3031 1006 
Q 2966 519 2616 228 
Q 2266 -63 1728 -63 
Q 1019 -63 645 385 
Q 272 834 272 1694 
Q 272 2547 647 2995 
Q 1022 3444 1722 3444 
Q 2241 3444 2583 3175 
Q 2925 2906 3013 2434 
L 2434 2391 
Q 2391 2672 2212 2837 
Q 2034 3003 1706 3003 
Q 1259 3003 1059 2706 
Q 859 2409 859 1706 
z
" transform="scale(0.015625)"/>
     </defs>
     <use xlink:href="#LiberationSans-31"/>
     <use xlink:href="#LiberationSans-30" transform="translate(55.615234 0)"/>
     <use xlink:href="#LiberationSans-30" transform="translate(111.230469 0)"/>
     <use xlink:href="#LiberationSans-20" transform="translate(166.845703 0)"/>
     <use xlink:href="#LiberationSans-74" transform="translate(194.628906 0)"/>
     <use xlink:href="#LiberationSans-72" transform="translate(222.412109 0)"/>
     <use xlink:href="#LiberationSans-61" transform="translate(255.712891 0)"/>
     <use xlink:href="#LiberationSans-6e" transform="translate(311.328125 0)"/>
     <use xlink:href="#LiberationSans-73" transform="translate(366.943359 0)"/>
     <use xlink:href="#LiberationSans-61" transform="translate(416.943359 0)"/>
     <use xlink:href="#LiberationSans-63" transform="translate(472.558594 0)"/>
     <use xlink:href="#LiberationSans-74" transform="translate(522.558594 0)"/>
     <use xlink:href="#LiberationSans-69" transform="translate(550.341797 0)"/>
     <use xlink:href="#LiberationSans-6f" transform="translate(572.558594 0)"/>
     <use xlink:href="#LiberationSans-6e" transform="translate(628.173828 0)"/>
     <use xlink:href="#LiberationSans-73" transform="translate(683.789062 0)"/>
     <use xlink:href="#LiberationSans-20" transform="translate(733.789062 0)"/>
     <use xlink:href="#LiberationSans-70" transform="translate(761.572266 0)"/>
     <use xlink:href="#LiberationSans-65" transform="translate(817.1875 0)"/>
     <use xlink:href="#LiberationSans-72" transform="translate(872.802734 0)"/>
     <use xlink:href="#LiberationSans-20" transform="translate(906.103516 0)"/>
     <use xlink:href="#LiberationSans-72" transform="translate(933.886719 0)"/>
     <use xlink:href="#LiberationSans-65" transform="translate(967.1875 0)"/>
     <use xlink:href="#LiberationSans-71" transform="translate(1022.802734 0)"/>
     <use xlink:href="#LiberationSans-75" transform="translate(1078.417969 0)"/>
     <use xlink:href="#LiberationSans-65" transform="translate(1134.033203 0)"/>
     <use xlink:href="#LiberationSans-73" transform="translate(1189.648438 0)"/>
     <use xlink:href="#LiberationSans-74" transform="translate(1239.648438 0)"/>
    </g>
   </g>
   <g id="text_6">
    <!-- Use Hedera SDK -->
    <g style="fill: #262626" transform="translate(137.086406 356.377681) scale(0.09 -0.09)">
     <defs>
      <path id="LiberationSans-4b" d="M 3456 0 
L 1697 2125 
L 1122 1688 
L 1122 0 
L 525 0 
L 525 4403 
L 1122 4403 
L 1122 2197 
L 3244 4403 
L 3947 4403 
L 2072 2491 
L 4197 0 
L 3456 0 
z
" transform="scale(0.015625)"/>
     </defs>
     <use xlink:href="#LiberationSans-55"/>
     <use xlink:href="#LiberationSans-73" transform="translate(72.216797 0)"/>
     <use xlink:href="#LiberationSans-65" transform="translate(122.216797 0)"/>
     <use xlink:href="#LiberationSans-20" transform="translate(177.832031 0)"/>
     <use xlink:href="#LiberationSans-48" transform="translate(205.615234 0)"/>
     <use xlink:href="#LiberationSans-65" transform="translate(277.832031 0)"/>
     <use xlink:href="#LiberationSans-64" transform="translate(333.447266 0)"/>
     <use xlink:href="#LiberationSans-65" transform="translate(389.0625 0)"/>
     <use xlink:href="#LiberationSans-72" transform="translate(444.677734 0)"/>
     <use xlink:href="#LiberationSans-61" transform="translate(477.978516 0)"/>
     <use xlink:href="#LiberationSans-20" transform="translate(533.59375 0)"/>
     <use xlink:href="#LiberationSans-53" transform="translate(561.376953 0)"/>
     <use xlink:href="#LiberationSans-44" transform="translate(628.076172 0)"/>
     <use xlink:href="#LiberationSans-4b" transform="translate(700.292969 0)"/>
    </g>
    <!-- Set up local mirror node -->
    <g style="fill: #262626" transform="translate(123.830391 366.071806) scale(0.09 -0.09)">
     <use xlink:href="#LiberationSans-53"/>
     <use xlink:href="#LiberationSans-65" transform="translate(66.699219 0)"/>
     <use xlink:href="#LiberationSans-74" transform="translate(122.314453 0)"/>
     <use xlink:href="#LiberationSans-20" transform="translate(150.097656 0)"/>
     <use xlink:href="#LiberationSans-75" transform="translate(177.880859 0)"/>
     <use xlink:href="#LiberationSans-70" transform="translate(233.496094 0)"/>
     <use xlink:href="#LiberationSans-20" transform="translate(289.111328 0)"/>
     <use xlink:href="#LiberationSans-6c" transform="translate(316.894531 0)"/>
     <use xlink:href="#LiberationSans-6f" transform="translate(339.111328 0)"/>
     <use xlink:href="#LiberationSans-63" transform="translate(394.726562 0)"/>
     <use xlink:href="#LiberationSans-61" transform="translate(444.726562 0)"/>
     <use xlink:href="#LiberationSans-6c" transform="translate(500.341797 0)"/>
     <use xlink:href="#LiberationSans-20" transform="translate(522.558594 0)"/>
     <use xlink:href="#LiberationSans-6d" transform="translate(550.341797 0)"/>
     <use xlink:href="#LiberationSans-69" transform="translate(633.642578 0)"/>
     <use xlink:href="#LiberationSans-72" transform="translate(655.859375 0)"/>
     <use xlink:href="#LiberationSans-72" transform="translate(689.160156 0)"/>
     <use xlink:href="#LiberationSans-6f" transform="translate(722.460938 0)"/>
     <use xlink:href="#LiberationSans-72" transform="translate(778.076172 0)"/>
     <use xlink:href="#LiberationSans-20" transform="translate(811.376953 0)"/>
     <use xlink:href="#LiberationSans-6e" transform="translate(839.160156 0)"/>
     <use xlink:href="#LiberationSans-6f" transform="translate(894.775391 0)"/>
     <use xlink:href="#LiberationSans-64" transform="translate(950.390625 0)"/>
     <use xlink:href="#LiberationSans-65" transform="translate(1006.005859 0)"/>
    </g>
   </g>
   <g id="text_7">
    <!-- Class Imbalance -->
    <g style="fill: #262626" transform="translate(128.497187 441.767531) scale(0.11 -0.11)">
     <defs>
      <path id="LiberationSans-Bold-43" d="M 2484 663 
Q 3319 663 3644 1500 
L 4447 1197 
Q 4188 559 3686 248 
Q 3184 -63 2484 -63 
Q 1422 -63 842 539 
Q 263 1141 263 2222 
Q 263 3306 822 3887 
Q 1381 4469 2444 4469 
Q 3219 4469 3706 4158 
Q 4194 3847 4391 3244 
L 3578 3022 
Q 3475 3353 3173 3548 
Q 2872 3744 2463 3744 
Q 1838 3744 1514 3356 
Q 1191 2969 1191 2222 
Q 1191 1463 1523 1063 
Q 1856 663 2484 663 
z
" transform="scale(0.015625)"/>
      <path id="LiberationSans-Bold-62" d="M 3647 1703 
Q 3647 866 3311 401 
Q 2975 -63 2350 -63 
Q 1991 -63 1728 93 
Q 1466 250 1325 544 
L 1319 544 
Q 1319 434 1305 243 
Q 1291 53 1275 0 
L 422 0 
Q 447 291 447 772 
L 447 4638 
L 1325 4638 
L 1325 3344 
L 1313 2794 
L 1325 2794 
Q 1622 3444 2406 3444 
Q 3006 3444 3326 2989 
Q 3647 2534 3647 1703 
z
M 2731 1703 
Q 2731 2278 2562 2556 
Q 2394 2834 2041 2834 
Q 1684 2834 1498 2536 
Q 1313 2238 1313 1675 
Q 1313 1138 1495 838 
Q 1678 538 2034 538 
Q 2731 538 2731 1703 
z
" transform="scale(0.015625)"/>
     </defs>
     <use xlink:href="#LiberationSans-Bold-43"/>
     <use xlink:href="#LiberationSans-Bold-6c" transform="translate(72.216797 0)"/>
     <use xlink:href="#LiberationSans-Bold-61" transform="translate(100 0)"/>
     <use xlink:href="#LiberationSans-Bold-73" transform="translate(155.615234 0)"/>
     <use xlink:href="#LiberationSans-Bold-73" transform="translate(211.230469 0)"/>
     <use xlink:href="#LiberationSans-Bold-20" transform="translate(266.845703 0)"/>
     <use xlink:href="#LiberationSans-Bold-49" transform="translate(294.628906 0)"/>
     <use xlink:href="#LiberationSans-Bold-6d" transform="translate(322.412109 0)"/>
     <use xlink:href="#LiberationSans-Bold-62" transform="translate(411.328125 0)"/>
     <use xlink:href="#LiberationSans-Bold-61" transform="translate(472.412109 0)"/>
     <use xlink:href="#LiberationSans-Bold-6c" transform="translate(528.027344 0)"/>
     <use xlink:href="#LiberationSans-Bold-61" transform="translate(555.810547 0)"/>
     <use xlink:href="#LiberationSans-Bold-6e" transform="translate(611.425781 0)"/>
     <use xlink:href="#LiberationSans-Bold-63" transform="translate(672.509766 0)"/>
     <use xlink:href="#LiberationSans-Bold-65" transform="translate(728.125 0)"/>
    </g>
   </g>
   <g id="text_8">
    <!-- 79% CONSENSUSSUBMITMESSAGE -->
    <g style="fill: #262626" transform="translate(368.88 436.403281) scale(0.09 -0.09)">
     <defs>
      <path id="LiberationSans-37" d="M 3238 3947 
Q 2563 2916 2284 2331 
Q 2006 1747 1867 1178 
Q 1728 609 1728 0 
L 1141 0 
Q 1141 844 1498 1776 
Q 1856 2709 2694 3925 
L 328 3925 
L 328 4403 
L 3238 4403 
L 3238 3947 
z
" transform="scale(0.015625)"/>
      <path id="LiberationSans-39" d="M 3256 2291 
Q 3256 1156 2842 546 
Q 2428 -63 1663 -63 
Q 1147 -63 836 154 
Q 525 372 391 856 
L 928 941 
Q 1097 391 1672 391 
Q 2156 391 2422 841 
Q 2688 1291 2700 2125 
Q 2575 1844 2272 1673 
Q 1969 1503 1606 1503 
Q 1013 1503 656 1909 
Q 300 2316 300 2988 
Q 300 3678 687 4073 
Q 1075 4469 1766 4469 
Q 2500 4469 2878 3925 
Q 3256 3381 3256 2291 
z
M 2644 2834 
Q 2644 3366 2400 3689 
Q 2156 4013 1747 4013 
Q 1341 4013 1106 3736 
Q 872 3459 872 2988 
Q 872 2506 1106 2226 
Q 1341 1947 1741 1947 
Q 1984 1947 2193 2058 
Q 2403 2169 2523 2372 
Q 2644 2575 2644 2834 
z
" transform="scale(0.015625)"/>
      <path id="LiberationSans-25" d="M 5463 1356 
Q 5463 684 5209 323 
Q 4956 -38 4463 -38 
Q 3975 -38 3726 314 
Q 3478 666 3478 1356 
Q 3478 2069 3717 2417 
Q 3956 2766 4475 2766 
Q 4988 2766 5225 2408 
Q 5463 2050 5463 1356 
z
M 1647 0 
L 1163 0 
L 4044 4403 
L 4534 4403 
L 1647 0 
z
M 1231 4441 
Q 1728 4441 1968 4091 
Q 2209 3741 2209 3047 
Q 2209 2369 1961 2003 
Q 1713 1638 1219 1638 
Q 725 1638 476 2000 
Q 228 2363 228 3047 
Q 228 3744 468 4092 
Q 709 4441 1231 4441 
z
M 5000 1356 
Q 5000 1916 4879 2167 
Q 4759 2419 4475 2419 
Q 4191 2419 4064 2172 
Q 3938 1925 3938 1356 
Q 3938 822 4061 564 
Q 4184 306 4469 306 
Q 4744 306 4872 567 
Q 5000 828 5000 1356 
z
M 1750 3047 
Q 1750 3597 1631 3850 
Q 1513 4103 1231 4103 
Q 938 4103 813 3854 
Q 688 3606 688 3047 
Q 688 2506 813 2248 
Q 938 1991 1225 1991 
Q 1497 1991 1623 2253 
Q 1750 2516 1750 3047 
z
" transform="scale(0.015625)"/>
      <path id="LiberationSans-43" d="M 2475 3981 
Q 1744 3981 1337 3511 
Q 931 3041 931 2222 
Q 931 1413 1354 920 
Q 1778 428 2500 428 
Q 3425 428 3891 1344 
L 4378 1100 
Q 4106 531 3614 234 
Q 3122 -63 2472 -63 
Q 1806 -63 1320 214 
Q 834 491 579 1005 
Q 325 1519 325 2222 
Q 325 3275 894 3872 
Q 1463 4469 2469 4469 
Q 3172 4469 3644 4194 
Q 4116 3919 4338 3378 
L 3772 3191 
Q 3619 3575 3280 3778 
Q 2941 3981 2475 3981 
z
" transform="scale(0.015625)"/>
      <path id="LiberationSans-4f" d="M 4672 2222 
Q 4672 1531 4408 1012 
Q 4144 494 3650 215 
Q 3156 -63 2484 -63 
Q 1806 -63 1314 212 
Q 822 488 562 1008 
Q 303 1528 303 2222 
Q 303 3278 881 3873 
Q 1459 4469 2491 4469 
Q 3163 4469 3656 4201 
Q 4150 3934 4411 3425 
Q 4672 2916 4672 2222 
z
M 4063 2222 
Q 4063 3044 3652 3512 
Q 3241 3981 2491 3981 
Q 1734 3981 1321 3518 
Q 909 3056 909 2222 
Q 909 1394 1326 908 
Q 1744 422 2484 422 
Q 3247 422 3655 892 
Q 4063 1363 4063 2222 
z
" transform="scale(0.015625)"/>
      <path id="LiberationSans-4e" d="M 3381 0 
L 1025 3750 
L 1041 3447 
L 1056 2925 
L 1056 0 
L 525 0 
L 525 4403 
L 1219 4403 
L 3600 628 
Q 3563 1241 3563 1516 
L 3563 4403 
L 4100 4403 
L 4100 0 
L 3381 0 
z
" transform="scale(0.015625)"/>
      <path id="LiberationSans-45" d="M 525 0 
L 525 4403 
L 3866 4403 
L 3866 3916 
L 1122 3916 
L 1122 2503 
L 3678 2503 
L 3678 2022 
L 1122 2022 
L 1122 488 
L 3994 488 
L 3994 0 
L 525 0 
z
" transform="scale(0.015625)"/>
      <path id="LiberationSans-42" d="M 3931 1241 
Q 3931 653 3503 326 
Q 3075 0 2313 0 
L 525 0 
L 525 4403 
L 2125 4403 
Q 3675 4403 3675 3334 
Q 3675 2944 3456 2678 
Q 3238 2413 2838 2322 
Q 3363 2259 3647 1970 
Q 3931 1681 3931 1241 
z
M 3075 3263 
Q 3075 3619 2831 3772 
Q 2588 3925 2125 3925 
L 1122 3925 
L 1122 2531 
L 2125 2531 
Q 2603 2531 2839 2711 
Q 3075 2891 3075 3263 
z
M 3328 1288 
Q 3328 2066 2234 2066 
L 1122 2066 
L 1122 478 
L 2281 478 
Q 2828 478 3078 681 
Q 3328 884 3328 1288 
z
" transform="scale(0.015625)"/>
      <path id="LiberationSans-4d" d="M 4269 0 
L 4269 2938 
Q 4269 3425 4297 3875 
Q 4144 3316 4022 3000 
L 2884 0 
L 2466 0 
L 1313 3000 
L 1138 3531 
L 1034 3875 
L 1044 3528 
L 1056 2938 
L 1056 0 
L 525 0 
L 525 4403 
L 1309 4403 
L 2481 1350 
Q 2544 1166 2601 955 
Q 2659 744 2678 650 
Q 2703 775 2783 1029 
Q 2863 1284 2891 1350 
L 4041 4403 
L 4806 4403 
L 4806 0 
L 4269 0 
z
" transform="scale(0.015625)"/>
      <path id="LiberationSans-49" d="M 591 0 
L 591 4403 
L 1188 4403 
L 1188 0 
L 591 0 
z
" transform="scale(0.015625)"/>
      <path id="LiberationSans-47" d="M 322 2222 
Q 322 3294 897 3881 
Q 1472 4469 2513 4469 
Q 3244 4469 3700 4222 
Q 4156 3975 4403 3431 
L 3834 3263 
Q 3647 3638 3317 3809 
Q 2988 3981 2497 3981 
Q 1734 3981 1331 3520 
Q 928 3059 928 2222 
Q 928 1388 1356 905 
Q 1784 422 2541 422 
Q 2972 422 3345 553 
Q 3719 684 3950 909 
L 3950 1703 
L 2634 1703 
L 2634 2203 
L 4500 2203 
L 4500 684 
Q 4150 328 3642 132 
Q 3134 -63 2541 -63 
Q 1850 -63 1350 212 
Q 850 488 586 1005 
Q 322 1522 322 2222 
z
" transform="scale(0.015625)"/>
     </defs>
     <use xlink:href="#LiberationSans-37"/>
     <use xlink:href="#LiberationSans-39" transform="translate(55.615234 0)"/>
     <use xlink:href="#LiberationSans-25" transform="translate(111.230469 0)"/>
     <use xlink:href="#LiberationSans-20" transform="translate(200.146484 0)"/>
     <use xlink:href="#LiberationSans-43" transform="translate(227.929688 0)"/>
     <use xlink:href="#LiberationSans-4f" transform="translate(300.146484 0)"/>
     <use xlink:href="#LiberationSans-4e" transform="translate(377.929688 0)"/>
     <use xlink:href="#LiberationSans-53" transform="translate(450.146484 0)"/>
     <use xlink:href="#LiberationSans-45" transform="translate(516.845703 0)"/>
     <use xlink:href="#LiberationSans-4e" transform="translate(583.544922 0)"/>
     <use xlink:href="#LiberationSans-53" transform="translate(655.761719 0)"/>
     <use xlink:href="#LiberationSans-55" transform="translate(722.460938 0)"/>
     <use xlink:href="#LiberationSans-53" transform="translate(794.677734 0)"/>
     <use xlink:href="#LiberationSans-53" transform="translate(861.376953 0)"/>
     <use xlink:href="#LiberationSans-55" transform="translate(928.076172 0)"/>
     <use xlink:href="#LiberationSans-42" transform="translate(1000.292969 0)"/>
     <use xlink:href="#LiberationSans-4d" transform="translate(1066.992188 0)"/>
     <use xlink:href="#LiberationSans-49" transform="translate(1150.292969 0)"/>
     <use xlink:href="#LiberationSans-54" transform="translate(1178.076172 0)"/>
     <use xlink:href="#LiberationSans-4d" transform="translate(1239.160156 0)"/>
     <use xlink:href="#LiberationSans-45" transform="translate(1322.460938 0)"/>
     <use xlink:href="#LiberationSans-53" transform="translate(1389.160156 0)"/>
     <use xlink:href="#LiberationSans-53" transform="translate(1455.859375 0)"/>
     <use xlink:href="#LiberationSans-41" transform="translate(1522.558594 0)"/>
     <use xlink:href="#LiberationSans-47" transform="translate(1589.257812 0)"/>
     <use xlink:href="#LiberationSans-45" transform="translate(1667.041016 0)"/>
    </g>
    <!-- in real data -->
    <g style="fill: #262626" transform="translate(368.88 446.097406) scale(0.09 -0.09)">
     <use xlink:href="#LiberationSans-69"/>
     <use xlink:href="#LiberationSans-6e" transform="translate(22.216797 0)"/>
     <use xlink:href="#LiberationSans-20" transform="translate(77.832031 0)"/>
     <use xlink:href="#LiberationSans-72" transform="translate(105.615234 0)"/>
     <use xlink:href="#LiberationSans-65" transform="translate(138.916016 0)"/>
     <use xlink:href="#LiberationSans-61" transform="translate(194.53125 0)"/>
     <use xlink:href="#LiberationSans-6c" transform="translate(250.146484 0)"/>
     <use xlink:href="#LiberationSans-20" transform="translate(272.363281 0)"/>
     <use xlink:href="#LiberationSans-64" transform="translate(300.146484 0)"/>
     <use xlink:href="#LiberationSans-61" transform="translate(355.761719 0)"/>
     <use xlink:href="#LiberationSans-74" transform="translate(411.376953 0)"/>
     <use xlink:href="#LiberationSans-61" transform="translate(439.160156 0)"/>
    </g>
   </g>
   <g id="text_9">
    <!-- Oversampling -->
    <g style="fill: #262626" transform="translate(143.841328 489.753681) scale(0.09 -0.09)">
     <use xlink:href="#LiberationSans-4f"/>
     <use xlink:href="#LiberationSans-76" transform="translate(77.783203 0)"/>
     <use xlink:href="#LiberationSans-65" transform="translate(127.783203 0)"/>
     <use xlink:href="#LiberationSans-72" transform="translate(183.398438 0)"/>
     <use xlink:href="#LiberationSans-73" transform="translate(216.699219 0)"/>
     <use xlink:href="#LiberationSans-61" transform="translate(266.699219 0)"/>
     <use xlink:href="#LiberationSans-6d" transform="translate(322.314453 0)"/>
     <use xlink:href="#LiberationSans-70" transform="translate(405.615234 0)"/>
     <use xlink:href="#LiberationSans-6c" transform="translate(461.230469 0)"/>
     <use xlink:href="#LiberationSans-69" transform="translate(483.447266 0)"/>
     <use xlink:href="#LiberationSans-6e" transform="translate(505.664062 0)"/>
     <use xlink:href="#LiberationSans-67" transform="translate(561.279297 0)"/>
    </g>
    <!-- Class weighting -->
    <g style="fill: #262626" transform="translate(140.085937 499.447806) scale(0.09 -0.09)">
     <defs>
      <path id="LiberationSans-68" d="M 991 2803 
Q 1172 3134 1426 3289 
Q 1681 3444 2072 3444 
Q 2622 3444 2883 3170 
Q 3144 2897 3144 2253 
L 3144 0 
L 2578 0 
L 2578 2144 
Q 2578 2500 2512 2673 
Q 2447 2847 2297 2928 
Q 2147 3009 1881 3009 
Q 1484 3009 1245 2734 
Q 1006 2459 1006 1994 
L 1006 0 
L 444 0 
L 444 4638 
L 1006 4638 
L 1006 3431 
Q 1006 3241 995 3037 
Q 984 2834 981 2803 
L 991 2803 
z
" transform="scale(0.015625)"/>
     </defs>
     <use xlink:href="#LiberationSans-43"/>
     <use xlink:href="#LiberationSans-6c" transform="translate(72.216797 0)"/>
     <use xlink:href="#LiberationSans-61" transform="translate(94.433594 0)"/>
     <use xlink:href="#LiberationSans-73" transform="translate(150.048828 0)"/>
     <use xlink:href="#LiberationSans-73" transform="translate(200.048828 0)"/>
     <use xlink:href="#LiberationSans-20" transform="translate(250.048828 0)"/>
     <use xlink:href="#LiberationSans-77" transform="translate(277.832031 0)"/>
     <use xlink:href="#LiberationSans-65" transform="translate(350.048828 0)"/>
     <use xlink:href="#LiberationSans-69" transform="translate(405.664062 0)"/>
     <use xlink:href="#LiberationSans-67" transform="translate(427.880859 0)"/>
     <use xlink:href="#LiberationSans-68" transform="translate(483.496094 0)"/>
     <use xlink:href="#LiberationSans-74" transform="translate(539.111328 0)"/>
     <use xlink:href="#LiberationSans-69" transform="translate(566.894531 0)"/>
     <use xlink:href="#LiberationSans-6e" transform="translate(589.111328 0)"/>
     <use xlink:href="#LiberationSans-67" transform="translate(644.726562 0)"/>
    </g>
   </g>
   <g id="text_10">
    <!-- Dataset Size -->
    <g style="fill: #262626" transform="translate(139.198125 575.143531) scale(0.11 -0.11)">
     <defs>
      <path id="LiberationSans-Bold-44" d="M 4353 2234 
Q 4353 1553 4086 1045 
Q 3819 538 3330 269 
Q 2841 0 2209 0 
L 428 0 
L 428 4403 
L 2022 4403 
Q 3134 4403 3743 3842 
Q 4353 3281 4353 2234 
z
M 3425 2234 
Q 3425 2944 3056 3317 
Q 2688 3691 2003 3691 
L 1350 3691 
L 1350 713 
L 2131 713 
Q 2725 713 3075 1122 
Q 3425 1531 3425 2234 
z
" transform="scale(0.015625)"/>
      <path id="LiberationSans-Bold-53" d="M 4019 1269 
Q 4019 622 3539 279 
Q 3059 -63 2131 -63 
Q 1284 -63 803 237 
Q 322 538 184 1147 
L 1075 1294 
Q 1166 944 1428 786 
Q 1691 628 2156 628 
Q 3122 628 3122 1216 
Q 3122 1403 3011 1525 
Q 2900 1647 2698 1728 
Q 2497 1809 1925 1925 
Q 1431 2041 1237 2111 
Q 1044 2181 887 2276 
Q 731 2372 622 2506 
Q 513 2641 452 2822 
Q 391 3003 391 3238 
Q 391 3834 839 4151 
Q 1288 4469 2144 4469 
Q 2963 4469 3373 4212 
Q 3784 3956 3903 3366 
L 3009 3244 
Q 2941 3528 2730 3672 
Q 2519 3816 2125 3816 
Q 1288 3816 1288 3291 
Q 1288 3119 1377 3009 
Q 1466 2900 1641 2823 
Q 1816 2747 2350 2631 
Q 2984 2497 3257 2383 
Q 3531 2269 3690 2117 
Q 3850 1966 3934 1755 
Q 4019 1544 4019 1269 
z
" transform="scale(0.015625)"/>
     </defs>
     <use xlink:href="#LiberationSans-Bold-44"/>
     <use xlink:href="#LiberationSans-Bold-61" transform="translate(72.216797 0)"/>
     <use xlink:href="#LiberationSans-Bold-74" transform="translate(127.832031 0)"/>
     <use xlink:href="#LiberationSans-Bold-61" transform="translate(161.132812 0)"/>
     <use xlink:href="#LiberationSans-Bold-73" transform="translate(216.748047 0)"/>
     <use xlink:href="#LiberationSans-Bold-65" transform="translate(272.363281 0)"/>
     <use xlink:href="#LiberationSans-Bold-74" transform="translate(327.978516 0)"/>
     <use xlink:href="#LiberationSans-Bold-20" transform="translate(361.279297 0)"/>
     <use xlink:href="#LiberationSans-Bold-53" transform="translate(389.0625 0)"/>
     <use xlink:href="#LiberationSans-Bold-69" transform="translate(455.761719 0)"/>
     <use xlink:href="#LiberationSans-Bold-7a" transform="translate(483.544922 0)"/>
     <use xlink:href="#LiberationSans-Bold-65" transform="translate(533.544922 0)"/>
    </g>
   </g>
   <g id="text_11">
    <!-- Only 100 real transactions -->
    <g style="fill: #262626" transform="translate(368.88 569.779281) scale(0.09 -0.09)">
     <use xlink:href="#LiberationSans-4f"/>
     <use xlink:href="#LiberationSans-6e" transform="translate(77.783203 0)"/>
     <use xlink:href="#LiberationSans-6c" transform="translate(133.398438 0)"/>
     <use xlink:href="#LiberationSans-79" transform="translate(155.615234 0)"/>
     <use xlink:href="#LiberationSans-20" transform="translate(205.615234 0)"/>
     <use xlink:href="#LiberationSans-31" transform="translate(233.398438 0)"/>
     <use xlink:href="#LiberationSans-30" transform="translate(289.013672 0)"/>
     <use xlink:href="#LiberationSans-30" transform="translate(344.628906 0)"/>
     <use xlink:href="#LiberationSans-20" transform="translate(400.244141 0)"/>
     <use xlink:href="#LiberationSans-72" transform="translate(428.027344 0)"/>
     <use xlink:href="#LiberationSans-65" transform="translate(461.328125 0)"/>
     <use xlink:href="#LiberationSans-61" transform="translate(516.943359 0)"/>
     <use xlink:href="#LiberationSans-6c" transform="translate(572.558594 0)"/>
     <use xlink:href="#LiberationSans-20" transform="translate(594.775391 0)"/>
     <use xlink:href="#LiberationSans-74" transform="translate(622.558594 0)"/>
     <use xlink:href="#LiberationSans-72" transform="translate(650.341797 0)"/>
     <use xlink:href="#LiberationSans-61" transform="translate(683.642578 0)"/>
     <use xlink:href="#LiberationSans-6e" transform="translate(739.257812 0)"/>
     <use xlink:href="#LiberationSans-73" transform="translate(794.873047 0)"/>
     <use xlink:href="#LiberationSans-61" transform="translate(844.873047 0)"/>
     <use xlink:href="#LiberationSans-63" transform="translate(900.488281 0)"/>
     <use xlink:href="#LiberationSans-74" transform="translate(950.488281 0)"/>
     <use xlink:href="#LiberationSans-69" transform="translate(978.271484 0)"/>
     <use xlink:href="#LiberationSans-6f" transform="translate(1000.488281 0)"/>
     <use xlink:href="#LiberationSans-6e" transform="translate(1056.103516 0)"/>
     <use xlink:href="#LiberationSans-73" transform="translate(1111.71875 0)"/>
    </g>
    <!-- vs 10K target -->
    <g style="fill: #262626" transform="translate(368.88 579.473406) scale(0.09 -0.09)">
     <use xlink:href="#LiberationSans-76"/>
     <use xlink:href="#LiberationSans-73" transform="translate(50 0)"/>
     <use xlink:href="#LiberationSans-20" transform="translate(100 0)"/>
     <use xlink:href="#LiberationSans-31" transform="translate(127.783203 0)"/>
     <use xlink:href="#LiberationSans-30" transform="translate(183.398438 0)"/>
     <use xlink:href="#LiberationSans-4b" transform="translate(239.013672 0)"/>
     <use xlink:href="#LiberationSans-20" transform="translate(305.712891 0)"/>
     <use xlink:href="#LiberationSans-74" transform="translate(333.496094 0)"/>
     <use xlink:href="#LiberationSans-61" transform="translate(361.279297 0)"/>
     <use xlink:href="#LiberationSans-72" transform="translate(416.894531 0)"/>
     <use xlink:href="#LiberationSans-67" transform="translate(450.195312 0)"/>
     <use xlink:href="#LiberationSans-65" transform="translate(505.810547 0)"/>
     <use xlink:href="#LiberationSans-74" transform="translate(561.425781 0)"/>
    </g>
   </g>
   <g id="text_12">
    <!-- Alternative data sources -->
    <g style="fill: #262626" transform="translate(123.326953 623.129681) scale(0.09 -0.09)">
     <use xlink:href="#LiberationSans-41"/>
     <use xlink:href="#LiberationSans-6c" transform="translate(66.699219 0)"/>
     <use xlink:href="#LiberationSans-74" transform="translate(88.916016 0)"/>
     <use xlink:href="#LiberationSans-65" transform="translate(116.699219 0)"/>
     <use xlink:href="#LiberationSans-72" transform="translate(172.314453 0)"/>
     <use xlink:href="#LiberationSans-6e" transform="translate(205.615234 0)"/>
     <use xlink:href="#LiberationSans-61" transform="translate(261.230469 0)"/>
     <use xlink:href="#LiberationSans-74" transform="translate(316.845703 0)"/>
     <use xlink:href="#LiberationSans-69" transform="translate(344.628906 0)"/>
     <use xlink:href="#LiberationSans-76" transform="translate(366.845703 0)"/>
     <use xlink:href="#LiberationSans-65" transform="translate(416.845703 0)"/>
     <use xlink:href="#LiberationSans-20" transform="translate(472.460938 0)"/>
     <use xlink:href="#LiberationSans-64" transform="translate(500.244141 0)"/>
     <use xlink:href="#LiberationSans-61" transform="translate(555.859375 0)"/>
     <use xlink:href="#LiberationSans-74" transform="translate(611.474609 0)"/>
     <use xlink:href="#LiberationSans-61" transform="translate(639.257812 0)"/>
     <use xlink:href="#LiberationSans-20" transform="translate(694.873047 0)"/>
     <use xlink:href="#LiberationSans-73" transform="translate(722.65625 0)"/>
     <use xlink:href="#LiberationSans-6f" transform="translate(772.65625 0)"/>
     <use xlink:href="#LiberationSans-75" transform="translate(828.271484 0)"/>
     <use xlink:href="#LiberationSans-72" transform="translate(883.886719 0)"/>
     <use xlink:href="#LiberationSans-63" transform="translate(917.1875 0)"/>
     <use xlink:href="#LiberationSans-65" transform="translate(967.1875 0)"/>
     <use xlink:href="#LiberationSans-73" transform="translate(1022.802734 0)"/>
    </g>
    <!-- Account-based fetching -->
    <g style="fill: #262626" transform="translate(124.572891 632.823806) scale(0.09 -0.09)">
     <defs>
      <path id="LiberationSans-2d" d="M 284 1450 
L 284 1950 
L 1847 1950 
L 1847 1450 
L 284 1450 
z
" transform="scale(0.015625)"/>
     </defs>
     <use xlink:href="#LiberationSans-41"/>
     <use xlink:href="#LiberationSans-63" transform="translate(66.699219 0)"/>
     <use xlink:href="#LiberationSans-63" transform="translate(116.699219 0)"/>
     <use xlink:href="#LiberationSans-6f" transform="translate(166.699219 0)"/>
     <use xlink:href="#LiberationSans-75" transform="translate(222.314453 0)"/>
     <use xlink:href="#LiberationSans-6e" transform="translate(277.929688 0)"/>
     <use xlink:href="#LiberationSans-74" transform="translate(333.544922 0)"/>
     <use xlink:href="#LiberationSans-2d" transform="translate(361.328125 0)"/>
     <use xlink:href="#LiberationSans-62" transform="translate(394.628906 0)"/>
     <use xlink:href="#LiberationSans-61" transform="translate(450.244141 0)"/>
     <use xlink:href="#LiberationSans-73" transform="translate(505.859375 0)"/>
     <use xlink:href="#LiberationSans-65" transform="translate(555.859375 0)"/>
     <use xlink:href="#LiberationSans-64" transform="translate(611.474609 0)"/>
     <use xlink:href="#LiberationSans-20" transform="translate(667.089844 0)"/>
     <use xlink:href="#LiberationSans-66" transform="translate(694.873047 0)"/>
     <use xlink:href="#LiberationSans-65" transform="translate(722.65625 0)"/>
     <use xlink:href="#LiberationSans-74" transform="translate(778.271484 0)"/>
     <use xlink:href="#LiberationSans-63" transform="translate(806.054688 0)"/>
     <use xlink:href="#LiberationSans-68" transform="translate(856.054688 0)"/>
     <use xlink:href="#LiberationSans-69" transform="translate(911.669922 0)"/>
     <use xlink:href="#LiberationSans-6e" transform="translate(933.886719 0)"/>
     <use xlink:href="#LiberationSans-67" transform="translate(989.501953 0)"/>
    </g>
   </g>
   <g id="text_13">
    <!-- Bottlenecks and Solutions -->
    <g style="fill: #262626" transform="translate(399.95125 18.795) scale(0.16 -0.16)">
     <use xlink:href="#LiberationSans-Bold-42"/>
     <use xlink:href="#LiberationSans-Bold-6f" transform="translate(72.216797 0)"/>
     <use xlink:href="#LiberationSans-Bold-74" transform="translate(133.300781 0)"/>
     <use xlink:href="#LiberationSans-Bold-74" transform="translate(166.601562 0)"/>
     <use xlink:href="#LiberationSans-Bold-6c" transform="translate(199.902344 0)"/>
     <use xlink:href="#LiberationSans-Bold-65" transform="translate(227.685547 0)"/>
     <use xlink:href="#LiberationSans-Bold-6e" transform="translate(283.300781 0)"/>
     <use xlink:href="#LiberationSans-Bold-65" transform="translate(344.384766 0)"/>
     <use xlink:href="#LiberationSans-Bold-63" transform="translate(400 0)"/>
     <use xlink:href="#LiberationSans-Bold-6b" transform="translate(455.615234 0)"/>
     <use xlink:href="#LiberationSans-Bold-73" transform="translate(511.230469 0)"/>
     <use xlink:href="#LiberationSans-Bold-20" transform="translate(566.845703 0)"/>
     <use xlink:href="#LiberationSans-Bold-61" transform="translate(594.628906 0)"/>
     <use xlink:href="#LiberationSans-Bold-6e" transform="translate(650.244141 0)"/>
     <use xlink:href="#LiberationSans-Bold-64" transform="translate(711.328125 0)"/>
     <use xlink:href="#LiberationSans-Bold-20" transform="translate(772.412109 0)"/>
     <use xlink:href="#LiberationSans-Bold-53" transform="translate(800.195312 0)"/>
     <use xlink:href="#LiberationSans-Bold-6f" transform="translate(866.894531 0)"/>
     <use xlink:href="#LiberationSans-Bold-6c" transform="translate(927.978516 0)"/>
     <use xlink:href="#LiberationSans-Bold-75" transform="translate(955.761719 0)"/>
     <use xlink:href="#LiberationSans-Bold-74" transform="translate(1016.845703 0)"/>
     <use xlink:href="#LiberationSans-Bold-69" transform="translate(1050.146484 0)"/>
     <use xlink:href="#LiberationSans-Bold-6f" transform="translate(1077.929688 0)"/>
     <use xlink:href="#LiberationSans-Bold-6e" transform="translate(1139.013672 0)"/>
     <use xlink:href="#LiberationSans-Bold-73" transform="translate(1200.097656 0)"/>
    </g>
   </g>
   <g id="legend_1">
    <g id="patch_11">
     <path d="M 921.035938 55.041875 
L 941.035938 55.041875 
L 941.035938 48.041875 
L 921.035938 48.041875 
z
" style="fill: #ff0000; opacity: 0.3; stroke: #ff0000; stroke-linejoin: miter"/>
    </g>
    <g id="text_14">
     <!-- Critical -->
     <g style="fill: #262626" transform="translate(949.035938 55.041875) scale(0.1 -0.1)">
      <use xlink:href="#LiberationSans-43"/>
      <use xlink:href="#LiberationSans-72" transform="translate(72.216797 0)"/>
      <use xlink:href="#LiberationSans-69" transform="translate(105.517578 0)"/>
      <use xlink:href="#LiberationSans-74" transform="translate(127.734375 0)"/>
      <use xlink:href="#LiberationSans-69" transform="translate(155.517578 0)"/>
      <use xlink:href="#LiberationSans-63" transform="translate(177.734375 0)"/>
      <use xlink:href="#LiberationSans-61" transform="translate(227.734375 0)"/>
      <use xlink:href="#LiberationSans-6c" transform="translate(283.349609 0)"/>
     </g>
    </g>
    <g id="patch_12">
     <path d="M 921.035938 69.36375 
L 941.035938 69.36375 
L 941.035938 62.36375 
L 921.035938 62.36375 
z
" style="fill: #ffa500; opacity: 0.3; stroke: #ffa500; stroke-linejoin: miter"/>
    </g>
    <g id="text_15">
     <!-- High -->
     <g style="fill: #262626" transform="translate(949.035938 69.36375) scale(0.1 -0.1)">
      <use xlink:href="#LiberationSans-48"/>
      <use xlink:href="#LiberationSans-69" transform="translate(72.216797 0)"/>
      <use xlink:href="#LiberationSans-67" transform="translate(94.433594 0)"/>
      <use xlink:href="#LiberationSans-68" transform="translate(150.048828 0)"/>
     </g>
    </g>
    <g id="patch_13">
     <path d="M 921.035938 83.685625 
L 941.035938 83.685625 
L 941.035938 76.685625 
L 921.035938 76.685625 
z
" style="fill: #ffff00; opacity: 0.3; stroke: #ffff00; stroke-linejoin: miter"/>
    </g>
    <g id="text_16">
     <!-- Medium -->
     <g style="fill: #262626" transform="translate(949.035938 83.685625) scale(0.1 -0.1)">
      <use xlink:href="#LiberationSans-4d"/>
      <use xlink:href="#LiberationSans-65" transform="translate(83.300781 0)"/>
      <use xlink:href="#LiberationSans-64" transform="translate(138.916016 0)"/>
      <use xlink:href="#LiberationSans-69" transform="translate(194.53125 0)"/>
      <use xlink:href="#LiberationSans-75" transform="translate(216.748047 0)"/>
      <use xlink:href="#LiberationSans-6d" transform="translate(272.363281 0)"/>
     </g>
    </g>
   </g>
  </g>
 </g>
 <defs>
  <clipPath id="pd13aedab57">
   <rect x="7.2" y="38.795" width="986.4" height="666.88"/>
  </clipPath>
 </defs>
</svg>
