<?xml version="1.0" encoding="utf-8" standalone="no"?>
<!DOCTYPE svg PUBLIC "-//W3C//DTD SVG 1.1//EN"
  "http://www.w3.org/Graphics/SVG/1.1/DTD/svg11.dtd">
<svg xmlns:xlink="http://www.w3.org/1999/xlink" width="1000.8pt" height="568.875pt" viewBox="0 0 1000.8 568.875" xmlns="http://www.w3.org/2000/svg" version="1.1">
 <metadata>
  <rdf:RDF xmlns:dc="http://purl.org/dc/elements/1.1/" xmlns:cc="http://creativecommons.org/ns#" xmlns:rdf="http://www.w3.org/1999/02/22-rdf-syntax-ns#">
   <cc:Work>
    <dc:type rdf:resource="http://purl.org/dc/dcmitype/StillImage"/>
    <dc:date>2026-05-10T12:40:43.247738</dc:date>
    <dc:format>image/svg+xml</dc:format>
    <dc:creator>
     <cc:Agent>
      <dc:title>Matplotlib v3.10.9, https://matplotlib.org/</dc:title>
     </cc:Agent>
    </dc:creator>
   </cc:Work>
  </rdf:RDF>
 </metadata>
 <defs>
  <style type="text/css">*{stroke-linejoin: round; stroke-linecap: butt}</style>
 </defs>
 <g id="figure_1">
  <g id="patch_1">
   <path d="M 0 568.875 
L 1000.8 568.875 
L 1000.8 0 
L 0 0 
z
" style="fill: #ffffff"/>
  </g>
  <g id="axes_1">
   <g id="patch_2">
    <path d="M 7.2 561.675 
L 993.6 561.675 
L 993.6 38.795 
L 7.2 38.795 
z
" style="fill: #eaeaf2"/>
   </g>
   <g id="matplotlib.axis_1"/>
   <g id="matplotlib.axis_2">
    <g id="ytick_1">
     <g id="line2d_1">
      <path d="M 7.2 509.387 
L 993.6 509.387 
" clip-path="url(#p77282d830f)" style="fill: none; stroke: #ffffff; stroke-width: 0.8; stroke-linecap: round"/>
     </g>
     <g id="line2d_2"/>
    </g>
    <g id="ytick_2">
     <g id="line2d_3">
      <path d="M 7.2 404.811 
L 993.6 404.811 
" clip-path="url(#p77282d830f)" style="fill: none; stroke: #ffffff; stroke-width: 0.8; stroke-linecap: round"/>
     </g>
     <g id="line2d_4"/>
    </g>
    <g id="ytick_3">
     <g id="line2d_5">
      <path d="M 7.2 300.235 
L 993.6 300.235 
" clip-path="url(#p77282d830f)" style="fill: none; stroke: #ffffff; stroke-width: 0.8; stroke-linecap: round"/>
     </g>
     <g id="line2d_6"/>
    </g>
    <g id="ytick_4">
     <g id="line2d_7">
      <path d="M 7.2 195.659 
L 993.6 195.659 
" clip-path="url(#p77282d830f)" style="fill: none; stroke: #ffffff; stroke-width: 0.8; stroke-linecap: round"/>
     </g>
     <g id="line2d_8"/>
    </g>
    <g id="ytick_5">
     <g id="line2d_9">
      <path d="M 7.2 91.083 
L 993.6 91.083 
" clip-path="url(#p77282d830f)" style="fill: none; stroke: #ffffff; stroke-width: 0.8; stroke-linecap: round"/>
     </g>
     <g id="line2d_10"/>
    </g>
   </g>
   <g id="patch_3">
    <path d="M 7.2 540.7598 
L 289.028571 540.7598 
L 289.028571 478.0142 
L 7.2 478.0142 
z
" clip-path="url(#p77282d830f)" style="fill: #ff0000; opacity: 0.3; stroke: #ff0000; stroke-width: 2; stroke-linejoin: miter"/>
   </g>
   <g id="patch_4">
    <path d="M 7.2 436.1838 
L 289.028571 436.1838 
L 289.028571 373.4382 
L 7.2 373.4382 
z
" clip-path="url(#p77282d830f)" style="fill: #008000; opacity: 0.3; stroke: #008000; stroke-width: 2; stroke-linejoin: miter"/>
   </g>
   <g id="patch_5">
    <path d="M 7.2 331.6078 
L 289.028571 331.6078 
L 289.028571 268.8622 
L 7.2 268.8622 
z
" clip-path="url(#p77282d830f)" style="fill: #008000; opacity: 0.3; stroke: #008000; stroke-width: 2; stroke-linejoin: miter"/>
   </g>
   <g id="patch_6">
    <path d="M 7.2 227.0318 
L 289.028571 227.0318 
L 289.028571 164.2862 
L 7.2 164.2862 
z
" clip-path="url(#p77282d830f)" style="fill: #008000; opacity: 0.3; stroke: #008000; stroke-width: 2; stroke-linejoin: miter"/>
   </g>
   <g id="patch_7">
    <path d="M 7.2 122.4558 
L 289.028571 122.4558 
L 289.028571 59.7102 
L 7.2 59.7102 
z
" clip-path="url(#p77282d830f)" style="fill: #008000; opacity: 0.3; stroke: #008000; stroke-width: 2; stroke-linejoin: miter"/>
   </g>
   <g id="text_1">
    <!-- Initial Training -->
    <g style="fill: #262626" transform="translate(107.446473 506.001125) scale(0.12 -0.12)">
     <defs>
      <path id="LiberationSans-Bold-49" d="M 428 0 
L 428 4403 
L 1350 4403 
L 1350 0 
L 428 0 
z
" transform="scale(0.015625)"/>
      <path id="LiberationSans-Bold-6e" d="M 2638 0 
L 2638 1897 
Q 2638 2788 2034 2788 
Q 1716 2788 1520 2514 
Q 1325 2241 1325 1813 
L 1325 0 
L 447 0 
L 447 2625 
Q 447 2897 439 3070 
Q 431 3244 422 3381 
L 1259 3381 
Q 1269 3322 1284 3064 
Q 1300 2806 1300 2709 
L 1313 2709 
Q 1491 3097 1759 3272 
Q 2028 3447 2400 3447 
Q 2938 3447 3225 3115 
Q 3513 2784 3513 2147 
L 3513 0 
L 2638 0 
z
" transform="scale(0.015625)"/>
      <path id="LiberationSans-Bold-69" d="M 447 3991 
L 447 4638 
L 1325 4638 
L 1325 3991 
L 447 3991 
z
M 447 0 
L 447 3381 
L 1325 3381 
L 1325 0 
L 447 0 
z
" transform="scale(0.015625)"/>
      <path id="LiberationSans-Bold-74" d="M 1313 -56 
Q 925 -56 715 155 
Q 506 366 506 794 
L 506 2788 
L 78 2788 
L 78 3381 
L 550 3381 
L 825 4175 
L 1375 4175 
L 1375 3381 
L 2016 3381 
L 2016 2788 
L 1375 2788 
L 1375 1031 
Q 1375 784 1469 667 
Q 1563 550 1759 550 
Q 1863 550 2053 594 
L 2053 50 
Q 1728 -56 1313 -56 
z
" transform="scale(0.015625)"/>
      <path id="LiberationSans-Bold-61" d="M 1228 -63 
Q 738 -63 463 204 
Q 188 472 188 956 
Q 188 1481 530 1756 
Q 872 2031 1522 2038 
L 2250 2050 
L 2250 2222 
Q 2250 2553 2134 2714 
Q 2019 2875 1756 2875 
Q 1513 2875 1398 2764 
Q 1284 2653 1256 2397 
L 341 2441 
Q 425 2934 792 3189 
Q 1159 3444 1794 3444 
Q 2434 3444 2781 3128 
Q 3128 2813 3128 2231 
L 3128 1000 
Q 3128 716 3192 608 
Q 3256 500 3406 500 
Q 3506 500 3600 519 
L 3600 44 
Q 3522 25 3459 9 
Q 3397 -6 3334 -15 
Q 3272 -25 3201 -31 
Q 3131 -38 3038 -38 
Q 2706 -38 2548 125 
Q 2391 288 2359 603 
L 2341 603 
Q 1972 -63 1228 -63 
z
M 2250 1566 
L 1800 1559 
Q 1494 1547 1366 1492 
Q 1238 1438 1170 1325 
Q 1103 1213 1103 1025 
Q 1103 784 1214 667 
Q 1325 550 1509 550 
Q 1716 550 1886 662 
Q 2056 775 2153 973 
Q 2250 1172 2250 1394 
L 2250 1566 
z
" transform="scale(0.015625)"/>
      <path id="LiberationSans-Bold-6c" d="M 447 0 
L 447 4638 
L 1325 4638 
L 1325 0 
L 447 0 
z
" transform="scale(0.015625)"/>
      <path id="LiberationSans-Bold-20" transform="scale(0.015625)"/>
      <path id="LiberationSans-Bold-54" d="M 2416 3691 
L 2416 0 
L 1494 0 
L 1494 3691 
L 72 3691 
L 72 4403 
L 3841 4403 
L 3841 3691 
L 2416 3691 
z
" transform="scale(0.015625)"/>
      <path id="LiberationSans-Bold-72" d="M 447 0 
L 447 2588 
Q 447 2866 439 3052 
Q 431 3238 422 3381 
L 1259 3381 
Q 1269 3325 1284 3039 
Q 1300 2753 1300 2659 
L 1313 2659 
Q 1441 3016 1541 3161 
Q 1641 3306 1778 3376 
Q 1916 3447 2122 3447 
Q 2291 3447 2394 3400 
L 2394 2666 
Q 2181 2713 2019 2713 
Q 1691 2713 1508 2447 
Q 1325 2181 1325 1659 
L 1325 0 
L 447 0 
z
" transform="scale(0.015625)"/>
      <path id="LiberationSans-Bold-67" d="M 1863 -1356 
Q 1244 -1356 867 -1120 
Q 491 -884 403 -447 
L 1281 -344 
Q 1328 -547 1483 -662 
Q 1638 -778 1888 -778 
Q 2253 -778 2422 -553 
Q 2591 -328 2591 116 
L 2591 294 
L 2597 628 
L 2591 628 
Q 2300 6 1503 6 
Q 913 6 588 450 
Q 263 894 263 1719 
Q 263 2547 597 2997 
Q 931 3447 1569 3447 
Q 2306 3447 2591 2838 
L 2606 2838 
Q 2606 2947 2620 3134 
Q 2634 3322 2650 3381 
L 3481 3381 
Q 3463 3044 3463 2600 
L 3463 103 
Q 3463 -619 3053 -987 
Q 2644 -1356 1863 -1356 
z
M 2597 1738 
Q 2597 2259 2411 2551 
Q 2225 2844 1881 2844 
Q 1178 2844 1178 1719 
Q 1178 616 1875 616 
Q 2225 616 2411 908 
Q 2597 1200 2597 1738 
z
" transform="scale(0.015625)"/>
     </defs>
     <use xlink:href="#LiberationSans-Bold-49"/>
     <use xlink:href="#LiberationSans-Bold-6e" transform="translate(27.783203 0)"/>
     <use xlink:href="#LiberationSans-Bold-69" transform="translate(88.867188 0)"/>
     <use xlink:href="#LiberationSans-Bold-74" transform="translate(116.650391 0)"/>
     <use xlink:href="#LiberationSans-Bold-69" transform="translate(149.951172 0)"/>
     <use xlink:href="#LiberationSans-Bold-61" transform="translate(177.734375 0)"/>
     <use xlink:href="#LiberationSans-Bold-6c" transform="translate(233.349609 0)"/>
     <use xlink:href="#LiberationSans-Bold-20" transform="translate(261.132812 0)"/>
     <use xlink:href="#LiberationSans-Bold-54" transform="translate(288.916016 0)"/>
     <use xlink:href="#LiberationSans-Bold-72" transform="translate(344.5 0)"/>
     <use xlink:href="#LiberationSans-Bold-61" transform="translate(383.416016 0)"/>
     <use xlink:href="#LiberationSans-Bold-69" transform="translate(439.03125 0)"/>
     <use xlink:href="#LiberationSans-Bold-6e" transform="translate(466.814453 0)"/>
     <use xlink:href="#LiberationSans-Bold-69" transform="translate(527.898438 0)"/>
     <use xlink:href="#LiberationSans-Bold-6e" transform="translate(555.681641 0)"/>
     <use xlink:href="#LiberationSans-Bold-67" transform="translate(616.765625 0)"/>
    </g>
    <!-- (with quantization) -->
    <g style="fill: #262626" transform="translate(95.129598 518.979125) scale(0.12 -0.12)">
     <defs>
      <path id="LiberationSans-Bold-28" d="M 1247 -1328 
Q 756 -622 537 81 
Q 319 784 319 1659 
Q 319 2531 537 3232 
Q 756 3934 1247 4638 
L 2125 4638 
Q 1631 3925 1407 3219 
Q 1184 2513 1184 1656 
Q 1184 803 1406 101 
Q 1628 -600 2125 -1328 
L 1247 -1328 
z
" transform="scale(0.015625)"/>
      <path id="LiberationSans-Bold-77" d="M 4103 0 
L 3175 0 
L 2638 2063 
Q 2600 2203 2491 2756 
L 2328 2056 
L 1784 0 
L 856 0 
L -19 3381 
L 806 3381 
L 1363 797 
L 1406 1028 
L 1484 1394 
L 2016 3381 
L 2956 3381 
L 3475 1394 
Q 3519 1231 3603 797 
L 3691 1209 
L 4178 3381 
L 4991 3381 
L 4103 0 
z
" transform="scale(0.015625)"/>
      <path id="LiberationSans-Bold-68" d="M 1313 2706 
Q 1491 3094 1759 3269 
Q 2028 3444 2400 3444 
Q 2938 3444 3225 3112 
Q 3513 2781 3513 2144 
L 3513 0 
L 2638 0 
L 2638 1894 
Q 2638 2784 2034 2784 
Q 1716 2784 1520 2511 
Q 1325 2238 1325 1809 
L 1325 0 
L 447 0 
L 447 4638 
L 1325 4638 
L 1325 3372 
Q 1325 3031 1300 2706 
L 1313 2706 
z
" transform="scale(0.015625)"/>
      <path id="LiberationSans-Bold-71" d="M 263 1688 
Q 263 2525 605 2986 
Q 947 3447 1569 3447 
Q 2306 3447 2591 2838 
Q 2591 2981 2608 3157 
Q 2625 3334 2638 3381 
L 3481 3381 
Q 3463 3044 3463 2603 
L 3463 -1328 
L 2591 -1328 
L 2591 78 
L 2606 563 
L 2600 563 
Q 2309 -63 1497 -63 
Q 906 -63 584 398 
Q 263 859 263 1688 
z
M 2597 1706 
Q 2597 2247 2415 2545 
Q 2234 2844 1881 2844 
Q 1178 2844 1178 1688 
Q 1178 538 1875 538 
Q 2219 538 2408 842 
Q 2597 1147 2597 1706 
z
" transform="scale(0.015625)"/>
      <path id="LiberationSans-Bold-75" d="M 1275 3381 
L 1275 1484 
Q 1275 594 1875 594 
Q 2194 594 2389 867 
Q 2584 1141 2584 1569 
L 2584 3381 
L 3463 3381 
L 3463 756 
Q 3463 325 3488 0 
L 2650 0 
Q 2613 450 2613 672 
L 2597 672 
Q 2422 288 2151 112 
Q 1881 -63 1509 -63 
Q 972 -63 684 267 
Q 397 597 397 1234 
L 397 3381 
L 1275 3381 
z
" transform="scale(0.015625)"/>
      <path id="LiberationSans-Bold-7a" d="M 256 0 
L 256 622 
L 1847 2747 
L 384 2747 
L 384 3381 
L 2816 3381 
L 2816 2753 
L 1234 641 
L 2969 641 
L 2969 0 
L 256 0 
z
" transform="scale(0.015625)"/>
      <path id="LiberationSans-Bold-6f" d="M 3659 1694 
Q 3659 872 3203 404 
Q 2747 -63 1941 -63 
Q 1150 -63 700 406 
Q 250 875 250 1694 
Q 250 2509 700 2976 
Q 1150 3444 1959 3444 
Q 2788 3444 3223 2992 
Q 3659 2541 3659 1694 
z
M 2741 1694 
Q 2741 2297 2544 2569 
Q 2347 2841 1972 2841 
Q 1172 2841 1172 1694 
Q 1172 1128 1367 833 
Q 1563 538 1931 538 
Q 2741 538 2741 1694 
z
" transform="scale(0.015625)"/>
      <path id="LiberationSans-Bold-29" d="M 6 -1328 
Q 506 -597 726 101 
Q 947 800 947 1656 
Q 947 2516 722 3223 
Q 497 3931 6 4638 
L 884 4638 
Q 1378 3928 1595 3225 
Q 1813 2522 1813 1659 
Q 1813 791 1595 87 
Q 1378 -616 884 -1328 
L 6 -1328 
z
" transform="scale(0.015625)"/>
     </defs>
     <use xlink:href="#LiberationSans-Bold-28"/>
     <use xlink:href="#LiberationSans-Bold-77" transform="translate(33.300781 0)"/>
     <use xlink:href="#LiberationSans-Bold-69" transform="translate(111.083984 0)"/>
     <use xlink:href="#LiberationSans-Bold-74" transform="translate(138.867188 0)"/>
     <use xlink:href="#LiberationSans-Bold-68" transform="translate(172.167969 0)"/>
     <use xlink:href="#LiberationSans-Bold-20" transform="translate(233.251953 0)"/>
     <use xlink:href="#LiberationSans-Bold-71" transform="translate(261.035156 0)"/>
     <use xlink:href="#LiberationSans-Bold-75" transform="translate(322.119141 0)"/>
     <use xlink:href="#LiberationSans-Bold-61" transform="translate(383.203125 0)"/>
     <use xlink:href="#LiberationSans-Bold-6e" transform="translate(438.818359 0)"/>
     <use xlink:href="#LiberationSans-Bold-74" transform="translate(499.902344 0)"/>
     <use xlink:href="#LiberationSans-Bold-69" transform="translate(533.203125 0)"/>
     <use xlink:href="#LiberationSans-Bold-7a" transform="translate(560.986328 0)"/>
     <use xlink:href="#LiberationSans-Bold-61" transform="translate(610.986328 0)"/>
     <use xlink:href="#LiberationSans-Bold-74" transform="translate(666.601562 0)"/>
     <use xlink:href="#LiberationSans-Bold-69" transform="translate(699.902344 0)"/>
     <use xlink:href="#LiberationSans-Bold-6f" transform="translate(727.685547 0)"/>
     <use xlink:href="#LiberationSans-Bold-6e" transform="translate(788.769531 0)"/>
     <use xlink:href="#LiberationSans-Bold-29" transform="translate(849.853516 0)"/>
    </g>
   </g>
   <g id="text_2">
    <!-- Loss stuck at 2.30 -->
    <g style="fill: #262626" transform="translate(317.211429 506.587312) scale(0.1 -0.1)">
     <defs>
      <path id="LiberationSans-4c" d="M 525 0 
L 525 4403 
L 1122 4403 
L 1122 488 
L 3347 488 
L 3347 0 
L 525 0 
z
" transform="scale(0.015625)"/>
      <path id="LiberationSans-6f" d="M 3291 1694 
Q 3291 806 2900 371 
Q 2509 -63 1766 -63 
Q 1025 -63 647 389 
Q 269 841 269 1694 
Q 269 3444 1784 3444 
Q 2559 3444 2925 3017 
Q 3291 2591 3291 1694 
z
M 2700 1694 
Q 2700 2394 2492 2711 
Q 2284 3028 1794 3028 
Q 1300 3028 1079 2704 
Q 859 2381 859 1694 
Q 859 1025 1076 689 
Q 1294 353 1759 353 
Q 2266 353 2483 678 
Q 2700 1003 2700 1694 
z
" transform="scale(0.015625)"/>
      <path id="LiberationSans-73" d="M 2969 934 
Q 2969 456 2608 196 
Q 2247 -63 1597 -63 
Q 966 -63 623 145 
Q 281 353 178 794 
L 675 891 
Q 747 619 972 492 
Q 1197 366 1597 366 
Q 2025 366 2223 497 
Q 2422 628 2422 891 
Q 2422 1091 2284 1216 
Q 2147 1341 1841 1422 
L 1438 1528 
Q 953 1653 748 1773 
Q 544 1894 428 2066 
Q 313 2238 313 2488 
Q 313 2950 642 3192 
Q 972 3434 1603 3434 
Q 2163 3434 2492 3237 
Q 2822 3041 2909 2606 
L 2403 2544 
Q 2356 2769 2151 2889 
Q 1947 3009 1603 3009 
Q 1222 3009 1040 2893 
Q 859 2778 859 2544 
Q 859 2400 934 2306 
Q 1009 2213 1156 2147 
Q 1303 2081 1775 1966 
Q 2222 1853 2419 1758 
Q 2616 1663 2730 1547 
Q 2844 1431 2906 1279 
Q 2969 1128 2969 934 
z
" transform="scale(0.015625)"/>
      <path id="LiberationSans-20" transform="scale(0.015625)"/>
      <path id="LiberationSans-74" d="M 1731 25 
Q 1453 -50 1163 -50 
Q 488 -50 488 716 
L 488 2972 
L 97 2972 
L 97 3381 
L 509 3381 
L 675 4138 
L 1050 4138 
L 1050 3381 
L 1675 3381 
L 1675 2972 
L 1050 2972 
L 1050 838 
Q 1050 594 1129 495 
Q 1209 397 1406 397 
Q 1519 397 1731 441 
L 1731 25 
z
" transform="scale(0.015625)"/>
      <path id="LiberationSans-75" d="M 981 3381 
L 981 1238 
Q 981 903 1047 718 
Q 1113 534 1256 453 
Q 1400 372 1678 372 
Q 2084 372 2318 650 
Q 2553 928 2553 1422 
L 2553 3381 
L 3116 3381 
L 3116 722 
Q 3116 131 3134 0 
L 2603 0 
Q 2600 16 2597 84 
Q 2594 153 2589 242 
Q 2584 331 2578 578 
L 2569 578 
Q 2375 228 2120 82 
Q 1866 -63 1488 -63 
Q 931 -63 673 214 
Q 416 491 416 1128 
L 416 3381 
L 981 3381 
z
" transform="scale(0.015625)"/>
      <path id="LiberationSans-63" d="M 859 1706 
Q 859 1031 1071 706 
Q 1284 381 1713 381 
Q 2013 381 2214 543 
Q 2416 706 2463 1044 
L 3031 1006 
Q 2966 519 2616 228 
Q 2266 -63 1728 -63 
Q 1019 -63 645 385 
Q 272 834 272 1694 
Q 272 2547 647 2995 
Q 1022 3444 1722 3444 
Q 2241 3444 2583 3175 
Q 2925 2906 3013 2434 
L 2434 2391 
Q 2391 2672 2212 2837 
Q 2034 3003 1706 3003 
Q 1259 3003 1059 2706 
Q 859 2409 859 1706 
z
" transform="scale(0.015625)"/>
      <path id="LiberationSans-6b" d="M 2550 0 
L 1406 1544 
L 994 1203 
L 994 0 
L 431 0 
L 431 4638 
L 994 4638 
L 994 1741 
L 2478 3381 
L 3138 3381 
L 1766 1928 
L 3209 0 
L 2550 0 
z
" transform="scale(0.015625)"/>
      <path id="LiberationSans-61" d="M 1294 -63 
Q 784 -63 528 206 
Q 272 475 272 944 
Q 272 1469 617 1750 
Q 963 2031 1731 2050 
L 2491 2063 
L 2491 2247 
Q 2491 2659 2316 2837 
Q 2141 3016 1766 3016 
Q 1388 3016 1216 2887 
Q 1044 2759 1009 2478 
L 422 2531 
Q 566 3444 1778 3444 
Q 2416 3444 2737 3151 
Q 3059 2859 3059 2306 
L 3059 850 
Q 3059 600 3125 473 
Q 3191 347 3375 347 
Q 3456 347 3559 369 
L 3559 19 
Q 3347 -31 3125 -31 
Q 2813 -31 2670 133 
Q 2528 297 2509 647 
L 2491 647 
Q 2275 259 1989 98 
Q 1703 -63 1294 -63 
z
M 1422 359 
Q 1731 359 1972 500 
Q 2213 641 2352 886 
Q 2491 1131 2491 1391 
L 2491 1669 
L 1875 1656 
Q 1478 1650 1273 1575 
Q 1069 1500 959 1344 
Q 850 1188 850 934 
Q 850 659 998 509 
Q 1147 359 1422 359 
z
" transform="scale(0.015625)"/>
      <path id="LiberationSans-32" d="M 322 0 
L 322 397 
Q 481 763 711 1042 
Q 941 1322 1194 1548 
Q 1447 1775 1695 1969 
Q 1944 2163 2144 2356 
Q 2344 2550 2467 2762 
Q 2591 2975 2591 3244 
Q 2591 3606 2378 3806 
Q 2166 4006 1788 4006 
Q 1428 4006 1195 3811 
Q 963 3616 922 3263 
L 347 3316 
Q 409 3844 795 4156 
Q 1181 4469 1788 4469 
Q 2453 4469 2811 4155 
Q 3169 3841 3169 3263 
Q 3169 3006 3051 2753 
Q 2934 2500 2703 2247 
Q 2472 1994 1819 1463 
Q 1459 1169 1246 933 
Q 1034 697 941 478 
L 3238 478 
L 3238 0 
L 322 0 
z
" transform="scale(0.015625)"/>
      <path id="LiberationSans-2e" d="M 584 0 
L 584 684 
L 1194 684 
L 1194 0 
L 584 0 
z
" transform="scale(0.015625)"/>
      <path id="LiberationSans-33" d="M 3278 1216 
Q 3278 606 2890 271 
Q 2503 -63 1784 -63 
Q 1116 -63 717 239 
Q 319 541 244 1131 
L 825 1184 
Q 938 403 1784 403 
Q 2209 403 2451 612 
Q 2694 822 2694 1234 
Q 2694 1594 2417 1795 
Q 2141 1997 1619 1997 
L 1300 1997 
L 1300 2484 
L 1606 2484 
Q 2069 2484 2323 2686 
Q 2578 2888 2578 3244 
Q 2578 3597 2370 3801 
Q 2163 4006 1753 4006 
Q 1381 4006 1151 3815 
Q 922 3625 884 3278 
L 319 3322 
Q 381 3863 767 4166 
Q 1153 4469 1759 4469 
Q 2422 4469 2789 4161 
Q 3156 3853 3156 3303 
Q 3156 2881 2920 2617 
Q 2684 2353 2234 2259 
L 2234 2247 
Q 2728 2194 3003 1916 
Q 3278 1638 3278 1216 
z
" transform="scale(0.015625)"/>
      <path id="LiberationSans-30" d="M 3309 2203 
Q 3309 1100 2920 518 
Q 2531 -63 1772 -63 
Q 1013 -63 631 515 
Q 250 1094 250 2203 
Q 250 3338 620 3903 
Q 991 4469 1791 4469 
Q 2569 4469 2939 3897 
Q 3309 3325 3309 2203 
z
M 2738 2203 
Q 2738 3156 2517 3584 
Q 2297 4013 1791 4013 
Q 1272 4013 1045 3591 
Q 819 3169 819 2203 
Q 819 1266 1048 831 
Q 1278 397 1778 397 
Q 2275 397 2506 840 
Q 2738 1284 2738 2203 
z
" transform="scale(0.015625)"/>
     </defs>
     <use xlink:href="#LiberationSans-4c"/>
     <use xlink:href="#LiberationSans-6f" transform="translate(55.615234 0)"/>
     <use xlink:href="#LiberationSans-73" transform="translate(111.230469 0)"/>
     <use xlink:href="#LiberationSans-73" transform="translate(161.230469 0)"/>
     <use xlink:href="#LiberationSans-20" transform="translate(211.230469 0)"/>
     <use xlink:href="#LiberationSans-73" transform="translate(239.013672 0)"/>
     <use xlink:href="#LiberationSans-74" transform="translate(289.013672 0)"/>
     <use xlink:href="#LiberationSans-75" transform="translate(316.796875 0)"/>
     <use xlink:href="#LiberationSans-63" transform="translate(372.412109 0)"/>
     <use xlink:href="#LiberationSans-6b" transform="translate(422.412109 0)"/>
     <use xlink:href="#LiberationSans-20" transform="translate(472.412109 0)"/>
     <use xlink:href="#LiberationSans-61" transform="translate(500.195312 0)"/>
     <use xlink:href="#LiberationSans-74" transform="translate(555.810547 0)"/>
     <use xlink:href="#LiberationSans-20" transform="translate(583.59375 0)"/>
     <use xlink:href="#LiberationSans-32" transform="translate(611.376953 0)"/>
     <use xlink:href="#LiberationSans-2e" transform="translate(666.992188 0)"/>
     <use xlink:href="#LiberationSans-33" transform="translate(694.775391 0)"/>
     <use xlink:href="#LiberationSans-30" transform="translate(750.390625 0)"/>
    </g>
    <!-- Accuracy 0% -->
    <g style="fill: #262626" transform="translate(317.211429 517.358562) scale(0.1 -0.1)">
     <defs>
      <path id="LiberationSans-41" d="M 3647 0 
L 3144 1288 
L 1138 1288 
L 631 0 
L 13 0 
L 1809 4403 
L 2488 4403 
L 4256 0 
L 3647 0 
z
M 2141 3953 
L 2113 3866 
Q 2034 3606 1881 3200 
L 1319 1753 
L 2966 1753 
L 2400 3206 
Q 2313 3422 2225 3694 
L 2141 3953 
z
" transform="scale(0.015625)"/>
      <path id="LiberationSans-72" d="M 444 0 
L 444 2594 
Q 444 2950 425 3381 
L 956 3381 
Q 981 2806 981 2691 
L 994 2691 
Q 1128 3125 1303 3284 
Q 1478 3444 1797 3444 
Q 1909 3444 2025 3413 
L 2025 2897 
Q 1913 2928 1725 2928 
Q 1375 2928 1190 2626 
Q 1006 2325 1006 1763 
L 1006 0 
L 444 0 
z
" transform="scale(0.015625)"/>
      <path id="LiberationSans-79" d="M 597 -1328 
Q 366 -1328 209 -1294 
L 209 -872 
Q 328 -891 472 -891 
Q 997 -891 1303 -119 
L 1356 16 
L 16 3381 
L 616 3381 
L 1328 1513 
Q 1344 1469 1366 1408 
Q 1388 1347 1506 1000 
Q 1625 653 1634 613 
L 1853 1228 
L 2594 3381 
L 3188 3381 
L 1888 0 
Q 1678 -541 1497 -805 
Q 1316 -1069 1095 -1198 
Q 875 -1328 597 -1328 
z
" transform="scale(0.015625)"/>
      <path id="LiberationSans-25" d="M 5463 1356 
Q 5463 684 5209 323 
Q 4956 -38 4463 -38 
Q 3975 -38 3726 314 
Q 3478 666 3478 1356 
Q 3478 2069 3717 2417 
Q 3956 2766 4475 2766 
Q 4988 2766 5225 2408 
Q 5463 2050 5463 1356 
z
M 1647 0 
L 1163 0 
L 4044 4403 
L 4534 4403 
L 1647 0 
z
M 1231 4441 
Q 1728 4441 1968 4091 
Q 2209 3741 2209 3047 
Q 2209 2369 1961 2003 
Q 1713 1638 1219 1638 
Q 725 1638 476 2000 
Q 228 2363 228 3047 
Q 228 3744 468 4092 
Q 709 4441 1231 4441 
z
M 5000 1356 
Q 5000 1916 4879 2167 
Q 4759 2419 4475 2419 
Q 4191 2419 4064 2172 
Q 3938 1925 3938 1356 
Q 3938 822 4061 564 
Q 4184 306 4469 306 
Q 4744 306 4872 567 
Q 5000 828 5000 1356 
z
M 1750 3047 
Q 1750 3597 1631 3850 
Q 1513 4103 1231 4103 
Q 938 4103 813 3854 
Q 688 3606 688 3047 
Q 688 2506 813 2248 
Q 938 1991 1225 1991 
Q 1497 1991 1623 2253 
Q 1750 2516 1750 3047 
z
" transform="scale(0.015625)"/>
     </defs>
     <use xlink:href="#LiberationSans-41"/>
     <use xlink:href="#LiberationSans-63" transform="translate(66.699219 0)"/>
     <use xlink:href="#LiberationSans-63" transform="translate(116.699219 0)"/>
     <use xlink:href="#LiberationSans-75" transform="translate(166.699219 0)"/>
     <use xlink:href="#LiberationSans-72" transform="translate(222.314453 0)"/>
     <use xlink:href="#LiberationSans-61" transform="translate(255.615234 0)"/>
     <use xlink:href="#LiberationSans-63" transform="translate(311.230469 0)"/>
     <use xlink:href="#LiberationSans-79" transform="translate(361.230469 0)"/>
     <use xlink:href="#LiberationSans-20" transform="translate(411.230469 0)"/>
     <use xlink:href="#LiberationSans-30" transform="translate(439.013672 0)"/>
     <use xlink:href="#LiberationSans-25" transform="translate(494.628906 0)"/>
    </g>
   </g>
   <g id="text_3">
    <!-- Disable Quantization -->
    <g style="fill: #262626" transform="translate(88.778036 407.914125) scale(0.12 -0.12)">
     <defs>
      <path id="LiberationSans-Bold-44" d="M 4353 2234 
Q 4353 1553 4086 1045 
Q 3819 538 3330 269 
Q 2841 0 2209 0 
L 428 0 
L 428 4403 
L 2022 4403 
Q 3134 4403 3743 3842 
Q 4353 3281 4353 2234 
z
M 3425 2234 
Q 3425 2944 3056 3317 
Q 2688 3691 2003 3691 
L 1350 3691 
L 1350 713 
L 2131 713 
Q 2725 713 3075 1122 
Q 3425 1531 3425 2234 
z
" transform="scale(0.015625)"/>
      <path id="LiberationSans-Bold-73" d="M 3297 988 
Q 3297 497 2895 217 
Q 2494 -63 1784 -63 
Q 1088 -63 717 157 
Q 347 378 225 844 
L 997 959 
Q 1063 719 1223 619 
Q 1384 519 1784 519 
Q 2153 519 2322 612 
Q 2491 706 2491 906 
Q 2491 1069 2355 1164 
Q 2219 1259 1894 1325 
Q 1150 1472 890 1598 
Q 631 1725 495 1926 
Q 359 2128 359 2422 
Q 359 2906 732 3176 
Q 1106 3447 1791 3447 
Q 2394 3447 2761 3212 
Q 3128 2978 3219 2534 
L 2441 2453 
Q 2403 2659 2256 2761 
Q 2109 2863 1791 2863 
Q 1478 2863 1322 2783 
Q 1166 2703 1166 2516 
Q 1166 2369 1286 2283 
Q 1406 2197 1691 2141 
Q 2088 2059 2395 1973 
Q 2703 1888 2889 1769 
Q 3075 1650 3186 1464 
Q 3297 1278 3297 988 
z
" transform="scale(0.015625)"/>
      <path id="LiberationSans-Bold-62" d="M 3647 1703 
Q 3647 866 3311 401 
Q 2975 -63 2350 -63 
Q 1991 -63 1728 93 
Q 1466 250 1325 544 
L 1319 544 
Q 1319 434 1305 243 
Q 1291 53 1275 0 
L 422 0 
Q 447 291 447 772 
L 447 4638 
L 1325 4638 
L 1325 3344 
L 1313 2794 
L 1325 2794 
Q 1622 3444 2406 3444 
Q 3006 3444 3326 2989 
Q 3647 2534 3647 1703 
z
M 2731 1703 
Q 2731 2278 2562 2556 
Q 2394 2834 2041 2834 
Q 1684 2834 1498 2536 
Q 1313 2238 1313 1675 
Q 1313 1138 1495 838 
Q 1678 538 2034 538 
Q 2731 538 2731 1703 
z
" transform="scale(0.015625)"/>
      <path id="LiberationSans-Bold-65" d="M 1831 -63 
Q 1069 -63 659 389 
Q 250 841 250 1706 
Q 250 2544 665 2994 
Q 1081 3444 1844 3444 
Q 2572 3444 2956 2961 
Q 3341 2478 3341 1547 
L 3341 1522 
L 1172 1522 
Q 1172 1028 1355 776 
Q 1538 525 1875 525 
Q 2341 525 2463 928 
L 3291 856 
Q 2931 -63 1831 -63 
z
M 1831 2891 
Q 1522 2891 1355 2675 
Q 1188 2459 1178 2072 
L 2491 2072 
Q 2466 2481 2294 2686 
Q 2122 2891 1831 2891 
z
" transform="scale(0.015625)"/>
      <path id="LiberationSans-Bold-51" d="M 4709 2222 
Q 4709 1341 4276 755 
Q 3844 169 3072 13 
Q 3178 -297 3370 -434 
Q 3563 -572 3909 -572 
Q 4094 -572 4281 -541 
L 4275 -1172 
Q 3881 -1259 3519 -1259 
Q 3009 -1259 2675 -975 
Q 2341 -691 2138 -31 
Q 1247 53 755 648 
Q 263 1244 263 2222 
Q 263 3281 850 3875 
Q 1438 4469 2484 4469 
Q 3531 4469 4120 3869 
Q 4709 3269 4709 2222 
z
M 3769 2222 
Q 3769 2934 3431 3339 
Q 3094 3744 2484 3744 
Q 1866 3744 1528 3342 
Q 1191 2941 1191 2222 
Q 1191 1497 1534 1078 
Q 1878 659 2478 659 
Q 3097 659 3433 1065 
Q 3769 1472 3769 2222 
z
" transform="scale(0.015625)"/>
     </defs>
     <use xlink:href="#LiberationSans-Bold-44"/>
     <use xlink:href="#LiberationSans-Bold-69" transform="translate(72.216797 0)"/>
     <use xlink:href="#LiberationSans-Bold-73" transform="translate(100 0)"/>
     <use xlink:href="#LiberationSans-Bold-61" transform="translate(155.615234 0)"/>
     <use xlink:href="#LiberationSans-Bold-62" transform="translate(211.230469 0)"/>
     <use xlink:href="#LiberationSans-Bold-6c" transform="translate(272.314453 0)"/>
     <use xlink:href="#LiberationSans-Bold-65" transform="translate(300.097656 0)"/>
     <use xlink:href="#LiberationSans-Bold-20" transform="translate(355.712891 0)"/>
     <use xlink:href="#LiberationSans-Bold-51" transform="translate(383.496094 0)"/>
     <use xlink:href="#LiberationSans-Bold-75" transform="translate(461.279297 0)"/>
     <use xlink:href="#LiberationSans-Bold-61" transform="translate(522.363281 0)"/>
     <use xlink:href="#LiberationSans-Bold-6e" transform="translate(577.978516 0)"/>
     <use xlink:href="#LiberationSans-Bold-74" transform="translate(639.0625 0)"/>
     <use xlink:href="#LiberationSans-Bold-69" transform="translate(672.363281 0)"/>
     <use xlink:href="#LiberationSans-Bold-7a" transform="translate(700.146484 0)"/>
     <use xlink:href="#LiberationSans-Bold-61" transform="translate(750.146484 0)"/>
     <use xlink:href="#LiberationSans-Bold-74" transform="translate(805.761719 0)"/>
     <use xlink:href="#LiberationSans-Bold-69" transform="translate(839.0625 0)"/>
     <use xlink:href="#LiberationSans-Bold-6f" transform="translate(866.845703 0)"/>
     <use xlink:href="#LiberationSans-Bold-6e" transform="translate(927.929688 0)"/>
    </g>
   </g>
   <g id="text_4">
    <!-- Loss: 2.30→1.10 -->
    <g style="fill: #262626" transform="translate(317.211429 402.011312) scale(0.1 -0.1)">
     <defs>
      <path id="LiberationSans-3a" d="M 584 2734 
L 584 3381 
L 1194 3381 
L 1194 2734 
L 584 2734 
z
M 584 0 
L 584 647 
L 1194 647 
L 1194 0 
L 584 0 
z
" transform="scale(0.015625)"/>
      <path id="LiberationSans-2192" d="M 4397 1197 
Q 4219 1406 4025 1813 
L 4250 1813 
Q 4647 1347 5094 1119 
L 5094 1006 
Q 4647 778 4250 313 
L 4025 313 
Q 4219 719 4397 928 
L 1306 928 
L 1306 1197 
L 4397 1197 
z
" transform="scale(0.015625)"/>
      <path id="LiberationSans-31" d="M 488 0 
L 488 478 
L 1609 478 
L 1609 3866 
L 616 3156 
L 616 3688 
L 1656 4403 
L 2175 4403 
L 2175 478 
L 3247 478 
L 3247 0 
L 488 0 
z
" transform="scale(0.015625)"/>
     </defs>
     <use xlink:href="#LiberationSans-4c"/>
     <use xlink:href="#LiberationSans-6f" transform="translate(55.615234 0)"/>
     <use xlink:href="#LiberationSans-73" transform="translate(111.230469 0)"/>
     <use xlink:href="#LiberationSans-73" transform="translate(161.230469 0)"/>
     <use xlink:href="#LiberationSans-3a" transform="translate(211.230469 0)"/>
     <use xlink:href="#LiberationSans-20" transform="translate(239.013672 0)"/>
     <use xlink:href="#LiberationSans-32" transform="translate(266.796875 0)"/>
     <use xlink:href="#LiberationSans-2e" transform="translate(322.412109 0)"/>
     <use xlink:href="#LiberationSans-33" transform="translate(350.195312 0)"/>
     <use xlink:href="#LiberationSans-30" transform="translate(405.810547 0)"/>
     <use xlink:href="#LiberationSans-2192" transform="translate(461.425781 0)"/>
     <use xlink:href="#LiberationSans-31" transform="translate(561.425781 0)"/>
     <use xlink:href="#LiberationSans-2e" transform="translate(617.041016 0)"/>
     <use xlink:href="#LiberationSans-31" transform="translate(644.824219 0)"/>
     <use xlink:href="#LiberationSans-30" transform="translate(700.439453 0)"/>
    </g>
    <!-- Accuracy: 10%→34% -->
    <g style="fill: #262626" transform="translate(317.211429 412.782562) scale(0.1 -0.1)">
     <defs>
      <path id="LiberationSans-34" d="M 2753 997 
L 2753 0 
L 2222 0 
L 2222 997 
L 147 997 
L 147 1434 
L 2163 4403 
L 2753 4403 
L 2753 1441 
L 3372 1441 
L 3372 997 
L 2753 997 
z
M 2222 3769 
Q 2216 3750 2134 3603 
Q 2053 3456 2013 3397 
L 884 1734 
L 716 1503 
L 666 1441 
L 2222 1441 
L 2222 3769 
z
" transform="scale(0.015625)"/>
     </defs>
     <use xlink:href="#LiberationSans-41"/>
     <use xlink:href="#LiberationSans-63" transform="translate(66.699219 0)"/>
     <use xlink:href="#LiberationSans-63" transform="translate(116.699219 0)"/>
     <use xlink:href="#LiberationSans-75" transform="translate(166.699219 0)"/>
     <use xlink:href="#LiberationSans-72" transform="translate(222.314453 0)"/>
     <use xlink:href="#LiberationSans-61" transform="translate(255.615234 0)"/>
     <use xlink:href="#LiberationSans-63" transform="translate(311.230469 0)"/>
     <use xlink:href="#LiberationSans-79" transform="translate(361.230469 0)"/>
     <use xlink:href="#LiberationSans-3a" transform="translate(411.230469 0)"/>
     <use xlink:href="#LiberationSans-20" transform="translate(439.013672 0)"/>
     <use xlink:href="#LiberationSans-31" transform="translate(466.796875 0)"/>
     <use xlink:href="#LiberationSans-30" transform="translate(522.412109 0)"/>
     <use xlink:href="#LiberationSans-25" transform="translate(578.027344 0)"/>
     <use xlink:href="#LiberationSans-2192" transform="translate(666.943359 0)"/>
     <use xlink:href="#LiberationSans-33" transform="translate(766.943359 0)"/>
     <use xlink:href="#LiberationSans-34" transform="translate(822.558594 0)"/>
     <use xlink:href="#LiberationSans-25" transform="translate(878.173828 0)"/>
    </g>
   </g>
   <g id="text_5">
    <!-- Linear Baseline -->
    <g style="fill: #262626" transform="translate(103.764911 303.338125) scale(0.12 -0.12)">
     <defs>
      <path id="LiberationSans-Bold-4c" d="M 428 0 
L 428 4403 
L 1350 4403 
L 1350 713 
L 3713 713 
L 3713 0 
L 428 0 
z
" transform="scale(0.015625)"/>
      <path id="LiberationSans-Bold-42" d="M 4331 1256 
Q 4331 656 3881 328 
Q 3431 0 2631 0 
L 428 0 
L 428 4403 
L 2444 4403 
Q 3250 4403 3664 4123 
Q 4078 3844 4078 3297 
Q 4078 2922 3870 2664 
Q 3663 2406 3238 2316 
Q 3772 2253 4051 1979 
Q 4331 1706 4331 1256 
z
M 3150 3172 
Q 3150 3469 2961 3594 
Q 2772 3719 2400 3719 
L 1350 3719 
L 1350 2628 
L 2406 2628 
Q 2797 2628 2973 2764 
Q 3150 2900 3150 3172 
z
M 3406 1328 
Q 3406 1947 2519 1947 
L 1350 1947 
L 1350 684 
L 2553 684 
Q 2997 684 3201 845 
Q 3406 1006 3406 1328 
z
" transform="scale(0.015625)"/>
     </defs>
     <use xlink:href="#LiberationSans-Bold-4c"/>
     <use xlink:href="#LiberationSans-Bold-69" transform="translate(61.083984 0)"/>
     <use xlink:href="#LiberationSans-Bold-6e" transform="translate(88.867188 0)"/>
     <use xlink:href="#LiberationSans-Bold-65" transform="translate(149.951172 0)"/>
     <use xlink:href="#LiberationSans-Bold-61" transform="translate(205.566406 0)"/>
     <use xlink:href="#LiberationSans-Bold-72" transform="translate(261.181641 0)"/>
     <use xlink:href="#LiberationSans-Bold-20" transform="translate(300.097656 0)"/>
     <use xlink:href="#LiberationSans-Bold-42" transform="translate(327.880859 0)"/>
     <use xlink:href="#LiberationSans-Bold-61" transform="translate(400.097656 0)"/>
     <use xlink:href="#LiberationSans-Bold-73" transform="translate(455.712891 0)"/>
     <use xlink:href="#LiberationSans-Bold-65" transform="translate(511.328125 0)"/>
     <use xlink:href="#LiberationSans-Bold-6c" transform="translate(566.943359 0)"/>
     <use xlink:href="#LiberationSans-Bold-69" transform="translate(594.726562 0)"/>
     <use xlink:href="#LiberationSans-Bold-6e" transform="translate(622.509766 0)"/>
     <use xlink:href="#LiberationSans-Bold-65" transform="translate(683.59375 0)"/>
    </g>
   </g>
   <g id="text_6">
    <!-- Loss: 1.10 -->
    <g style="fill: #262626" transform="translate(317.211429 297.435312) scale(0.1 -0.1)">
     <use xlink:href="#LiberationSans-4c"/>
     <use xlink:href="#LiberationSans-6f" transform="translate(55.615234 0)"/>
     <use xlink:href="#LiberationSans-73" transform="translate(111.230469 0)"/>
     <use xlink:href="#LiberationSans-73" transform="translate(161.230469 0)"/>
     <use xlink:href="#LiberationSans-3a" transform="translate(211.230469 0)"/>
     <use xlink:href="#LiberationSans-20" transform="translate(239.013672 0)"/>
     <use xlink:href="#LiberationSans-31" transform="translate(266.796875 0)"/>
     <use xlink:href="#LiberationSans-2e" transform="translate(322.412109 0)"/>
     <use xlink:href="#LiberationSans-31" transform="translate(350.195312 0)"/>
     <use xlink:href="#LiberationSans-30" transform="translate(405.810547 0)"/>
    </g>
    <!-- Accuracy: 33% -->
    <g style="fill: #262626" transform="translate(317.211429 308.206562) scale(0.1 -0.1)">
     <use xlink:href="#LiberationSans-41"/>
     <use xlink:href="#LiberationSans-63" transform="translate(66.699219 0)"/>
     <use xlink:href="#LiberationSans-63" transform="translate(116.699219 0)"/>
     <use xlink:href="#LiberationSans-75" transform="translate(166.699219 0)"/>
     <use xlink:href="#LiberationSans-72" transform="translate(222.314453 0)"/>
     <use xlink:href="#LiberationSans-61" transform="translate(255.615234 0)"/>
     <use xlink:href="#LiberationSans-63" transform="translate(311.230469 0)"/>
     <use xlink:href="#LiberationSans-79" transform="translate(361.230469 0)"/>
     <use xlink:href="#LiberationSans-3a" transform="translate(411.230469 0)"/>
     <use xlink:href="#LiberationSans-20" transform="translate(439.013672 0)"/>
     <use xlink:href="#LiberationSans-33" transform="translate(466.796875 0)"/>
     <use xlink:href="#LiberationSans-33" transform="translate(522.412109 0)"/>
     <use xlink:href="#LiberationSans-25" transform="translate(578.027344 0)"/>
    </g>
   </g>
   <g id="text_7">
    <!-- Real Data Integration -->
    <g style="fill: #262626" transform="translate(88.106786 198.735875) scale(0.12 -0.12)">
     <defs>
      <path id="LiberationSans-Bold-52" d="M 3453 0 
L 2431 1672 
L 1350 1672 
L 1350 0 
L 428 0 
L 428 4403 
L 2628 4403 
Q 3416 4403 3844 4064 
Q 4272 3725 4272 3091 
Q 4272 2628 4009 2292 
Q 3747 1956 3300 1850 
L 4491 0 
L 3453 0 
z
M 3344 3053 
Q 3344 3688 2531 3688 
L 1350 3688 
L 1350 2388 
L 2556 2388 
Q 2944 2388 3144 2563 
Q 3344 2738 3344 3053 
z
" transform="scale(0.015625)"/>
     </defs>
     <use xlink:href="#LiberationSans-Bold-52"/>
     <use xlink:href="#LiberationSans-Bold-65" transform="translate(72.216797 0)"/>
     <use xlink:href="#LiberationSans-Bold-61" transform="translate(127.832031 0)"/>
     <use xlink:href="#LiberationSans-Bold-6c" transform="translate(183.447266 0)"/>
     <use xlink:href="#LiberationSans-Bold-20" transform="translate(211.230469 0)"/>
     <use xlink:href="#LiberationSans-Bold-44" transform="translate(239.013672 0)"/>
     <use xlink:href="#LiberationSans-Bold-61" transform="translate(311.230469 0)"/>
     <use xlink:href="#LiberationSans-Bold-74" transform="translate(366.845703 0)"/>
     <use xlink:href="#LiberationSans-Bold-61" transform="translate(400.146484 0)"/>
     <use xlink:href="#LiberationSans-Bold-20" transform="translate(455.761719 0)"/>
     <use xlink:href="#LiberationSans-Bold-49" transform="translate(483.544922 0)"/>
     <use xlink:href="#LiberationSans-Bold-6e" transform="translate(511.328125 0)"/>
     <use xlink:href="#LiberationSans-Bold-74" transform="translate(572.412109 0)"/>
     <use xlink:href="#LiberationSans-Bold-65" transform="translate(605.712891 0)"/>
     <use xlink:href="#LiberationSans-Bold-67" transform="translate(661.328125 0)"/>
     <use xlink:href="#LiberationSans-Bold-72" transform="translate(722.412109 0)"/>
     <use xlink:href="#LiberationSans-Bold-61" transform="translate(761.328125 0)"/>
     <use xlink:href="#LiberationSans-Bold-74" transform="translate(816.943359 0)"/>
     <use xlink:href="#LiberationSans-Bold-69" transform="translate(850.244141 0)"/>
     <use xlink:href="#LiberationSans-Bold-6f" transform="translate(878.027344 0)"/>
     <use xlink:href="#LiberationSans-Bold-6e" transform="translate(939.111328 0)"/>
    </g>
   </g>
   <g id="text_8">
    <!-- 100 real transactions -->
    <g style="fill: #262626" transform="translate(317.211429 192.859312) scale(0.1 -0.1)">
     <defs>
      <path id="LiberationSans-65" d="M 863 1572 
Q 863 991 1103 675 
Q 1344 359 1806 359 
Q 2172 359 2392 506 
Q 2613 653 2691 878 
L 3184 738 
Q 2881 -63 1806 -63 
Q 1056 -63 664 384 
Q 272 831 272 1713 
Q 272 2550 664 2997 
Q 1056 3444 1784 3444 
Q 3275 3444 3275 1647 
L 3275 1572 
L 863 1572 
z
M 2694 2003 
Q 2647 2538 2422 2783 
Q 2197 3028 1775 3028 
Q 1366 3028 1127 2754 
Q 888 2481 869 2003 
L 2694 2003 
z
" transform="scale(0.015625)"/>
      <path id="LiberationSans-6c" d="M 431 0 
L 431 4638 
L 994 4638 
L 994 0 
L 431 0 
z
" transform="scale(0.015625)"/>
      <path id="LiberationSans-6e" d="M 2578 0 
L 2578 2144 
Q 2578 2478 2512 2662 
Q 2447 2847 2303 2928 
Q 2159 3009 1881 3009 
Q 1475 3009 1240 2731 
Q 1006 2453 1006 1959 
L 1006 0 
L 444 0 
L 444 2659 
Q 444 3250 425 3381 
L 956 3381 
Q 959 3366 962 3297 
Q 966 3228 970 3139 
Q 975 3050 981 2803 
L 991 2803 
Q 1184 3153 1439 3298 
Q 1694 3444 2072 3444 
Q 2628 3444 2886 3167 
Q 3144 2891 3144 2253 
L 3144 0 
L 2578 0 
z
" transform="scale(0.015625)"/>
      <path id="LiberationSans-69" d="M 428 4100 
L 428 4638 
L 991 4638 
L 991 4100 
L 428 4100 
z
M 428 0 
L 428 3381 
L 991 3381 
L 991 0 
L 428 0 
z
" transform="scale(0.015625)"/>
     </defs>
     <use xlink:href="#LiberationSans-31"/>
     <use xlink:href="#LiberationSans-30" transform="translate(55.615234 0)"/>
     <use xlink:href="#LiberationSans-30" transform="translate(111.230469 0)"/>
     <use xlink:href="#LiberationSans-20" transform="translate(166.845703 0)"/>
     <use xlink:href="#LiberationSans-72" transform="translate(194.628906 0)"/>
     <use xlink:href="#LiberationSans-65" transform="translate(227.929688 0)"/>
     <use xlink:href="#LiberationSans-61" transform="translate(283.544922 0)"/>
     <use xlink:href="#LiberationSans-6c" transform="translate(339.160156 0)"/>
     <use xlink:href="#LiberationSans-20" transform="translate(361.376953 0)"/>
     <use xlink:href="#LiberationSans-74" transform="translate(389.160156 0)"/>
     <use xlink:href="#LiberationSans-72" transform="translate(416.943359 0)"/>
     <use xlink:href="#LiberationSans-61" transform="translate(450.244141 0)"/>
     <use xlink:href="#LiberationSans-6e" transform="translate(505.859375 0)"/>
     <use xlink:href="#LiberationSans-73" transform="translate(561.474609 0)"/>
     <use xlink:href="#LiberationSans-61" transform="translate(611.474609 0)"/>
     <use xlink:href="#LiberationSans-63" transform="translate(667.089844 0)"/>
     <use xlink:href="#LiberationSans-74" transform="translate(717.089844 0)"/>
     <use xlink:href="#LiberationSans-69" transform="translate(744.873047 0)"/>
     <use xlink:href="#LiberationSans-6f" transform="translate(767.089844 0)"/>
     <use xlink:href="#LiberationSans-6e" transform="translate(822.705078 0)"/>
     <use xlink:href="#LiberationSans-73" transform="translate(878.320312 0)"/>
    </g>
    <!-- API limited -->
    <g style="fill: #262626" transform="translate(317.211429 203.630562) scale(0.1 -0.1)">
     <defs>
      <path id="LiberationSans-50" d="M 3931 3078 
Q 3931 2453 3523 2084 
Q 3116 1716 2416 1716 
L 1122 1716 
L 1122 0 
L 525 0 
L 525 4403 
L 2378 4403 
Q 3119 4403 3525 4056 
Q 3931 3709 3931 3078 
z
M 3331 3072 
Q 3331 3925 2306 3925 
L 1122 3925 
L 1122 2188 
L 2331 2188 
Q 3331 2188 3331 3072 
z
" transform="scale(0.015625)"/>
      <path id="LiberationSans-49" d="M 591 0 
L 591 4403 
L 1188 4403 
L 1188 0 
L 591 0 
z
" transform="scale(0.015625)"/>
      <path id="LiberationSans-6d" d="M 2400 0 
L 2400 2144 
Q 2400 2634 2265 2821 
Q 2131 3009 1781 3009 
Q 1422 3009 1212 2734 
Q 1003 2459 1003 1959 
L 1003 0 
L 444 0 
L 444 2659 
Q 444 3250 425 3381 
L 956 3381 
Q 959 3366 962 3297 
Q 966 3228 970 3139 
Q 975 3050 981 2803 
L 991 2803 
Q 1172 3163 1406 3303 
Q 1641 3444 1978 3444 
Q 2363 3444 2586 3291 
Q 2809 3138 2897 2803 
L 2906 2803 
Q 3081 3144 3329 3294 
Q 3578 3444 3931 3444 
Q 4444 3444 4676 3166 
Q 4909 2888 4909 2253 
L 4909 0 
L 4353 0 
L 4353 2144 
Q 4353 2634 4218 2821 
Q 4084 3009 3734 3009 
Q 3366 3009 3161 2736 
Q 2956 2463 2956 1959 
L 2956 0 
L 2400 0 
z
" transform="scale(0.015625)"/>
      <path id="LiberationSans-64" d="M 2566 544 
Q 2409 219 2151 78 
Q 1894 -63 1513 -63 
Q 872 -63 570 368 
Q 269 800 269 1675 
Q 269 3444 1513 3444 
Q 1897 3444 2153 3303 
Q 2409 3163 2566 2856 
L 2572 2856 
L 2566 3234 
L 2566 4638 
L 3128 4638 
L 3128 697 
Q 3128 169 3147 0 
L 2609 0 
Q 2600 50 2589 231 
Q 2578 413 2578 544 
L 2566 544 
z
M 859 1694 
Q 859 984 1046 678 
Q 1234 372 1656 372 
Q 2134 372 2350 703 
Q 2566 1034 2566 1731 
Q 2566 2403 2350 2715 
Q 2134 3028 1663 3028 
Q 1238 3028 1048 2714 
Q 859 2400 859 1694 
z
" transform="scale(0.015625)"/>
     </defs>
     <use xlink:href="#LiberationSans-41"/>
     <use xlink:href="#LiberationSans-50" transform="translate(66.699219 0)"/>
     <use xlink:href="#LiberationSans-49" transform="translate(133.398438 0)"/>
     <use xlink:href="#LiberationSans-20" transform="translate(161.181641 0)"/>
     <use xlink:href="#LiberationSans-6c" transform="translate(188.964844 0)"/>
     <use xlink:href="#LiberationSans-69" transform="translate(211.181641 0)"/>
     <use xlink:href="#LiberationSans-6d" transform="translate(233.398438 0)"/>
     <use xlink:href="#LiberationSans-69" transform="translate(316.699219 0)"/>
     <use xlink:href="#LiberationSans-74" transform="translate(338.916016 0)"/>
     <use xlink:href="#LiberationSans-65" transform="translate(366.699219 0)"/>
     <use xlink:href="#LiberationSans-64" transform="translate(422.314453 0)"/>
    </g>
   </g>
   <g id="text_9">
    <!-- Mixed Corpus Training -->
    <g style="fill: #262626" transform="translate(83.444598 94.159875) scale(0.12 -0.12)">
     <defs>
      <path id="LiberationSans-Bold-4d" d="M 4084 0 
L 4084 2669 
Q 4084 2759 4086 2850 
Q 4088 2941 4116 3628 
Q 3894 2788 3788 2456 
L 2994 0 
L 2338 0 
L 1544 2456 
L 1209 3628 
Q 1247 2903 1247 2669 
L 1247 0 
L 428 0 
L 428 4403 
L 1663 4403 
L 2450 1941 
L 2519 1703 
L 2669 1113 
L 2866 1819 
L 3675 4403 
L 4903 4403 
L 4903 0 
L 4084 0 
z
" transform="scale(0.015625)"/>
      <path id="LiberationSans-Bold-78" d="M 2559 0 
L 1772 1225 
L 978 0 
L 44 0 
L 1281 1747 
L 103 3381 
L 1050 3381 
L 1772 2275 
L 2491 3381 
L 3444 3381 
L 2266 1756 
L 3513 0 
L 2559 0 
z
" transform="scale(0.015625)"/>
      <path id="LiberationSans-Bold-64" d="M 2638 0 
Q 2625 47 2608 236 
Q 2591 425 2591 550 
L 2578 550 
Q 2294 -63 1497 -63 
Q 906 -63 584 398 
Q 263 859 263 1688 
Q 263 2528 602 2986 
Q 941 3444 1563 3444 
Q 1922 3444 2183 3294 
Q 2444 3144 2584 2847 
L 2591 2847 
L 2584 3403 
L 2584 4638 
L 3463 4638 
L 3463 738 
Q 3463 425 3488 0 
L 2638 0 
z
M 2597 1709 
Q 2597 2256 2414 2551 
Q 2231 2847 1875 2847 
Q 1522 2847 1350 2561 
Q 1178 2275 1178 1688 
Q 1178 538 1869 538 
Q 2216 538 2406 842 
Q 2597 1147 2597 1709 
z
" transform="scale(0.015625)"/>
      <path id="LiberationSans-Bold-43" d="M 2484 663 
Q 3319 663 3644 1500 
L 4447 1197 
Q 4188 559 3686 248 
Q 3184 -63 2484 -63 
Q 1422 -63 842 539 
Q 263 1141 263 2222 
Q 263 3306 822 3887 
Q 1381 4469 2444 4469 
Q 3219 4469 3706 4158 
Q 4194 3847 4391 3244 
L 3578 3022 
Q 3475 3353 3173 3548 
Q 2872 3744 2463 3744 
Q 1838 3744 1514 3356 
Q 1191 2969 1191 2222 
Q 1191 1463 1523 1063 
Q 1856 663 2484 663 
z
" transform="scale(0.015625)"/>
      <path id="LiberationSans-Bold-70" d="M 3647 1706 
Q 3647 859 3308 398 
Q 2969 -63 2350 -63 
Q 1994 -63 1730 92 
Q 1466 247 1325 538 
L 1306 538 
Q 1325 444 1325 -31 
L 1325 -1328 
L 447 -1328 
L 447 2603 
Q 447 3081 422 3381 
L 1275 3381 
Q 1291 3325 1302 3159 
Q 1313 2994 1313 2831 
L 1325 2831 
Q 1622 3453 2406 3453 
Q 2997 3453 3322 2998 
Q 3647 2544 3647 1706 
z
M 2731 1706 
Q 2731 2844 2034 2844 
Q 1684 2844 1498 2537 
Q 1313 2231 1313 1681 
Q 1313 1134 1498 836 
Q 1684 538 2028 538 
Q 2731 538 2731 1706 
z
" transform="scale(0.015625)"/>
     </defs>
     <use xlink:href="#LiberationSans-Bold-4d"/>
     <use xlink:href="#LiberationSans-Bold-69" transform="translate(83.300781 0)"/>
     <use xlink:href="#LiberationSans-Bold-78" transform="translate(111.083984 0)"/>
     <use xlink:href="#LiberationSans-Bold-65" transform="translate(166.699219 0)"/>
     <use xlink:href="#LiberationSans-Bold-64" transform="translate(222.314453 0)"/>
     <use xlink:href="#LiberationSans-Bold-20" transform="translate(283.398438 0)"/>
     <use xlink:href="#LiberationSans-Bold-43" transform="translate(311.181641 0)"/>
     <use xlink:href="#LiberationSans-Bold-6f" transform="translate(383.398438 0)"/>
     <use xlink:href="#LiberationSans-Bold-72" transform="translate(444.482422 0)"/>
     <use xlink:href="#LiberationSans-Bold-70" transform="translate(483.398438 0)"/>
     <use xlink:href="#LiberationSans-Bold-75" transform="translate(544.482422 0)"/>
     <use xlink:href="#LiberationSans-Bold-73" transform="translate(605.566406 0)"/>
     <use xlink:href="#LiberationSans-Bold-20" transform="translate(661.181641 0)"/>
     <use xlink:href="#LiberationSans-Bold-54" transform="translate(688.964844 0)"/>
     <use xlink:href="#LiberationSans-Bold-72" transform="translate(744.548828 0)"/>
     <use xlink:href="#LiberationSans-Bold-61" transform="translate(783.464844 0)"/>
     <use xlink:href="#LiberationSans-Bold-69" transform="translate(839.080078 0)"/>
     <use xlink:href="#LiberationSans-Bold-6e" transform="translate(866.863281 0)"/>
     <use xlink:href="#LiberationSans-Bold-69" transform="translate(927.947266 0)"/>
     <use xlink:href="#LiberationSans-Bold-6e" transform="translate(955.730469 0)"/>
     <use xlink:href="#LiberationSans-Bold-67" transform="translate(1016.814453 0)"/>
    </g>
   </g>
   <g id="text_10">
    <!-- Accuracy: 33%→45% -->
    <g style="fill: #262626" transform="translate(317.211429 88.283312) scale(0.1 -0.1)">
     <defs>
      <path id="LiberationSans-35" d="M 3291 1434 
Q 3291 738 2877 337 
Q 2463 -63 1728 -63 
Q 1113 -63 734 206 
Q 356 475 256 984 
L 825 1050 
Q 1003 397 1741 397 
Q 2194 397 2450 670 
Q 2706 944 2706 1422 
Q 2706 1838 2448 2094 
Q 2191 2350 1753 2350 
Q 1525 2350 1328 2278 
Q 1131 2206 934 2034 
L 384 2034 
L 531 4403 
L 3034 4403 
L 3034 3925 
L 1044 3925 
L 959 2528 
Q 1325 2809 1869 2809 
Q 2519 2809 2905 2428 
Q 3291 2047 3291 1434 
z
" transform="scale(0.015625)"/>
     </defs>
     <use xlink:href="#LiberationSans-41"/>
     <use xlink:href="#LiberationSans-63" transform="translate(66.699219 0)"/>
     <use xlink:href="#LiberationSans-63" transform="translate(116.699219 0)"/>
     <use xlink:href="#LiberationSans-75" transform="translate(166.699219 0)"/>
     <use xlink:href="#LiberationSans-72" transform="translate(222.314453 0)"/>
     <use xlink:href="#LiberationSans-61" transform="translate(255.615234 0)"/>
     <use xlink:href="#LiberationSans-63" transform="translate(311.230469 0)"/>
     <use xlink:href="#LiberationSans-79" transform="translate(361.230469 0)"/>
     <use xlink:href="#LiberationSans-3a" transform="translate(411.230469 0)"/>
     <use xlink:href="#LiberationSans-20" transform="translate(439.013672 0)"/>
     <use xlink:href="#LiberationSans-33" transform="translate(466.796875 0)"/>
     <use xlink:href="#LiberationSans-33" transform="translate(522.412109 0)"/>
     <use xlink:href="#LiberationSans-25" transform="translate(578.027344 0)"/>
     <use xlink:href="#LiberationSans-2192" transform="translate(666.943359 0)"/>
     <use xlink:href="#LiberationSans-34" transform="translate(766.943359 0)"/>
     <use xlink:href="#LiberationSans-35" transform="translate(822.558594 0)"/>
     <use xlink:href="#LiberationSans-25" transform="translate(878.173828 0)"/>
    </g>
    <!-- Loss: 1.58→0.85 -->
    <g style="fill: #262626" transform="translate(317.211429 99.054562) scale(0.1 -0.1)">
     <defs>
      <path id="LiberationSans-38" d="M 3281 1228 
Q 3281 619 2893 278 
Q 2506 -63 1781 -63 
Q 1075 -63 676 271 
Q 278 606 278 1222 
Q 278 1653 525 1947 
Q 772 2241 1156 2303 
L 1156 2316 
Q 797 2400 589 2681 
Q 381 2963 381 3341 
Q 381 3844 757 4156 
Q 1134 4469 1769 4469 
Q 2419 4469 2795 4162 
Q 3172 3856 3172 3334 
Q 3172 2956 2962 2675 
Q 2753 2394 2391 2322 
L 2391 2309 
Q 2813 2241 3047 1952 
Q 3281 1663 3281 1228 
z
M 2588 3303 
Q 2588 4050 1769 4050 
Q 1372 4050 1164 3862 
Q 956 3675 956 3303 
Q 956 2925 1170 2726 
Q 1384 2528 1775 2528 
Q 2172 2528 2380 2711 
Q 2588 2894 2588 3303 
z
M 2697 1281 
Q 2697 1691 2453 1898 
Q 2209 2106 1769 2106 
Q 1341 2106 1100 1882 
Q 859 1659 859 1269 
Q 859 359 1788 359 
Q 2247 359 2472 579 
Q 2697 800 2697 1281 
z
" transform="scale(0.015625)"/>
     </defs>
     <use xlink:href="#LiberationSans-4c"/>
     <use xlink:href="#LiberationSans-6f" transform="translate(55.615234 0)"/>
     <use xlink:href="#LiberationSans-73" transform="translate(111.230469 0)"/>
     <use xlink:href="#LiberationSans-73" transform="translate(161.230469 0)"/>
     <use xlink:href="#LiberationSans-3a" transform="translate(211.230469 0)"/>
     <use xlink:href="#LiberationSans-20" transform="translate(239.013672 0)"/>
     <use xlink:href="#LiberationSans-31" transform="translate(266.796875 0)"/>
     <use xlink:href="#LiberationSans-2e" transform="translate(322.412109 0)"/>
     <use xlink:href="#LiberationSans-35" transform="translate(350.195312 0)"/>
     <use xlink:href="#LiberationSans-38" transform="translate(405.810547 0)"/>
     <use xlink:href="#LiberationSans-2192" transform="translate(461.425781 0)"/>
     <use xlink:href="#LiberationSans-30" transform="translate(561.425781 0)"/>
     <use xlink:href="#LiberationSans-2e" transform="translate(617.041016 0)"/>
     <use xlink:href="#LiberationSans-38" transform="translate(644.824219 0)"/>
     <use xlink:href="#LiberationSans-35" transform="translate(700.439453 0)"/>
    </g>
   </g>
   <g id="text_11">
    <!-- Key Findings Timeline -->
    <g style="fill: #262626" transform="translate(415.64375 18.795) scale(0.16 -0.16)">
     <defs>
      <path id="LiberationSans-Bold-4b" d="M 3475 0 
L 1894 2022 
L 1350 1606 
L 1350 0 
L 428 0 
L 428 4403 
L 1350 4403 
L 1350 2406 
L 3334 4403 
L 4409 4403 
L 2528 2541 
L 4563 0 
L 3475 0 
z
" transform="scale(0.015625)"/>
      <path id="LiberationSans-Bold-79" d="M 884 -1328 
Q 569 -1328 331 -1288 
L 331 -663 
Q 497 -688 634 -688 
Q 822 -688 945 -628 
Q 1069 -569 1167 -431 
Q 1266 -294 1388 34 
L 50 3381 
L 978 3381 
L 1509 1797 
Q 1634 1456 1825 753 
L 1903 1050 
L 2106 1784 
L 2606 3381 
L 3525 3381 
L 2188 -178 
Q 1919 -828 1630 -1078 
Q 1341 -1328 884 -1328 
z
" transform="scale(0.015625)"/>
      <path id="LiberationSans-Bold-46" d="M 1350 3691 
L 1350 2328 
L 3603 2328 
L 3603 1616 
L 1350 1616 
L 1350 0 
L 428 0 
L 428 4403 
L 3675 4403 
L 3675 3691 
L 1350 3691 
z
" transform="scale(0.015625)"/>
      <path id="LiberationSans-Bold-6d" d="M 2438 0 
L 2438 1897 
Q 2438 2788 1925 2788 
Q 1659 2788 1492 2516 
Q 1325 2244 1325 1813 
L 1325 0 
L 447 0 
L 447 2625 
Q 447 2897 439 3070 
Q 431 3244 422 3381 
L 1259 3381 
Q 1269 3322 1284 3064 
Q 1300 2806 1300 2709 
L 1313 2709 
Q 1475 3097 1717 3272 
Q 1959 3447 2297 3447 
Q 3072 3447 3238 2709 
L 3256 2709 
Q 3428 3103 3668 3275 
Q 3909 3447 4281 3447 
Q 4775 3447 5034 3111 
Q 5294 2775 5294 2147 
L 5294 0 
L 4422 0 
L 4422 1897 
Q 4422 2788 3909 2788 
Q 3653 2788 3489 2539 
Q 3325 2291 3309 1853 
L 3309 0 
L 2438 0 
z
" transform="scale(0.015625)"/>
     </defs>
     <use xlink:href="#LiberationSans-Bold-4b"/>
     <use xlink:href="#LiberationSans-Bold-65" transform="translate(72.216797 0)"/>
     <use xlink:href="#LiberationSans-Bold-79" transform="translate(127.832031 0)"/>
     <use xlink:href="#LiberationSans-Bold-20" transform="translate(183.447266 0)"/>
     <use xlink:href="#LiberationSans-Bold-46" transform="translate(211.230469 0)"/>
     <use xlink:href="#LiberationSans-Bold-69" transform="translate(272.314453 0)"/>
     <use xlink:href="#LiberationSans-Bold-6e" transform="translate(300.097656 0)"/>
     <use xlink:href="#LiberationSans-Bold-64" transform="translate(361.181641 0)"/>
     <use xlink:href="#LiberationSans-Bold-69" transform="translate(422.265625 0)"/>
     <use xlink:href="#LiberationSans-Bold-6e" transform="translate(450.048828 0)"/>
     <use xlink:href="#LiberationSans-Bold-67" transform="translate(511.132812 0)"/>
     <use xlink:href="#LiberationSans-Bold-73" transform="translate(572.216797 0)"/>
     <use xlink:href="#LiberationSans-Bold-20" transform="translate(627.832031 0)"/>
     <use xlink:href="#LiberationSans-Bold-54" transform="translate(655.615234 0)"/>
     <use xlink:href="#LiberationSans-Bold-69" transform="translate(714.949219 0)"/>
     <use xlink:href="#LiberationSans-Bold-6d" transform="translate(742.732422 0)"/>
     <use xlink:href="#LiberationSans-Bold-65" transform="translate(831.648438 0)"/>
     <use xlink:href="#LiberationSans-Bold-6c" transform="translate(887.263672 0)"/>
     <use xlink:href="#LiberationSans-Bold-69" transform="translate(915.046875 0)"/>
     <use xlink:href="#LiberationSans-Bold-6e" transform="translate(942.830078 0)"/>
     <use xlink:href="#LiberationSans-Bold-65" transform="translate(1003.914062 0)"/>
    </g>
   </g>
  </g>
 </g>
 <defs>
  <clipPath id="p77282d830f">
   <rect x="7.2" y="38.795" width="986.4" height="522.88"/>
  </clipPath>
 </defs>
</svg>
