<?xml version="1.0" encoding="utf-8" standalone="no"?>
<!DOCTYPE svg PUBLIC "-//W3C//DTD SVG 1.1//EN"
  "http://www.w3.org/Graphics/SVG/1.1/DTD/svg11.dtd">
<svg xmlns:xlink="http://www.w3.org/1999/xlink" width="856.8pt" height="568.875pt" viewBox="0 0 856.8 568.875" xmlns="http://www.w3.org/2000/svg" version="1.1">
 <metadata>
  <rdf:RDF xmlns:dc="http://purl.org/dc/elements/1.1/" xmlns:cc="http://creativecommons.org/ns#" xmlns:rdf="http://www.w3.org/1999/02/22-rdf-syntax-ns#">
   <cc:Work>
    <dc:type rdf:resource="http://purl.org/dc/dcmitype/StillImage"/>
    <dc:date>2026-05-10T12:40:44.204023</dc:date>
    <dc:format>image/svg+xml</dc:format>
    <dc:creator>
     <cc:Agent>
      <dc:title>Matplotlib v3.10.9, https://matplotlib.org/</dc:title>
     </cc:Agent>
    </dc:creator>
   </cc:Work>
  </rdf:RDF>
 </metadata>
 <defs>
  <style type="text/css">*{stroke-linejoin: round; stroke-linecap: butt}</style>
 </defs>
 <g id="figure_1">
  <g id="patch_1">
   <path d="M 0 568.875 
L 856.8 568.875 
L 856.8 0 
L 0 0 
z
" style="fill: #ffffff"/>
  </g>
  <g id="axes_1">
   <g id="patch_2">
    <path d="M 7.2 561.675 
L 849.6 561.675 
L 849.6 38.795 
L 7.2 38.795 
z
" style="fill: #eaeaf2"/>
   </g>
   <g id="matplotlib.axis_1"/>
   <g id="matplotlib.axis_2"/>
   <g id="patch_3">
    <path d="M 7.2 544.245667 
L 288 544.245667 
L 288 491.957667 
L 7.2 491.957667 
z
" clip-path="url(#p3b21c85d90)" style="fill: #0000ff; opacity: 0.3; stroke: #0000ff; stroke-width: 2; stroke-linejoin: miter"/>
   </g>
   <g id="patch_4">
    <path d="M 7.2 457.099 
L 288 457.099 
L 288 404.811 
L 7.2 404.811 
z
" clip-path="url(#p3b21c85d90)" style="fill: #800080; opacity: 0.3; stroke: #800080; stroke-width: 2; stroke-linejoin: miter"/>
   </g>
   <g id="patch_5">
    <path d="M 7.2 369.952333 
L 288 369.952333 
L 288 317.664333 
L 7.2 317.664333 
z
" clip-path="url(#p3b21c85d90)" style="fill: #800080; opacity: 0.3; stroke: #800080; stroke-width: 2; stroke-linejoin: miter"/>
   </g>
   <g id="patch_6">
    <path d="M 7.2 282.805667 
L 288 282.805667 
L 288 230.517667 
L 7.2 230.517667 
z
" clip-path="url(#p3b21c85d90)" style="fill: #0000ff; opacity: 0.3; stroke: #0000ff; stroke-width: 2; stroke-linejoin: miter"/>
   </g>
   <g id="patch_7">
    <path d="M 7.2 195.659 
L 288 195.659 
L 288 143.371 
L 7.2 143.371 
z
" clip-path="url(#p3b21c85d90)" style="fill: #0000ff; opacity: 0.3; stroke: #0000ff; stroke-width: 2; stroke-linejoin: miter"/>
   </g>
   <g id="patch_8">
    <path d="M 7.2 108.512333 
L 288 108.512333 
L 288 56.224333 
L 7.2 56.224333 
z
" clip-path="url(#p3b21c85d90)" style="fill: #800080; opacity: 0.3; stroke: #800080; stroke-width: 2; stroke-linejoin: miter"/>
   </g>
   <g id="text_1">
    <!-- Scale to 10K+ Real Transactions -->
    <g style="fill: #262626" transform="translate(63.079609 520.946198) scale(0.11 -0.11)">
     <defs>
      <path id="LiberationSans-Bold-53" d="M 4019 1269 
Q 4019 622 3539 279 
Q 3059 -63 2131 -63 
Q 1284 -63 803 237 
Q 322 538 184 1147 
L 1075 1294 
Q 1166 944 1428 786 
Q 1691 628 2156 628 
Q 3122 628 3122 1216 
Q 3122 1403 3011 1525 
Q 2900 1647 2698 1728 
Q 2497 1809 1925 1925 
Q 1431 2041 1237 2111 
Q 1044 2181 887 2276 
Q 731 2372 622 2506 
Q 513 2641 452 2822 
Q 391 3003 391 3238 
Q 391 3834 839 4151 
Q 1288 4469 2144 4469 
Q 2963 4469 3373 4212 
Q 3784 3956 3903 3366 
L 3009 3244 
Q 2941 3528 2730 3672 
Q 2519 3816 2125 3816 
Q 1288 3816 1288 3291 
Q 1288 3119 1377 3009 
Q 1466 2900 1641 2823 
Q 1816 2747 2350 2631 
Q 2984 2497 3257 2383 
Q 3531 2269 3690 2117 
Q 3850 1966 3934 1755 
Q 4019 1544 4019 1269 
z
" transform="scale(0.015625)"/>
      <path id="LiberationSans-Bold-63" d="M 1856 -63 
Q 1088 -63 669 395 
Q 250 853 250 1672 
Q 250 2509 672 2976 
Q 1094 3444 1869 3444 
Q 2466 3444 2856 3144 
Q 3247 2844 3347 2316 
L 2463 2272 
Q 2425 2531 2275 2686 
Q 2125 2841 1850 2841 
Q 1172 2841 1172 1706 
Q 1172 538 1863 538 
Q 2113 538 2281 695 
Q 2450 853 2491 1166 
L 3372 1125 
Q 3325 778 3123 506 
Q 2922 234 2594 85 
Q 2266 -63 1856 -63 
z
" transform="scale(0.015625)"/>
      <path id="LiberationSans-Bold-61" d="M 1228 -63 
Q 738 -63 463 204 
Q 188 472 188 956 
Q 188 1481 530 1756 
Q 872 2031 1522 2038 
L 2250 2050 
L 2250 2222 
Q 2250 2553 2134 2714 
Q 2019 2875 1756 2875 
Q 1513 2875 1398 2764 
Q 1284 2653 1256 2397 
L 341 2441 
Q 425 2934 792 3189 
Q 1159 3444 1794 3444 
Q 2434 3444 2781 3128 
Q 3128 2813 3128 2231 
L 3128 1000 
Q 3128 716 3192 608 
Q 3256 500 3406 500 
Q 3506 500 3600 519 
L 3600 44 
Q 3522 25 3459 9 
Q 3397 -6 3334 -15 
Q 3272 -25 3201 -31 
Q 3131 -38 3038 -38 
Q 2706 -38 2548 125 
Q 2391 288 2359 603 
L 2341 603 
Q 1972 -63 1228 -63 
z
M 2250 1566 
L 1800 1559 
Q 1494 1547 1366 1492 
Q 1238 1438 1170 1325 
Q 1103 1213 1103 1025 
Q 1103 784 1214 667 
Q 1325 550 1509 550 
Q 1716 550 1886 662 
Q 2056 775 2153 973 
Q 2250 1172 2250 1394 
L 2250 1566 
z
" transform="scale(0.015625)"/>
      <path id="LiberationSans-Bold-6c" d="M 447 0 
L 447 4638 
L 1325 4638 
L 1325 0 
L 447 0 
z
" transform="scale(0.015625)"/>
      <path id="LiberationSans-Bold-65" d="M 1831 -63 
Q 1069 -63 659 389 
Q 250 841 250 1706 
Q 250 2544 665 2994 
Q 1081 3444 1844 3444 
Q 2572 3444 2956 2961 
Q 3341 2478 3341 1547 
L 3341 1522 
L 1172 1522 
Q 1172 1028 1355 776 
Q 1538 525 1875 525 
Q 2341 525 2463 928 
L 3291 856 
Q 2931 -63 1831 -63 
z
M 1831 2891 
Q 1522 2891 1355 2675 
Q 1188 2459 1178 2072 
L 2491 2072 
Q 2466 2481 2294 2686 
Q 2122 2891 1831 2891 
z
" transform="scale(0.015625)"/>
      <path id="LiberationSans-Bold-20" transform="scale(0.015625)"/>
      <path id="LiberationSans-Bold-74" d="M 1313 -56 
Q 925 -56 715 155 
Q 506 366 506 794 
L 506 2788 
L 78 2788 
L 78 3381 
L 550 3381 
L 825 4175 
L 1375 4175 
L 1375 3381 
L 2016 3381 
L 2016 2788 
L 1375 2788 
L 1375 1031 
Q 1375 784 1469 667 
Q 1563 550 1759 550 
Q 1863 550 2053 594 
L 2053 50 
Q 1728 -56 1313 -56 
z
" transform="scale(0.015625)"/>
      <path id="LiberationSans-Bold-6f" d="M 3659 1694 
Q 3659 872 3203 404 
Q 2747 -63 1941 -63 
Q 1150 -63 700 406 
Q 250 875 250 1694 
Q 250 2509 700 2976 
Q 1150 3444 1959 3444 
Q 2788 3444 3223 2992 
Q 3659 2541 3659 1694 
z
M 2741 1694 
Q 2741 2297 2544 2569 
Q 2347 2841 1972 2841 
Q 1172 2841 1172 1694 
Q 1172 1128 1367 833 
Q 1563 538 1931 538 
Q 2741 538 2741 1694 
z
" transform="scale(0.015625)"/>
      <path id="LiberationSans-Bold-31" d="M 403 0 
L 403 653 
L 1494 653 
L 1494 3656 
L 438 2997 
L 438 3688 
L 1541 4403 
L 2372 4403 
L 2372 653 
L 3381 653 
L 3381 0 
L 403 0 
z
" transform="scale(0.015625)"/>
      <path id="LiberationSans-Bold-30" d="M 3297 2203 
Q 3297 1088 2914 512 
Q 2531 -63 1766 -63 
Q 253 -63 253 2203 
Q 253 2994 418 3494 
Q 584 3994 915 4231 
Q 1247 4469 1791 4469 
Q 2572 4469 2934 3903 
Q 3297 3338 3297 2203 
z
M 2416 2203 
Q 2416 2813 2356 3150 
Q 2297 3488 2165 3634 
Q 2034 3781 1784 3781 
Q 1519 3781 1383 3632 
Q 1247 3484 1189 3148 
Q 1131 2813 1131 2203 
Q 1131 1600 1192 1261 
Q 1253 922 1386 775 
Q 1519 628 1772 628 
Q 2022 628 2158 783 
Q 2294 938 2355 1278 
Q 2416 1619 2416 2203 
z
" transform="scale(0.015625)"/>
      <path id="LiberationSans-Bold-4b" d="M 3475 0 
L 1894 2022 
L 1350 1606 
L 1350 0 
L 428 0 
L 428 4403 
L 1350 4403 
L 1350 2406 
L 3334 4403 
L 4409 4403 
L 2528 2541 
L 4563 0 
L 3475 0 
z
" transform="scale(0.015625)"/>
      <path id="LiberationSans-Bold-2b" d="M 2222 1778 
L 2222 503 
L 1516 503 
L 1516 1778 
L 269 1778 
L 269 2478 
L 1516 2478 
L 1516 3753 
L 2222 3753 
L 2222 2478 
L 3478 2478 
L 3478 1778 
L 2222 1778 
z
" transform="scale(0.015625)"/>
      <path id="LiberationSans-Bold-52" d="M 3453 0 
L 2431 1672 
L 1350 1672 
L 1350 0 
L 428 0 
L 428 4403 
L 2628 4403 
Q 3416 4403 3844 4064 
Q 4272 3725 4272 3091 
Q 4272 2628 4009 2292 
Q 3747 1956 3300 1850 
L 4491 0 
L 3453 0 
z
M 3344 3053 
Q 3344 3688 2531 3688 
L 1350 3688 
L 1350 2388 
L 2556 2388 
Q 2944 2388 3144 2563 
Q 3344 2738 3344 3053 
z
" transform="scale(0.015625)"/>
      <path id="LiberationSans-Bold-54" d="M 2416 3691 
L 2416 0 
L 1494 0 
L 1494 3691 
L 72 3691 
L 72 4403 
L 3841 4403 
L 3841 3691 
L 2416 3691 
z
" transform="scale(0.015625)"/>
      <path id="LiberationSans-Bold-72" d="M 447 0 
L 447 2588 
Q 447 2866 439 3052 
Q 431 3238 422 3381 
L 1259 3381 
Q 1269 3325 1284 3039 
Q 1300 2753 1300 2659 
L 1313 2659 
Q 1441 3016 1541 3161 
Q 1641 3306 1778 3376 
Q 1916 3447 2122 3447 
Q 2291 3447 2394 3400 
L 2394 2666 
Q 2181 2713 2019 2713 
Q 1691 2713 1508 2447 
Q 1325 2181 1325 1659 
L 1325 0 
L 447 0 
z
" transform="scale(0.015625)"/>
      <path id="LiberationSans-Bold-6e" d="M 2638 0 
L 2638 1897 
Q 2638 2788 2034 2788 
Q 1716 2788 1520 2514 
Q 1325 2241 1325 1813 
L 1325 0 
L 447 0 
L 447 2625 
Q 447 2897 439 3070 
Q 431 3244 422 3381 
L 1259 3381 
Q 1269 3322 1284 3064 
Q 1300 2806 1300 2709 
L 1313 2709 
Q 1491 3097 1759 3272 
Q 2028 3447 2400 3447 
Q 2938 3447 3225 3115 
Q 3513 2784 3513 2147 
L 3513 0 
L 2638 0 
z
" transform="scale(0.015625)"/>
      <path id="LiberationSans-Bold-73" d="M 3297 988 
Q 3297 497 2895 217 
Q 2494 -63 1784 -63 
Q 1088 -63 717 157 
Q 347 378 225 844 
L 997 959 
Q 1063 719 1223 619 
Q 1384 519 1784 519 
Q 2153 519 2322 612 
Q 2491 706 2491 906 
Q 2491 1069 2355 1164 
Q 2219 1259 1894 1325 
Q 1150 1472 890 1598 
Q 631 1725 495 1926 
Q 359 2128 359 2422 
Q 359 2906 732 3176 
Q 1106 3447 1791 3447 
Q 2394 3447 2761 3212 
Q 3128 2978 3219 2534 
L 2441 2453 
Q 2403 2659 2256 2761 
Q 2109 2863 1791 2863 
Q 1478 2863 1322 2783 
Q 1166 2703 1166 2516 
Q 1166 2369 1286 2283 
Q 1406 2197 1691 2141 
Q 2088 2059 2395 1973 
Q 2703 1888 2889 1769 
Q 3075 1650 3186 1464 
Q 3297 1278 3297 988 
z
" transform="scale(0.015625)"/>
      <path id="LiberationSans-Bold-69" d="M 447 3991 
L 447 4638 
L 1325 4638 
L 1325 3991 
L 447 3991 
z
M 447 0 
L 447 3381 
L 1325 3381 
L 1325 0 
L 447 0 
z
" transform="scale(0.015625)"/>
     </defs>
     <use xlink:href="#LiberationSans-Bold-53"/>
     <use xlink:href="#LiberationSans-Bold-63" transform="translate(66.699219 0)"/>
     <use xlink:href="#LiberationSans-Bold-61" transform="translate(122.314453 0)"/>
     <use xlink:href="#LiberationSans-Bold-6c" transform="translate(177.929688 0)"/>
     <use xlink:href="#LiberationSans-Bold-65" transform="translate(205.712891 0)"/>
     <use xlink:href="#LiberationSans-Bold-20" transform="translate(261.328125 0)"/>
     <use xlink:href="#LiberationSans-Bold-74" transform="translate(289.111328 0)"/>
     <use xlink:href="#LiberationSans-Bold-6f" transform="translate(322.412109 0)"/>
     <use xlink:href="#LiberationSans-Bold-20" transform="translate(383.496094 0)"/>
     <use xlink:href="#LiberationSans-Bold-31" transform="translate(411.279297 0)"/>
     <use xlink:href="#LiberationSans-Bold-30" transform="translate(466.894531 0)"/>
     <use xlink:href="#LiberationSans-Bold-4b" transform="translate(522.509766 0)"/>
     <use xlink:href="#LiberationSans-Bold-2b" transform="translate(594.726562 0)"/>
     <use xlink:href="#LiberationSans-Bold-20" transform="translate(653.125 0)"/>
     <use xlink:href="#LiberationSans-Bold-52" transform="translate(680.908203 0)"/>
     <use xlink:href="#LiberationSans-Bold-65" transform="translate(753.125 0)"/>
     <use xlink:href="#LiberationSans-Bold-61" transform="translate(808.740234 0)"/>
     <use xlink:href="#LiberationSans-Bold-6c" transform="translate(864.355469 0)"/>
     <use xlink:href="#LiberationSans-Bold-20" transform="translate(892.138672 0)"/>
     <use xlink:href="#LiberationSans-Bold-54" transform="translate(919.921875 0)"/>
     <use xlink:href="#LiberationSans-Bold-72" transform="translate(975.505859 0)"/>
     <use xlink:href="#LiberationSans-Bold-61" transform="translate(1014.421875 0)"/>
     <use xlink:href="#LiberationSans-Bold-6e" transform="translate(1070.037109 0)"/>
     <use xlink:href="#LiberationSans-Bold-73" transform="translate(1131.121094 0)"/>
     <use xlink:href="#LiberationSans-Bold-61" transform="translate(1186.736328 0)"/>
     <use xlink:href="#LiberationSans-Bold-63" transform="translate(1242.351562 0)"/>
     <use xlink:href="#LiberationSans-Bold-74" transform="translate(1297.966797 0)"/>
     <use xlink:href="#LiberationSans-Bold-69" transform="translate(1331.267578 0)"/>
     <use xlink:href="#LiberationSans-Bold-6f" transform="translate(1359.050781 0)"/>
     <use xlink:href="#LiberationSans-Bold-6e" transform="translate(1420.134766 0)"/>
     <use xlink:href="#LiberationSans-Bold-73" transform="translate(1481.21875 0)"/>
    </g>
   </g>
   <g id="text_2">
    <!-- Use Hedera SDK or local mirror node -->
    <g style="fill: #262626" transform="translate(316.08 520.42901) scale(0.09 -0.09)">
     <defs>
      <path id="LiberationSans-55" d="M 2284 -63 
Q 1744 -63 1341 134 
Q 938 331 716 706 
Q 494 1081 494 1600 
L 494 4403 
L 1091 4403 
L 1091 1650 
Q 1091 1047 1397 734 
Q 1703 422 2281 422 
Q 2875 422 3204 745 
Q 3534 1069 3534 1691 
L 3534 4403 
L 4128 4403 
L 4128 1656 
Q 4128 1122 3901 734 
Q 3675 347 3261 142 
Q 2847 -63 2284 -63 
z
" transform="scale(0.015625)"/>
      <path id="LiberationSans-73" d="M 2969 934 
Q 2969 456 2608 196 
Q 2247 -63 1597 -63 
Q 966 -63 623 145 
Q 281 353 178 794 
L 675 891 
Q 747 619 972 492 
Q 1197 366 1597 366 
Q 2025 366 2223 497 
Q 2422 628 2422 891 
Q 2422 1091 2284 1216 
Q 2147 1341 1841 1422 
L 1438 1528 
Q 953 1653 748 1773 
Q 544 1894 428 2066 
Q 313 2238 313 2488 
Q 313 2950 642 3192 
Q 972 3434 1603 3434 
Q 2163 3434 2492 3237 
Q 2822 3041 2909 2606 
L 2403 2544 
Q 2356 2769 2151 2889 
Q 1947 3009 1603 3009 
Q 1222 3009 1040 2893 
Q 859 2778 859 2544 
Q 859 2400 934 2306 
Q 1009 2213 1156 2147 
Q 1303 2081 1775 1966 
Q 2222 1853 2419 1758 
Q 2616 1663 2730 1547 
Q 2844 1431 2906 1279 
Q 2969 1128 2969 934 
z
" transform="scale(0.015625)"/>
      <path id="LiberationSans-65" d="M 863 1572 
Q 863 991 1103 675 
Q 1344 359 1806 359 
Q 2172 359 2392 506 
Q 2613 653 2691 878 
L 3184 738 
Q 2881 -63 1806 -63 
Q 1056 -63 664 384 
Q 272 831 272 1713 
Q 272 2550 664 2997 
Q 1056 3444 1784 3444 
Q 3275 3444 3275 1647 
L 3275 1572 
L 863 1572 
z
M 2694 2003 
Q 2647 2538 2422 2783 
Q 2197 3028 1775 3028 
Q 1366 3028 1127 2754 
Q 888 2481 869 2003 
L 2694 2003 
z
" transform="scale(0.015625)"/>
      <path id="LiberationSans-20" transform="scale(0.015625)"/>
      <path id="LiberationSans-48" d="M 3503 0 
L 3503 2041 
L 1122 2041 
L 1122 0 
L 525 0 
L 525 4403 
L 1122 4403 
L 1122 2541 
L 3503 2541 
L 3503 4403 
L 4100 4403 
L 4100 0 
L 3503 0 
z
" transform="scale(0.015625)"/>
      <path id="LiberationSans-64" d="M 2566 544 
Q 2409 219 2151 78 
Q 1894 -63 1513 -63 
Q 872 -63 570 368 
Q 269 800 269 1675 
Q 269 3444 1513 3444 
Q 1897 3444 2153 3303 
Q 2409 3163 2566 2856 
L 2572 2856 
L 2566 3234 
L 2566 4638 
L 3128 4638 
L 3128 697 
Q 3128 169 3147 0 
L 2609 0 
Q 2600 50 2589 231 
Q 2578 413 2578 544 
L 2566 544 
z
M 859 1694 
Q 859 984 1046 678 
Q 1234 372 1656 372 
Q 2134 372 2350 703 
Q 2566 1034 2566 1731 
Q 2566 2403 2350 2715 
Q 2134 3028 1663 3028 
Q 1238 3028 1048 2714 
Q 859 2400 859 1694 
z
" transform="scale(0.015625)"/>
      <path id="LiberationSans-72" d="M 444 0 
L 444 2594 
Q 444 2950 425 3381 
L 956 3381 
Q 981 2806 981 2691 
L 994 2691 
Q 1128 3125 1303 3284 
Q 1478 3444 1797 3444 
Q 1909 3444 2025 3413 
L 2025 2897 
Q 1913 2928 1725 2928 
Q 1375 2928 1190 2626 
Q 1006 2325 1006 1763 
L 1006 0 
L 444 0 
z
" transform="scale(0.015625)"/>
      <path id="LiberationSans-61" d="M 1294 -63 
Q 784 -63 528 206 
Q 272 475 272 944 
Q 272 1469 617 1750 
Q 963 2031 1731 2050 
L 2491 2063 
L 2491 2247 
Q 2491 2659 2316 2837 
Q 2141 3016 1766 3016 
Q 1388 3016 1216 2887 
Q 1044 2759 1009 2478 
L 422 2531 
Q 566 3444 1778 3444 
Q 2416 3444 2737 3151 
Q 3059 2859 3059 2306 
L 3059 850 
Q 3059 600 3125 473 
Q 3191 347 3375 347 
Q 3456 347 3559 369 
L 3559 19 
Q 3347 -31 3125 -31 
Q 2813 -31 2670 133 
Q 2528 297 2509 647 
L 2491 647 
Q 2275 259 1989 98 
Q 1703 -63 1294 -63 
z
M 1422 359 
Q 1731 359 1972 500 
Q 2213 641 2352 886 
Q 2491 1131 2491 1391 
L 2491 1669 
L 1875 1656 
Q 1478 1650 1273 1575 
Q 1069 1500 959 1344 
Q 850 1188 850 934 
Q 850 659 998 509 
Q 1147 359 1422 359 
z
" transform="scale(0.015625)"/>
      <path id="LiberationSans-53" d="M 3975 1216 
Q 3975 606 3498 271 
Q 3022 -63 2156 -63 
Q 547 -63 291 1056 
L 869 1172 
Q 969 775 1294 589 
Q 1619 403 2178 403 
Q 2756 403 3070 601 
Q 3384 800 3384 1184 
Q 3384 1400 3286 1534 
Q 3188 1669 3009 1756 
Q 2831 1844 2584 1903 
Q 2338 1963 2038 2031 
Q 1516 2147 1245 2262 
Q 975 2378 819 2520 
Q 663 2663 580 2853 
Q 497 3044 497 3291 
Q 497 3856 930 4162 
Q 1363 4469 2169 4469 
Q 2919 4469 3316 4239 
Q 3713 4009 3872 3456 
L 3284 3353 
Q 3188 3703 2916 3861 
Q 2644 4019 2163 4019 
Q 1634 4019 1356 3844 
Q 1078 3669 1078 3322 
Q 1078 3119 1186 2986 
Q 1294 2853 1497 2761 
Q 1700 2669 2306 2534 
Q 2509 2488 2711 2439 
Q 2913 2391 3097 2323 
Q 3281 2256 3442 2165 
Q 3603 2075 3722 1944 
Q 3841 1813 3908 1634 
Q 3975 1456 3975 1216 
z
" transform="scale(0.015625)"/>
      <path id="LiberationSans-44" d="M 4316 2247 
Q 4316 1566 4050 1055 
Q 3784 544 3296 272 
Q 2809 0 2172 0 
L 525 0 
L 525 4403 
L 1981 4403 
Q 3100 4403 3708 3842 
Q 4316 3281 4316 2247 
z
M 3716 2247 
Q 3716 3066 3267 3495 
Q 2819 3925 1969 3925 
L 1122 3925 
L 1122 478 
L 2103 478 
Q 2588 478 2955 690 
Q 3322 903 3519 1303 
Q 3716 1703 3716 2247 
z
" transform="scale(0.015625)"/>
      <path id="LiberationSans-4b" d="M 3456 0 
L 1697 2125 
L 1122 1688 
L 1122 0 
L 525 0 
L 525 4403 
L 1122 4403 
L 1122 2197 
L 3244 4403 
L 3947 4403 
L 2072 2491 
L 4197 0 
L 3456 0 
z
" transform="scale(0.015625)"/>
      <path id="LiberationSans-6f" d="M 3291 1694 
Q 3291 806 2900 371 
Q 2509 -63 1766 -63 
Q 1025 -63 647 389 
Q 269 841 269 1694 
Q 269 3444 1784 3444 
Q 2559 3444 2925 3017 
Q 3291 2591 3291 1694 
z
M 2700 1694 
Q 2700 2394 2492 2711 
Q 2284 3028 1794 3028 
Q 1300 3028 1079 2704 
Q 859 2381 859 1694 
Q 859 1025 1076 689 
Q 1294 353 1759 353 
Q 2266 353 2483 678 
Q 2700 1003 2700 1694 
z
" transform="scale(0.015625)"/>
      <path id="LiberationSans-6c" d="M 431 0 
L 431 4638 
L 994 4638 
L 994 0 
L 431 0 
z
" transform="scale(0.015625)"/>
      <path id="LiberationSans-63" d="M 859 1706 
Q 859 1031 1071 706 
Q 1284 381 1713 381 
Q 2013 381 2214 543 
Q 2416 706 2463 1044 
L 3031 1006 
Q 2966 519 2616 228 
Q 2266 -63 1728 -63 
Q 1019 -63 645 385 
Q 272 834 272 1694 
Q 272 2547 647 2995 
Q 1022 3444 1722 3444 
Q 2241 3444 2583 3175 
Q 2925 2906 3013 2434 
L 2434 2391 
Q 2391 2672 2212 2837 
Q 2034 3003 1706 3003 
Q 1259 3003 1059 2706 
Q 859 2409 859 1706 
z
" transform="scale(0.015625)"/>
      <path id="LiberationSans-6d" d="M 2400 0 
L 2400 2144 
Q 2400 2634 2265 2821 
Q 2131 3009 1781 3009 
Q 1422 3009 1212 2734 
Q 1003 2459 1003 1959 
L 1003 0 
L 444 0 
L 444 2659 
Q 444 3250 425 3381 
L 956 3381 
Q 959 3366 962 3297 
Q 966 3228 970 3139 
Q 975 3050 981 2803 
L 991 2803 
Q 1172 3163 1406 3303 
Q 1641 3444 1978 3444 
Q 2363 3444 2586 3291 
Q 2809 3138 2897 2803 
L 2906 2803 
Q 3081 3144 3329 3294 
Q 3578 3444 3931 3444 
Q 4444 3444 4676 3166 
Q 4909 2888 4909 2253 
L 4909 0 
L 4353 0 
L 4353 2144 
Q 4353 2634 4218 2821 
Q 4084 3009 3734 3009 
Q 3366 3009 3161 2736 
Q 2956 2463 2956 1959 
L 2956 0 
L 2400 0 
z
" transform="scale(0.015625)"/>
      <path id="LiberationSans-69" d="M 428 4100 
L 428 4638 
L 991 4638 
L 991 4100 
L 428 4100 
z
M 428 0 
L 428 3381 
L 991 3381 
L 991 0 
L 428 0 
z
" transform="scale(0.015625)"/>
      <path id="LiberationSans-6e" d="M 2578 0 
L 2578 2144 
Q 2578 2478 2512 2662 
Q 2447 2847 2303 2928 
Q 2159 3009 1881 3009 
Q 1475 3009 1240 2731 
Q 1006 2453 1006 1959 
L 1006 0 
L 444 0 
L 444 2659 
Q 444 3250 425 3381 
L 956 3381 
Q 959 3366 962 3297 
Q 966 3228 970 3139 
Q 975 3050 981 2803 
L 991 2803 
Q 1184 3153 1439 3298 
Q 1694 3444 2072 3444 
Q 2628 3444 2886 3167 
Q 3144 2891 3144 2253 
L 3144 0 
L 2578 0 
z
" transform="scale(0.015625)"/>
     </defs>
     <use xlink:href="#LiberationSans-55"/>
     <use xlink:href="#LiberationSans-73" transform="translate(72.216797 0)"/>
     <use xlink:href="#LiberationSans-65" transform="translate(122.216797 0)"/>
     <use xlink:href="#LiberationSans-20" transform="translate(177.832031 0)"/>
     <use xlink:href="#LiberationSans-48" transform="translate(205.615234 0)"/>
     <use xlink:href="#LiberationSans-65" transform="translate(277.832031 0)"/>
     <use xlink:href="#LiberationSans-64" transform="translate(333.447266 0)"/>
     <use xlink:href="#LiberationSans-65" transform="translate(389.0625 0)"/>
     <use xlink:href="#LiberationSans-72" transform="translate(444.677734 0)"/>
     <use xlink:href="#LiberationSans-61" transform="translate(477.978516 0)"/>
     <use xlink:href="#LiberationSans-20" transform="translate(533.59375 0)"/>
     <use xlink:href="#LiberationSans-53" transform="translate(561.376953 0)"/>
     <use xlink:href="#LiberationSans-44" transform="translate(628.076172 0)"/>
     <use xlink:href="#LiberationSans-4b" transform="translate(700.292969 0)"/>
     <use xlink:href="#LiberationSans-20" transform="translate(766.992188 0)"/>
     <use xlink:href="#LiberationSans-6f" transform="translate(794.775391 0)"/>
     <use xlink:href="#LiberationSans-72" transform="translate(850.390625 0)"/>
     <use xlink:href="#LiberationSans-20" transform="translate(883.691406 0)"/>
     <use xlink:href="#LiberationSans-6c" transform="translate(911.474609 0)"/>
     <use xlink:href="#LiberationSans-6f" transform="translate(933.691406 0)"/>
     <use xlink:href="#LiberationSans-63" transform="translate(989.306641 0)"/>
     <use xlink:href="#LiberationSans-61" transform="translate(1039.306641 0)"/>
     <use xlink:href="#LiberationSans-6c" transform="translate(1094.921875 0)"/>
     <use xlink:href="#LiberationSans-20" transform="translate(1117.138672 0)"/>
     <use xlink:href="#LiberationSans-6d" transform="translate(1144.921875 0)"/>
     <use xlink:href="#LiberationSans-69" transform="translate(1228.222656 0)"/>
     <use xlink:href="#LiberationSans-72" transform="translate(1250.439453 0)"/>
     <use xlink:href="#LiberationSans-72" transform="translate(1283.740234 0)"/>
     <use xlink:href="#LiberationSans-6f" transform="translate(1317.041016 0)"/>
     <use xlink:href="#LiberationSans-72" transform="translate(1372.65625 0)"/>
     <use xlink:href="#LiberationSans-20" transform="translate(1405.957031 0)"/>
     <use xlink:href="#LiberationSans-6e" transform="translate(1433.740234 0)"/>
     <use xlink:href="#LiberationSans-6f" transform="translate(1489.355469 0)"/>
     <use xlink:href="#LiberationSans-64" transform="translate(1544.970703 0)"/>
     <use xlink:href="#LiberationSans-65" transform="translate(1600.585938 0)"/>
    </g>
   </g>
   <g id="text_3">
    <!-- Hyperparameter Tuning -->
    <g style="fill: #262626" transform="translate(85.967344 433.775469) scale(0.11 -0.11)">
     <defs>
      <path id="LiberationSans-Bold-48" d="M 3269 0 
L 3269 1888 
L 1350 1888 
L 1350 0 
L 428 0 
L 428 4403 
L 1350 4403 
L 1350 2650 
L 3269 2650 
L 3269 4403 
L 4191 4403 
L 4191 0 
L 3269 0 
z
" transform="scale(0.015625)"/>
      <path id="LiberationSans-Bold-79" d="M 884 -1328 
Q 569 -1328 331 -1288 
L 331 -663 
Q 497 -688 634 -688 
Q 822 -688 945 -628 
Q 1069 -569 1167 -431 
Q 1266 -294 1388 34 
L 50 3381 
L 978 3381 
L 1509 1797 
Q 1634 1456 1825 753 
L 1903 1050 
L 2106 1784 
L 2606 3381 
L 3525 3381 
L 2188 -178 
Q 1919 -828 1630 -1078 
Q 1341 -1328 884 -1328 
z
" transform="scale(0.015625)"/>
      <path id="LiberationSans-Bold-70" d="M 3647 1706 
Q 3647 859 3308 398 
Q 2969 -63 2350 -63 
Q 1994 -63 1730 92 
Q 1466 247 1325 538 
L 1306 538 
Q 1325 444 1325 -31 
L 1325 -1328 
L 447 -1328 
L 447 2603 
Q 447 3081 422 3381 
L 1275 3381 
Q 1291 3325 1302 3159 
Q 1313 2994 1313 2831 
L 1325 2831 
Q 1622 3453 2406 3453 
Q 2997 3453 3322 2998 
Q 3647 2544 3647 1706 
z
M 2731 1706 
Q 2731 2844 2034 2844 
Q 1684 2844 1498 2537 
Q 1313 2231 1313 1681 
Q 1313 1134 1498 836 
Q 1684 538 2028 538 
Q 2731 538 2731 1706 
z
" transform="scale(0.015625)"/>
      <path id="LiberationSans-Bold-6d" d="M 2438 0 
L 2438 1897 
Q 2438 2788 1925 2788 
Q 1659 2788 1492 2516 
Q 1325 2244 1325 1813 
L 1325 0 
L 447 0 
L 447 2625 
Q 447 2897 439 3070 
Q 431 3244 422 3381 
L 1259 3381 
Q 1269 3322 1284 3064 
Q 1300 2806 1300 2709 
L 1313 2709 
Q 1475 3097 1717 3272 
Q 1959 3447 2297 3447 
Q 3072 3447 3238 2709 
L 3256 2709 
Q 3428 3103 3668 3275 
Q 3909 3447 4281 3447 
Q 4775 3447 5034 3111 
Q 5294 2775 5294 2147 
L 5294 0 
L 4422 0 
L 4422 1897 
Q 4422 2788 3909 2788 
Q 3653 2788 3489 2539 
Q 3325 2291 3309 1853 
L 3309 0 
L 2438 0 
z
" transform="scale(0.015625)"/>
      <path id="LiberationSans-Bold-75" d="M 1275 3381 
L 1275 1484 
Q 1275 594 1875 594 
Q 2194 594 2389 867 
Q 2584 1141 2584 1569 
L 2584 3381 
L 3463 3381 
L 3463 756 
Q 3463 325 3488 0 
L 2650 0 
Q 2613 450 2613 672 
L 2597 672 
Q 2422 288 2151 112 
Q 1881 -63 1509 -63 
Q 972 -63 684 267 
Q 397 597 397 1234 
L 397 3381 
L 1275 3381 
z
" transform="scale(0.015625)"/>
      <path id="LiberationSans-Bold-67" d="M 1863 -1356 
Q 1244 -1356 867 -1120 
Q 491 -884 403 -447 
L 1281 -344 
Q 1328 -547 1483 -662 
Q 1638 -778 1888 -778 
Q 2253 -778 2422 -553 
Q 2591 -328 2591 116 
L 2591 294 
L 2597 628 
L 2591 628 
Q 2300 6 1503 6 
Q 913 6 588 450 
Q 263 894 263 1719 
Q 263 2547 597 2997 
Q 931 3447 1569 3447 
Q 2306 3447 2591 2838 
L 2606 2838 
Q 2606 2947 2620 3134 
Q 2634 3322 2650 3381 
L 3481 3381 
Q 3463 3044 3463 2600 
L 3463 103 
Q 3463 -619 3053 -987 
Q 2644 -1356 1863 -1356 
z
M 2597 1738 
Q 2597 2259 2411 2551 
Q 2225 2844 1881 2844 
Q 1178 2844 1178 1719 
Q 1178 616 1875 616 
Q 2225 616 2411 908 
Q 2597 1200 2597 1738 
z
" transform="scale(0.015625)"/>
     </defs>
     <use xlink:href="#LiberationSans-Bold-48"/>
     <use xlink:href="#LiberationSans-Bold-79" transform="translate(72.216797 0)"/>
     <use xlink:href="#LiberationSans-Bold-70" transform="translate(127.832031 0)"/>
     <use xlink:href="#LiberationSans-Bold-65" transform="translate(188.916016 0)"/>
     <use xlink:href="#LiberationSans-Bold-72" transform="translate(244.53125 0)"/>
     <use xlink:href="#LiberationSans-Bold-70" transform="translate(283.447266 0)"/>
     <use xlink:href="#LiberationSans-Bold-61" transform="translate(344.53125 0)"/>
     <use xlink:href="#LiberationSans-Bold-72" transform="translate(400.146484 0)"/>
     <use xlink:href="#LiberationSans-Bold-61" transform="translate(439.0625 0)"/>
     <use xlink:href="#LiberationSans-Bold-6d" transform="translate(494.677734 0)"/>
     <use xlink:href="#LiberationSans-Bold-65" transform="translate(583.59375 0)"/>
     <use xlink:href="#LiberationSans-Bold-74" transform="translate(639.208984 0)"/>
     <use xlink:href="#LiberationSans-Bold-65" transform="translate(672.509766 0)"/>
     <use xlink:href="#LiberationSans-Bold-72" transform="translate(728.125 0)"/>
     <use xlink:href="#LiberationSans-Bold-20" transform="translate(767.041016 0)"/>
     <use xlink:href="#LiberationSans-Bold-54" transform="translate(794.824219 0)"/>
     <use xlink:href="#LiberationSans-Bold-75" transform="translate(848.533203 0)"/>
     <use xlink:href="#LiberationSans-Bold-6e" transform="translate(909.617188 0)"/>
     <use xlink:href="#LiberationSans-Bold-69" transform="translate(970.701172 0)"/>
     <use xlink:href="#LiberationSans-Bold-6e" transform="translate(998.484375 0)"/>
     <use xlink:href="#LiberationSans-Bold-67" transform="translate(1059.568359 0)"/>
    </g>
   </g>
   <g id="text_4">
    <!-- Learning rate, batch size, model capacity -->
    <g style="fill: #262626" transform="translate(316.08 433.282344) scale(0.09 -0.09)">
     <defs>
      <path id="LiberationSans-4c" d="M 525 0 
L 525 4403 
L 1122 4403 
L 1122 488 
L 3347 488 
L 3347 0 
L 525 0 
z
" transform="scale(0.015625)"/>
      <path id="LiberationSans-67" d="M 1713 -1328 
Q 1159 -1328 831 -1111 
Q 503 -894 409 -494 
L 975 -413 
Q 1031 -647 1223 -773 
Q 1416 -900 1728 -900 
Q 2569 -900 2569 84 
L 2569 628 
L 2563 628 
Q 2403 303 2125 139 
Q 1847 -25 1475 -25 
Q 853 -25 561 387 
Q 269 800 269 1684 
Q 269 2581 583 3007 
Q 897 3434 1538 3434 
Q 1897 3434 2161 3270 
Q 2425 3106 2569 2803 
L 2575 2803 
Q 2575 2897 2587 3128 
Q 2600 3359 2613 3381 
L 3147 3381 
Q 3128 3213 3128 2681 
L 3128 97 
Q 3128 -1328 1713 -1328 
z
M 2569 1691 
Q 2569 2103 2456 2401 
Q 2344 2700 2139 2858 
Q 1934 3016 1675 3016 
Q 1244 3016 1047 2703 
Q 850 2391 850 1691 
Q 850 997 1034 694 
Q 1219 391 1666 391 
Q 1931 391 2137 547 
Q 2344 703 2456 995 
Q 2569 1288 2569 1691 
z
" transform="scale(0.015625)"/>
      <path id="LiberationSans-74" d="M 1731 25 
Q 1453 -50 1163 -50 
Q 488 -50 488 716 
L 488 2972 
L 97 2972 
L 97 3381 
L 509 3381 
L 675 4138 
L 1050 4138 
L 1050 3381 
L 1675 3381 
L 1675 2972 
L 1050 2972 
L 1050 838 
Q 1050 594 1129 495 
Q 1209 397 1406 397 
Q 1519 397 1731 441 
L 1731 25 
z
" transform="scale(0.015625)"/>
      <path id="LiberationSans-2c" d="M 1203 684 
L 1203 159 
Q 1203 -172 1143 -394 
Q 1084 -616 959 -819 
L 575 -819 
Q 869 -394 869 0 
L 594 0 
L 594 684 
L 1203 684 
z
" transform="scale(0.015625)"/>
      <path id="LiberationSans-62" d="M 3291 1706 
Q 3291 -63 2047 -63 
Q 1663 -63 1408 76 
Q 1153 216 994 525 
L 988 525 
Q 988 428 975 229 
Q 963 31 956 0 
L 413 0 
Q 431 169 431 697 
L 431 4638 
L 994 4638 
L 994 3316 
Q 994 3113 981 2838 
L 994 2838 
Q 1150 3163 1408 3303 
Q 1666 3444 2047 3444 
Q 2688 3444 2989 3012 
Q 3291 2581 3291 1706 
z
M 2700 1688 
Q 2700 2397 2512 2703 
Q 2325 3009 1903 3009 
Q 1428 3009 1211 2684 
Q 994 2359 994 1653 
Q 994 988 1206 670 
Q 1419 353 1897 353 
Q 2322 353 2511 667 
Q 2700 981 2700 1688 
z
" transform="scale(0.015625)"/>
      <path id="LiberationSans-68" d="M 991 2803 
Q 1172 3134 1426 3289 
Q 1681 3444 2072 3444 
Q 2622 3444 2883 3170 
Q 3144 2897 3144 2253 
L 3144 0 
L 2578 0 
L 2578 2144 
Q 2578 2500 2512 2673 
Q 2447 2847 2297 2928 
Q 2147 3009 1881 3009 
Q 1484 3009 1245 2734 
Q 1006 2459 1006 1994 
L 1006 0 
L 444 0 
L 444 4638 
L 1006 4638 
L 1006 3431 
Q 1006 3241 995 3037 
Q 984 2834 981 2803 
L 991 2803 
z
" transform="scale(0.015625)"/>
      <path id="LiberationSans-7a" d="M 259 0 
L 259 428 
L 2150 2947 
L 366 2947 
L 366 3381 
L 2816 3381 
L 2816 2953 
L 922 434 
L 2881 434 
L 2881 0 
L 259 0 
z
" transform="scale(0.015625)"/>
      <path id="LiberationSans-70" d="M 3291 1706 
Q 3291 -63 2047 -63 
Q 1266 -63 997 525 
L 981 525 
Q 994 500 994 -6 
L 994 -1328 
L 431 -1328 
L 431 2691 
Q 431 3213 413 3381 
L 956 3381 
Q 959 3369 965 3292 
Q 972 3216 980 3056 
Q 988 2897 988 2838 
L 1000 2838 
Q 1150 3150 1397 3295 
Q 1644 3441 2047 3441 
Q 2672 3441 2981 3022 
Q 3291 2603 3291 1706 
z
M 2700 1694 
Q 2700 2400 2509 2703 
Q 2319 3006 1903 3006 
Q 1569 3006 1380 2865 
Q 1191 2725 1092 2426 
Q 994 2128 994 1650 
Q 994 984 1206 668 
Q 1419 353 1897 353 
Q 2316 353 2508 661 
Q 2700 969 2700 1694 
z
" transform="scale(0.015625)"/>
      <path id="LiberationSans-79" d="M 597 -1328 
Q 366 -1328 209 -1294 
L 209 -872 
Q 328 -891 472 -891 
Q 997 -891 1303 -119 
L 1356 16 
L 16 3381 
L 616 3381 
L 1328 1513 
Q 1344 1469 1366 1408 
Q 1388 1347 1506 1000 
Q 1625 653 1634 613 
L 1853 1228 
L 2594 3381 
L 3188 3381 
L 1888 0 
Q 1678 -541 1497 -805 
Q 1316 -1069 1095 -1198 
Q 875 -1328 597 -1328 
z
" transform="scale(0.015625)"/>
     </defs>
     <use xlink:href="#LiberationSans-4c"/>
     <use xlink:href="#LiberationSans-65" transform="translate(55.615234 0)"/>
     <use xlink:href="#LiberationSans-61" transform="translate(111.230469 0)"/>
     <use xlink:href="#LiberationSans-72" transform="translate(166.845703 0)"/>
     <use xlink:href="#LiberationSans-6e" transform="translate(200.146484 0)"/>
     <use xlink:href="#LiberationSans-69" transform="translate(255.761719 0)"/>
     <use xlink:href="#LiberationSans-6e" transform="translate(277.978516 0)"/>
     <use xlink:href="#LiberationSans-67" transform="translate(333.59375 0)"/>
     <use xlink:href="#LiberationSans-20" transform="translate(389.208984 0)"/>
     <use xlink:href="#LiberationSans-72" transform="translate(416.992188 0)"/>
     <use xlink:href="#LiberationSans-61" transform="translate(450.292969 0)"/>
     <use xlink:href="#LiberationSans-74" transform="translate(505.908203 0)"/>
     <use xlink:href="#LiberationSans-65" transform="translate(533.691406 0)"/>
     <use xlink:href="#LiberationSans-2c" transform="translate(589.306641 0)"/>
     <use xlink:href="#LiberationSans-20" transform="translate(617.089844 0)"/>
     <use xlink:href="#LiberationSans-62" transform="translate(644.873047 0)"/>
     <use xlink:href="#LiberationSans-61" transform="translate(700.488281 0)"/>
     <use xlink:href="#LiberationSans-74" transform="translate(756.103516 0)"/>
     <use xlink:href="#LiberationSans-63" transform="translate(783.886719 0)"/>
     <use xlink:href="#LiberationSans-68" transform="translate(833.886719 0)"/>
     <use xlink:href="#LiberationSans-20" transform="translate(889.501953 0)"/>
     <use xlink:href="#LiberationSans-73" transform="translate(917.285156 0)"/>
     <use xlink:href="#LiberationSans-69" transform="translate(967.285156 0)"/>
     <use xlink:href="#LiberationSans-7a" transform="translate(989.501953 0)"/>
     <use xlink:href="#LiberationSans-65" transform="translate(1039.501953 0)"/>
     <use xlink:href="#LiberationSans-2c" transform="translate(1095.117188 0)"/>
     <use xlink:href="#LiberationSans-20" transform="translate(1122.900391 0)"/>
     <use xlink:href="#LiberationSans-6d" transform="translate(1150.683594 0)"/>
     <use xlink:href="#LiberationSans-6f" transform="translate(1233.984375 0)"/>
     <use xlink:href="#LiberationSans-64" transform="translate(1289.599609 0)"/>
     <use xlink:href="#LiberationSans-65" transform="translate(1345.214844 0)"/>
     <use xlink:href="#LiberationSans-6c" transform="translate(1400.830078 0)"/>
     <use xlink:href="#LiberationSans-20" transform="translate(1423.046875 0)"/>
     <use xlink:href="#LiberationSans-63" transform="translate(1450.830078 0)"/>
     <use xlink:href="#LiberationSans-61" transform="translate(1500.830078 0)"/>
     <use xlink:href="#LiberationSans-70" transform="translate(1556.445312 0)"/>
     <use xlink:href="#LiberationSans-61" transform="translate(1612.060547 0)"/>
     <use xlink:href="#LiberationSans-63" transform="translate(1667.675781 0)"/>
     <use xlink:href="#LiberationSans-69" transform="translate(1717.675781 0)"/>
     <use xlink:href="#LiberationSans-74" transform="translate(1739.892578 0)"/>
     <use xlink:href="#LiberationSans-79" transform="translate(1767.675781 0)"/>
    </g>
   </g>
   <g id="text_5">
    <!-- Address Class Imbalance -->
    <g style="fill: #262626" transform="translate(80.962344 346.652865) scale(0.11 -0.11)">
     <defs>
      <path id="LiberationSans-Bold-41" d="M 3541 0 
L 3150 1125 
L 1472 1125 
L 1081 0 
L 159 0 
L 1766 4403 
L 2853 4403 
L 4453 0 
L 3541 0 
z
M 2309 3725 
L 2291 3656 
Q 2259 3544 2215 3400 
Q 2172 3256 1678 1819 
L 2944 1819 
L 2509 3084 
L 2375 3509 
L 2309 3725 
z
" transform="scale(0.015625)"/>
      <path id="LiberationSans-Bold-64" d="M 2638 0 
Q 2625 47 2608 236 
Q 2591 425 2591 550 
L 2578 550 
Q 2294 -63 1497 -63 
Q 906 -63 584 398 
Q 263 859 263 1688 
Q 263 2528 602 2986 
Q 941 3444 1563 3444 
Q 1922 3444 2183 3294 
Q 2444 3144 2584 2847 
L 2591 2847 
L 2584 3403 
L 2584 4638 
L 3463 4638 
L 3463 738 
Q 3463 425 3488 0 
L 2638 0 
z
M 2597 1709 
Q 2597 2256 2414 2551 
Q 2231 2847 1875 2847 
Q 1522 2847 1350 2561 
Q 1178 2275 1178 1688 
Q 1178 538 1869 538 
Q 2216 538 2406 842 
Q 2597 1147 2597 1709 
z
" transform="scale(0.015625)"/>
      <path id="LiberationSans-Bold-43" d="M 2484 663 
Q 3319 663 3644 1500 
L 4447 1197 
Q 4188 559 3686 248 
Q 3184 -63 2484 -63 
Q 1422 -63 842 539 
Q 263 1141 263 2222 
Q 263 3306 822 3887 
Q 1381 4469 2444 4469 
Q 3219 4469 3706 4158 
Q 4194 3847 4391 3244 
L 3578 3022 
Q 3475 3353 3173 3548 
Q 2872 3744 2463 3744 
Q 1838 3744 1514 3356 
Q 1191 2969 1191 2222 
Q 1191 1463 1523 1063 
Q 1856 663 2484 663 
z
" transform="scale(0.015625)"/>
      <path id="LiberationSans-Bold-49" d="M 428 0 
L 428 4403 
L 1350 4403 
L 1350 0 
L 428 0 
z
" transform="scale(0.015625)"/>
      <path id="LiberationSans-Bold-62" d="M 3647 1703 
Q 3647 866 3311 401 
Q 2975 -63 2350 -63 
Q 1991 -63 1728 93 
Q 1466 250 1325 544 
L 1319 544 
Q 1319 434 1305 243 
Q 1291 53 1275 0 
L 422 0 
Q 447 291 447 772 
L 447 4638 
L 1325 4638 
L 1325 3344 
L 1313 2794 
L 1325 2794 
Q 1622 3444 2406 3444 
Q 3006 3444 3326 2989 
Q 3647 2534 3647 1703 
z
M 2731 1703 
Q 2731 2278 2562 2556 
Q 2394 2834 2041 2834 
Q 1684 2834 1498 2536 
Q 1313 2238 1313 1675 
Q 1313 1138 1495 838 
Q 1678 538 2034 538 
Q 2731 538 2731 1703 
z
" transform="scale(0.015625)"/>
     </defs>
     <use xlink:href="#LiberationSans-Bold-41"/>
     <use xlink:href="#LiberationSans-Bold-64" transform="translate(72.216797 0)"/>
     <use xlink:href="#LiberationSans-Bold-64" transform="translate(133.300781 0)"/>
     <use xlink:href="#LiberationSans-Bold-72" transform="translate(194.384766 0)"/>
     <use xlink:href="#LiberationSans-Bold-65" transform="translate(233.300781 0)"/>
     <use xlink:href="#LiberationSans-Bold-73" transform="translate(288.916016 0)"/>
     <use xlink:href="#LiberationSans-Bold-73" transform="translate(344.53125 0)"/>
     <use xlink:href="#LiberationSans-Bold-20" transform="translate(400.146484 0)"/>
     <use xlink:href="#LiberationSans-Bold-43" transform="translate(427.929688 0)"/>
     <use xlink:href="#LiberationSans-Bold-6c" transform="translate(500.146484 0)"/>
     <use xlink:href="#LiberationSans-Bold-61" transform="translate(527.929688 0)"/>
     <use xlink:href="#LiberationSans-Bold-73" transform="translate(583.544922 0)"/>
     <use xlink:href="#LiberationSans-Bold-73" transform="translate(639.160156 0)"/>
     <use xlink:href="#LiberationSans-Bold-20" transform="translate(694.775391 0)"/>
     <use xlink:href="#LiberationSans-Bold-49" transform="translate(722.558594 0)"/>
     <use xlink:href="#LiberationSans-Bold-6d" transform="translate(750.341797 0)"/>
     <use xlink:href="#LiberationSans-Bold-62" transform="translate(839.257812 0)"/>
     <use xlink:href="#LiberationSans-Bold-61" transform="translate(900.341797 0)"/>
     <use xlink:href="#LiberationSans-Bold-6c" transform="translate(955.957031 0)"/>
     <use xlink:href="#LiberationSans-Bold-61" transform="translate(983.740234 0)"/>
     <use xlink:href="#LiberationSans-Bold-6e" transform="translate(1039.355469 0)"/>
     <use xlink:href="#LiberationSans-Bold-63" transform="translate(1100.439453 0)"/>
     <use xlink:href="#LiberationSans-Bold-65" transform="translate(1156.054688 0)"/>
    </g>
   </g>
   <g id="text_6">
    <!-- Oversampling, class weighting -->
    <g style="fill: #262626" transform="translate(316.08 346.135677) scale(0.09 -0.09)">
     <defs>
      <path id="LiberationSans-4f" d="M 4672 2222 
Q 4672 1531 4408 1012 
Q 4144 494 3650 215 
Q 3156 -63 2484 -63 
Q 1806 -63 1314 212 
Q 822 488 562 1008 
Q 303 1528 303 2222 
Q 303 3278 881 3873 
Q 1459 4469 2491 4469 
Q 3163 4469 3656 4201 
Q 4150 3934 4411 3425 
Q 4672 2916 4672 2222 
z
M 4063 2222 
Q 4063 3044 3652 3512 
Q 3241 3981 2491 3981 
Q 1734 3981 1321 3518 
Q 909 3056 909 2222 
Q 909 1394 1326 908 
Q 1744 422 2484 422 
Q 3247 422 3655 892 
Q 4063 1363 4063 2222 
z
" transform="scale(0.015625)"/>
      <path id="LiberationSans-76" d="M 1916 0 
L 1250 0 
L 22 3381 
L 622 3381 
L 1366 1181 
Q 1406 1056 1581 441 
L 1691 806 
L 1813 1175 
L 2581 3381 
L 3178 3381 
L 1916 0 
z
" transform="scale(0.015625)"/>
      <path id="LiberationSans-77" d="M 3669 0 
L 3016 0 
L 2425 2391 
L 2313 2919 
Q 2284 2778 2225 2514 
Q 2166 2250 1588 0 
L 938 0 
L -9 3381 
L 547 3381 
L 1119 1084 
Q 1141 1009 1253 466 
L 1306 697 
L 2013 3381 
L 2616 3381 
L 3206 1059 
L 3350 466 
L 3447 900 
L 4088 3381 
L 4638 3381 
L 3669 0 
z
" transform="scale(0.015625)"/>
     </defs>
     <use xlink:href="#LiberationSans-4f"/>
     <use xlink:href="#LiberationSans-76" transform="translate(77.783203 0)"/>
     <use xlink:href="#LiberationSans-65" transform="translate(127.783203 0)"/>
     <use xlink:href="#LiberationSans-72" transform="translate(183.398438 0)"/>
     <use xlink:href="#LiberationSans-73" transform="translate(216.699219 0)"/>
     <use xlink:href="#LiberationSans-61" transform="translate(266.699219 0)"/>
     <use xlink:href="#LiberationSans-6d" transform="translate(322.314453 0)"/>
     <use xlink:href="#LiberationSans-70" transform="translate(405.615234 0)"/>
     <use xlink:href="#LiberationSans-6c" transform="translate(461.230469 0)"/>
     <use xlink:href="#LiberationSans-69" transform="translate(483.447266 0)"/>
     <use xlink:href="#LiberationSans-6e" transform="translate(505.664062 0)"/>
     <use xlink:href="#LiberationSans-67" transform="translate(561.279297 0)"/>
     <use xlink:href="#LiberationSans-2c" transform="translate(616.894531 0)"/>
     <use xlink:href="#LiberationSans-20" transform="translate(644.677734 0)"/>
     <use xlink:href="#LiberationSans-63" transform="translate(672.460938 0)"/>
     <use xlink:href="#LiberationSans-6c" transform="translate(722.460938 0)"/>
     <use xlink:href="#LiberationSans-61" transform="translate(744.677734 0)"/>
     <use xlink:href="#LiberationSans-73" transform="translate(800.292969 0)"/>
     <use xlink:href="#LiberationSans-73" transform="translate(850.292969 0)"/>
     <use xlink:href="#LiberationSans-20" transform="translate(900.292969 0)"/>
     <use xlink:href="#LiberationSans-77" transform="translate(928.076172 0)"/>
     <use xlink:href="#LiberationSans-65" transform="translate(1000.292969 0)"/>
     <use xlink:href="#LiberationSans-69" transform="translate(1055.908203 0)"/>
     <use xlink:href="#LiberationSans-67" transform="translate(1078.125 0)"/>
     <use xlink:href="#LiberationSans-68" transform="translate(1133.740234 0)"/>
     <use xlink:href="#LiberationSans-74" transform="translate(1189.355469 0)"/>
     <use xlink:href="#LiberationSans-69" transform="translate(1217.138672 0)"/>
     <use xlink:href="#LiberationSans-6e" transform="translate(1239.355469 0)"/>
     <use xlink:href="#LiberationSans-67" transform="translate(1294.970703 0)"/>
    </g>
   </g>
   <g id="text_7">
    <!-- Train 50 Specialists -->
    <g style="fill: #262626" transform="translate(96.547969 259.506198) scale(0.11 -0.11)">
     <defs>
      <path id="LiberationSans-Bold-35" d="M 3381 1466 
Q 3381 766 2945 351 
Q 2509 -63 1750 -63 
Q 1088 -63 689 235 
Q 291 534 197 1100 
L 1075 1172 
Q 1144 891 1319 762 
Q 1494 634 1759 634 
Q 2088 634 2283 843 
Q 2478 1053 2478 1447 
Q 2478 1794 2293 2001 
Q 2109 2209 1778 2209 
Q 1413 2209 1181 1925 
L 325 1925 
L 478 4403 
L 3125 4403 
L 3125 3750 
L 1275 3750 
L 1203 2638 
Q 1522 2919 2000 2919 
Q 2628 2919 3004 2528 
Q 3381 2138 3381 1466 
z
" transform="scale(0.015625)"/>
     </defs>
     <use xlink:href="#LiberationSans-Bold-54"/>
     <use xlink:href="#LiberationSans-Bold-72" transform="translate(55.583984 0)"/>
     <use xlink:href="#LiberationSans-Bold-61" transform="translate(94.5 0)"/>
     <use xlink:href="#LiberationSans-Bold-69" transform="translate(150.115234 0)"/>
     <use xlink:href="#LiberationSans-Bold-6e" transform="translate(177.898438 0)"/>
     <use xlink:href="#LiberationSans-Bold-20" transform="translate(238.982422 0)"/>
     <use xlink:href="#LiberationSans-Bold-35" transform="translate(266.765625 0)"/>
     <use xlink:href="#LiberationSans-Bold-30" transform="translate(322.380859 0)"/>
     <use xlink:href="#LiberationSans-Bold-20" transform="translate(377.996094 0)"/>
     <use xlink:href="#LiberationSans-Bold-53" transform="translate(405.779297 0)"/>
     <use xlink:href="#LiberationSans-Bold-70" transform="translate(472.478516 0)"/>
     <use xlink:href="#LiberationSans-Bold-65" transform="translate(533.5625 0)"/>
     <use xlink:href="#LiberationSans-Bold-63" transform="translate(589.177734 0)"/>
     <use xlink:href="#LiberationSans-Bold-69" transform="translate(644.792969 0)"/>
     <use xlink:href="#LiberationSans-Bold-61" transform="translate(672.576172 0)"/>
     <use xlink:href="#LiberationSans-Bold-6c" transform="translate(728.191406 0)"/>
     <use xlink:href="#LiberationSans-Bold-69" transform="translate(755.974609 0)"/>
     <use xlink:href="#LiberationSans-Bold-73" transform="translate(783.757812 0)"/>
     <use xlink:href="#LiberationSans-Bold-74" transform="translate(839.373047 0)"/>
     <use xlink:href="#LiberationSans-Bold-73" transform="translate(872.673828 0)"/>
    </g>
   </g>
   <g id="text_8">
    <!-- All specialists with real data -->
    <g style="fill: #262626" transform="translate(316.08 258.98901) scale(0.09 -0.09)">
     <defs>
      <path id="LiberationSans-41" d="M 3647 0 
L 3144 1288 
L 1138 1288 
L 631 0 
L 13 0 
L 1809 4403 
L 2488 4403 
L 4256 0 
L 3647 0 
z
M 2141 3953 
L 2113 3866 
Q 2034 3606 1881 3200 
L 1319 1753 
L 2966 1753 
L 2400 3206 
Q 2313 3422 2225 3694 
L 2141 3953 
z
" transform="scale(0.015625)"/>
     </defs>
     <use xlink:href="#LiberationSans-41"/>
     <use xlink:href="#LiberationSans-6c" transform="translate(66.699219 0)"/>
     <use xlink:href="#LiberationSans-6c" transform="translate(88.916016 0)"/>
     <use xlink:href="#LiberationSans-20" transform="translate(111.132812 0)"/>
     <use xlink:href="#LiberationSans-73" transform="translate(138.916016 0)"/>
     <use xlink:href="#LiberationSans-70" transform="translate(188.916016 0)"/>
     <use xlink:href="#LiberationSans-65" transform="translate(244.53125 0)"/>
     <use xlink:href="#LiberationSans-63" transform="translate(300.146484 0)"/>
     <use xlink:href="#LiberationSans-69" transform="translate(350.146484 0)"/>
     <use xlink:href="#LiberationSans-61" transform="translate(372.363281 0)"/>
     <use xlink:href="#LiberationSans-6c" transform="translate(427.978516 0)"/>
     <use xlink:href="#LiberationSans-69" transform="translate(450.195312 0)"/>
     <use xlink:href="#LiberationSans-73" transform="translate(472.412109 0)"/>
     <use xlink:href="#LiberationSans-74" transform="translate(522.412109 0)"/>
     <use xlink:href="#LiberationSans-73" transform="translate(550.195312 0)"/>
     <use xlink:href="#LiberationSans-20" transform="translate(600.195312 0)"/>
     <use xlink:href="#LiberationSans-77" transform="translate(627.978516 0)"/>
     <use xlink:href="#LiberationSans-69" transform="translate(700.195312 0)"/>
     <use xlink:href="#LiberationSans-74" transform="translate(722.412109 0)"/>
     <use xlink:href="#LiberationSans-68" transform="translate(750.195312 0)"/>
     <use xlink:href="#LiberationSans-20" transform="translate(805.810547 0)"/>
     <use xlink:href="#LiberationSans-72" transform="translate(833.59375 0)"/>
     <use xlink:href="#LiberationSans-65" transform="translate(866.894531 0)"/>
     <use xlink:href="#LiberationSans-61" transform="translate(922.509766 0)"/>
     <use xlink:href="#LiberationSans-6c" transform="translate(978.125 0)"/>
     <use xlink:href="#LiberationSans-20" transform="translate(1000.341797 0)"/>
     <use xlink:href="#LiberationSans-64" transform="translate(1028.125 0)"/>
     <use xlink:href="#LiberationSans-61" transform="translate(1083.740234 0)"/>
     <use xlink:href="#LiberationSans-74" transform="translate(1139.355469 0)"/>
     <use xlink:href="#LiberationSans-61" transform="translate(1167.138672 0)"/>
    </g>
   </g>
   <g id="text_9">
    <!-- Validate &gt;60% Accuracy -->
    <g style="fill: #262626" transform="translate(84.977344 172.359531) scale(0.11 -0.11)">
     <defs>
      <path id="LiberationSans-Bold-56" d="M 2606 0 
L 1672 0 
L 44 4403 
L 1006 4403 
L 1913 1575 
Q 1997 1300 2144 744 
L 2209 1013 
L 2369 1575 
L 3272 4403 
L 4225 4403 
L 2606 0 
z
" transform="scale(0.015625)"/>
      <path id="LiberationSans-Bold-3e" d="M 269 391 
L 269 1100 
L 2869 2113 
L 269 3128 
L 269 3841 
L 3478 2619 
L 3478 1613 
L 269 391 
z
" transform="scale(0.015625)"/>
      <path id="LiberationSans-Bold-36" d="M 3328 1441 
Q 3328 738 2934 337 
Q 2541 -63 1847 -63 
Q 1069 -63 651 482 
Q 234 1028 234 2100 
Q 234 3278 657 3873 
Q 1081 4469 1869 4469 
Q 2428 4469 2751 4222 
Q 3075 3975 3209 3456 
L 2381 3341 
Q 2263 3775 1850 3775 
Q 1497 3775 1295 3422 
Q 1094 3069 1094 2350 
Q 1234 2584 1484 2709 
Q 1734 2834 2050 2834 
Q 2641 2834 2984 2459 
Q 3328 2084 3328 1441 
z
M 2447 1416 
Q 2447 1791 2273 1989 
Q 2100 2188 1797 2188 
Q 1506 2188 1331 2002 
Q 1156 1816 1156 1509 
Q 1156 1125 1339 873 
Q 1522 622 1819 622 
Q 2116 622 2281 833 
Q 2447 1044 2447 1416 
z
" transform="scale(0.015625)"/>
      <path id="LiberationSans-Bold-25" d="M 5522 1350 
Q 5522 669 5240 309 
Q 4959 -50 4416 -50 
Q 3866 -50 3587 306 
Q 3309 663 3309 1350 
Q 3309 2050 3578 2401 
Q 3847 2753 4428 2753 
Q 4991 2753 5256 2398 
Q 5522 2044 5522 1350 
z
M 1725 0 
L 1081 0 
L 3956 4403 
L 4609 4403 
L 1725 0 
z
M 1275 4453 
Q 1834 4453 2104 4100 
Q 2375 3747 2375 3053 
Q 2375 2372 2092 2011 
Q 1809 1650 1259 1650 
Q 716 1650 437 2008 
Q 159 2366 159 3053 
Q 159 3763 428 4108 
Q 697 4453 1275 4453 
z
M 4850 1350 
Q 4850 1847 4754 2059 
Q 4659 2272 4428 2272 
Q 4178 2272 4083 2056 
Q 3988 1841 3988 1350 
Q 3988 850 4088 645 
Q 4188 441 4422 441 
Q 4650 441 4750 653 
Q 4850 866 4850 1350 
z
M 1697 3053 
Q 1697 3544 1601 3756 
Q 1506 3969 1275 3969 
Q 1025 3969 928 3758 
Q 831 3547 831 3053 
Q 831 2559 932 2348 
Q 1034 2138 1269 2138 
Q 1500 2138 1598 2350 
Q 1697 2563 1697 3053 
z
" transform="scale(0.015625)"/>
     </defs>
     <use xlink:href="#LiberationSans-Bold-56"/>
     <use xlink:href="#LiberationSans-Bold-61" transform="translate(61.199219 0)"/>
     <use xlink:href="#LiberationSans-Bold-6c" transform="translate(116.814453 0)"/>
     <use xlink:href="#LiberationSans-Bold-69" transform="translate(144.597656 0)"/>
     <use xlink:href="#LiberationSans-Bold-64" transform="translate(172.380859 0)"/>
     <use xlink:href="#LiberationSans-Bold-61" transform="translate(233.464844 0)"/>
     <use xlink:href="#LiberationSans-Bold-74" transform="translate(289.080078 0)"/>
     <use xlink:href="#LiberationSans-Bold-65" transform="translate(322.380859 0)"/>
     <use xlink:href="#LiberationSans-Bold-20" transform="translate(377.996094 0)"/>
     <use xlink:href="#LiberationSans-Bold-3e" transform="translate(405.779297 0)"/>
     <use xlink:href="#LiberationSans-Bold-36" transform="translate(464.177734 0)"/>
     <use xlink:href="#LiberationSans-Bold-30" transform="translate(519.792969 0)"/>
     <use xlink:href="#LiberationSans-Bold-25" transform="translate(575.408203 0)"/>
     <use xlink:href="#LiberationSans-Bold-20" transform="translate(664.324219 0)"/>
     <use xlink:href="#LiberationSans-Bold-41" transform="translate(688.357422 0)"/>
     <use xlink:href="#LiberationSans-Bold-63" transform="translate(760.574219 0)"/>
     <use xlink:href="#LiberationSans-Bold-63" transform="translate(816.189453 0)"/>
     <use xlink:href="#LiberationSans-Bold-75" transform="translate(871.804688 0)"/>
     <use xlink:href="#LiberationSans-Bold-72" transform="translate(932.888672 0)"/>
     <use xlink:href="#LiberationSans-Bold-61" transform="translate(971.804688 0)"/>
     <use xlink:href="#LiberationSans-Bold-63" transform="translate(1027.419922 0)"/>
     <use xlink:href="#LiberationSans-Bold-79" transform="translate(1083.035156 0)"/>
    </g>
   </g>
   <g id="text_10">
    <!-- Architecture evidence collection -->
    <g style="fill: #262626" transform="translate(316.08 171.842344) scale(0.09 -0.09)">
     <defs>
      <path id="LiberationSans-75" d="M 981 3381 
L 981 1238 
Q 981 903 1047 718 
Q 1113 534 1256 453 
Q 1400 372 1678 372 
Q 2084 372 2318 650 
Q 2553 928 2553 1422 
L 2553 3381 
L 3116 3381 
L 3116 722 
Q 3116 131 3134 0 
L 2603 0 
Q 2600 16 2597 84 
Q 2594 153 2589 242 
Q 2584 331 2578 578 
L 2569 578 
Q 2375 228 2120 82 
Q 1866 -63 1488 -63 
Q 931 -63 673 214 
Q 416 491 416 1128 
L 416 3381 
L 981 3381 
z
" transform="scale(0.015625)"/>
     </defs>
     <use xlink:href="#LiberationSans-41"/>
     <use xlink:href="#LiberationSans-72" transform="translate(66.699219 0)"/>
     <use xlink:href="#LiberationSans-63" transform="translate(100 0)"/>
     <use xlink:href="#LiberationSans-68" transform="translate(150 0)"/>
     <use xlink:href="#LiberationSans-69" transform="translate(205.615234 0)"/>
     <use xlink:href="#LiberationSans-74" transform="translate(227.832031 0)"/>
     <use xlink:href="#LiberationSans-65" transform="translate(255.615234 0)"/>
     <use xlink:href="#LiberationSans-63" transform="translate(311.230469 0)"/>
     <use xlink:href="#LiberationSans-74" transform="translate(361.230469 0)"/>
     <use xlink:href="#LiberationSans-75" transform="translate(389.013672 0)"/>
     <use xlink:href="#LiberationSans-72" transform="translate(444.628906 0)"/>
     <use xlink:href="#LiberationSans-65" transform="translate(477.929688 0)"/>
     <use xlink:href="#LiberationSans-20" transform="translate(533.544922 0)"/>
     <use xlink:href="#LiberationSans-65" transform="translate(561.328125 0)"/>
     <use xlink:href="#LiberationSans-76" transform="translate(616.943359 0)"/>
     <use xlink:href="#LiberationSans-69" transform="translate(666.943359 0)"/>
     <use xlink:href="#LiberationSans-64" transform="translate(689.160156 0)"/>
     <use xlink:href="#LiberationSans-65" transform="translate(744.775391 0)"/>
     <use xlink:href="#LiberationSans-6e" transform="translate(800.390625 0)"/>
     <use xlink:href="#LiberationSans-63" transform="translate(856.005859 0)"/>
     <use xlink:href="#LiberationSans-65" transform="translate(906.005859 0)"/>
     <use xlink:href="#LiberationSans-20" transform="translate(961.621094 0)"/>
     <use xlink:href="#LiberationSans-63" transform="translate(989.404297 0)"/>
     <use xlink:href="#LiberationSans-6f" transform="translate(1039.404297 0)"/>
     <use xlink:href="#LiberationSans-6c" transform="translate(1095.019531 0)"/>
     <use xlink:href="#LiberationSans-6c" transform="translate(1117.236328 0)"/>
     <use xlink:href="#LiberationSans-65" transform="translate(1139.453125 0)"/>
     <use xlink:href="#LiberationSans-63" transform="translate(1195.068359 0)"/>
     <use xlink:href="#LiberationSans-74" transform="translate(1245.068359 0)"/>
     <use xlink:href="#LiberationSans-69" transform="translate(1272.851562 0)"/>
     <use xlink:href="#LiberationSans-6f" transform="translate(1295.068359 0)"/>
     <use xlink:href="#LiberationSans-6e" transform="translate(1350.683594 0)"/>
    </g>
   </g>
   <g id="text_11">
    <!-- Architecture Comparison -->
    <g style="fill: #262626" transform="translate(81.589687 85.212865) scale(0.11 -0.11)">
     <defs>
      <path id="LiberationSans-Bold-68" d="M 1313 2706 
Q 1491 3094 1759 3269 
Q 2028 3444 2400 3444 
Q 2938 3444 3225 3112 
Q 3513 2781 3513 2144 
L 3513 0 
L 2638 0 
L 2638 1894 
Q 2638 2784 2034 2784 
Q 1716 2784 1520 2511 
Q 1325 2238 1325 1809 
L 1325 0 
L 447 0 
L 447 4638 
L 1325 4638 
L 1325 3372 
Q 1325 3031 1300 2706 
L 1313 2706 
z
" transform="scale(0.015625)"/>
     </defs>
     <use xlink:href="#LiberationSans-Bold-41"/>
     <use xlink:href="#LiberationSans-Bold-72" transform="translate(72.216797 0)"/>
     <use xlink:href="#LiberationSans-Bold-63" transform="translate(111.132812 0)"/>
     <use xlink:href="#LiberationSans-Bold-68" transform="translate(166.748047 0)"/>
     <use xlink:href="#LiberationSans-Bold-69" transform="translate(227.832031 0)"/>
     <use xlink:href="#LiberationSans-Bold-74" transform="translate(255.615234 0)"/>
     <use xlink:href="#LiberationSans-Bold-65" transform="translate(288.916016 0)"/>
     <use xlink:href="#LiberationSans-Bold-63" transform="translate(344.53125 0)"/>
     <use xlink:href="#LiberationSans-Bold-74" transform="translate(400.146484 0)"/>
     <use xlink:href="#LiberationSans-Bold-75" transform="translate(433.447266 0)"/>
     <use xlink:href="#LiberationSans-Bold-72" transform="translate(494.53125 0)"/>
     <use xlink:href="#LiberationSans-Bold-65" transform="translate(533.447266 0)"/>
     <use xlink:href="#LiberationSans-Bold-20" transform="translate(589.0625 0)"/>
     <use xlink:href="#LiberationSans-Bold-43" transform="translate(616.845703 0)"/>
     <use xlink:href="#LiberationSans-Bold-6f" transform="translate(689.0625 0)"/>
     <use xlink:href="#LiberationSans-Bold-6d" transform="translate(750.146484 0)"/>
     <use xlink:href="#LiberationSans-Bold-70" transform="translate(839.0625 0)"/>
     <use xlink:href="#LiberationSans-Bold-61" transform="translate(900.146484 0)"/>
     <use xlink:href="#LiberationSans-Bold-72" transform="translate(955.761719 0)"/>
     <use xlink:href="#LiberationSans-Bold-69" transform="translate(994.677734 0)"/>
     <use xlink:href="#LiberationSans-Bold-73" transform="translate(1022.460938 0)"/>
     <use xlink:href="#LiberationSans-Bold-6f" transform="translate(1078.076172 0)"/>
     <use xlink:href="#LiberationSans-Bold-6e" transform="translate(1139.160156 0)"/>
    </g>
   </g>
   <g id="text_12">
    <!-- BitLattice vs standard MLP -->
    <g style="fill: #262626" transform="translate(316.08 84.695677) scale(0.09 -0.09)">
     <defs>
      <path id="LiberationSans-42" d="M 3931 1241 
Q 3931 653 3503 326 
Q 3075 0 2313 0 
L 525 0 
L 525 4403 
L 2125 4403 
Q 3675 4403 3675 3334 
Q 3675 2944 3456 2678 
Q 3238 2413 2838 2322 
Q 3363 2259 3647 1970 
Q 3931 1681 3931 1241 
z
M 3075 3263 
Q 3075 3619 2831 3772 
Q 2588 3925 2125 3925 
L 1122 3925 
L 1122 2531 
L 2125 2531 
Q 2603 2531 2839 2711 
Q 3075 2891 3075 3263 
z
M 3328 1288 
Q 3328 2066 2234 2066 
L 1122 2066 
L 1122 478 
L 2281 478 
Q 2828 478 3078 681 
Q 3328 884 3328 1288 
z
" transform="scale(0.015625)"/>
      <path id="LiberationSans-4d" d="M 4269 0 
L 4269 2938 
Q 4269 3425 4297 3875 
Q 4144 3316 4022 3000 
L 2884 0 
L 2466 0 
L 1313 3000 
L 1138 3531 
L 1034 3875 
L 1044 3528 
L 1056 2938 
L 1056 0 
L 525 0 
L 525 4403 
L 1309 4403 
L 2481 1350 
Q 2544 1166 2601 955 
Q 2659 744 2678 650 
Q 2703 775 2783 1029 
Q 2863 1284 2891 1350 
L 4041 4403 
L 4806 4403 
L 4806 0 
L 4269 0 
z
" transform="scale(0.015625)"/>
      <path id="LiberationSans-50" d="M 3931 3078 
Q 3931 2453 3523 2084 
Q 3116 1716 2416 1716 
L 1122 1716 
L 1122 0 
L 525 0 
L 525 4403 
L 2378 4403 
Q 3119 4403 3525 4056 
Q 3931 3709 3931 3078 
z
M 3331 3072 
Q 3331 3925 2306 3925 
L 1122 3925 
L 1122 2188 
L 2331 2188 
Q 3331 2188 3331 3072 
z
" transform="scale(0.015625)"/>
     </defs>
     <use xlink:href="#LiberationSans-42"/>
     <use xlink:href="#LiberationSans-69" transform="translate(66.699219 0)"/>
     <use xlink:href="#LiberationSans-74" transform="translate(88.916016 0)"/>
     <use xlink:href="#LiberationSans-4c" transform="translate(116.699219 0)"/>
     <use xlink:href="#LiberationSans-61" transform="translate(172.314453 0)"/>
     <use xlink:href="#LiberationSans-74" transform="translate(227.929688 0)"/>
     <use xlink:href="#LiberationSans-74" transform="translate(255.712891 0)"/>
     <use xlink:href="#LiberationSans-69" transform="translate(283.496094 0)"/>
     <use xlink:href="#LiberationSans-63" transform="translate(305.712891 0)"/>
     <use xlink:href="#LiberationSans-65" transform="translate(355.712891 0)"/>
     <use xlink:href="#LiberationSans-20" transform="translate(411.328125 0)"/>
     <use xlink:href="#LiberationSans-76" transform="translate(439.111328 0)"/>
     <use xlink:href="#LiberationSans-73" transform="translate(489.111328 0)"/>
     <use xlink:href="#LiberationSans-20" transform="translate(539.111328 0)"/>
     <use xlink:href="#LiberationSans-73" transform="translate(566.894531 0)"/>
     <use xlink:href="#LiberationSans-74" transform="translate(616.894531 0)"/>
     <use xlink:href="#LiberationSans-61" transform="translate(644.677734 0)"/>
     <use xlink:href="#LiberationSans-6e" transform="translate(700.292969 0)"/>
     <use xlink:href="#LiberationSans-64" transform="translate(755.908203 0)"/>
     <use xlink:href="#LiberationSans-61" transform="translate(811.523438 0)"/>
     <use xlink:href="#LiberationSans-72" transform="translate(867.138672 0)"/>
     <use xlink:href="#LiberationSans-64" transform="translate(900.439453 0)"/>
     <use xlink:href="#LiberationSans-20" transform="translate(956.054688 0)"/>
     <use xlink:href="#LiberationSans-4d" transform="translate(983.837891 0)"/>
     <use xlink:href="#LiberationSans-4c" transform="translate(1067.138672 0)"/>
     <use xlink:href="#LiberationSans-50" transform="translate(1122.753906 0)"/>
    </g>
   </g>
   <g id="text_13">
    <!-- Potential and Next Steps -->
    <g style="fill: #262626" transform="translate(334.61 18.795) scale(0.16 -0.16)">
     <defs>
      <path id="LiberationSans-Bold-50" d="M 4050 3009 
Q 4050 2584 3856 2250 
Q 3663 1916 3302 1733 
Q 2941 1550 2444 1550 
L 1350 1550 
L 1350 0 
L 428 0 
L 428 4403 
L 2406 4403 
Q 3197 4403 3623 4039 
Q 4050 3675 4050 3009 
z
M 3122 2994 
Q 3122 3688 2303 3688 
L 1350 3688 
L 1350 2259 
L 2328 2259 
Q 2709 2259 2915 2448 
Q 3122 2638 3122 2994 
z
" transform="scale(0.015625)"/>
      <path id="LiberationSans-Bold-4e" d="M 3109 0 
L 1191 3391 
Q 1247 2897 1247 2597 
L 1247 0 
L 428 0 
L 428 4403 
L 1481 4403 
L 3428 984 
Q 3372 1456 3372 1844 
L 3372 4403 
L 4191 4403 
L 4191 0 
L 3109 0 
z
" transform="scale(0.015625)"/>
      <path id="LiberationSans-Bold-78" d="M 2559 0 
L 1772 1225 
L 978 0 
L 44 0 
L 1281 1747 
L 103 3381 
L 1050 3381 
L 1772 2275 
L 2491 3381 
L 3444 3381 
L 2266 1756 
L 3513 0 
L 2559 0 
z
" transform="scale(0.015625)"/>
     </defs>
     <use xlink:href="#LiberationSans-Bold-50"/>
     <use xlink:href="#LiberationSans-Bold-6f" transform="translate(66.699219 0)"/>
     <use xlink:href="#LiberationSans-Bold-74" transform="translate(127.783203 0)"/>
     <use xlink:href="#LiberationSans-Bold-65" transform="translate(161.083984 0)"/>
     <use xlink:href="#LiberationSans-Bold-6e" transform="translate(216.699219 0)"/>
     <use xlink:href="#LiberationSans-Bold-74" transform="translate(277.783203 0)"/>
     <use xlink:href="#LiberationSans-Bold-69" transform="translate(311.083984 0)"/>
     <use xlink:href="#LiberationSans-Bold-61" transform="translate(338.867188 0)"/>
     <use xlink:href="#LiberationSans-Bold-6c" transform="translate(394.482422 0)"/>
     <use xlink:href="#LiberationSans-Bold-20" transform="translate(422.265625 0)"/>
     <use xlink:href="#LiberationSans-Bold-61" transform="translate(450.048828 0)"/>
     <use xlink:href="#LiberationSans-Bold-6e" transform="translate(505.664062 0)"/>
     <use xlink:href="#LiberationSans-Bold-64" transform="translate(566.748047 0)"/>
     <use xlink:href="#LiberationSans-Bold-20" transform="translate(627.832031 0)"/>
     <use xlink:href="#LiberationSans-Bold-4e" transform="translate(655.615234 0)"/>
     <use xlink:href="#LiberationSans-Bold-65" transform="translate(727.832031 0)"/>
     <use xlink:href="#LiberationSans-Bold-78" transform="translate(783.447266 0)"/>
     <use xlink:href="#LiberationSans-Bold-74" transform="translate(839.0625 0)"/>
     <use xlink:href="#LiberationSans-Bold-20" transform="translate(872.363281 0)"/>
     <use xlink:href="#LiberationSans-Bold-53" transform="translate(900.146484 0)"/>
     <use xlink:href="#LiberationSans-Bold-74" transform="translate(966.845703 0)"/>
     <use xlink:href="#LiberationSans-Bold-65" transform="translate(1000.146484 0)"/>
     <use xlink:href="#LiberationSans-Bold-70" transform="translate(1055.761719 0)"/>
     <use xlink:href="#LiberationSans-Bold-73" transform="translate(1116.845703 0)"/>
    </g>
   </g>
   <g id="legend_1">
    <g id="patch_9">
     <path d="M 762.523125 58.29125 
L 786.523125 58.29125 
L 786.523125 49.89125 
L 762.523125 49.89125 
z
" style="fill: #0000ff; opacity: 0.3; stroke: #0000ff; stroke-linejoin: miter"/>
    </g>
    <g id="text_14">
     <!-- High -->
     <g style="fill: #262626" transform="translate(796.123125 58.29125) scale(0.12 -0.12)">
      <use xlink:href="#LiberationSans-48"/>
      <use xlink:href="#LiberationSans-69" transform="translate(72.216797 0)"/>
      <use xlink:href="#LiberationSans-67" transform="translate(94.433594 0)"/>
      <use xlink:href="#LiberationSans-68" transform="translate(150.048828 0)"/>
     </g>
    </g>
    <g id="patch_10">
     <path d="M 762.523125 75.4775 
L 786.523125 75.4775 
L 786.523125 67.0775 
L 762.523125 67.0775 
z
" style="fill: #800080; opacity: 0.3; stroke: #800080; stroke-linejoin: miter"/>
    </g>
    <g id="text_15">
     <!-- Medium -->
     <g style="fill: #262626" transform="translate(796.123125 75.4775) scale(0.12 -0.12)">
      <use xlink:href="#LiberationSans-4d"/>
      <use xlink:href="#LiberationSans-65" transform="translate(83.300781 0)"/>
      <use xlink:href="#LiberationSans-64" transform="translate(138.916016 0)"/>
      <use xlink:href="#LiberationSans-69" transform="translate(194.53125 0)"/>
      <use xlink:href="#LiberationSans-75" transform="translate(216.748047 0)"/>
      <use xlink:href="#LiberationSans-6d" transform="translate(272.363281 0)"/>
     </g>
    </g>
   </g>
  </g>
 </g>
 <defs>
  <clipPath id="p3b21c85d90">
   <rect x="7.2" y="38.795" width="842.4" height="522.88"/>
  </clipPath>
 </defs>
</svg>
