<?xml version="1.0" encoding="utf-8" standalone="no"?>
<!DOCTYPE svg PUBLIC "-//W3C//DTD SVG 1.1//EN"
  "http://www.w3.org/Graphics/SVG/1.1/DTD/svg11.dtd">
<svg xmlns:xlink="http://www.w3.org/1999/xlink" width="1000.46125pt" height="567.064135pt" viewBox="0 0 1000.46125 567.064135" xmlns="http://www.w3.org/2000/svg" version="1.1">
 <metadata>
  <rdf:RDF xmlns:dc="http://purl.org/dc/elements/1.1/" xmlns:cc="http://creativecommons.org/ns#" xmlns:rdf="http://www.w3.org/1999/02/22-rdf-syntax-ns#">
   <cc:Work>
    <dc:type rdf:resource="http://purl.org/dc/dcmitype/StillImage"/>
    <dc:date>2026-05-10T16:20:34.866405</dc:date>
    <dc:format>image/svg+xml</dc:format>
    <dc:creator>
     <cc:Agent>
      <dc:title>Matplotlib v3.10.9, https://matplotlib.org/</dc:title>
     </cc:Agent>
    </dc:creator>
   </cc:Work>
  </rdf:RDF>
 </metadata>
 <defs>
  <style type="text/css">*{stroke-linejoin: round; stroke-linecap: butt}</style>
 </defs>
 <g id="figure_1">
  <g id="patch_1">
   <path d="M -0 567.064135 
L 1000.46125 567.064135 
L 1000.46125 0 
L -0 0 
z
" style="fill: #ffffff"/>
  </g>
  <g id="axes_1">
   <g id="patch_2">
    <path d="M 43.78125 501.501638 
L 993.26125 501.501638 
L 993.26125 22.318125 
L 43.78125 22.318125 
z
" style="fill: #ffffff"/>
   </g>
   <g id="patch_3">
    <path d="M 86.939432 501.501638 
L 109.456744 501.501638 
L 109.456744 51.645561 
L 86.939432 51.645561 
z
" clip-path="url(#pdf737932a4)" style="fill: #1f77b4"/>
   </g>
   <g id="patch_4">
    <path d="M 237.054847 501.501638 
L 259.572159 501.501638 
L 259.572159 51.645561 
L 237.054847 51.645561 
z
" clip-path="url(#pdf737932a4)" style="fill: #1f77b4"/>
   </g>
   <g id="patch_5">
    <path d="M 387.170262 501.501638 
L 409.687574 501.501638 
L 409.687574 51.645561 
L 387.170262 51.645561 
z
" clip-path="url(#pdf737932a4)" style="fill: #1f77b4"/>
   </g>
   <g id="patch_6">
    <path d="M 537.285677 501.501638 
L 559.802989 501.501638 
L 559.802989 225.223462 
L 537.285677 225.223462 
z
" clip-path="url(#pdf737932a4)" style="fill: #1f77b4"/>
   </g>
   <g id="patch_7">
    <path d="M 687.401092 501.501638 
L 709.918404 501.501638 
L 709.918404 61.047696 
L 687.401092 61.047696 
z
" clip-path="url(#pdf737932a4)" style="fill: #1f77b4"/>
   </g>
   <g id="patch_8">
    <path d="M 837.516507 501.501638 
L 860.033819 501.501638 
L 860.033819 51.645561 
L 837.516507 51.645561 
z
" clip-path="url(#pdf737932a4)" style="fill: #1f77b4"/>
   </g>
   <g id="patch_9">
    <path d="M 109.456744 501.501638 
L 131.974056 501.501638 
L 131.974056 50.922313 
L 109.456744 50.922313 
z
" clip-path="url(#pdf737932a4)" style="fill: #ff7f0e"/>
   </g>
   <g id="patch_10">
    <path d="M 259.572159 501.501638 
L 282.089471 501.501638 
L 282.089471 48.02935 
L 259.572159 48.02935 
z
" clip-path="url(#pdf737932a4)" style="fill: #ff7f0e"/>
   </g>
   <g id="patch_11">
    <path d="M 409.687574 501.501638 
L 432.204886 501.501638 
L 432.204886 49.475846 
L 409.687574 49.475846 
z
" clip-path="url(#pdf737932a4)" style="fill: #ff7f0e"/>
   </g>
   <g id="patch_12">
    <path d="M 559.802989 501.501638 
L 582.320301 501.501638 
L 582.320301 85.637893 
L 559.802989 85.637893 
z
" clip-path="url(#pdf737932a4)" style="fill: #ff7f0e"/>
   </g>
   <g id="patch_13">
    <path d="M 709.918404 501.501638 
L 732.435716 501.501638 
L 732.435716 63.217411 
L 709.918404 63.217411 
z
" clip-path="url(#pdf737932a4)" style="fill: #ff7f0e"/>
   </g>
   <g id="patch_14">
    <path d="M 860.033819 501.501638 
L 882.551131 501.501638 
L 882.551131 49.475846 
L 860.033819 49.475846 
z
" clip-path="url(#pdf737932a4)" style="fill: #ff7f0e"/>
   </g>
   <g id="patch_15">
    <path d="M 131.974056 501.501638 
L 154.491369 501.501638 
L 154.491369 64.663907 
L 131.974056 64.663907 
z
" clip-path="url(#pdf737932a4)" style="fill: #2ca02c"/>
   </g>
   <g id="patch_16">
    <path d="M 282.089471 501.501638 
L 304.606784 501.501638 
L 304.606784 183.27549 
L 282.089471 183.27549 
z
" clip-path="url(#pdf737932a4)" style="fill: #2ca02c"/>
   </g>
   <g id="patch_17">
    <path d="M 432.204886 501.501638 
L 454.722199 501.501638 
L 454.722199 61.770944 
L 432.204886 61.770944 
z
" clip-path="url(#pdf737932a4)" style="fill: #2ca02c"/>
   </g>
   <g id="patch_18">
    <path d="M 582.320301 501.501638 
L 604.837614 501.501638 
L 604.837614 225.223462 
L 582.320301 225.223462 
z
" clip-path="url(#pdf737932a4)" style="fill: #2ca02c"/>
   </g>
   <g id="patch_19">
    <path d="M 732.435716 501.501638 
L 754.953029 501.501638 
L 754.953029 61.047696 
L 732.435716 61.047696 
z
" clip-path="url(#pdf737932a4)" style="fill: #2ca02c"/>
   </g>
   <g id="patch_20">
    <path d="M 882.551131 501.501638 
L 905.068444 501.501638 
L 905.068444 225.223462 
L 882.551131 225.223462 
z
" clip-path="url(#pdf737932a4)" style="fill: #2ca02c"/>
   </g>
   <g id="patch_21">
    <path d="M 154.491369 501.501638 
L 177.008681 501.501638 
L 177.008681 53.092057 
L 154.491369 53.092057 
z
" clip-path="url(#pdf737932a4)" style="fill: #d62728"/>
   </g>
   <g id="patch_22">
    <path d="M 304.606784 501.501638 
L 327.124096 501.501638 
L 327.124096 58.154734 
L 304.606784 58.154734 
z
" clip-path="url(#pdf737932a4)" style="fill: #d62728"/>
   </g>
   <g id="patch_23">
    <path d="M 454.722199 501.501638 
L 477.239511 501.501638 
L 477.239511 56.708267 
L 454.722199 56.708267 
z
" clip-path="url(#pdf737932a4)" style="fill: #d62728"/>
   </g>
   <g id="patch_24">
    <path d="M 604.837614 501.501638 
L 627.354926 501.501638 
L 627.354926 80.575216 
L 604.837614 80.575216 
z
" clip-path="url(#pdf737932a4)" style="fill: #d62728"/>
   </g>
   <g id="patch_25">
    <path d="M 754.953029 501.501638 
L 777.470341 501.501638 
L 777.470341 115.290796 
L 754.953029 115.290796 
z
" clip-path="url(#pdf737932a4)" style="fill: #d62728"/>
   </g>
   <g id="patch_26">
    <path d="M 905.068444 501.501638 
L 927.585756 501.501638 
L 927.585756 64.663907 
L 905.068444 64.663907 
z
" clip-path="url(#pdf737932a4)" style="fill: #d62728"/>
   </g>
   <g id="patch_27">
    <path d="M 177.008681 501.501638 
L 199.525993 501.501638 
L 199.525993 61.047696 
L 177.008681 61.047696 
z
" clip-path="url(#pdf737932a4)" style="fill: #9467bd"/>
   </g>
   <g id="patch_28">
    <path d="M 327.124096 501.501638 
L 349.641408 501.501638 
L 349.641408 45.136388 
L 327.124096 45.136388 
z
" clip-path="url(#pdf737932a4)" style="fill: #9467bd"/>
   </g>
   <g id="patch_29">
    <path d="M 477.239511 501.501638 
L 499.756823 501.501638 
L 499.756823 232.455883 
L 477.239511 232.455883 
z
" clip-path="url(#pdf737932a4)" style="fill: #9467bd"/>
   </g>
   <g id="patch_30">
    <path d="M 627.354926 501.501638 
L 649.872238 501.501638 
L 649.872238 80.575216 
L 627.354926 80.575216 
z
" clip-path="url(#pdf737932a4)" style="fill: #9467bd"/>
   </g>
   <g id="patch_31">
    <path d="M 777.470341 501.501638 
L 799.987653 501.501638 
L 799.987653 225.223462 
L 777.470341 225.223462 
z
" clip-path="url(#pdf737932a4)" style="fill: #9467bd"/>
   </g>
   <g id="patch_32">
    <path d="M 927.585756 501.501638 
L 950.103068 501.501638 
L 950.103068 225.223462 
L 927.585756 225.223462 
z
" clip-path="url(#pdf737932a4)" style="fill: #9467bd"/>
   </g>
   <g id="matplotlib.axis_1">
    <g id="xtick_1">
     <g id="line2d_1">
      <defs>
       <path id="m03a786c013" d="M 0 0 
L 0 3.5 
" style="stroke: #000000; stroke-width: 0.8"/>
      </defs>
      <g>
       <use xlink:href="#m03a786c013" x="143.232712" y="501.501638" style="stroke: #000000; stroke-width: 0.8"/>
      </g>
     </g>
     <g id="text_1">
      <!-- effective -->
      <g transform="translate(110.921247 544.715449) rotate(-45) scale(0.1 -0.1)">
       <defs>
        <path id="DejaVuSans-65" d="M 3597 1894 
L 3597 1613 
L 953 1613 
Q 991 1019 1311 708 
Q 1631 397 2203 397 
Q 2534 397 2845 478 
Q 3156 559 3463 722 
L 3463 178 
Q 3153 47 2828 -22 
Q 2503 -91 2169 -91 
Q 1331 -91 842 396 
Q 353 884 353 1716 
Q 353 2575 817 3079 
Q 1281 3584 2069 3584 
Q 2775 3584 3186 3129 
Q 3597 2675 3597 1894 
z
M 3022 2063 
Q 3016 2534 2758 2815 
Q 2500 3097 2075 3097 
Q 1594 3097 1305 2825 
Q 1016 2553 972 2059 
L 3022 2063 
z
" transform="scale(0.015625)"/>
        <path id="DejaVuSans-66" d="M 2375 4863 
L 2375 4384 
L 1825 4384 
Q 1516 4384 1395 4259 
Q 1275 4134 1275 3809 
L 1275 3500 
L 2222 3500 
L 2222 3053 
L 1275 3053 
L 1275 0 
L 697 0 
L 697 3053 
L 147 3053 
L 147 3500 
L 697 3500 
L 697 3744 
Q 697 4328 969 4595 
Q 1241 4863 1831 4863 
L 2375 4863 
z
" transform="scale(0.015625)"/>
        <path id="DejaVuSans-63" d="M 3122 3366 
L 3122 2828 
Q 2878 2963 2633 3030 
Q 2388 3097 2138 3097 
Q 1578 3097 1268 2742 
Q 959 2388 959 1747 
Q 959 1106 1268 751 
Q 1578 397 2138 397 
Q 2388 397 2633 464 
Q 2878 531 3122 666 
L 3122 134 
Q 2881 22 2623 -34 
Q 2366 -91 2075 -91 
Q 1284 -91 818 406 
Q 353 903 353 1747 
Q 353 2603 823 3093 
Q 1294 3584 2113 3584 
Q 2378 3584 2631 3529 
Q 2884 3475 3122 3366 
z
" transform="scale(0.015625)"/>
        <path id="DejaVuSans-74" d="M 1172 4494 
L 1172 3500 
L 2356 3500 
L 2356 3053 
L 1172 3053 
L 1172 1153 
Q 1172 725 1289 603 
Q 1406 481 1766 481 
L 2356 481 
L 2356 0 
L 1766 0 
Q 1100 0 847 248 
Q 594 497 594 1153 
L 594 3053 
L 172 3053 
L 172 3500 
L 594 3500 
L 594 4494 
L 1172 4494 
z
" transform="scale(0.015625)"/>
        <path id="DejaVuSans-69" d="M 603 3500 
L 1178 3500 
L 1178 0 
L 603 0 
L 603 3500 
z
M 603 4863 
L 1178 4863 
L 1178 4134 
L 603 4134 
L 603 4863 
z
" transform="scale(0.015625)"/>
        <path id="DejaVuSans-76" d="M 191 3500 
L 800 3500 
L 1894 563 
L 2988 3500 
L 3597 3500 
L 2284 0 
L 1503 0 
L 191 3500 
z
" transform="scale(0.015625)"/>
       </defs>
       <use xlink:href="#DejaVuSans-65"/>
       <use xlink:href="#DejaVuSans-66" transform="translate(61.523438 0)"/>
       <use xlink:href="#DejaVuSans-66" transform="translate(96.728516 0)"/>
       <use xlink:href="#DejaVuSans-65" transform="translate(131.933594 0)"/>
       <use xlink:href="#DejaVuSans-63" transform="translate(193.457031 0)"/>
       <use xlink:href="#DejaVuSans-74" transform="translate(248.4375 0)"/>
       <use xlink:href="#DejaVuSans-69" transform="translate(287.646484 0)"/>
       <use xlink:href="#DejaVuSans-76" transform="translate(315.429688 0)"/>
       <use xlink:href="#DejaVuSans-65" transform="translate(374.609375 0)"/>
      </g>
     </g>
    </g>
    <g id="xtick_2">
     <g id="line2d_2">
      <g>
       <use xlink:href="#m03a786c013" x="293.348127" y="501.501638" style="stroke: #000000; stroke-width: 0.8"/>
      </g>
     </g>
     <g id="text_2">
      <!-- inverse -->
      <g transform="translate(265.954369 539.797742) rotate(-45) scale(0.1 -0.1)">
       <defs>
        <path id="DejaVuSans-6e" d="M 3513 2113 
L 3513 0 
L 2938 0 
L 2938 2094 
Q 2938 2591 2744 2837 
Q 2550 3084 2163 3084 
Q 1697 3084 1428 2787 
Q 1159 2491 1159 1978 
L 1159 0 
L 581 0 
L 581 3500 
L 1159 3500 
L 1159 2956 
Q 1366 3272 1645 3428 
Q 1925 3584 2291 3584 
Q 2894 3584 3203 3211 
Q 3513 2838 3513 2113 
z
" transform="scale(0.015625)"/>
        <path id="DejaVuSans-72" d="M 2631 2963 
Q 2534 3019 2420 3045 
Q 2306 3072 2169 3072 
Q 1681 3072 1420 2755 
Q 1159 2438 1159 1844 
L 1159 0 
L 581 0 
L 581 3500 
L 1159 3500 
L 1159 2956 
Q 1341 3275 1631 3429 
Q 1922 3584 2338 3584 
Q 2397 3584 2469 3576 
Q 2541 3569 2628 3553 
L 2631 2963 
z
" transform="scale(0.015625)"/>
        <path id="DejaVuSans-73" d="M 2834 3397 
L 2834 2853 
Q 2591 2978 2328 3040 
Q 2066 3103 1784 3103 
Q 1356 3103 1142 2972 
Q 928 2841 928 2578 
Q 928 2378 1081 2264 
Q 1234 2150 1697 2047 
L 1894 2003 
Q 2506 1872 2764 1633 
Q 3022 1394 3022 966 
Q 3022 478 2636 193 
Q 2250 -91 1575 -91 
Q 1294 -91 989 -36 
Q 684 19 347 128 
L 347 722 
Q 666 556 975 473 
Q 1284 391 1588 391 
Q 1994 391 2212 530 
Q 2431 669 2431 922 
Q 2431 1156 2273 1281 
Q 2116 1406 1581 1522 
L 1381 1569 
Q 847 1681 609 1914 
Q 372 2147 372 2553 
Q 372 3047 722 3315 
Q 1072 3584 1716 3584 
Q 2034 3584 2315 3537 
Q 2597 3491 2834 3397 
z
" transform="scale(0.015625)"/>
       </defs>
       <use xlink:href="#DejaVuSans-69"/>
       <use xlink:href="#DejaVuSans-6e" transform="translate(27.783203 0)"/>
       <use xlink:href="#DejaVuSans-76" transform="translate(91.162109 0)"/>
       <use xlink:href="#DejaVuSans-65" transform="translate(150.341797 0)"/>
       <use xlink:href="#DejaVuSans-72" transform="translate(211.865234 0)"/>
       <use xlink:href="#DejaVuSans-73" transform="translate(252.978516 0)"/>
       <use xlink:href="#DejaVuSans-65" transform="translate(305.078125 0)"/>
      </g>
     </g>
    </g>
    <g id="xtick_3">
     <g id="line2d_3">
      <g>
       <use xlink:href="#m03a786c013" x="443.463542" y="501.501638" style="stroke: #000000; stroke-width: 0.8"/>
      </g>
     </g>
     <g id="text_3">
      <!-- linear -->
      <g transform="translate(421.991803 533.875723) rotate(-45) scale(0.1 -0.1)">
       <defs>
        <path id="DejaVuSans-6c" d="M 603 4863 
L 1178 4863 
L 1178 0 
L 603 0 
L 603 4863 
z
" transform="scale(0.015625)"/>
        <path id="DejaVuSans-61" d="M 2194 1759 
Q 1497 1759 1228 1600 
Q 959 1441 959 1056 
Q 959 750 1161 570 
Q 1363 391 1709 391 
Q 2188 391 2477 730 
Q 2766 1069 2766 1631 
L 2766 1759 
L 2194 1759 
z
M 3341 1997 
L 3341 0 
L 2766 0 
L 2766 531 
Q 2569 213 2275 61 
Q 1981 -91 1556 -91 
Q 1019 -91 701 211 
Q 384 513 384 1019 
Q 384 1609 779 1909 
Q 1175 2209 1959 2209 
L 2766 2209 
L 2766 2266 
Q 2766 2663 2505 2880 
Q 2244 3097 1772 3097 
Q 1472 3097 1187 3025 
Q 903 2953 641 2809 
L 641 3341 
Q 956 3463 1253 3523 
Q 1550 3584 1831 3584 
Q 2591 3584 2966 3190 
Q 3341 2797 3341 1997 
z
" transform="scale(0.015625)"/>
       </defs>
       <use xlink:href="#DejaVuSans-6c"/>
       <use xlink:href="#DejaVuSans-69" transform="translate(27.783203 0)"/>
       <use xlink:href="#DejaVuSans-6e" transform="translate(55.566406 0)"/>
       <use xlink:href="#DejaVuSans-65" transform="translate(118.945312 0)"/>
       <use xlink:href="#DejaVuSans-61" transform="translate(180.46875 0)"/>
       <use xlink:href="#DejaVuSans-72" transform="translate(241.748047 0)"/>
      </g>
     </g>
    </g>
    <g id="xtick_4">
     <g id="line2d_4">
      <g>
       <use xlink:href="#m03a786c013" x="593.578958" y="501.501638" style="stroke: #000000; stroke-width: 0.8"/>
      </g>
     </g>
     <g id="text_4">
      <!-- log_inv -->
      <g transform="translate(566.965226 538.821051) rotate(-45) scale(0.1 -0.1)">
       <defs>
        <path id="DejaVuSans-6f" d="M 1959 3097 
Q 1497 3097 1228 2736 
Q 959 2375 959 1747 
Q 959 1119 1226 758 
Q 1494 397 1959 397 
Q 2419 397 2687 759 
Q 2956 1122 2956 1747 
Q 2956 2369 2687 2733 
Q 2419 3097 1959 3097 
z
M 1959 3584 
Q 2709 3584 3137 3096 
Q 3566 2609 3566 1747 
Q 3566 888 3137 398 
Q 2709 -91 1959 -91 
Q 1206 -91 779 398 
Q 353 888 353 1747 
Q 353 2609 779 3096 
Q 1206 3584 1959 3584 
z
" transform="scale(0.015625)"/>
        <path id="DejaVuSans-67" d="M 2906 1791 
Q 2906 2416 2648 2759 
Q 2391 3103 1925 3103 
Q 1463 3103 1205 2759 
Q 947 2416 947 1791 
Q 947 1169 1205 825 
Q 1463 481 1925 481 
Q 2391 481 2648 825 
Q 2906 1169 2906 1791 
z
M 3481 434 
Q 3481 -459 3084 -895 
Q 2688 -1331 1869 -1331 
Q 1566 -1331 1297 -1286 
Q 1028 -1241 775 -1147 
L 775 -588 
Q 1028 -725 1275 -790 
Q 1522 -856 1778 -856 
Q 2344 -856 2625 -561 
Q 2906 -266 2906 331 
L 2906 616 
Q 2728 306 2450 153 
Q 2172 0 1784 0 
Q 1141 0 747 490 
Q 353 981 353 1791 
Q 353 2603 747 3093 
Q 1141 3584 1784 3584 
Q 2172 3584 2450 3431 
Q 2728 3278 2906 2969 
L 2906 3500 
L 3481 3500 
L 3481 434 
z
" transform="scale(0.015625)"/>
        <path id="DejaVuSans-5f" d="M 3263 -1063 
L 3263 -1509 
L -63 -1509 
L -63 -1063 
L 3263 -1063 
z
" transform="scale(0.015625)"/>
       </defs>
       <use xlink:href="#DejaVuSans-6c"/>
       <use xlink:href="#DejaVuSans-6f" transform="translate(27.783203 0)"/>
       <use xlink:href="#DejaVuSans-67" transform="translate(88.964844 0)"/>
       <use xlink:href="#DejaVuSans-5f" transform="translate(152.441406 0)"/>
       <use xlink:href="#DejaVuSans-69" transform="translate(202.441406 0)"/>
       <use xlink:href="#DejaVuSans-6e" transform="translate(230.224609 0)"/>
       <use xlink:href="#DejaVuSans-76" transform="translate(293.603516 0)"/>
      </g>
     </g>
    </g>
    <g id="xtick_5">
     <g id="line2d_5">
      <g>
       <use xlink:href="#m03a786c013" x="743.694373" y="501.501638" style="stroke: #000000; stroke-width: 0.8"/>
      </g>
     </g>
     <g id="text_5">
      <!-- median -->
      <g transform="translate(715.717251 540.381105) rotate(-45) scale(0.1 -0.1)">
       <defs>
        <path id="DejaVuSans-6d" d="M 3328 2828 
Q 3544 3216 3844 3400 
Q 4144 3584 4550 3584 
Q 5097 3584 5394 3201 
Q 5691 2819 5691 2113 
L 5691 0 
L 5113 0 
L 5113 2094 
Q 5113 2597 4934 2840 
Q 4756 3084 4391 3084 
Q 3944 3084 3684 2787 
Q 3425 2491 3425 1978 
L 3425 0 
L 2847 0 
L 2847 2094 
Q 2847 2600 2669 2842 
Q 2491 3084 2119 3084 
Q 1678 3084 1418 2786 
Q 1159 2488 1159 1978 
L 1159 0 
L 581 0 
L 581 3500 
L 1159 3500 
L 1159 2956 
Q 1356 3278 1631 3431 
Q 1906 3584 2284 3584 
Q 2666 3584 2933 3390 
Q 3200 3197 3328 2828 
z
" transform="scale(0.015625)"/>
        <path id="DejaVuSans-64" d="M 2906 2969 
L 2906 4863 
L 3481 4863 
L 3481 0 
L 2906 0 
L 2906 525 
Q 2725 213 2448 61 
Q 2172 -91 1784 -91 
Q 1150 -91 751 415 
Q 353 922 353 1747 
Q 353 2572 751 3078 
Q 1150 3584 1784 3584 
Q 2172 3584 2448 3432 
Q 2725 3281 2906 2969 
z
M 947 1747 
Q 947 1113 1208 752 
Q 1469 391 1925 391 
Q 2381 391 2643 752 
Q 2906 1113 2906 1747 
Q 2906 2381 2643 2742 
Q 2381 3103 1925 3103 
Q 1469 3103 1208 2742 
Q 947 2381 947 1747 
z
" transform="scale(0.015625)"/>
       </defs>
       <use xlink:href="#DejaVuSans-6d"/>
       <use xlink:href="#DejaVuSans-65" transform="translate(97.412109 0)"/>
       <use xlink:href="#DejaVuSans-64" transform="translate(158.935547 0)"/>
       <use xlink:href="#DejaVuSans-69" transform="translate(222.412109 0)"/>
       <use xlink:href="#DejaVuSans-61" transform="translate(250.195312 0)"/>
       <use xlink:href="#DejaVuSans-6e" transform="translate(311.474609 0)"/>
      </g>
     </g>
    </g>
    <g id="xtick_6">
     <g id="line2d_6">
      <g>
       <use xlink:href="#m03a786c013" x="893.809788" y="501.501638" style="stroke: #000000; stroke-width: 0.8"/>
      </g>
     </g>
     <g id="text_6">
      <!-- sqrt_inv -->
      <g transform="translate(864.124561 541.892546) rotate(-45) scale(0.1 -0.1)">
       <defs>
        <path id="DejaVuSans-71" d="M 947 1747 
Q 947 1113 1208 752 
Q 1469 391 1925 391 
Q 2381 391 2643 752 
Q 2906 1113 2906 1747 
Q 2906 2381 2643 2742 
Q 2381 3103 1925 3103 
Q 1469 3103 1208 2742 
Q 947 2381 947 1747 
z
M 2906 525 
Q 2725 213 2448 61 
Q 2172 -91 1784 -91 
Q 1150 -91 751 415 
Q 353 922 353 1747 
Q 353 2572 751 3078 
Q 1150 3584 1784 3584 
Q 2172 3584 2448 3432 
Q 2725 3281 2906 2969 
L 2906 3500 
L 3481 3500 
L 3481 -1331 
L 2906 -1331 
L 2906 525 
z
" transform="scale(0.015625)"/>
       </defs>
       <use xlink:href="#DejaVuSans-73"/>
       <use xlink:href="#DejaVuSans-71" transform="translate(52.099609 0)"/>
       <use xlink:href="#DejaVuSans-72" transform="translate(115.576172 0)"/>
       <use xlink:href="#DejaVuSans-74" transform="translate(156.689453 0)"/>
       <use xlink:href="#DejaVuSans-5f" transform="translate(195.898438 0)"/>
       <use xlink:href="#DejaVuSans-69" transform="translate(245.898438 0)"/>
       <use xlink:href="#DejaVuSans-6e" transform="translate(273.681641 0)"/>
       <use xlink:href="#DejaVuSans-76" transform="translate(337.060547 0)"/>
      </g>
     </g>
    </g>
    <g id="text_7">
     <!-- Weighting Method -->
     <g transform="translate(473.028281 557.784448) scale(0.1 -0.1)">
      <defs>
       <path id="DejaVuSans-57" d="M 213 4666 
L 850 4666 
L 1831 722 
L 2809 4666 
L 3519 4666 
L 4500 722 
L 5478 4666 
L 6119 4666 
L 4947 0 
L 4153 0 
L 3169 4050 
L 2175 0 
L 1381 0 
L 213 4666 
z
" transform="scale(0.015625)"/>
       <path id="DejaVuSans-68" d="M 3513 2113 
L 3513 0 
L 2938 0 
L 2938 2094 
Q 2938 2591 2744 2837 
Q 2550 3084 2163 3084 
Q 1697 3084 1428 2787 
Q 1159 2491 1159 1978 
L 1159 0 
L 581 0 
L 581 4863 
L 1159 4863 
L 1159 2956 
Q 1366 3272 1645 3428 
Q 1925 3584 2291 3584 
Q 2894 3584 3203 3211 
Q 3513 2838 3513 2113 
z
" transform="scale(0.015625)"/>
       <path id="DejaVuSans-20" transform="scale(0.015625)"/>
       <path id="DejaVuSans-4d" d="M 628 4666 
L 1569 4666 
L 2759 1491 
L 3956 4666 
L 4897 4666 
L 4897 0 
L 4281 0 
L 4281 4097 
L 3078 897 
L 2444 897 
L 1241 4097 
L 1241 0 
L 628 0 
L 628 4666 
z
" transform="scale(0.015625)"/>
      </defs>
      <use xlink:href="#DejaVuSans-57"/>
      <use xlink:href="#DejaVuSans-65" transform="translate(93.001953 0)"/>
      <use xlink:href="#DejaVuSans-69" transform="translate(154.525391 0)"/>
      <use xlink:href="#DejaVuSans-67" transform="translate(182.308594 0)"/>
      <use xlink:href="#DejaVuSans-68" transform="translate(245.785156 0)"/>
      <use xlink:href="#DejaVuSans-74" transform="translate(309.164062 0)"/>
      <use xlink:href="#DejaVuSans-69" transform="translate(348.373047 0)"/>
      <use xlink:href="#DejaVuSans-6e" transform="translate(376.15625 0)"/>
      <use xlink:href="#DejaVuSans-67" transform="translate(439.535156 0)"/>
      <use xlink:href="#DejaVuSans-20" transform="translate(503.011719 0)"/>
      <use xlink:href="#DejaVuSans-4d" transform="translate(534.798828 0)"/>
      <use xlink:href="#DejaVuSans-65" transform="translate(621.078125 0)"/>
      <use xlink:href="#DejaVuSans-74" transform="translate(682.601562 0)"/>
      <use xlink:href="#DejaVuSans-68" transform="translate(721.810547 0)"/>
      <use xlink:href="#DejaVuSans-6f" transform="translate(785.189453 0)"/>
      <use xlink:href="#DejaVuSans-64" transform="translate(846.371094 0)"/>
     </g>
    </g>
   </g>
   <g id="matplotlib.axis_2">
    <g id="ytick_1">
     <g id="line2d_7">
      <path d="M 43.78125 501.501638 
L 993.26125 501.501638 
" clip-path="url(#pdf737932a4)" style="fill: none; stroke: #b0b0b0; stroke-opacity: 0.3; stroke-width: 0.8; stroke-linecap: square"/>
     </g>
     <g id="line2d_8">
      <defs>
       <path id="m7055d63ca1" d="M 0 0 
L -3.5 0 
" style="stroke: #000000; stroke-width: 0.8"/>
      </defs>
      <g>
       <use xlink:href="#m7055d63ca1" x="43.78125" y="501.501638" style="stroke: #000000; stroke-width: 0.8"/>
      </g>
     </g>
     <g id="text_8">
      <!-- 0.0 -->
      <g transform="translate(20.878125 505.300857) scale(0.1 -0.1)">
       <defs>
        <path id="DejaVuSans-30" d="M 2034 4250 
Q 1547 4250 1301 3770 
Q 1056 3291 1056 2328 
Q 1056 1369 1301 889 
Q 1547 409 2034 409 
Q 2525 409 2770 889 
Q 3016 1369 3016 2328 
Q 3016 3291 2770 3770 
Q 2525 4250 2034 4250 
z
M 2034 4750 
Q 2819 4750 3233 4129 
Q 3647 3509 3647 2328 
Q 3647 1150 3233 529 
Q 2819 -91 2034 -91 
Q 1250 -91 836 529 
Q 422 1150 422 2328 
Q 422 3509 836 4129 
Q 1250 4750 2034 4750 
z
" transform="scale(0.015625)"/>
        <path id="DejaVuSans-2e" d="M 684 794 
L 1344 794 
L 1344 0 
L 684 0 
L 684 794 
z
" transform="scale(0.015625)"/>
       </defs>
       <use xlink:href="#DejaVuSans-30"/>
       <use xlink:href="#DejaVuSans-2e" transform="translate(63.623047 0)"/>
       <use xlink:href="#DejaVuSans-30" transform="translate(95.410156 0)"/>
      </g>
     </g>
    </g>
    <g id="ytick_2">
     <g id="line2d_9">
      <path d="M 43.78125 402.200615 
L 993.26125 402.200615 
" clip-path="url(#pdf737932a4)" style="fill: none; stroke: #b0b0b0; stroke-opacity: 0.3; stroke-width: 0.8; stroke-linecap: square"/>
     </g>
     <g id="line2d_10">
      <g>
       <use xlink:href="#m7055d63ca1" x="43.78125" y="402.200615" style="stroke: #000000; stroke-width: 0.8"/>
      </g>
     </g>
     <g id="text_9">
      <!-- 0.1 -->
      <g transform="translate(20.878125 405.999833) scale(0.1 -0.1)">
       <defs>
        <path id="DejaVuSans-31" d="M 794 531 
L 1825 531 
L 1825 4091 
L 703 3866 
L 703 4441 
L 1819 4666 
L 2450 4666 
L 2450 531 
L 3481 531 
L 3481 0 
L 794 0 
L 794 531 
z
" transform="scale(0.015625)"/>
       </defs>
       <use xlink:href="#DejaVuSans-30"/>
       <use xlink:href="#DejaVuSans-2e" transform="translate(63.623047 0)"/>
       <use xlink:href="#DejaVuSans-31" transform="translate(95.410156 0)"/>
      </g>
     </g>
    </g>
    <g id="ytick_3">
     <g id="line2d_11">
      <path d="M 43.78125 302.899591 
L 993.26125 302.899591 
" clip-path="url(#pdf737932a4)" style="fill: none; stroke: #b0b0b0; stroke-opacity: 0.3; stroke-width: 0.8; stroke-linecap: square"/>
     </g>
     <g id="line2d_12">
      <g>
       <use xlink:href="#m7055d63ca1" x="43.78125" y="302.899591" style="stroke: #000000; stroke-width: 0.8"/>
      </g>
     </g>
     <g id="text_10">
      <!-- 0.2 -->
      <g transform="translate(20.878125 306.69881) scale(0.1 -0.1)">
       <defs>
        <path id="DejaVuSans-32" d="M 1228 531 
L 3431 531 
L 3431 0 
L 469 0 
L 469 531 
Q 828 903 1448 1529 
Q 2069 2156 2228 2338 
Q 2531 2678 2651 2914 
Q 2772 3150 2772 3378 
Q 2772 3750 2511 3984 
Q 2250 4219 1831 4219 
Q 1534 4219 1204 4116 
Q 875 4013 500 3803 
L 500 4441 
Q 881 4594 1212 4672 
Q 1544 4750 1819 4750 
Q 2544 4750 2975 4387 
Q 3406 4025 3406 3419 
Q 3406 3131 3298 2873 
Q 3191 2616 2906 2266 
Q 2828 2175 2409 1742 
Q 1991 1309 1228 531 
z
" transform="scale(0.015625)"/>
       </defs>
       <use xlink:href="#DejaVuSans-30"/>
       <use xlink:href="#DejaVuSans-2e" transform="translate(63.623047 0)"/>
       <use xlink:href="#DejaVuSans-32" transform="translate(95.410156 0)"/>
      </g>
     </g>
    </g>
    <g id="ytick_4">
     <g id="line2d_13">
      <path d="M 43.78125 203.598568 
L 993.26125 203.598568 
" clip-path="url(#pdf737932a4)" style="fill: none; stroke: #b0b0b0; stroke-opacity: 0.3; stroke-width: 0.8; stroke-linecap: square"/>
     </g>
     <g id="line2d_14">
      <g>
       <use xlink:href="#m7055d63ca1" x="43.78125" y="203.598568" style="stroke: #000000; stroke-width: 0.8"/>
      </g>
     </g>
     <g id="text_11">
      <!-- 0.3 -->
      <g transform="translate(20.878125 207.397787) scale(0.1 -0.1)">
       <defs>
        <path id="DejaVuSans-33" d="M 2597 2516 
Q 3050 2419 3304 2112 
Q 3559 1806 3559 1356 
Q 3559 666 3084 287 
Q 2609 -91 1734 -91 
Q 1441 -91 1130 -33 
Q 819 25 488 141 
L 488 750 
Q 750 597 1062 519 
Q 1375 441 1716 441 
Q 2309 441 2620 675 
Q 2931 909 2931 1356 
Q 2931 1769 2642 2001 
Q 2353 2234 1838 2234 
L 1294 2234 
L 1294 2753 
L 1863 2753 
Q 2328 2753 2575 2939 
Q 2822 3125 2822 3475 
Q 2822 3834 2567 4026 
Q 2313 4219 1838 4219 
Q 1578 4219 1281 4162 
Q 984 4106 628 3988 
L 628 4550 
Q 988 4650 1302 4700 
Q 1616 4750 1894 4750 
Q 2613 4750 3031 4423 
Q 3450 4097 3450 3541 
Q 3450 3153 3228 2886 
Q 3006 2619 2597 2516 
z
" transform="scale(0.015625)"/>
       </defs>
       <use xlink:href="#DejaVuSans-30"/>
       <use xlink:href="#DejaVuSans-2e" transform="translate(63.623047 0)"/>
       <use xlink:href="#DejaVuSans-33" transform="translate(95.410156 0)"/>
      </g>
     </g>
    </g>
    <g id="ytick_5">
     <g id="line2d_15">
      <path d="M 43.78125 104.297544 
L 993.26125 104.297544 
" clip-path="url(#pdf737932a4)" style="fill: none; stroke: #b0b0b0; stroke-opacity: 0.3; stroke-width: 0.8; stroke-linecap: square"/>
     </g>
     <g id="line2d_16">
      <g>
       <use xlink:href="#m7055d63ca1" x="43.78125" y="104.297544" style="stroke: #000000; stroke-width: 0.8"/>
      </g>
     </g>
     <g id="text_12">
      <!-- 0.4 -->
      <g transform="translate(20.878125 108.096763) scale(0.1 -0.1)">
       <defs>
        <path id="DejaVuSans-34" d="M 2419 4116 
L 825 1625 
L 2419 1625 
L 2419 4116 
z
M 2253 4666 
L 3047 4666 
L 3047 1625 
L 3713 1625 
L 3713 1100 
L 3047 1100 
L 3047 0 
L 2419 0 
L 2419 1100 
L 313 1100 
L 313 1709 
L 2253 4666 
z
" transform="scale(0.015625)"/>
       </defs>
       <use xlink:href="#DejaVuSans-30"/>
       <use xlink:href="#DejaVuSans-2e" transform="translate(63.623047 0)"/>
       <use xlink:href="#DejaVuSans-34" transform="translate(95.410156 0)"/>
      </g>
     </g>
    </g>
    <g id="text_13">
     <!-- Test Accuracy -->
     <g transform="translate(14.798438 296.172382) rotate(-90) scale(0.1 -0.1)">
      <defs>
       <path id="DejaVuSans-54" d="M -19 4666 
L 3928 4666 
L 3928 4134 
L 2272 4134 
L 2272 0 
L 1638 0 
L 1638 4134 
L -19 4134 
L -19 4666 
z
" transform="scale(0.015625)"/>
       <path id="DejaVuSans-41" d="M 2188 4044 
L 1331 1722 
L 3047 1722 
L 2188 4044 
z
M 1831 4666 
L 2547 4666 
L 4325 0 
L 3669 0 
L 3244 1197 
L 1141 1197 
L 716 0 
L 50 0 
L 1831 4666 
z
" transform="scale(0.015625)"/>
       <path id="DejaVuSans-75" d="M 544 1381 
L 544 3500 
L 1119 3500 
L 1119 1403 
Q 1119 906 1312 657 
Q 1506 409 1894 409 
Q 2359 409 2629 706 
Q 2900 1003 2900 1516 
L 2900 3500 
L 3475 3500 
L 3475 0 
L 2900 0 
L 2900 538 
Q 2691 219 2414 64 
Q 2138 -91 1772 -91 
Q 1169 -91 856 284 
Q 544 659 544 1381 
z
M 1991 3584 
L 1991 3584 
z
" transform="scale(0.015625)"/>
       <path id="DejaVuSans-79" d="M 2059 -325 
Q 1816 -950 1584 -1140 
Q 1353 -1331 966 -1331 
L 506 -1331 
L 506 -850 
L 844 -850 
Q 1081 -850 1212 -737 
Q 1344 -625 1503 -206 
L 1606 56 
L 191 3500 
L 800 3500 
L 1894 763 
L 2988 3500 
L 3597 3500 
L 2059 -325 
z
" transform="scale(0.015625)"/>
      </defs>
      <use xlink:href="#DejaVuSans-54"/>
      <use xlink:href="#DejaVuSans-65" transform="translate(44.083984 0)"/>
      <use xlink:href="#DejaVuSans-73" transform="translate(105.607422 0)"/>
      <use xlink:href="#DejaVuSans-74" transform="translate(157.707031 0)"/>
      <use xlink:href="#DejaVuSans-20" transform="translate(196.916016 0)"/>
      <use xlink:href="#DejaVuSans-41" transform="translate(228.703125 0)"/>
      <use xlink:href="#DejaVuSans-63" transform="translate(295.361328 0)"/>
      <use xlink:href="#DejaVuSans-63" transform="translate(350.341797 0)"/>
      <use xlink:href="#DejaVuSans-75" transform="translate(405.322266 0)"/>
      <use xlink:href="#DejaVuSans-72" transform="translate(468.701172 0)"/>
      <use xlink:href="#DejaVuSans-61" transform="translate(509.814453 0)"/>
      <use xlink:href="#DejaVuSans-63" transform="translate(571.09375 0)"/>
      <use xlink:href="#DejaVuSans-79" transform="translate(626.074219 0)"/>
     </g>
    </g>
   </g>
   <g id="line2d_17">
    <path d="M 43.78125 56.633053 
L 993.26125 56.633053 
" clip-path="url(#pdf737932a4)" style="fill: none; stroke-dasharray: 7.4,3.2; stroke-dashoffset: 0; stroke: #ff0000; stroke-width: 2"/>
   </g>
   <g id="line2d_18">
    <path d="M 43.78125 225.444793 
L 993.26125 225.444793 
" clip-path="url(#pdf737932a4)" style="fill: none; stroke-dasharray: 7.4,3.2; stroke-dashoffset: 0; stroke: #ffa500; stroke-width: 2"/>
   </g>
   <g id="patch_33">
    <path d="M 43.78125 501.501638 
L 43.78125 22.318125 
" style="fill: none; stroke: #000000; stroke-width: 0.8; stroke-linejoin: miter; stroke-linecap: square"/>
   </g>
   <g id="patch_34">
    <path d="M 993.26125 501.501638 
L 993.26125 22.318125 
" style="fill: none; stroke: #000000; stroke-width: 0.8; stroke-linejoin: miter; stroke-linecap: square"/>
   </g>
   <g id="patch_35">
    <path d="M 43.78125 501.501638 
L 993.26125 501.501638 
" style="fill: none; stroke: #000000; stroke-width: 0.8; stroke-linejoin: miter; stroke-linecap: square"/>
   </g>
   <g id="patch_36">
    <path d="M 43.78125 22.318125 
L 993.26125 22.318125 
" style="fill: none; stroke: #000000; stroke-width: 0.8; stroke-linejoin: miter; stroke-linecap: square"/>
   </g>
   <g id="text_14">
    <!-- Class Weighting Strategy Comparison (seed=42) -->
    <g transform="translate(371.631875 16.318125) scale(0.12 -0.12)">
     <defs>
      <path id="DejaVuSans-43" d="M 4122 4306 
L 4122 3641 
Q 3803 3938 3442 4084 
Q 3081 4231 2675 4231 
Q 1875 4231 1450 3742 
Q 1025 3253 1025 2328 
Q 1025 1406 1450 917 
Q 1875 428 2675 428 
Q 3081 428 3442 575 
Q 3803 722 4122 1019 
L 4122 359 
Q 3791 134 3420 21 
Q 3050 -91 2638 -91 
Q 1578 -91 968 557 
Q 359 1206 359 2328 
Q 359 3453 968 4101 
Q 1578 4750 2638 4750 
Q 3056 4750 3426 4639 
Q 3797 4528 4122 4306 
z
" transform="scale(0.015625)"/>
      <path id="DejaVuSans-53" d="M 3425 4513 
L 3425 3897 
Q 3066 4069 2747 4153 
Q 2428 4238 2131 4238 
Q 1616 4238 1336 4038 
Q 1056 3838 1056 3469 
Q 1056 3159 1242 3001 
Q 1428 2844 1947 2747 
L 2328 2669 
Q 3034 2534 3370 2195 
Q 3706 1856 3706 1288 
Q 3706 609 3251 259 
Q 2797 -91 1919 -91 
Q 1588 -91 1214 -16 
Q 841 59 441 206 
L 441 856 
Q 825 641 1194 531 
Q 1563 422 1919 422 
Q 2459 422 2753 634 
Q 3047 847 3047 1241 
Q 3047 1584 2836 1778 
Q 2625 1972 2144 2069 
L 1759 2144 
Q 1053 2284 737 2584 
Q 422 2884 422 3419 
Q 422 4038 858 4394 
Q 1294 4750 2059 4750 
Q 2388 4750 2728 4690 
Q 3069 4631 3425 4513 
z
" transform="scale(0.015625)"/>
      <path id="DejaVuSans-70" d="M 1159 525 
L 1159 -1331 
L 581 -1331 
L 581 3500 
L 1159 3500 
L 1159 2969 
Q 1341 3281 1617 3432 
Q 1894 3584 2278 3584 
Q 2916 3584 3314 3078 
Q 3713 2572 3713 1747 
Q 3713 922 3314 415 
Q 2916 -91 2278 -91 
Q 1894 -91 1617 61 
Q 1341 213 1159 525 
z
M 3116 1747 
Q 3116 2381 2855 2742 
Q 2594 3103 2138 3103 
Q 1681 3103 1420 2742 
Q 1159 2381 1159 1747 
Q 1159 1113 1420 752 
Q 1681 391 2138 391 
Q 2594 391 2855 752 
Q 3116 1113 3116 1747 
z
" transform="scale(0.015625)"/>
      <path id="DejaVuSans-28" d="M 1984 4856 
Q 1566 4138 1362 3434 
Q 1159 2731 1159 2009 
Q 1159 1288 1364 580 
Q 1569 -128 1984 -844 
L 1484 -844 
Q 1016 -109 783 600 
Q 550 1309 550 2009 
Q 550 2706 781 3412 
Q 1013 4119 1484 4856 
L 1984 4856 
z
" transform="scale(0.015625)"/>
      <path id="DejaVuSans-3d" d="M 678 2906 
L 4684 2906 
L 4684 2381 
L 678 2381 
L 678 2906 
z
M 678 1631 
L 4684 1631 
L 4684 1100 
L 678 1100 
L 678 1631 
z
" transform="scale(0.015625)"/>
      <path id="DejaVuSans-29" d="M 513 4856 
L 1013 4856 
Q 1481 4119 1714 3412 
Q 1947 2706 1947 2009 
Q 1947 1309 1714 600 
Q 1481 -109 1013 -844 
L 513 -844 
Q 928 -128 1133 580 
Q 1338 1288 1338 2009 
Q 1338 2731 1133 3434 
Q 928 4138 513 4856 
z
" transform="scale(0.015625)"/>
     </defs>
     <use xlink:href="#DejaVuSans-43"/>
     <use xlink:href="#DejaVuSans-6c" transform="translate(69.824219 0)"/>
     <use xlink:href="#DejaVuSans-61" transform="translate(97.607422 0)"/>
     <use xlink:href="#DejaVuSans-73" transform="translate(158.886719 0)"/>
     <use xlink:href="#DejaVuSans-73" transform="translate(210.986328 0)"/>
     <use xlink:href="#DejaVuSans-20" transform="translate(263.085938 0)"/>
     <use xlink:href="#DejaVuSans-57" transform="translate(294.873047 0)"/>
     <use xlink:href="#DejaVuSans-65" transform="translate(387.875 0)"/>
     <use xlink:href="#DejaVuSans-69" transform="translate(449.398438 0)"/>
     <use xlink:href="#DejaVuSans-67" transform="translate(477.181641 0)"/>
     <use xlink:href="#DejaVuSans-68" transform="translate(540.658203 0)"/>
     <use xlink:href="#DejaVuSans-74" transform="translate(604.037109 0)"/>
     <use xlink:href="#DejaVuSans-69" transform="translate(643.246094 0)"/>
     <use xlink:href="#DejaVuSans-6e" transform="translate(671.029297 0)"/>
     <use xlink:href="#DejaVuSans-67" transform="translate(734.408203 0)"/>
     <use xlink:href="#DejaVuSans-20" transform="translate(797.884766 0)"/>
     <use xlink:href="#DejaVuSans-53" transform="translate(829.671875 0)"/>
     <use xlink:href="#DejaVuSans-74" transform="translate(893.148438 0)"/>
     <use xlink:href="#DejaVuSans-72" transform="translate(932.357422 0)"/>
     <use xlink:href="#DejaVuSans-61" transform="translate(973.470703 0)"/>
     <use xlink:href="#DejaVuSans-74" transform="translate(1034.75 0)"/>
     <use xlink:href="#DejaVuSans-65" transform="translate(1073.958984 0)"/>
     <use xlink:href="#DejaVuSans-67" transform="translate(1135.482422 0)"/>
     <use xlink:href="#DejaVuSans-79" transform="translate(1198.958984 0)"/>
     <use xlink:href="#DejaVuSans-20" transform="translate(1258.138672 0)"/>
     <use xlink:href="#DejaVuSans-43" transform="translate(1289.925781 0)"/>
     <use xlink:href="#DejaVuSans-6f" transform="translate(1359.75 0)"/>
     <use xlink:href="#DejaVuSans-6d" transform="translate(1420.931641 0)"/>
     <use xlink:href="#DejaVuSans-70" transform="translate(1518.34375 0)"/>
     <use xlink:href="#DejaVuSans-61" transform="translate(1581.820312 0)"/>
     <use xlink:href="#DejaVuSans-72" transform="translate(1643.099609 0)"/>
     <use xlink:href="#DejaVuSans-69" transform="translate(1684.212891 0)"/>
     <use xlink:href="#DejaVuSans-73" transform="translate(1711.996094 0)"/>
     <use xlink:href="#DejaVuSans-6f" transform="translate(1764.095703 0)"/>
     <use xlink:href="#DejaVuSans-6e" transform="translate(1825.277344 0)"/>
     <use xlink:href="#DejaVuSans-20" transform="translate(1888.65625 0)"/>
     <use xlink:href="#DejaVuSans-28" transform="translate(1920.443359 0)"/>
     <use xlink:href="#DejaVuSans-73" transform="translate(1959.457031 0)"/>
     <use xlink:href="#DejaVuSans-65" transform="translate(2011.556641 0)"/>
     <use xlink:href="#DejaVuSans-65" transform="translate(2073.080078 0)"/>
     <use xlink:href="#DejaVuSans-64" transform="translate(2134.603516 0)"/>
     <use xlink:href="#DejaVuSans-3d" transform="translate(2198.080078 0)"/>
     <use xlink:href="#DejaVuSans-34" transform="translate(2281.869141 0)"/>
     <use xlink:href="#DejaVuSans-32" transform="translate(2345.492188 0)"/>
     <use xlink:href="#DejaVuSans-29" transform="translate(2409.115234 0)"/>
    </g>
   </g>
   <g id="legend_1">
    <g id="patch_37">
     <path d="M 806.575312 134.455625 
L 986.26125 134.455625 
Q 988.26125 134.455625 988.26125 132.455625 
L 988.26125 29.318125 
Q 988.26125 27.318125 986.26125 27.318125 
L 806.575312 27.318125 
Q 804.575312 27.318125 804.575312 29.318125 
L 804.575312 132.455625 
Q 804.575312 134.455625 806.575312 134.455625 
z
" style="fill: #ffffff; opacity: 0.8; stroke: #cccccc; stroke-linejoin: miter"/>
    </g>
    <g id="line2d_19">
     <path d="M 808.575312 35.416563 
L 818.575312 35.416563 
L 828.575312 35.416563 
" style="fill: none; stroke-dasharray: 7.4,3.2; stroke-dashoffset: 0; stroke: #ff0000; stroke-width: 2"/>
    </g>
    <g id="text_15">
     <!-- Unweighted baseline (44.8%) -->
     <g transform="translate(836.575312 38.916563) scale(0.1 -0.1)">
      <defs>
       <path id="DejaVuSans-55" d="M 556 4666 
L 1191 4666 
L 1191 1831 
Q 1191 1081 1462 751 
Q 1734 422 2344 422 
Q 2950 422 3222 751 
Q 3494 1081 3494 1831 
L 3494 4666 
L 4128 4666 
L 4128 1753 
Q 4128 841 3676 375 
Q 3225 -91 2344 -91 
Q 1459 -91 1007 375 
Q 556 841 556 1753 
L 556 4666 
z
" transform="scale(0.015625)"/>
       <path id="DejaVuSans-77" d="M 269 3500 
L 844 3500 
L 1563 769 
L 2278 3500 
L 2956 3500 
L 3675 769 
L 4391 3500 
L 4966 3500 
L 4050 0 
L 3372 0 
L 2619 2869 
L 1863 0 
L 1184 0 
L 269 3500 
z
" transform="scale(0.015625)"/>
       <path id="DejaVuSans-62" d="M 3116 1747 
Q 3116 2381 2855 2742 
Q 2594 3103 2138 3103 
Q 1681 3103 1420 2742 
Q 1159 2381 1159 1747 
Q 1159 1113 1420 752 
Q 1681 391 2138 391 
Q 2594 391 2855 752 
Q 3116 1113 3116 1747 
z
M 1159 2969 
Q 1341 3281 1617 3432 
Q 1894 3584 2278 3584 
Q 2916 3584 3314 3078 
Q 3713 2572 3713 1747 
Q 3713 922 3314 415 
Q 2916 -91 2278 -91 
Q 1894 -91 1617 61 
Q 1341 213 1159 525 
L 1159 0 
L 581 0 
L 581 4863 
L 1159 4863 
L 1159 2969 
z
" transform="scale(0.015625)"/>
       <path id="DejaVuSans-38" d="M 2034 2216 
Q 1584 2216 1326 1975 
Q 1069 1734 1069 1313 
Q 1069 891 1326 650 
Q 1584 409 2034 409 
Q 2484 409 2743 651 
Q 3003 894 3003 1313 
Q 3003 1734 2745 1975 
Q 2488 2216 2034 2216 
z
M 1403 2484 
Q 997 2584 770 2862 
Q 544 3141 544 3541 
Q 544 4100 942 4425 
Q 1341 4750 2034 4750 
Q 2731 4750 3128 4425 
Q 3525 4100 3525 3541 
Q 3525 3141 3298 2862 
Q 3072 2584 2669 2484 
Q 3125 2378 3379 2068 
Q 3634 1759 3634 1313 
Q 3634 634 3220 271 
Q 2806 -91 2034 -91 
Q 1263 -91 848 271 
Q 434 634 434 1313 
Q 434 1759 690 2068 
Q 947 2378 1403 2484 
z
M 1172 3481 
Q 1172 3119 1398 2916 
Q 1625 2713 2034 2713 
Q 2441 2713 2670 2916 
Q 2900 3119 2900 3481 
Q 2900 3844 2670 4047 
Q 2441 4250 2034 4250 
Q 1625 4250 1398 4047 
Q 1172 3844 1172 3481 
z
" transform="scale(0.015625)"/>
       <path id="DejaVuSans-25" d="M 4653 2053 
Q 4381 2053 4226 1822 
Q 4072 1591 4072 1178 
Q 4072 772 4226 539 
Q 4381 306 4653 306 
Q 4919 306 5073 539 
Q 5228 772 5228 1178 
Q 5228 1588 5073 1820 
Q 4919 2053 4653 2053 
z
M 4653 2450 
Q 5147 2450 5437 2106 
Q 5728 1763 5728 1178 
Q 5728 594 5436 251 
Q 5144 -91 4653 -91 
Q 4153 -91 3862 251 
Q 3572 594 3572 1178 
Q 3572 1766 3864 2108 
Q 4156 2450 4653 2450 
z
M 1428 4353 
Q 1159 4353 1004 4120 
Q 850 3888 850 3481 
Q 850 3069 1003 2837 
Q 1156 2606 1428 2606 
Q 1700 2606 1854 2837 
Q 2009 3069 2009 3481 
Q 2009 3884 1853 4118 
Q 1697 4353 1428 4353 
z
M 4250 4750 
L 4750 4750 
L 1831 -91 
L 1331 -91 
L 4250 4750 
z
M 1428 4750 
Q 1922 4750 2215 4408 
Q 2509 4066 2509 3481 
Q 2509 2891 2217 2550 
Q 1925 2209 1428 2209 
Q 931 2209 642 2551 
Q 353 2894 353 3481 
Q 353 4063 643 4406 
Q 934 4750 1428 4750 
z
" transform="scale(0.015625)"/>
      </defs>
      <use xlink:href="#DejaVuSans-55"/>
      <use xlink:href="#DejaVuSans-6e" transform="translate(73.193359 0)"/>
      <use xlink:href="#DejaVuSans-77" transform="translate(136.572266 0)"/>
      <use xlink:href="#DejaVuSans-65" transform="translate(218.359375 0)"/>
      <use xlink:href="#DejaVuSans-69" transform="translate(279.882812 0)"/>
      <use xlink:href="#DejaVuSans-67" transform="translate(307.666016 0)"/>
      <use xlink:href="#DejaVuSans-68" transform="translate(371.142578 0)"/>
      <use xlink:href="#DejaVuSans-74" transform="translate(434.521484 0)"/>
      <use xlink:href="#DejaVuSans-65" transform="translate(473.730469 0)"/>
      <use xlink:href="#DejaVuSans-64" transform="translate(535.253906 0)"/>
      <use xlink:href="#DejaVuSans-20" transform="translate(598.730469 0)"/>
      <use xlink:href="#DejaVuSans-62" transform="translate(630.517578 0)"/>
      <use xlink:href="#DejaVuSans-61" transform="translate(693.994141 0)"/>
      <use xlink:href="#DejaVuSans-73" transform="translate(755.273438 0)"/>
      <use xlink:href="#DejaVuSans-65" transform="translate(807.373047 0)"/>
      <use xlink:href="#DejaVuSans-6c" transform="translate(868.896484 0)"/>
      <use xlink:href="#DejaVuSans-69" transform="translate(896.679688 0)"/>
      <use xlink:href="#DejaVuSans-6e" transform="translate(924.462891 0)"/>
      <use xlink:href="#DejaVuSans-65" transform="translate(987.841797 0)"/>
      <use xlink:href="#DejaVuSans-20" transform="translate(1049.365234 0)"/>
      <use xlink:href="#DejaVuSans-28" transform="translate(1081.152344 0)"/>
      <use xlink:href="#DejaVuSans-34" transform="translate(1120.166016 0)"/>
      <use xlink:href="#DejaVuSans-34" transform="translate(1183.789062 0)"/>
      <use xlink:href="#DejaVuSans-2e" transform="translate(1247.412109 0)"/>
      <use xlink:href="#DejaVuSans-38" transform="translate(1279.199219 0)"/>
      <use xlink:href="#DejaVuSans-25" transform="translate(1342.822266 0)"/>
      <use xlink:href="#DejaVuSans-29" transform="translate(1437.841797 0)"/>
     </g>
    </g>
    <g id="line2d_20">
     <path d="M 808.575312 50.094688 
L 818.575312 50.094688 
L 828.575312 50.094688 
" style="fill: none; stroke-dasharray: 7.4,3.2; stroke-dashoffset: 0; stroke: #ffa500; stroke-width: 2"/>
    </g>
    <g id="text_16">
     <!-- Majority baseline (27.8%) -->
     <g transform="translate(836.575312 53.594688) scale(0.1 -0.1)">
      <defs>
       <path id="DejaVuSans-6a" d="M 603 3500 
L 1178 3500 
L 1178 -63 
Q 1178 -731 923 -1031 
Q 669 -1331 103 -1331 
L -116 -1331 
L -116 -844 
L 38 -844 
Q 366 -844 484 -692 
Q 603 -541 603 -63 
L 603 3500 
z
M 603 4863 
L 1178 4863 
L 1178 4134 
L 603 4134 
L 603 4863 
z
" transform="scale(0.015625)"/>
       <path id="DejaVuSans-37" d="M 525 4666 
L 3525 4666 
L 3525 4397 
L 1831 0 
L 1172 0 
L 2766 4134 
L 525 4134 
L 525 4666 
z
" transform="scale(0.015625)"/>
      </defs>
      <use xlink:href="#DejaVuSans-4d"/>
      <use xlink:href="#DejaVuSans-61" transform="translate(86.279297 0)"/>
      <use xlink:href="#DejaVuSans-6a" transform="translate(147.558594 0)"/>
      <use xlink:href="#DejaVuSans-6f" transform="translate(175.341797 0)"/>
      <use xlink:href="#DejaVuSans-72" transform="translate(236.523438 0)"/>
      <use xlink:href="#DejaVuSans-69" transform="translate(277.636719 0)"/>
      <use xlink:href="#DejaVuSans-74" transform="translate(305.419922 0)"/>
      <use xlink:href="#DejaVuSans-79" transform="translate(344.628906 0)"/>
      <use xlink:href="#DejaVuSans-20" transform="translate(403.808594 0)"/>
      <use xlink:href="#DejaVuSans-62" transform="translate(435.595703 0)"/>
      <use xlink:href="#DejaVuSans-61" transform="translate(499.072266 0)"/>
      <use xlink:href="#DejaVuSans-73" transform="translate(560.351562 0)"/>
      <use xlink:href="#DejaVuSans-65" transform="translate(612.451172 0)"/>
      <use xlink:href="#DejaVuSans-6c" transform="translate(673.974609 0)"/>
      <use xlink:href="#DejaVuSans-69" transform="translate(701.757812 0)"/>
      <use xlink:href="#DejaVuSans-6e" transform="translate(729.541016 0)"/>
      <use xlink:href="#DejaVuSans-65" transform="translate(792.919922 0)"/>
      <use xlink:href="#DejaVuSans-20" transform="translate(854.443359 0)"/>
      <use xlink:href="#DejaVuSans-28" transform="translate(886.230469 0)"/>
      <use xlink:href="#DejaVuSans-32" transform="translate(925.244141 0)"/>
      <use xlink:href="#DejaVuSans-37" transform="translate(988.867188 0)"/>
      <use xlink:href="#DejaVuSans-2e" transform="translate(1052.490234 0)"/>
      <use xlink:href="#DejaVuSans-38" transform="translate(1084.277344 0)"/>
      <use xlink:href="#DejaVuSans-25" transform="translate(1147.900391 0)"/>
      <use xlink:href="#DejaVuSans-29" transform="translate(1242.919922 0)"/>
     </g>
    </g>
    <g id="patch_38">
     <path d="M 808.575312 68.272813 
L 828.575312 68.272813 
L 828.575312 61.272813 
L 808.575312 61.272813 
z
" style="fill: #1f77b4"/>
    </g>
    <g id="text_17">
     <!-- max_w=1.0 -->
     <g transform="translate(836.575312 68.272813) scale(0.1 -0.1)">
      <defs>
       <path id="DejaVuSans-78" d="M 3513 3500 
L 2247 1797 
L 3578 0 
L 2900 0 
L 1881 1375 
L 863 0 
L 184 0 
L 1544 1831 
L 300 3500 
L 978 3500 
L 1906 2253 
L 2834 3500 
L 3513 3500 
z
" transform="scale(0.015625)"/>
      </defs>
      <use xlink:href="#DejaVuSans-6d"/>
      <use xlink:href="#DejaVuSans-61" transform="translate(97.412109 0)"/>
      <use xlink:href="#DejaVuSans-78" transform="translate(158.691406 0)"/>
      <use xlink:href="#DejaVuSans-5f" transform="translate(217.871094 0)"/>
      <use xlink:href="#DejaVuSans-77" transform="translate(267.871094 0)"/>
      <use xlink:href="#DejaVuSans-3d" transform="translate(349.658203 0)"/>
      <use xlink:href="#DejaVuSans-31" transform="translate(433.447266 0)"/>
      <use xlink:href="#DejaVuSans-2e" transform="translate(497.070312 0)"/>
      <use xlink:href="#DejaVuSans-30" transform="translate(528.857422 0)"/>
     </g>
    </g>
    <g id="patch_39">
     <path d="M 808.575312 83.229063 
L 828.575312 83.229063 
L 828.575312 76.229063 
L 808.575312 76.229063 
z
" style="fill: #ff7f0e"/>
    </g>
    <g id="text_18">
     <!-- max_w=1.5 -->
     <g transform="translate(836.575312 83.229063) scale(0.1 -0.1)">
      <defs>
       <path id="DejaVuSans-35" d="M 691 4666 
L 3169 4666 
L 3169 4134 
L 1269 4134 
L 1269 2991 
Q 1406 3038 1543 3061 
Q 1681 3084 1819 3084 
Q 2600 3084 3056 2656 
Q 3513 2228 3513 1497 
Q 3513 744 3044 326 
Q 2575 -91 1722 -91 
Q 1428 -91 1123 -41 
Q 819 9 494 109 
L 494 744 
Q 775 591 1075 516 
Q 1375 441 1709 441 
Q 2250 441 2565 725 
Q 2881 1009 2881 1497 
Q 2881 1984 2565 2268 
Q 2250 2553 1709 2553 
Q 1456 2553 1204 2497 
Q 953 2441 691 2322 
L 691 4666 
z
" transform="scale(0.015625)"/>
      </defs>
      <use xlink:href="#DejaVuSans-6d"/>
      <use xlink:href="#DejaVuSans-61" transform="translate(97.412109 0)"/>
      <use xlink:href="#DejaVuSans-78" transform="translate(158.691406 0)"/>
      <use xlink:href="#DejaVuSans-5f" transform="translate(217.871094 0)"/>
      <use xlink:href="#DejaVuSans-77" transform="translate(267.871094 0)"/>
      <use xlink:href="#DejaVuSans-3d" transform="translate(349.658203 0)"/>
      <use xlink:href="#DejaVuSans-31" transform="translate(433.447266 0)"/>
      <use xlink:href="#DejaVuSans-2e" transform="translate(497.070312 0)"/>
      <use xlink:href="#DejaVuSans-35" transform="translate(528.857422 0)"/>
     </g>
    </g>
    <g id="patch_40">
     <path d="M 808.575312 98.185313 
L 828.575312 98.185313 
L 828.575312 91.185313 
L 808.575312 91.185313 
z
" style="fill: #2ca02c"/>
    </g>
    <g id="text_19">
     <!-- max_w=2.0 -->
     <g transform="translate(836.575312 98.185313) scale(0.1 -0.1)">
      <use xlink:href="#DejaVuSans-6d"/>
      <use xlink:href="#DejaVuSans-61" transform="translate(97.412109 0)"/>
      <use xlink:href="#DejaVuSans-78" transform="translate(158.691406 0)"/>
      <use xlink:href="#DejaVuSans-5f" transform="translate(217.871094 0)"/>
      <use xlink:href="#DejaVuSans-77" transform="translate(267.871094 0)"/>
      <use xlink:href="#DejaVuSans-3d" transform="translate(349.658203 0)"/>
      <use xlink:href="#DejaVuSans-32" transform="translate(433.447266 0)"/>
      <use xlink:href="#DejaVuSans-2e" transform="translate(497.070312 0)"/>
      <use xlink:href="#DejaVuSans-30" transform="translate(528.857422 0)"/>
     </g>
    </g>
    <g id="patch_41">
     <path d="M 808.575312 113.141563 
L 828.575312 113.141563 
L 828.575312 106.141563 
L 808.575312 106.141563 
z
" style="fill: #d62728"/>
    </g>
    <g id="text_20">
     <!-- max_w=3.0 -->
     <g transform="translate(836.575312 113.141563) scale(0.1 -0.1)">
      <use xlink:href="#DejaVuSans-6d"/>
      <use xlink:href="#DejaVuSans-61" transform="translate(97.412109 0)"/>
      <use xlink:href="#DejaVuSans-78" transform="translate(158.691406 0)"/>
      <use xlink:href="#DejaVuSans-5f" transform="translate(217.871094 0)"/>
      <use xlink:href="#DejaVuSans-77" transform="translate(267.871094 0)"/>
      <use xlink:href="#DejaVuSans-3d" transform="translate(349.658203 0)"/>
      <use xlink:href="#DejaVuSans-33" transform="translate(433.447266 0)"/>
      <use xlink:href="#DejaVuSans-2e" transform="translate(497.070312 0)"/>
      <use xlink:href="#DejaVuSans-30" transform="translate(528.857422 0)"/>
     </g>
    </g>
    <g id="patch_42">
     <path d="M 808.575312 128.097813 
L 828.575312 128.097813 
L 828.575312 121.097813 
L 808.575312 121.097813 
z
" style="fill: #9467bd"/>
    </g>
    <g id="text_21">
     <!-- max_w=5.0 -->
     <g transform="translate(836.575312 128.097813) scale(0.1 -0.1)">
      <use xlink:href="#DejaVuSans-6d"/>
      <use xlink:href="#DejaVuSans-61" transform="translate(97.412109 0)"/>
      <use xlink:href="#DejaVuSans-78" transform="translate(158.691406 0)"/>
      <use xlink:href="#DejaVuSans-5f" transform="translate(217.871094 0)"/>
      <use xlink:href="#DejaVuSans-77" transform="translate(267.871094 0)"/>
      <use xlink:href="#DejaVuSans-3d" transform="translate(349.658203 0)"/>
      <use xlink:href="#DejaVuSans-35" transform="translate(433.447266 0)"/>
      <use xlink:href="#DejaVuSans-2e" transform="translate(497.070312 0)"/>
      <use xlink:href="#DejaVuSans-30" transform="translate(528.857422 0)"/>
     </g>
    </g>
   </g>
  </g>
 </g>
 <defs>
  <clipPath id="pdf737932a4">
   <rect x="43.78125" y="22.318125" width="949.48" height="479.183513"/>
  </clipPath>
 </defs>
</svg>
