<?xml version="1.0" encoding="utf-8" standalone="no"?>
<!DOCTYPE svg PUBLIC "-//W3C//DTD SVG 1.1//EN"
  "http://www.w3.org/Graphics/SVG/1.1/DTD/svg11.dtd">
<svg xmlns:xlink="http://www.w3.org/1999/xlink" width="679.68pt" height="725.955625pt" viewBox="0 0 679.68 725.955625" xmlns="http://www.w3.org/2000/svg" version="1.1">
 <metadata>
  <rdf:RDF xmlns:dc="http://purl.org/dc/elements/1.1/" xmlns:cc="http://creativecommons.org/ns#" xmlns:rdf="http://www.w3.org/1999/02/22-rdf-syntax-ns#">
   <cc:Work>
    <dc:type rdf:resource="http://purl.org/dc/dcmitype/StillImage"/>
    <dc:date>2026-05-12T20:42:37.209873</dc:date>
    <dc:format>image/svg+xml</dc:format>
    <dc:creator>
     <cc:Agent>
      <dc:title>Matplotlib v3.10.9, https://matplotlib.org/</dc:title>
     </cc:Agent>
    </dc:creator>
   </cc:Work>
  </rdf:RDF>
 </metadata>
 <defs>
  <style type="text/css">*{stroke-linejoin: round; stroke-linecap: butt}</style>
 </defs>
 <g id="figure_1">
  <g id="patch_1">
   <path d="M 0 725.955625 
L 679.68 725.955625 
L 679.68 0 
L 0 0 
z
" style="fill: #0f172a"/>
  </g>
  <g id="axes_1">
   <g id="patch_2">
    <path d="M 339.84 129.982825 
C 301.36256 129.982825 263.375119 138.65321 228.708143 155.347946 
C 194.041167 172.042682 163.577605 196.336562 139.587313 226.419436 
" clip-path="url(#pcf4b1eb5e8)" style="fill: none; opacity: 0.8; stroke: #00d4aa; stroke-width: 4; stroke-linejoin: miter"/>
   </g>
   <g id="patch_3">
    <path d="M 241.638592 136.198881 
L 235.534185 146.522659 
L 232.662076 140.558663 
L 214.680179 149.218289 
L 214.651314 149.158349 
L 232.633211 140.498724 
L 229.761102 134.534728 
z
" clip-path="url(#pcf4b1eb5e8)" style="fill: #ffd700; stroke: #f8fafc; stroke-width: 2; stroke-linejoin: miter"/>
   </g>
   <g id="patch_4">
    <path d="M 139.587313 226.419436 
C 115.597022 256.50231 98.69102 291.607985 90.128984 329.120715 
C 81.566948 366.633446 81.566948 405.597804 90.128984 443.110535 
" clip-path="url(#pcf4b1eb5e8)" style="fill: none; opacity: 0.8; stroke: #00d4aa; stroke-width: 4; stroke-linejoin: miter"/>
   </g>
   <g id="patch_5">
    <path d="M 83.219645 307.072036 
L 87.485065 318.281424 
L 81.031494 316.808439 
L 76.590332 336.26644 
L 76.525472 336.251636 
L 80.966634 316.793635 
L 74.513064 315.32065 
z
" clip-path="url(#pcf4b1eb5e8)" style="fill: #ffd700; stroke: #f8fafc; stroke-width: 2; stroke-linejoin: miter"/>
   </g>
   <g id="patch_6">
    <path d="M 90.128984 443.110535 
C 98.69102 480.623265 115.597022 515.72894 139.587313 545.811814 
C 163.577605 575.894688 194.041167 600.188568 228.708143 616.883304 
" clip-path="url(#pcf4b1eb5e8)" style="fill: none; opacity: 0.8; stroke: #00d4aa; stroke-width: 4; stroke-linejoin: miter"/>
   </g>
   <g id="patch_7">
    <path d="M 118.04106 537.466626 
L 129.464357 541.120726 
L 124.288996 545.247939 
L 136.732855 560.852044 
L 136.680841 560.893524 
L 124.236982 545.289418 
L 119.06162 549.416632 
z
" clip-path="url(#pcf4b1eb5e8)" style="fill: #ffd700; stroke: #f8fafc; stroke-width: 2; stroke-linejoin: miter"/>
   </g>
   <g id="patch_8">
    <path d="M 228.708143 616.883304 
C 263.375119 633.57804 301.36256 642.248425 339.84 642.248425 
C 378.31744 642.248425 416.304881 633.57804 450.971857 616.883304 
" clip-path="url(#pcf4b1eb5e8)" style="fill: none; opacity: 0.8; stroke: #00d4aa; stroke-width: 4; stroke-linejoin: miter"/>
   </g>
   <g id="patch_9">
    <path d="M 319.8816 653.890825 
L 329.8608 647.238025 
L 329.8608 653.857561 
L 349.8192 653.857561 
L 349.8192 653.924089 
L 329.8608 653.924089 
L 329.8608 660.543625 
z
" clip-path="url(#pcf4b1eb5e8)" style="fill: #ffd700; stroke: #f8fafc; stroke-width: 2; stroke-linejoin: miter"/>
   </g>
   <g id="patch_10">
    <path d="M 450.971857 616.883304 
C 485.638833 600.188568 516.102395 575.894688 540.092687 545.811814 
C 564.082978 515.72894 580.98898 480.623265 589.551016 443.110535 
" clip-path="url(#pcf4b1eb5e8)" style="fill: none; opacity: 0.8; stroke: #00d4aa; stroke-width: 4; stroke-linejoin: miter"/>
   </g>
   <g id="patch_11">
    <path d="M 536.751223 568.674837 
L 537.771784 556.724831 
L 542.947145 560.852044 
L 555.391004 545.247939 
L 555.443018 545.289418 
L 542.999159 560.893524 
L 548.174521 565.020737 
z
" clip-path="url(#pcf4b1eb5e8)" style="fill: #ffd700; stroke: #f8fafc; stroke-width: 2; stroke-linejoin: miter"/>
   </g>
   <g id="patch_12">
    <path d="M 589.551016 443.110535 
C 598.113052 405.597804 598.113052 366.633446 589.551016 329.120715 
C 580.98898 291.607985 564.082978 256.50231 540.092687 226.419436 
" clip-path="url(#pcf4b1eb5e8)" style="fill: none; opacity: 0.8; stroke: #00d4aa; stroke-width: 4; stroke-linejoin: miter"/>
   </g>
   <g id="patch_13">
    <path d="M 605.342678 345.988039 
L 596.636097 337.739425 
L 603.089668 336.26644 
L 598.648506 316.808439 
L 598.713366 316.793635 
L 603.154528 336.251636 
L 609.608098 334.778651 
z
" clip-path="url(#pcf4b1eb5e8)" style="fill: #ffd700; stroke: #f8fafc; stroke-width: 2; stroke-linejoin: miter"/>
   </g>
   <g id="patch_14">
    <path d="M 540.092687 226.419436 
C 516.102395 196.336562 485.638833 172.042682 450.971857 155.347946 
C 416.304881 138.65321 378.31744 129.982825 339.84 129.982825 
" clip-path="url(#pcf4b1eb5e8)" style="fill: none; opacity: 0.8; stroke: #00d4aa; stroke-width: 4; stroke-linejoin: miter"/>
   </g>
   <g id="patch_15">
    <path d="M 205.674798 618.713119 
L 217.552288 617.048966 
L 214.680179 623.012961 
L 232.662076 631.672587 
L 232.633211 631.732526 
L 214.651314 623.072901 
L 211.779205 629.036897 
z
" clip-path="url(#pcf4b1eb5e8)" style="fill: #ffd700; stroke: #f8fafc; stroke-width: 2; stroke-linejoin: miter"/>
   </g>
   <g id="patch_16">
    <path d="M 486.2016 416.053225 
L 659.1744 416.053225 
L 659.1744 356.178025 
L 486.2016 356.178025 
z
" clip-path="url(#pcf4b1eb5e8)" style="fill: #00d4aa; stroke: #ffd700; stroke-width: 3; stroke-linejoin: miter"/>
   </g>
   <g id="patch_17">
    <path d="M 398.531953 234.005328 
L 571.504753 234.005328 
L 571.504753 174.130128 
L 398.531953 174.130128 
z
" clip-path="url(#pcf4b1eb5e8)" style="fill: #00d4aa; stroke: #ffd700; stroke-width: 3; stroke-linejoin: miter"/>
   </g>
   <g id="patch_18">
    <path d="M 201.540046 189.043211 
L 374.512846 189.043211 
L 374.512846 129.168011 
L 201.540046 129.168011 
z
" clip-path="url(#pcf4b1eb5e8)" style="fill: #00d4aa; stroke: #ffd700; stroke-width: 3; stroke-linejoin: miter"/>
   </g>
   <g id="patch_19">
    <path d="M 43.564801 315.024264 
L 216.537601 315.024264 
L 216.537601 255.149064 
L 43.564801 255.149064 
z
" clip-path="url(#pcf4b1eb5e8)" style="fill: #00d4aa; stroke: #ffd700; stroke-width: 3; stroke-linejoin: miter"/>
   </g>
   <g id="patch_20">
    <path d="M 43.564801 517.082186 
L 216.537601 517.082186 
L 216.537601 457.206986 
L 43.564801 457.206986 
z
" clip-path="url(#pcf4b1eb5e8)" style="fill: #00d4aa; stroke: #ffd700; stroke-width: 3; stroke-linejoin: miter"/>
   </g>
   <g id="patch_21">
    <path d="M 201.540046 643.063239 
L 374.512846 643.063239 
L 374.512846 583.188039 
L 201.540046 583.188039 
z
" clip-path="url(#pcf4b1eb5e8)" style="fill: #00d4aa; stroke: #ffd700; stroke-width: 3; stroke-linejoin: miter"/>
   </g>
   <g id="patch_22">
    <path d="M 398.531953 598.101122 
L 571.504753 598.101122 
L 571.504753 538.225922 
L 398.531953 538.225922 
z
" clip-path="url(#pcf4b1eb5e8)" style="fill: #00d4aa; stroke: #ffd700; stroke-width: 3; stroke-linejoin: miter"/>
   </g>
   <g id="text_1">
    <!-- Post Task -->
    <g style="fill: #1e293b" transform="translate(530.0505 390.530625) scale(0.16 -0.16)">
     <defs>
      <path id="DejaVuSans-Bold-50" d="M 588 4666 
L 2584 4666 
Q 3475 4666 3951 4270 
Q 4428 3875 4428 3144 
Q 4428 2409 3951 2014 
Q 3475 1619 2584 1619 
L 1791 1619 
L 1791 0 
L 588 0 
L 588 4666 
z
M 1791 3794 
L 1791 2491 
L 2456 2491 
Q 2806 2491 2997 2661 
Q 3188 2831 3188 3144 
Q 3188 3456 2997 3625 
Q 2806 3794 2456 3794 
L 1791 3794 
z
" transform="scale(0.015625)"/>
      <path id="DejaVuSans-Bold-6f" d="M 2203 2784 
Q 1831 2784 1636 2517 
Q 1441 2250 1441 1747 
Q 1441 1244 1636 976 
Q 1831 709 2203 709 
Q 2569 709 2762 976 
Q 2956 1244 2956 1747 
Q 2956 2250 2762 2517 
Q 2569 2784 2203 2784 
z
M 2203 3584 
Q 3106 3584 3614 3096 
Q 4122 2609 4122 1747 
Q 4122 884 3614 396 
Q 3106 -91 2203 -91 
Q 1297 -91 786 396 
Q 275 884 275 1747 
Q 275 2609 786 3096 
Q 1297 3584 2203 3584 
z
" transform="scale(0.015625)"/>
      <path id="DejaVuSans-Bold-73" d="M 3272 3391 
L 3272 2541 
Q 2913 2691 2578 2766 
Q 2244 2841 1947 2841 
Q 1628 2841 1473 2761 
Q 1319 2681 1319 2516 
Q 1319 2381 1436 2309 
Q 1553 2238 1856 2203 
L 2053 2175 
Q 2913 2066 3209 1816 
Q 3506 1566 3506 1031 
Q 3506 472 3093 190 
Q 2681 -91 1863 -91 
Q 1516 -91 1145 -36 
Q 775 19 384 128 
L 384 978 
Q 719 816 1070 734 
Q 1422 653 1784 653 
Q 2113 653 2278 743 
Q 2444 834 2444 1013 
Q 2444 1163 2330 1236 
Q 2216 1309 1875 1350 
L 1678 1375 
Q 931 1469 631 1722 
Q 331 1975 331 2491 
Q 331 3047 712 3315 
Q 1094 3584 1881 3584 
Q 2191 3584 2531 3537 
Q 2872 3491 3272 3391 
z
" transform="scale(0.015625)"/>
      <path id="DejaVuSans-Bold-74" d="M 1759 4494 
L 1759 3500 
L 2913 3500 
L 2913 2700 
L 1759 2700 
L 1759 1216 
Q 1759 972 1856 886 
Q 1953 800 2241 800 
L 2816 800 
L 2816 0 
L 1856 0 
Q 1194 0 917 276 
Q 641 553 641 1216 
L 641 2700 
L 84 2700 
L 84 3500 
L 641 3500 
L 641 4494 
L 1759 4494 
z
" transform="scale(0.015625)"/>
      <path id="DejaVuSans-Bold-20" transform="scale(0.015625)"/>
      <path id="DejaVuSans-Bold-54" d="M 31 4666 
L 4331 4666 
L 4331 3756 
L 2784 3756 
L 2784 0 
L 1581 0 
L 1581 3756 
L 31 3756 
L 31 4666 
z
" transform="scale(0.015625)"/>
      <path id="DejaVuSans-Bold-61" d="M 2106 1575 
Q 1756 1575 1579 1456 
Q 1403 1338 1403 1106 
Q 1403 894 1545 773 
Q 1688 653 1941 653 
Q 2256 653 2472 879 
Q 2688 1106 2688 1447 
L 2688 1575 
L 2106 1575 
z
M 3816 1997 
L 3816 0 
L 2688 0 
L 2688 519 
Q 2463 200 2181 54 
Q 1900 -91 1497 -91 
Q 953 -91 614 226 
Q 275 544 275 1050 
Q 275 1666 698 1953 
Q 1122 2241 2028 2241 
L 2688 2241 
L 2688 2328 
Q 2688 2594 2478 2717 
Q 2269 2841 1825 2841 
Q 1466 2841 1156 2769 
Q 847 2697 581 2553 
L 581 3406 
Q 941 3494 1303 3539 
Q 1666 3584 2028 3584 
Q 2975 3584 3395 3211 
Q 3816 2838 3816 1997 
z
" transform="scale(0.015625)"/>
      <path id="DejaVuSans-Bold-6b" d="M 538 4863 
L 1656 4863 
L 1656 2216 
L 2944 3500 
L 4244 3500 
L 2534 1894 
L 4378 0 
L 3022 0 
L 1656 1459 
L 1656 0 
L 538 0 
L 538 4863 
z
" transform="scale(0.015625)"/>
     </defs>
     <use xlink:href="#DejaVuSans-Bold-50"/>
     <use xlink:href="#DejaVuSans-Bold-6f" transform="translate(73.291016 0)"/>
     <use xlink:href="#DejaVuSans-Bold-73" transform="translate(141.992188 0)"/>
     <use xlink:href="#DejaVuSans-Bold-74" transform="translate(201.513672 0)"/>
     <use xlink:href="#DejaVuSans-Bold-20" transform="translate(249.316406 0)"/>
     <use xlink:href="#DejaVuSans-Bold-54" transform="translate(284.130859 0)"/>
     <use xlink:href="#DejaVuSans-Bold-61" transform="translate(339.46875 0)"/>
     <use xlink:href="#DejaVuSans-Bold-73" transform="translate(406.949219 0)"/>
     <use xlink:href="#DejaVuSans-Bold-6b" transform="translate(466.470703 0)"/>
    </g>
   </g>
   <g id="text_2">
    <!-- Agents Bid -->
    <g style="fill: #1e293b" transform="translate(436.043353 208.420228) scale(0.16 -0.16)">
     <defs>
      <path id="DejaVuSans-Bold-41" d="M 3419 850 
L 1538 850 
L 1241 0 
L 31 0 
L 1759 4666 
L 3194 4666 
L 4922 0 
L 3713 0 
L 3419 850 
z
M 1838 1716 
L 3116 1716 
L 2478 3572 
L 1838 1716 
z
" transform="scale(0.015625)"/>
      <path id="DejaVuSans-Bold-67" d="M 2919 594 
Q 2688 288 2409 144 
Q 2131 0 1766 0 
Q 1125 0 706 504 
Q 288 1009 288 1791 
Q 288 2575 706 3076 
Q 1125 3578 1766 3578 
Q 2131 3578 2409 3434 
Q 2688 3291 2919 2981 
L 2919 3500 
L 4044 3500 
L 4044 353 
Q 4044 -491 3511 -936 
Q 2978 -1381 1966 -1381 
Q 1638 -1381 1331 -1331 
Q 1025 -1281 716 -1178 
L 716 -306 
Q 1009 -475 1290 -558 
Q 1572 -641 1856 -641 
Q 2406 -641 2662 -400 
Q 2919 -159 2919 353 
L 2919 594 
z
M 2181 2772 
Q 1834 2772 1640 2515 
Q 1447 2259 1447 1791 
Q 1447 1309 1634 1061 
Q 1822 813 2181 813 
Q 2531 813 2725 1069 
Q 2919 1325 2919 1791 
Q 2919 2259 2725 2515 
Q 2531 2772 2181 2772 
z
" transform="scale(0.015625)"/>
      <path id="DejaVuSans-Bold-65" d="M 4031 1759 
L 4031 1441 
L 1416 1441 
Q 1456 1047 1700 850 
Q 1944 653 2381 653 
Q 2734 653 3104 758 
Q 3475 863 3866 1075 
L 3866 213 
Q 3469 63 3072 -14 
Q 2675 -91 2278 -91 
Q 1328 -91 801 392 
Q 275 875 275 1747 
Q 275 2603 792 3093 
Q 1309 3584 2216 3584 
Q 3041 3584 3536 3087 
Q 4031 2591 4031 1759 
z
M 2881 2131 
Q 2881 2450 2695 2645 
Q 2509 2841 2209 2841 
Q 1884 2841 1681 2658 
Q 1478 2475 1428 2131 
L 2881 2131 
z
" transform="scale(0.015625)"/>
      <path id="DejaVuSans-Bold-6e" d="M 4056 2131 
L 4056 0 
L 2931 0 
L 2931 347 
L 2931 1631 
Q 2931 2084 2911 2256 
Q 2891 2428 2841 2509 
Q 2775 2619 2662 2680 
Q 2550 2741 2406 2741 
Q 2056 2741 1856 2470 
Q 1656 2200 1656 1722 
L 1656 0 
L 538 0 
L 538 3500 
L 1656 3500 
L 1656 2988 
Q 1909 3294 2193 3439 
Q 2478 3584 2822 3584 
Q 3428 3584 3742 3212 
Q 4056 2841 4056 2131 
z
" transform="scale(0.015625)"/>
      <path id="DejaVuSans-Bold-42" d="M 2456 2859 
Q 2741 2859 2887 2984 
Q 3034 3109 3034 3353 
Q 3034 3594 2887 3720 
Q 2741 3847 2456 3847 
L 1791 3847 
L 1791 2859 
L 2456 2859 
z
M 2497 819 
Q 2859 819 3042 972 
Q 3225 1125 3225 1434 
Q 3225 1738 3044 1889 
Q 2863 2041 2497 2041 
L 1791 2041 
L 1791 819 
L 2497 819 
z
M 3616 2497 
Q 4003 2384 4215 2081 
Q 4428 1778 4428 1338 
Q 4428 663 3972 331 
Q 3516 0 2584 0 
L 588 0 
L 588 4666 
L 2394 4666 
Q 3366 4666 3802 4372 
Q 4238 4078 4238 3431 
Q 4238 3091 4078 2852 
Q 3919 2613 3616 2497 
z
" transform="scale(0.015625)"/>
      <path id="DejaVuSans-Bold-69" d="M 538 3500 
L 1656 3500 
L 1656 0 
L 538 0 
L 538 3500 
z
M 538 4863 
L 1656 4863 
L 1656 3950 
L 538 3950 
L 538 4863 
z
" transform="scale(0.015625)"/>
      <path id="DejaVuSans-Bold-64" d="M 2919 2988 
L 2919 4863 
L 4044 4863 
L 4044 0 
L 2919 0 
L 2919 506 
Q 2688 197 2409 53 
Q 2131 -91 1766 -91 
Q 1119 -91 703 423 
Q 288 938 288 1747 
Q 288 2556 703 3070 
Q 1119 3584 1766 3584 
Q 2128 3584 2408 3439 
Q 2688 3294 2919 2988 
z
M 2181 722 
Q 2541 722 2730 984 
Q 2919 1247 2919 1747 
Q 2919 2247 2730 2509 
Q 2541 2772 2181 2772 
Q 1825 2772 1636 2509 
Q 1447 2247 1447 1747 
Q 1447 1247 1636 984 
Q 1825 722 2181 722 
z
" transform="scale(0.015625)"/>
     </defs>
     <use xlink:href="#DejaVuSans-Bold-41"/>
     <use xlink:href="#DejaVuSans-Bold-67" transform="translate(77.392578 0)"/>
     <use xlink:href="#DejaVuSans-Bold-65" transform="translate(148.974609 0)"/>
     <use xlink:href="#DejaVuSans-Bold-6e" transform="translate(216.796875 0)"/>
     <use xlink:href="#DejaVuSans-Bold-74" transform="translate(287.988281 0)"/>
     <use xlink:href="#DejaVuSans-Bold-73" transform="translate(335.791016 0)"/>
     <use xlink:href="#DejaVuSans-Bold-20" transform="translate(395.3125 0)"/>
     <use xlink:href="#DejaVuSans-Bold-42" transform="translate(430.126953 0)"/>
     <use xlink:href="#DejaVuSans-Bold-69" transform="translate(506.347656 0)"/>
     <use xlink:href="#DejaVuSans-Bold-64" transform="translate(540.625 0)"/>
    </g>
   </g>
   <g id="text_3">
    <!-- Winner Executes -->
    <g style="fill: #1e293b" transform="translate(212.413946 163.520611) scale(0.16 -0.16)">
     <defs>
      <path id="DejaVuSans-Bold-57" d="M 191 4666 
L 1344 4666 
L 2150 1275 
L 2950 4666 
L 4109 4666 
L 4909 1275 
L 5716 4666 
L 6859 4666 
L 5759 0 
L 4372 0 
L 3525 3547 
L 2688 0 
L 1300 0 
L 191 4666 
z
" transform="scale(0.015625)"/>
      <path id="DejaVuSans-Bold-72" d="M 3138 2547 
Q 2991 2616 2845 2648 
Q 2700 2681 2553 2681 
Q 2122 2681 1889 2404 
Q 1656 2128 1656 1613 
L 1656 0 
L 538 0 
L 538 3500 
L 1656 3500 
L 1656 2925 
Q 1872 3269 2151 3426 
Q 2431 3584 2822 3584 
Q 2878 3584 2943 3579 
Q 3009 3575 3134 3559 
L 3138 2547 
z
" transform="scale(0.015625)"/>
      <path id="DejaVuSans-Bold-45" d="M 588 4666 
L 3834 4666 
L 3834 3756 
L 1791 3756 
L 1791 2888 
L 3713 2888 
L 3713 1978 
L 1791 1978 
L 1791 909 
L 3903 909 
L 3903 0 
L 588 0 
L 588 4666 
z
" transform="scale(0.015625)"/>
      <path id="DejaVuSans-Bold-78" d="M 1422 1791 
L 159 3500 
L 1344 3500 
L 2059 2463 
L 2784 3500 
L 3969 3500 
L 2706 1797 
L 4031 0 
L 2847 0 
L 2059 1106 
L 1281 0 
L 97 0 
L 1422 1791 
z
" transform="scale(0.015625)"/>
      <path id="DejaVuSans-Bold-63" d="M 3366 3391 
L 3366 2478 
Q 3138 2634 2908 2709 
Q 2678 2784 2431 2784 
Q 1963 2784 1702 2511 
Q 1441 2238 1441 1747 
Q 1441 1256 1702 982 
Q 1963 709 2431 709 
Q 2694 709 2930 787 
Q 3166 866 3366 1019 
L 3366 103 
Q 3103 6 2833 -42 
Q 2563 -91 2291 -91 
Q 1344 -91 809 395 
Q 275 881 275 1747 
Q 275 2613 809 3098 
Q 1344 3584 2291 3584 
Q 2566 3584 2833 3536 
Q 3100 3488 3366 3391 
z
" transform="scale(0.015625)"/>
      <path id="DejaVuSans-Bold-75" d="M 500 1363 
L 500 3500 
L 1625 3500 
L 1625 3150 
Q 1625 2866 1622 2436 
Q 1619 2006 1619 1863 
Q 1619 1441 1641 1255 
Q 1663 1069 1716 984 
Q 1784 875 1895 815 
Q 2006 756 2150 756 
Q 2500 756 2700 1025 
Q 2900 1294 2900 1772 
L 2900 3500 
L 4019 3500 
L 4019 0 
L 2900 0 
L 2900 506 
Q 2647 200 2364 54 
Q 2081 -91 1741 -91 
Q 1134 -91 817 281 
Q 500 653 500 1363 
z
" transform="scale(0.015625)"/>
     </defs>
     <use xlink:href="#DejaVuSans-Bold-57"/>
     <use xlink:href="#DejaVuSans-Bold-69" transform="translate(110.302734 0)"/>
     <use xlink:href="#DejaVuSans-Bold-6e" transform="translate(144.580078 0)"/>
     <use xlink:href="#DejaVuSans-Bold-6e" transform="translate(215.771484 0)"/>
     <use xlink:href="#DejaVuSans-Bold-65" transform="translate(286.962891 0)"/>
     <use xlink:href="#DejaVuSans-Bold-72" transform="translate(354.785156 0)"/>
     <use xlink:href="#DejaVuSans-Bold-20" transform="translate(404.101562 0)"/>
     <use xlink:href="#DejaVuSans-Bold-45" transform="translate(438.916016 0)"/>
     <use xlink:href="#DejaVuSans-Bold-78" transform="translate(507.226562 0)"/>
     <use xlink:href="#DejaVuSans-Bold-65" transform="translate(571.728516 0)"/>
     <use xlink:href="#DejaVuSans-Bold-63" transform="translate(639.550781 0)"/>
     <use xlink:href="#DejaVuSans-Bold-75" transform="translate(698.828125 0)"/>
     <use xlink:href="#DejaVuSans-Bold-74" transform="translate(770.019531 0)"/>
     <use xlink:href="#DejaVuSans-Bold-65" transform="translate(817.822266 0)"/>
     <use xlink:href="#DejaVuSans-Bold-73" transform="translate(885.644531 0)"/>
    </g>
   </g>
   <g id="text_4">
    <!-- Result Verified -->
    <g style="fill: #1e293b" transform="translate(63.417451 289.501664) scale(0.16 -0.16)">
     <defs>
      <path id="DejaVuSans-Bold-52" d="M 2297 2597 
Q 2675 2597 2839 2737 
Q 3003 2878 3003 3200 
Q 3003 3519 2839 3656 
Q 2675 3794 2297 3794 
L 1791 3794 
L 1791 2597 
L 2297 2597 
z
M 1791 1766 
L 1791 0 
L 588 0 
L 588 4666 
L 2425 4666 
Q 3347 4666 3776 4356 
Q 4206 4047 4206 3378 
Q 4206 2916 3982 2619 
Q 3759 2322 3309 2181 
Q 3556 2125 3751 1926 
Q 3947 1728 4147 1325 
L 4800 0 
L 3519 0 
L 2950 1159 
Q 2778 1509 2601 1637 
Q 2425 1766 2131 1766 
L 1791 1766 
z
" transform="scale(0.015625)"/>
      <path id="DejaVuSans-Bold-6c" d="M 538 4863 
L 1656 4863 
L 1656 0 
L 538 0 
L 538 4863 
z
" transform="scale(0.015625)"/>
      <path id="DejaVuSans-Bold-56" d="M 31 4666 
L 1241 4666 
L 2478 1222 
L 3713 4666 
L 4922 4666 
L 3194 0 
L 1759 0 
L 31 4666 
z
" transform="scale(0.015625)"/>
      <path id="DejaVuSans-Bold-66" d="M 2841 4863 
L 2841 4128 
L 2222 4128 
Q 1984 4128 1890 4042 
Q 1797 3956 1797 3744 
L 1797 3500 
L 2753 3500 
L 2753 2700 
L 1797 2700 
L 1797 0 
L 678 0 
L 678 2700 
L 122 2700 
L 122 3500 
L 678 3500 
L 678 3744 
Q 678 4316 997 4589 
Q 1316 4863 1984 4863 
L 2841 4863 
z
" transform="scale(0.015625)"/>
     </defs>
     <use xlink:href="#DejaVuSans-Bold-52"/>
     <use xlink:href="#DejaVuSans-Bold-65" transform="translate(77.001953 0)"/>
     <use xlink:href="#DejaVuSans-Bold-73" transform="translate(144.824219 0)"/>
     <use xlink:href="#DejaVuSans-Bold-75" transform="translate(204.345703 0)"/>
     <use xlink:href="#DejaVuSans-Bold-6c" transform="translate(275.537109 0)"/>
     <use xlink:href="#DejaVuSans-Bold-74" transform="translate(309.814453 0)"/>
     <use xlink:href="#DejaVuSans-Bold-20" transform="translate(357.617188 0)"/>
     <use xlink:href="#DejaVuSans-Bold-56" transform="translate(392.431641 0)"/>
     <use xlink:href="#DejaVuSans-Bold-65" transform="translate(464.324219 0)"/>
     <use xlink:href="#DejaVuSans-Bold-72" transform="translate(532.146484 0)"/>
     <use xlink:href="#DejaVuSans-Bold-69" transform="translate(581.462891 0)"/>
     <use xlink:href="#DejaVuSans-Bold-66" transform="translate(615.740234 0)"/>
     <use xlink:href="#DejaVuSans-Bold-69" transform="translate(659.246094 0)"/>
     <use xlink:href="#DejaVuSans-Bold-65" transform="translate(693.523438 0)"/>
     <use xlink:href="#DejaVuSans-Bold-64" transform="translate(761.345703 0)"/>
    </g>
   </g>
   <g id="text_5">
    <!-- Payment Settles -->
    <g style="fill: #1e293b" transform="translate(56.202451 491.497086) scale(0.16 -0.16)">
     <defs>
      <path id="DejaVuSans-Bold-79" d="M 78 3500 
L 1197 3500 
L 2138 1125 
L 2938 3500 
L 4056 3500 
L 2584 -331 
Q 2363 -916 2067 -1148 
Q 1772 -1381 1288 -1381 
L 641 -1381 
L 641 -647 
L 991 -647 
Q 1275 -647 1404 -556 
Q 1534 -466 1606 -231 
L 1638 -134 
L 78 3500 
z
" transform="scale(0.015625)"/>
      <path id="DejaVuSans-Bold-6d" d="M 3781 2919 
Q 3994 3244 4286 3414 
Q 4578 3584 4928 3584 
Q 5531 3584 5847 3212 
Q 6163 2841 6163 2131 
L 6163 0 
L 5038 0 
L 5038 1825 
Q 5041 1866 5042 1909 
Q 5044 1953 5044 2034 
Q 5044 2406 4934 2573 
Q 4825 2741 4581 2741 
Q 4263 2741 4089 2478 
Q 3916 2216 3909 1719 
L 3909 0 
L 2784 0 
L 2784 1825 
Q 2784 2406 2684 2573 
Q 2584 2741 2328 2741 
Q 2006 2741 1831 2477 
Q 1656 2213 1656 1722 
L 1656 0 
L 531 0 
L 531 3500 
L 1656 3500 
L 1656 2988 
Q 1863 3284 2130 3434 
Q 2397 3584 2719 3584 
Q 3081 3584 3359 3409 
Q 3638 3234 3781 2919 
z
" transform="scale(0.015625)"/>
      <path id="DejaVuSans-Bold-53" d="M 3834 4519 
L 3834 3531 
Q 3450 3703 3084 3790 
Q 2719 3878 2394 3878 
Q 1963 3878 1756 3759 
Q 1550 3641 1550 3391 
Q 1550 3203 1689 3098 
Q 1828 2994 2194 2919 
L 2706 2816 
Q 3484 2659 3812 2340 
Q 4141 2022 4141 1434 
Q 4141 663 3683 286 
Q 3225 -91 2284 -91 
Q 1841 -91 1394 -6 
Q 947 78 500 244 
L 500 1259 
Q 947 1022 1364 901 
Q 1781 781 2169 781 
Q 2563 781 2772 912 
Q 2981 1044 2981 1288 
Q 2981 1506 2839 1625 
Q 2697 1744 2272 1838 
L 1806 1941 
Q 1106 2091 782 2419 
Q 459 2747 459 3303 
Q 459 4000 909 4375 
Q 1359 4750 2203 4750 
Q 2588 4750 2994 4692 
Q 3400 4634 3834 4519 
z
" transform="scale(0.015625)"/>
     </defs>
     <use xlink:href="#DejaVuSans-Bold-50"/>
     <use xlink:href="#DejaVuSans-Bold-61" transform="translate(70.666016 0)"/>
     <use xlink:href="#DejaVuSans-Bold-79" transform="translate(135.021484 0)"/>
     <use xlink:href="#DejaVuSans-Bold-6d" transform="translate(200.207031 0)"/>
     <use xlink:href="#DejaVuSans-Bold-65" transform="translate(304.40625 0)"/>
     <use xlink:href="#DejaVuSans-Bold-6e" transform="translate(372.228516 0)"/>
     <use xlink:href="#DejaVuSans-Bold-74" transform="translate(443.419922 0)"/>
     <use xlink:href="#DejaVuSans-Bold-20" transform="translate(491.222656 0)"/>
     <use xlink:href="#DejaVuSans-Bold-53" transform="translate(526.037109 0)"/>
     <use xlink:href="#DejaVuSans-Bold-65" transform="translate(598.058594 0)"/>
     <use xlink:href="#DejaVuSans-Bold-74" transform="translate(665.880859 0)"/>
     <use xlink:href="#DejaVuSans-Bold-74" transform="translate(713.683594 0)"/>
     <use xlink:href="#DejaVuSans-Bold-6c" transform="translate(761.486328 0)"/>
     <use xlink:href="#DejaVuSans-Bold-65" transform="translate(795.763672 0)"/>
     <use xlink:href="#DejaVuSans-Bold-73" transform="translate(863.585938 0)"/>
    </g>
   </g>
   <g id="text_6">
    <!-- Reputation Updates -->
    <g style="fill: #1e293b" transform="translate(197.895196 617.540639) scale(0.16 -0.16)">
     <defs>
      <path id="DejaVuSans-Bold-70" d="M 1656 506 
L 1656 -1331 
L 538 -1331 
L 538 3500 
L 1656 3500 
L 1656 2988 
Q 1888 3294 2169 3439 
Q 2450 3584 2816 3584 
Q 3463 3584 3878 3070 
Q 4294 2556 4294 1747 
Q 4294 938 3878 423 
Q 3463 -91 2816 -91 
Q 2450 -91 2169 54 
Q 1888 200 1656 506 
z
M 2400 2772 
Q 2041 2772 1848 2508 
Q 1656 2244 1656 1747 
Q 1656 1250 1848 986 
Q 2041 722 2400 722 
Q 2759 722 2948 984 
Q 3138 1247 3138 1747 
Q 3138 2247 2948 2509 
Q 2759 2772 2400 2772 
z
" transform="scale(0.015625)"/>
      <path id="DejaVuSans-Bold-55" d="M 588 4666 
L 1791 4666 
L 1791 1869 
Q 1791 1291 1980 1042 
Q 2169 794 2597 794 
Q 3028 794 3217 1042 
Q 3406 1291 3406 1869 
L 3406 4666 
L 4609 4666 
L 4609 1869 
Q 4609 878 4112 393 
Q 3616 -91 2597 -91 
Q 1581 -91 1084 393 
Q 588 878 588 1869 
L 588 4666 
z
" transform="scale(0.015625)"/>
     </defs>
     <use xlink:href="#DejaVuSans-Bold-52"/>
     <use xlink:href="#DejaVuSans-Bold-65" transform="translate(77.001953 0)"/>
     <use xlink:href="#DejaVuSans-Bold-70" transform="translate(144.824219 0)"/>
     <use xlink:href="#DejaVuSans-Bold-75" transform="translate(216.40625 0)"/>
     <use xlink:href="#DejaVuSans-Bold-74" transform="translate(287.597656 0)"/>
     <use xlink:href="#DejaVuSans-Bold-61" transform="translate(335.400391 0)"/>
     <use xlink:href="#DejaVuSans-Bold-74" transform="translate(402.880859 0)"/>
     <use xlink:href="#DejaVuSans-Bold-69" transform="translate(450.683594 0)"/>
     <use xlink:href="#DejaVuSans-Bold-6f" transform="translate(484.960938 0)"/>
     <use xlink:href="#DejaVuSans-Bold-6e" transform="translate(553.662109 0)"/>
     <use xlink:href="#DejaVuSans-Bold-20" transform="translate(624.853516 0)"/>
     <use xlink:href="#DejaVuSans-Bold-55" transform="translate(659.667969 0)"/>
     <use xlink:href="#DejaVuSans-Bold-70" transform="translate(740.869141 0)"/>
     <use xlink:href="#DejaVuSans-Bold-64" transform="translate(812.451172 0)"/>
     <use xlink:href="#DejaVuSans-Bold-61" transform="translate(884.033203 0)"/>
     <use xlink:href="#DejaVuSans-Bold-74" transform="translate(951.513672 0)"/>
     <use xlink:href="#DejaVuSans-Bold-65" transform="translate(999.316406 0)"/>
     <use xlink:href="#DejaVuSans-Bold-73" transform="translate(1067.138672 0)"/>
    </g>
   </g>
   <g id="text_7">
    <!-- HCS Proof Emitted -->
    <g style="fill: #1e293b" transform="translate(401.345853 572.578522) scale(0.16 -0.16)">
     <defs>
      <path id="DejaVuSans-Bold-48" d="M 588 4666 
L 1791 4666 
L 1791 2888 
L 3566 2888 
L 3566 4666 
L 4769 4666 
L 4769 0 
L 3566 0 
L 3566 1978 
L 1791 1978 
L 1791 0 
L 588 0 
L 588 4666 
z
" transform="scale(0.015625)"/>
      <path id="DejaVuSans-Bold-43" d="M 4288 256 
Q 3956 84 3597 -3 
Q 3238 -91 2847 -91 
Q 1681 -91 1000 561 
Q 319 1213 319 2328 
Q 319 3447 1000 4098 
Q 1681 4750 2847 4750 
Q 3238 4750 3597 4662 
Q 3956 4575 4288 4403 
L 4288 3438 
Q 3953 3666 3628 3772 
Q 3303 3878 2944 3878 
Q 2300 3878 1931 3465 
Q 1563 3053 1563 2328 
Q 1563 1606 1931 1193 
Q 2300 781 2944 781 
Q 3303 781 3628 887 
Q 3953 994 4288 1222 
L 4288 256 
z
" transform="scale(0.015625)"/>
     </defs>
     <use xlink:href="#DejaVuSans-Bold-48"/>
     <use xlink:href="#DejaVuSans-Bold-43" transform="translate(83.691406 0)"/>
     <use xlink:href="#DejaVuSans-Bold-53" transform="translate(158.955078 0)"/>
     <use xlink:href="#DejaVuSans-Bold-20" transform="translate(230.976562 0)"/>
     <use xlink:href="#DejaVuSans-Bold-50" transform="translate(265.791016 0)"/>
     <use xlink:href="#DejaVuSans-Bold-72" transform="translate(339.082031 0)"/>
     <use xlink:href="#DejaVuSans-Bold-6f" transform="translate(388.398438 0)"/>
     <use xlink:href="#DejaVuSans-Bold-6f" transform="translate(457.099609 0)"/>
     <use xlink:href="#DejaVuSans-Bold-66" transform="translate(525.800781 0)"/>
     <use xlink:href="#DejaVuSans-Bold-20" transform="translate(569.306641 0)"/>
     <use xlink:href="#DejaVuSans-Bold-45" transform="translate(604.121094 0)"/>
     <use xlink:href="#DejaVuSans-Bold-6d" transform="translate(672.431641 0)"/>
     <use xlink:href="#DejaVuSans-Bold-69" transform="translate(776.630859 0)"/>
     <use xlink:href="#DejaVuSans-Bold-74" transform="translate(810.908203 0)"/>
     <use xlink:href="#DejaVuSans-Bold-74" transform="translate(858.710938 0)"/>
     <use xlink:href="#DejaVuSans-Bold-65" transform="translate(906.513672 0)"/>
     <use xlink:href="#DejaVuSans-Bold-64" transform="translate(974.335938 0)"/>
    </g>
   </g>
   <g id="text_8">
    <g id="patch_23">
     <path d="M 339.84 473.704844 
C 363.068932 473.704844 385.349595 464.475891 401.774931 448.050556 
C 418.200266 431.62522 427.429219 409.344557 427.429219 386.115625 
C 427.429219 362.886693 418.200266 340.60603 401.774931 324.180694 
C 385.349595 307.755359 363.068932 298.526406 339.84 298.526406 
C 316.611068 298.526406 294.330405 307.755359 277.905069 324.180694 
C 261.479734 340.60603 252.250781 362.886693 252.250781 386.115625 
C 252.250781 409.344557 261.479734 431.62522 277.905069 448.050556 
C 294.330405 464.475891 316.611068 473.704844 339.84 473.704844 
z
" style="fill: #1e293b; stroke: #ffd700; stroke-width: 4; stroke-linejoin: miter"/>
    </g>
    <!-- VNX -->
    <g style="fill: #f8fafc" transform="translate(313.641094 367.551063) scale(0.22 -0.22)">
     <defs>
      <path id="DejaVuSans-Bold-4e" d="M 588 4666 
L 1931 4666 
L 3628 1466 
L 3628 4666 
L 4769 4666 
L 4769 0 
L 3425 0 
L 1728 3200 
L 1728 0 
L 588 0 
L 588 4666 
z
" transform="scale(0.015625)"/>
      <path id="DejaVuSans-Bold-58" d="M 3188 2381 
L 4806 0 
L 3553 0 
L 2463 1594 
L 1381 0 
L 122 0 
L 1741 2381 
L 184 4666 
L 1441 4666 
L 2463 3163 
L 3481 4666 
L 4744 4666 
L 3188 2381 
z
" transform="scale(0.015625)"/>
     </defs>
     <use xlink:href="#DejaVuSans-Bold-56"/>
     <use xlink:href="#DejaVuSans-Bold-4e" transform="translate(77.392578 0)"/>
     <use xlink:href="#DejaVuSans-Bold-58" transform="translate(161.083984 0)"/>
    </g>
    <!-- Marketplace -->
    <g style="fill: #f8fafc" transform="translate(263.250781 392.18625) scale(0.22 -0.22)">
     <defs>
      <path id="DejaVuSans-Bold-4d" d="M 588 4666 
L 2119 4666 
L 3181 2169 
L 4250 4666 
L 5778 4666 
L 5778 0 
L 4641 0 
L 4641 3413 
L 3566 897 
L 2803 897 
L 1728 3413 
L 1728 0 
L 588 0 
L 588 4666 
z
" transform="scale(0.015625)"/>
     </defs>
     <use xlink:href="#DejaVuSans-Bold-4d"/>
     <use xlink:href="#DejaVuSans-Bold-61" transform="translate(99.511719 0)"/>
     <use xlink:href="#DejaVuSans-Bold-72" transform="translate(166.992188 0)"/>
     <use xlink:href="#DejaVuSans-Bold-6b" transform="translate(216.308594 0)"/>
     <use xlink:href="#DejaVuSans-Bold-65" transform="translate(280.1875 0)"/>
     <use xlink:href="#DejaVuSans-Bold-74" transform="translate(348.009766 0)"/>
     <use xlink:href="#DejaVuSans-Bold-70" transform="translate(395.8125 0)"/>
     <use xlink:href="#DejaVuSans-Bold-6c" transform="translate(467.394531 0)"/>
     <use xlink:href="#DejaVuSans-Bold-61" transform="translate(501.671875 0)"/>
     <use xlink:href="#DejaVuSans-Bold-63" transform="translate(569.152344 0)"/>
     <use xlink:href="#DejaVuSans-Bold-65" transform="translate(628.429688 0)"/>
    </g>
    <!-- Loop -->
    <g style="fill: #f8fafc" transform="translate(309.842656 416.821438) scale(0.22 -0.22)">
     <defs>
      <path id="DejaVuSans-Bold-4c" d="M 588 4666 
L 1791 4666 
L 1791 909 
L 3903 909 
L 3903 0 
L 588 0 
L 588 4666 
z
" transform="scale(0.015625)"/>
     </defs>
     <use xlink:href="#DejaVuSans-Bold-4c"/>
     <use xlink:href="#DejaVuSans-Bold-6f" transform="translate(63.720703 0)"/>
     <use xlink:href="#DejaVuSans-Bold-6f" transform="translate(132.421875 0)"/>
     <use xlink:href="#DejaVuSans-Bold-70" transform="translate(201.123047 0)"/>
    </g>
   </g>
   <g id="text_9">
    <!-- VNX Marketplace Loop: Verifiable AI -->
    <g style="fill: #f8fafc" transform="translate(53.787187 28.475625) scale(0.28 -0.28)">
     <defs>
      <path id="DejaVuSans-Bold-3a" d="M 716 3500 
L 1844 3500 
L 1844 2291 
L 716 2291 
L 716 3500 
z
M 716 1209 
L 1844 1209 
L 1844 0 
L 716 0 
L 716 1209 
z
" transform="scale(0.015625)"/>
      <path id="DejaVuSans-Bold-62" d="M 2400 722 
Q 2759 722 2948 984 
Q 3138 1247 3138 1747 
Q 3138 2247 2948 2509 
Q 2759 2772 2400 2772 
Q 2041 2772 1848 2508 
Q 1656 2244 1656 1747 
Q 1656 1250 1848 986 
Q 2041 722 2400 722 
z
M 1656 2988 
Q 1888 3294 2169 3439 
Q 2450 3584 2816 3584 
Q 3463 3584 3878 3070 
Q 4294 2556 4294 1747 
Q 4294 938 3878 423 
Q 3463 -91 2816 -91 
Q 2450 -91 2169 54 
Q 1888 200 1656 506 
L 1656 0 
L 538 0 
L 538 4863 
L 1656 4863 
L 1656 2988 
z
" transform="scale(0.015625)"/>
      <path id="DejaVuSans-Bold-49" d="M 588 4666 
L 1791 4666 
L 1791 0 
L 588 0 
L 588 4666 
z
" transform="scale(0.015625)"/>
     </defs>
     <use xlink:href="#DejaVuSans-Bold-56"/>
     <use xlink:href="#DejaVuSans-Bold-4e" transform="translate(77.392578 0)"/>
     <use xlink:href="#DejaVuSans-Bold-58" transform="translate(161.083984 0)"/>
     <use xlink:href="#DejaVuSans-Bold-20" transform="translate(238.183594 0)"/>
     <use xlink:href="#DejaVuSans-Bold-4d" transform="translate(272.998047 0)"/>
     <use xlink:href="#DejaVuSans-Bold-61" transform="translate(372.509766 0)"/>
     <use xlink:href="#DejaVuSans-Bold-72" transform="translate(439.990234 0)"/>
     <use xlink:href="#DejaVuSans-Bold-6b" transform="translate(489.306641 0)"/>
     <use xlink:href="#DejaVuSans-Bold-65" transform="translate(553.185547 0)"/>
     <use xlink:href="#DejaVuSans-Bold-74" transform="translate(621.007812 0)"/>
     <use xlink:href="#DejaVuSans-Bold-70" transform="translate(668.810547 0)"/>
     <use xlink:href="#DejaVuSans-Bold-6c" transform="translate(740.392578 0)"/>
     <use xlink:href="#DejaVuSans-Bold-61" transform="translate(774.669922 0)"/>
     <use xlink:href="#DejaVuSans-Bold-63" transform="translate(842.150391 0)"/>
     <use xlink:href="#DejaVuSans-Bold-65" transform="translate(901.427734 0)"/>
     <use xlink:href="#DejaVuSans-Bold-20" transform="translate(969.25 0)"/>
     <use xlink:href="#DejaVuSans-Bold-4c" transform="translate(1004.064453 0)"/>
     <use xlink:href="#DejaVuSans-Bold-6f" transform="translate(1067.785156 0)"/>
     <use xlink:href="#DejaVuSans-Bold-6f" transform="translate(1136.486328 0)"/>
     <use xlink:href="#DejaVuSans-Bold-70" transform="translate(1205.1875 0)"/>
     <use xlink:href="#DejaVuSans-Bold-3a" transform="translate(1276.769531 0)"/>
     <use xlink:href="#DejaVuSans-Bold-20" transform="translate(1316.759766 0)"/>
     <use xlink:href="#DejaVuSans-Bold-56" transform="translate(1351.574219 0)"/>
     <use xlink:href="#DejaVuSans-Bold-65" transform="translate(1423.466797 0)"/>
     <use xlink:href="#DejaVuSans-Bold-72" transform="translate(1491.289062 0)"/>
     <use xlink:href="#DejaVuSans-Bold-69" transform="translate(1540.605469 0)"/>
     <use xlink:href="#DejaVuSans-Bold-66" transform="translate(1574.882812 0)"/>
     <use xlink:href="#DejaVuSans-Bold-69" transform="translate(1618.388672 0)"/>
     <use xlink:href="#DejaVuSans-Bold-61" transform="translate(1652.666016 0)"/>
     <use xlink:href="#DejaVuSans-Bold-62" transform="translate(1720.146484 0)"/>
     <use xlink:href="#DejaVuSans-Bold-6c" transform="translate(1791.728516 0)"/>
     <use xlink:href="#DejaVuSans-Bold-65" transform="translate(1826.005859 0)"/>
     <use xlink:href="#DejaVuSans-Bold-20" transform="translate(1893.828125 0)"/>
     <use xlink:href="#DejaVuSans-Bold-41" transform="translate(1928.642578 0)"/>
     <use xlink:href="#DejaVuSans-Bold-49" transform="translate(2006.035156 0)"/>
    </g>
   </g>
  </g>
 </g>
 <defs>
  <clipPath id="pcf4b1eb5e8">
   <rect x="7.2" y="53.475625" width="665.28" height="665.28"/>
  </clipPath>
 </defs>
</svg>
