<?xml version="1.0" encoding="utf-8" standalone="no"?>
<!DOCTYPE svg PUBLIC "-//W3C//DTD SVG 1.1//EN"
  "http://www.w3.org/Graphics/SVG/1.1/DTD/svg11.dtd">
<svg xmlns:xlink="http://www.w3.org/1999/xlink" width="1159.54125pt" height="707.83325pt" viewBox="0 0 1159.54125 707.83325" xmlns="http://www.w3.org/2000/svg" version="1.1">
 <metadata>
  <rdf:RDF xmlns:dc="http://purl.org/dc/elements/1.1/" xmlns:cc="http://creativecommons.org/ns#" xmlns:rdf="http://www.w3.org/1999/02/22-rdf-syntax-ns#">
   <cc:Work>
    <dc:type rdf:resource="http://purl.org/dc/dcmitype/StillImage"/>
    <dc:date>2026-05-09T21:36:20.381969</dc:date>
    <dc:format>image/svg+xml</dc:format>
    <dc:creator>
     <cc:Agent>
      <dc:title>Matplotlib v3.10.9, https://matplotlib.org/</dc:title>
     </cc:Agent>
    </dc:creator>
   </cc:Work>
  </rdf:RDF>
 </metadata>
 <defs>
  <style type="text/css">*{stroke-linejoin: round; stroke-linecap: butt}</style>
 </defs>
 <g id="figure_1">
  <g id="patch_1">
   <path d="M 0 707.83325 
L 1159.54125 707.83325 
L 1159.54125 0 
L 0 0 
z
" style="fill: #0f172a"/>
  </g>
  <g id="axes_1">
   <g id="patch_2">
    <path d="M 80.98125 652.227625 
L 1152.34125 652.227625 
L 1152.34125 53.475625 
L 80.98125 53.475625 
z
" style="fill: #1e293b"/>
   </g>
   <g id="FillBetweenPolyCollection_1">
    <defs>
     <path id="m6a5973357e" d="M 129.679432 -82.821625 
L 129.679432 -232.307276 
L 292.006705 -405.695454 
L 494.915795 -490.302815 
L 1103.643068 -627.141625 
L 1103.643068 -82.821625 
L 1103.643068 -82.821625 
L 494.915795 -82.821625 
L 292.006705 -82.821625 
L 129.679432 -82.821625 
z
" style="stroke: #00d4aa; stroke-opacity: 0.7"/>
    </defs>
    <g clip-path="url(#pa480258931)">
     <use xlink:href="#m6a5973357e" x="0" y="707.83325" style="fill: #00d4aa; fill-opacity: 0.7; stroke: #00d4aa; stroke-opacity: 0.7"/>
    </g>
   </g>
   <g id="FillBetweenPolyCollection_2">
    <defs>
     <path id="m3181490665" d="M 129.679432 -82.821625 
L 129.679432 -232.307276 
L 292.006705 -405.695454 
L 494.915795 -490.302815 
L 1103.643068 -627.141625 
L 1103.643068 -82.821625 
L 1103.643068 -82.821625 
L 494.915795 -82.821625 
L 292.006705 -82.821625 
L 129.679432 -82.821625 
z
" style="stroke: #00a085; stroke-opacity: 0.3"/>
    </defs>
    <g clip-path="url(#pa480258931)">
     <use xlink:href="#m3181490665" x="0" y="707.83325" style="fill: #00a085; fill-opacity: 0.3; stroke: #00a085; stroke-opacity: 0.3"/>
    </g>
   </g>
   <g id="matplotlib.axis_1">
    <g id="xtick_1">
     <g id="line2d_1">
      <path d="M 89.097614 652.227625 
L 89.097614 53.475625 
" clip-path="url(#pa480258931)" style="fill: none; stroke-dasharray: 5.55,2.4; stroke-dashoffset: 0; stroke: #334155; stroke-opacity: 0.4; stroke-width: 1.5"/>
     </g>
     <g id="line2d_2">
      <defs>
       <path id="mbbebbd6e4b" d="M 0 0 
L 0 8 
" style="stroke: #f8fafc; stroke-width: 2"/>
      </defs>
      <g>
       <use xlink:href="#mbbebbd6e4b" x="89.097614" y="652.227625" style="fill: #f8fafc; stroke: #f8fafc; stroke-width: 2"/>
      </g>
     </g>
     <g id="text_1">
      <!-- 0 -->
      <g style="fill: #f8fafc" transform="translate(84.007614 675.885125) scale(0.16 -0.16)">
       <defs>
        <path id="DejaVuSans-30" d="M 2034 4250 
Q 1547 4250 1301 3770 
Q 1056 3291 1056 2328 
Q 1056 1369 1301 889 
Q 1547 409 2034 409 
Q 2525 409 2770 889 
Q 3016 1369 3016 2328 
Q 3016 3291 2770 3770 
Q 2525 4250 2034 4250 
z
M 2034 4750 
Q 2819 4750 3233 4129 
Q 3647 3509 3647 2328 
Q 3647 1150 3233 529 
Q 2819 -91 2034 -91 
Q 1250 -91 836 529 
Q 422 1150 422 2328 
Q 422 3509 836 4129 
Q 1250 4750 2034 4750 
z
" transform="scale(0.015625)"/>
       </defs>
       <use xlink:href="#DejaVuSans-30"/>
      </g>
     </g>
    </g>
    <g id="xtick_2">
     <g id="line2d_3">
      <path d="M 292.006705 652.227625 
L 292.006705 53.475625 
" clip-path="url(#pa480258931)" style="fill: none; stroke-dasharray: 5.55,2.4; stroke-dashoffset: 0; stroke: #334155; stroke-opacity: 0.4; stroke-width: 1.5"/>
     </g>
     <g id="line2d_4">
      <g>
       <use xlink:href="#mbbebbd6e4b" x="292.006705" y="652.227625" style="fill: #f8fafc; stroke: #f8fafc; stroke-width: 2"/>
      </g>
     </g>
     <g id="text_2">
      <!-- 5 -->
      <g style="fill: #f8fafc" transform="translate(286.916705 675.885125) scale(0.16 -0.16)">
       <defs>
        <path id="DejaVuSans-35" d="M 691 4666 
L 3169 4666 
L 3169 4134 
L 1269 4134 
L 1269 2991 
Q 1406 3038 1543 3061 
Q 1681 3084 1819 3084 
Q 2600 3084 3056 2656 
Q 3513 2228 3513 1497 
Q 3513 744 3044 326 
Q 2575 -91 1722 -91 
Q 1428 -91 1123 -41 
Q 819 9 494 109 
L 494 744 
Q 775 591 1075 516 
Q 1375 441 1709 441 
Q 2250 441 2565 725 
Q 2881 1009 2881 1497 
Q 2881 1984 2565 2268 
Q 2250 2553 1709 2553 
Q 1456 2553 1204 2497 
Q 953 2441 691 2322 
L 691 4666 
z
" transform="scale(0.015625)"/>
       </defs>
       <use xlink:href="#DejaVuSans-35"/>
      </g>
     </g>
    </g>
    <g id="xtick_3">
     <g id="line2d_5">
      <path d="M 494.915795 652.227625 
L 494.915795 53.475625 
" clip-path="url(#pa480258931)" style="fill: none; stroke-dasharray: 5.55,2.4; stroke-dashoffset: 0; stroke: #334155; stroke-opacity: 0.4; stroke-width: 1.5"/>
     </g>
     <g id="line2d_6">
      <g>
       <use xlink:href="#mbbebbd6e4b" x="494.915795" y="652.227625" style="fill: #f8fafc; stroke: #f8fafc; stroke-width: 2"/>
      </g>
     </g>
     <g id="text_3">
      <!-- 10 -->
      <g style="fill: #f8fafc" transform="translate(484.735795 675.885125) scale(0.16 -0.16)">
       <defs>
        <path id="DejaVuSans-31" d="M 794 531 
L 1825 531 
L 1825 4091 
L 703 3866 
L 703 4441 
L 1819 4666 
L 2450 4666 
L 2450 531 
L 3481 531 
L 3481 0 
L 794 0 
L 794 531 
z
" transform="scale(0.015625)"/>
       </defs>
       <use xlink:href="#DejaVuSans-31"/>
       <use xlink:href="#DejaVuSans-30" transform="translate(63.623047 0)"/>
      </g>
     </g>
    </g>
    <g id="xtick_4">
     <g id="line2d_7">
      <path d="M 697.824886 652.227625 
L 697.824886 53.475625 
" clip-path="url(#pa480258931)" style="fill: none; stroke-dasharray: 5.55,2.4; stroke-dashoffset: 0; stroke: #334155; stroke-opacity: 0.4; stroke-width: 1.5"/>
     </g>
     <g id="line2d_8">
      <g>
       <use xlink:href="#mbbebbd6e4b" x="697.824886" y="652.227625" style="fill: #f8fafc; stroke: #f8fafc; stroke-width: 2"/>
      </g>
     </g>
     <g id="text_4">
      <!-- 15 -->
      <g style="fill: #f8fafc" transform="translate(687.644886 675.885125) scale(0.16 -0.16)">
       <use xlink:href="#DejaVuSans-31"/>
       <use xlink:href="#DejaVuSans-35" transform="translate(63.623047 0)"/>
      </g>
     </g>
    </g>
    <g id="xtick_5">
     <g id="line2d_9">
      <path d="M 900.733977 652.227625 
L 900.733977 53.475625 
" clip-path="url(#pa480258931)" style="fill: none; stroke-dasharray: 5.55,2.4; stroke-dashoffset: 0; stroke: #334155; stroke-opacity: 0.4; stroke-width: 1.5"/>
     </g>
     <g id="line2d_10">
      <g>
       <use xlink:href="#mbbebbd6e4b" x="900.733977" y="652.227625" style="fill: #f8fafc; stroke: #f8fafc; stroke-width: 2"/>
      </g>
     </g>
     <g id="text_5">
      <!-- 20 -->
      <g style="fill: #f8fafc" transform="translate(890.553977 675.885125) scale(0.16 -0.16)">
       <defs>
        <path id="DejaVuSans-32" d="M 1228 531 
L 3431 531 
L 3431 0 
L 469 0 
L 469 531 
Q 828 903 1448 1529 
Q 2069 2156 2228 2338 
Q 2531 2678 2651 2914 
Q 2772 3150 2772 3378 
Q 2772 3750 2511 3984 
Q 2250 4219 1831 4219 
Q 1534 4219 1204 4116 
Q 875 4013 500 3803 
L 500 4441 
Q 881 4594 1212 4672 
Q 1544 4750 1819 4750 
Q 2544 4750 2975 4387 
Q 3406 4025 3406 3419 
Q 3406 3131 3298 2873 
Q 3191 2616 2906 2266 
Q 2828 2175 2409 1742 
Q 1991 1309 1228 531 
z
" transform="scale(0.015625)"/>
       </defs>
       <use xlink:href="#DejaVuSans-32"/>
       <use xlink:href="#DejaVuSans-30" transform="translate(63.623047 0)"/>
      </g>
     </g>
    </g>
    <g id="xtick_6">
     <g id="line2d_11">
      <path d="M 1103.643068 652.227625 
L 1103.643068 53.475625 
" clip-path="url(#pa480258931)" style="fill: none; stroke-dasharray: 5.55,2.4; stroke-dashoffset: 0; stroke: #334155; stroke-opacity: 0.4; stroke-width: 1.5"/>
     </g>
     <g id="line2d_12">
      <g>
       <use xlink:href="#mbbebbd6e4b" x="1103.643068" y="652.227625" style="fill: #f8fafc; stroke: #f8fafc; stroke-width: 2"/>
      </g>
     </g>
     <g id="text_6">
      <!-- 25 -->
      <g style="fill: #f8fafc" transform="translate(1093.463068 675.885125) scale(0.16 -0.16)">
       <use xlink:href="#DejaVuSans-32"/>
       <use xlink:href="#DejaVuSans-35" transform="translate(63.623047 0)"/>
      </g>
     </g>
    </g>
    <g id="text_7">
     <!-- Concurrent Users -->
     <g style="fill: #f8fafc" transform="translate(528.3375 696.889813) scale(0.18 -0.18)">
      <defs>
       <path id="DejaVuSans-Bold-43" d="M 4288 256 
Q 3956 84 3597 -3 
Q 3238 -91 2847 -91 
Q 1681 -91 1000 561 
Q 319 1213 319 2328 
Q 319 3447 1000 4098 
Q 1681 4750 2847 4750 
Q 3238 4750 3597 4662 
Q 3956 4575 4288 4403 
L 4288 3438 
Q 3953 3666 3628 3772 
Q 3303 3878 2944 3878 
Q 2300 3878 1931 3465 
Q 1563 3053 1563 2328 
Q 1563 1606 1931 1193 
Q 2300 781 2944 781 
Q 3303 781 3628 887 
Q 3953 994 4288 1222 
L 4288 256 
z
" transform="scale(0.015625)"/>
       <path id="DejaVuSans-Bold-6f" d="M 2203 2784 
Q 1831 2784 1636 2517 
Q 1441 2250 1441 1747 
Q 1441 1244 1636 976 
Q 1831 709 2203 709 
Q 2569 709 2762 976 
Q 2956 1244 2956 1747 
Q 2956 2250 2762 2517 
Q 2569 2784 2203 2784 
z
M 2203 3584 
Q 3106 3584 3614 3096 
Q 4122 2609 4122 1747 
Q 4122 884 3614 396 
Q 3106 -91 2203 -91 
Q 1297 -91 786 396 
Q 275 884 275 1747 
Q 275 2609 786 3096 
Q 1297 3584 2203 3584 
z
" transform="scale(0.015625)"/>
       <path id="DejaVuSans-Bold-6e" d="M 4056 2131 
L 4056 0 
L 2931 0 
L 2931 347 
L 2931 1631 
Q 2931 2084 2911 2256 
Q 2891 2428 2841 2509 
Q 2775 2619 2662 2680 
Q 2550 2741 2406 2741 
Q 2056 2741 1856 2470 
Q 1656 2200 1656 1722 
L 1656 0 
L 538 0 
L 538 3500 
L 1656 3500 
L 1656 2988 
Q 1909 3294 2193 3439 
Q 2478 3584 2822 3584 
Q 3428 3584 3742 3212 
Q 4056 2841 4056 2131 
z
" transform="scale(0.015625)"/>
       <path id="DejaVuSans-Bold-63" d="M 3366 3391 
L 3366 2478 
Q 3138 2634 2908 2709 
Q 2678 2784 2431 2784 
Q 1963 2784 1702 2511 
Q 1441 2238 1441 1747 
Q 1441 1256 1702 982 
Q 1963 709 2431 709 
Q 2694 709 2930 787 
Q 3166 866 3366 1019 
L 3366 103 
Q 3103 6 2833 -42 
Q 2563 -91 2291 -91 
Q 1344 -91 809 395 
Q 275 881 275 1747 
Q 275 2613 809 3098 
Q 1344 3584 2291 3584 
Q 2566 3584 2833 3536 
Q 3100 3488 3366 3391 
z
" transform="scale(0.015625)"/>
       <path id="DejaVuSans-Bold-75" d="M 500 1363 
L 500 3500 
L 1625 3500 
L 1625 3150 
Q 1625 2866 1622 2436 
Q 1619 2006 1619 1863 
Q 1619 1441 1641 1255 
Q 1663 1069 1716 984 
Q 1784 875 1895 815 
Q 2006 756 2150 756 
Q 2500 756 2700 1025 
Q 2900 1294 2900 1772 
L 2900 3500 
L 4019 3500 
L 4019 0 
L 2900 0 
L 2900 506 
Q 2647 200 2364 54 
Q 2081 -91 1741 -91 
Q 1134 -91 817 281 
Q 500 653 500 1363 
z
" transform="scale(0.015625)"/>
       <path id="DejaVuSans-Bold-72" d="M 3138 2547 
Q 2991 2616 2845 2648 
Q 2700 2681 2553 2681 
Q 2122 2681 1889 2404 
Q 1656 2128 1656 1613 
L 1656 0 
L 538 0 
L 538 3500 
L 1656 3500 
L 1656 2925 
Q 1872 3269 2151 3426 
Q 2431 3584 2822 3584 
Q 2878 3584 2943 3579 
Q 3009 3575 3134 3559 
L 3138 2547 
z
" transform="scale(0.015625)"/>
       <path id="DejaVuSans-Bold-65" d="M 4031 1759 
L 4031 1441 
L 1416 1441 
Q 1456 1047 1700 850 
Q 1944 653 2381 653 
Q 2734 653 3104 758 
Q 3475 863 3866 1075 
L 3866 213 
Q 3469 63 3072 -14 
Q 2675 -91 2278 -91 
Q 1328 -91 801 392 
Q 275 875 275 1747 
Q 275 2603 792 3093 
Q 1309 3584 2216 3584 
Q 3041 3584 3536 3087 
Q 4031 2591 4031 1759 
z
M 2881 2131 
Q 2881 2450 2695 2645 
Q 2509 2841 2209 2841 
Q 1884 2841 1681 2658 
Q 1478 2475 1428 2131 
L 2881 2131 
z
" transform="scale(0.015625)"/>
       <path id="DejaVuSans-Bold-74" d="M 1759 4494 
L 1759 3500 
L 2913 3500 
L 2913 2700 
L 1759 2700 
L 1759 1216 
Q 1759 972 1856 886 
Q 1953 800 2241 800 
L 2816 800 
L 2816 0 
L 1856 0 
Q 1194 0 917 276 
Q 641 553 641 1216 
L 641 2700 
L 84 2700 
L 84 3500 
L 641 3500 
L 641 4494 
L 1759 4494 
z
" transform="scale(0.015625)"/>
       <path id="DejaVuSans-Bold-20" transform="scale(0.015625)"/>
       <path id="DejaVuSans-Bold-55" d="M 588 4666 
L 1791 4666 
L 1791 1869 
Q 1791 1291 1980 1042 
Q 2169 794 2597 794 
Q 3028 794 3217 1042 
Q 3406 1291 3406 1869 
L 3406 4666 
L 4609 4666 
L 4609 1869 
Q 4609 878 4112 393 
Q 3616 -91 2597 -91 
Q 1581 -91 1084 393 
Q 588 878 588 1869 
L 588 4666 
z
" transform="scale(0.015625)"/>
       <path id="DejaVuSans-Bold-73" d="M 3272 3391 
L 3272 2541 
Q 2913 2691 2578 2766 
Q 2244 2841 1947 2841 
Q 1628 2841 1473 2761 
Q 1319 2681 1319 2516 
Q 1319 2381 1436 2309 
Q 1553 2238 1856 2203 
L 2053 2175 
Q 2913 2066 3209 1816 
Q 3506 1566 3506 1031 
Q 3506 472 3093 190 
Q 2681 -91 1863 -91 
Q 1516 -91 1145 -36 
Q 775 19 384 128 
L 384 978 
Q 719 816 1070 734 
Q 1422 653 1784 653 
Q 2113 653 2278 743 
Q 2444 834 2444 1013 
Q 2444 1163 2330 1236 
Q 2216 1309 1875 1350 
L 1678 1375 
Q 931 1469 631 1722 
Q 331 1975 331 2491 
Q 331 3047 712 3315 
Q 1094 3584 1881 3584 
Q 2191 3584 2531 3537 
Q 2872 3491 3272 3391 
z
" transform="scale(0.015625)"/>
      </defs>
      <use xlink:href="#DejaVuSans-Bold-43"/>
      <use xlink:href="#DejaVuSans-Bold-6f" transform="translate(73.388672 0)"/>
      <use xlink:href="#DejaVuSans-Bold-6e" transform="translate(142.089844 0)"/>
      <use xlink:href="#DejaVuSans-Bold-63" transform="translate(213.28125 0)"/>
      <use xlink:href="#DejaVuSans-Bold-75" transform="translate(272.558594 0)"/>
      <use xlink:href="#DejaVuSans-Bold-72" transform="translate(343.75 0)"/>
      <use xlink:href="#DejaVuSans-Bold-72" transform="translate(393.066406 0)"/>
      <use xlink:href="#DejaVuSans-Bold-65" transform="translate(442.382812 0)"/>
      <use xlink:href="#DejaVuSans-Bold-6e" transform="translate(510.205078 0)"/>
      <use xlink:href="#DejaVuSans-Bold-74" transform="translate(581.396484 0)"/>
      <use xlink:href="#DejaVuSans-Bold-20" transform="translate(629.199219 0)"/>
      <use xlink:href="#DejaVuSans-Bold-55" transform="translate(664.013672 0)"/>
      <use xlink:href="#DejaVuSans-Bold-73" transform="translate(745.214844 0)"/>
      <use xlink:href="#DejaVuSans-Bold-65" transform="translate(804.736328 0)"/>
      <use xlink:href="#DejaVuSans-Bold-72" transform="translate(872.558594 0)"/>
      <use xlink:href="#DejaVuSans-Bold-73" transform="translate(921.875 0)"/>
     </g>
    </g>
   </g>
   <g id="matplotlib.axis_2">
    <g id="ytick_1">
     <g id="line2d_13">
      <path d="M 80.98125 625.011625 
L 1152.34125 625.011625 
" clip-path="url(#pa480258931)" style="fill: none; stroke-dasharray: 5.55,2.4; stroke-dashoffset: 0; stroke: #334155; stroke-opacity: 0.4; stroke-width: 1.5"/>
     </g>
     <g id="line2d_14">
      <defs>
       <path id="m5add5e7cbd" d="M 0 0 
L -8 0 
" style="stroke: #f8fafc; stroke-width: 2"/>
      </defs>
      <g>
       <use xlink:href="#m5add5e7cbd" x="80.98125" y="625.011625" style="fill: #f8fafc; stroke: #f8fafc; stroke-width: 2"/>
      </g>
     </g>
     <g id="text_8">
      <!-- 0 -->
      <g style="fill: #f8fafc" transform="translate(59.30125 631.090375) scale(0.16 -0.16)">
       <use xlink:href="#DejaVuSans-30"/>
      </g>
     </g>
    </g>
    <g id="ytick_2">
     <g id="line2d_15">
      <path d="M 80.98125 498.543224 
L 1152.34125 498.543224 
" clip-path="url(#pa480258931)" style="fill: none; stroke-dasharray: 5.55,2.4; stroke-dashoffset: 0; stroke: #334155; stroke-opacity: 0.4; stroke-width: 1.5"/>
     </g>
     <g id="line2d_16">
      <g>
       <use xlink:href="#m5add5e7cbd" x="80.98125" y="498.543224" style="fill: #f8fafc; stroke: #f8fafc; stroke-width: 2"/>
      </g>
     </g>
     <g id="text_9">
      <!-- 1000 -->
      <g style="fill: #f8fafc" transform="translate(28.76125 504.621974) scale(0.16 -0.16)">
       <use xlink:href="#DejaVuSans-31"/>
       <use xlink:href="#DejaVuSans-30" transform="translate(63.623047 0)"/>
       <use xlink:href="#DejaVuSans-30" transform="translate(127.246094 0)"/>
       <use xlink:href="#DejaVuSans-30" transform="translate(190.869141 0)"/>
      </g>
     </g>
    </g>
    <g id="ytick_3">
     <g id="line2d_17">
      <path d="M 80.98125 372.074822 
L 1152.34125 372.074822 
" clip-path="url(#pa480258931)" style="fill: none; stroke-dasharray: 5.55,2.4; stroke-dashoffset: 0; stroke: #334155; stroke-opacity: 0.4; stroke-width: 1.5"/>
     </g>
     <g id="line2d_18">
      <g>
       <use xlink:href="#m5add5e7cbd" x="80.98125" y="372.074822" style="fill: #f8fafc; stroke: #f8fafc; stroke-width: 2"/>
      </g>
     </g>
     <g id="text_10">
      <!-- 2000 -->
      <g style="fill: #f8fafc" transform="translate(28.76125 378.153572) scale(0.16 -0.16)">
       <use xlink:href="#DejaVuSans-32"/>
       <use xlink:href="#DejaVuSans-30" transform="translate(63.623047 0)"/>
       <use xlink:href="#DejaVuSans-30" transform="translate(127.246094 0)"/>
       <use xlink:href="#DejaVuSans-30" transform="translate(190.869141 0)"/>
      </g>
     </g>
    </g>
    <g id="ytick_4">
     <g id="line2d_19">
      <path d="M 80.98125 245.606421 
L 1152.34125 245.606421 
" clip-path="url(#pa480258931)" style="fill: none; stroke-dasharray: 5.55,2.4; stroke-dashoffset: 0; stroke: #334155; stroke-opacity: 0.4; stroke-width: 1.5"/>
     </g>
     <g id="line2d_20">
      <g>
       <use xlink:href="#m5add5e7cbd" x="80.98125" y="245.606421" style="fill: #f8fafc; stroke: #f8fafc; stroke-width: 2"/>
      </g>
     </g>
     <g id="text_11">
      <!-- 3000 -->
      <g style="fill: #f8fafc" transform="translate(28.76125 251.685171) scale(0.16 -0.16)">
       <defs>
        <path id="DejaVuSans-33" d="M 2597 2516 
Q 3050 2419 3304 2112 
Q 3559 1806 3559 1356 
Q 3559 666 3084 287 
Q 2609 -91 1734 -91 
Q 1441 -91 1130 -33 
Q 819 25 488 141 
L 488 750 
Q 750 597 1062 519 
Q 1375 441 1716 441 
Q 2309 441 2620 675 
Q 2931 909 2931 1356 
Q 2931 1769 2642 2001 
Q 2353 2234 1838 2234 
L 1294 2234 
L 1294 2753 
L 1863 2753 
Q 2328 2753 2575 2939 
Q 2822 3125 2822 3475 
Q 2822 3834 2567 4026 
Q 2313 4219 1838 4219 
Q 1578 4219 1281 4162 
Q 984 4106 628 3988 
L 628 4550 
Q 988 4650 1302 4700 
Q 1616 4750 1894 4750 
Q 2613 4750 3031 4423 
Q 3450 4097 3450 3541 
Q 3450 3153 3228 2886 
Q 3006 2619 2597 2516 
z
" transform="scale(0.015625)"/>
       </defs>
       <use xlink:href="#DejaVuSans-33"/>
       <use xlink:href="#DejaVuSans-30" transform="translate(63.623047 0)"/>
       <use xlink:href="#DejaVuSans-30" transform="translate(127.246094 0)"/>
       <use xlink:href="#DejaVuSans-30" transform="translate(190.869141 0)"/>
      </g>
     </g>
    </g>
    <g id="ytick_5">
     <g id="line2d_21">
      <path d="M 80.98125 119.138019 
L 1152.34125 119.138019 
" clip-path="url(#pa480258931)" style="fill: none; stroke-dasharray: 5.55,2.4; stroke-dashoffset: 0; stroke: #334155; stroke-opacity: 0.4; stroke-width: 1.5"/>
     </g>
     <g id="line2d_22">
      <g>
       <use xlink:href="#m5add5e7cbd" x="80.98125" y="119.138019" style="fill: #f8fafc; stroke: #f8fafc; stroke-width: 2"/>
      </g>
     </g>
     <g id="text_12">
      <!-- 4000 -->
      <g style="fill: #f8fafc" transform="translate(28.76125 125.216769) scale(0.16 -0.16)">
       <defs>
        <path id="DejaVuSans-34" d="M 2419 4116 
L 825 1625 
L 2419 1625 
L 2419 4116 
z
M 2253 4666 
L 3047 4666 
L 3047 1625 
L 3713 1625 
L 3713 1100 
L 3047 1100 
L 3047 0 
L 2419 0 
L 2419 1100 
L 313 1100 
L 313 1709 
L 2253 4666 
z
" transform="scale(0.015625)"/>
       </defs>
       <use xlink:href="#DejaVuSans-34"/>
       <use xlink:href="#DejaVuSans-30" transform="translate(63.623047 0)"/>
       <use xlink:href="#DejaVuSans-30" transform="translate(127.246094 0)"/>
       <use xlink:href="#DejaVuSans-30" transform="translate(190.869141 0)"/>
      </g>
     </g>
    </g>
    <g id="text_13">
     <!-- Throughput (ops/sec) -->
     <g style="fill: #f8fafc" transform="translate(20.877187 461.851469) rotate(-90) scale(0.18 -0.18)">
      <defs>
       <path id="DejaVuSans-Bold-54" d="M 31 4666 
L 4331 4666 
L 4331 3756 
L 2784 3756 
L 2784 0 
L 1581 0 
L 1581 3756 
L 31 3756 
L 31 4666 
z
" transform="scale(0.015625)"/>
       <path id="DejaVuSans-Bold-68" d="M 4056 2131 
L 4056 0 
L 2931 0 
L 2931 347 
L 2931 1625 
Q 2931 2084 2911 2256 
Q 2891 2428 2841 2509 
Q 2775 2619 2662 2680 
Q 2550 2741 2406 2741 
Q 2056 2741 1856 2470 
Q 1656 2200 1656 1722 
L 1656 0 
L 538 0 
L 538 4863 
L 1656 4863 
L 1656 2988 
Q 1909 3294 2193 3439 
Q 2478 3584 2822 3584 
Q 3428 3584 3742 3212 
Q 4056 2841 4056 2131 
z
" transform="scale(0.015625)"/>
       <path id="DejaVuSans-Bold-67" d="M 2919 594 
Q 2688 288 2409 144 
Q 2131 0 1766 0 
Q 1125 0 706 504 
Q 288 1009 288 1791 
Q 288 2575 706 3076 
Q 1125 3578 1766 3578 
Q 2131 3578 2409 3434 
Q 2688 3291 2919 2981 
L 2919 3500 
L 4044 3500 
L 4044 353 
Q 4044 -491 3511 -936 
Q 2978 -1381 1966 -1381 
Q 1638 -1381 1331 -1331 
Q 1025 -1281 716 -1178 
L 716 -306 
Q 1009 -475 1290 -558 
Q 1572 -641 1856 -641 
Q 2406 -641 2662 -400 
Q 2919 -159 2919 353 
L 2919 594 
z
M 2181 2772 
Q 1834 2772 1640 2515 
Q 1447 2259 1447 1791 
Q 1447 1309 1634 1061 
Q 1822 813 2181 813 
Q 2531 813 2725 1069 
Q 2919 1325 2919 1791 
Q 2919 2259 2725 2515 
Q 2531 2772 2181 2772 
z
" transform="scale(0.015625)"/>
       <path id="DejaVuSans-Bold-70" d="M 1656 506 
L 1656 -1331 
L 538 -1331 
L 538 3500 
L 1656 3500 
L 1656 2988 
Q 1888 3294 2169 3439 
Q 2450 3584 2816 3584 
Q 3463 3584 3878 3070 
Q 4294 2556 4294 1747 
Q 4294 938 3878 423 
Q 3463 -91 2816 -91 
Q 2450 -91 2169 54 
Q 1888 200 1656 506 
z
M 2400 2772 
Q 2041 2772 1848 2508 
Q 1656 2244 1656 1747 
Q 1656 1250 1848 986 
Q 2041 722 2400 722 
Q 2759 722 2948 984 
Q 3138 1247 3138 1747 
Q 3138 2247 2948 2509 
Q 2759 2772 2400 2772 
z
" transform="scale(0.015625)"/>
       <path id="DejaVuSans-Bold-28" d="M 2413 -844 
L 1484 -844 
Q 1006 -72 778 623 
Q 550 1319 550 2003 
Q 550 2688 779 3389 
Q 1009 4091 1484 4856 
L 2413 4856 
Q 2013 4116 1813 3408 
Q 1613 2700 1613 2009 
Q 1613 1319 1811 609 
Q 2009 -100 2413 -844 
z
" transform="scale(0.015625)"/>
       <path id="DejaVuSans-Bold-2f" d="M 1644 4666 
L 2338 4666 
L 691 -594 
L 0 -594 
L 1644 4666 
z
" transform="scale(0.015625)"/>
       <path id="DejaVuSans-Bold-29" d="M 513 -844 
Q 913 -100 1113 609 
Q 1313 1319 1313 2009 
Q 1313 2700 1113 3408 
Q 913 4116 513 4856 
L 1441 4856 
Q 1916 4091 2145 3389 
Q 2375 2688 2375 2003 
Q 2375 1319 2147 623 
Q 1919 -72 1441 -844 
L 513 -844 
z
" transform="scale(0.015625)"/>
      </defs>
      <use xlink:href="#DejaVuSans-Bold-54"/>
      <use xlink:href="#DejaVuSans-Bold-68" transform="translate(68.212891 0)"/>
      <use xlink:href="#DejaVuSans-Bold-72" transform="translate(139.404297 0)"/>
      <use xlink:href="#DejaVuSans-Bold-6f" transform="translate(188.720703 0)"/>
      <use xlink:href="#DejaVuSans-Bold-75" transform="translate(257.421875 0)"/>
      <use xlink:href="#DejaVuSans-Bold-67" transform="translate(328.613281 0)"/>
      <use xlink:href="#DejaVuSans-Bold-68" transform="translate(400.195312 0)"/>
      <use xlink:href="#DejaVuSans-Bold-70" transform="translate(471.386719 0)"/>
      <use xlink:href="#DejaVuSans-Bold-75" transform="translate(542.96875 0)"/>
      <use xlink:href="#DejaVuSans-Bold-74" transform="translate(614.160156 0)"/>
      <use xlink:href="#DejaVuSans-Bold-20" transform="translate(661.962891 0)"/>
      <use xlink:href="#DejaVuSans-Bold-28" transform="translate(696.777344 0)"/>
      <use xlink:href="#DejaVuSans-Bold-6f" transform="translate(742.480469 0)"/>
      <use xlink:href="#DejaVuSans-Bold-70" transform="translate(811.181641 0)"/>
      <use xlink:href="#DejaVuSans-Bold-73" transform="translate(882.763672 0)"/>
      <use xlink:href="#DejaVuSans-Bold-2f" transform="translate(942.285156 0)"/>
      <use xlink:href="#DejaVuSans-Bold-73" transform="translate(978.808594 0)"/>
      <use xlink:href="#DejaVuSans-Bold-65" transform="translate(1038.330078 0)"/>
      <use xlink:href="#DejaVuSans-Bold-63" transform="translate(1106.152344 0)"/>
      <use xlink:href="#DejaVuSans-Bold-29" transform="translate(1165.429688 0)"/>
     </g>
    </g>
   </g>
   <g id="line2d_23">
    <path d="M 129.679432 475.525974 
L 292.006705 302.137796 
L 494.915795 217.530435 
L 1103.643068 80.691625 
" clip-path="url(#pa480258931)" style="fill: none; stroke: #ffd700; stroke-width: 4; stroke-linecap: square"/>
    <defs>
     <path id="mbc3bd3c052" d="M 0 6 
C 1.591219 6 3.117479 5.367802 4.242641 4.242641 
C 5.367802 3.117479 6 1.591219 6 0 
C 6 -1.591219 5.367802 -3.117479 4.242641 -4.242641 
C 3.117479 -5.367802 1.591219 -6 0 -6 
C -1.591219 -6 -3.117479 -5.367802 -4.242641 -4.242641 
C -5.367802 -3.117479 -6 -1.591219 -6 0 
C -6 1.591219 -5.367802 3.117479 -4.242641 4.242641 
C -3.117479 5.367802 -1.591219 6 0 6 
z
" style="stroke: #f8fafc; stroke-width: 2"/>
    </defs>
    <g clip-path="url(#pa480258931)">
     <use xlink:href="#mbc3bd3c052" x="129.679432" y="475.525974" style="fill: #ffd700; stroke: #f8fafc; stroke-width: 2"/>
     <use xlink:href="#mbc3bd3c052" x="292.006705" y="302.137796" style="fill: #ffd700; stroke: #f8fafc; stroke-width: 2"/>
     <use xlink:href="#mbc3bd3c052" x="494.915795" y="217.530435" style="fill: #ffd700; stroke: #f8fafc; stroke-width: 2"/>
     <use xlink:href="#mbc3bd3c052" x="1103.643068" y="80.691625" style="fill: #ffd700; stroke: #f8fafc; stroke-width: 2"/>
    </g>
   </g>
   <g id="patch_3">
    <path d="M 80.98125 652.227625 
L 80.98125 53.475625 
" style="fill: none; stroke: #334155; stroke-width: 1.5; stroke-linejoin: miter; stroke-linecap: square"/>
   </g>
   <g id="patch_4">
    <path d="M 1152.34125 652.227625 
L 1152.34125 53.475625 
" style="fill: none; stroke: #334155; stroke-width: 1.5; stroke-linejoin: miter; stroke-linecap: square"/>
   </g>
   <g id="patch_5">
    <path d="M 80.98125 652.227625 
L 1152.34125 652.227625 
" style="fill: none; stroke: #334155; stroke-width: 1.5; stroke-linejoin: miter; stroke-linecap: square"/>
   </g>
   <g id="patch_6">
    <path d="M 80.98125 53.475625 
L 1152.34125 53.475625 
" style="fill: none; stroke: #334155; stroke-width: 1.5; stroke-linejoin: miter; stroke-linecap: square"/>
   </g>
   <g id="text_14">
    <g id="patch_7">
     <path d="M 340.715937 116.951098 
L 892.606562 116.951098 
Q 903.606562 116.951098 903.606562 105.951098 
L 903.606562 84.659223 
Q 903.606562 73.659223 892.606562 73.659223 
L 340.715937 73.659223 
Q 329.715937 73.659223 329.715937 84.659223 
L 329.715937 105.951098 
Q 329.715937 116.951098 340.715937 116.951098 
z
" style="fill: #1e293b; stroke: #ffd700; stroke-width: 2; stroke-linejoin: miter"/>
    </g>
    <!-- 26x Improvement: 4,304 ops/sec at 25 users -->
    <g style="fill: #ffd700" transform="translate(340.715937 101.375785) scale(0.22 -0.22)">
     <defs>
      <path id="DejaVuSans-Bold-32" d="M 1844 884 
L 3897 884 
L 3897 0 
L 506 0 
L 506 884 
L 2209 2388 
Q 2438 2594 2547 2791 
Q 2656 2988 2656 3200 
Q 2656 3528 2436 3728 
Q 2216 3928 1850 3928 
Q 1569 3928 1234 3808 
Q 900 3688 519 3450 
L 519 4475 
Q 925 4609 1322 4679 
Q 1719 4750 2100 4750 
Q 2938 4750 3402 4381 
Q 3866 4013 3866 3353 
Q 3866 2972 3669 2642 
Q 3472 2313 2841 1759 
L 1844 884 
z
" transform="scale(0.015625)"/>
      <path id="DejaVuSans-Bold-36" d="M 2316 2303 
Q 2000 2303 1842 2098 
Q 1684 1894 1684 1484 
Q 1684 1075 1842 870 
Q 2000 666 2316 666 
Q 2634 666 2792 870 
Q 2950 1075 2950 1484 
Q 2950 1894 2792 2098 
Q 2634 2303 2316 2303 
z
M 3803 4544 
L 3803 3681 
Q 3506 3822 3243 3889 
Q 2981 3956 2731 3956 
Q 2194 3956 1894 3657 
Q 1594 3359 1544 2772 
Q 1750 2925 1990 3001 
Q 2231 3078 2516 3078 
Q 3231 3078 3670 2659 
Q 4109 2241 4109 1563 
Q 4109 813 3618 361 
Q 3128 -91 2303 -91 
Q 1394 -91 895 523 
Q 397 1138 397 2266 
Q 397 3422 980 4083 
Q 1563 4744 2578 4744 
Q 2900 4744 3203 4694 
Q 3506 4644 3803 4544 
z
" transform="scale(0.015625)"/>
      <path id="DejaVuSans-Bold-78" d="M 1422 1791 
L 159 3500 
L 1344 3500 
L 2059 2463 
L 2784 3500 
L 3969 3500 
L 2706 1797 
L 4031 0 
L 2847 0 
L 2059 1106 
L 1281 0 
L 97 0 
L 1422 1791 
z
" transform="scale(0.015625)"/>
      <path id="DejaVuSans-Bold-49" d="M 588 4666 
L 1791 4666 
L 1791 0 
L 588 0 
L 588 4666 
z
" transform="scale(0.015625)"/>
      <path id="DejaVuSans-Bold-6d" d="M 3781 2919 
Q 3994 3244 4286 3414 
Q 4578 3584 4928 3584 
Q 5531 3584 5847 3212 
Q 6163 2841 6163 2131 
L 6163 0 
L 5038 0 
L 5038 1825 
Q 5041 1866 5042 1909 
Q 5044 1953 5044 2034 
Q 5044 2406 4934 2573 
Q 4825 2741 4581 2741 
Q 4263 2741 4089 2478 
Q 3916 2216 3909 1719 
L 3909 0 
L 2784 0 
L 2784 1825 
Q 2784 2406 2684 2573 
Q 2584 2741 2328 2741 
Q 2006 2741 1831 2477 
Q 1656 2213 1656 1722 
L 1656 0 
L 531 0 
L 531 3500 
L 1656 3500 
L 1656 2988 
Q 1863 3284 2130 3434 
Q 2397 3584 2719 3584 
Q 3081 3584 3359 3409 
Q 3638 3234 3781 2919 
z
" transform="scale(0.015625)"/>
      <path id="DejaVuSans-Bold-76" d="M 97 3500 
L 1216 3500 
L 2088 1081 
L 2956 3500 
L 4078 3500 
L 2700 0 
L 1472 0 
L 97 3500 
z
" transform="scale(0.015625)"/>
      <path id="DejaVuSans-Bold-3a" d="M 716 3500 
L 1844 3500 
L 1844 2291 
L 716 2291 
L 716 3500 
z
M 716 1209 
L 1844 1209 
L 1844 0 
L 716 0 
L 716 1209 
z
" transform="scale(0.015625)"/>
      <path id="DejaVuSans-Bold-34" d="M 2356 3675 
L 1038 1722 
L 2356 1722 
L 2356 3675 
z
M 2156 4666 
L 3494 4666 
L 3494 1722 
L 4159 1722 
L 4159 850 
L 3494 850 
L 3494 0 
L 2356 0 
L 2356 850 
L 288 850 
L 288 1881 
L 2156 4666 
z
" transform="scale(0.015625)"/>
      <path id="DejaVuSans-Bold-2c" d="M 653 1209 
L 1778 1209 
L 1778 256 
L 1006 -909 
L 341 -909 
L 653 256 
L 653 1209 
z
" transform="scale(0.015625)"/>
      <path id="DejaVuSans-Bold-33" d="M 2981 2516 
Q 3453 2394 3698 2092 
Q 3944 1791 3944 1325 
Q 3944 631 3412 270 
Q 2881 -91 1863 -91 
Q 1503 -91 1142 -33 
Q 781 25 428 141 
L 428 1069 
Q 766 900 1098 814 
Q 1431 728 1753 728 
Q 2231 728 2486 893 
Q 2741 1059 2741 1369 
Q 2741 1688 2480 1852 
Q 2219 2016 1709 2016 
L 1228 2016 
L 1228 2791 
L 1734 2791 
Q 2188 2791 2409 2933 
Q 2631 3075 2631 3366 
Q 2631 3634 2415 3781 
Q 2200 3928 1806 3928 
Q 1516 3928 1219 3862 
Q 922 3797 628 3669 
L 628 4550 
Q 984 4650 1334 4700 
Q 1684 4750 2022 4750 
Q 2931 4750 3382 4451 
Q 3834 4153 3834 3553 
Q 3834 3144 3618 2883 
Q 3403 2622 2981 2516 
z
" transform="scale(0.015625)"/>
      <path id="DejaVuSans-Bold-30" d="M 2944 2338 
Q 2944 3213 2780 3570 
Q 2616 3928 2228 3928 
Q 1841 3928 1675 3570 
Q 1509 3213 1509 2338 
Q 1509 1453 1675 1090 
Q 1841 728 2228 728 
Q 2613 728 2778 1090 
Q 2944 1453 2944 2338 
z
M 4147 2328 
Q 4147 1169 3647 539 
Q 3147 -91 2228 -91 
Q 1306 -91 806 539 
Q 306 1169 306 2328 
Q 306 3491 806 4120 
Q 1306 4750 2228 4750 
Q 3147 4750 3647 4120 
Q 4147 3491 4147 2328 
z
" transform="scale(0.015625)"/>
      <path id="DejaVuSans-Bold-61" d="M 2106 1575 
Q 1756 1575 1579 1456 
Q 1403 1338 1403 1106 
Q 1403 894 1545 773 
Q 1688 653 1941 653 
Q 2256 653 2472 879 
Q 2688 1106 2688 1447 
L 2688 1575 
L 2106 1575 
z
M 3816 1997 
L 3816 0 
L 2688 0 
L 2688 519 
Q 2463 200 2181 54 
Q 1900 -91 1497 -91 
Q 953 -91 614 226 
Q 275 544 275 1050 
Q 275 1666 698 1953 
Q 1122 2241 2028 2241 
L 2688 2241 
L 2688 2328 
Q 2688 2594 2478 2717 
Q 2269 2841 1825 2841 
Q 1466 2841 1156 2769 
Q 847 2697 581 2553 
L 581 3406 
Q 941 3494 1303 3539 
Q 1666 3584 2028 3584 
Q 2975 3584 3395 3211 
Q 3816 2838 3816 1997 
z
" transform="scale(0.015625)"/>
      <path id="DejaVuSans-Bold-35" d="M 678 4666 
L 3669 4666 
L 3669 3781 
L 1638 3781 
L 1638 3059 
Q 1775 3097 1914 3117 
Q 2053 3138 2203 3138 
Q 3056 3138 3531 2711 
Q 4006 2284 4006 1522 
Q 4006 766 3489 337 
Q 2972 -91 2053 -91 
Q 1656 -91 1267 -14 
Q 878 63 494 219 
L 494 1166 
Q 875 947 1217 837 
Q 1559 728 1863 728 
Q 2300 728 2551 942 
Q 2803 1156 2803 1522 
Q 2803 1891 2551 2103 
Q 2300 2316 1863 2316 
Q 1603 2316 1309 2248 
Q 1016 2181 678 2041 
L 678 4666 
z
" transform="scale(0.015625)"/>
     </defs>
     <use xlink:href="#DejaVuSans-Bold-32"/>
     <use xlink:href="#DejaVuSans-Bold-36" transform="translate(69.580078 0)"/>
     <use xlink:href="#DejaVuSans-Bold-78" transform="translate(139.160156 0)"/>
     <use xlink:href="#DejaVuSans-Bold-20" transform="translate(203.662109 0)"/>
     <use xlink:href="#DejaVuSans-Bold-49" transform="translate(238.476562 0)"/>
     <use xlink:href="#DejaVuSans-Bold-6d" transform="translate(275.683594 0)"/>
     <use xlink:href="#DejaVuSans-Bold-70" transform="translate(379.882812 0)"/>
     <use xlink:href="#DejaVuSans-Bold-72" transform="translate(451.464844 0)"/>
     <use xlink:href="#DejaVuSans-Bold-6f" transform="translate(500.78125 0)"/>
     <use xlink:href="#DejaVuSans-Bold-76" transform="translate(569.482422 0)"/>
     <use xlink:href="#DejaVuSans-Bold-65" transform="translate(634.667969 0)"/>
     <use xlink:href="#DejaVuSans-Bold-6d" transform="translate(702.490234 0)"/>
     <use xlink:href="#DejaVuSans-Bold-65" transform="translate(806.689453 0)"/>
     <use xlink:href="#DejaVuSans-Bold-6e" transform="translate(874.511719 0)"/>
     <use xlink:href="#DejaVuSans-Bold-74" transform="translate(945.703125 0)"/>
     <use xlink:href="#DejaVuSans-Bold-3a" transform="translate(993.505859 0)"/>
     <use xlink:href="#DejaVuSans-Bold-20" transform="translate(1033.496094 0)"/>
     <use xlink:href="#DejaVuSans-Bold-34" transform="translate(1068.310547 0)"/>
     <use xlink:href="#DejaVuSans-Bold-2c" transform="translate(1137.890625 0)"/>
     <use xlink:href="#DejaVuSans-Bold-33" transform="translate(1175.878906 0)"/>
     <use xlink:href="#DejaVuSans-Bold-30" transform="translate(1245.458984 0)"/>
     <use xlink:href="#DejaVuSans-Bold-34" transform="translate(1315.039062 0)"/>
     <use xlink:href="#DejaVuSans-Bold-20" transform="translate(1384.619141 0)"/>
     <use xlink:href="#DejaVuSans-Bold-6f" transform="translate(1419.433594 0)"/>
     <use xlink:href="#DejaVuSans-Bold-70" transform="translate(1488.134766 0)"/>
     <use xlink:href="#DejaVuSans-Bold-73" transform="translate(1559.716797 0)"/>
     <use xlink:href="#DejaVuSans-Bold-2f" transform="translate(1619.238281 0)"/>
     <use xlink:href="#DejaVuSans-Bold-73" transform="translate(1655.761719 0)"/>
     <use xlink:href="#DejaVuSans-Bold-65" transform="translate(1715.283203 0)"/>
     <use xlink:href="#DejaVuSans-Bold-63" transform="translate(1783.105469 0)"/>
     <use xlink:href="#DejaVuSans-Bold-20" transform="translate(1842.382812 0)"/>
     <use xlink:href="#DejaVuSans-Bold-61" transform="translate(1877.197266 0)"/>
     <use xlink:href="#DejaVuSans-Bold-74" transform="translate(1944.677734 0)"/>
     <use xlink:href="#DejaVuSans-Bold-20" transform="translate(1992.480469 0)"/>
     <use xlink:href="#DejaVuSans-Bold-32" transform="translate(2027.294922 0)"/>
     <use xlink:href="#DejaVuSans-Bold-35" transform="translate(2096.875 0)"/>
     <use xlink:href="#DejaVuSans-Bold-20" transform="translate(2166.455078 0)"/>
     <use xlink:href="#DejaVuSans-Bold-75" transform="translate(2201.269531 0)"/>
     <use xlink:href="#DejaVuSans-Bold-73" transform="translate(2272.460938 0)"/>
     <use xlink:href="#DejaVuSans-Bold-65" transform="translate(2331.982422 0)"/>
     <use xlink:href="#DejaVuSans-Bold-72" transform="translate(2399.804688 0)"/>
     <use xlink:href="#DejaVuSans-Bold-73" transform="translate(2449.121094 0)"/>
    </g>
   </g>
   <g id="text_15">
    <g id="patch_8">
     <path d="M 381.58375 629.510963 
L 851.73875 629.510963 
Q 855.93875 629.510963 855.93875 625.310962 
L 855.93875 611.652212 
Q 855.93875 607.452212 851.73875 607.452212 
L 381.58375 607.452212 
Q 377.38375 607.452212 377.38375 611.652212 
L 377.38375 625.310962 
Q 377.38375 629.510963 381.58375 629.510963 
z
" style="fill: #1e293b; stroke: #7a828e; stroke-width: 2; stroke-linejoin: miter"/>
    </g>
    <!-- Source: vera-vs-ai-benchmark-report.json (March 26, 2026) -->
    <g style="fill: #7a828e" transform="translate(381.58375 622.290025) scale(0.14 -0.14)">
     <defs>
      <path id="DejaVuSans-Bold-53" d="M 3834 4519 
L 3834 3531 
Q 3450 3703 3084 3790 
Q 2719 3878 2394 3878 
Q 1963 3878 1756 3759 
Q 1550 3641 1550 3391 
Q 1550 3203 1689 3098 
Q 1828 2994 2194 2919 
L 2706 2816 
Q 3484 2659 3812 2340 
Q 4141 2022 4141 1434 
Q 4141 663 3683 286 
Q 3225 -91 2284 -91 
Q 1841 -91 1394 -6 
Q 947 78 500 244 
L 500 1259 
Q 947 1022 1364 901 
Q 1781 781 2169 781 
Q 2563 781 2772 912 
Q 2981 1044 2981 1288 
Q 2981 1506 2839 1625 
Q 2697 1744 2272 1838 
L 1806 1941 
Q 1106 2091 782 2419 
Q 459 2747 459 3303 
Q 459 4000 909 4375 
Q 1359 4750 2203 4750 
Q 2588 4750 2994 4692 
Q 3400 4634 3834 4519 
z
" transform="scale(0.015625)"/>
      <path id="DejaVuSans-Bold-2d" d="M 347 2297 
L 2309 2297 
L 2309 1388 
L 347 1388 
L 347 2297 
z
" transform="scale(0.015625)"/>
      <path id="DejaVuSans-Bold-69" d="M 538 3500 
L 1656 3500 
L 1656 0 
L 538 0 
L 538 3500 
z
M 538 4863 
L 1656 4863 
L 1656 3950 
L 538 3950 
L 538 4863 
z
" transform="scale(0.015625)"/>
      <path id="DejaVuSans-Bold-62" d="M 2400 722 
Q 2759 722 2948 984 
Q 3138 1247 3138 1747 
Q 3138 2247 2948 2509 
Q 2759 2772 2400 2772 
Q 2041 2772 1848 2508 
Q 1656 2244 1656 1747 
Q 1656 1250 1848 986 
Q 2041 722 2400 722 
z
M 1656 2988 
Q 1888 3294 2169 3439 
Q 2450 3584 2816 3584 
Q 3463 3584 3878 3070 
Q 4294 2556 4294 1747 
Q 4294 938 3878 423 
Q 3463 -91 2816 -91 
Q 2450 -91 2169 54 
Q 1888 200 1656 506 
L 1656 0 
L 538 0 
L 538 4863 
L 1656 4863 
L 1656 2988 
z
" transform="scale(0.015625)"/>
      <path id="DejaVuSans-Bold-6b" d="M 538 4863 
L 1656 4863 
L 1656 2216 
L 2944 3500 
L 4244 3500 
L 2534 1894 
L 4378 0 
L 3022 0 
L 1656 1459 
L 1656 0 
L 538 0 
L 538 4863 
z
" transform="scale(0.015625)"/>
      <path id="DejaVuSans-Bold-2e" d="M 653 1209 
L 1778 1209 
L 1778 0 
L 653 0 
L 653 1209 
z
" transform="scale(0.015625)"/>
      <path id="DejaVuSans-Bold-6a" d="M 538 3500 
L 1656 3500 
L 1656 63 
Q 1656 -641 1318 -1011 
Q 981 -1381 341 -1381 
L -213 -1381 
L -213 -647 
L -19 -647 
Q 300 -647 419 -503 
Q 538 -359 538 63 
L 538 3500 
z
M 538 4863 
L 1656 4863 
L 1656 3950 
L 538 3950 
L 538 4863 
z
" transform="scale(0.015625)"/>
      <path id="DejaVuSans-Bold-4d" d="M 588 4666 
L 2119 4666 
L 3181 2169 
L 4250 4666 
L 5778 4666 
L 5778 0 
L 4641 0 
L 4641 3413 
L 3566 897 
L 2803 897 
L 1728 3413 
L 1728 0 
L 588 0 
L 588 4666 
z
" transform="scale(0.015625)"/>
     </defs>
     <use xlink:href="#DejaVuSans-Bold-53"/>
     <use xlink:href="#DejaVuSans-Bold-6f" transform="translate(72.021484 0)"/>
     <use xlink:href="#DejaVuSans-Bold-75" transform="translate(140.722656 0)"/>
     <use xlink:href="#DejaVuSans-Bold-72" transform="translate(211.914062 0)"/>
     <use xlink:href="#DejaVuSans-Bold-63" transform="translate(261.230469 0)"/>
     <use xlink:href="#DejaVuSans-Bold-65" transform="translate(320.507812 0)"/>
     <use xlink:href="#DejaVuSans-Bold-3a" transform="translate(388.330078 0)"/>
     <use xlink:href="#DejaVuSans-Bold-20" transform="translate(428.320312 0)"/>
     <use xlink:href="#DejaVuSans-Bold-76" transform="translate(463.134766 0)"/>
     <use xlink:href="#DejaVuSans-Bold-65" transform="translate(528.320312 0)"/>
     <use xlink:href="#DejaVuSans-Bold-72" transform="translate(596.142578 0)"/>
     <use xlink:href="#DejaVuSans-Bold-61" transform="translate(645.458984 0)"/>
     <use xlink:href="#DejaVuSans-Bold-2d" transform="translate(712.939453 0)"/>
     <use xlink:href="#DejaVuSans-Bold-76" transform="translate(754.443359 0)"/>
     <use xlink:href="#DejaVuSans-Bold-73" transform="translate(819.628906 0)"/>
     <use xlink:href="#DejaVuSans-Bold-2d" transform="translate(879.150391 0)"/>
     <use xlink:href="#DejaVuSans-Bold-61" transform="translate(920.654297 0)"/>
     <use xlink:href="#DejaVuSans-Bold-69" transform="translate(988.134766 0)"/>
     <use xlink:href="#DejaVuSans-Bold-2d" transform="translate(1022.412109 0)"/>
     <use xlink:href="#DejaVuSans-Bold-62" transform="translate(1063.916016 0)"/>
     <use xlink:href="#DejaVuSans-Bold-65" transform="translate(1135.498047 0)"/>
     <use xlink:href="#DejaVuSans-Bold-6e" transform="translate(1203.320312 0)"/>
     <use xlink:href="#DejaVuSans-Bold-63" transform="translate(1274.511719 0)"/>
     <use xlink:href="#DejaVuSans-Bold-68" transform="translate(1333.789062 0)"/>
     <use xlink:href="#DejaVuSans-Bold-6d" transform="translate(1404.980469 0)"/>
     <use xlink:href="#DejaVuSans-Bold-61" transform="translate(1509.179688 0)"/>
     <use xlink:href="#DejaVuSans-Bold-72" transform="translate(1576.660156 0)"/>
     <use xlink:href="#DejaVuSans-Bold-6b" transform="translate(1625.976562 0)"/>
     <use xlink:href="#DejaVuSans-Bold-2d" transform="translate(1692.480469 0)"/>
     <use xlink:href="#DejaVuSans-Bold-72" transform="translate(1733.984375 0)"/>
     <use xlink:href="#DejaVuSans-Bold-65" transform="translate(1783.300781 0)"/>
     <use xlink:href="#DejaVuSans-Bold-70" transform="translate(1851.123047 0)"/>
     <use xlink:href="#DejaVuSans-Bold-6f" transform="translate(1922.705078 0)"/>
     <use xlink:href="#DejaVuSans-Bold-72" transform="translate(1991.40625 0)"/>
     <use xlink:href="#DejaVuSans-Bold-74" transform="translate(2040.722656 0)"/>
     <use xlink:href="#DejaVuSans-Bold-2e" transform="translate(2088.525391 0)"/>
     <use xlink:href="#DejaVuSans-Bold-6a" transform="translate(2126.513672 0)"/>
     <use xlink:href="#DejaVuSans-Bold-73" transform="translate(2160.791016 0)"/>
     <use xlink:href="#DejaVuSans-Bold-6f" transform="translate(2220.3125 0)"/>
     <use xlink:href="#DejaVuSans-Bold-6e" transform="translate(2289.013672 0)"/>
     <use xlink:href="#DejaVuSans-Bold-20" transform="translate(2360.205078 0)"/>
     <use xlink:href="#DejaVuSans-Bold-28" transform="translate(2395.019531 0)"/>
     <use xlink:href="#DejaVuSans-Bold-4d" transform="translate(2440.722656 0)"/>
     <use xlink:href="#DejaVuSans-Bold-61" transform="translate(2540.234375 0)"/>
     <use xlink:href="#DejaVuSans-Bold-72" transform="translate(2607.714844 0)"/>
     <use xlink:href="#DejaVuSans-Bold-63" transform="translate(2657.03125 0)"/>
     <use xlink:href="#DejaVuSans-Bold-68" transform="translate(2716.308594 0)"/>
     <use xlink:href="#DejaVuSans-Bold-20" transform="translate(2787.5 0)"/>
     <use xlink:href="#DejaVuSans-Bold-32" transform="translate(2822.314453 0)"/>
     <use xlink:href="#DejaVuSans-Bold-36" transform="translate(2891.894531 0)"/>
     <use xlink:href="#DejaVuSans-Bold-2c" transform="translate(2961.474609 0)"/>
     <use xlink:href="#DejaVuSans-Bold-20" transform="translate(2999.462891 0)"/>
     <use xlink:href="#DejaVuSans-Bold-32" transform="translate(3034.277344 0)"/>
     <use xlink:href="#DejaVuSans-Bold-30" transform="translate(3103.857422 0)"/>
     <use xlink:href="#DejaVuSans-Bold-32" transform="translate(3173.4375 0)"/>
     <use xlink:href="#DejaVuSans-Bold-36" transform="translate(3243.017578 0)"/>
     <use xlink:href="#DejaVuSans-Bold-29" transform="translate(3312.597656 0)"/>
    </g>
   </g>
   <g id="text_16">
    <!-- VNX Scalability: 26x Performance Multiplier -->
    <g style="fill: #f8fafc" transform="translate(270.119687 28.475625) scale(0.28 -0.28)">
     <defs>
      <path id="DejaVuSans-Bold-56" d="M 31 4666 
L 1241 4666 
L 2478 1222 
L 3713 4666 
L 4922 4666 
L 3194 0 
L 1759 0 
L 31 4666 
z
" transform="scale(0.015625)"/>
      <path id="DejaVuSans-Bold-4e" d="M 588 4666 
L 1931 4666 
L 3628 1466 
L 3628 4666 
L 4769 4666 
L 4769 0 
L 3425 0 
L 1728 3200 
L 1728 0 
L 588 0 
L 588 4666 
z
" transform="scale(0.015625)"/>
      <path id="DejaVuSans-Bold-58" d="M 3188 2381 
L 4806 0 
L 3553 0 
L 2463 1594 
L 1381 0 
L 122 0 
L 1741 2381 
L 184 4666 
L 1441 4666 
L 2463 3163 
L 3481 4666 
L 4744 4666 
L 3188 2381 
z
" transform="scale(0.015625)"/>
      <path id="DejaVuSans-Bold-6c" d="M 538 4863 
L 1656 4863 
L 1656 0 
L 538 0 
L 538 4863 
z
" transform="scale(0.015625)"/>
      <path id="DejaVuSans-Bold-79" d="M 78 3500 
L 1197 3500 
L 2138 1125 
L 2938 3500 
L 4056 3500 
L 2584 -331 
Q 2363 -916 2067 -1148 
Q 1772 -1381 1288 -1381 
L 641 -1381 
L 641 -647 
L 991 -647 
Q 1275 -647 1404 -556 
Q 1534 -466 1606 -231 
L 1638 -134 
L 78 3500 
z
" transform="scale(0.015625)"/>
      <path id="DejaVuSans-Bold-50" d="M 588 4666 
L 2584 4666 
Q 3475 4666 3951 4270 
Q 4428 3875 4428 3144 
Q 4428 2409 3951 2014 
Q 3475 1619 2584 1619 
L 1791 1619 
L 1791 0 
L 588 0 
L 588 4666 
z
M 1791 3794 
L 1791 2491 
L 2456 2491 
Q 2806 2491 2997 2661 
Q 3188 2831 3188 3144 
Q 3188 3456 2997 3625 
Q 2806 3794 2456 3794 
L 1791 3794 
z
" transform="scale(0.015625)"/>
      <path id="DejaVuSans-Bold-66" d="M 2841 4863 
L 2841 4128 
L 2222 4128 
Q 1984 4128 1890 4042 
Q 1797 3956 1797 3744 
L 1797 3500 
L 2753 3500 
L 2753 2700 
L 1797 2700 
L 1797 0 
L 678 0 
L 678 2700 
L 122 2700 
L 122 3500 
L 678 3500 
L 678 3744 
Q 678 4316 997 4589 
Q 1316 4863 1984 4863 
L 2841 4863 
z
" transform="scale(0.015625)"/>
     </defs>
     <use xlink:href="#DejaVuSans-Bold-56"/>
     <use xlink:href="#DejaVuSans-Bold-4e" transform="translate(77.392578 0)"/>
     <use xlink:href="#DejaVuSans-Bold-58" transform="translate(161.083984 0)"/>
     <use xlink:href="#DejaVuSans-Bold-20" transform="translate(238.183594 0)"/>
     <use xlink:href="#DejaVuSans-Bold-53" transform="translate(272.998047 0)"/>
     <use xlink:href="#DejaVuSans-Bold-63" transform="translate(345.019531 0)"/>
     <use xlink:href="#DejaVuSans-Bold-61" transform="translate(404.296875 0)"/>
     <use xlink:href="#DejaVuSans-Bold-6c" transform="translate(471.777344 0)"/>
     <use xlink:href="#DejaVuSans-Bold-61" transform="translate(506.054688 0)"/>
     <use xlink:href="#DejaVuSans-Bold-62" transform="translate(573.535156 0)"/>
     <use xlink:href="#DejaVuSans-Bold-69" transform="translate(645.117188 0)"/>
     <use xlink:href="#DejaVuSans-Bold-6c" transform="translate(679.394531 0)"/>
     <use xlink:href="#DejaVuSans-Bold-69" transform="translate(713.671875 0)"/>
     <use xlink:href="#DejaVuSans-Bold-74" transform="translate(747.949219 0)"/>
     <use xlink:href="#DejaVuSans-Bold-79" transform="translate(795.751953 0)"/>
     <use xlink:href="#DejaVuSans-Bold-3a" transform="translate(860.9375 0)"/>
     <use xlink:href="#DejaVuSans-Bold-20" transform="translate(900.927734 0)"/>
     <use xlink:href="#DejaVuSans-Bold-32" transform="translate(935.742188 0)"/>
     <use xlink:href="#DejaVuSans-Bold-36" transform="translate(1005.322266 0)"/>
     <use xlink:href="#DejaVuSans-Bold-78" transform="translate(1074.902344 0)"/>
     <use xlink:href="#DejaVuSans-Bold-20" transform="translate(1139.404297 0)"/>
     <use xlink:href="#DejaVuSans-Bold-50" transform="translate(1174.21875 0)"/>
     <use xlink:href="#DejaVuSans-Bold-65" transform="translate(1247.509766 0)"/>
     <use xlink:href="#DejaVuSans-Bold-72" transform="translate(1315.332031 0)"/>
     <use xlink:href="#DejaVuSans-Bold-66" transform="translate(1364.648438 0)"/>
     <use xlink:href="#DejaVuSans-Bold-6f" transform="translate(1408.154297 0)"/>
     <use xlink:href="#DejaVuSans-Bold-72" transform="translate(1476.855469 0)"/>
     <use xlink:href="#DejaVuSans-Bold-6d" transform="translate(1526.171875 0)"/>
     <use xlink:href="#DejaVuSans-Bold-61" transform="translate(1630.371094 0)"/>
     <use xlink:href="#DejaVuSans-Bold-6e" transform="translate(1697.851562 0)"/>
     <use xlink:href="#DejaVuSans-Bold-63" transform="translate(1769.042969 0)"/>
     <use xlink:href="#DejaVuSans-Bold-65" transform="translate(1828.320312 0)"/>
     <use xlink:href="#DejaVuSans-Bold-20" transform="translate(1896.142578 0)"/>
     <use xlink:href="#DejaVuSans-Bold-4d" transform="translate(1930.957031 0)"/>
     <use xlink:href="#DejaVuSans-Bold-75" transform="translate(2030.46875 0)"/>
     <use xlink:href="#DejaVuSans-Bold-6c" transform="translate(2101.660156 0)"/>
     <use xlink:href="#DejaVuSans-Bold-74" transform="translate(2135.9375 0)"/>
     <use xlink:href="#DejaVuSans-Bold-69" transform="translate(2183.740234 0)"/>
     <use xlink:href="#DejaVuSans-Bold-70" transform="translate(2218.017578 0)"/>
     <use xlink:href="#DejaVuSans-Bold-6c" transform="translate(2289.599609 0)"/>
     <use xlink:href="#DejaVuSans-Bold-69" transform="translate(2323.876953 0)"/>
     <use xlink:href="#DejaVuSans-Bold-65" transform="translate(2358.154297 0)"/>
     <use xlink:href="#DejaVuSans-Bold-72" transform="translate(2425.976562 0)"/>
    </g>
   </g>
  </g>
 </g>
 <defs>
  <clipPath id="pa480258931">
   <rect x="80.98125" y="53.475625" width="1071.36" height="598.752"/>
  </clipPath>
 </defs>
</svg>
