<?xml version="1.0" encoding="utf-8" standalone="no"?>
<!DOCTYPE svg PUBLIC "-//W3C//DTD SVG 1.1//EN"
  "http://www.w3.org/Graphics/SVG/1.1/DTD/svg11.dtd">
<svg xmlns:xlink="http://www.w3.org/1999/xlink" width="1208.5075pt" height="707.83325pt" viewBox="0 0 1208.5075 707.83325" xmlns="http://www.w3.org/2000/svg" version="1.1">
 <metadata>
  <rdf:RDF xmlns:dc="http://purl.org/dc/elements/1.1/" xmlns:cc="http://creativecommons.org/ns#" xmlns:rdf="http://www.w3.org/1999/02/22-rdf-syntax-ns#">
   <cc:Work>
    <dc:type rdf:resource="http://purl.org/dc/dcmitype/StillImage"/>
    <dc:date>2026-05-09T21:42:56.700000</dc:date>
    <dc:format>image/svg+xml</dc:format>
    <dc:creator>
     <cc:Agent>
      <dc:title>Matplotlib v3.10.9, https://matplotlib.org/</dc:title>
     </cc:Agent>
    </dc:creator>
   </cc:Work>
  </rdf:RDF>
 </metadata>
 <defs>
  <style type="text/css">*{stroke-linejoin: round; stroke-linecap: butt}</style>
 </defs>
 <g id="figure_1">
  <g id="patch_1">
   <path d="M 0 707.83325 
L 1208.5075 707.83325 
L 1208.5075 0 
L 0 0 
z
" style="fill: #0f172a"/>
  </g>
  <g id="axes_1">
   <g id="patch_2">
    <path d="M 129.9475 652.227625 
L 1201.3075 652.227625 
L 1201.3075 53.475625 
L 129.9475 53.475625 
z
" style="fill: #1e293b"/>
   </g>
   <g id="patch_3">
    <path d="M 129.9475 80.691625 
L 386.142283 80.691625 
L 386.142283 161.760561 
L 129.9475 161.760561 
z
" clip-path="url(#p48031826e1)" style="fill: #00d4aa; stroke: #ffd700; stroke-width: 3; stroke-linejoin: miter"/>
   </g>
   <g id="patch_4">
    <path d="M 129.9475 196.504391 
L 688.917935 196.504391 
L 688.917935 277.573327 
L 129.9475 277.573327 
z
" clip-path="url(#p48031826e1)" style="fill: #7a828e; stroke: #f8fafc; stroke-width: 2; stroke-linejoin: miter"/>
   </g>
   <g id="patch_5">
    <path d="M 129.9475 312.317157 
L 595.756196 312.317157 
L 595.756196 393.386093 
L 129.9475 393.386093 
z
" clip-path="url(#p48031826e1)" style="fill: #7a828e; stroke: #f8fafc; stroke-width: 2; stroke-linejoin: miter"/>
   </g>
   <g id="patch_6">
    <path d="M 129.9475 428.129923 
L 502.594457 428.129923 
L 502.594457 509.198859 
L 129.9475 509.198859 
z
" clip-path="url(#p48031826e1)" style="fill: #7a828e; stroke: #f8fafc; stroke-width: 2; stroke-linejoin: miter"/>
   </g>
   <g id="patch_7">
    <path d="M 129.9475 543.942689 
L 1061.564891 543.942689 
L 1061.564891 625.011625 
L 129.9475 625.011625 
z
" clip-path="url(#p48031826e1)" style="fill: #7a828e; stroke: #f8fafc; stroke-width: 2; stroke-linejoin: miter"/>
   </g>
   <g id="matplotlib.axis_1">
    <g id="xtick_1">
     <g id="line2d_1">
      <path d="M 129.9475 652.227625 
L 129.9475 53.475625 
" clip-path="url(#p48031826e1)" style="fill: none; stroke-dasharray: 5.55,2.4; stroke-dashoffset: 0; stroke: #334155; stroke-opacity: 0.4; stroke-width: 1.5"/>
     </g>
     <g id="line2d_2">
      <defs>
       <path id="m0a692a7580" d="M 0 0 
L 0 8 
" style="stroke: #f8fafc; stroke-width: 2"/>
      </defs>
      <g>
       <use xlink:href="#m0a692a7580" x="129.9475" y="652.227625" style="fill: #f8fafc; stroke: #f8fafc; stroke-width: 2"/>
      </g>
     </g>
     <g id="text_1">
      <!-- 0.0 -->
      <g style="fill: #f8fafc" transform="translate(117.225 675.885125) scale(0.16 -0.16)">
       <defs>
        <path id="DejaVuSans-30" d="M 2034 4250 
Q 1547 4250 1301 3770 
Q 1056 3291 1056 2328 
Q 1056 1369 1301 889 
Q 1547 409 2034 409 
Q 2525 409 2770 889 
Q 3016 1369 3016 2328 
Q 3016 3291 2770 3770 
Q 2525 4250 2034 4250 
z
M 2034 4750 
Q 2819 4750 3233 4129 
Q 3647 3509 3647 2328 
Q 3647 1150 3233 529 
Q 2819 -91 2034 -91 
Q 1250 -91 836 529 
Q 422 1150 422 2328 
Q 422 3509 836 4129 
Q 1250 4750 2034 4750 
z
" transform="scale(0.015625)"/>
        <path id="DejaVuSans-2e" d="M 684 794 
L 1344 794 
L 1344 0 
L 684 0 
L 684 794 
z
" transform="scale(0.015625)"/>
       </defs>
       <use xlink:href="#DejaVuSans-30"/>
       <use xlink:href="#DejaVuSans-2e" transform="translate(63.623047 0)"/>
       <use xlink:href="#DejaVuSans-30" transform="translate(95.410156 0)"/>
      </g>
     </g>
    </g>
    <g id="xtick_2">
     <g id="line2d_3">
      <path d="M 362.851848 652.227625 
L 362.851848 53.475625 
" clip-path="url(#p48031826e1)" style="fill: none; stroke-dasharray: 5.55,2.4; stroke-dashoffset: 0; stroke: #334155; stroke-opacity: 0.4; stroke-width: 1.5"/>
     </g>
     <g id="line2d_4">
      <g>
       <use xlink:href="#m0a692a7580" x="362.851848" y="652.227625" style="fill: #f8fafc; stroke: #f8fafc; stroke-width: 2"/>
      </g>
     </g>
     <g id="text_2">
      <!-- 0.5 -->
      <g style="fill: #f8fafc" transform="translate(350.129348 675.885125) scale(0.16 -0.16)">
       <defs>
        <path id="DejaVuSans-35" d="M 691 4666 
L 3169 4666 
L 3169 4134 
L 1269 4134 
L 1269 2991 
Q 1406 3038 1543 3061 
Q 1681 3084 1819 3084 
Q 2600 3084 3056 2656 
Q 3513 2228 3513 1497 
Q 3513 744 3044 326 
Q 2575 -91 1722 -91 
Q 1428 -91 1123 -41 
Q 819 9 494 109 
L 494 744 
Q 775 591 1075 516 
Q 1375 441 1709 441 
Q 2250 441 2565 725 
Q 2881 1009 2881 1497 
Q 2881 1984 2565 2268 
Q 2250 2553 1709 2553 
Q 1456 2553 1204 2497 
Q 953 2441 691 2322 
L 691 4666 
z
" transform="scale(0.015625)"/>
       </defs>
       <use xlink:href="#DejaVuSans-30"/>
       <use xlink:href="#DejaVuSans-2e" transform="translate(63.623047 0)"/>
       <use xlink:href="#DejaVuSans-35" transform="translate(95.410156 0)"/>
      </g>
     </g>
    </g>
    <g id="xtick_3">
     <g id="line2d_5">
      <path d="M 595.756196 652.227625 
L 595.756196 53.475625 
" clip-path="url(#p48031826e1)" style="fill: none; stroke-dasharray: 5.55,2.4; stroke-dashoffset: 0; stroke: #334155; stroke-opacity: 0.4; stroke-width: 1.5"/>
     </g>
     <g id="line2d_6">
      <g>
       <use xlink:href="#m0a692a7580" x="595.756196" y="652.227625" style="fill: #f8fafc; stroke: #f8fafc; stroke-width: 2"/>
      </g>
     </g>
     <g id="text_3">
      <!-- 1.0 -->
      <g style="fill: #f8fafc" transform="translate(583.033696 675.885125) scale(0.16 -0.16)">
       <defs>
        <path id="DejaVuSans-31" d="M 794 531 
L 1825 531 
L 1825 4091 
L 703 3866 
L 703 4441 
L 1819 4666 
L 2450 4666 
L 2450 531 
L 3481 531 
L 3481 0 
L 794 0 
L 794 531 
z
" transform="scale(0.015625)"/>
       </defs>
       <use xlink:href="#DejaVuSans-31"/>
       <use xlink:href="#DejaVuSans-2e" transform="translate(63.623047 0)"/>
       <use xlink:href="#DejaVuSans-30" transform="translate(95.410156 0)"/>
      </g>
     </g>
    </g>
    <g id="xtick_4">
     <g id="line2d_7">
      <path d="M 828.660543 652.227625 
L 828.660543 53.475625 
" clip-path="url(#p48031826e1)" style="fill: none; stroke-dasharray: 5.55,2.4; stroke-dashoffset: 0; stroke: #334155; stroke-opacity: 0.4; stroke-width: 1.5"/>
     </g>
     <g id="line2d_8">
      <g>
       <use xlink:href="#m0a692a7580" x="828.660543" y="652.227625" style="fill: #f8fafc; stroke: #f8fafc; stroke-width: 2"/>
      </g>
     </g>
     <g id="text_4">
      <!-- 1.5 -->
      <g style="fill: #f8fafc" transform="translate(815.938043 675.885125) scale(0.16 -0.16)">
       <use xlink:href="#DejaVuSans-31"/>
       <use xlink:href="#DejaVuSans-2e" transform="translate(63.623047 0)"/>
       <use xlink:href="#DejaVuSans-35" transform="translate(95.410156 0)"/>
      </g>
     </g>
    </g>
    <g id="xtick_5">
     <g id="line2d_9">
      <path d="M 1061.564891 652.227625 
L 1061.564891 53.475625 
" clip-path="url(#p48031826e1)" style="fill: none; stroke-dasharray: 5.55,2.4; stroke-dashoffset: 0; stroke: #334155; stroke-opacity: 0.4; stroke-width: 1.5"/>
     </g>
     <g id="line2d_10">
      <g>
       <use xlink:href="#m0a692a7580" x="1061.564891" y="652.227625" style="fill: #f8fafc; stroke: #f8fafc; stroke-width: 2"/>
      </g>
     </g>
     <g id="text_5">
      <!-- 2.0 -->
      <g style="fill: #f8fafc" transform="translate(1048.842391 675.885125) scale(0.16 -0.16)">
       <defs>
        <path id="DejaVuSans-32" d="M 1228 531 
L 3431 531 
L 3431 0 
L 469 0 
L 469 531 
Q 828 903 1448 1529 
Q 2069 2156 2228 2338 
Q 2531 2678 2651 2914 
Q 2772 3150 2772 3378 
Q 2772 3750 2511 3984 
Q 2250 4219 1831 4219 
Q 1534 4219 1204 4116 
Q 875 4013 500 3803 
L 500 4441 
Q 881 4594 1212 4672 
Q 1544 4750 1819 4750 
Q 2544 4750 2975 4387 
Q 3406 4025 3406 3419 
Q 3406 3131 3298 2873 
Q 3191 2616 2906 2266 
Q 2828 2175 2409 1742 
Q 1991 1309 1228 531 
z
" transform="scale(0.015625)"/>
       </defs>
       <use xlink:href="#DejaVuSans-32"/>
       <use xlink:href="#DejaVuSans-2e" transform="translate(63.623047 0)"/>
       <use xlink:href="#DejaVuSans-30" transform="translate(95.410156 0)"/>
      </g>
     </g>
    </g>
    <g id="text_6">
     <!-- Response Time (seconds) -->
     <g style="fill: #f8fafc" transform="translate(536.357969 696.889813) scale(0.18 -0.18)">
      <defs>
       <path id="DejaVuSans-Bold-52" d="M 2297 2597 
Q 2675 2597 2839 2737 
Q 3003 2878 3003 3200 
Q 3003 3519 2839 3656 
Q 2675 3794 2297 3794 
L 1791 3794 
L 1791 2597 
L 2297 2597 
z
M 1791 1766 
L 1791 0 
L 588 0 
L 588 4666 
L 2425 4666 
Q 3347 4666 3776 4356 
Q 4206 4047 4206 3378 
Q 4206 2916 3982 2619 
Q 3759 2322 3309 2181 
Q 3556 2125 3751 1926 
Q 3947 1728 4147 1325 
L 4800 0 
L 3519 0 
L 2950 1159 
Q 2778 1509 2601 1637 
Q 2425 1766 2131 1766 
L 1791 1766 
z
" transform="scale(0.015625)"/>
       <path id="DejaVuSans-Bold-65" d="M 4031 1759 
L 4031 1441 
L 1416 1441 
Q 1456 1047 1700 850 
Q 1944 653 2381 653 
Q 2734 653 3104 758 
Q 3475 863 3866 1075 
L 3866 213 
Q 3469 63 3072 -14 
Q 2675 -91 2278 -91 
Q 1328 -91 801 392 
Q 275 875 275 1747 
Q 275 2603 792 3093 
Q 1309 3584 2216 3584 
Q 3041 3584 3536 3087 
Q 4031 2591 4031 1759 
z
M 2881 2131 
Q 2881 2450 2695 2645 
Q 2509 2841 2209 2841 
Q 1884 2841 1681 2658 
Q 1478 2475 1428 2131 
L 2881 2131 
z
" transform="scale(0.015625)"/>
       <path id="DejaVuSans-Bold-73" d="M 3272 3391 
L 3272 2541 
Q 2913 2691 2578 2766 
Q 2244 2841 1947 2841 
Q 1628 2841 1473 2761 
Q 1319 2681 1319 2516 
Q 1319 2381 1436 2309 
Q 1553 2238 1856 2203 
L 2053 2175 
Q 2913 2066 3209 1816 
Q 3506 1566 3506 1031 
Q 3506 472 3093 190 
Q 2681 -91 1863 -91 
Q 1516 -91 1145 -36 
Q 775 19 384 128 
L 384 978 
Q 719 816 1070 734 
Q 1422 653 1784 653 
Q 2113 653 2278 743 
Q 2444 834 2444 1013 
Q 2444 1163 2330 1236 
Q 2216 1309 1875 1350 
L 1678 1375 
Q 931 1469 631 1722 
Q 331 1975 331 2491 
Q 331 3047 712 3315 
Q 1094 3584 1881 3584 
Q 2191 3584 2531 3537 
Q 2872 3491 3272 3391 
z
" transform="scale(0.015625)"/>
       <path id="DejaVuSans-Bold-70" d="M 1656 506 
L 1656 -1331 
L 538 -1331 
L 538 3500 
L 1656 3500 
L 1656 2988 
Q 1888 3294 2169 3439 
Q 2450 3584 2816 3584 
Q 3463 3584 3878 3070 
Q 4294 2556 4294 1747 
Q 4294 938 3878 423 
Q 3463 -91 2816 -91 
Q 2450 -91 2169 54 
Q 1888 200 1656 506 
z
M 2400 2772 
Q 2041 2772 1848 2508 
Q 1656 2244 1656 1747 
Q 1656 1250 1848 986 
Q 2041 722 2400 722 
Q 2759 722 2948 984 
Q 3138 1247 3138 1747 
Q 3138 2247 2948 2509 
Q 2759 2772 2400 2772 
z
" transform="scale(0.015625)"/>
       <path id="DejaVuSans-Bold-6f" d="M 2203 2784 
Q 1831 2784 1636 2517 
Q 1441 2250 1441 1747 
Q 1441 1244 1636 976 
Q 1831 709 2203 709 
Q 2569 709 2762 976 
Q 2956 1244 2956 1747 
Q 2956 2250 2762 2517 
Q 2569 2784 2203 2784 
z
M 2203 3584 
Q 3106 3584 3614 3096 
Q 4122 2609 4122 1747 
Q 4122 884 3614 396 
Q 3106 -91 2203 -91 
Q 1297 -91 786 396 
Q 275 884 275 1747 
Q 275 2609 786 3096 
Q 1297 3584 2203 3584 
z
" transform="scale(0.015625)"/>
       <path id="DejaVuSans-Bold-6e" d="M 4056 2131 
L 4056 0 
L 2931 0 
L 2931 347 
L 2931 1631 
Q 2931 2084 2911 2256 
Q 2891 2428 2841 2509 
Q 2775 2619 2662 2680 
Q 2550 2741 2406 2741 
Q 2056 2741 1856 2470 
Q 1656 2200 1656 1722 
L 1656 0 
L 538 0 
L 538 3500 
L 1656 3500 
L 1656 2988 
Q 1909 3294 2193 3439 
Q 2478 3584 2822 3584 
Q 3428 3584 3742 3212 
Q 4056 2841 4056 2131 
z
" transform="scale(0.015625)"/>
       <path id="DejaVuSans-Bold-20" transform="scale(0.015625)"/>
       <path id="DejaVuSans-Bold-54" d="M 31 4666 
L 4331 4666 
L 4331 3756 
L 2784 3756 
L 2784 0 
L 1581 0 
L 1581 3756 
L 31 3756 
L 31 4666 
z
" transform="scale(0.015625)"/>
       <path id="DejaVuSans-Bold-69" d="M 538 3500 
L 1656 3500 
L 1656 0 
L 538 0 
L 538 3500 
z
M 538 4863 
L 1656 4863 
L 1656 3950 
L 538 3950 
L 538 4863 
z
" transform="scale(0.015625)"/>
       <path id="DejaVuSans-Bold-6d" d="M 3781 2919 
Q 3994 3244 4286 3414 
Q 4578 3584 4928 3584 
Q 5531 3584 5847 3212 
Q 6163 2841 6163 2131 
L 6163 0 
L 5038 0 
L 5038 1825 
Q 5041 1866 5042 1909 
Q 5044 1953 5044 2034 
Q 5044 2406 4934 2573 
Q 4825 2741 4581 2741 
Q 4263 2741 4089 2478 
Q 3916 2216 3909 1719 
L 3909 0 
L 2784 0 
L 2784 1825 
Q 2784 2406 2684 2573 
Q 2584 2741 2328 2741 
Q 2006 2741 1831 2477 
Q 1656 2213 1656 1722 
L 1656 0 
L 531 0 
L 531 3500 
L 1656 3500 
L 1656 2988 
Q 1863 3284 2130 3434 
Q 2397 3584 2719 3584 
Q 3081 3584 3359 3409 
Q 3638 3234 3781 2919 
z
" transform="scale(0.015625)"/>
       <path id="DejaVuSans-Bold-28" d="M 2413 -844 
L 1484 -844 
Q 1006 -72 778 623 
Q 550 1319 550 2003 
Q 550 2688 779 3389 
Q 1009 4091 1484 4856 
L 2413 4856 
Q 2013 4116 1813 3408 
Q 1613 2700 1613 2009 
Q 1613 1319 1811 609 
Q 2009 -100 2413 -844 
z
" transform="scale(0.015625)"/>
       <path id="DejaVuSans-Bold-63" d="M 3366 3391 
L 3366 2478 
Q 3138 2634 2908 2709 
Q 2678 2784 2431 2784 
Q 1963 2784 1702 2511 
Q 1441 2238 1441 1747 
Q 1441 1256 1702 982 
Q 1963 709 2431 709 
Q 2694 709 2930 787 
Q 3166 866 3366 1019 
L 3366 103 
Q 3103 6 2833 -42 
Q 2563 -91 2291 -91 
Q 1344 -91 809 395 
Q 275 881 275 1747 
Q 275 2613 809 3098 
Q 1344 3584 2291 3584 
Q 2566 3584 2833 3536 
Q 3100 3488 3366 3391 
z
" transform="scale(0.015625)"/>
       <path id="DejaVuSans-Bold-64" d="M 2919 2988 
L 2919 4863 
L 4044 4863 
L 4044 0 
L 2919 0 
L 2919 506 
Q 2688 197 2409 53 
Q 2131 -91 1766 -91 
Q 1119 -91 703 423 
Q 288 938 288 1747 
Q 288 2556 703 3070 
Q 1119 3584 1766 3584 
Q 2128 3584 2408 3439 
Q 2688 3294 2919 2988 
z
M 2181 722 
Q 2541 722 2730 984 
Q 2919 1247 2919 1747 
Q 2919 2247 2730 2509 
Q 2541 2772 2181 2772 
Q 1825 2772 1636 2509 
Q 1447 2247 1447 1747 
Q 1447 1247 1636 984 
Q 1825 722 2181 722 
z
" transform="scale(0.015625)"/>
       <path id="DejaVuSans-Bold-29" d="M 513 -844 
Q 913 -100 1113 609 
Q 1313 1319 1313 2009 
Q 1313 2700 1113 3408 
Q 913 4116 513 4856 
L 1441 4856 
Q 1916 4091 2145 3389 
Q 2375 2688 2375 2003 
Q 2375 1319 2147 623 
Q 1919 -72 1441 -844 
L 513 -844 
z
" transform="scale(0.015625)"/>
      </defs>
      <use xlink:href="#DejaVuSans-Bold-52"/>
      <use xlink:href="#DejaVuSans-Bold-65" transform="translate(77.001953 0)"/>
      <use xlink:href="#DejaVuSans-Bold-73" transform="translate(144.824219 0)"/>
      <use xlink:href="#DejaVuSans-Bold-70" transform="translate(204.345703 0)"/>
      <use xlink:href="#DejaVuSans-Bold-6f" transform="translate(275.927734 0)"/>
      <use xlink:href="#DejaVuSans-Bold-6e" transform="translate(344.628906 0)"/>
      <use xlink:href="#DejaVuSans-Bold-73" transform="translate(415.820312 0)"/>
      <use xlink:href="#DejaVuSans-Bold-65" transform="translate(475.341797 0)"/>
      <use xlink:href="#DejaVuSans-Bold-20" transform="translate(543.164062 0)"/>
      <use xlink:href="#DejaVuSans-Bold-54" transform="translate(577.978516 0)"/>
      <use xlink:href="#DejaVuSans-Bold-69" transform="translate(646.191406 0)"/>
      <use xlink:href="#DejaVuSans-Bold-6d" transform="translate(680.46875 0)"/>
      <use xlink:href="#DejaVuSans-Bold-65" transform="translate(784.667969 0)"/>
      <use xlink:href="#DejaVuSans-Bold-20" transform="translate(852.490234 0)"/>
      <use xlink:href="#DejaVuSans-Bold-28" transform="translate(887.304688 0)"/>
      <use xlink:href="#DejaVuSans-Bold-73" transform="translate(933.007812 0)"/>
      <use xlink:href="#DejaVuSans-Bold-65" transform="translate(992.529297 0)"/>
      <use xlink:href="#DejaVuSans-Bold-63" transform="translate(1060.351562 0)"/>
      <use xlink:href="#DejaVuSans-Bold-6f" transform="translate(1119.628906 0)"/>
      <use xlink:href="#DejaVuSans-Bold-6e" transform="translate(1188.330078 0)"/>
      <use xlink:href="#DejaVuSans-Bold-64" transform="translate(1259.521484 0)"/>
      <use xlink:href="#DejaVuSans-Bold-73" transform="translate(1331.103516 0)"/>
      <use xlink:href="#DejaVuSans-Bold-29" transform="translate(1390.625 0)"/>
     </g>
    </g>
   </g>
   <g id="matplotlib.axis_2">
    <g id="ytick_1">
     <g id="line2d_11">
      <defs>
       <path id="med494e7d41" d="M 0 0 
L -8 0 
" style="stroke: #f8fafc; stroke-width: 2"/>
      </defs>
      <g>
       <use xlink:href="#med494e7d41" x="129.9475" y="121.226093" style="fill: #f8fafc; stroke: #f8fafc; stroke-width: 2"/>
      </g>
     </g>
     <g id="text_7">
      <!-- VNX -->
      <g style="fill: #f8fafc" transform="translate(84.5725 127.304843) scale(0.16 -0.16)">
       <defs>
        <path id="DejaVuSans-56" d="M 1831 0 
L 50 4666 
L 709 4666 
L 2188 738 
L 3669 4666 
L 4325 4666 
L 2547 0 
L 1831 0 
z
" transform="scale(0.015625)"/>
        <path id="DejaVuSans-4e" d="M 628 4666 
L 1478 4666 
L 3547 763 
L 3547 4666 
L 4159 4666 
L 4159 0 
L 3309 0 
L 1241 3903 
L 1241 0 
L 628 0 
L 628 4666 
z
" transform="scale(0.015625)"/>
        <path id="DejaVuSans-58" d="M 403 4666 
L 1081 4666 
L 2241 2931 
L 3406 4666 
L 4084 4666 
L 2584 2425 
L 4184 0 
L 3506 0 
L 2194 1984 
L 872 0 
L 191 0 
L 1856 2491 
L 403 4666 
z
" transform="scale(0.015625)"/>
       </defs>
       <use xlink:href="#DejaVuSans-56"/>
       <use xlink:href="#DejaVuSans-4e" transform="translate(68.408203 0)"/>
       <use xlink:href="#DejaVuSans-58" transform="translate(143.212891 0)"/>
      </g>
     </g>
    </g>
    <g id="ytick_2">
     <g id="line2d_12">
      <g>
       <use xlink:href="#med494e7d41" x="129.9475" y="237.038859" style="fill: #f8fafc; stroke: #f8fafc; stroke-width: 2"/>
      </g>
     </g>
     <g id="text_8">
      <!-- ChatGPT -->
      <g style="fill: #f8fafc" transform="translate(49.24 243.117609) scale(0.16 -0.16)">
       <defs>
        <path id="DejaVuSans-43" d="M 4122 4306 
L 4122 3641 
Q 3803 3938 3442 4084 
Q 3081 4231 2675 4231 
Q 1875 4231 1450 3742 
Q 1025 3253 1025 2328 
Q 1025 1406 1450 917 
Q 1875 428 2675 428 
Q 3081 428 3442 575 
Q 3803 722 4122 1019 
L 4122 359 
Q 3791 134 3420 21 
Q 3050 -91 2638 -91 
Q 1578 -91 968 557 
Q 359 1206 359 2328 
Q 359 3453 968 4101 
Q 1578 4750 2638 4750 
Q 3056 4750 3426 4639 
Q 3797 4528 4122 4306 
z
" transform="scale(0.015625)"/>
        <path id="DejaVuSans-68" d="M 3513 2113 
L 3513 0 
L 2938 0 
L 2938 2094 
Q 2938 2591 2744 2837 
Q 2550 3084 2163 3084 
Q 1697 3084 1428 2787 
Q 1159 2491 1159 1978 
L 1159 0 
L 581 0 
L 581 4863 
L 1159 4863 
L 1159 2956 
Q 1366 3272 1645 3428 
Q 1925 3584 2291 3584 
Q 2894 3584 3203 3211 
Q 3513 2838 3513 2113 
z
" transform="scale(0.015625)"/>
        <path id="DejaVuSans-61" d="M 2194 1759 
Q 1497 1759 1228 1600 
Q 959 1441 959 1056 
Q 959 750 1161 570 
Q 1363 391 1709 391 
Q 2188 391 2477 730 
Q 2766 1069 2766 1631 
L 2766 1759 
L 2194 1759 
z
M 3341 1997 
L 3341 0 
L 2766 0 
L 2766 531 
Q 2569 213 2275 61 
Q 1981 -91 1556 -91 
Q 1019 -91 701 211 
Q 384 513 384 1019 
Q 384 1609 779 1909 
Q 1175 2209 1959 2209 
L 2766 2209 
L 2766 2266 
Q 2766 2663 2505 2880 
Q 2244 3097 1772 3097 
Q 1472 3097 1187 3025 
Q 903 2953 641 2809 
L 641 3341 
Q 956 3463 1253 3523 
Q 1550 3584 1831 3584 
Q 2591 3584 2966 3190 
Q 3341 2797 3341 1997 
z
" transform="scale(0.015625)"/>
        <path id="DejaVuSans-74" d="M 1172 4494 
L 1172 3500 
L 2356 3500 
L 2356 3053 
L 1172 3053 
L 1172 1153 
Q 1172 725 1289 603 
Q 1406 481 1766 481 
L 2356 481 
L 2356 0 
L 1766 0 
Q 1100 0 847 248 
Q 594 497 594 1153 
L 594 3053 
L 172 3053 
L 172 3500 
L 594 3500 
L 594 4494 
L 1172 4494 
z
" transform="scale(0.015625)"/>
        <path id="DejaVuSans-47" d="M 3809 666 
L 3809 1919 
L 2778 1919 
L 2778 2438 
L 4434 2438 
L 4434 434 
Q 4069 175 3628 42 
Q 3188 -91 2688 -91 
Q 1594 -91 976 548 
Q 359 1188 359 2328 
Q 359 3472 976 4111 
Q 1594 4750 2688 4750 
Q 3144 4750 3555 4637 
Q 3966 4525 4313 4306 
L 4313 3634 
Q 3963 3931 3569 4081 
Q 3175 4231 2741 4231 
Q 1884 4231 1454 3753 
Q 1025 3275 1025 2328 
Q 1025 1384 1454 906 
Q 1884 428 2741 428 
Q 3075 428 3337 486 
Q 3600 544 3809 666 
z
" transform="scale(0.015625)"/>
        <path id="DejaVuSans-50" d="M 1259 4147 
L 1259 2394 
L 2053 2394 
Q 2494 2394 2734 2622 
Q 2975 2850 2975 3272 
Q 2975 3691 2734 3919 
Q 2494 4147 2053 4147 
L 1259 4147 
z
M 628 4666 
L 2053 4666 
Q 2838 4666 3239 4311 
Q 3641 3956 3641 3272 
Q 3641 2581 3239 2228 
Q 2838 1875 2053 1875 
L 1259 1875 
L 1259 0 
L 628 0 
L 628 4666 
z
" transform="scale(0.015625)"/>
        <path id="DejaVuSans-54" d="M -19 4666 
L 3928 4666 
L 3928 4134 
L 2272 4134 
L 2272 0 
L 1638 0 
L 1638 4134 
L -19 4134 
L -19 4666 
z
" transform="scale(0.015625)"/>
       </defs>
       <use xlink:href="#DejaVuSans-43"/>
       <use xlink:href="#DejaVuSans-68" transform="translate(69.824219 0)"/>
       <use xlink:href="#DejaVuSans-61" transform="translate(133.203125 0)"/>
       <use xlink:href="#DejaVuSans-74" transform="translate(194.482422 0)"/>
       <use xlink:href="#DejaVuSans-47" transform="translate(233.691406 0)"/>
       <use xlink:href="#DejaVuSans-50" transform="translate(311.181641 0)"/>
       <use xlink:href="#DejaVuSans-54" transform="translate(371.484375 0)"/>
      </g>
     </g>
    </g>
    <g id="ytick_3">
     <g id="line2d_13">
      <g>
       <use xlink:href="#med494e7d41" x="129.9475" y="352.851625" style="fill: #f8fafc; stroke: #f8fafc; stroke-width: 2"/>
      </g>
     </g>
     <g id="text_9">
      <!-- Claude -->
      <g style="fill: #f8fafc" transform="translate(62.8825 358.930375) scale(0.16 -0.16)">
       <defs>
        <path id="DejaVuSans-6c" d="M 603 4863 
L 1178 4863 
L 1178 0 
L 603 0 
L 603 4863 
z
" transform="scale(0.015625)"/>
        <path id="DejaVuSans-75" d="M 544 1381 
L 544 3500 
L 1119 3500 
L 1119 1403 
Q 1119 906 1312 657 
Q 1506 409 1894 409 
Q 2359 409 2629 706 
Q 2900 1003 2900 1516 
L 2900 3500 
L 3475 3500 
L 3475 0 
L 2900 0 
L 2900 538 
Q 2691 219 2414 64 
Q 2138 -91 1772 -91 
Q 1169 -91 856 284 
Q 544 659 544 1381 
z
M 1991 3584 
L 1991 3584 
z
" transform="scale(0.015625)"/>
        <path id="DejaVuSans-64" d="M 2906 2969 
L 2906 4863 
L 3481 4863 
L 3481 0 
L 2906 0 
L 2906 525 
Q 2725 213 2448 61 
Q 2172 -91 1784 -91 
Q 1150 -91 751 415 
Q 353 922 353 1747 
Q 353 2572 751 3078 
Q 1150 3584 1784 3584 
Q 2172 3584 2448 3432 
Q 2725 3281 2906 2969 
z
M 947 1747 
Q 947 1113 1208 752 
Q 1469 391 1925 391 
Q 2381 391 2643 752 
Q 2906 1113 2906 1747 
Q 2906 2381 2643 2742 
Q 2381 3103 1925 3103 
Q 1469 3103 1208 2742 
Q 947 2381 947 1747 
z
" transform="scale(0.015625)"/>
        <path id="DejaVuSans-65" d="M 3597 1894 
L 3597 1613 
L 953 1613 
Q 991 1019 1311 708 
Q 1631 397 2203 397 
Q 2534 397 2845 478 
Q 3156 559 3463 722 
L 3463 178 
Q 3153 47 2828 -22 
Q 2503 -91 2169 -91 
Q 1331 -91 842 396 
Q 353 884 353 1716 
Q 353 2575 817 3079 
Q 1281 3584 2069 3584 
Q 2775 3584 3186 3129 
Q 3597 2675 3597 1894 
z
M 3022 2063 
Q 3016 2534 2758 2815 
Q 2500 3097 2075 3097 
Q 1594 3097 1305 2825 
Q 1016 2553 972 2059 
L 3022 2063 
z
" transform="scale(0.015625)"/>
       </defs>
       <use xlink:href="#DejaVuSans-43"/>
       <use xlink:href="#DejaVuSans-6c" transform="translate(69.824219 0)"/>
       <use xlink:href="#DejaVuSans-61" transform="translate(97.607422 0)"/>
       <use xlink:href="#DejaVuSans-75" transform="translate(158.886719 0)"/>
       <use xlink:href="#DejaVuSans-64" transform="translate(222.265625 0)"/>
       <use xlink:href="#DejaVuSans-65" transform="translate(285.742188 0)"/>
      </g>
     </g>
    </g>
    <g id="ytick_4">
     <g id="line2d_14">
      <g>
       <use xlink:href="#med494e7d41" x="129.9475" y="468.664391" style="fill: #f8fafc; stroke: #f8fafc; stroke-width: 2"/>
      </g>
     </g>
     <g id="text_10">
      <!-- Gemini -->
      <g style="fill: #f8fafc" transform="translate(61.59 474.743141) scale(0.16 -0.16)">
       <defs>
        <path id="DejaVuSans-6d" d="M 3328 2828 
Q 3544 3216 3844 3400 
Q 4144 3584 4550 3584 
Q 5097 3584 5394 3201 
Q 5691 2819 5691 2113 
L 5691 0 
L 5113 0 
L 5113 2094 
Q 5113 2597 4934 2840 
Q 4756 3084 4391 3084 
Q 3944 3084 3684 2787 
Q 3425 2491 3425 1978 
L 3425 0 
L 2847 0 
L 2847 2094 
Q 2847 2600 2669 2842 
Q 2491 3084 2119 3084 
Q 1678 3084 1418 2786 
Q 1159 2488 1159 1978 
L 1159 0 
L 581 0 
L 581 3500 
L 1159 3500 
L 1159 2956 
Q 1356 3278 1631 3431 
Q 1906 3584 2284 3584 
Q 2666 3584 2933 3390 
Q 3200 3197 3328 2828 
z
" transform="scale(0.015625)"/>
        <path id="DejaVuSans-69" d="M 603 3500 
L 1178 3500 
L 1178 0 
L 603 0 
L 603 3500 
z
M 603 4863 
L 1178 4863 
L 1178 4134 
L 603 4134 
L 603 4863 
z
" transform="scale(0.015625)"/>
        <path id="DejaVuSans-6e" d="M 3513 2113 
L 3513 0 
L 2938 0 
L 2938 2094 
Q 2938 2591 2744 2837 
Q 2550 3084 2163 3084 
Q 1697 3084 1428 2787 
Q 1159 2491 1159 1978 
L 1159 0 
L 581 0 
L 581 3500 
L 1159 3500 
L 1159 2956 
Q 1366 3272 1645 3428 
Q 1925 3584 2291 3584 
Q 2894 3584 3203 3211 
Q 3513 2838 3513 2113 
z
" transform="scale(0.015625)"/>
       </defs>
       <use xlink:href="#DejaVuSans-47"/>
       <use xlink:href="#DejaVuSans-65" transform="translate(77.490234 0)"/>
       <use xlink:href="#DejaVuSans-6d" transform="translate(139.013672 0)"/>
       <use xlink:href="#DejaVuSans-69" transform="translate(236.425781 0)"/>
       <use xlink:href="#DejaVuSans-6e" transform="translate(264.208984 0)"/>
       <use xlink:href="#DejaVuSans-69" transform="translate(327.587891 0)"/>
      </g>
     </g>
    </g>
    <g id="ytick_5">
     <g id="line2d_15">
      <g>
       <use xlink:href="#med494e7d41" x="129.9475" y="584.477157" style="fill: #f8fafc; stroke: #f8fafc; stroke-width: 2"/>
      </g>
     </g>
     <g id="text_11">
      <!-- Specialized AI -->
      <g style="fill: #f8fafc" transform="translate(7.2 590.555907) scale(0.16 -0.16)">
       <defs>
        <path id="DejaVuSans-53" d="M 3425 4513 
L 3425 3897 
Q 3066 4069 2747 4153 
Q 2428 4238 2131 4238 
Q 1616 4238 1336 4038 
Q 1056 3838 1056 3469 
Q 1056 3159 1242 3001 
Q 1428 2844 1947 2747 
L 2328 2669 
Q 3034 2534 3370 2195 
Q 3706 1856 3706 1288 
Q 3706 609 3251 259 
Q 2797 -91 1919 -91 
Q 1588 -91 1214 -16 
Q 841 59 441 206 
L 441 856 
Q 825 641 1194 531 
Q 1563 422 1919 422 
Q 2459 422 2753 634 
Q 3047 847 3047 1241 
Q 3047 1584 2836 1778 
Q 2625 1972 2144 2069 
L 1759 2144 
Q 1053 2284 737 2584 
Q 422 2884 422 3419 
Q 422 4038 858 4394 
Q 1294 4750 2059 4750 
Q 2388 4750 2728 4690 
Q 3069 4631 3425 4513 
z
" transform="scale(0.015625)"/>
        <path id="DejaVuSans-70" d="M 1159 525 
L 1159 -1331 
L 581 -1331 
L 581 3500 
L 1159 3500 
L 1159 2969 
Q 1341 3281 1617 3432 
Q 1894 3584 2278 3584 
Q 2916 3584 3314 3078 
Q 3713 2572 3713 1747 
Q 3713 922 3314 415 
Q 2916 -91 2278 -91 
Q 1894 -91 1617 61 
Q 1341 213 1159 525 
z
M 3116 1747 
Q 3116 2381 2855 2742 
Q 2594 3103 2138 3103 
Q 1681 3103 1420 2742 
Q 1159 2381 1159 1747 
Q 1159 1113 1420 752 
Q 1681 391 2138 391 
Q 2594 391 2855 752 
Q 3116 1113 3116 1747 
z
" transform="scale(0.015625)"/>
        <path id="DejaVuSans-63" d="M 3122 3366 
L 3122 2828 
Q 2878 2963 2633 3030 
Q 2388 3097 2138 3097 
Q 1578 3097 1268 2742 
Q 959 2388 959 1747 
Q 959 1106 1268 751 
Q 1578 397 2138 397 
Q 2388 397 2633 464 
Q 2878 531 3122 666 
L 3122 134 
Q 2881 22 2623 -34 
Q 2366 -91 2075 -91 
Q 1284 -91 818 406 
Q 353 903 353 1747 
Q 353 2603 823 3093 
Q 1294 3584 2113 3584 
Q 2378 3584 2631 3529 
Q 2884 3475 3122 3366 
z
" transform="scale(0.015625)"/>
        <path id="DejaVuSans-7a" d="M 353 3500 
L 3084 3500 
L 3084 2975 
L 922 459 
L 3084 459 
L 3084 0 
L 275 0 
L 275 525 
L 2438 3041 
L 353 3041 
L 353 3500 
z
" transform="scale(0.015625)"/>
        <path id="DejaVuSans-20" transform="scale(0.015625)"/>
        <path id="DejaVuSans-41" d="M 2188 4044 
L 1331 1722 
L 3047 1722 
L 2188 4044 
z
M 1831 4666 
L 2547 4666 
L 4325 0 
L 3669 0 
L 3244 1197 
L 1141 1197 
L 716 0 
L 50 0 
L 1831 4666 
z
" transform="scale(0.015625)"/>
        <path id="DejaVuSans-49" d="M 628 4666 
L 1259 4666 
L 1259 0 
L 628 0 
L 628 4666 
z
" transform="scale(0.015625)"/>
       </defs>
       <use xlink:href="#DejaVuSans-53"/>
       <use xlink:href="#DejaVuSans-70" transform="translate(63.476562 0)"/>
       <use xlink:href="#DejaVuSans-65" transform="translate(126.953125 0)"/>
       <use xlink:href="#DejaVuSans-63" transform="translate(188.476562 0)"/>
       <use xlink:href="#DejaVuSans-69" transform="translate(243.457031 0)"/>
       <use xlink:href="#DejaVuSans-61" transform="translate(271.240234 0)"/>
       <use xlink:href="#DejaVuSans-6c" transform="translate(332.519531 0)"/>
       <use xlink:href="#DejaVuSans-69" transform="translate(360.302734 0)"/>
       <use xlink:href="#DejaVuSans-7a" transform="translate(388.085938 0)"/>
       <use xlink:href="#DejaVuSans-65" transform="translate(440.576172 0)"/>
       <use xlink:href="#DejaVuSans-64" transform="translate(502.099609 0)"/>
       <use xlink:href="#DejaVuSans-20" transform="translate(565.576172 0)"/>
       <use xlink:href="#DejaVuSans-41" transform="translate(597.363281 0)"/>
       <use xlink:href="#DejaVuSans-49" transform="translate(665.771484 0)"/>
      </g>
     </g>
    </g>
   </g>
   <g id="patch_8">
    <path d="M 129.9475 652.227625 
L 129.9475 53.475625 
" style="fill: none; stroke: #334155; stroke-width: 1.5; stroke-linejoin: miter; stroke-linecap: square"/>
   </g>
   <g id="patch_9">
    <path d="M 1201.3075 652.227625 
L 1201.3075 53.475625 
" style="fill: none; stroke: #334155; stroke-width: 1.5; stroke-linejoin: miter; stroke-linecap: square"/>
   </g>
   <g id="patch_10">
    <path d="M 129.9475 652.227625 
L 1201.3075 652.227625 
" style="fill: none; stroke: #334155; stroke-width: 1.5; stroke-linejoin: miter; stroke-linecap: square"/>
   </g>
   <g id="patch_11">
    <path d="M 129.9475 53.475625 
L 1201.3075 53.475625 
" style="fill: none; stroke: #334155; stroke-width: 1.5; stroke-linejoin: miter; stroke-linecap: square"/>
   </g>
   <g id="text_12">
    <!-- 0.55s -->
    <g style="fill: #ffd700" transform="translate(423.406978 125.641093) scale(0.16 -0.16)">
     <defs>
      <path id="DejaVuSans-Bold-30" d="M 2944 2338 
Q 2944 3213 2780 3570 
Q 2616 3928 2228 3928 
Q 1841 3928 1675 3570 
Q 1509 3213 1509 2338 
Q 1509 1453 1675 1090 
Q 1841 728 2228 728 
Q 2613 728 2778 1090 
Q 2944 1453 2944 2338 
z
M 4147 2328 
Q 4147 1169 3647 539 
Q 3147 -91 2228 -91 
Q 1306 -91 806 539 
Q 306 1169 306 2328 
Q 306 3491 806 4120 
Q 1306 4750 2228 4750 
Q 3147 4750 3647 4120 
Q 4147 3491 4147 2328 
z
" transform="scale(0.015625)"/>
      <path id="DejaVuSans-Bold-2e" d="M 653 1209 
L 1778 1209 
L 1778 0 
L 653 0 
L 653 1209 
z
" transform="scale(0.015625)"/>
      <path id="DejaVuSans-Bold-35" d="M 678 4666 
L 3669 4666 
L 3669 3781 
L 1638 3781 
L 1638 3059 
Q 1775 3097 1914 3117 
Q 2053 3138 2203 3138 
Q 3056 3138 3531 2711 
Q 4006 2284 4006 1522 
Q 4006 766 3489 337 
Q 2972 -91 2053 -91 
Q 1656 -91 1267 -14 
Q 878 63 494 219 
L 494 1166 
Q 875 947 1217 837 
Q 1559 728 1863 728 
Q 2300 728 2551 942 
Q 2803 1156 2803 1522 
Q 2803 1891 2551 2103 
Q 2300 2316 1863 2316 
Q 1603 2316 1309 2248 
Q 1016 2181 678 2041 
L 678 4666 
z
" transform="scale(0.015625)"/>
     </defs>
     <use xlink:href="#DejaVuSans-Bold-30"/>
     <use xlink:href="#DejaVuSans-Bold-2e" transform="translate(69.580078 0)"/>
     <use xlink:href="#DejaVuSans-Bold-35" transform="translate(107.568359 0)"/>
     <use xlink:href="#DejaVuSans-Bold-35" transform="translate(177.148438 0)"/>
     <use xlink:href="#DejaVuSans-Bold-73" transform="translate(246.728516 0)"/>
    </g>
   </g>
   <g id="text_13">
    <!-- 1.2s -->
    <g style="fill: #f8fafc" transform="translate(726.18263 241.453859) scale(0.16 -0.16)">
     <defs>
      <path id="DejaVuSans-73" d="M 2834 3397 
L 2834 2853 
Q 2591 2978 2328 3040 
Q 2066 3103 1784 3103 
Q 1356 3103 1142 2972 
Q 928 2841 928 2578 
Q 928 2378 1081 2264 
Q 1234 2150 1697 2047 
L 1894 2003 
Q 2506 1872 2764 1633 
Q 3022 1394 3022 966 
Q 3022 478 2636 193 
Q 2250 -91 1575 -91 
Q 1294 -91 989 -36 
Q 684 19 347 128 
L 347 722 
Q 666 556 975 473 
Q 1284 391 1588 391 
Q 1994 391 2212 530 
Q 2431 669 2431 922 
Q 2431 1156 2273 1281 
Q 2116 1406 1581 1522 
L 1381 1569 
Q 847 1681 609 1914 
Q 372 2147 372 2553 
Q 372 3047 722 3315 
Q 1072 3584 1716 3584 
Q 2034 3584 2315 3537 
Q 2597 3491 2834 3397 
z
" transform="scale(0.015625)"/>
     </defs>
     <use xlink:href="#DejaVuSans-31"/>
     <use xlink:href="#DejaVuSans-2e" transform="translate(63.623047 0)"/>
     <use xlink:href="#DejaVuSans-32" transform="translate(95.410156 0)"/>
     <use xlink:href="#DejaVuSans-73" transform="translate(159.033203 0)"/>
    </g>
   </g>
   <g id="text_14">
    <!-- 1.0s -->
    <g style="fill: #f8fafc" transform="translate(633.020891 357.266625) scale(0.16 -0.16)">
     <use xlink:href="#DejaVuSans-31"/>
     <use xlink:href="#DejaVuSans-2e" transform="translate(63.623047 0)"/>
     <use xlink:href="#DejaVuSans-30" transform="translate(95.410156 0)"/>
     <use xlink:href="#DejaVuSans-73" transform="translate(159.033203 0)"/>
    </g>
   </g>
   <g id="text_15">
    <!-- 0.8s -->
    <g style="fill: #f8fafc" transform="translate(539.859152 473.079391) scale(0.16 -0.16)">
     <defs>
      <path id="DejaVuSans-38" d="M 2034 2216 
Q 1584 2216 1326 1975 
Q 1069 1734 1069 1313 
Q 1069 891 1326 650 
Q 1584 409 2034 409 
Q 2484 409 2743 651 
Q 3003 894 3003 1313 
Q 3003 1734 2745 1975 
Q 2488 2216 2034 2216 
z
M 1403 2484 
Q 997 2584 770 2862 
Q 544 3141 544 3541 
Q 544 4100 942 4425 
Q 1341 4750 2034 4750 
Q 2731 4750 3128 4425 
Q 3525 4100 3525 3541 
Q 3525 3141 3298 2862 
Q 3072 2584 2669 2484 
Q 3125 2378 3379 2068 
Q 3634 1759 3634 1313 
Q 3634 634 3220 271 
Q 2806 -91 2034 -91 
Q 1263 -91 848 271 
Q 434 634 434 1313 
Q 434 1759 690 2068 
Q 947 2378 1403 2484 
z
M 1172 3481 
Q 1172 3119 1398 2916 
Q 1625 2713 2034 2713 
Q 2441 2713 2670 2916 
Q 2900 3119 2900 3481 
Q 2900 3844 2670 4047 
Q 2441 4250 2034 4250 
Q 1625 4250 1398 4047 
Q 1172 3844 1172 3481 
z
" transform="scale(0.015625)"/>
     </defs>
     <use xlink:href="#DejaVuSans-30"/>
     <use xlink:href="#DejaVuSans-2e" transform="translate(63.623047 0)"/>
     <use xlink:href="#DejaVuSans-38" transform="translate(95.410156 0)"/>
     <use xlink:href="#DejaVuSans-73" transform="translate(159.033203 0)"/>
    </g>
   </g>
   <g id="text_16">
    <!-- 2.0s -->
    <g style="fill: #f8fafc" transform="translate(1098.829587 588.892157) scale(0.16 -0.16)">
     <use xlink:href="#DejaVuSans-32"/>
     <use xlink:href="#DejaVuSans-2e" transform="translate(63.623047 0)"/>
     <use xlink:href="#DejaVuSans-30" transform="translate(95.410156 0)"/>
     <use xlink:href="#DejaVuSans-73" transform="translate(159.033203 0)"/>
    </g>
   </g>
   <g id="text_17">
    <g id="patch_12">
     <path d="M 507.306562 116.951098 
L 823.948437 116.951098 
Q 834.948437 116.951098 834.948437 105.951098 
L 834.948437 84.659223 
Q 834.948437 73.659223 823.948437 73.659223 
L 507.306562 73.659223 
Q 496.306562 73.659223 496.306562 84.659223 
L 496.306562 105.951098 
Q 496.306562 116.951098 507.306562 116.951098 
z
" style="fill: #1e293b; stroke: #ffd700; stroke-width: 2; stroke-linejoin: miter"/>
    </g>
    <!-- 54% Faster than ChatGPT -->
    <g style="fill: #ffd700" transform="translate(507.306562 101.375785) scale(0.22 -0.22)">
     <defs>
      <path id="DejaVuSans-Bold-34" d="M 2356 3675 
L 1038 1722 
L 2356 1722 
L 2356 3675 
z
M 2156 4666 
L 3494 4666 
L 3494 1722 
L 4159 1722 
L 4159 850 
L 3494 850 
L 3494 0 
L 2356 0 
L 2356 850 
L 288 850 
L 288 1881 
L 2156 4666 
z
" transform="scale(0.015625)"/>
      <path id="DejaVuSans-Bold-25" d="M 4959 1925 
Q 4738 1925 4616 1733 
Q 4494 1541 4494 1184 
Q 4494 825 4614 633 
Q 4734 441 4959 441 
Q 5184 441 5303 633 
Q 5422 825 5422 1184 
Q 5422 1541 5301 1733 
Q 5181 1925 4959 1925 
z
M 4959 2450 
Q 5541 2450 5875 2112 
Q 6209 1775 6209 1184 
Q 6209 594 5875 251 
Q 5541 -91 4959 -91 
Q 4378 -91 4042 251 
Q 3706 594 3706 1184 
Q 3706 1772 4042 2111 
Q 4378 2450 4959 2450 
z
M 2094 -91 
L 1403 -91 
L 4319 4750 
L 5013 4750 
L 2094 -91 
z
M 1453 4750 
Q 2034 4750 2367 4411 
Q 2700 4072 2700 3481 
Q 2700 2891 2367 2550 
Q 2034 2209 1453 2209 
Q 872 2209 539 2550 
Q 206 2891 206 3481 
Q 206 4072 539 4411 
Q 872 4750 1453 4750 
z
M 1453 4225 
Q 1228 4225 1106 4031 
Q 984 3838 984 3481 
Q 984 3122 1106 2926 
Q 1228 2731 1453 2731 
Q 1678 2731 1798 2926 
Q 1919 3122 1919 3481 
Q 1919 3838 1797 4031 
Q 1675 4225 1453 4225 
z
" transform="scale(0.015625)"/>
      <path id="DejaVuSans-Bold-46" d="M 588 4666 
L 3834 4666 
L 3834 3756 
L 1791 3756 
L 1791 2888 
L 3713 2888 
L 3713 1978 
L 1791 1978 
L 1791 0 
L 588 0 
L 588 4666 
z
" transform="scale(0.015625)"/>
      <path id="DejaVuSans-Bold-61" d="M 2106 1575 
Q 1756 1575 1579 1456 
Q 1403 1338 1403 1106 
Q 1403 894 1545 773 
Q 1688 653 1941 653 
Q 2256 653 2472 879 
Q 2688 1106 2688 1447 
L 2688 1575 
L 2106 1575 
z
M 3816 1997 
L 3816 0 
L 2688 0 
L 2688 519 
Q 2463 200 2181 54 
Q 1900 -91 1497 -91 
Q 953 -91 614 226 
Q 275 544 275 1050 
Q 275 1666 698 1953 
Q 1122 2241 2028 2241 
L 2688 2241 
L 2688 2328 
Q 2688 2594 2478 2717 
Q 2269 2841 1825 2841 
Q 1466 2841 1156 2769 
Q 847 2697 581 2553 
L 581 3406 
Q 941 3494 1303 3539 
Q 1666 3584 2028 3584 
Q 2975 3584 3395 3211 
Q 3816 2838 3816 1997 
z
" transform="scale(0.015625)"/>
      <path id="DejaVuSans-Bold-74" d="M 1759 4494 
L 1759 3500 
L 2913 3500 
L 2913 2700 
L 1759 2700 
L 1759 1216 
Q 1759 972 1856 886 
Q 1953 800 2241 800 
L 2816 800 
L 2816 0 
L 1856 0 
Q 1194 0 917 276 
Q 641 553 641 1216 
L 641 2700 
L 84 2700 
L 84 3500 
L 641 3500 
L 641 4494 
L 1759 4494 
z
" transform="scale(0.015625)"/>
      <path id="DejaVuSans-Bold-72" d="M 3138 2547 
Q 2991 2616 2845 2648 
Q 2700 2681 2553 2681 
Q 2122 2681 1889 2404 
Q 1656 2128 1656 1613 
L 1656 0 
L 538 0 
L 538 3500 
L 1656 3500 
L 1656 2925 
Q 1872 3269 2151 3426 
Q 2431 3584 2822 3584 
Q 2878 3584 2943 3579 
Q 3009 3575 3134 3559 
L 3138 2547 
z
" transform="scale(0.015625)"/>
      <path id="DejaVuSans-Bold-68" d="M 4056 2131 
L 4056 0 
L 2931 0 
L 2931 347 
L 2931 1625 
Q 2931 2084 2911 2256 
Q 2891 2428 2841 2509 
Q 2775 2619 2662 2680 
Q 2550 2741 2406 2741 
Q 2056 2741 1856 2470 
Q 1656 2200 1656 1722 
L 1656 0 
L 538 0 
L 538 4863 
L 1656 4863 
L 1656 2988 
Q 1909 3294 2193 3439 
Q 2478 3584 2822 3584 
Q 3428 3584 3742 3212 
Q 4056 2841 4056 2131 
z
" transform="scale(0.015625)"/>
      <path id="DejaVuSans-Bold-43" d="M 4288 256 
Q 3956 84 3597 -3 
Q 3238 -91 2847 -91 
Q 1681 -91 1000 561 
Q 319 1213 319 2328 
Q 319 3447 1000 4098 
Q 1681 4750 2847 4750 
Q 3238 4750 3597 4662 
Q 3956 4575 4288 4403 
L 4288 3438 
Q 3953 3666 3628 3772 
Q 3303 3878 2944 3878 
Q 2300 3878 1931 3465 
Q 1563 3053 1563 2328 
Q 1563 1606 1931 1193 
Q 2300 781 2944 781 
Q 3303 781 3628 887 
Q 3953 994 4288 1222 
L 4288 256 
z
" transform="scale(0.015625)"/>
      <path id="DejaVuSans-Bold-47" d="M 4781 347 
Q 4331 128 3847 18 
Q 3363 -91 2847 -91 
Q 1681 -91 1000 561 
Q 319 1213 319 2328 
Q 319 3456 1012 4103 
Q 1706 4750 2913 4750 
Q 3378 4750 3804 4662 
Q 4231 4575 4609 4403 
L 4609 3438 
Q 4219 3659 3833 3768 
Q 3447 3878 3059 3878 
Q 2341 3878 1952 3476 
Q 1563 3075 1563 2328 
Q 1563 1588 1938 1184 
Q 2313 781 3003 781 
Q 3191 781 3352 804 
Q 3513 828 3641 878 
L 3641 1784 
L 2906 1784 
L 2906 2591 
L 4781 2591 
L 4781 347 
z
" transform="scale(0.015625)"/>
      <path id="DejaVuSans-Bold-50" d="M 588 4666 
L 2584 4666 
Q 3475 4666 3951 4270 
Q 4428 3875 4428 3144 
Q 4428 2409 3951 2014 
Q 3475 1619 2584 1619 
L 1791 1619 
L 1791 0 
L 588 0 
L 588 4666 
z
M 1791 3794 
L 1791 2491 
L 2456 2491 
Q 2806 2491 2997 2661 
Q 3188 2831 3188 3144 
Q 3188 3456 2997 3625 
Q 2806 3794 2456 3794 
L 1791 3794 
z
" transform="scale(0.015625)"/>
     </defs>
     <use xlink:href="#DejaVuSans-Bold-35"/>
     <use xlink:href="#DejaVuSans-Bold-34" transform="translate(69.580078 0)"/>
     <use xlink:href="#DejaVuSans-Bold-25" transform="translate(139.160156 0)"/>
     <use xlink:href="#DejaVuSans-Bold-20" transform="translate(239.355469 0)"/>
     <use xlink:href="#DejaVuSans-Bold-46" transform="translate(274.169922 0)"/>
     <use xlink:href="#DejaVuSans-Bold-61" transform="translate(336.605469 0)"/>
     <use xlink:href="#DejaVuSans-Bold-73" transform="translate(404.085938 0)"/>
     <use xlink:href="#DejaVuSans-Bold-74" transform="translate(463.607422 0)"/>
     <use xlink:href="#DejaVuSans-Bold-65" transform="translate(511.410156 0)"/>
     <use xlink:href="#DejaVuSans-Bold-72" transform="translate(579.232422 0)"/>
     <use xlink:href="#DejaVuSans-Bold-20" transform="translate(628.548828 0)"/>
     <use xlink:href="#DejaVuSans-Bold-74" transform="translate(663.363281 0)"/>
     <use xlink:href="#DejaVuSans-Bold-68" transform="translate(711.166016 0)"/>
     <use xlink:href="#DejaVuSans-Bold-61" transform="translate(782.357422 0)"/>
     <use xlink:href="#DejaVuSans-Bold-6e" transform="translate(849.837891 0)"/>
     <use xlink:href="#DejaVuSans-Bold-20" transform="translate(921.029297 0)"/>
     <use xlink:href="#DejaVuSans-Bold-43" transform="translate(955.84375 0)"/>
     <use xlink:href="#DejaVuSans-Bold-68" transform="translate(1029.232422 0)"/>
     <use xlink:href="#DejaVuSans-Bold-61" transform="translate(1100.423828 0)"/>
     <use xlink:href="#DejaVuSans-Bold-74" transform="translate(1167.904297 0)"/>
     <use xlink:href="#DejaVuSans-Bold-47" transform="translate(1215.707031 0)"/>
     <use xlink:href="#DejaVuSans-Bold-50" transform="translate(1297.787109 0)"/>
     <use xlink:href="#DejaVuSans-Bold-54" transform="translate(1371.078125 0)"/>
    </g>
   </g>
   <g id="text_18">
    <g id="patch_13">
     <path d="M 430.55 629.510963 
L 900.705 629.510963 
Q 904.905 629.510963 904.905 625.310962 
L 904.905 611.652212 
Q 904.905 607.452212 900.705 607.452212 
L 430.55 607.452212 
Q 426.35 607.452212 426.35 611.652212 
L 426.35 625.310962 
Q 426.35 629.510963 430.55 629.510963 
z
" style="fill: #1e293b; stroke: #7a828e; stroke-width: 2; stroke-linejoin: miter"/>
    </g>
    <!-- Source: vera-vs-ai-benchmark-report.json (March 26, 2026) -->
    <g style="fill: #7a828e" transform="translate(430.55 622.290025) scale(0.14 -0.14)">
     <defs>
      <path id="DejaVuSans-Bold-53" d="M 3834 4519 
L 3834 3531 
Q 3450 3703 3084 3790 
Q 2719 3878 2394 3878 
Q 1963 3878 1756 3759 
Q 1550 3641 1550 3391 
Q 1550 3203 1689 3098 
Q 1828 2994 2194 2919 
L 2706 2816 
Q 3484 2659 3812 2340 
Q 4141 2022 4141 1434 
Q 4141 663 3683 286 
Q 3225 -91 2284 -91 
Q 1841 -91 1394 -6 
Q 947 78 500 244 
L 500 1259 
Q 947 1022 1364 901 
Q 1781 781 2169 781 
Q 2563 781 2772 912 
Q 2981 1044 2981 1288 
Q 2981 1506 2839 1625 
Q 2697 1744 2272 1838 
L 1806 1941 
Q 1106 2091 782 2419 
Q 459 2747 459 3303 
Q 459 4000 909 4375 
Q 1359 4750 2203 4750 
Q 2588 4750 2994 4692 
Q 3400 4634 3834 4519 
z
" transform="scale(0.015625)"/>
      <path id="DejaVuSans-Bold-75" d="M 500 1363 
L 500 3500 
L 1625 3500 
L 1625 3150 
Q 1625 2866 1622 2436 
Q 1619 2006 1619 1863 
Q 1619 1441 1641 1255 
Q 1663 1069 1716 984 
Q 1784 875 1895 815 
Q 2006 756 2150 756 
Q 2500 756 2700 1025 
Q 2900 1294 2900 1772 
L 2900 3500 
L 4019 3500 
L 4019 0 
L 2900 0 
L 2900 506 
Q 2647 200 2364 54 
Q 2081 -91 1741 -91 
Q 1134 -91 817 281 
Q 500 653 500 1363 
z
" transform="scale(0.015625)"/>
      <path id="DejaVuSans-Bold-3a" d="M 716 3500 
L 1844 3500 
L 1844 2291 
L 716 2291 
L 716 3500 
z
M 716 1209 
L 1844 1209 
L 1844 0 
L 716 0 
L 716 1209 
z
" transform="scale(0.015625)"/>
      <path id="DejaVuSans-Bold-76" d="M 97 3500 
L 1216 3500 
L 2088 1081 
L 2956 3500 
L 4078 3500 
L 2700 0 
L 1472 0 
L 97 3500 
z
" transform="scale(0.015625)"/>
      <path id="DejaVuSans-Bold-2d" d="M 347 2297 
L 2309 2297 
L 2309 1388 
L 347 1388 
L 347 2297 
z
" transform="scale(0.015625)"/>
      <path id="DejaVuSans-Bold-62" d="M 2400 722 
Q 2759 722 2948 984 
Q 3138 1247 3138 1747 
Q 3138 2247 2948 2509 
Q 2759 2772 2400 2772 
Q 2041 2772 1848 2508 
Q 1656 2244 1656 1747 
Q 1656 1250 1848 986 
Q 2041 722 2400 722 
z
M 1656 2988 
Q 1888 3294 2169 3439 
Q 2450 3584 2816 3584 
Q 3463 3584 3878 3070 
Q 4294 2556 4294 1747 
Q 4294 938 3878 423 
Q 3463 -91 2816 -91 
Q 2450 -91 2169 54 
Q 1888 200 1656 506 
L 1656 0 
L 538 0 
L 538 4863 
L 1656 4863 
L 1656 2988 
z
" transform="scale(0.015625)"/>
      <path id="DejaVuSans-Bold-6b" d="M 538 4863 
L 1656 4863 
L 1656 2216 
L 2944 3500 
L 4244 3500 
L 2534 1894 
L 4378 0 
L 3022 0 
L 1656 1459 
L 1656 0 
L 538 0 
L 538 4863 
z
" transform="scale(0.015625)"/>
      <path id="DejaVuSans-Bold-6a" d="M 538 3500 
L 1656 3500 
L 1656 63 
Q 1656 -641 1318 -1011 
Q 981 -1381 341 -1381 
L -213 -1381 
L -213 -647 
L -19 -647 
Q 300 -647 419 -503 
Q 538 -359 538 63 
L 538 3500 
z
M 538 4863 
L 1656 4863 
L 1656 3950 
L 538 3950 
L 538 4863 
z
" transform="scale(0.015625)"/>
      <path id="DejaVuSans-Bold-4d" d="M 588 4666 
L 2119 4666 
L 3181 2169 
L 4250 4666 
L 5778 4666 
L 5778 0 
L 4641 0 
L 4641 3413 
L 3566 897 
L 2803 897 
L 1728 3413 
L 1728 0 
L 588 0 
L 588 4666 
z
" transform="scale(0.015625)"/>
      <path id="DejaVuSans-Bold-32" d="M 1844 884 
L 3897 884 
L 3897 0 
L 506 0 
L 506 884 
L 2209 2388 
Q 2438 2594 2547 2791 
Q 2656 2988 2656 3200 
Q 2656 3528 2436 3728 
Q 2216 3928 1850 3928 
Q 1569 3928 1234 3808 
Q 900 3688 519 3450 
L 519 4475 
Q 925 4609 1322 4679 
Q 1719 4750 2100 4750 
Q 2938 4750 3402 4381 
Q 3866 4013 3866 3353 
Q 3866 2972 3669 2642 
Q 3472 2313 2841 1759 
L 1844 884 
z
" transform="scale(0.015625)"/>
      <path id="DejaVuSans-Bold-36" d="M 2316 2303 
Q 2000 2303 1842 2098 
Q 1684 1894 1684 1484 
Q 1684 1075 1842 870 
Q 2000 666 2316 666 
Q 2634 666 2792 870 
Q 2950 1075 2950 1484 
Q 2950 1894 2792 2098 
Q 2634 2303 2316 2303 
z
M 3803 4544 
L 3803 3681 
Q 3506 3822 3243 3889 
Q 2981 3956 2731 3956 
Q 2194 3956 1894 3657 
Q 1594 3359 1544 2772 
Q 1750 2925 1990 3001 
Q 2231 3078 2516 3078 
Q 3231 3078 3670 2659 
Q 4109 2241 4109 1563 
Q 4109 813 3618 361 
Q 3128 -91 2303 -91 
Q 1394 -91 895 523 
Q 397 1138 397 2266 
Q 397 3422 980 4083 
Q 1563 4744 2578 4744 
Q 2900 4744 3203 4694 
Q 3506 4644 3803 4544 
z
" transform="scale(0.015625)"/>
      <path id="DejaVuSans-Bold-2c" d="M 653 1209 
L 1778 1209 
L 1778 256 
L 1006 -909 
L 341 -909 
L 653 256 
L 653 1209 
z
" transform="scale(0.015625)"/>
     </defs>
     <use xlink:href="#DejaVuSans-Bold-53"/>
     <use xlink:href="#DejaVuSans-Bold-6f" transform="translate(72.021484 0)"/>
     <use xlink:href="#DejaVuSans-Bold-75" transform="translate(140.722656 0)"/>
     <use xlink:href="#DejaVuSans-Bold-72" transform="translate(211.914062 0)"/>
     <use xlink:href="#DejaVuSans-Bold-63" transform="translate(261.230469 0)"/>
     <use xlink:href="#DejaVuSans-Bold-65" transform="translate(320.507812 0)"/>
     <use xlink:href="#DejaVuSans-Bold-3a" transform="translate(388.330078 0)"/>
     <use xlink:href="#DejaVuSans-Bold-20" transform="translate(428.320312 0)"/>
     <use xlink:href="#DejaVuSans-Bold-76" transform="translate(463.134766 0)"/>
     <use xlink:href="#DejaVuSans-Bold-65" transform="translate(528.320312 0)"/>
     <use xlink:href="#DejaVuSans-Bold-72" transform="translate(596.142578 0)"/>
     <use xlink:href="#DejaVuSans-Bold-61" transform="translate(645.458984 0)"/>
     <use xlink:href="#DejaVuSans-Bold-2d" transform="translate(712.939453 0)"/>
     <use xlink:href="#DejaVuSans-Bold-76" transform="translate(754.443359 0)"/>
     <use xlink:href="#DejaVuSans-Bold-73" transform="translate(819.628906 0)"/>
     <use xlink:href="#DejaVuSans-Bold-2d" transform="translate(879.150391 0)"/>
     <use xlink:href="#DejaVuSans-Bold-61" transform="translate(920.654297 0)"/>
     <use xlink:href="#DejaVuSans-Bold-69" transform="translate(988.134766 0)"/>
     <use xlink:href="#DejaVuSans-Bold-2d" transform="translate(1022.412109 0)"/>
     <use xlink:href="#DejaVuSans-Bold-62" transform="translate(1063.916016 0)"/>
     <use xlink:href="#DejaVuSans-Bold-65" transform="translate(1135.498047 0)"/>
     <use xlink:href="#DejaVuSans-Bold-6e" transform="translate(1203.320312 0)"/>
     <use xlink:href="#DejaVuSans-Bold-63" transform="translate(1274.511719 0)"/>
     <use xlink:href="#DejaVuSans-Bold-68" transform="translate(1333.789062 0)"/>
     <use xlink:href="#DejaVuSans-Bold-6d" transform="translate(1404.980469 0)"/>
     <use xlink:href="#DejaVuSans-Bold-61" transform="translate(1509.179688 0)"/>
     <use xlink:href="#DejaVuSans-Bold-72" transform="translate(1576.660156 0)"/>
     <use xlink:href="#DejaVuSans-Bold-6b" transform="translate(1625.976562 0)"/>
     <use xlink:href="#DejaVuSans-Bold-2d" transform="translate(1692.480469 0)"/>
     <use xlink:href="#DejaVuSans-Bold-72" transform="translate(1733.984375 0)"/>
     <use xlink:href="#DejaVuSans-Bold-65" transform="translate(1783.300781 0)"/>
     <use xlink:href="#DejaVuSans-Bold-70" transform="translate(1851.123047 0)"/>
     <use xlink:href="#DejaVuSans-Bold-6f" transform="translate(1922.705078 0)"/>
     <use xlink:href="#DejaVuSans-Bold-72" transform="translate(1991.40625 0)"/>
     <use xlink:href="#DejaVuSans-Bold-74" transform="translate(2040.722656 0)"/>
     <use xlink:href="#DejaVuSans-Bold-2e" transform="translate(2088.525391 0)"/>
     <use xlink:href="#DejaVuSans-Bold-6a" transform="translate(2126.513672 0)"/>
     <use xlink:href="#DejaVuSans-Bold-73" transform="translate(2160.791016 0)"/>
     <use xlink:href="#DejaVuSans-Bold-6f" transform="translate(2220.3125 0)"/>
     <use xlink:href="#DejaVuSans-Bold-6e" transform="translate(2289.013672 0)"/>
     <use xlink:href="#DejaVuSans-Bold-20" transform="translate(2360.205078 0)"/>
     <use xlink:href="#DejaVuSans-Bold-28" transform="translate(2395.019531 0)"/>
     <use xlink:href="#DejaVuSans-Bold-4d" transform="translate(2440.722656 0)"/>
     <use xlink:href="#DejaVuSans-Bold-61" transform="translate(2540.234375 0)"/>
     <use xlink:href="#DejaVuSans-Bold-72" transform="translate(2607.714844 0)"/>
     <use xlink:href="#DejaVuSans-Bold-63" transform="translate(2657.03125 0)"/>
     <use xlink:href="#DejaVuSans-Bold-68" transform="translate(2716.308594 0)"/>
     <use xlink:href="#DejaVuSans-Bold-20" transform="translate(2787.5 0)"/>
     <use xlink:href="#DejaVuSans-Bold-32" transform="translate(2822.314453 0)"/>
     <use xlink:href="#DejaVuSans-Bold-36" transform="translate(2891.894531 0)"/>
     <use xlink:href="#DejaVuSans-Bold-2c" transform="translate(2961.474609 0)"/>
     <use xlink:href="#DejaVuSans-Bold-20" transform="translate(2999.462891 0)"/>
     <use xlink:href="#DejaVuSans-Bold-32" transform="translate(3034.277344 0)"/>
     <use xlink:href="#DejaVuSans-Bold-30" transform="translate(3103.857422 0)"/>
     <use xlink:href="#DejaVuSans-Bold-32" transform="translate(3173.4375 0)"/>
     <use xlink:href="#DejaVuSans-Bold-36" transform="translate(3243.017578 0)"/>
     <use xlink:href="#DejaVuSans-Bold-29" transform="translate(3312.597656 0)"/>
    </g>
   </g>
   <g id="text_19">
    <!-- VNX vs Competitors: Response Time Comparison -->
    <g style="fill: #f8fafc" transform="translate(279.776562 28.475625) scale(0.28 -0.28)">
     <defs>
      <path id="DejaVuSans-Bold-56" d="M 31 4666 
L 1241 4666 
L 2478 1222 
L 3713 4666 
L 4922 4666 
L 3194 0 
L 1759 0 
L 31 4666 
z
" transform="scale(0.015625)"/>
      <path id="DejaVuSans-Bold-4e" d="M 588 4666 
L 1931 4666 
L 3628 1466 
L 3628 4666 
L 4769 4666 
L 4769 0 
L 3425 0 
L 1728 3200 
L 1728 0 
L 588 0 
L 588 4666 
z
" transform="scale(0.015625)"/>
      <path id="DejaVuSans-Bold-58" d="M 3188 2381 
L 4806 0 
L 3553 0 
L 2463 1594 
L 1381 0 
L 122 0 
L 1741 2381 
L 184 4666 
L 1441 4666 
L 2463 3163 
L 3481 4666 
L 4744 4666 
L 3188 2381 
z
" transform="scale(0.015625)"/>
     </defs>
     <use xlink:href="#DejaVuSans-Bold-56"/>
     <use xlink:href="#DejaVuSans-Bold-4e" transform="translate(77.392578 0)"/>
     <use xlink:href="#DejaVuSans-Bold-58" transform="translate(161.083984 0)"/>
     <use xlink:href="#DejaVuSans-Bold-20" transform="translate(238.183594 0)"/>
     <use xlink:href="#DejaVuSans-Bold-76" transform="translate(272.998047 0)"/>
     <use xlink:href="#DejaVuSans-Bold-73" transform="translate(338.183594 0)"/>
     <use xlink:href="#DejaVuSans-Bold-20" transform="translate(397.705078 0)"/>
     <use xlink:href="#DejaVuSans-Bold-43" transform="translate(432.519531 0)"/>
     <use xlink:href="#DejaVuSans-Bold-6f" transform="translate(505.908203 0)"/>
     <use xlink:href="#DejaVuSans-Bold-6d" transform="translate(574.609375 0)"/>
     <use xlink:href="#DejaVuSans-Bold-70" transform="translate(678.808594 0)"/>
     <use xlink:href="#DejaVuSans-Bold-65" transform="translate(750.390625 0)"/>
     <use xlink:href="#DejaVuSans-Bold-74" transform="translate(818.212891 0)"/>
     <use xlink:href="#DejaVuSans-Bold-69" transform="translate(866.015625 0)"/>
     <use xlink:href="#DejaVuSans-Bold-74" transform="translate(900.292969 0)"/>
     <use xlink:href="#DejaVuSans-Bold-6f" transform="translate(948.095703 0)"/>
     <use xlink:href="#DejaVuSans-Bold-72" transform="translate(1016.796875 0)"/>
     <use xlink:href="#DejaVuSans-Bold-73" transform="translate(1066.113281 0)"/>
     <use xlink:href="#DejaVuSans-Bold-3a" transform="translate(1125.634766 0)"/>
     <use xlink:href="#DejaVuSans-Bold-20" transform="translate(1165.625 0)"/>
     <use xlink:href="#DejaVuSans-Bold-52" transform="translate(1200.439453 0)"/>
     <use xlink:href="#DejaVuSans-Bold-65" transform="translate(1277.441406 0)"/>
     <use xlink:href="#DejaVuSans-Bold-73" transform="translate(1345.263672 0)"/>
     <use xlink:href="#DejaVuSans-Bold-70" transform="translate(1404.785156 0)"/>
     <use xlink:href="#DejaVuSans-Bold-6f" transform="translate(1476.367188 0)"/>
     <use xlink:href="#DejaVuSans-Bold-6e" transform="translate(1545.068359 0)"/>
     <use xlink:href="#DejaVuSans-Bold-73" transform="translate(1616.259766 0)"/>
     <use xlink:href="#DejaVuSans-Bold-65" transform="translate(1675.78125 0)"/>
     <use xlink:href="#DejaVuSans-Bold-20" transform="translate(1743.603516 0)"/>
     <use xlink:href="#DejaVuSans-Bold-54" transform="translate(1778.417969 0)"/>
     <use xlink:href="#DejaVuSans-Bold-69" transform="translate(1846.630859 0)"/>
     <use xlink:href="#DejaVuSans-Bold-6d" transform="translate(1880.908203 0)"/>
     <use xlink:href="#DejaVuSans-Bold-65" transform="translate(1985.107422 0)"/>
     <use xlink:href="#DejaVuSans-Bold-20" transform="translate(2052.929688 0)"/>
     <use xlink:href="#DejaVuSans-Bold-43" transform="translate(2087.744141 0)"/>
     <use xlink:href="#DejaVuSans-Bold-6f" transform="translate(2161.132812 0)"/>
     <use xlink:href="#DejaVuSans-Bold-6d" transform="translate(2229.833984 0)"/>
     <use xlink:href="#DejaVuSans-Bold-70" transform="translate(2334.033203 0)"/>
     <use xlink:href="#DejaVuSans-Bold-61" transform="translate(2405.615234 0)"/>
     <use xlink:href="#DejaVuSans-Bold-72" transform="translate(2473.095703 0)"/>
     <use xlink:href="#DejaVuSans-Bold-69" transform="translate(2522.412109 0)"/>
     <use xlink:href="#DejaVuSans-Bold-73" transform="translate(2556.689453 0)"/>
     <use xlink:href="#DejaVuSans-Bold-6f" transform="translate(2616.210938 0)"/>
     <use xlink:href="#DejaVuSans-Bold-6e" transform="translate(2684.912109 0)"/>
    </g>
   </g>
  </g>
 </g>
 <defs>
  <clipPath id="p48031826e1">
   <rect x="129.9475" y="53.475625" width="1071.36" height="598.752"/>
  </clipPath>
 </defs>
</svg>
