<?xml version="1.0" encoding="utf-8" standalone="no"?>
<!DOCTYPE svg PUBLIC "-//W3C//DTD SVG 1.1//EN"
  "http://www.w3.org/Graphics/SVG/1.1/DTD/svg11.dtd">
<svg xmlns:xlink="http://www.w3.org/1999/xlink" width="771.434687pt" height="751.6048pt" viewBox="0 0 771.434687 751.6048" xmlns="http://www.w3.org/2000/svg" version="1.1">
 <metadata>
  <rdf:RDF xmlns:dc="http://purl.org/dc/elements/1.1/" xmlns:cc="http://creativecommons.org/ns#" xmlns:rdf="http://www.w3.org/1999/02/22-rdf-syntax-ns#">
   <cc:Work>
    <dc:type rdf:resource="http://purl.org/dc/dcmitype/StillImage"/>
    <dc:date>2026-05-09T21:42:57.516355</dc:date>
    <dc:format>image/svg+xml</dc:format>
    <dc:creator>
     <cc:Agent>
      <dc:title>Matplotlib v3.10.9, https://matplotlib.org/</dc:title>
     </cc:Agent>
    </dc:creator>
   </cc:Work>
  </rdf:RDF>
 </metadata>
 <defs>
  <style type="text/css">*{stroke-linejoin: round; stroke-linecap: butt}</style>
 </defs>
 <g id="figure_1">
  <g id="patch_1">
   <path d="M 0 751.6048 
L 771.434687 751.6048 
L 771.434687 0 
L 0 0 
z
" style="fill: #0f172a"/>
  </g>
  <g id="axes_1">
   <g id="patch_2">
    <path d="M 385.717344 111.831137 
C 353.09372 111.831137 320.81148 118.496882 290.855942 131.418437 
C 260.900405 144.339991 233.898497 163.246925 211.510804 186.976485 
C 189.123111 210.706045 171.818176 238.761604 160.660231 269.41778 
C 149.502287 300.073955 144.724853 332.689155 146.621736 365.257586 
L 385.717344 351.331937 
z
" style="fill: #00e676; stroke: #f8fafc; stroke-width: 4; stroke-linejoin: miter"/>
   </g>
   <g id="patch_3">
    <path d="M 146.621736 365.257593 
C 149.341177 411.94875 165.678913 456.836342 193.608184 494.351874 
C 221.537455 531.867406 259.853578 560.392702 303.803265 576.389071 
C 347.752959 592.38544 395.440395 595.16294 440.949986 584.376977 
C 486.459574 573.591015 527.828197 549.706824 559.923917 515.687356 
L 385.717344 351.331937 
z
" style="fill: #00d4aa; stroke: #f8fafc; stroke-width: 4; stroke-linejoin: miter"/>
   </g>
   <g id="patch_4">
    <path d="M 559.923917 515.687356 
C 592.019623 481.667888 613.458002 438.980607 621.579583 392.920876 
C 629.701178 346.861145 624.1556 299.41575 605.630836 256.470528 
C 587.106073 213.525305 556.401158 176.932604 517.325158 151.231917 
C 478.249157 125.531229 432.487653 111.831137 385.717377 111.831137 
L 385.717344 351.331937 
z
" style="fill: #ffd700; stroke: #f8fafc; stroke-width: 4; stroke-linejoin: miter"/>
   </g>
   <g id="matplotlib.axis_1"/>
   <g id="matplotlib.axis_2"/>
   <g id="text_1">
    <!-- Environmental -->
    <g style="fill: #f8fafc" transform="translate(46.31857 175.507834) scale(0.18 -0.18)">
     <defs>
      <path id="DejaVuSans-Bold-45" d="M 588 4666 
L 3834 4666 
L 3834 3756 
L 1791 3756 
L 1791 2888 
L 3713 2888 
L 3713 1978 
L 1791 1978 
L 1791 909 
L 3903 909 
L 3903 0 
L 588 0 
L 588 4666 
z
" transform="scale(0.015625)"/>
      <path id="DejaVuSans-Bold-6e" d="M 4056 2131 
L 4056 0 
L 2931 0 
L 2931 347 
L 2931 1631 
Q 2931 2084 2911 2256 
Q 2891 2428 2841 2509 
Q 2775 2619 2662 2680 
Q 2550 2741 2406 2741 
Q 2056 2741 1856 2470 
Q 1656 2200 1656 1722 
L 1656 0 
L 538 0 
L 538 3500 
L 1656 3500 
L 1656 2988 
Q 1909 3294 2193 3439 
Q 2478 3584 2822 3584 
Q 3428 3584 3742 3212 
Q 4056 2841 4056 2131 
z
" transform="scale(0.015625)"/>
      <path id="DejaVuSans-Bold-76" d="M 97 3500 
L 1216 3500 
L 2088 1081 
L 2956 3500 
L 4078 3500 
L 2700 0 
L 1472 0 
L 97 3500 
z
" transform="scale(0.015625)"/>
      <path id="DejaVuSans-Bold-69" d="M 538 3500 
L 1656 3500 
L 1656 0 
L 538 0 
L 538 3500 
z
M 538 4863 
L 1656 4863 
L 1656 3950 
L 538 3950 
L 538 4863 
z
" transform="scale(0.015625)"/>
      <path id="DejaVuSans-Bold-72" d="M 3138 2547 
Q 2991 2616 2845 2648 
Q 2700 2681 2553 2681 
Q 2122 2681 1889 2404 
Q 1656 2128 1656 1613 
L 1656 0 
L 538 0 
L 538 3500 
L 1656 3500 
L 1656 2925 
Q 1872 3269 2151 3426 
Q 2431 3584 2822 3584 
Q 2878 3584 2943 3579 
Q 3009 3575 3134 3559 
L 3138 2547 
z
" transform="scale(0.015625)"/>
      <path id="DejaVuSans-Bold-6f" d="M 2203 2784 
Q 1831 2784 1636 2517 
Q 1441 2250 1441 1747 
Q 1441 1244 1636 976 
Q 1831 709 2203 709 
Q 2569 709 2762 976 
Q 2956 1244 2956 1747 
Q 2956 2250 2762 2517 
Q 2569 2784 2203 2784 
z
M 2203 3584 
Q 3106 3584 3614 3096 
Q 4122 2609 4122 1747 
Q 4122 884 3614 396 
Q 3106 -91 2203 -91 
Q 1297 -91 786 396 
Q 275 884 275 1747 
Q 275 2609 786 3096 
Q 1297 3584 2203 3584 
z
" transform="scale(0.015625)"/>
      <path id="DejaVuSans-Bold-6d" d="M 3781 2919 
Q 3994 3244 4286 3414 
Q 4578 3584 4928 3584 
Q 5531 3584 5847 3212 
Q 6163 2841 6163 2131 
L 6163 0 
L 5038 0 
L 5038 1825 
Q 5041 1866 5042 1909 
Q 5044 1953 5044 2034 
Q 5044 2406 4934 2573 
Q 4825 2741 4581 2741 
Q 4263 2741 4089 2478 
Q 3916 2216 3909 1719 
L 3909 0 
L 2784 0 
L 2784 1825 
Q 2784 2406 2684 2573 
Q 2584 2741 2328 2741 
Q 2006 2741 1831 2477 
Q 1656 2213 1656 1722 
L 1656 0 
L 531 0 
L 531 3500 
L 1656 3500 
L 1656 2988 
Q 1863 3284 2130 3434 
Q 2397 3584 2719 3584 
Q 3081 3584 3359 3409 
Q 3638 3234 3781 2919 
z
" transform="scale(0.015625)"/>
      <path id="DejaVuSans-Bold-65" d="M 4031 1759 
L 4031 1441 
L 1416 1441 
Q 1456 1047 1700 850 
Q 1944 653 2381 653 
Q 2734 653 3104 758 
Q 3475 863 3866 1075 
L 3866 213 
Q 3469 63 3072 -14 
Q 2675 -91 2278 -91 
Q 1328 -91 801 392 
Q 275 875 275 1747 
Q 275 2603 792 3093 
Q 1309 3584 2216 3584 
Q 3041 3584 3536 3087 
Q 4031 2591 4031 1759 
z
M 2881 2131 
Q 2881 2450 2695 2645 
Q 2509 2841 2209 2841 
Q 1884 2841 1681 2658 
Q 1478 2475 1428 2131 
L 2881 2131 
z
" transform="scale(0.015625)"/>
      <path id="DejaVuSans-Bold-74" d="M 1759 4494 
L 1759 3500 
L 2913 3500 
L 2913 2700 
L 1759 2700 
L 1759 1216 
Q 1759 972 1856 886 
Q 1953 800 2241 800 
L 2816 800 
L 2816 0 
L 1856 0 
Q 1194 0 917 276 
Q 641 553 641 1216 
L 641 2700 
L 84 2700 
L 84 3500 
L 641 3500 
L 641 4494 
L 1759 4494 
z
" transform="scale(0.015625)"/>
      <path id="DejaVuSans-Bold-61" d="M 2106 1575 
Q 1756 1575 1579 1456 
Q 1403 1338 1403 1106 
Q 1403 894 1545 773 
Q 1688 653 1941 653 
Q 2256 653 2472 879 
Q 2688 1106 2688 1447 
L 2688 1575 
L 2106 1575 
z
M 3816 1997 
L 3816 0 
L 2688 0 
L 2688 519 
Q 2463 200 2181 54 
Q 1900 -91 1497 -91 
Q 953 -91 614 226 
Q 275 544 275 1050 
Q 275 1666 698 1953 
Q 1122 2241 2028 2241 
L 2688 2241 
L 2688 2328 
Q 2688 2594 2478 2717 
Q 2269 2841 1825 2841 
Q 1466 2841 1156 2769 
Q 847 2697 581 2553 
L 581 3406 
Q 941 3494 1303 3539 
Q 1666 3584 2028 3584 
Q 2975 3584 3395 3211 
Q 3816 2838 3816 1997 
z
" transform="scale(0.015625)"/>
      <path id="DejaVuSans-Bold-6c" d="M 538 4863 
L 1656 4863 
L 1656 0 
L 538 0 
L 538 4863 
z
" transform="scale(0.015625)"/>
     </defs>
     <use xlink:href="#DejaVuSans-Bold-45"/>
     <use xlink:href="#DejaVuSans-Bold-6e" transform="translate(68.310547 0)"/>
     <use xlink:href="#DejaVuSans-Bold-76" transform="translate(139.501953 0)"/>
     <use xlink:href="#DejaVuSans-Bold-69" transform="translate(204.6875 0)"/>
     <use xlink:href="#DejaVuSans-Bold-72" transform="translate(238.964844 0)"/>
     <use xlink:href="#DejaVuSans-Bold-6f" transform="translate(288.28125 0)"/>
     <use xlink:href="#DejaVuSans-Bold-6e" transform="translate(356.982422 0)"/>
     <use xlink:href="#DejaVuSans-Bold-6d" transform="translate(428.173828 0)"/>
     <use xlink:href="#DejaVuSans-Bold-65" transform="translate(532.373047 0)"/>
     <use xlink:href="#DejaVuSans-Bold-6e" transform="translate(600.195312 0)"/>
     <use xlink:href="#DejaVuSans-Bold-74" transform="translate(671.386719 0)"/>
     <use xlink:href="#DejaVuSans-Bold-61" transform="translate(719.189453 0)"/>
     <use xlink:href="#DejaVuSans-Bold-6c" transform="translate(786.669922 0)"/>
    </g>
   </g>
   <g id="text_2">
    <!-- 25% -->
    <g style="fill: #f8fafc" transform="translate(216.099427 216.596693) scale(0.18 -0.18)">
     <defs>
      <path id="DejaVuSans-Bold-32" d="M 1844 884 
L 3897 884 
L 3897 0 
L 506 0 
L 506 884 
L 2209 2388 
Q 2438 2594 2547 2791 
Q 2656 2988 2656 3200 
Q 2656 3528 2436 3728 
Q 2216 3928 1850 3928 
Q 1569 3928 1234 3808 
Q 900 3688 519 3450 
L 519 4475 
Q 925 4609 1322 4679 
Q 1719 4750 2100 4750 
Q 2938 4750 3402 4381 
Q 3866 4013 3866 3353 
Q 3866 2972 3669 2642 
Q 3472 2313 2841 1759 
L 1844 884 
z
" transform="scale(0.015625)"/>
      <path id="DejaVuSans-Bold-35" d="M 678 4666 
L 3669 4666 
L 3669 3781 
L 1638 3781 
L 1638 3059 
Q 1775 3097 1914 3117 
Q 2053 3138 2203 3138 
Q 3056 3138 3531 2711 
Q 4006 2284 4006 1522 
Q 4006 766 3489 337 
Q 2972 -91 2053 -91 
Q 1656 -91 1267 -14 
Q 878 63 494 219 
L 494 1166 
Q 875 947 1217 837 
Q 1559 728 1863 728 
Q 2300 728 2551 942 
Q 2803 1156 2803 1522 
Q 2803 1891 2551 2103 
Q 2300 2316 1863 2316 
Q 1603 2316 1309 2248 
Q 1016 2181 678 2041 
L 678 4666 
z
" transform="scale(0.015625)"/>
      <path id="DejaVuSans-Bold-25" d="M 4959 1925 
Q 4738 1925 4616 1733 
Q 4494 1541 4494 1184 
Q 4494 825 4614 633 
Q 4734 441 4959 441 
Q 5184 441 5303 633 
Q 5422 825 5422 1184 
Q 5422 1541 5301 1733 
Q 5181 1925 4959 1925 
z
M 4959 2450 
Q 5541 2450 5875 2112 
Q 6209 1775 6209 1184 
Q 6209 594 5875 251 
Q 5541 -91 4959 -91 
Q 4378 -91 4042 251 
Q 3706 594 3706 1184 
Q 3706 1772 4042 2111 
Q 4378 2450 4959 2450 
z
M 2094 -91 
L 1403 -91 
L 4319 4750 
L 5013 4750 
L 2094 -91 
z
M 1453 4750 
Q 2034 4750 2367 4411 
Q 2700 4072 2700 3481 
Q 2700 2891 2367 2550 
Q 2034 2209 1453 2209 
Q 872 2209 539 2550 
Q 206 2891 206 3481 
Q 206 4072 539 4411 
Q 872 4750 1453 4750 
z
M 1453 4225 
Q 1228 4225 1106 4031 
Q 984 3838 984 3481 
Q 984 3122 1106 2926 
Q 1228 2731 1453 2731 
Q 1678 2731 1798 2926 
Q 1919 3122 1919 3481 
Q 1919 3838 1797 4031 
Q 1675 4225 1453 4225 
z
" transform="scale(0.015625)"/>
     </defs>
     <use xlink:href="#DejaVuSans-Bold-32"/>
     <use xlink:href="#DejaVuSans-Bold-35" transform="translate(69.580078 0)"/>
     <use xlink:href="#DejaVuSans-Bold-25" transform="translate(139.160156 0)"/>
    </g>
   </g>
   <g id="text_3">
    <!-- Economic -->
    <g style="fill: #f8fafc" transform="translate(199.500294 603.861668) scale(0.18 -0.18)">
     <defs>
      <path id="DejaVuSans-Bold-63" d="M 3366 3391 
L 3366 2478 
Q 3138 2634 2908 2709 
Q 2678 2784 2431 2784 
Q 1963 2784 1702 2511 
Q 1441 2238 1441 1747 
Q 1441 1256 1702 982 
Q 1963 709 2431 709 
Q 2694 709 2930 787 
Q 3166 866 3366 1019 
L 3366 103 
Q 3103 6 2833 -42 
Q 2563 -91 2291 -91 
Q 1344 -91 809 395 
Q 275 881 275 1747 
Q 275 2613 809 3098 
Q 1344 3584 2291 3584 
Q 2566 3584 2833 3536 
Q 3100 3488 3366 3391 
z
" transform="scale(0.015625)"/>
     </defs>
     <use xlink:href="#DejaVuSans-Bold-45"/>
     <use xlink:href="#DejaVuSans-Bold-63" transform="translate(68.310547 0)"/>
     <use xlink:href="#DejaVuSans-Bold-6f" transform="translate(127.587891 0)"/>
     <use xlink:href="#DejaVuSans-Bold-6e" transform="translate(196.289062 0)"/>
     <use xlink:href="#DejaVuSans-Bold-6f" transform="translate(267.480469 0)"/>
     <use xlink:href="#DejaVuSans-Bold-6d" transform="translate(336.181641 0)"/>
     <use xlink:href="#DejaVuSans-Bold-69" transform="translate(440.380859 0)"/>
     <use xlink:href="#DejaVuSans-Bold-63" transform="translate(474.658203 0)"/>
    </g>
   </g>
   <g id="text_4">
    <!-- 37% -->
    <g style="fill: #f8fafc" transform="translate(294.548032 547.597382) scale(0.18 -0.18)">
     <defs>
      <path id="DejaVuSans-Bold-33" d="M 2981 2516 
Q 3453 2394 3698 2092 
Q 3944 1791 3944 1325 
Q 3944 631 3412 270 
Q 2881 -91 1863 -91 
Q 1503 -91 1142 -33 
Q 781 25 428 141 
L 428 1069 
Q 766 900 1098 814 
Q 1431 728 1753 728 
Q 2231 728 2486 893 
Q 2741 1059 2741 1369 
Q 2741 1688 2480 1852 
Q 2219 2016 1709 2016 
L 1228 2016 
L 1228 2791 
L 1734 2791 
Q 2188 2791 2409 2933 
Q 2631 3075 2631 3366 
Q 2631 3634 2415 3781 
Q 2200 3928 1806 3928 
Q 1516 3928 1219 3862 
Q 922 3797 628 3669 
L 628 4550 
Q 984 4650 1334 4700 
Q 1684 4750 2022 4750 
Q 2931 4750 3382 4451 
Q 3834 4153 3834 3553 
Q 3834 3144 3618 2883 
Q 3403 2622 2981 2516 
z
" transform="scale(0.015625)"/>
      <path id="DejaVuSans-Bold-37" d="M 428 4666 
L 3944 4666 
L 3944 3988 
L 2125 0 
L 953 0 
L 2675 3781 
L 428 3781 
L 428 4666 
z
" transform="scale(0.015625)"/>
     </defs>
     <use xlink:href="#DejaVuSans-Bold-33"/>
     <use xlink:href="#DejaVuSans-Bold-37" transform="translate(69.580078 0)"/>
     <use xlink:href="#DejaVuSans-Bold-25" transform="translate(139.160156 0)"/>
    </g>
   </g>
   <g id="text_5">
    <!-- Technical -->
    <g style="fill: #f8fafc" transform="translate(627.622192 251.951265) scale(0.18 -0.18)">
     <defs>
      <path id="DejaVuSans-Bold-54" d="M 31 4666 
L 4331 4666 
L 4331 3756 
L 2784 3756 
L 2784 0 
L 1581 0 
L 1581 3756 
L 31 3756 
L 31 4666 
z
" transform="scale(0.015625)"/>
      <path id="DejaVuSans-Bold-68" d="M 4056 2131 
L 4056 0 
L 2931 0 
L 2931 347 
L 2931 1625 
Q 2931 2084 2911 2256 
Q 2891 2428 2841 2509 
Q 2775 2619 2662 2680 
Q 2550 2741 2406 2741 
Q 2056 2741 1856 2470 
Q 1656 2200 1656 1722 
L 1656 0 
L 538 0 
L 538 4863 
L 1656 4863 
L 1656 2988 
Q 1909 3294 2193 3439 
Q 2478 3584 2822 3584 
Q 3428 3584 3742 3212 
Q 4056 2841 4056 2131 
z
" transform="scale(0.015625)"/>
     </defs>
     <use xlink:href="#DejaVuSans-Bold-54"/>
     <use xlink:href="#DejaVuSans-Bold-65" transform="translate(54.962891 0)"/>
     <use xlink:href="#DejaVuSans-Bold-63" transform="translate(122.785156 0)"/>
     <use xlink:href="#DejaVuSans-Bold-68" transform="translate(182.0625 0)"/>
     <use xlink:href="#DejaVuSans-Bold-6e" transform="translate(253.253906 0)"/>
     <use xlink:href="#DejaVuSans-Bold-69" transform="translate(324.445312 0)"/>
     <use xlink:href="#DejaVuSans-Bold-63" transform="translate(358.722656 0)"/>
     <use xlink:href="#DejaVuSans-Bold-61" transform="translate(418 0)"/>
     <use xlink:href="#DejaVuSans-Bold-6c" transform="translate(485.480469 0)"/>
    </g>
   </g>
   <g id="text_6">
    <!-- 37% -->
    <g style="fill: #f8fafc" transform="translate(551.101474 275.666617) scale(0.18 -0.18)">
     <use xlink:href="#DejaVuSans-Bold-33"/>
     <use xlink:href="#DejaVuSans-Bold-37" transform="translate(69.580078 0)"/>
     <use xlink:href="#DejaVuSans-Bold-25" transform="translate(139.160156 0)"/>
    </g>
   </g>
   <g id="text_7">
    <g id="patch_5">
     <path d="M 385.717344 404.006469 
C 399.686793 404.006469 413.08597 398.456348 422.963862 388.578456 
C 432.841754 378.700564 438.391875 365.301386 438.391875 351.331937 
C 438.391875 337.362489 432.841754 323.963311 422.963862 314.085419 
C 413.08597 304.207527 399.686793 298.657406 385.717344 298.657406 
C 371.747895 298.657406 358.348718 304.207527 348.470826 314.085419 
C 338.592933 323.963311 333.042812 337.362489 333.042812 351.331937 
C 333.042812 365.301386 338.592933 378.700564 348.470826 388.578456 
C 358.348718 398.456348 371.747895 404.006469 385.717344 404.006469 
z
" style="fill: #1e293b; stroke: #ffd700; stroke-width: 3; stroke-linejoin: miter"/>
    </g>
    <!-- Design -->
    <g style="fill: #f8fafc" transform="translate(343.102656 344.913094) scale(0.22 -0.22)">
     <defs>
      <path id="DejaVuSans-Bold-44" d="M 1791 3756 
L 1791 909 
L 2222 909 
Q 2959 909 3348 1275 
Q 3738 1641 3738 2338 
Q 3738 3031 3350 3393 
Q 2963 3756 2222 3756 
L 1791 3756 
z
M 588 4666 
L 1856 4666 
Q 2919 4666 3439 4514 
Q 3959 4363 4331 4000 
Q 4659 3684 4818 3271 
Q 4978 2859 4978 2338 
Q 4978 1809 4818 1395 
Q 4659 981 4331 666 
Q 3956 303 3431 151 
Q 2906 0 1856 0 
L 588 0 
L 588 4666 
z
" transform="scale(0.015625)"/>
      <path id="DejaVuSans-Bold-73" d="M 3272 3391 
L 3272 2541 
Q 2913 2691 2578 2766 
Q 2244 2841 1947 2841 
Q 1628 2841 1473 2761 
Q 1319 2681 1319 2516 
Q 1319 2381 1436 2309 
Q 1553 2238 1856 2203 
L 2053 2175 
Q 2913 2066 3209 1816 
Q 3506 1566 3506 1031 
Q 3506 472 3093 190 
Q 2681 -91 1863 -91 
Q 1516 -91 1145 -36 
Q 775 19 384 128 
L 384 978 
Q 719 816 1070 734 
Q 1422 653 1784 653 
Q 2113 653 2278 743 
Q 2444 834 2444 1013 
Q 2444 1163 2330 1236 
Q 2216 1309 1875 1350 
L 1678 1375 
Q 931 1469 631 1722 
Q 331 1975 331 2491 
Q 331 3047 712 3315 
Q 1094 3584 1881 3584 
Q 2191 3584 2531 3537 
Q 2872 3491 3272 3391 
z
" transform="scale(0.015625)"/>
      <path id="DejaVuSans-Bold-67" d="M 2919 594 
Q 2688 288 2409 144 
Q 2131 0 1766 0 
Q 1125 0 706 504 
Q 288 1009 288 1791 
Q 288 2575 706 3076 
Q 1125 3578 1766 3578 
Q 2131 3578 2409 3434 
Q 2688 3291 2919 2981 
L 2919 3500 
L 4044 3500 
L 4044 353 
Q 4044 -491 3511 -936 
Q 2978 -1381 1966 -1381 
Q 1638 -1381 1331 -1331 
Q 1025 -1281 716 -1178 
L 716 -306 
Q 1009 -475 1290 -558 
Q 1572 -641 1856 -641 
Q 2406 -641 2662 -400 
Q 2919 -159 2919 353 
L 2919 594 
z
M 2181 2772 
Q 1834 2772 1640 2515 
Q 1447 2259 1447 1791 
Q 1447 1309 1634 1061 
Q 1822 813 2181 813 
Q 2531 813 2725 1069 
Q 2919 1325 2919 1791 
Q 2919 2259 2725 2515 
Q 2531 2772 2181 2772 
z
" transform="scale(0.015625)"/>
     </defs>
     <use xlink:href="#DejaVuSans-Bold-44"/>
     <use xlink:href="#DejaVuSans-Bold-65" transform="translate(83.007812 0)"/>
     <use xlink:href="#DejaVuSans-Bold-73" transform="translate(150.830078 0)"/>
     <use xlink:href="#DejaVuSans-Bold-69" transform="translate(210.351562 0)"/>
     <use xlink:href="#DejaVuSans-Bold-67" transform="translate(244.628906 0)"/>
     <use xlink:href="#DejaVuSans-Bold-6e" transform="translate(316.210938 0)"/>
    </g>
    <!-- Targets -->
    <g style="fill: #f8fafc" transform="translate(339.642812 369.720156) scale(0.22 -0.22)">
     <use xlink:href="#DejaVuSans-Bold-54"/>
     <use xlink:href="#DejaVuSans-Bold-61" transform="translate(55.337891 0)"/>
     <use xlink:href="#DejaVuSans-Bold-72" transform="translate(122.818359 0)"/>
     <use xlink:href="#DejaVuSans-Bold-67" transform="translate(172.134766 0)"/>
     <use xlink:href="#DejaVuSans-Bold-65" transform="translate(243.716797 0)"/>
     <use xlink:href="#DejaVuSans-Bold-74" transform="translate(311.539062 0)"/>
     <use xlink:href="#DejaVuSans-Bold-73" transform="translate(359.341797 0)"/>
    </g>
   </g>
   <g id="text_8">
    <g id="patch_6">
     <path d="M 167.316875 753.4048 
L 604.117813 753.4048 
Q 613.117813 753.4048 613.117813 744.4048 
L 613.117813 726.84355 
Q 613.117813 717.84355 604.117813 717.84355 
L 167.316875 717.84355 
Q 158.316875 717.84355 158.316875 726.84355 
L 158.316875 744.4048 
Q 158.316875 753.4048 167.316875 753.4048 
z
" style="fill: #1e293b; stroke: #7a828e; stroke-width: 2; stroke-linejoin: miter"/>
    </g>
    <!-- ⚠ Design targets - require testing to verify -->
    <g style="fill: #7a828e" transform="translate(167.316875 740.520737) scale(0.18 -0.18)">
     <defs>
      <path id="DejaVuSans-Bold-26a0" d="M 2897 4663 
L 2919 4663 
L 5425 28 
L 5425 0 
L 366 0 
L 341 28 
L 313 28 
Q 2797 4559 2897 4663 
z
M 2869 4075 
L 794 322 
L 794 269 
L 4972 269 
L 4972 297 
Q 2959 3988 2869 4075 
z
M 2897 3381 
Q 3138 3381 3138 3169 
Q 2975 1253 2897 1253 
Q 2825 1253 2656 3197 
Q 2734 3381 2897 3381 
z
M 2894 1022 
Q 2953 1022 3011 990 
Q 3069 959 3101 903 
Q 3134 847 3134 781 
Q 3134 719 3103 662 
Q 3072 606 3012 575 
Q 2953 544 2894 544 
Q 2831 544 2775 575 
Q 2719 606 2686 662 
Q 2653 719 2653 781 
Q 2653 847 2686 903 
Q 2719 959 2775 990 
Q 2831 1022 2894 1022 
z
" transform="scale(0.015625)"/>
      <path id="DejaVuSans-Bold-20" transform="scale(0.015625)"/>
      <path id="DejaVuSans-Bold-2d" d="M 347 2297 
L 2309 2297 
L 2309 1388 
L 347 1388 
L 347 2297 
z
" transform="scale(0.015625)"/>
      <path id="DejaVuSans-Bold-71" d="M 2181 2772 
Q 1825 2772 1636 2509 
Q 1447 2247 1447 1747 
Q 1447 1247 1636 984 
Q 1825 722 2181 722 
Q 2541 722 2730 984 
Q 2919 1247 2919 1747 
Q 2919 2247 2730 2509 
Q 2541 2772 2181 2772 
z
M 2919 506 
Q 2688 197 2409 53 
Q 2131 -91 1766 -91 
Q 1119 -91 703 423 
Q 288 938 288 1747 
Q 288 2556 703 3067 
Q 1119 3578 1766 3578 
Q 2131 3578 2409 3434 
Q 2688 3291 2919 2981 
L 2919 3500 
L 4044 3500 
L 4044 -1331 
L 2919 -1331 
L 2919 506 
z
" transform="scale(0.015625)"/>
      <path id="DejaVuSans-Bold-75" d="M 500 1363 
L 500 3500 
L 1625 3500 
L 1625 3150 
Q 1625 2866 1622 2436 
Q 1619 2006 1619 1863 
Q 1619 1441 1641 1255 
Q 1663 1069 1716 984 
Q 1784 875 1895 815 
Q 2006 756 2150 756 
Q 2500 756 2700 1025 
Q 2900 1294 2900 1772 
L 2900 3500 
L 4019 3500 
L 4019 0 
L 2900 0 
L 2900 506 
Q 2647 200 2364 54 
Q 2081 -91 1741 -91 
Q 1134 -91 817 281 
Q 500 653 500 1363 
z
" transform="scale(0.015625)"/>
      <path id="DejaVuSans-Bold-66" d="M 2841 4863 
L 2841 4128 
L 2222 4128 
Q 1984 4128 1890 4042 
Q 1797 3956 1797 3744 
L 1797 3500 
L 2753 3500 
L 2753 2700 
L 1797 2700 
L 1797 0 
L 678 0 
L 678 2700 
L 122 2700 
L 122 3500 
L 678 3500 
L 678 3744 
Q 678 4316 997 4589 
Q 1316 4863 1984 4863 
L 2841 4863 
z
" transform="scale(0.015625)"/>
      <path id="DejaVuSans-Bold-79" d="M 78 3500 
L 1197 3500 
L 2138 1125 
L 2938 3500 
L 4056 3500 
L 2584 -331 
Q 2363 -916 2067 -1148 
Q 1772 -1381 1288 -1381 
L 641 -1381 
L 641 -647 
L 991 -647 
Q 1275 -647 1404 -556 
Q 1534 -466 1606 -231 
L 1638 -134 
L 78 3500 
z
" transform="scale(0.015625)"/>
     </defs>
     <use xlink:href="#DejaVuSans-Bold-26a0"/>
     <use xlink:href="#DejaVuSans-Bold-20" transform="translate(89.648438 0)"/>
     <use xlink:href="#DejaVuSans-Bold-44" transform="translate(124.462891 0)"/>
     <use xlink:href="#DejaVuSans-Bold-65" transform="translate(207.470703 0)"/>
     <use xlink:href="#DejaVuSans-Bold-73" transform="translate(275.292969 0)"/>
     <use xlink:href="#DejaVuSans-Bold-69" transform="translate(334.814453 0)"/>
     <use xlink:href="#DejaVuSans-Bold-67" transform="translate(369.091797 0)"/>
     <use xlink:href="#DejaVuSans-Bold-6e" transform="translate(440.673828 0)"/>
     <use xlink:href="#DejaVuSans-Bold-20" transform="translate(511.865234 0)"/>
     <use xlink:href="#DejaVuSans-Bold-74" transform="translate(546.679688 0)"/>
     <use xlink:href="#DejaVuSans-Bold-61" transform="translate(594.482422 0)"/>
     <use xlink:href="#DejaVuSans-Bold-72" transform="translate(661.962891 0)"/>
     <use xlink:href="#DejaVuSans-Bold-67" transform="translate(711.279297 0)"/>
     <use xlink:href="#DejaVuSans-Bold-65" transform="translate(782.861328 0)"/>
     <use xlink:href="#DejaVuSans-Bold-74" transform="translate(850.683594 0)"/>
     <use xlink:href="#DejaVuSans-Bold-73" transform="translate(898.486328 0)"/>
     <use xlink:href="#DejaVuSans-Bold-20" transform="translate(958.007812 0)"/>
     <use xlink:href="#DejaVuSans-Bold-2d" transform="translate(992.822266 0)"/>
     <use xlink:href="#DejaVuSans-Bold-20" transform="translate(1034.326172 0)"/>
     <use xlink:href="#DejaVuSans-Bold-72" transform="translate(1069.140625 0)"/>
     <use xlink:href="#DejaVuSans-Bold-65" transform="translate(1118.457031 0)"/>
     <use xlink:href="#DejaVuSans-Bold-71" transform="translate(1186.279297 0)"/>
     <use xlink:href="#DejaVuSans-Bold-75" transform="translate(1257.861328 0)"/>
     <use xlink:href="#DejaVuSans-Bold-69" transform="translate(1329.052734 0)"/>
     <use xlink:href="#DejaVuSans-Bold-72" transform="translate(1363.330078 0)"/>
     <use xlink:href="#DejaVuSans-Bold-65" transform="translate(1412.646484 0)"/>
     <use xlink:href="#DejaVuSans-Bold-20" transform="translate(1480.46875 0)"/>
     <use xlink:href="#DejaVuSans-Bold-74" transform="translate(1515.283203 0)"/>
     <use xlink:href="#DejaVuSans-Bold-65" transform="translate(1563.085938 0)"/>
     <use xlink:href="#DejaVuSans-Bold-73" transform="translate(1630.908203 0)"/>
     <use xlink:href="#DejaVuSans-Bold-74" transform="translate(1690.429688 0)"/>
     <use xlink:href="#DejaVuSans-Bold-69" transform="translate(1738.232422 0)"/>
     <use xlink:href="#DejaVuSans-Bold-6e" transform="translate(1772.509766 0)"/>
     <use xlink:href="#DejaVuSans-Bold-67" transform="translate(1843.701172 0)"/>
     <use xlink:href="#DejaVuSans-Bold-20" transform="translate(1915.283203 0)"/>
     <use xlink:href="#DejaVuSans-Bold-74" transform="translate(1950.097656 0)"/>
     <use xlink:href="#DejaVuSans-Bold-6f" transform="translate(1997.900391 0)"/>
     <use xlink:href="#DejaVuSans-Bold-20" transform="translate(2066.601562 0)"/>
     <use xlink:href="#DejaVuSans-Bold-76" transform="translate(2101.416016 0)"/>
     <use xlink:href="#DejaVuSans-Bold-65" transform="translate(2166.601562 0)"/>
     <use xlink:href="#DejaVuSans-Bold-72" transform="translate(2234.423828 0)"/>
     <use xlink:href="#DejaVuSans-Bold-69" transform="translate(2283.740234 0)"/>
     <use xlink:href="#DejaVuSans-Bold-66" transform="translate(2318.017578 0)"/>
     <use xlink:href="#DejaVuSans-Bold-79" transform="translate(2361.523438 0)"/>
    </g>
   </g>
   <g id="text_9">
    <!-- VNX Sustainability: Design Targets (Not Yet Tested) -->
    <g style="fill: #f8fafc" transform="translate(7.2 26.955937) scale(0.26 -0.26)">
     <defs>
      <path id="DejaVuSans-Bold-56" d="M 31 4666 
L 1241 4666 
L 2478 1222 
L 3713 4666 
L 4922 4666 
L 3194 0 
L 1759 0 
L 31 4666 
z
" transform="scale(0.015625)"/>
      <path id="DejaVuSans-Bold-4e" d="M 588 4666 
L 1931 4666 
L 3628 1466 
L 3628 4666 
L 4769 4666 
L 4769 0 
L 3425 0 
L 1728 3200 
L 1728 0 
L 588 0 
L 588 4666 
z
" transform="scale(0.015625)"/>
      <path id="DejaVuSans-Bold-58" d="M 3188 2381 
L 4806 0 
L 3553 0 
L 2463 1594 
L 1381 0 
L 122 0 
L 1741 2381 
L 184 4666 
L 1441 4666 
L 2463 3163 
L 3481 4666 
L 4744 4666 
L 3188 2381 
z
" transform="scale(0.015625)"/>
      <path id="DejaVuSans-Bold-53" d="M 3834 4519 
L 3834 3531 
Q 3450 3703 3084 3790 
Q 2719 3878 2394 3878 
Q 1963 3878 1756 3759 
Q 1550 3641 1550 3391 
Q 1550 3203 1689 3098 
Q 1828 2994 2194 2919 
L 2706 2816 
Q 3484 2659 3812 2340 
Q 4141 2022 4141 1434 
Q 4141 663 3683 286 
Q 3225 -91 2284 -91 
Q 1841 -91 1394 -6 
Q 947 78 500 244 
L 500 1259 
Q 947 1022 1364 901 
Q 1781 781 2169 781 
Q 2563 781 2772 912 
Q 2981 1044 2981 1288 
Q 2981 1506 2839 1625 
Q 2697 1744 2272 1838 
L 1806 1941 
Q 1106 2091 782 2419 
Q 459 2747 459 3303 
Q 459 4000 909 4375 
Q 1359 4750 2203 4750 
Q 2588 4750 2994 4692 
Q 3400 4634 3834 4519 
z
" transform="scale(0.015625)"/>
      <path id="DejaVuSans-Bold-62" d="M 2400 722 
Q 2759 722 2948 984 
Q 3138 1247 3138 1747 
Q 3138 2247 2948 2509 
Q 2759 2772 2400 2772 
Q 2041 2772 1848 2508 
Q 1656 2244 1656 1747 
Q 1656 1250 1848 986 
Q 2041 722 2400 722 
z
M 1656 2988 
Q 1888 3294 2169 3439 
Q 2450 3584 2816 3584 
Q 3463 3584 3878 3070 
Q 4294 2556 4294 1747 
Q 4294 938 3878 423 
Q 3463 -91 2816 -91 
Q 2450 -91 2169 54 
Q 1888 200 1656 506 
L 1656 0 
L 538 0 
L 538 4863 
L 1656 4863 
L 1656 2988 
z
" transform="scale(0.015625)"/>
      <path id="DejaVuSans-Bold-3a" d="M 716 3500 
L 1844 3500 
L 1844 2291 
L 716 2291 
L 716 3500 
z
M 716 1209 
L 1844 1209 
L 1844 0 
L 716 0 
L 716 1209 
z
" transform="scale(0.015625)"/>
      <path id="DejaVuSans-Bold-28" d="M 2413 -844 
L 1484 -844 
Q 1006 -72 778 623 
Q 550 1319 550 2003 
Q 550 2688 779 3389 
Q 1009 4091 1484 4856 
L 2413 4856 
Q 2013 4116 1813 3408 
Q 1613 2700 1613 2009 
Q 1613 1319 1811 609 
Q 2009 -100 2413 -844 
z
" transform="scale(0.015625)"/>
      <path id="DejaVuSans-Bold-59" d="M -63 4666 
L 1253 4666 
L 2316 3003 
L 3378 4666 
L 4697 4666 
L 2919 1966 
L 2919 0 
L 1716 0 
L 1716 1966 
L -63 4666 
z
" transform="scale(0.015625)"/>
      <path id="DejaVuSans-Bold-64" d="M 2919 2988 
L 2919 4863 
L 4044 4863 
L 4044 0 
L 2919 0 
L 2919 506 
Q 2688 197 2409 53 
Q 2131 -91 1766 -91 
Q 1119 -91 703 423 
Q 288 938 288 1747 
Q 288 2556 703 3070 
Q 1119 3584 1766 3584 
Q 2128 3584 2408 3439 
Q 2688 3294 2919 2988 
z
M 2181 722 
Q 2541 722 2730 984 
Q 2919 1247 2919 1747 
Q 2919 2247 2730 2509 
Q 2541 2772 2181 2772 
Q 1825 2772 1636 2509 
Q 1447 2247 1447 1747 
Q 1447 1247 1636 984 
Q 1825 722 2181 722 
z
" transform="scale(0.015625)"/>
      <path id="DejaVuSans-Bold-29" d="M 513 -844 
Q 913 -100 1113 609 
Q 1313 1319 1313 2009 
Q 1313 2700 1113 3408 
Q 913 4116 513 4856 
L 1441 4856 
Q 1916 4091 2145 3389 
Q 2375 2688 2375 2003 
Q 2375 1319 2147 623 
Q 1919 -72 1441 -844 
L 513 -844 
z
" transform="scale(0.015625)"/>
     </defs>
     <use xlink:href="#DejaVuSans-Bold-56"/>
     <use xlink:href="#DejaVuSans-Bold-4e" transform="translate(77.392578 0)"/>
     <use xlink:href="#DejaVuSans-Bold-58" transform="translate(161.083984 0)"/>
     <use xlink:href="#DejaVuSans-Bold-20" transform="translate(238.183594 0)"/>
     <use xlink:href="#DejaVuSans-Bold-53" transform="translate(272.998047 0)"/>
     <use xlink:href="#DejaVuSans-Bold-75" transform="translate(345.019531 0)"/>
     <use xlink:href="#DejaVuSans-Bold-73" transform="translate(416.210938 0)"/>
     <use xlink:href="#DejaVuSans-Bold-74" transform="translate(475.732422 0)"/>
     <use xlink:href="#DejaVuSans-Bold-61" transform="translate(523.535156 0)"/>
     <use xlink:href="#DejaVuSans-Bold-69" transform="translate(591.015625 0)"/>
     <use xlink:href="#DejaVuSans-Bold-6e" transform="translate(625.292969 0)"/>
     <use xlink:href="#DejaVuSans-Bold-61" transform="translate(696.484375 0)"/>
     <use xlink:href="#DejaVuSans-Bold-62" transform="translate(763.964844 0)"/>
     <use xlink:href="#DejaVuSans-Bold-69" transform="translate(835.546875 0)"/>
     <use xlink:href="#DejaVuSans-Bold-6c" transform="translate(869.824219 0)"/>
     <use xlink:href="#DejaVuSans-Bold-69" transform="translate(904.101562 0)"/>
     <use xlink:href="#DejaVuSans-Bold-74" transform="translate(938.378906 0)"/>
     <use xlink:href="#DejaVuSans-Bold-79" transform="translate(986.181641 0)"/>
     <use xlink:href="#DejaVuSans-Bold-3a" transform="translate(1051.367188 0)"/>
     <use xlink:href="#DejaVuSans-Bold-20" transform="translate(1091.357422 0)"/>
     <use xlink:href="#DejaVuSans-Bold-44" transform="translate(1126.171875 0)"/>
     <use xlink:href="#DejaVuSans-Bold-65" transform="translate(1209.179688 0)"/>
     <use xlink:href="#DejaVuSans-Bold-73" transform="translate(1277.001953 0)"/>
     <use xlink:href="#DejaVuSans-Bold-69" transform="translate(1336.523438 0)"/>
     <use xlink:href="#DejaVuSans-Bold-67" transform="translate(1370.800781 0)"/>
     <use xlink:href="#DejaVuSans-Bold-6e" transform="translate(1442.382812 0)"/>
     <use xlink:href="#DejaVuSans-Bold-20" transform="translate(1513.574219 0)"/>
     <use xlink:href="#DejaVuSans-Bold-54" transform="translate(1548.388672 0)"/>
     <use xlink:href="#DejaVuSans-Bold-61" transform="translate(1603.726562 0)"/>
     <use xlink:href="#DejaVuSans-Bold-72" transform="translate(1671.207031 0)"/>
     <use xlink:href="#DejaVuSans-Bold-67" transform="translate(1720.523438 0)"/>
     <use xlink:href="#DejaVuSans-Bold-65" transform="translate(1792.105469 0)"/>
     <use xlink:href="#DejaVuSans-Bold-74" transform="translate(1859.927734 0)"/>
     <use xlink:href="#DejaVuSans-Bold-73" transform="translate(1907.730469 0)"/>
     <use xlink:href="#DejaVuSans-Bold-20" transform="translate(1967.251953 0)"/>
     <use xlink:href="#DejaVuSans-Bold-28" transform="translate(2002.066406 0)"/>
     <use xlink:href="#DejaVuSans-Bold-4e" transform="translate(2047.769531 0)"/>
     <use xlink:href="#DejaVuSans-Bold-6f" transform="translate(2131.460938 0)"/>
     <use xlink:href="#DejaVuSans-Bold-74" transform="translate(2200.162109 0)"/>
     <use xlink:href="#DejaVuSans-Bold-20" transform="translate(2247.964844 0)"/>
     <use xlink:href="#DejaVuSans-Bold-59" transform="translate(2282.779297 0)"/>
     <use xlink:href="#DejaVuSans-Bold-65" transform="translate(2346.066406 0)"/>
     <use xlink:href="#DejaVuSans-Bold-74" transform="translate(2413.888672 0)"/>
     <use xlink:href="#DejaVuSans-Bold-20" transform="translate(2461.691406 0)"/>
     <use xlink:href="#DejaVuSans-Bold-54" transform="translate(2496.505859 0)"/>
     <use xlink:href="#DejaVuSans-Bold-65" transform="translate(2551.46875 0)"/>
     <use xlink:href="#DejaVuSans-Bold-73" transform="translate(2619.291016 0)"/>
     <use xlink:href="#DejaVuSans-Bold-74" transform="translate(2678.8125 0)"/>
     <use xlink:href="#DejaVuSans-Bold-65" transform="translate(2726.615234 0)"/>
     <use xlink:href="#DejaVuSans-Bold-64" transform="translate(2794.4375 0)"/>
     <use xlink:href="#DejaVuSans-Bold-29" transform="translate(2866.019531 0)"/>
    </g>
   </g>
   <g id="legend_1">
    <g id="patch_7">
     <path d="M 487.088344 154.410937 
L 673.893344 154.410937 
Q 677.093344 154.410937 677.093344 151.210937 
L 677.093344 63.155937 
Q 677.093344 59.955937 673.893344 59.955937 
L 487.088344 59.955937 
Q 483.888344 59.955937 483.888344 63.155937 
L 483.888344 151.210937 
Q 483.888344 154.410937 487.088344 154.410937 
z
" style="fill: #1e293b; opacity: 0.9; stroke: #f8fafc; stroke-linejoin: miter"/>
    </g>
    <g id="patch_8">
     <path d="M 499.888344 88.113437 
L 531.888344 88.113437 
L 531.888344 76.913437 
L 499.888344 76.913437 
z
" style="fill: #00e676; stroke: #f8fafc; stroke-width: 4; stroke-linejoin: miter"/>
    </g>
    <g id="text_10">
     <!-- Environmental -->
     <g style="fill: #f8fafc" transform="translate(544.688344 88.113437) scale(0.16 -0.16)">
      <defs>
       <path id="DejaVuSans-45" d="M 628 4666 
L 3578 4666 
L 3578 4134 
L 1259 4134 
L 1259 2753 
L 3481 2753 
L 3481 2222 
L 1259 2222 
L 1259 531 
L 3634 531 
L 3634 0 
L 628 0 
L 628 4666 
z
" transform="scale(0.015625)"/>
       <path id="DejaVuSans-6e" d="M 3513 2113 
L 3513 0 
L 2938 0 
L 2938 2094 
Q 2938 2591 2744 2837 
Q 2550 3084 2163 3084 
Q 1697 3084 1428 2787 
Q 1159 2491 1159 1978 
L 1159 0 
L 581 0 
L 581 3500 
L 1159 3500 
L 1159 2956 
Q 1366 3272 1645 3428 
Q 1925 3584 2291 3584 
Q 2894 3584 3203 3211 
Q 3513 2838 3513 2113 
z
" transform="scale(0.015625)"/>
       <path id="DejaVuSans-76" d="M 191 3500 
L 800 3500 
L 1894 563 
L 2988 3500 
L 3597 3500 
L 2284 0 
L 1503 0 
L 191 3500 
z
" transform="scale(0.015625)"/>
       <path id="DejaVuSans-69" d="M 603 3500 
L 1178 3500 
L 1178 0 
L 603 0 
L 603 3500 
z
M 603 4863 
L 1178 4863 
L 1178 4134 
L 603 4134 
L 603 4863 
z
" transform="scale(0.015625)"/>
       <path id="DejaVuSans-72" d="M 2631 2963 
Q 2534 3019 2420 3045 
Q 2306 3072 2169 3072 
Q 1681 3072 1420 2755 
Q 1159 2438 1159 1844 
L 1159 0 
L 581 0 
L 581 3500 
L 1159 3500 
L 1159 2956 
Q 1341 3275 1631 3429 
Q 1922 3584 2338 3584 
Q 2397 3584 2469 3576 
Q 2541 3569 2628 3553 
L 2631 2963 
z
" transform="scale(0.015625)"/>
       <path id="DejaVuSans-6f" d="M 1959 3097 
Q 1497 3097 1228 2736 
Q 959 2375 959 1747 
Q 959 1119 1226 758 
Q 1494 397 1959 397 
Q 2419 397 2687 759 
Q 2956 1122 2956 1747 
Q 2956 2369 2687 2733 
Q 2419 3097 1959 3097 
z
M 1959 3584 
Q 2709 3584 3137 3096 
Q 3566 2609 3566 1747 
Q 3566 888 3137 398 
Q 2709 -91 1959 -91 
Q 1206 -91 779 398 
Q 353 888 353 1747 
Q 353 2609 779 3096 
Q 1206 3584 1959 3584 
z
" transform="scale(0.015625)"/>
       <path id="DejaVuSans-6d" d="M 3328 2828 
Q 3544 3216 3844 3400 
Q 4144 3584 4550 3584 
Q 5097 3584 5394 3201 
Q 5691 2819 5691 2113 
L 5691 0 
L 5113 0 
L 5113 2094 
Q 5113 2597 4934 2840 
Q 4756 3084 4391 3084 
Q 3944 3084 3684 2787 
Q 3425 2491 3425 1978 
L 3425 0 
L 2847 0 
L 2847 2094 
Q 2847 2600 2669 2842 
Q 2491 3084 2119 3084 
Q 1678 3084 1418 2786 
Q 1159 2488 1159 1978 
L 1159 0 
L 581 0 
L 581 3500 
L 1159 3500 
L 1159 2956 
Q 1356 3278 1631 3431 
Q 1906 3584 2284 3584 
Q 2666 3584 2933 3390 
Q 3200 3197 3328 2828 
z
" transform="scale(0.015625)"/>
       <path id="DejaVuSans-65" d="M 3597 1894 
L 3597 1613 
L 953 1613 
Q 991 1019 1311 708 
Q 1631 397 2203 397 
Q 2534 397 2845 478 
Q 3156 559 3463 722 
L 3463 178 
Q 3153 47 2828 -22 
Q 2503 -91 2169 -91 
Q 1331 -91 842 396 
Q 353 884 353 1716 
Q 353 2575 817 3079 
Q 1281 3584 2069 3584 
Q 2775 3584 3186 3129 
Q 3597 2675 3597 1894 
z
M 3022 2063 
Q 3016 2534 2758 2815 
Q 2500 3097 2075 3097 
Q 1594 3097 1305 2825 
Q 1016 2553 972 2059 
L 3022 2063 
z
" transform="scale(0.015625)"/>
       <path id="DejaVuSans-74" d="M 1172 4494 
L 1172 3500 
L 2356 3500 
L 2356 3053 
L 1172 3053 
L 1172 1153 
Q 1172 725 1289 603 
Q 1406 481 1766 481 
L 2356 481 
L 2356 0 
L 1766 0 
Q 1100 0 847 248 
Q 594 497 594 1153 
L 594 3053 
L 172 3053 
L 172 3500 
L 594 3500 
L 594 4494 
L 1172 4494 
z
" transform="scale(0.015625)"/>
       <path id="DejaVuSans-61" d="M 2194 1759 
Q 1497 1759 1228 1600 
Q 959 1441 959 1056 
Q 959 750 1161 570 
Q 1363 391 1709 391 
Q 2188 391 2477 730 
Q 2766 1069 2766 1631 
L 2766 1759 
L 2194 1759 
z
M 3341 1997 
L 3341 0 
L 2766 0 
L 2766 531 
Q 2569 213 2275 61 
Q 1981 -91 1556 -91 
Q 1019 -91 701 211 
Q 384 513 384 1019 
Q 384 1609 779 1909 
Q 1175 2209 1959 2209 
L 2766 2209 
L 2766 2266 
Q 2766 2663 2505 2880 
Q 2244 3097 1772 3097 
Q 1472 3097 1187 3025 
Q 903 2953 641 2809 
L 641 3341 
Q 956 3463 1253 3523 
Q 1550 3584 1831 3584 
Q 2591 3584 2966 3190 
Q 3341 2797 3341 1997 
z
" transform="scale(0.015625)"/>
       <path id="DejaVuSans-6c" d="M 603 4863 
L 1178 4863 
L 1178 0 
L 603 0 
L 603 4863 
z
" transform="scale(0.015625)"/>
      </defs>
      <use xlink:href="#DejaVuSans-45"/>
      <use xlink:href="#DejaVuSans-6e" transform="translate(63.183594 0)"/>
      <use xlink:href="#DejaVuSans-76" transform="translate(126.5625 0)"/>
      <use xlink:href="#DejaVuSans-69" transform="translate(185.742188 0)"/>
      <use xlink:href="#DejaVuSans-72" transform="translate(213.525391 0)"/>
      <use xlink:href="#DejaVuSans-6f" transform="translate(252.388672 0)"/>
      <use xlink:href="#DejaVuSans-6e" transform="translate(313.570312 0)"/>
      <use xlink:href="#DejaVuSans-6d" transform="translate(376.949219 0)"/>
      <use xlink:href="#DejaVuSans-65" transform="translate(474.361328 0)"/>
      <use xlink:href="#DejaVuSans-6e" transform="translate(535.884766 0)"/>
      <use xlink:href="#DejaVuSans-74" transform="translate(599.263672 0)"/>
      <use xlink:href="#DejaVuSans-61" transform="translate(638.472656 0)"/>
      <use xlink:href="#DejaVuSans-6c" transform="translate(699.751953 0)"/>
     </g>
    </g>
    <g id="patch_9">
     <path d="M 499.888344 111.598437 
L 531.888344 111.598437 
L 531.888344 100.398437 
L 499.888344 100.398437 
z
" style="fill: #00d4aa; stroke: #f8fafc; stroke-width: 4; stroke-linejoin: miter"/>
    </g>
    <g id="text_11">
     <!-- Economic -->
     <g style="fill: #f8fafc" transform="translate(544.688344 111.598437) scale(0.16 -0.16)">
      <defs>
       <path id="DejaVuSans-63" d="M 3122 3366 
L 3122 2828 
Q 2878 2963 2633 3030 
Q 2388 3097 2138 3097 
Q 1578 3097 1268 2742 
Q 959 2388 959 1747 
Q 959 1106 1268 751 
Q 1578 397 2138 397 
Q 2388 397 2633 464 
Q 2878 531 3122 666 
L 3122 134 
Q 2881 22 2623 -34 
Q 2366 -91 2075 -91 
Q 1284 -91 818 406 
Q 353 903 353 1747 
Q 353 2603 823 3093 
Q 1294 3584 2113 3584 
Q 2378 3584 2631 3529 
Q 2884 3475 3122 3366 
z
" transform="scale(0.015625)"/>
      </defs>
      <use xlink:href="#DejaVuSans-45"/>
      <use xlink:href="#DejaVuSans-63" transform="translate(63.183594 0)"/>
      <use xlink:href="#DejaVuSans-6f" transform="translate(118.164062 0)"/>
      <use xlink:href="#DejaVuSans-6e" transform="translate(179.345703 0)"/>
      <use xlink:href="#DejaVuSans-6f" transform="translate(242.724609 0)"/>
      <use xlink:href="#DejaVuSans-6d" transform="translate(303.90625 0)"/>
      <use xlink:href="#DejaVuSans-69" transform="translate(401.318359 0)"/>
      <use xlink:href="#DejaVuSans-63" transform="translate(429.101562 0)"/>
     </g>
    </g>
    <g id="patch_10">
     <path d="M 499.888344 135.083437 
L 531.888344 135.083437 
L 531.888344 123.883437 
L 499.888344 123.883437 
z
" style="fill: #ffd700; stroke: #f8fafc; stroke-width: 4; stroke-linejoin: miter"/>
    </g>
    <g id="text_12">
     <!-- Technical -->
     <g style="fill: #f8fafc" transform="translate(544.688344 135.083437) scale(0.16 -0.16)">
      <defs>
       <path id="DejaVuSans-54" d="M -19 4666 
L 3928 4666 
L 3928 4134 
L 2272 4134 
L 2272 0 
L 1638 0 
L 1638 4134 
L -19 4134 
L -19 4666 
z
" transform="scale(0.015625)"/>
       <path id="DejaVuSans-68" d="M 3513 2113 
L 3513 0 
L 2938 0 
L 2938 2094 
Q 2938 2591 2744 2837 
Q 2550 3084 2163 3084 
Q 1697 3084 1428 2787 
Q 1159 2491 1159 1978 
L 1159 0 
L 581 0 
L 581 4863 
L 1159 4863 
L 1159 2956 
Q 1366 3272 1645 3428 
Q 1925 3584 2291 3584 
Q 2894 3584 3203 3211 
Q 3513 2838 3513 2113 
z
" transform="scale(0.015625)"/>
      </defs>
      <use xlink:href="#DejaVuSans-54"/>
      <use xlink:href="#DejaVuSans-65" transform="translate(44.083984 0)"/>
      <use xlink:href="#DejaVuSans-63" transform="translate(105.607422 0)"/>
      <use xlink:href="#DejaVuSans-68" transform="translate(160.587891 0)"/>
      <use xlink:href="#DejaVuSans-6e" transform="translate(223.966797 0)"/>
      <use xlink:href="#DejaVuSans-69" transform="translate(287.345703 0)"/>
      <use xlink:href="#DejaVuSans-63" transform="translate(315.128906 0)"/>
      <use xlink:href="#DejaVuSans-61" transform="translate(370.109375 0)"/>
      <use xlink:href="#DejaVuSans-6c" transform="translate(431.388672 0)"/>
     </g>
    </g>
   </g>
  </g>
 </g>
</svg>
