<?xml version="1.0" encoding="utf-8" standalone="no"?>
<!DOCTYPE svg PUBLIC "-//W3C//DTD SVG 1.1//EN"
  "http://www.w3.org/Graphics/SVG/1.1/DTD/svg11.dtd">
<svg xmlns:xlink="http://www.w3.org/1999/xlink" width="841.870312pt" height="657.907937pt" viewBox="0 0 841.870312 657.907937" xmlns="http://www.w3.org/2000/svg" version="1.1">
 <metadata>
  <rdf:RDF xmlns:dc="http://purl.org/dc/elements/1.1/" xmlns:cc="http://creativecommons.org/ns#" xmlns:rdf="http://www.w3.org/1999/02/22-rdf-syntax-ns#">
   <cc:Work>
    <dc:type rdf:resource="http://purl.org/dc/dcmitype/StillImage"/>
    <dc:date>2026-05-12T20:42:37.587369</dc:date>
    <dc:format>image/svg+xml</dc:format>
    <dc:creator>
     <cc:Agent>
      <dc:title>Matplotlib v3.10.9, https://matplotlib.org/</dc:title>
     </cc:Agent>
    </dc:creator>
   </cc:Work>
  </rdf:RDF>
 </metadata>
 <defs>
  <style type="text/css">*{stroke-linejoin: round; stroke-linecap: butt}</style>
 </defs>
 <g id="figure_1">
  <g id="patch_1">
   <path d="M -0 657.907937 
L 841.870312 657.907937 
L 841.870312 0 
L -0 0 
z
" style="fill: #0f172a"/>
  </g>
  <g id="axes_1">
   <g id="patch_2">
    <path d="M 241.309556 387.257057 
C 250.837009 387.257057 259.975525 383.47176 266.712452 376.734833 
C 273.449379 369.997907 277.234676 360.859391 277.234676 351.331937 
C 277.234676 341.804484 273.449379 332.665968 266.712452 325.929042 
C 259.975525 319.192115 250.837009 315.406817 241.309556 315.406817 
C 231.782103 315.406817 222.643587 319.192115 215.90666 325.929042 
C 209.169734 332.665968 205.384436 341.804484 205.384436 351.331937 
C 205.384436 360.859391 209.169734 369.997907 215.90666 376.734833 
C 222.643587 383.47176 231.782103 387.257057 241.309556 387.257057 
z
" clip-path="url(#pf8066c4cd9)" style="fill: #00d4aa; stroke: #ffd700; stroke-width: 4; stroke-linejoin: miter"/>
   </g>
   <g id="patch_3">
    <path d="M 600.560756 590.832737 
C 664.077111 590.832737 725.000551 565.597422 769.913396 520.684577 
C 814.826241 475.771732 840.061556 414.848292 840.061556 351.331937 
C 840.061556 287.815583 814.826241 226.892143 769.913396 181.979298 
C 725.000551 137.066453 664.077111 111.831137 600.560756 111.831137 
C 537.044402 111.831137 476.120962 137.066453 431.208116 181.979298 
C 386.295271 226.892143 361.059956 287.815583 361.059956 351.331937 
C 361.059956 414.848292 386.295271 475.771732 431.208116 520.684577 
C 476.120962 565.597422 537.044402 590.832737 600.560756 590.832737 
z
" clip-path="url(#pf8066c4cd9)" style="fill: #7a828e; stroke: #f8fafc; stroke-width: 4; stroke-linejoin: miter"/>
   </g>
   <g id="text_1">
    <!-- VNX -->
    <g style="fill: #1e293b" transform="translate(219.874087 336.14275) scale(0.18 -0.18)">
     <defs>
      <path id="DejaVuSans-Bold-56" d="M 31 4666 
L 1241 4666 
L 2478 1222 
L 3713 4666 
L 4922 4666 
L 3194 0 
L 1759 0 
L 31 4666 
z
" transform="scale(0.015625)"/>
      <path id="DejaVuSans-Bold-4e" d="M 588 4666 
L 1931 4666 
L 3628 1466 
L 3628 4666 
L 4769 4666 
L 4769 0 
L 3425 0 
L 1728 3200 
L 1728 0 
L 588 0 
L 588 4666 
z
" transform="scale(0.015625)"/>
      <path id="DejaVuSans-Bold-58" d="M 3188 2381 
L 4806 0 
L 3553 0 
L 2463 1594 
L 1381 0 
L 122 0 
L 1741 2381 
L 184 4666 
L 1441 4666 
L 2463 3163 
L 3481 4666 
L 4744 4666 
L 3188 2381 
z
" transform="scale(0.015625)"/>
     </defs>
     <use xlink:href="#DejaVuSans-Bold-56"/>
     <use xlink:href="#DejaVuSans-Bold-4e" transform="translate(77.392578 0)"/>
     <use xlink:href="#DejaVuSans-Bold-58" transform="translate(161.083984 0)"/>
    </g>
    <!-- (Tested) -->
    <g style="fill: #1e293b" transform="translate(199.826587 356.298812) scale(0.18 -0.18)">
     <defs>
      <path id="DejaVuSans-Bold-28" d="M 2413 -844 
L 1484 -844 
Q 1006 -72 778 623 
Q 550 1319 550 2003 
Q 550 2688 779 3389 
Q 1009 4091 1484 4856 
L 2413 4856 
Q 2013 4116 1813 3408 
Q 1613 2700 1613 2009 
Q 1613 1319 1811 609 
Q 2009 -100 2413 -844 
z
" transform="scale(0.015625)"/>
      <path id="DejaVuSans-Bold-54" d="M 31 4666 
L 4331 4666 
L 4331 3756 
L 2784 3756 
L 2784 0 
L 1581 0 
L 1581 3756 
L 31 3756 
L 31 4666 
z
" transform="scale(0.015625)"/>
      <path id="DejaVuSans-Bold-65" d="M 4031 1759 
L 4031 1441 
L 1416 1441 
Q 1456 1047 1700 850 
Q 1944 653 2381 653 
Q 2734 653 3104 758 
Q 3475 863 3866 1075 
L 3866 213 
Q 3469 63 3072 -14 
Q 2675 -91 2278 -91 
Q 1328 -91 801 392 
Q 275 875 275 1747 
Q 275 2603 792 3093 
Q 1309 3584 2216 3584 
Q 3041 3584 3536 3087 
Q 4031 2591 4031 1759 
z
M 2881 2131 
Q 2881 2450 2695 2645 
Q 2509 2841 2209 2841 
Q 1884 2841 1681 2658 
Q 1478 2475 1428 2131 
L 2881 2131 
z
" transform="scale(0.015625)"/>
      <path id="DejaVuSans-Bold-73" d="M 3272 3391 
L 3272 2541 
Q 2913 2691 2578 2766 
Q 2244 2841 1947 2841 
Q 1628 2841 1473 2761 
Q 1319 2681 1319 2516 
Q 1319 2381 1436 2309 
Q 1553 2238 1856 2203 
L 2053 2175 
Q 2913 2066 3209 1816 
Q 3506 1566 3506 1031 
Q 3506 472 3093 190 
Q 2681 -91 1863 -91 
Q 1516 -91 1145 -36 
Q 775 19 384 128 
L 384 978 
Q 719 816 1070 734 
Q 1422 653 1784 653 
Q 2113 653 2278 743 
Q 2444 834 2444 1013 
Q 2444 1163 2330 1236 
Q 2216 1309 1875 1350 
L 1678 1375 
Q 931 1469 631 1722 
Q 331 1975 331 2491 
Q 331 3047 712 3315 
Q 1094 3584 1881 3584 
Q 2191 3584 2531 3537 
Q 2872 3491 3272 3391 
z
" transform="scale(0.015625)"/>
      <path id="DejaVuSans-Bold-74" d="M 1759 4494 
L 1759 3500 
L 2913 3500 
L 2913 2700 
L 1759 2700 
L 1759 1216 
Q 1759 972 1856 886 
Q 1953 800 2241 800 
L 2816 800 
L 2816 0 
L 1856 0 
Q 1194 0 917 276 
Q 641 553 641 1216 
L 641 2700 
L 84 2700 
L 84 3500 
L 641 3500 
L 641 4494 
L 1759 4494 
z
" transform="scale(0.015625)"/>
      <path id="DejaVuSans-Bold-64" d="M 2919 2988 
L 2919 4863 
L 4044 4863 
L 4044 0 
L 2919 0 
L 2919 506 
Q 2688 197 2409 53 
Q 2131 -91 1766 -91 
Q 1119 -91 703 423 
Q 288 938 288 1747 
Q 288 2556 703 3070 
Q 1119 3584 1766 3584 
Q 2128 3584 2408 3439 
Q 2688 3294 2919 2988 
z
M 2181 722 
Q 2541 722 2730 984 
Q 2919 1247 2919 1747 
Q 2919 2247 2730 2509 
Q 2541 2772 2181 2772 
Q 1825 2772 1636 2509 
Q 1447 2247 1447 1747 
Q 1447 1247 1636 984 
Q 1825 722 2181 722 
z
" transform="scale(0.015625)"/>
      <path id="DejaVuSans-Bold-29" d="M 513 -844 
Q 913 -100 1113 609 
Q 1313 1319 1313 2009 
Q 1313 2700 1113 3408 
Q 913 4116 513 4856 
L 1441 4856 
Q 1916 4091 2145 3389 
Q 2375 2688 2375 2003 
Q 2375 1319 2147 623 
Q 1919 -72 1441 -844 
L 513 -844 
z
" transform="scale(0.015625)"/>
     </defs>
     <use xlink:href="#DejaVuSans-Bold-28"/>
     <use xlink:href="#DejaVuSans-Bold-54" transform="translate(45.703125 0)"/>
     <use xlink:href="#DejaVuSans-Bold-65" transform="translate(100.666016 0)"/>
     <use xlink:href="#DejaVuSans-Bold-73" transform="translate(168.488281 0)"/>
     <use xlink:href="#DejaVuSans-Bold-74" transform="translate(228.009766 0)"/>
     <use xlink:href="#DejaVuSans-Bold-65" transform="translate(275.8125 0)"/>
     <use xlink:href="#DejaVuSans-Bold-64" transform="translate(343.634766 0)"/>
     <use xlink:href="#DejaVuSans-Bold-29" transform="translate(415.216797 0)"/>
    </g>
    <!-- &lt;5KB -->
    <g style="fill: #1e293b" transform="translate(213.672525 376.454875) scale(0.18 -0.18)">
     <defs>
      <path id="DejaVuSans-Bold-3c" d="M 4684 3041 
L 1672 2003 
L 4684 972 
L 4684 191 
L 678 1638 
L 678 2375 
L 4684 3822 
L 4684 3041 
z
" transform="scale(0.015625)"/>
      <path id="DejaVuSans-Bold-35" d="M 678 4666 
L 3669 4666 
L 3669 3781 
L 1638 3781 
L 1638 3059 
Q 1775 3097 1914 3117 
Q 2053 3138 2203 3138 
Q 3056 3138 3531 2711 
Q 4006 2284 4006 1522 
Q 4006 766 3489 337 
Q 2972 -91 2053 -91 
Q 1656 -91 1267 -14 
Q 878 63 494 219 
L 494 1166 
Q 875 947 1217 837 
Q 1559 728 1863 728 
Q 2300 728 2551 942 
Q 2803 1156 2803 1522 
Q 2803 1891 2551 2103 
Q 2300 2316 1863 2316 
Q 1603 2316 1309 2248 
Q 1016 2181 678 2041 
L 678 4666 
z
" transform="scale(0.015625)"/>
      <path id="DejaVuSans-Bold-4b" d="M 588 4666 
L 1791 4666 
L 1791 2963 
L 3525 4666 
L 4922 4666 
L 2675 2456 
L 5153 0 
L 3647 0 
L 1791 1838 
L 1791 0 
L 588 0 
L 588 4666 
z
" transform="scale(0.015625)"/>
      <path id="DejaVuSans-Bold-42" d="M 2456 2859 
Q 2741 2859 2887 2984 
Q 3034 3109 3034 3353 
Q 3034 3594 2887 3720 
Q 2741 3847 2456 3847 
L 1791 3847 
L 1791 2859 
L 2456 2859 
z
M 2497 819 
Q 2859 819 3042 972 
Q 3225 1125 3225 1434 
Q 3225 1738 3044 1889 
Q 2863 2041 2497 2041 
L 1791 2041 
L 1791 819 
L 2497 819 
z
M 3616 2497 
Q 4003 2384 4215 2081 
Q 4428 1778 4428 1338 
Q 4428 663 3972 331 
Q 3516 0 2584 0 
L 588 0 
L 588 4666 
L 2394 4666 
Q 3366 4666 3802 4372 
Q 4238 4078 4238 3431 
Q 4238 3091 4078 2852 
Q 3919 2613 3616 2497 
z
" transform="scale(0.015625)"/>
     </defs>
     <use xlink:href="#DejaVuSans-Bold-3c"/>
     <use xlink:href="#DejaVuSans-Bold-35" transform="translate(83.789062 0)"/>
     <use xlink:href="#DejaVuSans-Bold-4b" transform="translate(153.369141 0)"/>
     <use xlink:href="#DejaVuSans-Bold-42" transform="translate(230.859375 0)"/>
    </g>
   </g>
   <g id="text_2">
    <!-- Typical -->
    <g style="fill: #1e293b" transform="translate(561.717006 334.376937) scale(0.2 -0.2)">
     <defs>
      <path id="DejaVuSans-Bold-79" d="M 78 3500 
L 1197 3500 
L 2138 1125 
L 2938 3500 
L 4056 3500 
L 2584 -331 
Q 2363 -916 2067 -1148 
Q 1772 -1381 1288 -1381 
L 641 -1381 
L 641 -647 
L 991 -647 
Q 1275 -647 1404 -556 
Q 1534 -466 1606 -231 
L 1638 -134 
L 78 3500 
z
" transform="scale(0.015625)"/>
      <path id="DejaVuSans-Bold-70" d="M 1656 506 
L 1656 -1331 
L 538 -1331 
L 538 3500 
L 1656 3500 
L 1656 2988 
Q 1888 3294 2169 3439 
Q 2450 3584 2816 3584 
Q 3463 3584 3878 3070 
Q 4294 2556 4294 1747 
Q 4294 938 3878 423 
Q 3463 -91 2816 -91 
Q 2450 -91 2169 54 
Q 1888 200 1656 506 
z
M 2400 2772 
Q 2041 2772 1848 2508 
Q 1656 2244 1656 1747 
Q 1656 1250 1848 986 
Q 2041 722 2400 722 
Q 2759 722 2948 984 
Q 3138 1247 3138 1747 
Q 3138 2247 2948 2509 
Q 2759 2772 2400 2772 
z
" transform="scale(0.015625)"/>
      <path id="DejaVuSans-Bold-69" d="M 538 3500 
L 1656 3500 
L 1656 0 
L 538 0 
L 538 3500 
z
M 538 4863 
L 1656 4863 
L 1656 3950 
L 538 3950 
L 538 4863 
z
" transform="scale(0.015625)"/>
      <path id="DejaVuSans-Bold-63" d="M 3366 3391 
L 3366 2478 
Q 3138 2634 2908 2709 
Q 2678 2784 2431 2784 
Q 1963 2784 1702 2511 
Q 1441 2238 1441 1747 
Q 1441 1256 1702 982 
Q 1963 709 2431 709 
Q 2694 709 2930 787 
Q 3166 866 3366 1019 
L 3366 103 
Q 3103 6 2833 -42 
Q 2563 -91 2291 -91 
Q 1344 -91 809 395 
Q 275 881 275 1747 
Q 275 2613 809 3098 
Q 1344 3584 2291 3584 
Q 2566 3584 2833 3536 
Q 3100 3488 3366 3391 
z
" transform="scale(0.015625)"/>
      <path id="DejaVuSans-Bold-61" d="M 2106 1575 
Q 1756 1575 1579 1456 
Q 1403 1338 1403 1106 
Q 1403 894 1545 773 
Q 1688 653 1941 653 
Q 2256 653 2472 879 
Q 2688 1106 2688 1447 
L 2688 1575 
L 2106 1575 
z
M 3816 1997 
L 3816 0 
L 2688 0 
L 2688 519 
Q 2463 200 2181 54 
Q 1900 -91 1497 -91 
Q 953 -91 614 226 
Q 275 544 275 1050 
Q 275 1666 698 1953 
Q 1122 2241 2028 2241 
L 2688 2241 
L 2688 2328 
Q 2688 2594 2478 2717 
Q 2269 2841 1825 2841 
Q 1466 2841 1156 2769 
Q 847 2697 581 2553 
L 581 3406 
Q 941 3494 1303 3539 
Q 1666 3584 2028 3584 
Q 2975 3584 3395 3211 
Q 3816 2838 3816 1997 
z
" transform="scale(0.015625)"/>
      <path id="DejaVuSans-Bold-6c" d="M 538 4863 
L 1656 4863 
L 1656 0 
L 538 0 
L 538 4863 
z
" transform="scale(0.015625)"/>
     </defs>
     <use xlink:href="#DejaVuSans-Bold-54"/>
     <use xlink:href="#DejaVuSans-Bold-79" transform="translate(56.337891 0)"/>
     <use xlink:href="#DejaVuSans-Bold-70" transform="translate(121.523438 0)"/>
     <use xlink:href="#DejaVuSans-Bold-69" transform="translate(193.105469 0)"/>
     <use xlink:href="#DejaVuSans-Bold-63" transform="translate(227.382812 0)"/>
     <use xlink:href="#DejaVuSans-Bold-61" transform="translate(286.660156 0)"/>
     <use xlink:href="#DejaVuSans-Bold-6c" transform="translate(354.140625 0)"/>
    </g>
    <!-- LLM -->
    <g style="fill: #1e293b" transform="translate(577.865444 356.928812) scale(0.2 -0.2)">
     <defs>
      <path id="DejaVuSans-Bold-4c" d="M 588 4666 
L 1791 4666 
L 1791 909 
L 3903 909 
L 3903 0 
L 588 0 
L 588 4666 
z
" transform="scale(0.015625)"/>
      <path id="DejaVuSans-Bold-4d" d="M 588 4666 
L 2119 4666 
L 3181 2169 
L 4250 4666 
L 5778 4666 
L 5778 0 
L 4641 0 
L 4641 3413 
L 3566 897 
L 2803 897 
L 1728 3413 
L 1728 0 
L 588 0 
L 588 4666 
z
" transform="scale(0.015625)"/>
     </defs>
     <use xlink:href="#DejaVuSans-Bold-4c"/>
     <use xlink:href="#DejaVuSans-Bold-4c" transform="translate(63.720703 0)"/>
     <use xlink:href="#DejaVuSans-Bold-4d" transform="translate(127.441406 0)"/>
    </g>
    <!-- 1GB+ -->
    <g style="fill: #1e293b" transform="translate(569.393569 379.324437) scale(0.2 -0.2)">
     <defs>
      <path id="DejaVuSans-Bold-31" d="M 750 831 
L 1813 831 
L 1813 3847 
L 722 3622 
L 722 4441 
L 1806 4666 
L 2950 4666 
L 2950 831 
L 4013 831 
L 4013 0 
L 750 0 
L 750 831 
z
" transform="scale(0.015625)"/>
      <path id="DejaVuSans-Bold-47" d="M 4781 347 
Q 4331 128 3847 18 
Q 3363 -91 2847 -91 
Q 1681 -91 1000 561 
Q 319 1213 319 2328 
Q 319 3456 1012 4103 
Q 1706 4750 2913 4750 
Q 3378 4750 3804 4662 
Q 4231 4575 4609 4403 
L 4609 3438 
Q 4219 3659 3833 3768 
Q 3447 3878 3059 3878 
Q 2341 3878 1952 3476 
Q 1563 3075 1563 2328 
Q 1563 1588 1938 1184 
Q 2313 781 3003 781 
Q 3191 781 3352 804 
Q 3513 828 3641 878 
L 3641 1784 
L 2906 1784 
L 2906 2591 
L 4781 2591 
L 4781 347 
z
" transform="scale(0.015625)"/>
      <path id="DejaVuSans-Bold-2b" d="M 3053 4013 
L 3053 2375 
L 4684 2375 
L 4684 1638 
L 3053 1638 
L 3053 0 
L 2309 0 
L 2309 1638 
L 678 1638 
L 678 2375 
L 2309 2375 
L 2309 4013 
L 3053 4013 
z
" transform="scale(0.015625)"/>
     </defs>
     <use xlink:href="#DejaVuSans-Bold-31"/>
     <use xlink:href="#DejaVuSans-Bold-47" transform="translate(69.580078 0)"/>
     <use xlink:href="#DejaVuSans-Bold-42" transform="translate(151.660156 0)"/>
     <use xlink:href="#DejaVuSans-Bold-2b" transform="translate(227.880859 0)"/>
    </g>
   </g>
   <g id="text_3">
    <g id="patch_4">
     <path d="M 238.037812 546.53285 
L 603.8325 546.53285 
Q 614.8325 546.53285 614.8325 535.53285 
L 614.8325 514.240975 
Q 614.8325 503.240975 603.8325 503.240975 
L 238.037812 503.240975 
Q 227.037812 503.240975 227.037812 514.240975 
L 227.037812 535.53285 
Q 227.037812 546.53285 238.037812 546.53285 
z
" style="fill: #1e293b; stroke: #ffd700; stroke-width: 3; stroke-linejoin: miter"/>
    </g>
    <!-- Tested: 214,748,364x smaller -->
    <g style="fill: #ffd700" transform="translate(238.037812 530.957537) scale(0.22 -0.22)">
     <defs>
      <path id="DejaVuSans-Bold-3a" d="M 716 3500 
L 1844 3500 
L 1844 2291 
L 716 2291 
L 716 3500 
z
M 716 1209 
L 1844 1209 
L 1844 0 
L 716 0 
L 716 1209 
z
" transform="scale(0.015625)"/>
      <path id="DejaVuSans-Bold-20" transform="scale(0.015625)"/>
      <path id="DejaVuSans-Bold-32" d="M 1844 884 
L 3897 884 
L 3897 0 
L 506 0 
L 506 884 
L 2209 2388 
Q 2438 2594 2547 2791 
Q 2656 2988 2656 3200 
Q 2656 3528 2436 3728 
Q 2216 3928 1850 3928 
Q 1569 3928 1234 3808 
Q 900 3688 519 3450 
L 519 4475 
Q 925 4609 1322 4679 
Q 1719 4750 2100 4750 
Q 2938 4750 3402 4381 
Q 3866 4013 3866 3353 
Q 3866 2972 3669 2642 
Q 3472 2313 2841 1759 
L 1844 884 
z
" transform="scale(0.015625)"/>
      <path id="DejaVuSans-Bold-34" d="M 2356 3675 
L 1038 1722 
L 2356 1722 
L 2356 3675 
z
M 2156 4666 
L 3494 4666 
L 3494 1722 
L 4159 1722 
L 4159 850 
L 3494 850 
L 3494 0 
L 2356 0 
L 2356 850 
L 288 850 
L 288 1881 
L 2156 4666 
z
" transform="scale(0.015625)"/>
      <path id="DejaVuSans-Bold-2c" d="M 653 1209 
L 1778 1209 
L 1778 256 
L 1006 -909 
L 341 -909 
L 653 256 
L 653 1209 
z
" transform="scale(0.015625)"/>
      <path id="DejaVuSans-Bold-37" d="M 428 4666 
L 3944 4666 
L 3944 3988 
L 2125 0 
L 953 0 
L 2675 3781 
L 428 3781 
L 428 4666 
z
" transform="scale(0.015625)"/>
      <path id="DejaVuSans-Bold-38" d="M 2228 2088 
Q 1891 2088 1709 1903 
Q 1528 1719 1528 1375 
Q 1528 1031 1709 848 
Q 1891 666 2228 666 
Q 2563 666 2741 848 
Q 2919 1031 2919 1375 
Q 2919 1722 2741 1905 
Q 2563 2088 2228 2088 
z
M 1350 2484 
Q 925 2613 709 2878 
Q 494 3144 494 3541 
Q 494 4131 934 4440 
Q 1375 4750 2228 4750 
Q 3075 4750 3515 4442 
Q 3956 4134 3956 3541 
Q 3956 3144 3739 2878 
Q 3522 2613 3097 2484 
Q 3572 2353 3814 2058 
Q 4056 1763 4056 1313 
Q 4056 619 3595 264 
Q 3134 -91 2228 -91 
Q 1319 -91 855 264 
Q 391 619 391 1313 
Q 391 1763 633 2058 
Q 875 2353 1350 2484 
z
M 1631 3419 
Q 1631 3141 1786 2991 
Q 1941 2841 2228 2841 
Q 2509 2841 2662 2991 
Q 2816 3141 2816 3419 
Q 2816 3697 2662 3845 
Q 2509 3994 2228 3994 
Q 1941 3994 1786 3844 
Q 1631 3694 1631 3419 
z
" transform="scale(0.015625)"/>
      <path id="DejaVuSans-Bold-33" d="M 2981 2516 
Q 3453 2394 3698 2092 
Q 3944 1791 3944 1325 
Q 3944 631 3412 270 
Q 2881 -91 1863 -91 
Q 1503 -91 1142 -33 
Q 781 25 428 141 
L 428 1069 
Q 766 900 1098 814 
Q 1431 728 1753 728 
Q 2231 728 2486 893 
Q 2741 1059 2741 1369 
Q 2741 1688 2480 1852 
Q 2219 2016 1709 2016 
L 1228 2016 
L 1228 2791 
L 1734 2791 
Q 2188 2791 2409 2933 
Q 2631 3075 2631 3366 
Q 2631 3634 2415 3781 
Q 2200 3928 1806 3928 
Q 1516 3928 1219 3862 
Q 922 3797 628 3669 
L 628 4550 
Q 984 4650 1334 4700 
Q 1684 4750 2022 4750 
Q 2931 4750 3382 4451 
Q 3834 4153 3834 3553 
Q 3834 3144 3618 2883 
Q 3403 2622 2981 2516 
z
" transform="scale(0.015625)"/>
      <path id="DejaVuSans-Bold-36" d="M 2316 2303 
Q 2000 2303 1842 2098 
Q 1684 1894 1684 1484 
Q 1684 1075 1842 870 
Q 2000 666 2316 666 
Q 2634 666 2792 870 
Q 2950 1075 2950 1484 
Q 2950 1894 2792 2098 
Q 2634 2303 2316 2303 
z
M 3803 4544 
L 3803 3681 
Q 3506 3822 3243 3889 
Q 2981 3956 2731 3956 
Q 2194 3956 1894 3657 
Q 1594 3359 1544 2772 
Q 1750 2925 1990 3001 
Q 2231 3078 2516 3078 
Q 3231 3078 3670 2659 
Q 4109 2241 4109 1563 
Q 4109 813 3618 361 
Q 3128 -91 2303 -91 
Q 1394 -91 895 523 
Q 397 1138 397 2266 
Q 397 3422 980 4083 
Q 1563 4744 2578 4744 
Q 2900 4744 3203 4694 
Q 3506 4644 3803 4544 
z
" transform="scale(0.015625)"/>
      <path id="DejaVuSans-Bold-78" d="M 1422 1791 
L 159 3500 
L 1344 3500 
L 2059 2463 
L 2784 3500 
L 3969 3500 
L 2706 1797 
L 4031 0 
L 2847 0 
L 2059 1106 
L 1281 0 
L 97 0 
L 1422 1791 
z
" transform="scale(0.015625)"/>
      <path id="DejaVuSans-Bold-6d" d="M 3781 2919 
Q 3994 3244 4286 3414 
Q 4578 3584 4928 3584 
Q 5531 3584 5847 3212 
Q 6163 2841 6163 2131 
L 6163 0 
L 5038 0 
L 5038 1825 
Q 5041 1866 5042 1909 
Q 5044 1953 5044 2034 
Q 5044 2406 4934 2573 
Q 4825 2741 4581 2741 
Q 4263 2741 4089 2478 
Q 3916 2216 3909 1719 
L 3909 0 
L 2784 0 
L 2784 1825 
Q 2784 2406 2684 2573 
Q 2584 2741 2328 2741 
Q 2006 2741 1831 2477 
Q 1656 2213 1656 1722 
L 1656 0 
L 531 0 
L 531 3500 
L 1656 3500 
L 1656 2988 
Q 1863 3284 2130 3434 
Q 2397 3584 2719 3584 
Q 3081 3584 3359 3409 
Q 3638 3234 3781 2919 
z
" transform="scale(0.015625)"/>
      <path id="DejaVuSans-Bold-72" d="M 3138 2547 
Q 2991 2616 2845 2648 
Q 2700 2681 2553 2681 
Q 2122 2681 1889 2404 
Q 1656 2128 1656 1613 
L 1656 0 
L 538 0 
L 538 3500 
L 1656 3500 
L 1656 2925 
Q 1872 3269 2151 3426 
Q 2431 3584 2822 3584 
Q 2878 3584 2943 3579 
Q 3009 3575 3134 3559 
L 3138 2547 
z
" transform="scale(0.015625)"/>
     </defs>
     <use xlink:href="#DejaVuSans-Bold-54"/>
     <use xlink:href="#DejaVuSans-Bold-65" transform="translate(54.962891 0)"/>
     <use xlink:href="#DejaVuSans-Bold-73" transform="translate(122.785156 0)"/>
     <use xlink:href="#DejaVuSans-Bold-74" transform="translate(182.306641 0)"/>
     <use xlink:href="#DejaVuSans-Bold-65" transform="translate(230.109375 0)"/>
     <use xlink:href="#DejaVuSans-Bold-64" transform="translate(297.931641 0)"/>
     <use xlink:href="#DejaVuSans-Bold-3a" transform="translate(369.513672 0)"/>
     <use xlink:href="#DejaVuSans-Bold-20" transform="translate(409.503906 0)"/>
     <use xlink:href="#DejaVuSans-Bold-32" transform="translate(444.318359 0)"/>
     <use xlink:href="#DejaVuSans-Bold-31" transform="translate(513.898438 0)"/>
     <use xlink:href="#DejaVuSans-Bold-34" transform="translate(583.478516 0)"/>
     <use xlink:href="#DejaVuSans-Bold-2c" transform="translate(653.058594 0)"/>
     <use xlink:href="#DejaVuSans-Bold-37" transform="translate(691.046875 0)"/>
     <use xlink:href="#DejaVuSans-Bold-34" transform="translate(760.626953 0)"/>
     <use xlink:href="#DejaVuSans-Bold-38" transform="translate(830.207031 0)"/>
     <use xlink:href="#DejaVuSans-Bold-2c" transform="translate(899.787109 0)"/>
     <use xlink:href="#DejaVuSans-Bold-33" transform="translate(937.775391 0)"/>
     <use xlink:href="#DejaVuSans-Bold-36" transform="translate(1007.355469 0)"/>
     <use xlink:href="#DejaVuSans-Bold-34" transform="translate(1076.935547 0)"/>
     <use xlink:href="#DejaVuSans-Bold-78" transform="translate(1146.515625 0)"/>
     <use xlink:href="#DejaVuSans-Bold-20" transform="translate(1211.017578 0)"/>
     <use xlink:href="#DejaVuSans-Bold-73" transform="translate(1245.832031 0)"/>
     <use xlink:href="#DejaVuSans-Bold-6d" transform="translate(1305.353516 0)"/>
     <use xlink:href="#DejaVuSans-Bold-61" transform="translate(1409.552734 0)"/>
     <use xlink:href="#DejaVuSans-Bold-6c" transform="translate(1477.033203 0)"/>
     <use xlink:href="#DejaVuSans-Bold-6c" transform="translate(1511.310547 0)"/>
     <use xlink:href="#DejaVuSans-Bold-65" transform="translate(1545.587891 0)"/>
     <use xlink:href="#DejaVuSans-Bold-72" transform="translate(1613.410156 0)"/>
    </g>
   </g>
   <g id="text_4">
    <g id="patch_5">
     <path d="M 240.262656 572.222637 
L 601.607656 572.222637 
Q 609.607656 572.222637 609.607656 564.222637 
L 609.607656 548.737637 
Q 609.607656 540.737637 601.607656 540.737637 
L 240.262656 540.737637 
Q 232.262656 540.737637 232.262656 548.737637 
L 232.262656 564.222637 
Q 232.262656 572.222637 240.262656 572.222637 
z
" style="fill: #1e293b; stroke: #00e676; stroke-width: 2; stroke-linejoin: miter"/>
    </g>
    <!-- Source: src/tests/vnx/vnxLmCore.test.ts -->
    <g style="fill: #7a828e" transform="translate(240.262656 560.895137) scale(0.16 -0.16)">
     <defs>
      <path id="DejaVuSans-Bold-53" d="M 3834 4519 
L 3834 3531 
Q 3450 3703 3084 3790 
Q 2719 3878 2394 3878 
Q 1963 3878 1756 3759 
Q 1550 3641 1550 3391 
Q 1550 3203 1689 3098 
Q 1828 2994 2194 2919 
L 2706 2816 
Q 3484 2659 3812 2340 
Q 4141 2022 4141 1434 
Q 4141 663 3683 286 
Q 3225 -91 2284 -91 
Q 1841 -91 1394 -6 
Q 947 78 500 244 
L 500 1259 
Q 947 1022 1364 901 
Q 1781 781 2169 781 
Q 2563 781 2772 912 
Q 2981 1044 2981 1288 
Q 2981 1506 2839 1625 
Q 2697 1744 2272 1838 
L 1806 1941 
Q 1106 2091 782 2419 
Q 459 2747 459 3303 
Q 459 4000 909 4375 
Q 1359 4750 2203 4750 
Q 2588 4750 2994 4692 
Q 3400 4634 3834 4519 
z
" transform="scale(0.015625)"/>
      <path id="DejaVuSans-Bold-6f" d="M 2203 2784 
Q 1831 2784 1636 2517 
Q 1441 2250 1441 1747 
Q 1441 1244 1636 976 
Q 1831 709 2203 709 
Q 2569 709 2762 976 
Q 2956 1244 2956 1747 
Q 2956 2250 2762 2517 
Q 2569 2784 2203 2784 
z
M 2203 3584 
Q 3106 3584 3614 3096 
Q 4122 2609 4122 1747 
Q 4122 884 3614 396 
Q 3106 -91 2203 -91 
Q 1297 -91 786 396 
Q 275 884 275 1747 
Q 275 2609 786 3096 
Q 1297 3584 2203 3584 
z
" transform="scale(0.015625)"/>
      <path id="DejaVuSans-Bold-75" d="M 500 1363 
L 500 3500 
L 1625 3500 
L 1625 3150 
Q 1625 2866 1622 2436 
Q 1619 2006 1619 1863 
Q 1619 1441 1641 1255 
Q 1663 1069 1716 984 
Q 1784 875 1895 815 
Q 2006 756 2150 756 
Q 2500 756 2700 1025 
Q 2900 1294 2900 1772 
L 2900 3500 
L 4019 3500 
L 4019 0 
L 2900 0 
L 2900 506 
Q 2647 200 2364 54 
Q 2081 -91 1741 -91 
Q 1134 -91 817 281 
Q 500 653 500 1363 
z
" transform="scale(0.015625)"/>
      <path id="DejaVuSans-Bold-2f" d="M 1644 4666 
L 2338 4666 
L 691 -594 
L 0 -594 
L 1644 4666 
z
" transform="scale(0.015625)"/>
      <path id="DejaVuSans-Bold-76" d="M 97 3500 
L 1216 3500 
L 2088 1081 
L 2956 3500 
L 4078 3500 
L 2700 0 
L 1472 0 
L 97 3500 
z
" transform="scale(0.015625)"/>
      <path id="DejaVuSans-Bold-6e" d="M 4056 2131 
L 4056 0 
L 2931 0 
L 2931 347 
L 2931 1631 
Q 2931 2084 2911 2256 
Q 2891 2428 2841 2509 
Q 2775 2619 2662 2680 
Q 2550 2741 2406 2741 
Q 2056 2741 1856 2470 
Q 1656 2200 1656 1722 
L 1656 0 
L 538 0 
L 538 3500 
L 1656 3500 
L 1656 2988 
Q 1909 3294 2193 3439 
Q 2478 3584 2822 3584 
Q 3428 3584 3742 3212 
Q 4056 2841 4056 2131 
z
" transform="scale(0.015625)"/>
      <path id="DejaVuSans-Bold-43" d="M 4288 256 
Q 3956 84 3597 -3 
Q 3238 -91 2847 -91 
Q 1681 -91 1000 561 
Q 319 1213 319 2328 
Q 319 3447 1000 4098 
Q 1681 4750 2847 4750 
Q 3238 4750 3597 4662 
Q 3956 4575 4288 4403 
L 4288 3438 
Q 3953 3666 3628 3772 
Q 3303 3878 2944 3878 
Q 2300 3878 1931 3465 
Q 1563 3053 1563 2328 
Q 1563 1606 1931 1193 
Q 2300 781 2944 781 
Q 3303 781 3628 887 
Q 3953 994 4288 1222 
L 4288 256 
z
" transform="scale(0.015625)"/>
      <path id="DejaVuSans-Bold-2e" d="M 653 1209 
L 1778 1209 
L 1778 0 
L 653 0 
L 653 1209 
z
" transform="scale(0.015625)"/>
     </defs>
     <use xlink:href="#DejaVuSans-Bold-53"/>
     <use xlink:href="#DejaVuSans-Bold-6f" transform="translate(72.021484 0)"/>
     <use xlink:href="#DejaVuSans-Bold-75" transform="translate(140.722656 0)"/>
     <use xlink:href="#DejaVuSans-Bold-72" transform="translate(211.914062 0)"/>
     <use xlink:href="#DejaVuSans-Bold-63" transform="translate(261.230469 0)"/>
     <use xlink:href="#DejaVuSans-Bold-65" transform="translate(320.507812 0)"/>
     <use xlink:href="#DejaVuSans-Bold-3a" transform="translate(388.330078 0)"/>
     <use xlink:href="#DejaVuSans-Bold-20" transform="translate(428.320312 0)"/>
     <use xlink:href="#DejaVuSans-Bold-73" transform="translate(463.134766 0)"/>
     <use xlink:href="#DejaVuSans-Bold-72" transform="translate(522.65625 0)"/>
     <use xlink:href="#DejaVuSans-Bold-63" transform="translate(571.972656 0)"/>
     <use xlink:href="#DejaVuSans-Bold-2f" transform="translate(631.25 0)"/>
     <use xlink:href="#DejaVuSans-Bold-74" transform="translate(667.773438 0)"/>
     <use xlink:href="#DejaVuSans-Bold-65" transform="translate(715.576172 0)"/>
     <use xlink:href="#DejaVuSans-Bold-73" transform="translate(783.398438 0)"/>
     <use xlink:href="#DejaVuSans-Bold-74" transform="translate(842.919922 0)"/>
     <use xlink:href="#DejaVuSans-Bold-73" transform="translate(890.722656 0)"/>
     <use xlink:href="#DejaVuSans-Bold-2f" transform="translate(950.244141 0)"/>
     <use xlink:href="#DejaVuSans-Bold-76" transform="translate(986.767578 0)"/>
     <use xlink:href="#DejaVuSans-Bold-6e" transform="translate(1051.953125 0)"/>
     <use xlink:href="#DejaVuSans-Bold-78" transform="translate(1123.144531 0)"/>
     <use xlink:href="#DejaVuSans-Bold-2f" transform="translate(1187.646484 0)"/>
     <use xlink:href="#DejaVuSans-Bold-76" transform="translate(1224.169922 0)"/>
     <use xlink:href="#DejaVuSans-Bold-6e" transform="translate(1289.355469 0)"/>
     <use xlink:href="#DejaVuSans-Bold-78" transform="translate(1360.546875 0)"/>
     <use xlink:href="#DejaVuSans-Bold-4c" transform="translate(1425.048828 0)"/>
     <use xlink:href="#DejaVuSans-Bold-6d" transform="translate(1488.769531 0)"/>
     <use xlink:href="#DejaVuSans-Bold-43" transform="translate(1592.96875 0)"/>
     <use xlink:href="#DejaVuSans-Bold-6f" transform="translate(1666.357422 0)"/>
     <use xlink:href="#DejaVuSans-Bold-72" transform="translate(1735.058594 0)"/>
     <use xlink:href="#DejaVuSans-Bold-65" transform="translate(1784.375 0)"/>
     <use xlink:href="#DejaVuSans-Bold-2e" transform="translate(1852.197266 0)"/>
     <use xlink:href="#DejaVuSans-Bold-74" transform="translate(1890.185547 0)"/>
     <use xlink:href="#DejaVuSans-Bold-65" transform="translate(1937.988281 0)"/>
     <use xlink:href="#DejaVuSans-Bold-73" transform="translate(2005.810547 0)"/>
     <use xlink:href="#DejaVuSans-Bold-74" transform="translate(2065.332031 0)"/>
     <use xlink:href="#DejaVuSans-Bold-2e" transform="translate(2113.134766 0)"/>
     <use xlink:href="#DejaVuSans-Bold-74" transform="translate(2151.123047 0)"/>
     <use xlink:href="#DejaVuSans-Bold-73" transform="translate(2198.925781 0)"/>
    </g>
   </g>
   <g id="text_5">
    <!-- VNX Model Size: &lt;5KB vs GB-Scale Competitors (Tested) -->
    <g style="fill: #f8fafc" transform="translate(7.2 26.955937) scale(0.26 -0.26)">
     <defs>
      <path id="DejaVuSans-Bold-7a" d="M 366 3500 
L 3419 3500 
L 3419 2719 
L 1575 800 
L 3419 800 
L 3419 0 
L 288 0 
L 288 781 
L 2131 2700 
L 366 2700 
L 366 3500 
z
" transform="scale(0.015625)"/>
      <path id="DejaVuSans-Bold-2d" d="M 347 2297 
L 2309 2297 
L 2309 1388 
L 347 1388 
L 347 2297 
z
" transform="scale(0.015625)"/>
     </defs>
     <use xlink:href="#DejaVuSans-Bold-56"/>
     <use xlink:href="#DejaVuSans-Bold-4e" transform="translate(77.392578 0)"/>
     <use xlink:href="#DejaVuSans-Bold-58" transform="translate(161.083984 0)"/>
     <use xlink:href="#DejaVuSans-Bold-20" transform="translate(238.183594 0)"/>
     <use xlink:href="#DejaVuSans-Bold-4d" transform="translate(272.998047 0)"/>
     <use xlink:href="#DejaVuSans-Bold-6f" transform="translate(372.509766 0)"/>
     <use xlink:href="#DejaVuSans-Bold-64" transform="translate(441.210938 0)"/>
     <use xlink:href="#DejaVuSans-Bold-65" transform="translate(512.792969 0)"/>
     <use xlink:href="#DejaVuSans-Bold-6c" transform="translate(580.615234 0)"/>
     <use xlink:href="#DejaVuSans-Bold-20" transform="translate(614.892578 0)"/>
     <use xlink:href="#DejaVuSans-Bold-53" transform="translate(649.707031 0)"/>
     <use xlink:href="#DejaVuSans-Bold-69" transform="translate(721.728516 0)"/>
     <use xlink:href="#DejaVuSans-Bold-7a" transform="translate(756.005859 0)"/>
     <use xlink:href="#DejaVuSans-Bold-65" transform="translate(814.208984 0)"/>
     <use xlink:href="#DejaVuSans-Bold-3a" transform="translate(882.03125 0)"/>
     <use xlink:href="#DejaVuSans-Bold-20" transform="translate(922.021484 0)"/>
     <use xlink:href="#DejaVuSans-Bold-3c" transform="translate(956.835938 0)"/>
     <use xlink:href="#DejaVuSans-Bold-35" transform="translate(1040.625 0)"/>
     <use xlink:href="#DejaVuSans-Bold-4b" transform="translate(1110.205078 0)"/>
     <use xlink:href="#DejaVuSans-Bold-42" transform="translate(1187.695312 0)"/>
     <use xlink:href="#DejaVuSans-Bold-20" transform="translate(1263.916016 0)"/>
     <use xlink:href="#DejaVuSans-Bold-76" transform="translate(1298.730469 0)"/>
     <use xlink:href="#DejaVuSans-Bold-73" transform="translate(1363.916016 0)"/>
     <use xlink:href="#DejaVuSans-Bold-20" transform="translate(1423.4375 0)"/>
     <use xlink:href="#DejaVuSans-Bold-47" transform="translate(1458.251953 0)"/>
     <use xlink:href="#DejaVuSans-Bold-42" transform="translate(1540.332031 0)"/>
     <use xlink:href="#DejaVuSans-Bold-2d" transform="translate(1616.552734 0)"/>
     <use xlink:href="#DejaVuSans-Bold-53" transform="translate(1658.056641 0)"/>
     <use xlink:href="#DejaVuSans-Bold-63" transform="translate(1730.078125 0)"/>
     <use xlink:href="#DejaVuSans-Bold-61" transform="translate(1789.355469 0)"/>
     <use xlink:href="#DejaVuSans-Bold-6c" transform="translate(1856.835938 0)"/>
     <use xlink:href="#DejaVuSans-Bold-65" transform="translate(1891.113281 0)"/>
     <use xlink:href="#DejaVuSans-Bold-20" transform="translate(1958.935547 0)"/>
     <use xlink:href="#DejaVuSans-Bold-43" transform="translate(1993.75 0)"/>
     <use xlink:href="#DejaVuSans-Bold-6f" transform="translate(2067.138672 0)"/>
     <use xlink:href="#DejaVuSans-Bold-6d" transform="translate(2135.839844 0)"/>
     <use xlink:href="#DejaVuSans-Bold-70" transform="translate(2240.039062 0)"/>
     <use xlink:href="#DejaVuSans-Bold-65" transform="translate(2311.621094 0)"/>
     <use xlink:href="#DejaVuSans-Bold-74" transform="translate(2379.443359 0)"/>
     <use xlink:href="#DejaVuSans-Bold-69" transform="translate(2427.246094 0)"/>
     <use xlink:href="#DejaVuSans-Bold-74" transform="translate(2461.523438 0)"/>
     <use xlink:href="#DejaVuSans-Bold-6f" transform="translate(2509.326172 0)"/>
     <use xlink:href="#DejaVuSans-Bold-72" transform="translate(2578.027344 0)"/>
     <use xlink:href="#DejaVuSans-Bold-73" transform="translate(2627.34375 0)"/>
     <use xlink:href="#DejaVuSans-Bold-20" transform="translate(2686.865234 0)"/>
     <use xlink:href="#DejaVuSans-Bold-28" transform="translate(2721.679688 0)"/>
     <use xlink:href="#DejaVuSans-Bold-54" transform="translate(2767.382812 0)"/>
     <use xlink:href="#DejaVuSans-Bold-65" transform="translate(2822.345703 0)"/>
     <use xlink:href="#DejaVuSans-Bold-73" transform="translate(2890.167969 0)"/>
     <use xlink:href="#DejaVuSans-Bold-74" transform="translate(2949.689453 0)"/>
     <use xlink:href="#DejaVuSans-Bold-65" transform="translate(2997.492188 0)"/>
     <use xlink:href="#DejaVuSans-Bold-64" transform="translate(3065.314453 0)"/>
     <use xlink:href="#DejaVuSans-Bold-29" transform="translate(3136.896484 0)"/>
    </g>
   </g>
  </g>
 </g>
 <defs>
  <clipPath id="pf8066c4cd9">
   <rect x="121.559156" y="51.955937" width="598.752" height="598.752"/>
  </clipPath>
 </defs>
</svg>
