<?xml version="1.0" encoding="utf-8" standalone="no"?>
<!DOCTYPE svg PUBLIC "-//W3C//DTD SVG 1.1//EN"
  "http://www.w3.org/Graphics/SVG/1.1/DTD/svg11.dtd">
<svg xmlns:xlink="http://www.w3.org/1999/xlink" width="1130.4pt" height="725.955625pt" viewBox="0 0 1130.4 725.955625" xmlns="http://www.w3.org/2000/svg" version="1.1">
 <metadata>
  <rdf:RDF xmlns:dc="http://purl.org/dc/elements/1.1/" xmlns:cc="http://creativecommons.org/ns#" xmlns:rdf="http://www.w3.org/1999/02/22-rdf-syntax-ns#">
   <cc:Work>
    <dc:type rdf:resource="http://purl.org/dc/dcmitype/StillImage"/>
    <dc:date>2026-05-12T20:42:38.304973</dc:date>
    <dc:format>image/svg+xml</dc:format>
    <dc:creator>
     <cc:Agent>
      <dc:title>Matplotlib v3.10.9, https://matplotlib.org/</dc:title>
     </cc:Agent>
    </dc:creator>
   </cc:Work>
  </rdf:RDF>
 </metadata>
 <defs>
  <style type="text/css">*{stroke-linejoin: round; stroke-linecap: butt}</style>
 </defs>
 <g id="figure_1">
  <g id="patch_1">
   <path d="M 0 725.955625 
L 1130.4 725.955625 
L 1130.4 0 
L 0 0 
z
" style="fill: #0f172a"/>
  </g>
  <g id="axes_1">
   <g id="patch_2">
    <path d="M 74.16 213.635625 
L 219.24 213.635625 
L 219.24 127.395625 
L 74.16 127.395625 
z
" clip-path="url(#p2b307b37ca)" style="fill: #1e293b; stroke-dasharray: 9.25,4; stroke-dashoffset: 0; stroke: #00d4aa; stroke-width: 2.5; stroke-linejoin: miter"/>
   </g>
   <g id="patch_3">
    <path d="M 325.26 213.635625 
L 470.34 213.635625 
L 470.34 127.395625 
L 325.26 127.395625 
z
" clip-path="url(#p2b307b37ca)" style="fill: #1e293b; stroke-dasharray: 9.25,4; stroke-dashoffset: 0; stroke: #00d4aa; stroke-width: 2.5; stroke-linejoin: miter"/>
   </g>
   <g id="patch_4">
    <path d="M 576.36 213.635625 
L 721.44 213.635625 
L 721.44 127.395625 
L 576.36 127.395625 
z
" clip-path="url(#p2b307b37ca)" style="fill: #1e293b; stroke-dasharray: 9.25,4; stroke-dashoffset: 0; stroke: #00d4aa; stroke-width: 2.5; stroke-linejoin: miter"/>
   </g>
   <g id="patch_5">
    <path d="M 827.46 213.635625 
L 972.54 213.635625 
L 972.54 127.395625 
L 827.46 127.395625 
z
" clip-path="url(#p2b307b37ca)" style="fill: #1e293b; stroke-dasharray: 9.25,4; stroke-dashoffset: 0; stroke: #00d4aa; stroke-width: 2.5; stroke-linejoin: miter"/>
   </g>
   <g id="patch_6">
    <path d="M 40.68 386.115625 
L 196.92 386.115625 
L 196.92 287.555625 
L 40.68 287.555625 
z
" clip-path="url(#p2b307b37ca)" style="fill: #ffd700; stroke: #f8fafc; stroke-width: 3; stroke-linejoin: miter"/>
   </g>
   <g id="patch_7">
    <path d="M 219.24 386.115625 
L 375.48 386.115625 
L 375.48 287.555625 
L 219.24 287.555625 
z
" clip-path="url(#p2b307b37ca)" style="fill: #ffd700; stroke: #f8fafc; stroke-width: 3; stroke-linejoin: miter"/>
   </g>
   <g id="patch_8">
    <path d="M 397.8 386.115625 
L 554.04 386.115625 
L 554.04 287.555625 
L 397.8 287.555625 
z
" clip-path="url(#p2b307b37ca)" style="fill: #ffd700; stroke: #f8fafc; stroke-width: 3; stroke-linejoin: miter"/>
   </g>
   <g id="patch_9">
    <path d="M 576.36 386.115625 
L 732.6 386.115625 
L 732.6 287.555625 
L 576.36 287.555625 
z
" clip-path="url(#p2b307b37ca)" style="fill: #ffd700; stroke: #f8fafc; stroke-width: 3; stroke-linejoin: miter"/>
   </g>
   <g id="patch_10">
    <path d="M 754.92 386.115625 
L 911.16 386.115625 
L 911.16 287.555625 
L 754.92 287.555625 
z
" clip-path="url(#p2b307b37ca)" style="fill: #ffd700; stroke: #f8fafc; stroke-width: 3; stroke-linejoin: miter"/>
   </g>
   <g id="patch_11">
    <path d="M 933.48 386.115625 
L 1089.72 386.115625 
L 1089.72 287.555625 
L 933.48 287.555625 
z
" clip-path="url(#p2b307b37ca)" style="fill: #ffd700; stroke: #f8fafc; stroke-width: 3; stroke-linejoin: miter"/>
   </g>
   <g id="patch_12">
    <path d="M 208.08 558.595625 
L 364.32 558.595625 
L 364.32 472.355625 
L 208.08 472.355625 
z
" clip-path="url(#p2b307b37ca)" style="fill: #1e293b; stroke: #00e676; stroke-width: 2.5; stroke-linejoin: miter"/>
   </g>
   <g id="patch_13">
    <path d="M 487.08 558.595625 
L 643.32 558.595625 
L 643.32 472.355625 
L 487.08 472.355625 
z
" clip-path="url(#p2b307b37ca)" style="fill: #1e293b; stroke: #00e676; stroke-width: 2.5; stroke-linejoin: miter"/>
   </g>
   <g id="patch_14">
    <path d="M 766.08 558.595625 
L 922.32 558.595625 
L 922.32 472.355625 
L 766.08 472.355625 
z
" clip-path="url(#p2b307b37ca)" style="fill: #1e293b; stroke: #00e676; stroke-width: 2.5; stroke-linejoin: miter"/>
   </g>
   <g id="text_1">
    <!-- Model -->
    <g style="fill: #00d4aa" transform="translate(122.766563 166.485594) scale(0.14 -0.14)">
     <defs>
      <path id="DejaVuSans-Bold-4d" d="M 588 4666 
L 2119 4666 
L 3181 2169 
L 4250 4666 
L 5778 4666 
L 5778 0 
L 4641 0 
L 4641 3413 
L 3566 897 
L 2803 897 
L 1728 3413 
L 1728 0 
L 588 0 
L 588 4666 
z
" transform="scale(0.015625)"/>
      <path id="DejaVuSans-Bold-6f" d="M 2203 2784 
Q 1831 2784 1636 2517 
Q 1441 2250 1441 1747 
Q 1441 1244 1636 976 
Q 1831 709 2203 709 
Q 2569 709 2762 976 
Q 2956 1244 2956 1747 
Q 2956 2250 2762 2517 
Q 2569 2784 2203 2784 
z
M 2203 3584 
Q 3106 3584 3614 3096 
Q 4122 2609 4122 1747 
Q 4122 884 3614 396 
Q 3106 -91 2203 -91 
Q 1297 -91 786 396 
Q 275 884 275 1747 
Q 275 2609 786 3096 
Q 1297 3584 2203 3584 
z
" transform="scale(0.015625)"/>
      <path id="DejaVuSans-Bold-64" d="M 2919 2988 
L 2919 4863 
L 4044 4863 
L 4044 0 
L 2919 0 
L 2919 506 
Q 2688 197 2409 53 
Q 2131 -91 1766 -91 
Q 1119 -91 703 423 
Q 288 938 288 1747 
Q 288 2556 703 3070 
Q 1119 3584 1766 3584 
Q 2128 3584 2408 3439 
Q 2688 3294 2919 2988 
z
M 2181 722 
Q 2541 722 2730 984 
Q 2919 1247 2919 1747 
Q 2919 2247 2730 2509 
Q 2541 2772 2181 2772 
Q 1825 2772 1636 2509 
Q 1447 2247 1447 1747 
Q 1447 1247 1636 984 
Q 1825 722 2181 722 
z
" transform="scale(0.015625)"/>
      <path id="DejaVuSans-Bold-65" d="M 4031 1759 
L 4031 1441 
L 1416 1441 
Q 1456 1047 1700 850 
Q 1944 653 2381 653 
Q 2734 653 3104 758 
Q 3475 863 3866 1075 
L 3866 213 
Q 3469 63 3072 -14 
Q 2675 -91 2278 -91 
Q 1328 -91 801 392 
Q 275 875 275 1747 
Q 275 2603 792 3093 
Q 1309 3584 2216 3584 
Q 3041 3584 3536 3087 
Q 4031 2591 4031 1759 
z
M 2881 2131 
Q 2881 2450 2695 2645 
Q 2509 2841 2209 2841 
Q 1884 2841 1681 2658 
Q 1478 2475 1428 2131 
L 2881 2131 
z
" transform="scale(0.015625)"/>
      <path id="DejaVuSans-Bold-6c" d="M 538 4863 
L 1656 4863 
L 1656 0 
L 538 0 
L 538 4863 
z
" transform="scale(0.015625)"/>
     </defs>
     <use xlink:href="#DejaVuSans-Bold-4d"/>
     <use xlink:href="#DejaVuSans-Bold-6f" transform="translate(99.511719 0)"/>
     <use xlink:href="#DejaVuSans-Bold-64" transform="translate(168.212891 0)"/>
     <use xlink:href="#DejaVuSans-Bold-65" transform="translate(239.794922 0)"/>
     <use xlink:href="#DejaVuSans-Bold-6c" transform="translate(307.617188 0)"/>
    </g>
    <!-- Weights -->
    <g style="fill: #00d4aa" transform="translate(114.579844 182.162531) scale(0.14 -0.14)">
     <defs>
      <path id="DejaVuSans-Bold-57" d="M 191 4666 
L 1344 4666 
L 2150 1275 
L 2950 4666 
L 4109 4666 
L 4909 1275 
L 5716 4666 
L 6859 4666 
L 5759 0 
L 4372 0 
L 3525 3547 
L 2688 0 
L 1300 0 
L 191 4666 
z
" transform="scale(0.015625)"/>
      <path id="DejaVuSans-Bold-69" d="M 538 3500 
L 1656 3500 
L 1656 0 
L 538 0 
L 538 3500 
z
M 538 4863 
L 1656 4863 
L 1656 3950 
L 538 3950 
L 538 4863 
z
" transform="scale(0.015625)"/>
      <path id="DejaVuSans-Bold-67" d="M 2919 594 
Q 2688 288 2409 144 
Q 2131 0 1766 0 
Q 1125 0 706 504 
Q 288 1009 288 1791 
Q 288 2575 706 3076 
Q 1125 3578 1766 3578 
Q 2131 3578 2409 3434 
Q 2688 3291 2919 2981 
L 2919 3500 
L 4044 3500 
L 4044 353 
Q 4044 -491 3511 -936 
Q 2978 -1381 1966 -1381 
Q 1638 -1381 1331 -1331 
Q 1025 -1281 716 -1178 
L 716 -306 
Q 1009 -475 1290 -558 
Q 1572 -641 1856 -641 
Q 2406 -641 2662 -400 
Q 2919 -159 2919 353 
L 2919 594 
z
M 2181 2772 
Q 1834 2772 1640 2515 
Q 1447 2259 1447 1791 
Q 1447 1309 1634 1061 
Q 1822 813 2181 813 
Q 2531 813 2725 1069 
Q 2919 1325 2919 1791 
Q 2919 2259 2725 2515 
Q 2531 2772 2181 2772 
z
" transform="scale(0.015625)"/>
      <path id="DejaVuSans-Bold-68" d="M 4056 2131 
L 4056 0 
L 2931 0 
L 2931 347 
L 2931 1625 
Q 2931 2084 2911 2256 
Q 2891 2428 2841 2509 
Q 2775 2619 2662 2680 
Q 2550 2741 2406 2741 
Q 2056 2741 1856 2470 
Q 1656 2200 1656 1722 
L 1656 0 
L 538 0 
L 538 4863 
L 1656 4863 
L 1656 2988 
Q 1909 3294 2193 3439 
Q 2478 3584 2822 3584 
Q 3428 3584 3742 3212 
Q 4056 2841 4056 2131 
z
" transform="scale(0.015625)"/>
      <path id="DejaVuSans-Bold-74" d="M 1759 4494 
L 1759 3500 
L 2913 3500 
L 2913 2700 
L 1759 2700 
L 1759 1216 
Q 1759 972 1856 886 
Q 1953 800 2241 800 
L 2816 800 
L 2816 0 
L 1856 0 
Q 1194 0 917 276 
Q 641 553 641 1216 
L 641 2700 
L 84 2700 
L 84 3500 
L 641 3500 
L 641 4494 
L 1759 4494 
z
" transform="scale(0.015625)"/>
      <path id="DejaVuSans-Bold-73" d="M 3272 3391 
L 3272 2541 
Q 2913 2691 2578 2766 
Q 2244 2841 1947 2841 
Q 1628 2841 1473 2761 
Q 1319 2681 1319 2516 
Q 1319 2381 1436 2309 
Q 1553 2238 1856 2203 
L 2053 2175 
Q 2913 2066 3209 1816 
Q 3506 1566 3506 1031 
Q 3506 472 3093 190 
Q 2681 -91 1863 -91 
Q 1516 -91 1145 -36 
Q 775 19 384 128 
L 384 978 
Q 719 816 1070 734 
Q 1422 653 1784 653 
Q 2113 653 2278 743 
Q 2444 834 2444 1013 
Q 2444 1163 2330 1236 
Q 2216 1309 1875 1350 
L 1678 1375 
Q 931 1469 631 1722 
Q 331 1975 331 2491 
Q 331 3047 712 3315 
Q 1094 3584 1881 3584 
Q 2191 3584 2531 3537 
Q 2872 3491 3272 3391 
z
" transform="scale(0.015625)"/>
     </defs>
     <use xlink:href="#DejaVuSans-Bold-57"/>
     <use xlink:href="#DejaVuSans-Bold-65" transform="translate(106.677734 0)"/>
     <use xlink:href="#DejaVuSans-Bold-69" transform="translate(174.5 0)"/>
     <use xlink:href="#DejaVuSans-Bold-67" transform="translate(208.777344 0)"/>
     <use xlink:href="#DejaVuSans-Bold-68" transform="translate(280.359375 0)"/>
     <use xlink:href="#DejaVuSans-Bold-74" transform="translate(351.550781 0)"/>
     <use xlink:href="#DejaVuSans-Bold-73" transform="translate(399.353516 0)"/>
    </g>
   </g>
   <g id="text_2">
    <!-- User -->
    <g style="fill: #00d4aa" transform="translate(379.749844 166.540281) scale(0.14 -0.14)">
     <defs>
      <path id="DejaVuSans-Bold-55" d="M 588 4666 
L 1791 4666 
L 1791 1869 
Q 1791 1291 1980 1042 
Q 2169 794 2597 794 
Q 3028 794 3217 1042 
Q 3406 1291 3406 1869 
L 3406 4666 
L 4609 4666 
L 4609 1869 
Q 4609 878 4112 393 
Q 3616 -91 2597 -91 
Q 1581 -91 1084 393 
Q 588 878 588 1869 
L 588 4666 
z
" transform="scale(0.015625)"/>
      <path id="DejaVuSans-Bold-72" d="M 3138 2547 
Q 2991 2616 2845 2648 
Q 2700 2681 2553 2681 
Q 2122 2681 1889 2404 
Q 1656 2128 1656 1613 
L 1656 0 
L 538 0 
L 538 3500 
L 1656 3500 
L 1656 2925 
Q 1872 3269 2151 3426 
Q 2431 3584 2822 3584 
Q 2878 3584 2943 3579 
Q 3009 3575 3134 3559 
L 3138 2547 
z
" transform="scale(0.015625)"/>
     </defs>
     <use xlink:href="#DejaVuSans-Bold-55"/>
     <use xlink:href="#DejaVuSans-Bold-73" transform="translate(81.201172 0)"/>
     <use xlink:href="#DejaVuSans-Bold-65" transform="translate(140.722656 0)"/>
     <use xlink:href="#DejaVuSans-Bold-72" transform="translate(208.544922 0)"/>
    </g>
    <!-- Prompt -->
    <g style="fill: #00d4aa" transform="translate(368.757656 182.217219) scale(0.14 -0.14)">
     <defs>
      <path id="DejaVuSans-Bold-50" d="M 588 4666 
L 2584 4666 
Q 3475 4666 3951 4270 
Q 4428 3875 4428 3144 
Q 4428 2409 3951 2014 
Q 3475 1619 2584 1619 
L 1791 1619 
L 1791 0 
L 588 0 
L 588 4666 
z
M 1791 3794 
L 1791 2491 
L 2456 2491 
Q 2806 2491 2997 2661 
Q 3188 2831 3188 3144 
Q 3188 3456 2997 3625 
Q 2806 3794 2456 3794 
L 1791 3794 
z
" transform="scale(0.015625)"/>
      <path id="DejaVuSans-Bold-6d" d="M 3781 2919 
Q 3994 3244 4286 3414 
Q 4578 3584 4928 3584 
Q 5531 3584 5847 3212 
Q 6163 2841 6163 2131 
L 6163 0 
L 5038 0 
L 5038 1825 
Q 5041 1866 5042 1909 
Q 5044 1953 5044 2034 
Q 5044 2406 4934 2573 
Q 4825 2741 4581 2741 
Q 4263 2741 4089 2478 
Q 3916 2216 3909 1719 
L 3909 0 
L 2784 0 
L 2784 1825 
Q 2784 2406 2684 2573 
Q 2584 2741 2328 2741 
Q 2006 2741 1831 2477 
Q 1656 2213 1656 1722 
L 1656 0 
L 531 0 
L 531 3500 
L 1656 3500 
L 1656 2988 
Q 1863 3284 2130 3434 
Q 2397 3584 2719 3584 
Q 3081 3584 3359 3409 
Q 3638 3234 3781 2919 
z
" transform="scale(0.015625)"/>
      <path id="DejaVuSans-Bold-70" d="M 1656 506 
L 1656 -1331 
L 538 -1331 
L 538 3500 
L 1656 3500 
L 1656 2988 
Q 1888 3294 2169 3439 
Q 2450 3584 2816 3584 
Q 3463 3584 3878 3070 
Q 4294 2556 4294 1747 
Q 4294 938 3878 423 
Q 3463 -91 2816 -91 
Q 2450 -91 2169 54 
Q 1888 200 1656 506 
z
M 2400 2772 
Q 2041 2772 1848 2508 
Q 1656 2244 1656 1747 
Q 1656 1250 1848 986 
Q 2041 722 2400 722 
Q 2759 722 2948 984 
Q 3138 1247 3138 1747 
Q 3138 2247 2948 2509 
Q 2759 2772 2400 2772 
z
" transform="scale(0.015625)"/>
     </defs>
     <use xlink:href="#DejaVuSans-Bold-50"/>
     <use xlink:href="#DejaVuSans-Bold-72" transform="translate(73.291016 0)"/>
     <use xlink:href="#DejaVuSans-Bold-6f" transform="translate(122.607422 0)"/>
     <use xlink:href="#DejaVuSans-Bold-6d" transform="translate(191.308594 0)"/>
     <use xlink:href="#DejaVuSans-Bold-70" transform="translate(295.507812 0)"/>
     <use xlink:href="#DejaVuSans-Bold-74" transform="translate(367.089844 0)"/>
    </g>
   </g>
   <g id="text_3">
    <!-- Inference -->
    <g style="fill: #00d4aa" transform="translate(611.439063 166.485594) scale(0.14 -0.14)">
     <defs>
      <path id="DejaVuSans-Bold-49" d="M 588 4666 
L 1791 4666 
L 1791 0 
L 588 0 
L 588 4666 
z
" transform="scale(0.015625)"/>
      <path id="DejaVuSans-Bold-6e" d="M 4056 2131 
L 4056 0 
L 2931 0 
L 2931 347 
L 2931 1631 
Q 2931 2084 2911 2256 
Q 2891 2428 2841 2509 
Q 2775 2619 2662 2680 
Q 2550 2741 2406 2741 
Q 2056 2741 1856 2470 
Q 1656 2200 1656 1722 
L 1656 0 
L 538 0 
L 538 3500 
L 1656 3500 
L 1656 2988 
Q 1909 3294 2193 3439 
Q 2478 3584 2822 3584 
Q 3428 3584 3742 3212 
Q 4056 2841 4056 2131 
z
" transform="scale(0.015625)"/>
      <path id="DejaVuSans-Bold-66" d="M 2841 4863 
L 2841 4128 
L 2222 4128 
Q 1984 4128 1890 4042 
Q 1797 3956 1797 3744 
L 1797 3500 
L 2753 3500 
L 2753 2700 
L 1797 2700 
L 1797 0 
L 678 0 
L 678 2700 
L 122 2700 
L 122 3500 
L 678 3500 
L 678 3744 
Q 678 4316 997 4589 
Q 1316 4863 1984 4863 
L 2841 4863 
z
" transform="scale(0.015625)"/>
      <path id="DejaVuSans-Bold-63" d="M 3366 3391 
L 3366 2478 
Q 3138 2634 2908 2709 
Q 2678 2784 2431 2784 
Q 1963 2784 1702 2511 
Q 1441 2238 1441 1747 
Q 1441 1256 1702 982 
Q 1963 709 2431 709 
Q 2694 709 2930 787 
Q 3166 866 3366 1019 
L 3366 103 
Q 3103 6 2833 -42 
Q 2563 -91 2291 -91 
Q 1344 -91 809 395 
Q 275 881 275 1747 
Q 275 2613 809 3098 
Q 1344 3584 2291 3584 
Q 2566 3584 2833 3536 
Q 3100 3488 3366 3391 
z
" transform="scale(0.015625)"/>
     </defs>
     <use xlink:href="#DejaVuSans-Bold-49"/>
     <use xlink:href="#DejaVuSans-Bold-6e" transform="translate(37.207031 0)"/>
     <use xlink:href="#DejaVuSans-Bold-66" transform="translate(108.398438 0)"/>
     <use xlink:href="#DejaVuSans-Bold-65" transform="translate(151.904297 0)"/>
     <use xlink:href="#DejaVuSans-Bold-72" transform="translate(219.726562 0)"/>
     <use xlink:href="#DejaVuSans-Bold-65" transform="translate(269.042969 0)"/>
     <use xlink:href="#DejaVuSans-Bold-6e" transform="translate(336.865234 0)"/>
     <use xlink:href="#DejaVuSans-Bold-63" transform="translate(408.056641 0)"/>
     <use xlink:href="#DejaVuSans-Bold-65" transform="translate(467.333984 0)"/>
    </g>
    <!-- Engine -->
    <g style="fill: #00d4aa" transform="translate(621.99375 182.162531) scale(0.14 -0.14)">
     <defs>
      <path id="DejaVuSans-Bold-45" d="M 588 4666 
L 3834 4666 
L 3834 3756 
L 1791 3756 
L 1791 2888 
L 3713 2888 
L 3713 1978 
L 1791 1978 
L 1791 909 
L 3903 909 
L 3903 0 
L 588 0 
L 588 4666 
z
" transform="scale(0.015625)"/>
     </defs>
     <use xlink:href="#DejaVuSans-Bold-45"/>
     <use xlink:href="#DejaVuSans-Bold-6e" transform="translate(68.310547 0)"/>
     <use xlink:href="#DejaVuSans-Bold-67" transform="translate(139.501953 0)"/>
     <use xlink:href="#DejaVuSans-Bold-69" transform="translate(211.083984 0)"/>
     <use xlink:href="#DejaVuSans-Bold-6e" transform="translate(245.361328 0)"/>
     <use xlink:href="#DejaVuSans-Bold-65" transform="translate(316.552734 0)"/>
    </g>
   </g>
   <g id="text_4">
    <!-- Execution -->
    <g style="fill: #00d4aa" transform="translate(861.284531 166.540281) scale(0.14 -0.14)">
     <defs>
      <path id="DejaVuSans-Bold-78" d="M 1422 1791 
L 159 3500 
L 1344 3500 
L 2059 2463 
L 2784 3500 
L 3969 3500 
L 2706 1797 
L 4031 0 
L 2847 0 
L 2059 1106 
L 1281 0 
L 97 0 
L 1422 1791 
z
" transform="scale(0.015625)"/>
      <path id="DejaVuSans-Bold-75" d="M 500 1363 
L 500 3500 
L 1625 3500 
L 1625 3150 
Q 1625 2866 1622 2436 
Q 1619 2006 1619 1863 
Q 1619 1441 1641 1255 
Q 1663 1069 1716 984 
Q 1784 875 1895 815 
Q 2006 756 2150 756 
Q 2500 756 2700 1025 
Q 2900 1294 2900 1772 
L 2900 3500 
L 4019 3500 
L 4019 0 
L 2900 0 
L 2900 506 
Q 2647 200 2364 54 
Q 2081 -91 1741 -91 
Q 1134 -91 817 281 
Q 500 653 500 1363 
z
" transform="scale(0.015625)"/>
     </defs>
     <use xlink:href="#DejaVuSans-Bold-45"/>
     <use xlink:href="#DejaVuSans-Bold-78" transform="translate(68.310547 0)"/>
     <use xlink:href="#DejaVuSans-Bold-65" transform="translate(132.8125 0)"/>
     <use xlink:href="#DejaVuSans-Bold-63" transform="translate(200.634766 0)"/>
     <use xlink:href="#DejaVuSans-Bold-75" transform="translate(259.912109 0)"/>
     <use xlink:href="#DejaVuSans-Bold-74" transform="translate(331.103516 0)"/>
     <use xlink:href="#DejaVuSans-Bold-69" transform="translate(378.90625 0)"/>
     <use xlink:href="#DejaVuSans-Bold-6f" transform="translate(413.183594 0)"/>
     <use xlink:href="#DejaVuSans-Bold-6e" transform="translate(481.884766 0)"/>
    </g>
    <!-- Trace -->
    <g style="fill: #00d4aa" transform="translate(878.92125 182.217219) scale(0.14 -0.14)">
     <defs>
      <path id="DejaVuSans-Bold-54" d="M 31 4666 
L 4331 4666 
L 4331 3756 
L 2784 3756 
L 2784 0 
L 1581 0 
L 1581 3756 
L 31 3756 
L 31 4666 
z
" transform="scale(0.015625)"/>
      <path id="DejaVuSans-Bold-61" d="M 2106 1575 
Q 1756 1575 1579 1456 
Q 1403 1338 1403 1106 
Q 1403 894 1545 773 
Q 1688 653 1941 653 
Q 2256 653 2472 879 
Q 2688 1106 2688 1447 
L 2688 1575 
L 2106 1575 
z
M 3816 1997 
L 3816 0 
L 2688 0 
L 2688 519 
Q 2463 200 2181 54 
Q 1900 -91 1497 -91 
Q 953 -91 614 226 
Q 275 544 275 1050 
Q 275 1666 698 1953 
Q 1122 2241 2028 2241 
L 2688 2241 
L 2688 2328 
Q 2688 2594 2478 2717 
Q 2269 2841 1825 2841 
Q 1466 2841 1156 2769 
Q 847 2697 581 2553 
L 581 3406 
Q 941 3494 1303 3539 
Q 1666 3584 2028 3584 
Q 2975 3584 3395 3211 
Q 3816 2838 3816 1997 
z
" transform="scale(0.015625)"/>
     </defs>
     <use xlink:href="#DejaVuSans-Bold-54"/>
     <use xlink:href="#DejaVuSans-Bold-72" transform="translate(57.212891 0)"/>
     <use xlink:href="#DejaVuSans-Bold-61" transform="translate(106.529297 0)"/>
     <use xlink:href="#DejaVuSans-Bold-63" transform="translate(174.009766 0)"/>
     <use xlink:href="#DejaVuSans-Bold-65" transform="translate(233.287109 0)"/>
    </g>
   </g>
   <g id="patch_15">
    <path d="M 146.7 218.717136 
Q 146.7 249.055988 146.7 277.158773 
" style="fill: none; stroke: #7a828e; stroke-width: 2; stroke-linecap: round"/>
    <path d="M 148.7 273.158773 
L 146.7 277.158773 
L 144.7 273.158773 
" style="fill: none; stroke: #7a828e; stroke-width: 2; stroke-linecap: round"/>
   </g>
   <g id="patch_16">
    <path d="M 397.8 218.717136 
Q 397.8 249.055988 397.8 277.158773 
" style="fill: none; stroke: #7a828e; stroke-width: 2; stroke-linecap: round"/>
    <path d="M 399.8 273.158773 
L 397.8 277.158773 
L 395.8 273.158773 
" style="fill: none; stroke: #7a828e; stroke-width: 2; stroke-linecap: round"/>
   </g>
   <g id="patch_17">
    <path d="M 648.9 218.717136 
Q 648.9 249.055988 648.9 277.158773 
" style="fill: none; stroke: #7a828e; stroke-width: 2; stroke-linecap: round"/>
    <path d="M 650.9 273.158773 
L 648.9 277.158773 
L 646.9 273.158773 
" style="fill: none; stroke: #7a828e; stroke-width: 2; stroke-linecap: round"/>
   </g>
   <g id="patch_18">
    <path d="M 900 218.717136 
Q 900 249.055988 900 277.158773 
" style="fill: none; stroke: #7a828e; stroke-width: 2; stroke-linecap: round"/>
    <path d="M 902 273.158773 
L 900 277.158773 
L 898 273.158773 
" style="fill: none; stroke: #7a828e; stroke-width: 2; stroke-linecap: round"/>
   </g>
   <g id="text_5">
    <!-- Model -->
    <g style="fill: #0f172a" transform="translate(93.157031 332.576328) scale(0.15 -0.15)">
     <use xlink:href="#DejaVuSans-Bold-4d"/>
     <use xlink:href="#DejaVuSans-Bold-6f" transform="translate(99.511719 0)"/>
     <use xlink:href="#DejaVuSans-Bold-64" transform="translate(168.212891 0)"/>
     <use xlink:href="#DejaVuSans-Bold-65" transform="translate(239.794922 0)"/>
     <use xlink:href="#DejaVuSans-Bold-6c" transform="translate(307.617188 0)"/>
    </g>
    <!-- Hash -->
    <g style="fill: #0f172a" transform="translate(97.659375 349.373047) scale(0.15 -0.15)">
     <defs>
      <path id="DejaVuSans-Bold-48" d="M 588 4666 
L 1791 4666 
L 1791 2888 
L 3566 2888 
L 3566 4666 
L 4769 4666 
L 4769 0 
L 3566 0 
L 3566 1978 
L 1791 1978 
L 1791 0 
L 588 0 
L 588 4666 
z
" transform="scale(0.015625)"/>
     </defs>
     <use xlink:href="#DejaVuSans-Bold-48"/>
     <use xlink:href="#DejaVuSans-Bold-61" transform="translate(83.691406 0)"/>
     <use xlink:href="#DejaVuSans-Bold-73" transform="translate(151.171875 0)"/>
     <use xlink:href="#DejaVuSans-Bold-68" transform="translate(210.693359 0)"/>
    </g>
   </g>
   <g id="patch_19">
    <path d="M 204.502588 336.835625 
Q 208.081938 336.835625 208.307186 336.835625 
" style="fill: none; stroke: #00d4aa; stroke-width: 3; stroke-linecap: round"/>
    <path d="M 204.307186 334.835625 
L 208.307186 336.835625 
L 204.307186 338.835625 
" style="fill: none; stroke: #00d4aa; stroke-width: 3; stroke-linecap: round"/>
   </g>
   <g id="text_6">
    <!-- Prompt -->
    <g style="fill: #0f172a" transform="translate(266.243203 332.576328) scale(0.15 -0.15)">
     <use xlink:href="#DejaVuSans-Bold-50"/>
     <use xlink:href="#DejaVuSans-Bold-72" transform="translate(73.291016 0)"/>
     <use xlink:href="#DejaVuSans-Bold-6f" transform="translate(122.607422 0)"/>
     <use xlink:href="#DejaVuSans-Bold-6d" transform="translate(191.308594 0)"/>
     <use xlink:href="#DejaVuSans-Bold-70" transform="translate(295.507812 0)"/>
     <use xlink:href="#DejaVuSans-Bold-74" transform="translate(367.089844 0)"/>
    </g>
    <!-- Hash -->
    <g style="fill: #0f172a" transform="translate(276.219375 349.373047) scale(0.15 -0.15)">
     <use xlink:href="#DejaVuSans-Bold-48"/>
     <use xlink:href="#DejaVuSans-Bold-61" transform="translate(83.691406 0)"/>
     <use xlink:href="#DejaVuSans-Bold-73" transform="translate(151.171875 0)"/>
     <use xlink:href="#DejaVuSans-Bold-68" transform="translate(210.693359 0)"/>
    </g>
   </g>
   <g id="patch_20">
    <path d="M 383.062588 336.835625 
Q 386.641938 336.835625 386.867186 336.835625 
" style="fill: none; stroke: #00d4aa; stroke-width: 3; stroke-linecap: round"/>
    <path d="M 382.867186 334.835625 
L 386.867186 336.835625 
L 382.867186 338.835625 
" style="fill: none; stroke: #00d4aa; stroke-width: 3; stroke-linecap: round"/>
   </g>
   <g id="text_7">
    <!-- Output -->
    <g style="fill: #0f172a" transform="translate(446.327813 332.576328) scale(0.15 -0.15)">
     <defs>
      <path id="DejaVuSans-Bold-4f" d="M 2719 3878 
Q 2169 3878 1866 3472 
Q 1563 3066 1563 2328 
Q 1563 1594 1866 1187 
Q 2169 781 2719 781 
Q 3272 781 3575 1187 
Q 3878 1594 3878 2328 
Q 3878 3066 3575 3472 
Q 3272 3878 2719 3878 
z
M 2719 4750 
Q 3844 4750 4481 4106 
Q 5119 3463 5119 2328 
Q 5119 1197 4481 553 
Q 3844 -91 2719 -91 
Q 1597 -91 958 553 
Q 319 1197 319 2328 
Q 319 3463 958 4106 
Q 1597 4750 2719 4750 
z
" transform="scale(0.015625)"/>
     </defs>
     <use xlink:href="#DejaVuSans-Bold-4f"/>
     <use xlink:href="#DejaVuSans-Bold-75" transform="translate(85.009766 0)"/>
     <use xlink:href="#DejaVuSans-Bold-74" transform="translate(156.201172 0)"/>
     <use xlink:href="#DejaVuSans-Bold-70" transform="translate(204.003906 0)"/>
     <use xlink:href="#DejaVuSans-Bold-75" transform="translate(275.585938 0)"/>
     <use xlink:href="#DejaVuSans-Bold-74" transform="translate(346.777344 0)"/>
    </g>
    <!-- Hash -->
    <g style="fill: #0f172a" transform="translate(454.779375 349.373047) scale(0.15 -0.15)">
     <use xlink:href="#DejaVuSans-Bold-48"/>
     <use xlink:href="#DejaVuSans-Bold-61" transform="translate(83.691406 0)"/>
     <use xlink:href="#DejaVuSans-Bold-73" transform="translate(151.171875 0)"/>
     <use xlink:href="#DejaVuSans-Bold-68" transform="translate(210.693359 0)"/>
    </g>
   </g>
   <g id="patch_21">
    <path d="M 561.622588 336.835625 
Q 565.201938 336.835625 565.427186 336.835625 
" style="fill: none; stroke: #00d4aa; stroke-width: 3; stroke-linecap: round"/>
    <path d="M 561.427186 334.835625 
L 565.427186 336.835625 
L 561.427186 338.835625 
" style="fill: none; stroke: #00d4aa; stroke-width: 3; stroke-linecap: round"/>
   </g>
   <g id="text_8">
    <!-- Trace -->
    <g style="fill: #0f172a" transform="translate(631.895625 332.576328) scale(0.15 -0.15)">
     <use xlink:href="#DejaVuSans-Bold-54"/>
     <use xlink:href="#DejaVuSans-Bold-72" transform="translate(57.212891 0)"/>
     <use xlink:href="#DejaVuSans-Bold-61" transform="translate(106.529297 0)"/>
     <use xlink:href="#DejaVuSans-Bold-63" transform="translate(174.009766 0)"/>
     <use xlink:href="#DejaVuSans-Bold-65" transform="translate(233.287109 0)"/>
    </g>
    <!-- Hash -->
    <g style="fill: #0f172a" transform="translate(633.339375 349.373047) scale(0.15 -0.15)">
     <use xlink:href="#DejaVuSans-Bold-48"/>
     <use xlink:href="#DejaVuSans-Bold-61" transform="translate(83.691406 0)"/>
     <use xlink:href="#DejaVuSans-Bold-73" transform="translate(151.171875 0)"/>
     <use xlink:href="#DejaVuSans-Bold-68" transform="translate(210.693359 0)"/>
    </g>
   </g>
   <g id="patch_22">
    <path d="M 740.182588 336.835625 
Q 743.761938 336.835625 743.987186 336.835625 
" style="fill: none; stroke: #00d4aa; stroke-width: 3; stroke-linecap: round"/>
    <path d="M 739.987186 334.835625 
L 743.987186 336.835625 
L 739.987186 338.835625 
" style="fill: none; stroke: #00d4aa; stroke-width: 3; stroke-linecap: round"/>
   </g>
   <g id="text_9">
    <!-- Proof -->
    <g style="fill: #0f172a" transform="translate(810.276328 332.576328) scale(0.15 -0.15)">
     <use xlink:href="#DejaVuSans-Bold-50"/>
     <use xlink:href="#DejaVuSans-Bold-72" transform="translate(73.291016 0)"/>
     <use xlink:href="#DejaVuSans-Bold-6f" transform="translate(122.607422 0)"/>
     <use xlink:href="#DejaVuSans-Bold-6f" transform="translate(191.308594 0)"/>
     <use xlink:href="#DejaVuSans-Bold-66" transform="translate(260.009766 0)"/>
    </g>
    <!-- Hash -->
    <g style="fill: #0f172a" transform="translate(811.899375 349.373047) scale(0.15 -0.15)">
     <use xlink:href="#DejaVuSans-Bold-48"/>
     <use xlink:href="#DejaVuSans-Bold-61" transform="translate(83.691406 0)"/>
     <use xlink:href="#DejaVuSans-Bold-73" transform="translate(151.171875 0)"/>
     <use xlink:href="#DejaVuSans-Bold-68" transform="translate(210.693359 0)"/>
    </g>
   </g>
   <g id="patch_23">
    <path d="M 918.742588 336.835625 
Q 922.321938 336.835625 922.547186 336.835625 
" style="fill: none; stroke: #00d4aa; stroke-width: 3; stroke-linecap: round"/>
    <path d="M 918.547186 334.835625 
L 922.547186 336.835625 
L 918.547186 338.835625 
" style="fill: none; stroke: #00d4aa; stroke-width: 3; stroke-linecap: round"/>
   </g>
   <g id="text_10">
    <!-- HCS -->
    <g style="fill: #0f172a" transform="translate(994.277344 332.576328) scale(0.15 -0.15)">
     <defs>
      <path id="DejaVuSans-Bold-43" d="M 4288 256 
Q 3956 84 3597 -3 
Q 3238 -91 2847 -91 
Q 1681 -91 1000 561 
Q 319 1213 319 2328 
Q 319 3447 1000 4098 
Q 1681 4750 2847 4750 
Q 3238 4750 3597 4662 
Q 3956 4575 4288 4403 
L 4288 3438 
Q 3953 3666 3628 3772 
Q 3303 3878 2944 3878 
Q 2300 3878 1931 3465 
Q 1563 3053 1563 2328 
Q 1563 1606 1931 1193 
Q 2300 781 2944 781 
Q 3303 781 3628 887 
Q 3953 994 4288 1222 
L 4288 256 
z
" transform="scale(0.015625)"/>
      <path id="DejaVuSans-Bold-53" d="M 3834 4519 
L 3834 3531 
Q 3450 3703 3084 3790 
Q 2719 3878 2394 3878 
Q 1963 3878 1756 3759 
Q 1550 3641 1550 3391 
Q 1550 3203 1689 3098 
Q 1828 2994 2194 2919 
L 2706 2816 
Q 3484 2659 3812 2340 
Q 4141 2022 4141 1434 
Q 4141 663 3683 286 
Q 3225 -91 2284 -91 
Q 1841 -91 1394 -6 
Q 947 78 500 244 
L 500 1259 
Q 947 1022 1364 901 
Q 1781 781 2169 781 
Q 2563 781 2772 912 
Q 2981 1044 2981 1288 
Q 2981 1506 2839 1625 
Q 2697 1744 2272 1838 
L 1806 1941 
Q 1106 2091 782 2419 
Q 459 2747 459 3303 
Q 459 4000 909 4375 
Q 1359 4750 2203 4750 
Q 2588 4750 2994 4692 
Q 3400 4634 3834 4519 
z
" transform="scale(0.015625)"/>
     </defs>
     <use xlink:href="#DejaVuSans-Bold-48"/>
     <use xlink:href="#DejaVuSans-Bold-43" transform="translate(83.691406 0)"/>
     <use xlink:href="#DejaVuSans-Bold-53" transform="translate(158.955078 0)"/>
    </g>
    <!-- Receipt -->
    <g style="fill: #0f172a" transform="translate(979.680469 349.373047) scale(0.15 -0.15)">
     <defs>
      <path id="DejaVuSans-Bold-52" d="M 2297 2597 
Q 2675 2597 2839 2737 
Q 3003 2878 3003 3200 
Q 3003 3519 2839 3656 
Q 2675 3794 2297 3794 
L 1791 3794 
L 1791 2597 
L 2297 2597 
z
M 1791 1766 
L 1791 0 
L 588 0 
L 588 4666 
L 2425 4666 
Q 3347 4666 3776 4356 
Q 4206 4047 4206 3378 
Q 4206 2916 3982 2619 
Q 3759 2322 3309 2181 
Q 3556 2125 3751 1926 
Q 3947 1728 4147 1325 
L 4800 0 
L 3519 0 
L 2950 1159 
Q 2778 1509 2601 1637 
Q 2425 1766 2131 1766 
L 1791 1766 
z
" transform="scale(0.015625)"/>
     </defs>
     <use xlink:href="#DejaVuSans-Bold-52"/>
     <use xlink:href="#DejaVuSans-Bold-65" transform="translate(77.001953 0)"/>
     <use xlink:href="#DejaVuSans-Bold-63" transform="translate(144.824219 0)"/>
     <use xlink:href="#DejaVuSans-Bold-65" transform="translate(204.101562 0)"/>
     <use xlink:href="#DejaVuSans-Bold-69" transform="translate(271.923828 0)"/>
     <use xlink:href="#DejaVuSans-Bold-70" transform="translate(306.201172 0)"/>
     <use xlink:href="#DejaVuSans-Bold-74" transform="translate(377.783203 0)"/>
    </g>
   </g>
   <g id="text_11">
    <!-- SHA-256 -->
    <g style="fill: #00e676" transform="translate(252.367031 511.445594) scale(0.14 -0.14)">
     <defs>
      <path id="DejaVuSans-Bold-41" d="M 3419 850 
L 1538 850 
L 1241 0 
L 31 0 
L 1759 4666 
L 3194 4666 
L 4922 0 
L 3713 0 
L 3419 850 
z
M 1838 1716 
L 3116 1716 
L 2478 3572 
L 1838 1716 
z
" transform="scale(0.015625)"/>
      <path id="DejaVuSans-Bold-2d" d="M 347 2297 
L 2309 2297 
L 2309 1388 
L 347 1388 
L 347 2297 
z
" transform="scale(0.015625)"/>
      <path id="DejaVuSans-Bold-32" d="M 1844 884 
L 3897 884 
L 3897 0 
L 506 0 
L 506 884 
L 2209 2388 
Q 2438 2594 2547 2791 
Q 2656 2988 2656 3200 
Q 2656 3528 2436 3728 
Q 2216 3928 1850 3928 
Q 1569 3928 1234 3808 
Q 900 3688 519 3450 
L 519 4475 
Q 925 4609 1322 4679 
Q 1719 4750 2100 4750 
Q 2938 4750 3402 4381 
Q 3866 4013 3866 3353 
Q 3866 2972 3669 2642 
Q 3472 2313 2841 1759 
L 1844 884 
z
" transform="scale(0.015625)"/>
      <path id="DejaVuSans-Bold-35" d="M 678 4666 
L 3669 4666 
L 3669 3781 
L 1638 3781 
L 1638 3059 
Q 1775 3097 1914 3117 
Q 2053 3138 2203 3138 
Q 3056 3138 3531 2711 
Q 4006 2284 4006 1522 
Q 4006 766 3489 337 
Q 2972 -91 2053 -91 
Q 1656 -91 1267 -14 
Q 878 63 494 219 
L 494 1166 
Q 875 947 1217 837 
Q 1559 728 1863 728 
Q 2300 728 2551 942 
Q 2803 1156 2803 1522 
Q 2803 1891 2551 2103 
Q 2300 2316 1863 2316 
Q 1603 2316 1309 2248 
Q 1016 2181 678 2041 
L 678 4666 
z
" transform="scale(0.015625)"/>
      <path id="DejaVuSans-Bold-36" d="M 2316 2303 
Q 2000 2303 1842 2098 
Q 1684 1894 1684 1484 
Q 1684 1075 1842 870 
Q 2000 666 2316 666 
Q 2634 666 2792 870 
Q 2950 1075 2950 1484 
Q 2950 1894 2792 2098 
Q 2634 2303 2316 2303 
z
M 3803 4544 
L 3803 3681 
Q 3506 3822 3243 3889 
Q 2981 3956 2731 3956 
Q 2194 3956 1894 3657 
Q 1594 3359 1544 2772 
Q 1750 2925 1990 3001 
Q 2231 3078 2516 3078 
Q 3231 3078 3670 2659 
Q 4109 2241 4109 1563 
Q 4109 813 3618 361 
Q 3128 -91 2303 -91 
Q 1394 -91 895 523 
Q 397 1138 397 2266 
Q 397 3422 980 4083 
Q 1563 4744 2578 4744 
Q 2900 4744 3203 4694 
Q 3506 4644 3803 4544 
z
" transform="scale(0.015625)"/>
     </defs>
     <use xlink:href="#DejaVuSans-Bold-53"/>
     <use xlink:href="#DejaVuSans-Bold-48" transform="translate(72.021484 0)"/>
     <use xlink:href="#DejaVuSans-Bold-41" transform="translate(155.712891 0)"/>
     <use xlink:href="#DejaVuSans-Bold-2d" transform="translate(233.105469 0)"/>
     <use xlink:href="#DejaVuSans-Bold-32" transform="translate(274.609375 0)"/>
     <use xlink:href="#DejaVuSans-Bold-35" transform="translate(344.189453 0)"/>
     <use xlink:href="#DejaVuSans-Bold-36" transform="translate(413.769531 0)"/>
    </g>
    <!-- Digest -->
    <g style="fill: #00e676" transform="translate(260.718906 527.122531) scale(0.14 -0.14)">
     <defs>
      <path id="DejaVuSans-Bold-44" d="M 1791 3756 
L 1791 909 
L 2222 909 
Q 2959 909 3348 1275 
Q 3738 1641 3738 2338 
Q 3738 3031 3350 3393 
Q 2963 3756 2222 3756 
L 1791 3756 
z
M 588 4666 
L 1856 4666 
Q 2919 4666 3439 4514 
Q 3959 4363 4331 4000 
Q 4659 3684 4818 3271 
Q 4978 2859 4978 2338 
Q 4978 1809 4818 1395 
Q 4659 981 4331 666 
Q 3956 303 3431 151 
Q 2906 0 1856 0 
L 588 0 
L 588 4666 
z
" transform="scale(0.015625)"/>
     </defs>
     <use xlink:href="#DejaVuSans-Bold-44"/>
     <use xlink:href="#DejaVuSans-Bold-69" transform="translate(83.007812 0)"/>
     <use xlink:href="#DejaVuSans-Bold-67" transform="translate(117.285156 0)"/>
     <use xlink:href="#DejaVuSans-Bold-65" transform="translate(188.867188 0)"/>
     <use xlink:href="#DejaVuSans-Bold-73" transform="translate(256.689453 0)"/>
     <use xlink:href="#DejaVuSans-Bold-74" transform="translate(316.210938 0)"/>
    </g>
   </g>
   <g id="text_12">
    <!-- Merkle -->
    <g style="fill: #00e676" transform="translate(538.231406 511.500281) scale(0.14 -0.14)">
     <defs>
      <path id="DejaVuSans-Bold-6b" d="M 538 4863 
L 1656 4863 
L 1656 2216 
L 2944 3500 
L 4244 3500 
L 2534 1894 
L 4378 0 
L 3022 0 
L 1656 1459 
L 1656 0 
L 538 0 
L 538 4863 
z
" transform="scale(0.015625)"/>
     </defs>
     <use xlink:href="#DejaVuSans-Bold-4d"/>
     <use xlink:href="#DejaVuSans-Bold-65" transform="translate(99.511719 0)"/>
     <use xlink:href="#DejaVuSans-Bold-72" transform="translate(167.333984 0)"/>
     <use xlink:href="#DejaVuSans-Bold-6b" transform="translate(216.650391 0)"/>
     <use xlink:href="#DejaVuSans-Bold-6c" transform="translate(283.154297 0)"/>
     <use xlink:href="#DejaVuSans-Bold-65" transform="translate(317.431641 0)"/>
    </g>
    <!-- Root -->
    <g style="fill: #00e676" transform="translate(546.845781 527.177219) scale(0.14 -0.14)">
     <use xlink:href="#DejaVuSans-Bold-52"/>
     <use xlink:href="#DejaVuSans-Bold-6f" transform="translate(77.001953 0)"/>
     <use xlink:href="#DejaVuSans-Bold-6f" transform="translate(145.703125 0)"/>
     <use xlink:href="#DejaVuSans-Bold-74" transform="translate(214.404297 0)"/>
    </g>
   </g>
   <g id="text_13">
    <!-- HCS Topic -->
    <g style="fill: #00e676" transform="translate(805.378438 511.500281) scale(0.14 -0.14)">
     <defs>
      <path id="DejaVuSans-Bold-20" transform="scale(0.015625)"/>
     </defs>
     <use xlink:href="#DejaVuSans-Bold-48"/>
     <use xlink:href="#DejaVuSans-Bold-43" transform="translate(83.691406 0)"/>
     <use xlink:href="#DejaVuSans-Bold-53" transform="translate(158.955078 0)"/>
     <use xlink:href="#DejaVuSans-Bold-20" transform="translate(230.976562 0)"/>
     <use xlink:href="#DejaVuSans-Bold-54" transform="translate(265.791016 0)"/>
     <use xlink:href="#DejaVuSans-Bold-6f" transform="translate(320.753906 0)"/>
     <use xlink:href="#DejaVuSans-Bold-70" transform="translate(389.455078 0)"/>
     <use xlink:href="#DejaVuSans-Bold-69" transform="translate(461.037109 0)"/>
     <use xlink:href="#DejaVuSans-Bold-63" transform="translate(495.314453 0)"/>
    </g>
    <!-- Anchor -->
    <g style="fill: #00e676" transform="translate(816.405625 527.177219) scale(0.14 -0.14)">
     <use xlink:href="#DejaVuSans-Bold-41"/>
     <use xlink:href="#DejaVuSans-Bold-6e" transform="translate(77.392578 0)"/>
     <use xlink:href="#DejaVuSans-Bold-63" transform="translate(148.583984 0)"/>
     <use xlink:href="#DejaVuSans-Bold-68" transform="translate(207.861328 0)"/>
     <use xlink:href="#DejaVuSans-Bold-6f" transform="translate(279.052734 0)"/>
     <use xlink:href="#DejaVuSans-Bold-72" transform="translate(347.753906 0)"/>
    </g>
   </g>
   <g id="patch_24">
    <path d="M 209.474659 390.625276 
Q 247.1384 429.233985 283.240712 466.242089 
" style="fill: none; stroke: #7a828e; stroke-width: 2; stroke-linecap: round"/>
    <path d="M 281.879166 461.982254 
L 283.240712 466.242089 
L 279.015917 464.775425 
" style="fill: none; stroke: #7a828e; stroke-width: 2; stroke-linecap: round"/>
   </g>
   <g id="patch_25">
    <path d="M 477.410361 390.53241 
Q 520.561723 429.23717 562.048509 466.448884 
" style="fill: none; stroke: #7a828e; stroke-width: 2; stroke-linecap: round"/>
    <path d="M 560.406247 462.2892 
L 562.048509 466.448884 
L 557.735404 465.266883 
" style="fill: none; stroke: #7a828e; stroke-width: 2; stroke-linecap: round"/>
   </g>
   <g id="patch_26">
    <path d="M 833.315867 391.175142 
Q 838.620088 429.236257 843.615672 465.082706 
" style="fill: none; stroke: #7a828e; stroke-width: 2; stroke-linecap: round"/>
    <path d="M 845.044422 460.844939 
L 843.615672 465.082706 
L 841.082708 461.397046 
" style="fill: none; stroke: #7a828e; stroke-width: 2; stroke-linecap: round"/>
   </g>
   <g id="text_14">
    <!-- DATA -->
    <g style="fill: #7a828e" transform="translate(24.701641 167.392141) scale(0.11 -0.11)">
     <use xlink:href="#DejaVuSans-Bold-44"/>
     <use xlink:href="#DejaVuSans-Bold-41" transform="translate(83.007812 0)"/>
     <use xlink:href="#DejaVuSans-Bold-54" transform="translate(152.650391 0)"/>
     <use xlink:href="#DejaVuSans-Bold-41" transform="translate(213.113281 0)"/>
    </g>
    <!-- ORIGIN -->
    <g style="fill: #7a828e" transform="translate(18.559688 179.709734) scale(0.11 -0.11)">
     <defs>
      <path id="DejaVuSans-Bold-47" d="M 4781 347 
Q 4331 128 3847 18 
Q 3363 -91 2847 -91 
Q 1681 -91 1000 561 
Q 319 1213 319 2328 
Q 319 3456 1012 4103 
Q 1706 4750 2913 4750 
Q 3378 4750 3804 4662 
Q 4231 4575 4609 4403 
L 4609 3438 
Q 4219 3659 3833 3768 
Q 3447 3878 3059 3878 
Q 2341 3878 1952 3476 
Q 1563 3075 1563 2328 
Q 1563 1588 1938 1184 
Q 2313 781 3003 781 
Q 3191 781 3352 804 
Q 3513 828 3641 878 
L 3641 1784 
L 2906 1784 
L 2906 2591 
L 4781 2591 
L 4781 347 
z
" transform="scale(0.015625)"/>
      <path id="DejaVuSans-Bold-4e" d="M 588 4666 
L 1931 4666 
L 3628 1466 
L 3628 4666 
L 4769 4666 
L 4769 0 
L 3425 0 
L 1728 3200 
L 1728 0 
L 588 0 
L 588 4666 
z
" transform="scale(0.015625)"/>
     </defs>
     <use xlink:href="#DejaVuSans-Bold-4f"/>
     <use xlink:href="#DejaVuSans-Bold-52" transform="translate(85.009766 0)"/>
     <use xlink:href="#DejaVuSans-Bold-49" transform="translate(162.011719 0)"/>
     <use xlink:href="#DejaVuSans-Bold-47" transform="translate(199.21875 0)"/>
     <use xlink:href="#DejaVuSans-Bold-49" transform="translate(281.298828 0)"/>
     <use xlink:href="#DejaVuSans-Bold-4e" transform="translate(318.505859 0)"/>
    </g>
   </g>
   <g id="text_15">
    <!-- HASH -->
    <g style="fill: #ffd700" transform="translate(23.257031 333.712141) scale(0.11 -0.11)">
     <use xlink:href="#DejaVuSans-Bold-48"/>
     <use xlink:href="#DejaVuSans-Bold-41" transform="translate(83.691406 0)"/>
     <use xlink:href="#DejaVuSans-Bold-53" transform="translate(161.083984 0)"/>
     <use xlink:href="#DejaVuSans-Bold-48" transform="translate(233.105469 0)"/>
    </g>
    <!-- CHAIN -->
    <g style="fill: #ffd700" transform="translate(21.135234 346.029734) scale(0.11 -0.11)">
     <use xlink:href="#DejaVuSans-Bold-43"/>
     <use xlink:href="#DejaVuSans-Bold-48" transform="translate(73.388672 0)"/>
     <use xlink:href="#DejaVuSans-Bold-41" transform="translate(157.080078 0)"/>
     <use xlink:href="#DejaVuSans-Bold-49" transform="translate(234.472656 0)"/>
     <use xlink:href="#DejaVuSans-Bold-4e" transform="translate(271.679688 0)"/>
    </g>
   </g>
   <g id="text_16">
    <!-- VERIFY -->
    <g style="fill: #00e676" transform="translate(18.645625 512.352141) scale(0.11 -0.11)">
     <defs>
      <path id="DejaVuSans-Bold-56" d="M 31 4666 
L 1241 4666 
L 2478 1222 
L 3713 4666 
L 4922 4666 
L 3194 0 
L 1759 0 
L 31 4666 
z
" transform="scale(0.015625)"/>
      <path id="DejaVuSans-Bold-46" d="M 588 4666 
L 3834 4666 
L 3834 3756 
L 1791 3756 
L 1791 2888 
L 3713 2888 
L 3713 1978 
L 1791 1978 
L 1791 0 
L 588 0 
L 588 4666 
z
" transform="scale(0.015625)"/>
      <path id="DejaVuSans-Bold-59" d="M -63 4666 
L 1253 4666 
L 2316 3003 
L 3378 4666 
L 4697 4666 
L 2919 1966 
L 2919 0 
L 1716 0 
L 1716 1966 
L -63 4666 
z
" transform="scale(0.015625)"/>
     </defs>
     <use xlink:href="#DejaVuSans-Bold-56"/>
     <use xlink:href="#DejaVuSans-Bold-45" transform="translate(77.392578 0)"/>
     <use xlink:href="#DejaVuSans-Bold-52" transform="translate(145.703125 0)"/>
     <use xlink:href="#DejaVuSans-Bold-49" transform="translate(222.705078 0)"/>
     <use xlink:href="#DejaVuSans-Bold-46" transform="translate(259.912109 0)"/>
     <use xlink:href="#DejaVuSans-Bold-59" transform="translate(328.222656 0)"/>
    </g>
    <!-- LAYER -->
    <g style="fill: #00e676" transform="translate(21.473828 524.669734) scale(0.11 -0.11)">
     <defs>
      <path id="DejaVuSans-Bold-4c" d="M 588 4666 
L 1791 4666 
L 1791 909 
L 3903 909 
L 3903 0 
L 588 0 
L 588 4666 
z
" transform="scale(0.015625)"/>
     </defs>
     <use xlink:href="#DejaVuSans-Bold-4c"/>
     <use xlink:href="#DejaVuSans-Bold-41" transform="translate(63.720703 0)"/>
     <use xlink:href="#DejaVuSans-Bold-59" transform="translate(131.488281 0)"/>
     <use xlink:href="#DejaVuSans-Bold-45" transform="translate(203.900391 0)"/>
     <use xlink:href="#DejaVuSans-Bold-52" transform="translate(272.210938 0)"/>
    </g>
   </g>
   <g id="text_17">
    <g id="patch_27">
     <path d="M 267.2825 662.240625 
L 863.1175 662.240625 
Q 872.7175 662.240625 872.7175 652.640625 
L 872.7175 637.030625 
Q 872.7175 627.430625 863.1175 627.430625 
L 267.2825 627.430625 
Q 257.6825 627.430625 257.6825 637.030625 
L 257.6825 652.640625 
Q 257.6825 662.240625 267.2825 662.240625 
z
" style="fill: #1e293b; stroke: #ffd700; stroke-width: 2; stroke-linejoin: miter"/>
    </g>
    <!-- Every prediction → immutable proof on Hedera Consensus Service -->
    <g style="fill: #f8fafc" transform="translate(267.2825 649.188125) scale(0.16 -0.16)">
     <defs>
      <path id="DejaVuSans-Bold-76" d="M 97 3500 
L 1216 3500 
L 2088 1081 
L 2956 3500 
L 4078 3500 
L 2700 0 
L 1472 0 
L 97 3500 
z
" transform="scale(0.015625)"/>
      <path id="DejaVuSans-Bold-79" d="M 78 3500 
L 1197 3500 
L 2138 1125 
L 2938 3500 
L 4056 3500 
L 2584 -331 
Q 2363 -916 2067 -1148 
Q 1772 -1381 1288 -1381 
L 641 -1381 
L 641 -647 
L 991 -647 
Q 1275 -647 1404 -556 
Q 1534 -466 1606 -231 
L 1638 -134 
L 78 3500 
z
" transform="scale(0.015625)"/>
      <path id="DejaVuSans-Bold-2192" d="M 5050 2225 
L 5050 1788 
L 3822 559 
L 3369 1013 
L 3988 1631 
L 366 1631 
L 366 2381 
L 3988 2381 
L 3369 3000 
L 3822 3453 
L 5050 2225 
z
" transform="scale(0.015625)"/>
      <path id="DejaVuSans-Bold-62" d="M 2400 722 
Q 2759 722 2948 984 
Q 3138 1247 3138 1747 
Q 3138 2247 2948 2509 
Q 2759 2772 2400 2772 
Q 2041 2772 1848 2508 
Q 1656 2244 1656 1747 
Q 1656 1250 1848 986 
Q 2041 722 2400 722 
z
M 1656 2988 
Q 1888 3294 2169 3439 
Q 2450 3584 2816 3584 
Q 3463 3584 3878 3070 
Q 4294 2556 4294 1747 
Q 4294 938 3878 423 
Q 3463 -91 2816 -91 
Q 2450 -91 2169 54 
Q 1888 200 1656 506 
L 1656 0 
L 538 0 
L 538 4863 
L 1656 4863 
L 1656 2988 
z
" transform="scale(0.015625)"/>
     </defs>
     <use xlink:href="#DejaVuSans-Bold-45"/>
     <use xlink:href="#DejaVuSans-Bold-76" transform="translate(68.310547 0)"/>
     <use xlink:href="#DejaVuSans-Bold-65" transform="translate(133.496094 0)"/>
     <use xlink:href="#DejaVuSans-Bold-72" transform="translate(201.318359 0)"/>
     <use xlink:href="#DejaVuSans-Bold-79" transform="translate(250.634766 0)"/>
     <use xlink:href="#DejaVuSans-Bold-20" transform="translate(315.820312 0)"/>
     <use xlink:href="#DejaVuSans-Bold-70" transform="translate(350.634766 0)"/>
     <use xlink:href="#DejaVuSans-Bold-72" transform="translate(422.216797 0)"/>
     <use xlink:href="#DejaVuSans-Bold-65" transform="translate(471.533203 0)"/>
     <use xlink:href="#DejaVuSans-Bold-64" transform="translate(539.355469 0)"/>
     <use xlink:href="#DejaVuSans-Bold-69" transform="translate(610.9375 0)"/>
     <use xlink:href="#DejaVuSans-Bold-63" transform="translate(645.214844 0)"/>
     <use xlink:href="#DejaVuSans-Bold-74" transform="translate(704.492188 0)"/>
     <use xlink:href="#DejaVuSans-Bold-69" transform="translate(752.294922 0)"/>
     <use xlink:href="#DejaVuSans-Bold-6f" transform="translate(786.572266 0)"/>
     <use xlink:href="#DejaVuSans-Bold-6e" transform="translate(855.273438 0)"/>
     <use xlink:href="#DejaVuSans-Bold-20" transform="translate(926.464844 0)"/>
     <use xlink:href="#DejaVuSans-Bold-2192" transform="translate(961.279297 0)"/>
     <use xlink:href="#DejaVuSans-Bold-20" transform="translate(1045.068359 0)"/>
     <use xlink:href="#DejaVuSans-Bold-69" transform="translate(1079.882812 0)"/>
     <use xlink:href="#DejaVuSans-Bold-6d" transform="translate(1114.160156 0)"/>
     <use xlink:href="#DejaVuSans-Bold-6d" transform="translate(1218.359375 0)"/>
     <use xlink:href="#DejaVuSans-Bold-75" transform="translate(1322.558594 0)"/>
     <use xlink:href="#DejaVuSans-Bold-74" transform="translate(1393.75 0)"/>
     <use xlink:href="#DejaVuSans-Bold-61" transform="translate(1441.552734 0)"/>
     <use xlink:href="#DejaVuSans-Bold-62" transform="translate(1509.033203 0)"/>
     <use xlink:href="#DejaVuSans-Bold-6c" transform="translate(1580.615234 0)"/>
     <use xlink:href="#DejaVuSans-Bold-65" transform="translate(1614.892578 0)"/>
     <use xlink:href="#DejaVuSans-Bold-20" transform="translate(1682.714844 0)"/>
     <use xlink:href="#DejaVuSans-Bold-70" transform="translate(1717.529297 0)"/>
     <use xlink:href="#DejaVuSans-Bold-72" transform="translate(1789.111328 0)"/>
     <use xlink:href="#DejaVuSans-Bold-6f" transform="translate(1838.427734 0)"/>
     <use xlink:href="#DejaVuSans-Bold-6f" transform="translate(1907.128906 0)"/>
     <use xlink:href="#DejaVuSans-Bold-66" transform="translate(1975.830078 0)"/>
     <use xlink:href="#DejaVuSans-Bold-20" transform="translate(2019.335938 0)"/>
     <use xlink:href="#DejaVuSans-Bold-6f" transform="translate(2054.150391 0)"/>
     <use xlink:href="#DejaVuSans-Bold-6e" transform="translate(2122.851562 0)"/>
     <use xlink:href="#DejaVuSans-Bold-20" transform="translate(2194.042969 0)"/>
     <use xlink:href="#DejaVuSans-Bold-48" transform="translate(2228.857422 0)"/>
     <use xlink:href="#DejaVuSans-Bold-65" transform="translate(2312.548828 0)"/>
     <use xlink:href="#DejaVuSans-Bold-64" transform="translate(2380.371094 0)"/>
     <use xlink:href="#DejaVuSans-Bold-65" transform="translate(2451.953125 0)"/>
     <use xlink:href="#DejaVuSans-Bold-72" transform="translate(2519.775391 0)"/>
     <use xlink:href="#DejaVuSans-Bold-61" transform="translate(2569.091797 0)"/>
     <use xlink:href="#DejaVuSans-Bold-20" transform="translate(2636.572266 0)"/>
     <use xlink:href="#DejaVuSans-Bold-43" transform="translate(2671.386719 0)"/>
     <use xlink:href="#DejaVuSans-Bold-6f" transform="translate(2744.775391 0)"/>
     <use xlink:href="#DejaVuSans-Bold-6e" transform="translate(2813.476562 0)"/>
     <use xlink:href="#DejaVuSans-Bold-73" transform="translate(2884.667969 0)"/>
     <use xlink:href="#DejaVuSans-Bold-65" transform="translate(2944.189453 0)"/>
     <use xlink:href="#DejaVuSans-Bold-6e" transform="translate(3012.011719 0)"/>
     <use xlink:href="#DejaVuSans-Bold-73" transform="translate(3083.203125 0)"/>
     <use xlink:href="#DejaVuSans-Bold-75" transform="translate(3142.724609 0)"/>
     <use xlink:href="#DejaVuSans-Bold-73" transform="translate(3213.916016 0)"/>
     <use xlink:href="#DejaVuSans-Bold-20" transform="translate(3273.4375 0)"/>
     <use xlink:href="#DejaVuSans-Bold-53" transform="translate(3308.251953 0)"/>
     <use xlink:href="#DejaVuSans-Bold-65" transform="translate(3380.273438 0)"/>
     <use xlink:href="#DejaVuSans-Bold-72" transform="translate(3448.095703 0)"/>
     <use xlink:href="#DejaVuSans-Bold-76" transform="translate(3497.412109 0)"/>
     <use xlink:href="#DejaVuSans-Bold-69" transform="translate(3562.597656 0)"/>
     <use xlink:href="#DejaVuSans-Bold-63" transform="translate(3596.875 0)"/>
     <use xlink:href="#DejaVuSans-Bold-65" transform="translate(3656.152344 0)"/>
    </g>
   </g>
   <g id="text_18">
    <!-- VNX Verifiability: Hedera-Backed Proof Chains -->
    <g style="fill: #f8fafc" transform="translate(199.87875 28.475625) scale(0.28 -0.28)">
     <defs>
      <path id="DejaVuSans-Bold-58" d="M 3188 2381 
L 4806 0 
L 3553 0 
L 2463 1594 
L 1381 0 
L 122 0 
L 1741 2381 
L 184 4666 
L 1441 4666 
L 2463 3163 
L 3481 4666 
L 4744 4666 
L 3188 2381 
z
" transform="scale(0.015625)"/>
      <path id="DejaVuSans-Bold-3a" d="M 716 3500 
L 1844 3500 
L 1844 2291 
L 716 2291 
L 716 3500 
z
M 716 1209 
L 1844 1209 
L 1844 0 
L 716 0 
L 716 1209 
z
" transform="scale(0.015625)"/>
      <path id="DejaVuSans-Bold-42" d="M 2456 2859 
Q 2741 2859 2887 2984 
Q 3034 3109 3034 3353 
Q 3034 3594 2887 3720 
Q 2741 3847 2456 3847 
L 1791 3847 
L 1791 2859 
L 2456 2859 
z
M 2497 819 
Q 2859 819 3042 972 
Q 3225 1125 3225 1434 
Q 3225 1738 3044 1889 
Q 2863 2041 2497 2041 
L 1791 2041 
L 1791 819 
L 2497 819 
z
M 3616 2497 
Q 4003 2384 4215 2081 
Q 4428 1778 4428 1338 
Q 4428 663 3972 331 
Q 3516 0 2584 0 
L 588 0 
L 588 4666 
L 2394 4666 
Q 3366 4666 3802 4372 
Q 4238 4078 4238 3431 
Q 4238 3091 4078 2852 
Q 3919 2613 3616 2497 
z
" transform="scale(0.015625)"/>
     </defs>
     <use xlink:href="#DejaVuSans-Bold-56"/>
     <use xlink:href="#DejaVuSans-Bold-4e" transform="translate(77.392578 0)"/>
     <use xlink:href="#DejaVuSans-Bold-58" transform="translate(161.083984 0)"/>
     <use xlink:href="#DejaVuSans-Bold-20" transform="translate(238.183594 0)"/>
     <use xlink:href="#DejaVuSans-Bold-56" transform="translate(272.998047 0)"/>
     <use xlink:href="#DejaVuSans-Bold-65" transform="translate(344.890625 0)"/>
     <use xlink:href="#DejaVuSans-Bold-72" transform="translate(412.712891 0)"/>
     <use xlink:href="#DejaVuSans-Bold-69" transform="translate(462.029297 0)"/>
     <use xlink:href="#DejaVuSans-Bold-66" transform="translate(496.306641 0)"/>
     <use xlink:href="#DejaVuSans-Bold-69" transform="translate(539.8125 0)"/>
     <use xlink:href="#DejaVuSans-Bold-61" transform="translate(574.089844 0)"/>
     <use xlink:href="#DejaVuSans-Bold-62" transform="translate(641.570312 0)"/>
     <use xlink:href="#DejaVuSans-Bold-69" transform="translate(713.152344 0)"/>
     <use xlink:href="#DejaVuSans-Bold-6c" transform="translate(747.429688 0)"/>
     <use xlink:href="#DejaVuSans-Bold-69" transform="translate(781.707031 0)"/>
     <use xlink:href="#DejaVuSans-Bold-74" transform="translate(815.984375 0)"/>
     <use xlink:href="#DejaVuSans-Bold-79" transform="translate(863.787109 0)"/>
     <use xlink:href="#DejaVuSans-Bold-3a" transform="translate(928.972656 0)"/>
     <use xlink:href="#DejaVuSans-Bold-20" transform="translate(968.962891 0)"/>
     <use xlink:href="#DejaVuSans-Bold-48" transform="translate(1003.777344 0)"/>
     <use xlink:href="#DejaVuSans-Bold-65" transform="translate(1087.46875 0)"/>
     <use xlink:href="#DejaVuSans-Bold-64" transform="translate(1155.291016 0)"/>
     <use xlink:href="#DejaVuSans-Bold-65" transform="translate(1226.873047 0)"/>
     <use xlink:href="#DejaVuSans-Bold-72" transform="translate(1294.695312 0)"/>
     <use xlink:href="#DejaVuSans-Bold-61" transform="translate(1344.011719 0)"/>
     <use xlink:href="#DejaVuSans-Bold-2d" transform="translate(1411.492188 0)"/>
     <use xlink:href="#DejaVuSans-Bold-42" transform="translate(1452.996094 0)"/>
     <use xlink:href="#DejaVuSans-Bold-61" transform="translate(1529.216797 0)"/>
     <use xlink:href="#DejaVuSans-Bold-63" transform="translate(1596.697266 0)"/>
     <use xlink:href="#DejaVuSans-Bold-6b" transform="translate(1655.974609 0)"/>
     <use xlink:href="#DejaVuSans-Bold-65" transform="translate(1719.853516 0)"/>
     <use xlink:href="#DejaVuSans-Bold-64" transform="translate(1787.675781 0)"/>
     <use xlink:href="#DejaVuSans-Bold-20" transform="translate(1859.257812 0)"/>
     <use xlink:href="#DejaVuSans-Bold-50" transform="translate(1894.072266 0)"/>
     <use xlink:href="#DejaVuSans-Bold-72" transform="translate(1967.363281 0)"/>
     <use xlink:href="#DejaVuSans-Bold-6f" transform="translate(2016.679688 0)"/>
     <use xlink:href="#DejaVuSans-Bold-6f" transform="translate(2085.380859 0)"/>
     <use xlink:href="#DejaVuSans-Bold-66" transform="translate(2154.082031 0)"/>
     <use xlink:href="#DejaVuSans-Bold-20" transform="translate(2197.587891 0)"/>
     <use xlink:href="#DejaVuSans-Bold-43" transform="translate(2232.402344 0)"/>
     <use xlink:href="#DejaVuSans-Bold-68" transform="translate(2305.791016 0)"/>
     <use xlink:href="#DejaVuSans-Bold-61" transform="translate(2376.982422 0)"/>
     <use xlink:href="#DejaVuSans-Bold-69" transform="translate(2444.462891 0)"/>
     <use xlink:href="#DejaVuSans-Bold-6e" transform="translate(2478.740234 0)"/>
     <use xlink:href="#DejaVuSans-Bold-73" transform="translate(2549.931641 0)"/>
    </g>
   </g>
  </g>
 </g>
 <defs>
  <clipPath id="p2b307b37ca">
   <rect x="7.2" y="53.475625" width="1116" height="665.28"/>
  </clipPath>
 </defs>
</svg>
