<?xml version="1.0" encoding="utf-8" standalone="no"?>
<!DOCTYPE svg PUBLIC "-//W3C//DTD SVG 1.1//EN"
  "http://www.w3.org/Graphics/SVG/1.1/DTD/svg11.dtd">
<svg xmlns:xlink="http://www.w3.org/1999/xlink" width="936.850738pt" height="851.645pt" viewBox="0 0 936.850738 851.645" xmlns="http://www.w3.org/2000/svg" version="1.1">
 <metadata>
  <rdf:RDF xmlns:dc="http://purl.org/dc/elements/1.1/" xmlns:cc="http://creativecommons.org/ns#" xmlns:rdf="http://www.w3.org/1999/02/22-rdf-syntax-ns#">
   <cc:Work>
    <dc:type rdf:resource="http://purl.org/dc/dcmitype/StillImage"/>
    <dc:date>2026-05-12T20:42:39.834047</dc:date>
    <dc:format>image/svg+xml</dc:format>
    <dc:creator>
     <cc:Agent>
      <dc:title>Matplotlib v3.10.9, https://matplotlib.org/</dc:title>
     </cc:Agent>
    </dc:creator>
   </cc:Work>
  </rdf:RDF>
 </metadata>
 <defs>
  <style type="text/css">*{stroke-linejoin: round; stroke-linecap: butt}</style>
 </defs>
 <g id="figure_1">
  <g id="patch_1">
   <path d="M 0 851.645 
L 936.850738 851.645 
L 936.850738 0 
L 0 0 
z
" style="fill: #0f172a"/>
  </g>
  <g id="axes_1">
   <g id="patch_2">
    <path d="M 158.910313 337.603404 
C 188.226653 337.603404 216.346219 325.955899 237.076002 305.226115 
C 257.805786 284.496332 269.453291 256.376766 269.453291 227.060426 
C 269.453291 197.744085 257.805786 169.624519 237.076002 148.894736 
C 216.346219 128.164952 188.226653 116.517447 158.910313 116.517447 
C 129.593972 116.517447 101.474406 128.164952 80.744623 148.894736 
C 60.014839 169.624519 48.367334 197.744085 48.367334 227.060426 
C 48.367334 256.376766 60.014839 284.496332 80.744623 305.226115 
C 101.474406 325.955899 129.593972 337.603404 158.910313 337.603404 
z
" clip-path="url(#p1267e2c31c)" style="fill: #1e293b; stroke: #f8fafc; stroke-width: 3; stroke-linejoin: miter"/>
   </g>
   <g id="patch_3">
    <path d="M 243.591147 156.004768 
C 235.302515 146.126762 225.349045 137.774809 214.181802 131.327398 
C 203.014559 124.879987 190.80482 120.436005 178.105899 118.196843 
C 165.406979 115.957681 152.413646 115.957681 139.714726 118.196843 
C 127.015805 120.436005 114.806066 124.879987 103.638823 131.327398 
C 92.47158 137.774809 82.51811 146.126762 74.229478 156.004768 
C 65.940846 165.882775 59.44418 177.135331 55.033891 189.2525 
C 50.623602 201.369669 48.367334 214.165604 48.367334 227.060426 
C 48.367334 239.955247 50.623602 252.751182 55.033891 264.868351 
C 59.44418 276.98552 65.940846 288.238076 74.229478 298.116083 
C 82.51811 307.994089 92.47158 316.346042 103.638823 322.793453 
C 114.806066 329.240864 127.015805 333.684846 139.714726 335.924008 
C 152.413646 338.16317 165.406979 338.16317 178.105899 335.924008 
C 190.80482 333.684846 203.014559 329.240864 214.181802 322.793453 
C 225.349045 316.346042 235.302515 307.994089 243.591147 298.116083 
C 251.879779 288.238076 258.376445 276.98552 262.786734 264.868351 
C 267.197023 252.751182 269.453291 239.955247 269.453291 227.060426 
L 158.910313 227.060426 
z
" clip-path="url(#p1267e2c31c)" style="fill: #00e676; stroke: #f8fafc; stroke-width: 3; stroke-linejoin: miter"/>
   </g>
   <g id="patch_4">
    <path d="M 158.910313 292.381277 
C 176.233605 292.381277 192.849712 285.49866 205.099129 273.249242 
C 217.348547 260.999825 224.231164 244.383718 224.231164 227.060426 
C 224.231164 209.737133 217.348547 193.121026 205.099129 180.871609 
C 192.849712 168.622191 176.233605 161.739574 158.910313 161.739574 
C 141.58702 161.739574 124.970913 168.622191 112.721496 180.871609 
C 100.472078 193.121026 93.589461 209.737133 93.589461 227.060426 
C 93.589461 244.383718 100.472078 260.999825 112.721496 273.249242 
C 124.970913 285.49866 141.58702 292.381277 158.910313 292.381277 
z
" clip-path="url(#p1267e2c31c)" style="fill: #1e293b; stroke: #334155; stroke-width: 2; stroke-linejoin: miter"/>
   </g>
   <g id="text_1">
    <!-- 300 -->
    <g style="fill: #ffd700" transform="translate(129.6875 224.737314) scale(0.28 -0.28)">
     <defs>
      <path id="DejaVuSans-Bold-33" d="M 2981 2516 
Q 3453 2394 3698 2092 
Q 3944 1791 3944 1325 
Q 3944 631 3412 270 
Q 2881 -91 1863 -91 
Q 1503 -91 1142 -33 
Q 781 25 428 141 
L 428 1069 
Q 766 900 1098 814 
Q 1431 728 1753 728 
Q 2231 728 2486 893 
Q 2741 1059 2741 1369 
Q 2741 1688 2480 1852 
Q 2219 2016 1709 2016 
L 1228 2016 
L 1228 2791 
L 1734 2791 
Q 2188 2791 2409 2933 
Q 2631 3075 2631 3366 
Q 2631 3634 2415 3781 
Q 2200 3928 1806 3928 
Q 1516 3928 1219 3862 
Q 922 3797 628 3669 
L 628 4550 
Q 984 4650 1334 4700 
Q 1684 4750 2022 4750 
Q 2931 4750 3382 4451 
Q 3834 4153 3834 3553 
Q 3834 3144 3618 2883 
Q 3403 2622 2981 2516 
z
" transform="scale(0.015625)"/>
      <path id="DejaVuSans-Bold-30" d="M 2944 2338 
Q 2944 3213 2780 3570 
Q 2616 3928 2228 3928 
Q 1841 3928 1675 3570 
Q 1509 3213 1509 2338 
Q 1509 1453 1675 1090 
Q 1841 728 2228 728 
Q 2613 728 2778 1090 
Q 2944 1453 2944 2338 
z
M 4147 2328 
Q 4147 1169 3647 539 
Q 3147 -91 2228 -91 
Q 1306 -91 806 539 
Q 306 1169 306 2328 
Q 306 3491 806 4120 
Q 1306 4750 2228 4750 
Q 3147 4750 3647 4120 
Q 4147 3491 4147 2328 
z
" transform="scale(0.015625)"/>
     </defs>
     <use xlink:href="#DejaVuSans-Bold-33"/>
     <use xlink:href="#DejaVuSans-Bold-30" transform="translate(69.580078 0)"/>
     <use xlink:href="#DejaVuSans-Bold-30" transform="translate(139.160156 0)"/>
    </g>
   </g>
   <g id="text_2">
    <!-- ms -->
    <g style="fill: #f8fafc" transform="translate(144.175625 257.150705) scale(0.18 -0.18)">
     <defs>
      <path id="DejaVuSans-Bold-6d" d="M 3781 2919 
Q 3994 3244 4286 3414 
Q 4578 3584 4928 3584 
Q 5531 3584 5847 3212 
Q 6163 2841 6163 2131 
L 6163 0 
L 5038 0 
L 5038 1825 
Q 5041 1866 5042 1909 
Q 5044 1953 5044 2034 
Q 5044 2406 4934 2573 
Q 4825 2741 4581 2741 
Q 4263 2741 4089 2478 
Q 3916 2216 3909 1719 
L 3909 0 
L 2784 0 
L 2784 1825 
Q 2784 2406 2684 2573 
Q 2584 2741 2328 2741 
Q 2006 2741 1831 2477 
Q 1656 2213 1656 1722 
L 1656 0 
L 531 0 
L 531 3500 
L 1656 3500 
L 1656 2988 
Q 1863 3284 2130 3434 
Q 2397 3584 2719 3584 
Q 3081 3584 3359 3409 
Q 3638 3234 3781 2919 
z
" transform="scale(0.015625)"/>
      <path id="DejaVuSans-Bold-73" d="M 3272 3391 
L 3272 2541 
Q 2913 2691 2578 2766 
Q 2244 2841 1947 2841 
Q 1628 2841 1473 2761 
Q 1319 2681 1319 2516 
Q 1319 2381 1436 2309 
Q 1553 2238 1856 2203 
L 2053 2175 
Q 2913 2066 3209 1816 
Q 3506 1566 3506 1031 
Q 3506 472 3093 190 
Q 2681 -91 1863 -91 
Q 1516 -91 1145 -36 
Q 775 19 384 128 
L 384 978 
Q 719 816 1070 734 
Q 1422 653 1784 653 
Q 2113 653 2278 743 
Q 2444 834 2444 1013 
Q 2444 1163 2330 1236 
Q 2216 1309 1875 1350 
L 1678 1375 
Q 931 1469 631 1722 
Q 331 1975 331 2491 
Q 331 3047 712 3315 
Q 1094 3584 1881 3584 
Q 2191 3584 2531 3537 
Q 2872 3491 3272 3391 
z
" transform="scale(0.015625)"/>
     </defs>
     <use xlink:href="#DejaVuSans-Bold-6d"/>
     <use xlink:href="#DejaVuSans-Bold-73" transform="translate(104.199219 0)"/>
    </g>
   </g>
   <g id="text_3">
    <!-- &lt;300ms (Target) -->
    <g style="fill: #7a828e" transform="translate(99.870781 371.614614) scale(0.14 -0.14)">
     <defs>
      <path id="DejaVuSans-3c" d="M 4684 3150 
L 1459 2003 
L 4684 863 
L 4684 294 
L 678 1747 
L 678 2266 
L 4684 3719 
L 4684 3150 
z
" transform="scale(0.015625)"/>
      <path id="DejaVuSans-33" d="M 2597 2516 
Q 3050 2419 3304 2112 
Q 3559 1806 3559 1356 
Q 3559 666 3084 287 
Q 2609 -91 1734 -91 
Q 1441 -91 1130 -33 
Q 819 25 488 141 
L 488 750 
Q 750 597 1062 519 
Q 1375 441 1716 441 
Q 2309 441 2620 675 
Q 2931 909 2931 1356 
Q 2931 1769 2642 2001 
Q 2353 2234 1838 2234 
L 1294 2234 
L 1294 2753 
L 1863 2753 
Q 2328 2753 2575 2939 
Q 2822 3125 2822 3475 
Q 2822 3834 2567 4026 
Q 2313 4219 1838 4219 
Q 1578 4219 1281 4162 
Q 984 4106 628 3988 
L 628 4550 
Q 988 4650 1302 4700 
Q 1616 4750 1894 4750 
Q 2613 4750 3031 4423 
Q 3450 4097 3450 3541 
Q 3450 3153 3228 2886 
Q 3006 2619 2597 2516 
z
" transform="scale(0.015625)"/>
      <path id="DejaVuSans-30" d="M 2034 4250 
Q 1547 4250 1301 3770 
Q 1056 3291 1056 2328 
Q 1056 1369 1301 889 
Q 1547 409 2034 409 
Q 2525 409 2770 889 
Q 3016 1369 3016 2328 
Q 3016 3291 2770 3770 
Q 2525 4250 2034 4250 
z
M 2034 4750 
Q 2819 4750 3233 4129 
Q 3647 3509 3647 2328 
Q 3647 1150 3233 529 
Q 2819 -91 2034 -91 
Q 1250 -91 836 529 
Q 422 1150 422 2328 
Q 422 3509 836 4129 
Q 1250 4750 2034 4750 
z
" transform="scale(0.015625)"/>
      <path id="DejaVuSans-6d" d="M 3328 2828 
Q 3544 3216 3844 3400 
Q 4144 3584 4550 3584 
Q 5097 3584 5394 3201 
Q 5691 2819 5691 2113 
L 5691 0 
L 5113 0 
L 5113 2094 
Q 5113 2597 4934 2840 
Q 4756 3084 4391 3084 
Q 3944 3084 3684 2787 
Q 3425 2491 3425 1978 
L 3425 0 
L 2847 0 
L 2847 2094 
Q 2847 2600 2669 2842 
Q 2491 3084 2119 3084 
Q 1678 3084 1418 2786 
Q 1159 2488 1159 1978 
L 1159 0 
L 581 0 
L 581 3500 
L 1159 3500 
L 1159 2956 
Q 1356 3278 1631 3431 
Q 1906 3584 2284 3584 
Q 2666 3584 2933 3390 
Q 3200 3197 3328 2828 
z
" transform="scale(0.015625)"/>
      <path id="DejaVuSans-73" d="M 2834 3397 
L 2834 2853 
Q 2591 2978 2328 3040 
Q 2066 3103 1784 3103 
Q 1356 3103 1142 2972 
Q 928 2841 928 2578 
Q 928 2378 1081 2264 
Q 1234 2150 1697 2047 
L 1894 2003 
Q 2506 1872 2764 1633 
Q 3022 1394 3022 966 
Q 3022 478 2636 193 
Q 2250 -91 1575 -91 
Q 1294 -91 989 -36 
Q 684 19 347 128 
L 347 722 
Q 666 556 975 473 
Q 1284 391 1588 391 
Q 1994 391 2212 530 
Q 2431 669 2431 922 
Q 2431 1156 2273 1281 
Q 2116 1406 1581 1522 
L 1381 1569 
Q 847 1681 609 1914 
Q 372 2147 372 2553 
Q 372 3047 722 3315 
Q 1072 3584 1716 3584 
Q 2034 3584 2315 3537 
Q 2597 3491 2834 3397 
z
" transform="scale(0.015625)"/>
      <path id="DejaVuSans-20" transform="scale(0.015625)"/>
      <path id="DejaVuSans-28" d="M 1984 4856 
Q 1566 4138 1362 3434 
Q 1159 2731 1159 2009 
Q 1159 1288 1364 580 
Q 1569 -128 1984 -844 
L 1484 -844 
Q 1016 -109 783 600 
Q 550 1309 550 2009 
Q 550 2706 781 3412 
Q 1013 4119 1484 4856 
L 1984 4856 
z
" transform="scale(0.015625)"/>
      <path id="DejaVuSans-54" d="M -19 4666 
L 3928 4666 
L 3928 4134 
L 2272 4134 
L 2272 0 
L 1638 0 
L 1638 4134 
L -19 4134 
L -19 4666 
z
" transform="scale(0.015625)"/>
      <path id="DejaVuSans-61" d="M 2194 1759 
Q 1497 1759 1228 1600 
Q 959 1441 959 1056 
Q 959 750 1161 570 
Q 1363 391 1709 391 
Q 2188 391 2477 730 
Q 2766 1069 2766 1631 
L 2766 1759 
L 2194 1759 
z
M 3341 1997 
L 3341 0 
L 2766 0 
L 2766 531 
Q 2569 213 2275 61 
Q 1981 -91 1556 -91 
Q 1019 -91 701 211 
Q 384 513 384 1019 
Q 384 1609 779 1909 
Q 1175 2209 1959 2209 
L 2766 2209 
L 2766 2266 
Q 2766 2663 2505 2880 
Q 2244 3097 1772 3097 
Q 1472 3097 1187 3025 
Q 903 2953 641 2809 
L 641 3341 
Q 956 3463 1253 3523 
Q 1550 3584 1831 3584 
Q 2591 3584 2966 3190 
Q 3341 2797 3341 1997 
z
" transform="scale(0.015625)"/>
      <path id="DejaVuSans-72" d="M 2631 2963 
Q 2534 3019 2420 3045 
Q 2306 3072 2169 3072 
Q 1681 3072 1420 2755 
Q 1159 2438 1159 1844 
L 1159 0 
L 581 0 
L 581 3500 
L 1159 3500 
L 1159 2956 
Q 1341 3275 1631 3429 
Q 1922 3584 2338 3584 
Q 2397 3584 2469 3576 
Q 2541 3569 2628 3553 
L 2631 2963 
z
" transform="scale(0.015625)"/>
      <path id="DejaVuSans-67" d="M 2906 1791 
Q 2906 2416 2648 2759 
Q 2391 3103 1925 3103 
Q 1463 3103 1205 2759 
Q 947 2416 947 1791 
Q 947 1169 1205 825 
Q 1463 481 1925 481 
Q 2391 481 2648 825 
Q 2906 1169 2906 1791 
z
M 3481 434 
Q 3481 -459 3084 -895 
Q 2688 -1331 1869 -1331 
Q 1566 -1331 1297 -1286 
Q 1028 -1241 775 -1147 
L 775 -588 
Q 1028 -725 1275 -790 
Q 1522 -856 1778 -856 
Q 2344 -856 2625 -561 
Q 2906 -266 2906 331 
L 2906 616 
Q 2728 306 2450 153 
Q 2172 0 1784 0 
Q 1141 0 747 490 
Q 353 981 353 1791 
Q 353 2603 747 3093 
Q 1141 3584 1784 3584 
Q 2172 3584 2450 3431 
Q 2728 3278 2906 2969 
L 2906 3500 
L 3481 3500 
L 3481 434 
z
" transform="scale(0.015625)"/>
      <path id="DejaVuSans-65" d="M 3597 1894 
L 3597 1613 
L 953 1613 
Q 991 1019 1311 708 
Q 1631 397 2203 397 
Q 2534 397 2845 478 
Q 3156 559 3463 722 
L 3463 178 
Q 3153 47 2828 -22 
Q 2503 -91 2169 -91 
Q 1331 -91 842 396 
Q 353 884 353 1716 
Q 353 2575 817 3079 
Q 1281 3584 2069 3584 
Q 2775 3584 3186 3129 
Q 3597 2675 3597 1894 
z
M 3022 2063 
Q 3016 2534 2758 2815 
Q 2500 3097 2075 3097 
Q 1594 3097 1305 2825 
Q 1016 2553 972 2059 
L 3022 2063 
z
" transform="scale(0.015625)"/>
      <path id="DejaVuSans-74" d="M 1172 4494 
L 1172 3500 
L 2356 3500 
L 2356 3053 
L 1172 3053 
L 1172 1153 
Q 1172 725 1289 603 
Q 1406 481 1766 481 
L 2356 481 
L 2356 0 
L 1766 0 
Q 1100 0 847 248 
Q 594 497 594 1153 
L 594 3053 
L 172 3053 
L 172 3500 
L 594 3500 
L 594 4494 
L 1172 4494 
z
" transform="scale(0.015625)"/>
      <path id="DejaVuSans-29" d="M 513 4856 
L 1013 4856 
Q 1481 4119 1714 3412 
Q 1947 2706 1947 2009 
Q 1947 1309 1714 600 
Q 1481 -109 1013 -844 
L 513 -844 
Q 928 -128 1133 580 
Q 1338 1288 1338 2009 
Q 1338 2731 1133 3434 
Q 928 4138 513 4856 
z
" transform="scale(0.015625)"/>
     </defs>
     <use xlink:href="#DejaVuSans-3c"/>
     <use xlink:href="#DejaVuSans-33" transform="translate(83.789062 0)"/>
     <use xlink:href="#DejaVuSans-30" transform="translate(147.412109 0)"/>
     <use xlink:href="#DejaVuSans-30" transform="translate(211.035156 0)"/>
     <use xlink:href="#DejaVuSans-6d" transform="translate(274.658203 0)"/>
     <use xlink:href="#DejaVuSans-73" transform="translate(372.070312 0)"/>
     <use xlink:href="#DejaVuSans-20" transform="translate(424.169922 0)"/>
     <use xlink:href="#DejaVuSans-28" transform="translate(455.957031 0)"/>
     <use xlink:href="#DejaVuSans-54" transform="translate(494.970703 0)"/>
     <use xlink:href="#DejaVuSans-61" transform="translate(539.554688 0)"/>
     <use xlink:href="#DejaVuSans-72" transform="translate(600.833984 0)"/>
     <use xlink:href="#DejaVuSans-67" transform="translate(640.197266 0)"/>
     <use xlink:href="#DejaVuSans-65" transform="translate(703.673828 0)"/>
     <use xlink:href="#DejaVuSans-74" transform="translate(765.197266 0)"/>
     <use xlink:href="#DejaVuSans-29" transform="translate(804.40625 0)"/>
    </g>
   </g>
   <g id="text_4">
    <!-- Response Time -->
    <g style="fill: #f8fafc" transform="translate(73.660313 64.32) scale(0.2 -0.2)">
     <defs>
      <path id="DejaVuSans-Bold-52" d="M 2297 2597 
Q 2675 2597 2839 2737 
Q 3003 2878 3003 3200 
Q 3003 3519 2839 3656 
Q 2675 3794 2297 3794 
L 1791 3794 
L 1791 2597 
L 2297 2597 
z
M 1791 1766 
L 1791 0 
L 588 0 
L 588 4666 
L 2425 4666 
Q 3347 4666 3776 4356 
Q 4206 4047 4206 3378 
Q 4206 2916 3982 2619 
Q 3759 2322 3309 2181 
Q 3556 2125 3751 1926 
Q 3947 1728 4147 1325 
L 4800 0 
L 3519 0 
L 2950 1159 
Q 2778 1509 2601 1637 
Q 2425 1766 2131 1766 
L 1791 1766 
z
" transform="scale(0.015625)"/>
      <path id="DejaVuSans-Bold-65" d="M 4031 1759 
L 4031 1441 
L 1416 1441 
Q 1456 1047 1700 850 
Q 1944 653 2381 653 
Q 2734 653 3104 758 
Q 3475 863 3866 1075 
L 3866 213 
Q 3469 63 3072 -14 
Q 2675 -91 2278 -91 
Q 1328 -91 801 392 
Q 275 875 275 1747 
Q 275 2603 792 3093 
Q 1309 3584 2216 3584 
Q 3041 3584 3536 3087 
Q 4031 2591 4031 1759 
z
M 2881 2131 
Q 2881 2450 2695 2645 
Q 2509 2841 2209 2841 
Q 1884 2841 1681 2658 
Q 1478 2475 1428 2131 
L 2881 2131 
z
" transform="scale(0.015625)"/>
      <path id="DejaVuSans-Bold-70" d="M 1656 506 
L 1656 -1331 
L 538 -1331 
L 538 3500 
L 1656 3500 
L 1656 2988 
Q 1888 3294 2169 3439 
Q 2450 3584 2816 3584 
Q 3463 3584 3878 3070 
Q 4294 2556 4294 1747 
Q 4294 938 3878 423 
Q 3463 -91 2816 -91 
Q 2450 -91 2169 54 
Q 1888 200 1656 506 
z
M 2400 2772 
Q 2041 2772 1848 2508 
Q 1656 2244 1656 1747 
Q 1656 1250 1848 986 
Q 2041 722 2400 722 
Q 2759 722 2948 984 
Q 3138 1247 3138 1747 
Q 3138 2247 2948 2509 
Q 2759 2772 2400 2772 
z
" transform="scale(0.015625)"/>
      <path id="DejaVuSans-Bold-6f" d="M 2203 2784 
Q 1831 2784 1636 2517 
Q 1441 2250 1441 1747 
Q 1441 1244 1636 976 
Q 1831 709 2203 709 
Q 2569 709 2762 976 
Q 2956 1244 2956 1747 
Q 2956 2250 2762 2517 
Q 2569 2784 2203 2784 
z
M 2203 3584 
Q 3106 3584 3614 3096 
Q 4122 2609 4122 1747 
Q 4122 884 3614 396 
Q 3106 -91 2203 -91 
Q 1297 -91 786 396 
Q 275 884 275 1747 
Q 275 2609 786 3096 
Q 1297 3584 2203 3584 
z
" transform="scale(0.015625)"/>
      <path id="DejaVuSans-Bold-6e" d="M 4056 2131 
L 4056 0 
L 2931 0 
L 2931 347 
L 2931 1631 
Q 2931 2084 2911 2256 
Q 2891 2428 2841 2509 
Q 2775 2619 2662 2680 
Q 2550 2741 2406 2741 
Q 2056 2741 1856 2470 
Q 1656 2200 1656 1722 
L 1656 0 
L 538 0 
L 538 3500 
L 1656 3500 
L 1656 2988 
Q 1909 3294 2193 3439 
Q 2478 3584 2822 3584 
Q 3428 3584 3742 3212 
Q 4056 2841 4056 2131 
z
" transform="scale(0.015625)"/>
      <path id="DejaVuSans-Bold-20" transform="scale(0.015625)"/>
      <path id="DejaVuSans-Bold-54" d="M 31 4666 
L 4331 4666 
L 4331 3756 
L 2784 3756 
L 2784 0 
L 1581 0 
L 1581 3756 
L 31 3756 
L 31 4666 
z
" transform="scale(0.015625)"/>
      <path id="DejaVuSans-Bold-69" d="M 538 3500 
L 1656 3500 
L 1656 0 
L 538 0 
L 538 3500 
z
M 538 4863 
L 1656 4863 
L 1656 3950 
L 538 3950 
L 538 4863 
z
" transform="scale(0.015625)"/>
     </defs>
     <use xlink:href="#DejaVuSans-Bold-52"/>
     <use xlink:href="#DejaVuSans-Bold-65" transform="translate(77.001953 0)"/>
     <use xlink:href="#DejaVuSans-Bold-73" transform="translate(144.824219 0)"/>
     <use xlink:href="#DejaVuSans-Bold-70" transform="translate(204.345703 0)"/>
     <use xlink:href="#DejaVuSans-Bold-6f" transform="translate(275.927734 0)"/>
     <use xlink:href="#DejaVuSans-Bold-6e" transform="translate(344.628906 0)"/>
     <use xlink:href="#DejaVuSans-Bold-73" transform="translate(415.820312 0)"/>
     <use xlink:href="#DejaVuSans-Bold-65" transform="translate(475.341797 0)"/>
     <use xlink:href="#DejaVuSans-Bold-20" transform="translate(543.164062 0)"/>
     <use xlink:href="#DejaVuSans-Bold-54" transform="translate(577.978516 0)"/>
     <use xlink:href="#DejaVuSans-Bold-69" transform="translate(646.191406 0)"/>
     <use xlink:href="#DejaVuSans-Bold-6d" transform="translate(680.46875 0)"/>
     <use xlink:href="#DejaVuSans-Bold-65" transform="translate(784.667969 0)"/>
    </g>
   </g>
  </g>
  <g id="axes_2">
   <g id="patch_5">
    <path d="M 778.910313 337.603404 
C 808.226653 337.603404 836.346219 325.955899 857.076002 305.226115 
C 877.805786 284.496332 889.453291 256.376766 889.453291 227.060426 
C 889.453291 197.744085 877.805786 169.624519 857.076002 148.894736 
C 836.346219 128.164952 808.226653 116.517447 778.910313 116.517447 
C 749.593972 116.517447 721.474406 128.164952 700.744623 148.894736 
C 680.014839 169.624519 668.367334 197.744085 668.367334 227.060426 
C 668.367334 256.376766 680.014839 284.496332 700.744623 305.226115 
C 721.474406 325.955899 749.593972 337.603404 778.910313 337.603404 
z
" clip-path="url(#p32b16fac33)" style="fill: #1e293b; stroke: #f8fafc; stroke-width: 3; stroke-linejoin: miter"/>
   </g>
   <g id="patch_6">
    <path d="M 863.591147 156.004768 
C 855.302515 146.126762 845.349045 137.774809 834.181802 131.327398 
C 823.014559 124.879987 810.80482 120.436005 798.105899 118.196843 
C 785.406979 115.957681 772.413646 115.957681 759.714726 118.196843 
C 747.015805 120.436005 734.806066 124.879987 723.638823 131.327398 
C 712.47158 137.774809 702.51811 146.126762 694.229478 156.004768 
C 685.940846 165.882775 679.44418 177.135331 675.033891 189.2525 
C 670.623602 201.369669 668.367334 214.165604 668.367334 227.060426 
C 668.367334 239.955247 670.623602 252.751182 675.033891 264.868351 
C 679.44418 276.98552 685.940846 288.238076 694.229478 298.116083 
C 702.51811 307.994089 712.47158 316.346042 723.638823 322.793453 
C 734.806066 329.240864 747.015805 333.684846 759.714726 335.924008 
C 772.413646 338.16317 785.406979 338.16317 798.105899 335.924008 
C 810.80482 333.684846 823.014559 329.240864 834.181802 322.793453 
C 845.349045 316.346042 855.302515 307.994089 863.591147 298.116083 
C 871.879779 288.238076 878.376445 276.98552 882.786734 264.868351 
C 887.197023 252.751182 889.453291 239.955247 889.453291 227.060426 
L 778.910313 227.060426 
z
" clip-path="url(#p32b16fac33)" style="fill: #00e676; stroke: #f8fafc; stroke-width: 3; stroke-linejoin: miter"/>
   </g>
   <g id="patch_7">
    <path d="M 778.910313 292.381277 
C 796.233605 292.381277 812.849712 285.49866 825.099129 273.249242 
C 837.348547 260.999825 844.231164 244.383718 844.231164 227.060426 
C 844.231164 209.737133 837.348547 193.121026 825.099129 180.871609 
C 812.849712 168.622191 796.233605 161.739574 778.910313 161.739574 
C 761.58702 161.739574 744.970913 168.622191 732.721496 180.871609 
C 720.472078 193.121026 713.589461 209.737133 713.589461 227.060426 
C 713.589461 244.383718 720.472078 260.999825 732.721496 273.249242 
C 744.970913 285.49866 761.58702 292.381277 778.910313 292.381277 
z
" clip-path="url(#p32b16fac33)" style="fill: #1e293b; stroke: #334155; stroke-width: 2; stroke-linejoin: miter"/>
   </g>
   <g id="text_5">
    <!-- 500 -->
    <g style="fill: #ffd700" transform="translate(749.6875 224.737314) scale(0.28 -0.28)">
     <defs>
      <path id="DejaVuSans-Bold-35" d="M 678 4666 
L 3669 4666 
L 3669 3781 
L 1638 3781 
L 1638 3059 
Q 1775 3097 1914 3117 
Q 2053 3138 2203 3138 
Q 3056 3138 3531 2711 
Q 4006 2284 4006 1522 
Q 4006 766 3489 337 
Q 2972 -91 2053 -91 
Q 1656 -91 1267 -14 
Q 878 63 494 219 
L 494 1166 
Q 875 947 1217 837 
Q 1559 728 1863 728 
Q 2300 728 2551 942 
Q 2803 1156 2803 1522 
Q 2803 1891 2551 2103 
Q 2300 2316 1863 2316 
Q 1603 2316 1309 2248 
Q 1016 2181 678 2041 
L 678 4666 
z
" transform="scale(0.015625)"/>
     </defs>
     <use xlink:href="#DejaVuSans-Bold-35"/>
     <use xlink:href="#DejaVuSans-Bold-30" transform="translate(69.580078 0)"/>
     <use xlink:href="#DejaVuSans-Bold-30" transform="translate(139.160156 0)"/>
    </g>
   </g>
   <g id="text_6">
    <!-- MB -->
    <g style="fill: #f8fafc" transform="translate(763.094219 257.150705) scale(0.18 -0.18)">
     <defs>
      <path id="DejaVuSans-Bold-4d" d="M 588 4666 
L 2119 4666 
L 3181 2169 
L 4250 4666 
L 5778 4666 
L 5778 0 
L 4641 0 
L 4641 3413 
L 3566 897 
L 2803 897 
L 1728 3413 
L 1728 0 
L 588 0 
L 588 4666 
z
" transform="scale(0.015625)"/>
      <path id="DejaVuSans-Bold-42" d="M 2456 2859 
Q 2741 2859 2887 2984 
Q 3034 3109 3034 3353 
Q 3034 3594 2887 3720 
Q 2741 3847 2456 3847 
L 1791 3847 
L 1791 2859 
L 2456 2859 
z
M 2497 819 
Q 2859 819 3042 972 
Q 3225 1125 3225 1434 
Q 3225 1738 3044 1889 
Q 2863 2041 2497 2041 
L 1791 2041 
L 1791 819 
L 2497 819 
z
M 3616 2497 
Q 4003 2384 4215 2081 
Q 4428 1778 4428 1338 
Q 4428 663 3972 331 
Q 3516 0 2584 0 
L 588 0 
L 588 4666 
L 2394 4666 
Q 3366 4666 3802 4372 
Q 4238 4078 4238 3431 
Q 4238 3091 4078 2852 
Q 3919 2613 3616 2497 
z
" transform="scale(0.015625)"/>
     </defs>
     <use xlink:href="#DejaVuSans-Bold-4d"/>
     <use xlink:href="#DejaVuSans-Bold-42" transform="translate(99.511719 0)"/>
    </g>
   </g>
   <g id="text_7">
    <!-- &lt;500MB (Target) -->
    <g style="fill: #7a828e" transform="translate(719.493438 371.614614) scale(0.14 -0.14)">
     <defs>
      <path id="DejaVuSans-35" d="M 691 4666 
L 3169 4666 
L 3169 4134 
L 1269 4134 
L 1269 2991 
Q 1406 3038 1543 3061 
Q 1681 3084 1819 3084 
Q 2600 3084 3056 2656 
Q 3513 2228 3513 1497 
Q 3513 744 3044 326 
Q 2575 -91 1722 -91 
Q 1428 -91 1123 -41 
Q 819 9 494 109 
L 494 744 
Q 775 591 1075 516 
Q 1375 441 1709 441 
Q 2250 441 2565 725 
Q 2881 1009 2881 1497 
Q 2881 1984 2565 2268 
Q 2250 2553 1709 2553 
Q 1456 2553 1204 2497 
Q 953 2441 691 2322 
L 691 4666 
z
" transform="scale(0.015625)"/>
      <path id="DejaVuSans-4d" d="M 628 4666 
L 1569 4666 
L 2759 1491 
L 3956 4666 
L 4897 4666 
L 4897 0 
L 4281 0 
L 4281 4097 
L 3078 897 
L 2444 897 
L 1241 4097 
L 1241 0 
L 628 0 
L 628 4666 
z
" transform="scale(0.015625)"/>
      <path id="DejaVuSans-42" d="M 1259 2228 
L 1259 519 
L 2272 519 
Q 2781 519 3026 730 
Q 3272 941 3272 1375 
Q 3272 1813 3026 2020 
Q 2781 2228 2272 2228 
L 1259 2228 
z
M 1259 4147 
L 1259 2741 
L 2194 2741 
Q 2656 2741 2882 2914 
Q 3109 3088 3109 3444 
Q 3109 3797 2882 3972 
Q 2656 4147 2194 4147 
L 1259 4147 
z
M 628 4666 
L 2241 4666 
Q 2963 4666 3353 4366 
Q 3744 4066 3744 3513 
Q 3744 3084 3544 2831 
Q 3344 2578 2956 2516 
Q 3422 2416 3680 2098 
Q 3938 1781 3938 1306 
Q 3938 681 3513 340 
Q 3088 0 2303 0 
L 628 0 
L 628 4666 
z
" transform="scale(0.015625)"/>
     </defs>
     <use xlink:href="#DejaVuSans-3c"/>
     <use xlink:href="#DejaVuSans-35" transform="translate(83.789062 0)"/>
     <use xlink:href="#DejaVuSans-30" transform="translate(147.412109 0)"/>
     <use xlink:href="#DejaVuSans-30" transform="translate(211.035156 0)"/>
     <use xlink:href="#DejaVuSans-4d" transform="translate(274.658203 0)"/>
     <use xlink:href="#DejaVuSans-42" transform="translate(360.9375 0)"/>
     <use xlink:href="#DejaVuSans-20" transform="translate(429.541016 0)"/>
     <use xlink:href="#DejaVuSans-28" transform="translate(461.328125 0)"/>
     <use xlink:href="#DejaVuSans-54" transform="translate(500.341797 0)"/>
     <use xlink:href="#DejaVuSans-61" transform="translate(544.925781 0)"/>
     <use xlink:href="#DejaVuSans-72" transform="translate(606.205078 0)"/>
     <use xlink:href="#DejaVuSans-67" transform="translate(645.568359 0)"/>
     <use xlink:href="#DejaVuSans-65" transform="translate(709.044922 0)"/>
     <use xlink:href="#DejaVuSans-74" transform="translate(770.568359 0)"/>
     <use xlink:href="#DejaVuSans-29" transform="translate(809.777344 0)"/>
    </g>
   </g>
   <g id="text_8">
    <!-- Memory -->
    <g style="fill: #f8fafc" transform="translate(733.435313 64.32) scale(0.2 -0.2)">
     <defs>
      <path id="DejaVuSans-Bold-72" d="M 3138 2547 
Q 2991 2616 2845 2648 
Q 2700 2681 2553 2681 
Q 2122 2681 1889 2404 
Q 1656 2128 1656 1613 
L 1656 0 
L 538 0 
L 538 3500 
L 1656 3500 
L 1656 2925 
Q 1872 3269 2151 3426 
Q 2431 3584 2822 3584 
Q 2878 3584 2943 3579 
Q 3009 3575 3134 3559 
L 3138 2547 
z
" transform="scale(0.015625)"/>
      <path id="DejaVuSans-Bold-79" d="M 78 3500 
L 1197 3500 
L 2138 1125 
L 2938 3500 
L 4056 3500 
L 2584 -331 
Q 2363 -916 2067 -1148 
Q 1772 -1381 1288 -1381 
L 641 -1381 
L 641 -647 
L 991 -647 
Q 1275 -647 1404 -556 
Q 1534 -466 1606 -231 
L 1638 -134 
L 78 3500 
z
" transform="scale(0.015625)"/>
     </defs>
     <use xlink:href="#DejaVuSans-Bold-4d"/>
     <use xlink:href="#DejaVuSans-Bold-65" transform="translate(99.511719 0)"/>
     <use xlink:href="#DejaVuSans-Bold-6d" transform="translate(167.333984 0)"/>
     <use xlink:href="#DejaVuSans-Bold-6f" transform="translate(271.533203 0)"/>
     <use xlink:href="#DejaVuSans-Bold-72" transform="translate(340.234375 0)"/>
     <use xlink:href="#DejaVuSans-Bold-79" transform="translate(389.550781 0)"/>
    </g>
   </g>
  </g>
  <g id="axes_3">
   <g id="patch_8">
    <path d="M 158.910313 744.602553 
C 188.226653 744.602553 216.346219 732.955048 237.076002 712.225264 
C 257.805786 691.495481 269.453291 663.375915 269.453291 634.059574 
C 269.453291 604.743234 257.805786 576.623668 237.076002 555.893885 
C 216.346219 535.164101 188.226653 523.516596 158.910313 523.516596 
C 129.593972 523.516596 101.474406 535.164101 80.744623 555.893885 
C 60.014839 576.623668 48.367334 604.743234 48.367334 634.059574 
C 48.367334 663.375915 60.014839 691.495481 80.744623 712.225264 
C 101.474406 732.955048 129.593972 744.602553 158.910313 744.602553 
z
" clip-path="url(#p092831b6ea)" style="fill: #1e293b; stroke: #f8fafc; stroke-width: 3; stroke-linejoin: miter"/>
   </g>
   <g id="patch_9">
    <path d="M 243.591147 563.003917 
C 235.302515 553.125911 225.349045 544.773958 214.181802 538.326547 
C 203.014559 531.879136 190.80482 527.435154 178.105899 525.195992 
C 165.406979 522.95683 152.413646 522.95683 139.714726 525.195992 
C 127.015805 527.435154 114.806066 531.879136 103.638823 538.326547 
C 92.47158 544.773958 82.51811 553.125911 74.229478 563.003917 
C 65.940846 572.881924 59.44418 584.13448 55.033891 596.251649 
C 50.623602 608.368818 48.367334 621.164753 48.367334 634.059574 
C 48.367334 646.954396 50.623602 659.750331 55.033891 671.8675 
C 59.44418 683.984669 65.940846 695.237225 74.229478 705.115232 
C 82.51811 714.993238 92.47158 723.345191 103.638823 729.792602 
C 114.806066 736.240013 127.015805 740.683995 139.714726 742.923157 
C 152.413646 745.162319 165.406979 745.162319 178.105899 742.923157 
C 190.80482 740.683995 203.014559 736.240013 214.181802 729.792602 
C 225.349045 723.345191 235.302515 714.993238 243.591147 705.115232 
C 251.879779 695.237225 258.376445 683.984669 262.786734 671.8675 
C 267.197023 659.750331 269.453291 646.954396 269.453291 634.059574 
L 158.910313 634.059574 
z
" clip-path="url(#p092831b6ea)" style="fill: #00e676; stroke: #f8fafc; stroke-width: 3; stroke-linejoin: miter"/>
   </g>
   <g id="patch_10">
    <path d="M 158.910313 699.380426 
C 176.233605 699.380426 192.849712 692.497809 205.099129 680.248391 
C 217.348547 667.998974 224.231164 651.382867 224.231164 634.059574 
C 224.231164 616.736282 217.348547 600.120175 205.099129 587.870758 
C 192.849712 575.62134 176.233605 568.738723 158.910313 568.738723 
C 141.58702 568.738723 124.970913 575.62134 112.721496 587.870758 
C 100.472078 600.120175 93.589461 616.736282 93.589461 634.059574 
C 93.589461 651.382867 100.472078 667.998974 112.721496 680.248391 
C 124.970913 692.497809 141.58702 699.380426 158.910313 699.380426 
z
" clip-path="url(#p092831b6ea)" style="fill: #1e293b; stroke: #334155; stroke-width: 2; stroke-linejoin: miter"/>
   </g>
   <g id="text_9">
    <!-- 5 -->
    <g style="fill: #ffd700" transform="translate(149.169375 631.736463) scale(0.28 -0.28)">
     <use xlink:href="#DejaVuSans-Bold-35"/>
    </g>
   </g>
   <g id="text_10">
    <!-- KB -->
    <g style="fill: #f8fafc" transform="translate(145.077031 664.149854) scale(0.18 -0.18)">
     <defs>
      <path id="DejaVuSans-Bold-4b" d="M 588 4666 
L 1791 4666 
L 1791 2963 
L 3525 4666 
L 4922 4666 
L 2675 2456 
L 5153 0 
L 3647 0 
L 1791 1838 
L 1791 0 
L 588 0 
L 588 4666 
z
" transform="scale(0.015625)"/>
     </defs>
     <use xlink:href="#DejaVuSans-Bold-4b"/>
     <use xlink:href="#DejaVuSans-Bold-42" transform="translate(77.490234 0)"/>
    </g>
   </g>
   <g id="text_11">
    <!-- 5KB (Target) -->
    <g style="fill: #7a828e" transform="translate(115.715938 778.613763) scale(0.14 -0.14)">
     <defs>
      <path id="DejaVuSans-4b" d="M 628 4666 
L 1259 4666 
L 1259 2694 
L 3353 4666 
L 4166 4666 
L 1850 2491 
L 4331 0 
L 3500 0 
L 1259 2247 
L 1259 0 
L 628 0 
L 628 4666 
z
" transform="scale(0.015625)"/>
     </defs>
     <use xlink:href="#DejaVuSans-35"/>
     <use xlink:href="#DejaVuSans-4b" transform="translate(63.623047 0)"/>
     <use xlink:href="#DejaVuSans-42" transform="translate(129.199219 0)"/>
     <use xlink:href="#DejaVuSans-20" transform="translate(197.802734 0)"/>
     <use xlink:href="#DejaVuSans-28" transform="translate(229.589844 0)"/>
     <use xlink:href="#DejaVuSans-54" transform="translate(268.603516 0)"/>
     <use xlink:href="#DejaVuSans-61" transform="translate(313.1875 0)"/>
     <use xlink:href="#DejaVuSans-72" transform="translate(374.466797 0)"/>
     <use xlink:href="#DejaVuSans-67" transform="translate(413.830078 0)"/>
     <use xlink:href="#DejaVuSans-65" transform="translate(477.306641 0)"/>
     <use xlink:href="#DejaVuSans-74" transform="translate(538.830078 0)"/>
     <use xlink:href="#DejaVuSans-29" transform="translate(578.039062 0)"/>
    </g>
   </g>
   <g id="text_12">
    <!-- Model Size -->
    <g style="fill: #f8fafc" transform="translate(98.005625 471.319149) scale(0.2 -0.2)">
     <defs>
      <path id="DejaVuSans-Bold-64" d="M 2919 2988 
L 2919 4863 
L 4044 4863 
L 4044 0 
L 2919 0 
L 2919 506 
Q 2688 197 2409 53 
Q 2131 -91 1766 -91 
Q 1119 -91 703 423 
Q 288 938 288 1747 
Q 288 2556 703 3070 
Q 1119 3584 1766 3584 
Q 2128 3584 2408 3439 
Q 2688 3294 2919 2988 
z
M 2181 722 
Q 2541 722 2730 984 
Q 2919 1247 2919 1747 
Q 2919 2247 2730 2509 
Q 2541 2772 2181 2772 
Q 1825 2772 1636 2509 
Q 1447 2247 1447 1747 
Q 1447 1247 1636 984 
Q 1825 722 2181 722 
z
" transform="scale(0.015625)"/>
      <path id="DejaVuSans-Bold-6c" d="M 538 4863 
L 1656 4863 
L 1656 0 
L 538 0 
L 538 4863 
z
" transform="scale(0.015625)"/>
      <path id="DejaVuSans-Bold-53" d="M 3834 4519 
L 3834 3531 
Q 3450 3703 3084 3790 
Q 2719 3878 2394 3878 
Q 1963 3878 1756 3759 
Q 1550 3641 1550 3391 
Q 1550 3203 1689 3098 
Q 1828 2994 2194 2919 
L 2706 2816 
Q 3484 2659 3812 2340 
Q 4141 2022 4141 1434 
Q 4141 663 3683 286 
Q 3225 -91 2284 -91 
Q 1841 -91 1394 -6 
Q 947 78 500 244 
L 500 1259 
Q 947 1022 1364 901 
Q 1781 781 2169 781 
Q 2563 781 2772 912 
Q 2981 1044 2981 1288 
Q 2981 1506 2839 1625 
Q 2697 1744 2272 1838 
L 1806 1941 
Q 1106 2091 782 2419 
Q 459 2747 459 3303 
Q 459 4000 909 4375 
Q 1359 4750 2203 4750 
Q 2588 4750 2994 4692 
Q 3400 4634 3834 4519 
z
" transform="scale(0.015625)"/>
      <path id="DejaVuSans-Bold-7a" d="M 366 3500 
L 3419 3500 
L 3419 2719 
L 1575 800 
L 3419 800 
L 3419 0 
L 288 0 
L 288 781 
L 2131 2700 
L 366 2700 
L 366 3500 
z
" transform="scale(0.015625)"/>
     </defs>
     <use xlink:href="#DejaVuSans-Bold-4d"/>
     <use xlink:href="#DejaVuSans-Bold-6f" transform="translate(99.511719 0)"/>
     <use xlink:href="#DejaVuSans-Bold-64" transform="translate(168.212891 0)"/>
     <use xlink:href="#DejaVuSans-Bold-65" transform="translate(239.794922 0)"/>
     <use xlink:href="#DejaVuSans-Bold-6c" transform="translate(307.617188 0)"/>
     <use xlink:href="#DejaVuSans-Bold-20" transform="translate(341.894531 0)"/>
     <use xlink:href="#DejaVuSans-Bold-53" transform="translate(376.708984 0)"/>
     <use xlink:href="#DejaVuSans-Bold-69" transform="translate(448.730469 0)"/>
     <use xlink:href="#DejaVuSans-Bold-7a" transform="translate(483.007812 0)"/>
     <use xlink:href="#DejaVuSans-Bold-65" transform="translate(541.210938 0)"/>
    </g>
   </g>
  </g>
  <g id="axes_4">
   <g id="patch_11">
    <path d="M 778.910313 744.602553 
C 808.226653 744.602553 836.346219 732.955048 857.076002 712.225264 
C 877.805786 691.495481 889.453291 663.375915 889.453291 634.059574 
C 889.453291 604.743234 877.805786 576.623668 857.076002 555.893885 
C 836.346219 535.164101 808.226653 523.516596 778.910313 523.516596 
C 749.593972 523.516596 721.474406 535.164101 700.744623 555.893885 
C 680.014839 576.623668 668.367334 604.743234 668.367334 634.059574 
C 668.367334 663.375915 680.014839 691.495481 700.744623 712.225264 
C 721.474406 732.955048 749.593972 744.602553 778.910313 744.602553 
z
" clip-path="url(#pb3dabef776)" style="fill: #1e293b; stroke: #f8fafc; stroke-width: 3; stroke-linejoin: miter"/>
   </g>
   <g id="patch_12">
    <path d="M 863.591147 563.003917 
C 855.302515 553.125911 845.349045 544.773958 834.181802 538.326547 
C 823.014559 531.879136 810.80482 527.435154 798.105899 525.195992 
C 785.406979 522.95683 772.413646 522.95683 759.714726 525.195992 
C 747.015805 527.435154 734.806066 531.879136 723.638823 538.326547 
C 712.47158 544.773958 702.51811 553.125911 694.229478 563.003917 
C 685.940846 572.881924 679.44418 584.13448 675.033891 596.251649 
C 670.623602 608.368818 668.367334 621.164753 668.367334 634.059574 
C 668.367334 646.954396 670.623602 659.750331 675.033891 671.8675 
C 679.44418 683.984669 685.940846 695.237225 694.229478 705.115232 
C 702.51811 714.993238 712.47158 723.345191 723.638823 729.792602 
C 734.806066 736.240013 747.015805 740.683995 759.714726 742.923157 
C 772.413646 745.162319 785.406979 745.162319 798.105899 742.923157 
C 810.80482 740.683995 823.014559 736.240013 834.181802 729.792602 
C 845.349045 723.345191 855.302515 714.993238 863.591147 705.115232 
C 871.879779 695.237225 878.376445 683.984669 882.786734 671.8675 
C 887.197023 659.750331 889.453291 646.954396 889.453291 634.059574 
L 778.910313 634.059574 
z
" clip-path="url(#pb3dabef776)" style="fill: #00e676; stroke: #f8fafc; stroke-width: 3; stroke-linejoin: miter"/>
   </g>
   <g id="patch_13">
    <path d="M 778.910313 699.380426 
C 796.233605 699.380426 812.849712 692.497809 825.099129 680.248391 
C 837.348547 667.998974 844.231164 651.382867 844.231164 634.059574 
C 844.231164 616.736282 837.348547 600.120175 825.099129 587.870758 
C 812.849712 575.62134 796.233605 568.738723 778.910313 568.738723 
C 761.58702 568.738723 744.970913 575.62134 732.721496 587.870758 
C 720.472078 600.120175 713.589461 616.736282 713.589461 634.059574 
C 713.589461 651.382867 720.472078 667.998974 732.721496 680.248391 
C 744.970913 692.497809 761.58702 699.380426 778.910313 699.380426 
z
" clip-path="url(#pb3dabef776)" style="fill: #1e293b; stroke: #334155; stroke-width: 2; stroke-linejoin: miter"/>
   </g>
   <g id="text_13">
    <!-- 4300 -->
    <g style="fill: #ffd700" transform="translate(739.946563 631.736463) scale(0.28 -0.28)">
     <defs>
      <path id="DejaVuSans-Bold-34" d="M 2356 3675 
L 1038 1722 
L 2356 1722 
L 2356 3675 
z
M 2156 4666 
L 3494 4666 
L 3494 1722 
L 4159 1722 
L 4159 850 
L 3494 850 
L 3494 0 
L 2356 0 
L 2356 850 
L 288 850 
L 288 1881 
L 2156 4666 
z
" transform="scale(0.015625)"/>
     </defs>
     <use xlink:href="#DejaVuSans-Bold-34"/>
     <use xlink:href="#DejaVuSans-Bold-33" transform="translate(69.580078 0)"/>
     <use xlink:href="#DejaVuSans-Bold-30" transform="translate(139.160156 0)"/>
     <use xlink:href="#DejaVuSans-Bold-30" transform="translate(208.740234 0)"/>
    </g>
   </g>
   <g id="text_14">
    <!-- ops/sec -->
    <g style="fill: #f8fafc" transform="translate(740.844531 664.149854) scale(0.18 -0.18)">
     <defs>
      <path id="DejaVuSans-Bold-2f" d="M 1644 4666 
L 2338 4666 
L 691 -594 
L 0 -594 
L 1644 4666 
z
" transform="scale(0.015625)"/>
      <path id="DejaVuSans-Bold-63" d="M 3366 3391 
L 3366 2478 
Q 3138 2634 2908 2709 
Q 2678 2784 2431 2784 
Q 1963 2784 1702 2511 
Q 1441 2238 1441 1747 
Q 1441 1256 1702 982 
Q 1963 709 2431 709 
Q 2694 709 2930 787 
Q 3166 866 3366 1019 
L 3366 103 
Q 3103 6 2833 -42 
Q 2563 -91 2291 -91 
Q 1344 -91 809 395 
Q 275 881 275 1747 
Q 275 2613 809 3098 
Q 1344 3584 2291 3584 
Q 2566 3584 2833 3536 
Q 3100 3488 3366 3391 
z
" transform="scale(0.015625)"/>
     </defs>
     <use xlink:href="#DejaVuSans-Bold-6f"/>
     <use xlink:href="#DejaVuSans-Bold-70" transform="translate(68.701172 0)"/>
     <use xlink:href="#DejaVuSans-Bold-73" transform="translate(140.283203 0)"/>
     <use xlink:href="#DejaVuSans-Bold-2f" transform="translate(199.804688 0)"/>
     <use xlink:href="#DejaVuSans-Bold-73" transform="translate(236.328125 0)"/>
     <use xlink:href="#DejaVuSans-Bold-65" transform="translate(295.849609 0)"/>
     <use xlink:href="#DejaVuSans-Bold-63" transform="translate(363.671875 0)"/>
    </g>
   </g>
   <g id="text_15">
    <!-- 4,300+ (Tested) -->
    <g style="fill: #7a828e" transform="translate(722.783438 778.613763) scale(0.14 -0.14)">
     <defs>
      <path id="DejaVuSans-34" d="M 2419 4116 
L 825 1625 
L 2419 1625 
L 2419 4116 
z
M 2253 4666 
L 3047 4666 
L 3047 1625 
L 3713 1625 
L 3713 1100 
L 3047 1100 
L 3047 0 
L 2419 0 
L 2419 1100 
L 313 1100 
L 313 1709 
L 2253 4666 
z
" transform="scale(0.015625)"/>
      <path id="DejaVuSans-2c" d="M 750 794 
L 1409 794 
L 1409 256 
L 897 -744 
L 494 -744 
L 750 256 
L 750 794 
z
" transform="scale(0.015625)"/>
      <path id="DejaVuSans-2b" d="M 2944 4013 
L 2944 2272 
L 4684 2272 
L 4684 1741 
L 2944 1741 
L 2944 0 
L 2419 0 
L 2419 1741 
L 678 1741 
L 678 2272 
L 2419 2272 
L 2419 4013 
L 2944 4013 
z
" transform="scale(0.015625)"/>
      <path id="DejaVuSans-64" d="M 2906 2969 
L 2906 4863 
L 3481 4863 
L 3481 0 
L 2906 0 
L 2906 525 
Q 2725 213 2448 61 
Q 2172 -91 1784 -91 
Q 1150 -91 751 415 
Q 353 922 353 1747 
Q 353 2572 751 3078 
Q 1150 3584 1784 3584 
Q 2172 3584 2448 3432 
Q 2725 3281 2906 2969 
z
M 947 1747 
Q 947 1113 1208 752 
Q 1469 391 1925 391 
Q 2381 391 2643 752 
Q 2906 1113 2906 1747 
Q 2906 2381 2643 2742 
Q 2381 3103 1925 3103 
Q 1469 3103 1208 2742 
Q 947 2381 947 1747 
z
" transform="scale(0.015625)"/>
     </defs>
     <use xlink:href="#DejaVuSans-34"/>
     <use xlink:href="#DejaVuSans-2c" transform="translate(63.623047 0)"/>
     <use xlink:href="#DejaVuSans-33" transform="translate(95.410156 0)"/>
     <use xlink:href="#DejaVuSans-30" transform="translate(159.033203 0)"/>
     <use xlink:href="#DejaVuSans-30" transform="translate(222.65625 0)"/>
     <use xlink:href="#DejaVuSans-2b" transform="translate(286.279297 0)"/>
     <use xlink:href="#DejaVuSans-20" transform="translate(370.068359 0)"/>
     <use xlink:href="#DejaVuSans-28" transform="translate(401.855469 0)"/>
     <use xlink:href="#DejaVuSans-54" transform="translate(440.869141 0)"/>
     <use xlink:href="#DejaVuSans-65" transform="translate(484.953125 0)"/>
     <use xlink:href="#DejaVuSans-73" transform="translate(546.476562 0)"/>
     <use xlink:href="#DejaVuSans-74" transform="translate(598.576172 0)"/>
     <use xlink:href="#DejaVuSans-65" transform="translate(637.785156 0)"/>
     <use xlink:href="#DejaVuSans-64" transform="translate(699.308594 0)"/>
     <use xlink:href="#DejaVuSans-29" transform="translate(762.785156 0)"/>
    </g>
   </g>
   <g id="text_16">
    <!-- Throughput -->
    <g style="fill: #f8fafc" transform="translate(712.716563 471.319149) scale(0.2 -0.2)">
     <defs>
      <path id="DejaVuSans-Bold-68" d="M 4056 2131 
L 4056 0 
L 2931 0 
L 2931 347 
L 2931 1625 
Q 2931 2084 2911 2256 
Q 2891 2428 2841 2509 
Q 2775 2619 2662 2680 
Q 2550 2741 2406 2741 
Q 2056 2741 1856 2470 
Q 1656 2200 1656 1722 
L 1656 0 
L 538 0 
L 538 4863 
L 1656 4863 
L 1656 2988 
Q 1909 3294 2193 3439 
Q 2478 3584 2822 3584 
Q 3428 3584 3742 3212 
Q 4056 2841 4056 2131 
z
" transform="scale(0.015625)"/>
      <path id="DejaVuSans-Bold-75" d="M 500 1363 
L 500 3500 
L 1625 3500 
L 1625 3150 
Q 1625 2866 1622 2436 
Q 1619 2006 1619 1863 
Q 1619 1441 1641 1255 
Q 1663 1069 1716 984 
Q 1784 875 1895 815 
Q 2006 756 2150 756 
Q 2500 756 2700 1025 
Q 2900 1294 2900 1772 
L 2900 3500 
L 4019 3500 
L 4019 0 
L 2900 0 
L 2900 506 
Q 2647 200 2364 54 
Q 2081 -91 1741 -91 
Q 1134 -91 817 281 
Q 500 653 500 1363 
z
" transform="scale(0.015625)"/>
      <path id="DejaVuSans-Bold-67" d="M 2919 594 
Q 2688 288 2409 144 
Q 2131 0 1766 0 
Q 1125 0 706 504 
Q 288 1009 288 1791 
Q 288 2575 706 3076 
Q 1125 3578 1766 3578 
Q 2131 3578 2409 3434 
Q 2688 3291 2919 2981 
L 2919 3500 
L 4044 3500 
L 4044 353 
Q 4044 -491 3511 -936 
Q 2978 -1381 1966 -1381 
Q 1638 -1381 1331 -1331 
Q 1025 -1281 716 -1178 
L 716 -306 
Q 1009 -475 1290 -558 
Q 1572 -641 1856 -641 
Q 2406 -641 2662 -400 
Q 2919 -159 2919 353 
L 2919 594 
z
M 2181 2772 
Q 1834 2772 1640 2515 
Q 1447 2259 1447 1791 
Q 1447 1309 1634 1061 
Q 1822 813 2181 813 
Q 2531 813 2725 1069 
Q 2919 1325 2919 1791 
Q 2919 2259 2725 2515 
Q 2531 2772 2181 2772 
z
" transform="scale(0.015625)"/>
      <path id="DejaVuSans-Bold-74" d="M 1759 4494 
L 1759 3500 
L 2913 3500 
L 2913 2700 
L 1759 2700 
L 1759 1216 
Q 1759 972 1856 886 
Q 1953 800 2241 800 
L 2816 800 
L 2816 0 
L 1856 0 
Q 1194 0 917 276 
Q 641 553 641 1216 
L 641 2700 
L 84 2700 
L 84 3500 
L 641 3500 
L 641 4494 
L 1759 4494 
z
" transform="scale(0.015625)"/>
     </defs>
     <use xlink:href="#DejaVuSans-Bold-54"/>
     <use xlink:href="#DejaVuSans-Bold-68" transform="translate(68.212891 0)"/>
     <use xlink:href="#DejaVuSans-Bold-72" transform="translate(139.404297 0)"/>
     <use xlink:href="#DejaVuSans-Bold-6f" transform="translate(188.720703 0)"/>
     <use xlink:href="#DejaVuSans-Bold-75" transform="translate(257.421875 0)"/>
     <use xlink:href="#DejaVuSans-Bold-67" transform="translate(328.613281 0)"/>
     <use xlink:href="#DejaVuSans-Bold-68" transform="translate(400.195312 0)"/>
     <use xlink:href="#DejaVuSans-Bold-70" transform="translate(471.386719 0)"/>
     <use xlink:href="#DejaVuSans-Bold-75" transform="translate(542.96875 0)"/>
     <use xlink:href="#DejaVuSans-Bold-74" transform="translate(614.160156 0)"/>
    </g>
   </g>
  </g>
  <g id="text_17">
   <!-- VNX Edge Performance: Design Targets (Not Yet Tested) -->
   <g style="fill: #f8fafc" transform="translate(7.2 28.475625) scale(0.28 -0.28)">
    <defs>
     <path id="DejaVuSans-Bold-56" d="M 31 4666 
L 1241 4666 
L 2478 1222 
L 3713 4666 
L 4922 4666 
L 3194 0 
L 1759 0 
L 31 4666 
z
" transform="scale(0.015625)"/>
     <path id="DejaVuSans-Bold-4e" d="M 588 4666 
L 1931 4666 
L 3628 1466 
L 3628 4666 
L 4769 4666 
L 4769 0 
L 3425 0 
L 1728 3200 
L 1728 0 
L 588 0 
L 588 4666 
z
" transform="scale(0.015625)"/>
     <path id="DejaVuSans-Bold-58" d="M 3188 2381 
L 4806 0 
L 3553 0 
L 2463 1594 
L 1381 0 
L 122 0 
L 1741 2381 
L 184 4666 
L 1441 4666 
L 2463 3163 
L 3481 4666 
L 4744 4666 
L 3188 2381 
z
" transform="scale(0.015625)"/>
     <path id="DejaVuSans-Bold-45" d="M 588 4666 
L 3834 4666 
L 3834 3756 
L 1791 3756 
L 1791 2888 
L 3713 2888 
L 3713 1978 
L 1791 1978 
L 1791 909 
L 3903 909 
L 3903 0 
L 588 0 
L 588 4666 
z
" transform="scale(0.015625)"/>
     <path id="DejaVuSans-Bold-50" d="M 588 4666 
L 2584 4666 
Q 3475 4666 3951 4270 
Q 4428 3875 4428 3144 
Q 4428 2409 3951 2014 
Q 3475 1619 2584 1619 
L 1791 1619 
L 1791 0 
L 588 0 
L 588 4666 
z
M 1791 3794 
L 1791 2491 
L 2456 2491 
Q 2806 2491 2997 2661 
Q 3188 2831 3188 3144 
Q 3188 3456 2997 3625 
Q 2806 3794 2456 3794 
L 1791 3794 
z
" transform="scale(0.015625)"/>
     <path id="DejaVuSans-Bold-66" d="M 2841 4863 
L 2841 4128 
L 2222 4128 
Q 1984 4128 1890 4042 
Q 1797 3956 1797 3744 
L 1797 3500 
L 2753 3500 
L 2753 2700 
L 1797 2700 
L 1797 0 
L 678 0 
L 678 2700 
L 122 2700 
L 122 3500 
L 678 3500 
L 678 3744 
Q 678 4316 997 4589 
Q 1316 4863 1984 4863 
L 2841 4863 
z
" transform="scale(0.015625)"/>
     <path id="DejaVuSans-Bold-61" d="M 2106 1575 
Q 1756 1575 1579 1456 
Q 1403 1338 1403 1106 
Q 1403 894 1545 773 
Q 1688 653 1941 653 
Q 2256 653 2472 879 
Q 2688 1106 2688 1447 
L 2688 1575 
L 2106 1575 
z
M 3816 1997 
L 3816 0 
L 2688 0 
L 2688 519 
Q 2463 200 2181 54 
Q 1900 -91 1497 -91 
Q 953 -91 614 226 
Q 275 544 275 1050 
Q 275 1666 698 1953 
Q 1122 2241 2028 2241 
L 2688 2241 
L 2688 2328 
Q 2688 2594 2478 2717 
Q 2269 2841 1825 2841 
Q 1466 2841 1156 2769 
Q 847 2697 581 2553 
L 581 3406 
Q 941 3494 1303 3539 
Q 1666 3584 2028 3584 
Q 2975 3584 3395 3211 
Q 3816 2838 3816 1997 
z
" transform="scale(0.015625)"/>
     <path id="DejaVuSans-Bold-3a" d="M 716 3500 
L 1844 3500 
L 1844 2291 
L 716 2291 
L 716 3500 
z
M 716 1209 
L 1844 1209 
L 1844 0 
L 716 0 
L 716 1209 
z
" transform="scale(0.015625)"/>
     <path id="DejaVuSans-Bold-44" d="M 1791 3756 
L 1791 909 
L 2222 909 
Q 2959 909 3348 1275 
Q 3738 1641 3738 2338 
Q 3738 3031 3350 3393 
Q 2963 3756 2222 3756 
L 1791 3756 
z
M 588 4666 
L 1856 4666 
Q 2919 4666 3439 4514 
Q 3959 4363 4331 4000 
Q 4659 3684 4818 3271 
Q 4978 2859 4978 2338 
Q 4978 1809 4818 1395 
Q 4659 981 4331 666 
Q 3956 303 3431 151 
Q 2906 0 1856 0 
L 588 0 
L 588 4666 
z
" transform="scale(0.015625)"/>
     <path id="DejaVuSans-Bold-28" d="M 2413 -844 
L 1484 -844 
Q 1006 -72 778 623 
Q 550 1319 550 2003 
Q 550 2688 779 3389 
Q 1009 4091 1484 4856 
L 2413 4856 
Q 2013 4116 1813 3408 
Q 1613 2700 1613 2009 
Q 1613 1319 1811 609 
Q 2009 -100 2413 -844 
z
" transform="scale(0.015625)"/>
     <path id="DejaVuSans-Bold-59" d="M -63 4666 
L 1253 4666 
L 2316 3003 
L 3378 4666 
L 4697 4666 
L 2919 1966 
L 2919 0 
L 1716 0 
L 1716 1966 
L -63 4666 
z
" transform="scale(0.015625)"/>
     <path id="DejaVuSans-Bold-29" d="M 513 -844 
Q 913 -100 1113 609 
Q 1313 1319 1313 2009 
Q 1313 2700 1113 3408 
Q 913 4116 513 4856 
L 1441 4856 
Q 1916 4091 2145 3389 
Q 2375 2688 2375 2003 
Q 2375 1319 2147 623 
Q 1919 -72 1441 -844 
L 513 -844 
z
" transform="scale(0.015625)"/>
    </defs>
    <use xlink:href="#DejaVuSans-Bold-56"/>
    <use xlink:href="#DejaVuSans-Bold-4e" transform="translate(77.392578 0)"/>
    <use xlink:href="#DejaVuSans-Bold-58" transform="translate(161.083984 0)"/>
    <use xlink:href="#DejaVuSans-Bold-20" transform="translate(238.183594 0)"/>
    <use xlink:href="#DejaVuSans-Bold-45" transform="translate(272.998047 0)"/>
    <use xlink:href="#DejaVuSans-Bold-64" transform="translate(341.308594 0)"/>
    <use xlink:href="#DejaVuSans-Bold-67" transform="translate(412.890625 0)"/>
    <use xlink:href="#DejaVuSans-Bold-65" transform="translate(484.472656 0)"/>
    <use xlink:href="#DejaVuSans-Bold-20" transform="translate(552.294922 0)"/>
    <use xlink:href="#DejaVuSans-Bold-50" transform="translate(587.109375 0)"/>
    <use xlink:href="#DejaVuSans-Bold-65" transform="translate(660.400391 0)"/>
    <use xlink:href="#DejaVuSans-Bold-72" transform="translate(728.222656 0)"/>
    <use xlink:href="#DejaVuSans-Bold-66" transform="translate(777.539062 0)"/>
    <use xlink:href="#DejaVuSans-Bold-6f" transform="translate(821.044922 0)"/>
    <use xlink:href="#DejaVuSans-Bold-72" transform="translate(889.746094 0)"/>
    <use xlink:href="#DejaVuSans-Bold-6d" transform="translate(939.0625 0)"/>
    <use xlink:href="#DejaVuSans-Bold-61" transform="translate(1043.261719 0)"/>
    <use xlink:href="#DejaVuSans-Bold-6e" transform="translate(1110.742188 0)"/>
    <use xlink:href="#DejaVuSans-Bold-63" transform="translate(1181.933594 0)"/>
    <use xlink:href="#DejaVuSans-Bold-65" transform="translate(1241.210938 0)"/>
    <use xlink:href="#DejaVuSans-Bold-3a" transform="translate(1309.033203 0)"/>
    <use xlink:href="#DejaVuSans-Bold-20" transform="translate(1349.023438 0)"/>
    <use xlink:href="#DejaVuSans-Bold-44" transform="translate(1383.837891 0)"/>
    <use xlink:href="#DejaVuSans-Bold-65" transform="translate(1466.845703 0)"/>
    <use xlink:href="#DejaVuSans-Bold-73" transform="translate(1534.667969 0)"/>
    <use xlink:href="#DejaVuSans-Bold-69" transform="translate(1594.189453 0)"/>
    <use xlink:href="#DejaVuSans-Bold-67" transform="translate(1628.466797 0)"/>
    <use xlink:href="#DejaVuSans-Bold-6e" transform="translate(1700.048828 0)"/>
    <use xlink:href="#DejaVuSans-Bold-20" transform="translate(1771.240234 0)"/>
    <use xlink:href="#DejaVuSans-Bold-54" transform="translate(1806.054688 0)"/>
    <use xlink:href="#DejaVuSans-Bold-61" transform="translate(1861.392578 0)"/>
    <use xlink:href="#DejaVuSans-Bold-72" transform="translate(1928.873047 0)"/>
    <use xlink:href="#DejaVuSans-Bold-67" transform="translate(1978.189453 0)"/>
    <use xlink:href="#DejaVuSans-Bold-65" transform="translate(2049.771484 0)"/>
    <use xlink:href="#DejaVuSans-Bold-74" transform="translate(2117.59375 0)"/>
    <use xlink:href="#DejaVuSans-Bold-73" transform="translate(2165.396484 0)"/>
    <use xlink:href="#DejaVuSans-Bold-20" transform="translate(2224.917969 0)"/>
    <use xlink:href="#DejaVuSans-Bold-28" transform="translate(2259.732422 0)"/>
    <use xlink:href="#DejaVuSans-Bold-4e" transform="translate(2305.435547 0)"/>
    <use xlink:href="#DejaVuSans-Bold-6f" transform="translate(2389.126953 0)"/>
    <use xlink:href="#DejaVuSans-Bold-74" transform="translate(2457.828125 0)"/>
    <use xlink:href="#DejaVuSans-Bold-20" transform="translate(2505.630859 0)"/>
    <use xlink:href="#DejaVuSans-Bold-59" transform="translate(2540.445312 0)"/>
    <use xlink:href="#DejaVuSans-Bold-65" transform="translate(2603.732422 0)"/>
    <use xlink:href="#DejaVuSans-Bold-74" transform="translate(2671.554688 0)"/>
    <use xlink:href="#DejaVuSans-Bold-20" transform="translate(2719.357422 0)"/>
    <use xlink:href="#DejaVuSans-Bold-54" transform="translate(2754.171875 0)"/>
    <use xlink:href="#DejaVuSans-Bold-65" transform="translate(2809.134766 0)"/>
    <use xlink:href="#DejaVuSans-Bold-73" transform="translate(2876.957031 0)"/>
    <use xlink:href="#DejaVuSans-Bold-74" transform="translate(2936.478516 0)"/>
    <use xlink:href="#DejaVuSans-Bold-65" transform="translate(2984.28125 0)"/>
    <use xlink:href="#DejaVuSans-Bold-64" transform="translate(3052.103516 0)"/>
    <use xlink:href="#DejaVuSans-Bold-29" transform="translate(3123.685547 0)"/>
   </g>
  </g>
  <g id="text_18">
   <g id="patch_14">
    <path d="M 100.751563 852.445 
L 801.069063 852.445 
Q 809.069063 852.445 809.069063 844.445 
L 809.069063 828.835 
Q 809.069063 820.835 801.069063 820.835 
L 100.751563 820.835 
Q 92.751563 820.835 92.751563 828.835 
L 92.751563 844.445 
Q 92.751563 852.445 100.751563 852.445 
z
" style="fill: #1e293b; stroke: #7a828e; stroke-width: 2; stroke-linejoin: miter"/>
   </g>
   <!-- ⚠ Design targets — require testing to verify  (Throughput only metric tested) -->
   <g style="fill: #7a828e" transform="translate(100.751563 840.9925) scale(0.16 -0.16)">
    <defs>
     <path id="DejaVuSans-Bold-26a0" d="M 2897 4663 
L 2919 4663 
L 5425 28 
L 5425 0 
L 366 0 
L 341 28 
L 313 28 
Q 2797 4559 2897 4663 
z
M 2869 4075 
L 794 322 
L 794 269 
L 4972 269 
L 4972 297 
Q 2959 3988 2869 4075 
z
M 2897 3381 
Q 3138 3381 3138 3169 
Q 2975 1253 2897 1253 
Q 2825 1253 2656 3197 
Q 2734 3381 2897 3381 
z
M 2894 1022 
Q 2953 1022 3011 990 
Q 3069 959 3101 903 
Q 3134 847 3134 781 
Q 3134 719 3103 662 
Q 3072 606 3012 575 
Q 2953 544 2894 544 
Q 2831 544 2775 575 
Q 2719 606 2686 662 
Q 2653 719 2653 781 
Q 2653 847 2686 903 
Q 2719 959 2775 990 
Q 2831 1022 2894 1022 
z
" transform="scale(0.015625)"/>
     <path id="DejaVuSans-Bold-2014" d="M 344 2156 
L 6056 2156 
L 6056 1350 
L 344 1350 
L 344 2156 
z
" transform="scale(0.015625)"/>
     <path id="DejaVuSans-Bold-71" d="M 2181 2772 
Q 1825 2772 1636 2509 
Q 1447 2247 1447 1747 
Q 1447 1247 1636 984 
Q 1825 722 2181 722 
Q 2541 722 2730 984 
Q 2919 1247 2919 1747 
Q 2919 2247 2730 2509 
Q 2541 2772 2181 2772 
z
M 2919 506 
Q 2688 197 2409 53 
Q 2131 -91 1766 -91 
Q 1119 -91 703 423 
Q 288 938 288 1747 
Q 288 2556 703 3067 
Q 1119 3578 1766 3578 
Q 2131 3578 2409 3434 
Q 2688 3291 2919 2981 
L 2919 3500 
L 4044 3500 
L 4044 -1331 
L 2919 -1331 
L 2919 506 
z
" transform="scale(0.015625)"/>
     <path id="DejaVuSans-Bold-76" d="M 97 3500 
L 1216 3500 
L 2088 1081 
L 2956 3500 
L 4078 3500 
L 2700 0 
L 1472 0 
L 97 3500 
z
" transform="scale(0.015625)"/>
    </defs>
    <use xlink:href="#DejaVuSans-Bold-26a0"/>
    <use xlink:href="#DejaVuSans-Bold-20" transform="translate(89.648438 0)"/>
    <use xlink:href="#DejaVuSans-Bold-44" transform="translate(124.462891 0)"/>
    <use xlink:href="#DejaVuSans-Bold-65" transform="translate(207.470703 0)"/>
    <use xlink:href="#DejaVuSans-Bold-73" transform="translate(275.292969 0)"/>
    <use xlink:href="#DejaVuSans-Bold-69" transform="translate(334.814453 0)"/>
    <use xlink:href="#DejaVuSans-Bold-67" transform="translate(369.091797 0)"/>
    <use xlink:href="#DejaVuSans-Bold-6e" transform="translate(440.673828 0)"/>
    <use xlink:href="#DejaVuSans-Bold-20" transform="translate(511.865234 0)"/>
    <use xlink:href="#DejaVuSans-Bold-74" transform="translate(546.679688 0)"/>
    <use xlink:href="#DejaVuSans-Bold-61" transform="translate(594.482422 0)"/>
    <use xlink:href="#DejaVuSans-Bold-72" transform="translate(661.962891 0)"/>
    <use xlink:href="#DejaVuSans-Bold-67" transform="translate(711.279297 0)"/>
    <use xlink:href="#DejaVuSans-Bold-65" transform="translate(782.861328 0)"/>
    <use xlink:href="#DejaVuSans-Bold-74" transform="translate(850.683594 0)"/>
    <use xlink:href="#DejaVuSans-Bold-73" transform="translate(898.486328 0)"/>
    <use xlink:href="#DejaVuSans-Bold-20" transform="translate(958.007812 0)"/>
    <use xlink:href="#DejaVuSans-Bold-2014" transform="translate(992.822266 0)"/>
    <use xlink:href="#DejaVuSans-Bold-20" transform="translate(1092.822266 0)"/>
    <use xlink:href="#DejaVuSans-Bold-72" transform="translate(1127.636719 0)"/>
    <use xlink:href="#DejaVuSans-Bold-65" transform="translate(1176.953125 0)"/>
    <use xlink:href="#DejaVuSans-Bold-71" transform="translate(1244.775391 0)"/>
    <use xlink:href="#DejaVuSans-Bold-75" transform="translate(1316.357422 0)"/>
    <use xlink:href="#DejaVuSans-Bold-69" transform="translate(1387.548828 0)"/>
    <use xlink:href="#DejaVuSans-Bold-72" transform="translate(1421.826172 0)"/>
    <use xlink:href="#DejaVuSans-Bold-65" transform="translate(1471.142578 0)"/>
    <use xlink:href="#DejaVuSans-Bold-20" transform="translate(1538.964844 0)"/>
    <use xlink:href="#DejaVuSans-Bold-74" transform="translate(1573.779297 0)"/>
    <use xlink:href="#DejaVuSans-Bold-65" transform="translate(1621.582031 0)"/>
    <use xlink:href="#DejaVuSans-Bold-73" transform="translate(1689.404297 0)"/>
    <use xlink:href="#DejaVuSans-Bold-74" transform="translate(1748.925781 0)"/>
    <use xlink:href="#DejaVuSans-Bold-69" transform="translate(1796.728516 0)"/>
    <use xlink:href="#DejaVuSans-Bold-6e" transform="translate(1831.005859 0)"/>
    <use xlink:href="#DejaVuSans-Bold-67" transform="translate(1902.197266 0)"/>
    <use xlink:href="#DejaVuSans-Bold-20" transform="translate(1973.779297 0)"/>
    <use xlink:href="#DejaVuSans-Bold-74" transform="translate(2008.59375 0)"/>
    <use xlink:href="#DejaVuSans-Bold-6f" transform="translate(2056.396484 0)"/>
    <use xlink:href="#DejaVuSans-Bold-20" transform="translate(2125.097656 0)"/>
    <use xlink:href="#DejaVuSans-Bold-76" transform="translate(2159.912109 0)"/>
    <use xlink:href="#DejaVuSans-Bold-65" transform="translate(2225.097656 0)"/>
    <use xlink:href="#DejaVuSans-Bold-72" transform="translate(2292.919922 0)"/>
    <use xlink:href="#DejaVuSans-Bold-69" transform="translate(2342.236328 0)"/>
    <use xlink:href="#DejaVuSans-Bold-66" transform="translate(2376.513672 0)"/>
    <use xlink:href="#DejaVuSans-Bold-79" transform="translate(2420.019531 0)"/>
    <use xlink:href="#DejaVuSans-Bold-20" transform="translate(2485.205078 0)"/>
    <use xlink:href="#DejaVuSans-Bold-20" transform="translate(2520.019531 0)"/>
    <use xlink:href="#DejaVuSans-Bold-28" transform="translate(2554.833984 0)"/>
    <use xlink:href="#DejaVuSans-Bold-54" transform="translate(2600.537109 0)"/>
    <use xlink:href="#DejaVuSans-Bold-68" transform="translate(2668.75 0)"/>
    <use xlink:href="#DejaVuSans-Bold-72" transform="translate(2739.941406 0)"/>
    <use xlink:href="#DejaVuSans-Bold-6f" transform="translate(2789.257812 0)"/>
    <use xlink:href="#DejaVuSans-Bold-75" transform="translate(2857.958984 0)"/>
    <use xlink:href="#DejaVuSans-Bold-67" transform="translate(2929.150391 0)"/>
    <use xlink:href="#DejaVuSans-Bold-68" transform="translate(3000.732422 0)"/>
    <use xlink:href="#DejaVuSans-Bold-70" transform="translate(3071.923828 0)"/>
    <use xlink:href="#DejaVuSans-Bold-75" transform="translate(3143.505859 0)"/>
    <use xlink:href="#DejaVuSans-Bold-74" transform="translate(3214.697266 0)"/>
    <use xlink:href="#DejaVuSans-Bold-20" transform="translate(3262.5 0)"/>
    <use xlink:href="#DejaVuSans-Bold-6f" transform="translate(3297.314453 0)"/>
    <use xlink:href="#DejaVuSans-Bold-6e" transform="translate(3366.015625 0)"/>
    <use xlink:href="#DejaVuSans-Bold-6c" transform="translate(3437.207031 0)"/>
    <use xlink:href="#DejaVuSans-Bold-79" transform="translate(3471.484375 0)"/>
    <use xlink:href="#DejaVuSans-Bold-20" transform="translate(3536.669922 0)"/>
    <use xlink:href="#DejaVuSans-Bold-6d" transform="translate(3571.484375 0)"/>
    <use xlink:href="#DejaVuSans-Bold-65" transform="translate(3675.683594 0)"/>
    <use xlink:href="#DejaVuSans-Bold-74" transform="translate(3743.505859 0)"/>
    <use xlink:href="#DejaVuSans-Bold-72" transform="translate(3791.308594 0)"/>
    <use xlink:href="#DejaVuSans-Bold-69" transform="translate(3840.625 0)"/>
    <use xlink:href="#DejaVuSans-Bold-63" transform="translate(3874.902344 0)"/>
    <use xlink:href="#DejaVuSans-Bold-20" transform="translate(3934.179688 0)"/>
    <use xlink:href="#DejaVuSans-Bold-74" transform="translate(3968.994141 0)"/>
    <use xlink:href="#DejaVuSans-Bold-65" transform="translate(4016.796875 0)"/>
    <use xlink:href="#DejaVuSans-Bold-73" transform="translate(4084.619141 0)"/>
    <use xlink:href="#DejaVuSans-Bold-74" transform="translate(4144.140625 0)"/>
    <use xlink:href="#DejaVuSans-Bold-65" transform="translate(4191.943359 0)"/>
    <use xlink:href="#DejaVuSans-Bold-64" transform="translate(4259.765625 0)"/>
    <use xlink:href="#DejaVuSans-Bold-29" transform="translate(4331.347656 0)"/>
   </g>
  </g>
 </g>
 <defs>
  <clipPath id="p1267e2c31c">
   <rect x="8.169887" y="76.32" width="301.480851" height="301.480851"/>
  </clipPath>
  <clipPath id="p32b16fac33">
   <rect x="628.169887" y="76.32" width="301.480851" height="301.480851"/>
  </clipPath>
  <clipPath id="p092831b6ea">
   <rect x="8.169887" y="483.319149" width="301.480851" height="301.480851"/>
  </clipPath>
  <clipPath id="pb3dabef776">
   <rect x="628.169887" y="483.319149" width="301.480851" height="301.480851"/>
  </clipPath>
 </defs>
</svg>
